<?xml version="1.0" encoding="UTF-8"?>
<svg width="40px" height="82px" viewBox="0 0 40 82" version="1.1" xmlns="http://www.w3.org/2000/svg" xmlns:xlink="http://www.w3.org/1999/xlink">
    <!-- Generator: Sketch 57.1 (83088) - https://sketch.com -->
    <title>vn-3671827f</title>
    <desc>Created with Sketch.</desc>
    <g id="Page-1" stroke="none" stroke-width="1" fill="none" fill-rule="evenodd">
        <g id="Home-Copy-11" transform="translate(-449.000000, -855.000000)" stroke="#000000">
            <g id="Group-9" transform="translate(382.000000, 856.000000)">
                <g id="vn-3671827f" transform="translate(68.000000, 0.000000)">
                    <path d="M37.8498079,59.3187533 C37.3753938,59.2596608 37.3822573,59.1163656 37.1187683,59.0517489 C37.256874,58.7244802 37.3310326,58.6545066 37.4508916,58.4506123 L37.3181427,58.4506123 C37.340407,58.4062511 37.3623366,58.3615551 37.3846009,58.3171938 C37.2958784,58.4060837 37.2073233,58.495141 37.1187683,58.5841982 C36.9560546,58.6151674 36.7124863,58.6536696 36.7863101,58.9179956 C36.4392881,59.228022 37.902037,60.5663921 36.8527683,60.4538987 C36.8085744,60.4984273 36.7643806,60.5429559 36.719852,60.5873172 C36.6838608,60.9507445 36.8157727,63.0650176 36.719852,63.1247797 C36.684363,62.9252379 36.7377639,63.1050264 36.5206449,62.9245683 C36.5425744,62.9911938 36.5646714,63.0581542 36.5871031,63.1247797 C36.5512793,63.8072731 36.7523278,63.9207709 36.1881868,64.5937225 C36.0110767,64.5714581 35.8336317,64.5491938 35.6563542,64.5269295 C35.7060722,64.9265154 35.5192529,65.6731233 35.4571471,65.9960396 C35.083671,65.9349383 34.7147242,66.023326 34.3936493,65.9292467 C34.3906361,65.9493348 34.3071031,66.6333348 33.9284423,66.7304273 C33.9033322,66.5471233 33.2223454,66.7523568 32.9314026,66.8640132 C32.9980282,67.772163 31.522222,67.8116696 30.6053674,68.1995374 C30.6646273,68.5723392 30.5374026,69.1639339 30.139993,69.2678899 C29.6175348,68.5614581 26.6511912,71.4759075 25.6203366,71.0041718 C25.8098344,70.9072467 25.9973233,70.6419163 25.9527947,70.4032026 C25.9527947,70.4032026 25.1161251,70.168674 25.0222132,70.4032026 C24.977852,70.3807709 24.9338256,70.3585066 24.8892969,70.3362423 C25.100222,71.0209119 24.567385,70.9321894 24.1580899,70.737 C24.113896,70.7815286 24.0697022,70.8258899 24.0251736,70.8705859 C24.141015,71.3041542 24.1226009,71.2490793 23.8259665,71.4047621 C24.0889533,71.9059604 23.6450062,73.0385947 23.2943013,73.0072907 C23.4347507,73.4244537 23.4047859,73.4488943 23.5601339,73.7416784 C23.3477022,73.888489 23.3343101,73.7560749 23.3605921,73.9418899 C23.07283,73.7639427 22.784733,73.5858282 22.4964687,73.4078811 L22.4964687,73.6748855 C22.7437198,73.8473084 22.7246361,74.4240044 23.0947595,74.4762335 C23.0316493,74.8480308 23.0619489,74.909467 22.7626361,75.1439956 C22.518733,75.2328855 22.2749974,75.3219427 22.0314291,75.411 C21.7339577,74.6628855 20.9968916,74.6093172 20.3698079,74.1424361 L20.3698079,74.4094405 C20.6661075,74.5755022 21.0288652,75.1220661 21.1008476,75.6780044 C20.7976846,75.7407797 21.1766802,75.9088502 20.835015,76.212348 C20.7325656,76.3993348 17.7715789,77.5567445 17.5117727,77.5478722 C17.4011207,77.6144978 17.2904687,77.6811233 17.1794819,77.7482511 C17.1319401,77.7852467 16.4335436,78.9486828 16.5813586,79.0832731 C16.2214467,79.4413436 15.86957,79.6102511 15.5843189,79.8179956 C15.4989445,79.8802687 15.3936493,79.9162599 15.5180282,80.018207 C15.5180282,80.018207 13.8354819,80.7591233 13.6570326,80.2853789 C13.5053674,80.2559163 13.4546449,80.2425242 13.3247419,80.018207 C13.8217551,80.0349471 13.9596934,79.7470176 14.0557815,79.3504449 C13.6863278,79.3989912 13.9832969,79.3310264 13.6570326,79.2170264 C13.7899489,77.4810793 13.9228652,75.74463 14.0557815,74.0088502 C14.4545304,73.6748855 14.8532793,73.3410881 15.2521956,73.0072907 C15.2299313,72.9180661 15.2078344,72.8290088 15.1857374,72.7401189 C14.6545744,72.7478194 14.1341251,72.2526476 13.7899489,71.7383921 L13.2581163,71.7383921 C13.1474643,71.8942423 13.0364775,72.0500925 12.925993,72.2057753 C12.708037,71.7226564 12.0489797,71.152489 12.1947859,70.737 C12.6722132,70.6373965 12.4619577,70.1325154 13.1918256,70.0692379 C13.5683101,70.0915022 13.9451295,70.1135991 14.3217815,70.1360308 C14.3686537,69.8825859 14.880733,69.0706916 15.3184863,69.2678899 C15.3132969,68.8199251 15.2451648,68.7101101 15.1857374,68.1327445 C15.2299313,68.1104802 15.2742925,68.0882159 15.3184863,68.0659515 C15.8235348,68.0614317 16.4009004,68.2648238 16.7809004,68.4665419 C16.7999841,68.1444626 16.9036053,68.0939075 17.046733,67.7989471 C18.0084511,67.8590441 18.8807771,67.5557137 18.8412705,67.5985683 C19.2197639,67.657326 19.1173145,68.3815022 19.5056846,68.4665419 C19.6339137,68.6644097 19.5227595,68.4677137 19.7048916,68.5999604 L19.7048916,68.1995374 C19.7715172,68.2218018 19.8381427,68.2438987 19.9046009,68.266163 C20.2266802,68.6160308 20.2623366,68.6796432 21.0343894,68.6669207 C21.0568211,68.5999604 21.0785833,68.5333348 21.1008476,68.4665419 C20.8798784,68.2956256 20.986178,68.0810176 20.7685568,67.9323656 C20.8793762,67.8212115 20.9901956,67.7098899 21.1008476,67.5985683 C21.0343894,67.4206211 20.9677639,67.2425066 20.9014731,67.0645595 L20.2368916,67.0645595 C20.1625656,66.5166564 19.5649445,66.361978 19.3064775,65.9960396 C19.3277374,65.4698987 19.5594203,64.8788062 19.239852,64.5937225 C19.0766361,64.4629824 19.2130678,64.5560573 19.0404775,64.5269295 C19.1071031,64.3712467 19.1735612,64.2155639 19.239852,64.0597137 C19.4834203,64.1040749 19.7273233,64.1489383 19.971059,64.1932996 C20.0626273,63.9365066 20.034504,63.7108502 20.2368916,63.5255374 C20.7740811,63.7766388 21.6974643,63.8951586 22.3635524,64.0597137 C22.123667,63.5226916 22.2651207,63.0114493 22.2306361,62.4570176 L22.4964687,62.4570176 C22.4894379,62.6659339 23.7851207,62.4678987 23.9588828,62.4570176 C23.9811471,62.2792379 24.0030767,62.1007885 24.0251736,61.9230088 C25.6417639,62.3137225 25.6084511,60.5889912 27.0161251,60.5873172 C27.1277815,60.8446123 27.2781075,60.9912555 27.4813322,61.0548678 C27.5337286,60.6984714 27.640363,60.7681101 28.0129974,60.5873172 C27.9935789,60.0742335 28.4231295,58.879326 28.2125392,58.3839868 C28.0407859,57.9800485 27.6199401,57.7577401 27.680874,57.248674 C27.908874,56.937141 28.6464423,54.8193524 28.4119137,54.1105771 C28.0746009,53.0907709 27.6946009,53.3594493 27.6142485,52.0404978 C27.6365128,51.9961366 27.6587771,51.9514405 27.680874,51.9070793 C27.3875877,51.4999604 27.0882749,51.5967181 26.949667,50.8385595 C27.1482044,50.7533524 27.6805392,49.5648062 27.7473322,49.3696167 C28.2394907,48.4872467 27.6989533,48.2018282 27.9467066,47.3664978 C28.0573586,47.2106476 28.168178,47.05463 28.27883,46.8989471 C28.1721956,46.7846123 27.6599489,46.3050088 27.8137903,46.297978 C27.8313674,46.0679692 28.022874,45.964348 28.4119137,46.0309736 C28.3236934,45.5448414 28.7329885,45.0280749 28.8771207,44.5620308 C28.6775789,44.5175022 28.4783718,44.4728062 28.27883,44.4284449 L28.27883,44.0276872 C27.9291295,44.104022 28.0446361,44.0430881 27.9467066,43.8941013 C27.5327242,43.8398634 25.9939753,42.3730969 26.4844599,41.8911498 C26.5397022,41.4766652 26.9205392,41.6146035 27.4813322,41.2901806 C27.5256934,41.0230088 27.570222,40.755837 27.6142485,40.489 L27.2819577,40.489 C27.1053498,40.5819075 27.2397727,40.6118722 27.0825833,40.489 C26.8120634,40.4253877 25.9499489,40.032163 25.8863366,39.6206916 C26.1531736,39.4867709 25.9645128,39.5468678 26.085711,39.3536872 C25.4897639,39.3814758 24.5643718,38.959793 24.490548,38.2185419 C24.1075348,38.241978 24.1319753,38.2334405 23.8922573,38.4189207 C23.8765216,38.6589736 23.9240634,38.4440308 23.7595084,38.6189648 C23.6296053,38.2610617 23.6125304,38.3554758 23.3605921,38.1517489 C23.4456317,37.938815 23.3403366,37.9994141 23.4935084,37.8845771 C23.3684599,37.6239339 23.3003278,37.5372203 22.8955524,37.3505683 C22.9176493,36.8386564 22.9397463,36.3265771 22.9618432,35.8146652 C22.5572352,34.8005507 21.5523278,34.945185 21.6325128,33.8781718 C21.4997639,33.9673965 21.3666802,34.0564537 21.2337639,34.1453436 C20.8298256,33.1432819 17.413341,30.8867181 18.176689,30.0055198 C17.9418256,29.6760749 17.4151824,29.4793789 17.3125656,28.870207 C17.2019137,28.8924714 17.0909269,28.9149031 16.9801075,28.937 L16.9801075,29.2040044 C16.8029974,29.0928502 16.6255524,28.9815286 16.4484423,28.870207 C16.4926361,28.7588855 16.5371648,28.6475639 16.5813586,28.5365771 C15.7271119,28.5742423 15.627341,27.4774317 15.45157,26.9337137 C15.6065833,26.8225595 15.7615965,26.7114053 15.9167771,26.6000837 C15.8724159,26.5332907 15.8280546,26.4664978 15.7838608,26.3998722 C15.7436846,26.2028414 15.8533322,26.3282247 15.6509445,26.199326 C15.2409797,25.8153084 14.2283718,25.9120661 13.6570326,25.6653172 C13.4643542,25.5821189 12.2496934,24.4921718 12.3943278,24.4633789 C11.4942132,24.0348326 9.6491207,23.3771145 9.13737621,22.7272643 C9.25388722,22.5824626 9.76111189,22.0432643 10.0679577,22.1930881 C10.0898872,21.947511 10.2957903,21.3021806 10.1344159,21.458533 C9.99748194,21.1088326 9.76060969,20.9640308 9.86858326,20.6573524 C9.97588722,20.8076784 9.90206344,20.7207974 10.0679577,20.7907709 L10.200874,20.7907709 C10.5822132,20.7541101 10.8883894,20.4114405 11.3972881,20.5235991 C12.0580194,20.6695727 11.8834203,20.9785947 13.0589093,21.0579427 C13.1824511,20.4065859 13.7760546,20.4467621 13.9228652,20.0562159 C13.9961868,19.7801718 13.8692969,19.6787269 13.7234907,19.4554141 C13.7455877,19.4331498 13.7676846,19.4108855 13.7899489,19.3886211 C14.0889269,19.3224978 14.3587771,19.1341718 14.7205304,18.9880308 C14.6539048,18.6763304 14.5876141,18.3647974 14.5209885,18.0530969 C14.3072176,18.0023744 14.3996229,17.9611938 14.2551559,17.7192996 C13.9672264,17.7859251 13.6791295,17.8527181 13.3912,17.919511 C13.2142573,17.7556256 13.2894203,17.8286123 13.2581163,17.6525066 C12.9788916,17.3846652 13.2999665,17.3252379 13.1918256,16.9847445 L11.796037,16.5173612 C11.7737727,16.428304 11.7518432,16.3392467 11.7295789,16.2501894 C12.0238696,16.2255815 12.9069093,15.978163 12.7927419,15.7161806 C12.9705216,15.591467 12.9182925,15.5852731 12.925993,15.3154229 C12.2483542,14.8158987 11.6596053,14.6083216 11.3306626,13.8464802 C10.7670238,13.9852555 10.7152969,13.6522952 9.93504141,13.5794758 C9.86372863,14.4641894 7.85006344,13.8987093 8.40650396,15.3154229 L8.00742026,15.3154229 C7.86412511,15.0219692 7.09525286,14.4518018 6.87763172,14.4474493 C5.5626978,14.6269031 5.29268018,13.9904449 4.68434537,13.0451322 C4.33464493,13.121467 4.44981674,13.0607004 4.35205463,12.9115463 C4.03583436,12.8701982 3.98879471,12.3423833 4.08622203,12.0435727 C3.72848634,12.0539515 3.69031894,11.8053612 3.75393128,11.9099868 C3.8533674,11.7457665 3.83227489,11.8495551 4.01976388,11.7097753 C3.90626608,11.0376608 4.19352599,10.2249295 4.35205463,9.50627753 L3.75393128,9.50627753 C3.76079471,9.19240088 3.78858326,8.9483304 3.55438943,8.83851542 C3.53245991,8.88287665 3.51019559,8.92757269 3.48793128,8.97210132 C3.59121762,9.37570485 3.44156123,9.61642731 3.15580793,9.63969604 C3.06808987,9.74281498 2.98757004,9.88795154 2.88980793,9.70648899 C2.40250396,9.26036564 2.97685639,9.10217181 2.69043348,8.63813656 C2.47297974,8.28592511 2.0474467,8.12187225 1.95939383,7.9037489 L1.95939383,7.50299119 C1.25212511,7.32069163 0.581014978,6.33068282 0.231147137,5.8336696 C0.22997533,5.76018062 -0.0500863436,5.59713216 0.164688987,5.5666652 C0.213067841,5.30702643 0.310997357,5.37448899 0.630063436,5.49970485 C0.67442467,5.45534361 0.718618502,5.41081498 0.762979736,5.36628634 C0.758794714,5.30384581 1.74160529,3.44636564 1.76001938,3.42996035 L1.89293568,3.42996035 C2.44502379,3.95794273 3.0552,3.76459471 3.68730573,4.23114097 C3.80733216,4.74857709 4.08505022,5.23788987 4.81742907,5.29949339 C4.88037181,4.883837 5.13147313,4.845 5.41555242,4.89890308 C5.37738502,4.50132599 5.91172863,3.54262115 6.27950837,3.2295815 C6.42263612,3.53592511 6.87662731,4.29944053 7.34283877,4.43151982 C7.32074185,4.38699119 7.29864493,4.34246256 7.27654802,4.29793392 C7.41616035,4.1800837 7.61168458,3.66097357 7.74192247,3.42996035 C8.49388722,3.79840969 8.92879471,4.44842731 9.33691806,5.03232159 C9.46983436,4.98796035 9.60275066,4.94343172 9.73566696,4.89890308 C9.58098855,4.25307048 10.0468652,4.45629515 9.80195771,3.83055066 C10.0607595,3.71136123 10.8458696,3.20179295 10.9319137,3.02920264 L10.9985392,3.02920264 C10.9883278,3.43414537 10.9774467,3.55969604 11.0649974,3.76375771 C11.2675524,3.78367841 11.411852,3.89349339 11.5966626,4.03092952 C12.0710767,3.58882379 12.5069885,2.89662115 13.3247419,3.2295815 C13.5413586,2.81995154 13.6034643,2.94767841 13.9893233,2.56181938 C13.8659489,2.15235683 13.9382661,1.85337885 14.0557815,1.42667401 C14.5310326,1.36222467 15.4262925,0.944559471 15.9832352,0.625493392 C16.233667,0.481863436 16.0801604,0.150577093 16.5150678,0.0911497797 C16.8543894,0.804110132 17.6930678,0.53777533 17.910689,1.76063877 C18.670689,1.62119383 19.0763013,2.25547577 19.6386009,2.62861233 C20.8038784,1.77704405 20.9677639,2.64250661 21.8318872,2.96240969 C22.0826537,2.91085022 22.5903806,2.55579295 22.7626361,2.62861233 C23.272037,2.85125551 23.7817727,3.07373128 24.2911736,3.29637445 C24.0814203,3.74115859 23.6696141,4.01268282 23.8259665,4.63173128 C23.342178,4.62620705 23.4096405,4.78523789 23.0283013,4.89890308 L23.0283013,5.96725551 C23.1724335,5.94030396 23.5616405,5.85844493 23.4272176,6.10084141 C23.7307154,6.30657709 23.7138079,7.17488546 23.6928828,7.76999559 C23.7268652,7.76848899 24.8469445,7.91479736 24.7563806,8.23754626 C24.9559225,8.19301762 25.1551295,8.14848899 25.354504,8.10412775 C25.3946802,8.30099119 25.2850326,8.17544053 25.4874203,8.30433921 C25.39083,8.54405727 25.3729181,8.50321145 25.354504,8.83851542 C25.9596581,9.0626652 26.0746626,9.35829515 26.5509181,9.50627753 C26.6242396,9.27693833 26.763852,9.3675022 26.7502925,9.37269163 C26.9223806,9.47614537 27.1661163,9.79772247 27.0825833,10.0404537 L27.3485833,10.0404537 C27.3981339,9.78684141 27.409015,9.77512335 27.8137903,9.70648899 C27.8537991,9.94771366 28.0528388,9.92159912 28.1459137,10.1072467 C28.7950943,9.88627753 29.8033498,9.64923789 29.6747859,9.90686784 C29.8962573,10.129511 30.117896,10.3519868 30.3395348,10.5744626 C30.2700634,10.8441454 30.2171648,11.1990352 30.0069093,11.3758106 C29.8706449,11.5157577 29.8897286,11.4851233 29.6084952,11.5093965 C29.6885128,11.3081806 29.7092705,10.9810793 29.8077022,10.7082159 C29.539526,10.7808678 29.1556758,10.6481189 29.276037,10.9084273 C28.9188035,11.0912291 29.0748211,11.3545507 28.6112881,11.2423921 C28.702689,11.8776784 28.0089797,14.1965154 27.4150414,14.5142423 C27.2355877,14.6500044 27.3790502,14.5711586 27.0825833,14.5808678 C27.0534555,14.3597313 26.9772881,14.2763656 26.6838344,14.0466916 C26.7574907,13.8575286 26.7414203,13.9495991 26.7502925,13.7796872 L27.1490414,13.5794758 L27.1490414,13.5126828 C27.0604863,13.4681542 26.9719313,13.4234581 26.8832088,13.3790969 C26.6172088,13.4234581 26.3513762,13.4681542 26.085711,13.5126828 C26.0192529,13.69063 25.9527947,13.8687445 25.8863366,14.0466916 L25.4209621,14.0466916 C25.5985744,14.2987974 25.748733,14.3662599 25.6203366,14.5808678 C25.518222,14.8145595 25.5361339,14.9340837 25.2214203,15.0482511 C25.243852,15.0038899 25.2659489,14.9593612 25.2880458,14.9148326 C25.1425744,14.8723128 25.0207066,14.9766035 25.0888388,14.7144537 C24.4828476,14.8550705 23.4402749,14.9697401 23.3605921,15.7161806 C23.2077551,15.8991498 23.7556581,15.8424009 23.4935084,15.9830176 C23.2238256,16.3702159 22.8359577,16.7950793 23.0947595,17.4521278 C23.0505656,17.4743921 23.006037,17.4966564 22.9618432,17.5189207 C22.8441604,17.3324361 22.3191912,16.9279956 21.8985128,17.0515374 C21.6325128,17.229652 21.3666802,17.4077665 21.1008476,17.5857137 C21.7592352,19.5573612 20.195711,20.1554846 19.239852,20.5235991 C19.2360018,21.4926828 18.8181692,24.0222775 18.0437727,24.196207 C18.0762485,24.3689648 18.0621868,24.6955639 18.176689,24.7973436 C18.2262396,25.1415198 19.7117551,28.0347093 20.1706009,28.4029912 C20.9726185,28.4883656 21.6417198,29.0183568 22.1643454,29.5381366 C22.3222044,29.6071057 22.5815084,30.3220749 22.5630943,30.2725242 C22.5523806,30.4250264 22.4778872,30.5956079 22.2972617,30.6731145 C22.3414555,31.0514405 22.3859841,31.4299339 22.430178,31.8084273 C22.7157639,32.2085154 24.8025833,35.2024802 25.6869621,34.8131057 C25.6630238,36.7611498 29.5246273,38.1559339 30.6716581,39.2201013 C30.7044687,39.5326388 30.78683,39.5537313 31.2033233,39.6874846 C31.0658872,39.9492996 31.0816229,39.8647621 31.070407,40.1548678 C31.1368652,40.2216608 31.2033233,40.2882863 31.2697815,40.3552467 C31.4249621,40.2439251 31.5801427,40.1327709 31.7353233,40.0214493 C31.7793498,40.1103392 31.8238784,40.1993965 31.8680722,40.2882863 C31.6106097,40.3254493 31.6263454,40.7555022 31.8016141,40.8894229 C31.8809621,41.4041806 32.4526361,41.3742159 32.5326537,41.557185 C32.8297903,42.2359956 32.7613233,42.6826211 33.1974026,43.1597137 C33.6495524,43.6543833 33.8994819,43.5092467 34.1942749,44.1612731 C34.3531383,44.1391762 34.7420106,43.9580485 34.5931912,44.2282335 C35.5020106,44.7190529 34.6773938,45.6543216 35.1248564,46.297978 C36.0368564,47.6105683 36.160733,50.1646035 36.8527683,51.3727357 C37.0333938,51.6879515 37.1144159,52.7194758 36.9192264,52.9086388 L36.6535612,52.9086388 C36.9083454,53.6346564 37.1910855,54.2898634 37.2516846,54.7115463 C37.1984511,54.7219251 37.1182661,54.7117137 37.185059,54.7781718 C37.0521427,54.7115463 36.9192264,54.6445859 36.7863101,54.5779604 C36.8571207,55.0644273 37.0976758,55.03463 37.185059,55.312348 C37.3030767,55.6866564 36.9434996,56.1835022 37.1187683,56.4476608 C37.3911295,56.85863 37.7895436,57.1132467 37.9162661,57.7828502 C37.5660634,57.8295551 37.6132705,57.826207 37.4508916,58.3839868 C37.7706273,58.5877137 37.8576758,58.797467 37.8498079,59.3187533 Z" id="Stroke-1"></path>
                    <path d="M3.55443965,12.0436229 L3.68735595,12.0436229 L3.55443965,12.0436229 Z" id="Stroke-3"></path>
                    <path d="M29.0766291,13.1787181 C29.1206555,13.245511 29.1651841,13.3121366 29.2095454,13.3790969 C29.3201974,13.3345683 29.4310167,13.2900396 29.5416687,13.245511 L29.5416687,13.5126828 C29.3362678,13.5357841 29.3099859,13.5590529 29.2095454,13.5794758 C29.0289198,13.5265771 29.0801445,13.6347181 29.0766291,13.4457225 L29.0766291,13.1787181 Z" id="Stroke-5"></path>
                    <path d="M30.5387586,38.8862872 C30.5610229,38.9308159 30.5831198,38.9753445 30.6052167,39.0198731 C30.5831198,38.9753445 30.5610229,38.9308159 30.5387586,38.8862872 Z" id="Stroke-7"></path>
                    <path d="M31.2033066,39.5540159 C31.4460379,39.6149498 31.3392361,39.5515048 31.4693066,39.6876018 C31.4249454,39.66517 31.3805841,39.6429057 31.3363903,39.6206414 L31.3363903,39.7542273 C31.2920291,39.6876018 31.2478352,39.6206414 31.2033066,39.5540159 Z" id="Stroke-9"></path>
                    <path d="M31.8680053,40.0880916 C31.9123665,40.1327877 31.9565604,40.1771489 32.001089,40.2216775 C31.9565604,40.1771489 31.9123665,40.1327877 31.8680053,40.0880916 Z" id="Stroke-11"></path>
                    <path d="M19.7714837,68.1328115 L19.9045674,68.1328115 L19.7714837,68.1328115 Z" id="Stroke-13"></path>
                    <path d="M35.1911639,70.0023278 L35.3905383,70.0023278 L35.3905383,70.2694996 C35.2020449,70.195341 35.293948,70.2115789 35.1248731,70.2027066 C35.1468026,70.1360811 35.169067,70.0691207 35.1911639,70.0023278 Z" id="Stroke-15"></path>
                    <path d="M9.53632599,70.5365877 C9.73536564,70.7369665 9.93490749,70.9373454 10.1344493,71.1377242 C10.1227313,72.1104907 9.87497797,71.7247991 9.86861674,72.7400855 L9.60261674,72.7400855 C9.60161233,71.669222 8.94573568,71.7279797 8.80511894,70.8705524 C9.04533921,70.9304819 9.14661674,71.0116714 9.40324229,70.8037595 C9.5945815,70.6917683 9.48828194,70.7076714 9.53632599,70.5365877 Z" id="Stroke-17"></path>
                    <path d="M9.66907489,72.8067947 C9.69117181,72.8513233 9.71360352,72.895852 9.73553304,72.9403806 C9.71360352,72.895852 9.69117181,72.8513233 9.66907489,72.8067947 Z" id="Stroke-19"></path>
                    <path d="M23.227726,79.4841815 L23.4935586,79.4841815 L23.4935586,79.550807 C23.3385454,79.7289216 23.1833648,79.9068687 23.0283515,80.0851507 L23.0283515,79.8847718 C23.0060872,79.8179789 22.9841577,79.7513533 22.9618934,79.6842256 C23.2039551,79.6676529 23.2037877,79.6256352 23.227726,79.4841815 Z" id="Stroke-21"></path>
                </g>
            </g>
        </g>
    </g>
</svg>