<?xml version="1.0" encoding="UTF-8"?>
<svg width="95px" height="70px" viewBox="0 0 95 70" version="1.1" xmlns="http://www.w3.org/2000/svg" xmlns:xlink="http://www.w3.org/1999/xlink">
    <!-- Generator: Sketch 57.1 (83088) - https://sketch.com -->
    <title>us-500f3bba</title>
    <desc>Created with Sketch.</desc>
    <g id="Page-1" stroke="none" stroke-width="1" fill="none" fill-rule="evenodd">
        <g id="Home-Copy-11" transform="translate(-643.000000, -867.000000)" fill="#101111" fill-rule="nonzero" stroke="#000000" stroke-width="0.25">
            <g id="Group-2" transform="translate(604.000000, 867.000000)">
                <g id="us-500f3bba" transform="translate(39.000000, 0.000000)">
                    <path d="M6.73372621,0.44692498 C6.69997225,0.44789278 6.65343428,0.45213032 6.61193304,0.45851041 L3.02538265,1.08856356 C2.75966841,1.13392924 2.56382979,1.3675043 2.56382979,1.64154122 L2.56382979,10.6109827 L2.13891778,11.0476971 L1.55538298,11.6474308 C1.45238702,11.7526663 1.3969087,11.885478 1.39469462,12.0316154 C1.39468844,12.0320265 1.39468844,12.0320265 1.39468226,12.0324375 C1.38968816,12.3666009 1.38968816,12.3666009 1.38461402,12.7054826 C1.36708068,13.8683025 1.35449564,14.5409683 1.33774259,15.0938062 L1.31652437,15.793991 L0.76601699,16.2271776 C0.61975223,16.3422713 0.53641312,16.5071247 0.53214354,16.670323 C0.53113696,16.7558822 0.53113696,16.7558822 0.52710769,17.1018961 C0.52207104,17.5370631 0.52207104,17.5370631 0.51602792,18.0683536 C0.51550893,18.1143104 0.51550893,18.1143104 0.51499059,18.1603175 C0.50570863,18.9846866 0.49986512,19.5334473 0.49986512,19.5993169 C0.55531998,23.7341697 0.88001389,27.1207187 1.38060237,29.809108 C1.55508681,30.7461693 1.73867323,31.5283085 1.91945448,32.1608255 C2.026052,32.5337886 2.11372923,32.7915693 2.15019657,32.880334 L2.3423551,33.3622602 C2.40137441,33.5224555 2.53524176,33.6454066 2.70776005,33.6934493 L2.88047711,33.7415474 L5.98961613,35.4787182 L6.19548124,35.9048592 L7.80250303,39.2315091 C7.88502288,39.3988409 8.03858848,39.5158432 8.20648087,39.547362 L9.438375,39.7692553 L11.600919,39.9617325 L12.0015998,40.5263259 C12.0504925,40.59522 12.1126245,40.6511948 12.1793559,40.6897556 L18.4468568,44.1933414 C18.5023051,44.2231983 18.5722359,44.2465085 18.6563689,44.2610179 L24.5318906,45.2604217 C24.6836841,45.2860769 24.8442184,45.2444786 25.0241143,45.1042065 C25.0312389,45.099061 25.0541908,45.075739 25.0972144,45.020422 L25.5911498,44.3853519 L27.5865079,44.535007 L31.4574468,48.3441743 L31.4574468,49.4482224 C31.4574468,49.6539734 31.5732388,49.8467547 31.7575892,49.9455246 L33.8309627,51.0470485 C33.9056205,51.0874041 33.9903781,51.1084617 34.0851064,51.1084617 L37.913045,51.1084617 L40.3008237,54.70605 L40.3647117,54.9301074 L40.9354453,56.9317359 C40.9852058,57.1036368 41.1069917,57.2390865 41.2656039,57.3042999 L46.2572977,59.3203309 C46.4328289,59.3914321 46.6277988,59.3712833 46.7929473,59.2582812 C46.9404145,59.160662 47.0319149,58.9882869 47.0319149,58.7999511 L47.0319149,54.9055267 L50.8289799,51.1084617 L54.7234043,51.1084617 C54.847174,51.1084617 54.9731036,51.0683372 55.0536964,51.0118861 L56.402272,50.0229307 L57.2821437,50.6361775 L57.8015348,50.9982757 C57.9124928,51.0739285 58.0222197,51.1084617 58.1416223,51.1084617 L60.9148936,51.1084617 C61.0646049,51.1084617 61.2072883,51.0493002 61.3134258,50.9431627 L63.2119592,49.0446319 L69.1379654,49.0446319 C69.2178004,49.0446319 69.2949399,49.0290889 69.3594504,49.0020453 L71.6371662,48.0379325 L72.9352939,48.9239565 L74.7978723,50.7751785 L74.7978723,52.3182357 C74.7978723,52.4445369 74.837268,52.5621609 74.912342,52.6615275 L76.329622,54.5306908 L76.329622,55.0915069 C76.329622,55.2435232 76.3930862,55.390068 76.5074996,55.4957273 L77.8343644,56.7372918 L77.9550048,56.9804578 L78.9811573,59.0489215 C79.0621513,59.2087205 79.2172081,59.3217076 79.4731298,59.3648319 C79.4687208,59.3638871 79.4675738,59.3637809 79.4893617,59.3637809 C79.6347473,59.3637809 79.7843913,59.3019844 79.8878932,59.1984826 L81.951723,57.1346528 C82.0578597,57.028516 82.1170213,56.8858325 82.1170213,56.7361213 L82.1170213,54.6722915 C82.1170213,54.5672602 82.0910796,54.4721405 82.0356819,54.3797522 L80.0531915,51.0275412 L80.0531915,50.5526933 C80.0531915,50.4599625 80.0334629,50.375568 79.991097,50.2908077 L77.910235,46.0853642 L77.9767517,42.526645 L78.405073,42.0987736 L86.0793825,34.4325251 C86.1855193,34.3263883 86.2446809,34.1837049 86.2446809,34.0339936 L86.2446809,29.9063341 C86.2446809,29.7566228 86.1855193,29.6139394 86.0793825,29.5078026 L84.1808511,27.6092711 L84.1808511,24.2073101 L85.5450443,24.0832896 L85.7998758,24.060165 C86.0845316,24.0321308 86.3057242,23.7827866 86.3012502,23.4851275 L86.2542436,19.9948859 L87.2938019,19.6477792 L92.0510069,18.0593568 C92.2819472,17.9823767 92.4361702,17.7677235 92.4361702,17.5233553 L92.4361702,15.4595256 C92.4361702,15.1475398 92.1850051,14.8956958 91.8723404,14.8956958 L90.3723404,14.8956958 L90.3723404,11.6330013 L91.0410145,11.1877788 L94.2408394,9.0572882 C94.4062898,8.9454341 94.5,8.771145 94.5,8.5827807 L94.5,7.20420641 C94.5,7.05449517 94.4408385,6.91181173 94.3347017,6.80567494 L92.4361702,4.90714347 L92.4361702,3.07654683 C92.4361702,2.7645611 92.1850051,2.51271705 91.8723404,2.51271705 L89.8085106,2.51271705 C89.5970034,2.51271705 89.4024886,2.63359864 89.3034663,2.82936885 L87.24016,6.94791906 C87.2005801,7.02707834 87.1808511,7.11147479 87.1808511,7.20420641 L87.1808511,8.8669513 L86.1537521,9.2081629 L81.3745261,10.7958641 C81.1435867,10.8728441 80.9893617,11.0875001 80.9893617,11.331866 L80.9893617,14.8956958 L77.4255319,14.8956958 C77.175844,14.8956958 76.9513472,15.0645535 76.8846073,15.2992169 L75.8771922,18.8251659 L75.1394838,19.0710757 C75.1450151,19.0695241 75.1390403,19.0730879 75.101598,19.0926272 L71.7978723,20.7327785 L71.7978723,15.4595256 C71.7978723,15.1475398 71.5467072,14.8956958 71.2340426,14.8956958 L69.7340426,14.8956958 L69.7340426,13.3956958 C69.7340426,13.08371 69.4828775,12.831866 69.1702128,12.831866 L65.606383,12.831866 L65.606383,9.2680362 C65.606383,8.9856282 65.4027087,8.7522108 65.1196719,8.7143117 L59.6168658,7.95496473 L59.3839366,7.02318821 L59.3660357,6.98380316 C59.282689,6.78077927 59.0730383,6.64037662 58.8510638,6.64037662 L50.8289805,6.64037662 L48.9304435,4.74184227 C48.8251379,4.63653616 48.688755,4.57857335 48.5409878,4.5763678 L31.8449268,4.31838908 L31.644757,4.30184737 L17.6839665,2.19970638 L11.3440724,1.82242829 L11.1757149,1.77166882 L6.85198676,0.46793963 C6.83338705,0.46206593 6.79500606,0.45463844 6.73372621,0.44692498 Z M64.3536727,16.7956835 C64.385407,16.4664354 64.4685852,15.8094796 64.5279549,15.4295085 L64.5753289,15.1263111 L64.7379714,14.8660798 C64.7667273,14.8200698 64.7971257,14.7744723 64.8263956,14.7312665 C64.8336918,14.7203223 64.833701,14.7203076 64.8277251,14.7310643 L65.2563553,13.9595256 L68.606383,13.9595256 L68.606383,15.4595256 C68.606383,15.7715103 68.8575492,16.0233553 69.1702128,16.0233553 L70.6702128,16.0233553 L70.6702128,19.353952 L68.7716813,21.2524835 C68.6117876,21.4123771 68.564189,21.6528423 68.6552403,21.8714189 C68.7385869,22.0744418 68.9482382,22.2148447 69.1702128,22.2148447 L71.2501673,22.2148447 C71.3402444,22.2148447 71.4187954,22.1963621 71.4960445,22.1567117 L75.4899222,20.1510149 L76.2323803,20.1510149 C76.4881909,20.1510149 76.7127746,19.9832225 76.7820353,19.7451663 L77.8519121,16.0233553 L81.5531915,16.0233553 C81.8658562,16.0233553 82.1170213,15.7715113 82.1170213,15.4595256 L82.1170213,11.732768 L89.2446809,9.366164 L89.2446809,15.4595256 C89.2446809,15.5743442 89.2765323,15.676269 89.3381025,15.7664251 L90.4613347,17.4111555 L88.5703774,18.036511 L85.4981517,19.0525216 C85.2671709,19.1287889 85.1123977,19.3471073 85.1168293,19.5954356 L85.1711454,22.9901941 L83.7985154,23.1274489 L83.5668136,23.1505828 C83.2728652,23.1819975 83.0531915,23.4257082 83.0531915,23.7148447 L83.0531915,27.8425043 C83.0531915,27.9922155 83.112353,28.134899 83.2184906,28.2410365 L85.1170213,30.1395699 L85.1170213,33.8007605 L77.0270004,41.8907813 C76.9191148,41.9986669 76.8636747,42.1280271 76.8613181,42.2829463 L76.7725755,46.2036269 C76.770492,46.289059 76.7888811,46.3707886 76.8375053,46.4660409 L81.42193,55.8158582 L75.0427308,49.436659 L73.6432744,48.0352007 C73.6435318,48.0354814 73.6462165,48.0377279 73.6129032,48.0159081 L72.0062992,46.9340726 C71.8538276,46.8309932 71.657182,46.8120962 71.4745517,46.8896897 L69.0199799,47.9169724 L62.9787234,47.9169724 C62.8290122,47.9169724 62.6863287,47.9761339 62.5801919,48.0822707 L60.6816605,49.9808022 L58.3174336,49.9808022 L57.9318992,49.7134981 L56.7106513,48.8666788 C56.519388,48.7312903 56.2649964,48.7337366 56.0605292,48.8830345 L54.5388701,49.9808022 L50.5957447,49.9808022 C50.4460334,49.9808022 50.30335,50.0399637 50.1972132,50.1461005 L46.0695536,54.27376 C45.9634169,54.3798968 45.9042553,54.5225803 45.9042553,54.6722915 L45.9042553,57.9547101 L41.9397586,56.3636966 L41.7372237,55.6590436 L41.343466,54.2883207 C41.3277506,54.2299497 41.3143821,54.2000296 41.2846492,54.1562347 L38.6738661,50.2278451 C38.5730106,50.0733425 38.4014011,49.9808022 38.212766,49.9808022 L34.2273584,49.9808022 L32.5851064,49.108359 L32.5851064,48.1018954 C32.5851064,47.9506336 32.5253113,47.8066612 32.4210276,47.7045029 L28.2237911,43.5797629 C28.1243884,43.4826191 27.9935664,43.4240158 27.8578207,43.4151129 L24.7542675,43.2069416 C24.5672199,43.1974708 24.3934399,43.2674829 24.2760232,43.3918061 L23.7263321,43.9738298 L18.9406856,43.1693475 L13.0586967,39.8902536 L12.8860375,39.3008307 C12.8243853,39.0903626 12.6358726,38.935513 12.4076829,38.9137681 L8.84113578,38.5885823 L8.4656073,37.8495746 L6.95365301,34.8741089 C6.90236312,34.7715286 6.82366853,34.6863255 6.72235391,34.6250646 L3.858323,32.8973058 L3.24341109,32.6923352 L3.0247396,31.9346145 C2.28048391,29.355687 1.70685914,25.3299621 1.62765957,19.5710625 C1.62765957,19.4347225 1.63494331,18.6966534 1.64387899,17.9015287 L1.65347162,17.0479468 L2.34017283,16.6503836 C2.34639504,16.6191572 2.35513078,16.5740721 2.36522597,16.5129697 C2.45008328,15.9993601 2.48264103,15.1639397 2.5146077,12.8669267 L2.52284333,12.275143 L2.93294254,11.8484178 L3.53903483,11.2178435 C3.63493273,11.119861 3.69148936,10.9807777 3.69148936,10.8400946 L3.69148936,2.11381575 L6.67074278,1.59418074 L7.01123769,1.69686969 L11.0230241,2.90776581 C11.1047763,2.92927919 11.1633112,2.93978535 11.1992139,2.94171915 L17.4793819,3.32062592 L17.6123898,3.33462399 L31.6849485,5.45429688 C31.641406,5.44638062 31.6381177,5.44622768 31.6980637,5.44641094 L48.2898473,5.70578882 L48.7189864,6.13258243 L50.1972132,7.60273787 C50.30335,7.70887466 50.4460334,7.76803619 50.5957447,7.76803619 L57.4901711,7.76803619 L54.3248728,10.9333345 C54.1649791,11.0932282 54.1173805,11.3336933 54.2084318,11.55227 C54.2917784,11.7552929 54.5014297,11.8956958 54.7234043,11.8956958 L56.787234,11.8956958 C56.9186007,11.8956958 57.0287399,11.8584584 57.1314546,11.7786067 L60.4735141,9.2128885 L66.0850815,9.9781077 L62.7869119,12.1768562 L62.7143653,12.2252199 C62.5816608,12.3136897 62.4887648,12.4685165 62.4709271,12.6357449 L62.4147261,13.1626302 L60.5163622,15.0609941 C60.4102254,15.1671309 60.3510638,15.3098143 60.3510638,15.4595256 L60.3510638,17.5233553 C60.3510638,17.616087 60.3707929,17.7004834 60.4103747,17.7796465 L62.4742045,21.9073061 C62.5878852,22.1346675 62.8549162,22.2583657 63.1115235,22.1981186 C63.3625801,22.1391754 63.5425532,21.9121123 63.5425532,21.6510149 L63.5425532,17.7727132 L63.981893,17.3333734 L64.1885506,17.1268774 C64.2765787,17.0409962 64.3364325,16.9201153 64.3514821,16.7954191 L64.3536727,16.7956835 Z M90.4696226,6.60765093 L90.0360175,6.8960391 L89.3121121,7.61985189 L89.3525565,7.66029631 L90.4531089,8.768898 L90.6624942,6.70408691 L90.4696226,6.60765093 Z M91.3085106,8.0420191 L91.3085106,7.68791651 L89.8085106,7.68791651 L91.1501509,8.3587379 L91.3085106,8.0420191 Z M91.4335682,5.49866731 C91.4536536,5.51875479 91.4536536,5.51875479 91.4776596,5.54277276 L93.86787,7.95043328 L88.3085106,11.64793 L88.3085106,7.33381397 L89.9619768,4.0268876 L91.4335682,5.49866731 Z M20.0425967,66.6647728 L19.9642733,66.5922441 C19.9868418,66.6148125 19.9916493,66.6186303 19.9422953,66.5842975 L16.470737,64.0641578 C16.4330558,64.0380709 16.3827579,64.0088065 16.3621312,63.9977969 L14.0201782,62.9100057 L14.0187014,61.9544474 L14.0106383,56.7361213 C14.0106383,56.4234577 13.7587933,56.1722915 13.4468085,56.1722915 L9.6385852,56.1722915 L9.2075461,55.4123022 L8.5883654,54.3204715 C8.51736187,54.1926652 8.39198263,54.1006839 8.21097614,54.0626883 C8.15037587,54.0488368 8.08389773,54.0488368 8.0342195,54.0605259 L7.98483555,54.071271 C7.90120391,54.0879975 7.82920218,54.1185434 7.78225821,54.1525351 L4.85914285,56.2762221 C4.71332036,56.3813 4.62765957,56.5514316 4.62765957,56.7361213 L4.62765957,58.2361213 L3.12765957,58.2361213 C2.87953321,58.2361213 2.66677027,58.392272 2.58996009,58.633997 C2.5130281,58.8757825 2.60751964,59.1406159 2.79399375,59.2612441 L4.18897038,60.1330934 L3.40374783,61.4028166 L2.65038289,62.6209797 C2.4935645,62.877798 2.55483804,63.205712 2.78334902,63.3781997 L4.22837288,64.4567336 L4.99657232,66.3260093 L2.88643325,68.5552702 L1.06382979,68.5552702 C0.75116622,68.5552702 0.5,68.8071152 0.5,69.1191 C0.5,69.4310848 0.75116622,69.6829298 1.06382979,69.6829298 L3.1263203,69.6835081 C3.21549157,69.6810313 3.29467257,69.6626705 3.3655166,69.6294688 L6.15754849,68.3302904 C6.27864342,68.274228 6.37400419,68.1800024 6.43017324,68.061189 L7.60942915,65.5552702 L9.3191489,65.5552702 C9.5998885,65.5552702 9.8351538,65.3501504 9.8746009,65.0805936 L10.0623271,63.7977912 L12.4963702,63.7977912 L12.808461,64.8833333 C12.8598119,65.0619466 12.9897263,65.1994686 13.160959,65.2579942 L16.0230289,66.2428846 L19.0744681,67.9166195 L19.0744681,69.1191 C19.0744681,69.4310848 19.3256343,69.6829298 19.6382979,69.6829298 C19.9509626,69.6829298 20.2021277,69.4310858 20.2021277,69.1191 L20.2021277,67.0472089 C20.2021277,66.9163144 20.1531246,66.7908646 20.0425967,66.6647728 Z M21.919776,58.1834975 L21.9195375,58.1834795 C21.6530627,58.1633255 21.4345199,58.3088211 21.344662,58.56891 L21.1741868,59.0566308 C21.14959,59.1304199 21.1382979,59.1963896 21.1382979,59.2514139 L21.1382979,59.6545066 C21.1382979,59.9393303 21.3540784,60.1810043 21.630174,60.2109679 L21.7731617,60.2335114 L22.6277152,60.4108728 L22.7428778,60.43957 C22.7929314,60.4541686 22.8364743,60.4601904 22.8952793,60.4601904 C23.1249512,60.4601904 23.3385031,60.3159158 23.4237426,60.0951746 L23.6830218,59.4276656 C23.7702193,59.1943529 23.7139304,58.9498083 23.5550697,58.8053896 L23.1000026,58.3915786 C23.0127713,58.3105783 22.8930263,58.2585153 22.7743316,58.2479922 L21.919776,58.1834975 Z M7.55343332,59.8307233 C7.99195343,60.0819093 8.48421069,60.2394568 9.0000969,60.2856979 C8.99873217,60.0744914 8.97864083,59.8623334 8.93923617,59.6521752 L7.46492789,59.928608 L8.75116834,60.7003499 C8.99777527,60.2893371 9.1557596,59.8342174 9.2195917,59.3651415 C8.61405668,59.3817133 8.04670784,59.5489971 7.55343332,59.8307233 Z M9.8888263,60.2999511 L10.4585194,60.2999511 L10.9189436,59.8377249 L10.4431447,59.3637809 L9.8851696,59.3637809 L9.8888263,60.2999511 Z M5.98616638,61.6626326 C5.96719099,61.7126377 5.9493083,61.7631801 5.93254729,61.8142305 L6.42607433,62.9531495 L6.51680776,63.0620318 L7.80706582,62.3789563 C7.67188021,62.1236048 7.51691189,61.8985318 7.32260165,61.6892717 L6.22340426,62.7099406 L6.40479236,62.9276107 L7.25531915,62.9276107 L7.25531915,61.4276107 C6.81897832,61.4276107 6.38776085,61.5045897 5.98616638,61.6626326 Z M8.84492099,57.0316424 C8.94665831,57.1997306 9.1235178,57.2999511 9.3191489,57.2999511 L12.8771312,57.2999511 L12.8969105,62.3637809 L9.3191489,62.3637809 C9.0064854,62.3637809 8.75531915,62.6156259 8.75531915,62.9276107 L8.75531915,64.4276107 L7.25531915,64.4276107 C7.18002122,64.4276107 7.11827857,64.4395764 7.07778952,64.4571215 L5.80482058,65.0087363 L5.15570013,63.7826158 C5.13698142,63.7472581 5.12928077,63.7360738 5.12420686,63.7306095 L4.0472638,62.5708084 L5.26313894,61.5575993 C5.2984695,61.5281577 5.33908131,61.483104 5.3497537,61.4697428 L5.91856392,60.5879953 C5.9882512,60.4834646 6.01630934,60.3420527 5.99061961,60.2050408 L5.88565865,59.645249 L6.17868745,59.1568661 C6.24669196,59.0435249 6.26900278,58.9024092 6.23399338,58.752487 L4.13666476,49.2527627 L8.84492099,57.0316424 Z M27.8890265,62.6047641 L27.5810447,62.8068433 C27.4276377,62.902204 27.3297872,63.0800055 27.3297872,63.2742701 C27.3297872,64.0276102 27.4729559,64.2195169 27.7387452,64.3047057 L27.9342601,64.382891 C28.1545719,64.4894937 28.2638799,64.5233553 28.3934518,64.5233553 C28.4009483,64.5233553 28.531024,64.51854 28.7111713,64.5110766 C28.7203715,64.5106953 28.7203715,64.5106953 28.7295775,64.5103132 C28.8580303,64.5049542 28.8580303,64.5049542 28.9703716,64.5003684 L29.093813,64.4954297 L29.2163991,64.510754 L29.345365,64.5268757 C29.3172173,64.5233575 29.3171503,64.5233553 29.3447473,64.5233553 C29.6188362,64.5233553 29.8513122,64.3277907 29.9001396,64.0399849 L29.9871929,63.5574018 C30.0212615,63.3615073 29.9446806,63.1635753 29.7655674,63.023006 L29.0439069,62.4404736 C28.9094486,62.3372287 28.7521308,62.2949199 28.6116901,62.3155726 L28.5874641,62.3189337 C28.5381728,62.3253631 28.4943918,62.3373034 28.4551135,62.3541338 L27.93224,62.5782163 C27.9440977,62.5736558 27.9297049,62.5814329 27.8890265,62.6047641 Z M34.5952127,66.5022134 L34.5392352,66.5156987 C34.4692758,66.5304269 34.2119723,66.7038517 34.0964367,66.8402521 C34.0464573,66.9017655 34.0218074,66.9387406 34.0137714,66.9557054 L33.9640055,67.0516687 L33.6318202,67.6385316 C33.5503177,67.7751039 33.5299263,67.9442333 33.5774354,68.1026288 L33.7587096,68.7011796 C33.7834345,68.7783037 33.7834345,68.7783037 33.7976916,68.8270493 C33.8076232,68.8609824 33.8073998,68.8602792 33.777007,68.7876773 L33.9974412,69.2800059 C34.0712407,69.4529088 34.2390855,69.5804709 34.4237024,69.6078509 L34.9444197,69.6791555 C34.9599326,69.6817411 34.974197,69.6829298 34.9880319,69.6829298 C35.1242126,69.6829298 35.2659723,69.6295398 35.3724934,69.5366174 L35.6246873,69.316619 L35.9464772,69.2246825 L36.0028957,69.2085635 C36.1036454,69.1797779 36.1841325,69.1330953 36.2767181,69.039328 L36.5716537,68.75982 C36.719102,68.6123717 36.7768313,68.3988357 36.7192536,68.1848352 L36.6401025,67.8736162 C36.611536,67.7723354 36.5565584,67.670234 36.5170399,67.6238373 L35.8211386,66.8623149 C35.7423147,66.7742182 35.6418669,66.7126722 35.5353308,66.6865002 L34.8592377,66.513437 C34.7763211,66.4932682 34.6857954,66.4891783 34.5952127,66.5022134 Z" id="Shape"></path>
                </g>
            </g>
        </g>
    </g>
</svg>