<?xml version="1.0" encoding="UTF-8"?>
<svg width="113px" height="85px" viewBox="0 0 113 85" version="1.1" xmlns="http://www.w3.org/2000/svg" xmlns:xlink="http://www.w3.org/1999/xlink">
    <!-- Generator: Sketch 57.1 (83088) - https://sketch.com -->
    <title>eu-bef872d1</title>
    <desc>Created with Sketch.</desc>
    <g id="Page-1" stroke="none" stroke-width="1" fill="none" fill-rule="evenodd">
        <g id="Home-Copy-11" transform="translate(-886.000000, -866.000000)" stroke="#101111">
            <g id="Group-4" transform="translate(826.000000, 867.000000)">
                <g id="eu-bef872d1" transform="translate(61.000000, 0.000000)">
                    <path d="M32.7726809,49.9833921 C32.8265689,50.0004336 32.8799963,50.0170145 32.9334237,50.0335954 C33.0891,49.5536701 33.2443158,49.0737448 33.4004527,48.5933589 C33.3373531,48.5763174 33.2751747,48.5592759 33.2129963,48.5422344 C33.066071,49.0226203 32.9196062,49.5030062 32.7726809,49.9833921 Z M64.5536851,39.0975622 C64.510851,39.059334 64.4675564,39.0211058 64.4242618,38.982417 C64.1672577,39.1786245 63.9097929,39.3743714 63.6514071,39.5701183 C63.7006892,39.5890021 63.7485896,39.6078859 63.7969506,39.6258485 C63.7343116,39.8856162 63.6721332,40.1440021 63.6164029,40.3724502 C64.1013946,40.3240892 64.1363988,39.9772718 63.9429548,39.5756452 C64.1783116,39.3914129 64.3662286,39.2444876 64.5536851,39.0975622 Z M51.0683365,53.9462303 C51.7113075,54.2594253 52.238212,55.2063797 53.1497017,54.4316826 C52.2718344,55.0474793 51.7633531,54.1668485 51.0683365,53.9462303 Z M60.4798469,11.4180311 C60.5364983,11.4184917 60.594071,11.4189523 60.6516436,11.4194129 C60.6516436,11.0509481 60.5530793,10.6465581 60.6723697,10.3209274 C60.9114112,9.66644191 60.5678178,9.5121473 60.0611788,9.40897718 C60.4987307,9.62406846 60.7147432,9.88429668 60.4996519,10.4227158 C60.3849672,10.7115 60.4798469,11.0831888 60.4798469,11.4180311 Z M32.8652577,52.2480685 C32.5492992,52.254056 32.7740627,51.3794129 32.1849797,51.8312427 C31.6843282,52.7643797 31.93949,53.2051556 33.1194983,53.1973257 C33.0301456,52.862944 32.9472411,52.5552759 32.8652577,52.2480685 Z M39.3212203,60.1447282 C39.7067266,59.8333755 40.9000917,59.9259523 41.129461,60.3533714 C41.462461,60.9737739 41.9322535,61.1082635 42.2951913,61.0253589 C42.0432535,60.8388237 41.6664983,60.5431307 41.2708593,60.2741515 C41.0714278,60.1382801 40.8485066,60.0222137 40.6191373,59.9499025 C40.3616726,59.8669979 40.0627556,59.893251 39.8223324,59.7831722 C39.3824776,59.5823589 39.353461,59.841666 39.3221415,60.14611 C38.5829091,59.8762095 37.8432162,59.6063091 37.1035232,59.3359481 C37.090627,59.3654253 37.0777307,59.3953631 37.065295,59.4243797 C37.460934,59.6721722 37.8570336,59.9199647 38.2162867,60.1447282 C38.2250378,60.120778 38.2784651,59.981222 38.2710959,60.0001058 C38.6902245,60.0576784 39.0057224,60.100973 39.3212203,60.1447282 Z M38.6800917,41.8205166 C38.807212,41.8988154 38.9366353,41.9729689 39.0596104,42.0572552 C39.26549,42.1981929 39.552432,42.3013631 39.6556021,42.4989523 C40.0821,43.3137199 40.4611581,43.5946743 41.3063241,43.5518402 C41.1824278,43.7420602 41.0778759,43.9018817 40.947071,44.1017739 C42.0280544,44.7396784 42.9068427,43.9023423 43.8524154,43.8272676 C44.126461,44.0372925 44.4175481,44.2597531 44.7634444,44.5241266 C44.8357556,45.0883382 45.4533946,45.6737365 46.0880751,45.6976867 C46.1240004,44.8207407 46.3340253,44.6065705 47.2072867,44.5103091 C47.3809257,44.4909647 47.5573282,44.4186535 47.712544,44.3339066 C48.3628842,43.9801805 48.9805232,43.5555249 49.6584983,43.2718071 C50.0684154,43.100471 50.5690668,43.0889564 51.0231996,43.1129066 C51.1724278,43.1202759 51.4091664,43.4583423 51.4229838,43.6568527 C51.4566062,44.1713216 51.5910959,44.4191141 52.1451747,44.1984959 C52.2363697,44.16211 52.36349,44.1832967 52.4652784,44.2100104 C52.9838925,44.3481846 53.6075191,43.8406245 53.6369963,43.2870062 C53.6531166,42.9830228 53.7516809,42.6831846 53.826295,42.317944 C54.1542286,42.5906079 54.4227473,42.878471 54.4729506,42.844388 C54.7580502,42.6518651 54.9897224,42.3819647 55.2370544,42.1415415 C55.5272203,42.2350394 55.8850917,42.3501846 56.2420419,42.4653299 C56.2982328,42.4105207 56.3535025,42.355251 56.4096934,42.3004419 C55.1486228,41.5252842 54.8160834,40.5009523 55.32871,39.1823091 C55.3029174,39.1367116 55.1481622,38.991168 55.1739548,38.8949066 C55.3720046,38.1644253 55.5424195,37.4136784 55.8588386,36.7334004 C55.9845772,36.4635 56.5119423,36.1516867 56.7601954,36.2180104 C57.1516892,36.3225622 57.4676477,36.7246494 57.8015689,37.0171183 C57.8522328,37.0617946 57.7923573,37.2340519 57.8430212,37.2791888 C58.1202909,37.5232967 58.4150627,37.7457573 58.7038469,37.9751266 C58.864129,37.6729855 59.0921166,37.3869647 59.1699548,37.0650187 C59.3118137,36.4768568 59.3749133,35.8684295 59.4495274,35.2659896 C59.4748593,35.0656369 59.43571,34.8579149 59.4264983,34.653417 C59.2058801,34.7059232 58.9866436,34.7584295 58.6375232,34.841334 C58.5942286,34.7519813 58.4233531,34.5516286 58.4072328,34.3388402 C58.3763739,33.9339896 58.7918178,33.4651183 58.200432,33.1431722 C58.1741788,33.1293548 58.2299091,32.8221473 58.3082079,32.7876037 C58.7572743,32.5890934 59.216934,32.3099813 59.6858054,32.2841888 C60.935822,32.2151017 62.1918261,32.2606992 63.4883614,32.2606992 C63.5040212,31.9857324 63.5178386,31.7384004 63.5358012,31.4173755 C63.7025315,31.4979772 63.8264278,31.5583133 63.995461,31.6398361 C64.2524651,30.3129025 65.3638469,31.030027 66.0823531,30.7651929 C66.113212,30.2636203 65.9672079,30.1231432 65.4453697,30.0885996 C64.9566934,30.0558983 64.4698593,29.9904959 63.9710502,29.9384502 C64.0166477,29.538666 64.0433614,29.3046909 64.0682328,29.0877573 L63.1710212,29.0877573 C62.6593158,29.2038237 62.2890087,29.2830436 61.9223863,29.373778 C61.8067805,29.402334 61.6976228,29.4622095 61.587544,29.5110311 C61.2904693,29.644139 60.9933946,29.7790892 60.6603946,29.8449523 C60.3614776,30.2433548 58.7480627,30.9650851 58.388349,30.9429772 C58.0599548,31.0636494 57.708071,31.3155871 57.4109963,31.2626203 C57.1825481,31.2225498 56.9494942,30.8246079 56.8449423,30.5399689 C56.5943863,29.8541639 55.9306892,30.0383963 55.4678054,29.8564668 C54.8570751,29.6160436 54.7294942,29.1927697 54.9662328,28.6161224 C55.1831664,28.0864544 55.2674527,27.3817656 55.1071705,26.8451888 C54.8773407,26.0787822 54.776934,25.1497905 55.1863905,24.5224793 C55.2108012,24.4856328 55.21771,24.3939772 55.2227763,24.3948983 C56.2770461,24.5487324 55.9905647,23.3452344 56.6381415,22.9809149 C57.1378718,22.7004212 57.3446726,21.9096037 57.702544,21.3596701 C57.9425066,20.9902842 58.2188552,20.6453091 58.4781622,20.2897407 C58.5361954,20.3279689 58.5942286,20.3661971 58.6522618,20.4048859 C58.5790295,19.895944 58.624627,19.3239025 58.3975606,18.8964834 C58.1861539,18.4980809 57.6845813,18.2530519 57.3248676,17.9522925 L57.3248676,18.253973 L55.5078759,18.253973 C55.4889921,18.6159896 55.4751747,18.8872718 55.4608967,19.1567116 C54.6125066,19.5804461 54.6258635,20.3528402 54.6382992,21.136749 C54.6415232,21.3721058 54.6037556,21.6212801 54.5226934,21.8409772 C54.3711622,22.2508942 54.1786394,22.6460726 53.9944071,23.0430934 C53.9395979,23.1610021 53.8811041,23.2982552 53.7830004,23.3714876 C53.3984154,23.65889 52.9894195,23.9131307 52.6080585,24.2046784 C52.4597515,24.3175207 52.3169714,24.4782635 52.2488054,24.6477573 C52.001934,25.2653963 51.4731871,25.51411 50.9002245,25.6264917 C50.6422992,25.6776162 50.2848884,25.4961473 50.3111415,25.9258693 C50.3221954,26.097666 50.6224942,26.2519606 50.8642992,26.4850145 C50.6598012,27.2122718 50.2982452,28.0574378 50.2273158,28.9260934 C50.1895481,29.3820685 50.6211124,29.9075913 50.9200295,30.3479066 C51.0950502,30.6067531 51.4317349,30.7522967 51.6818303,30.9650851 C51.8292162,31.0908237 52.0097639,31.2280768 52.0673365,31.39711 C52.1433324,31.61911 52.2004444,31.9189481 52.1087888,32.1105498 C51.9540336,32.4352593 51.2341456,32.5098734 51.7034776,33.1017199 C51.3935066,33.3251017 51.0830751,33.5480228 50.7726436,33.770944 C50.7164527,33.6949481 50.6598012,33.6198734 50.6036104,33.5438776 C50.4585274,34.2780436 50.0983531,34.6455871 49.1965357,34.1348029 C49.6732369,35.0352386 49.7312701,35.6883423 49.3899797,36.3902676 C49.2154195,36.7504419 49.2407515,37.2013506 49.1228427,37.5956079 C48.9551913,38.153832 48.7364154,38.6963963 48.5452743,39.2477116 C48.4706602,39.4623423 48.4103241,39.6825 48.3131415,39.9993797 C46.9346228,39.4397739 45.9964195,39.7856701 45.8412037,41.3907946 C45.3423946,41.3682261 44.8541788,41.3470394 44.4175481,41.327695 C44.3701083,40.9928527 44.3949797,40.6345207 44.2623324,40.3503423 C44.0458593,39.8869979 43.8367556,39.4904378 44.305627,39.0487407 C44.3820834,38.9773506 44.3074693,38.6729066 44.2236436,38.518612 C44.0301996,38.162583 43.6442328,37.8512303 43.5977141,37.487832 C43.5102037,36.8084751 43.6101498,36.1042469 43.628573,35.410612 C43.6317971,35.2632261 43.6806187,35.0555041 43.6041622,34.9772054 C42.7820253,34.1366452 43.1477266,33.269832 43.4908593,32.3408402 C43.2707017,32.1897697 43.0063282,32.0078402 42.7940004,31.8618361 C42.9390834,31.5716701 43.0744942,31.300388 43.2094444,31.0291058 C43.132988,30.9830477 43.0565315,30.936529 42.9800751,30.890471 C42.6185191,31.2460394 41.9815357,31.3224959 42.1164859,32.1607531 C42.1699133,32.490529 41.8267805,32.8870892 41.6517598,33.2468029 C41.6319548,33.2868734 41.5025315,33.3204959 41.4629216,33.2960851 C40.3957556,32.6305456 40.0609133,33.6650104 39.5533531,34.1670436 C39.1245523,34.5921598 38.0573863,34.7892884 37.5267971,34.4129938 C37.4190212,34.3369979 37.253212,34.3429855 37.0588469,34.2983091 C37.1283946,34.1421722 37.1942577,33.996168 37.1993241,33.9846535 C36.8589548,33.6092801 36.5393116,33.3338527 36.3352743,32.9897988 C36.2638842,32.8695871 36.4775938,32.5821846 36.5549714,32.3689357 C36.6940668,31.9884959 36.8285564,31.6062137 36.965349,31.2248527 C36.886129,31.1677407 36.8069091,31.1106286 36.7281498,31.0539772 C36.4909506,31.212417 36.2537515,31.3708568 36.0483324,31.50811 C36.0884029,30.9093548 36.0884029,30.9093548 37.2564361,30.5828029 C36.6977515,29.9974046 37.4240876,29.8173174 37.6152286,29.4465498 C37.1072079,29.4258237 37.0201581,29.3493672 36.5628012,28.5359813 C36.7359797,28.4830145 36.9073158,28.4305083 37.0984568,28.3724751 C36.9621249,28.0984295 36.8506643,27.8778112 36.7461124,27.6544295 C36.7286104,27.6166618 36.743349,27.5641556 36.743349,27.5139523 C36.9321871,27.4932261 37.1182618,27.4725 37.4134942,27.4402593 C37.1095108,27.187861 36.8930378,27.008695 36.777432,26.9124336 C36.9225149,26.5927905 37.0173946,26.3850685 37.1551083,26.0824668 C37.2559755,26.0295 37.4936353,25.9037614 37.7778137,25.7540726 C37.6064776,25.5491141 37.4747515,25.392056 37.3172328,25.204139 C37.9726394,25.1566992 38.5658676,25.1138651 39.2023905,25.0678071 C39.1761373,24.8075788 39.1581747,24.640388 39.1360668,24.4266784 C39.4847266,24.5091224 39.7850253,24.5800519 40.1668469,24.6707863 C40.1355274,24.4096369 40.1157224,24.2419855 40.0940751,24.0595954 C40.1553324,24.0439357 40.2175108,24.0186037 40.281071,24.0121556 C40.8176477,23.9596494 41.394295,24.008471 41.6595896,23.359973 C41.7061083,23.2475913 41.8732992,23.0997448 41.9741664,23.1075747 C42.7732743,23.1706743 43.0160004,22.457695 43.4623033,22.0491598 C43.8298469,21.7133963 44.1260004,21.3002552 44.3853075,21.0013382 C44.7390336,21.1980062 44.9730087,21.32789 45.2069838,21.4582344 C45.2640959,21.2362344 45.2963365,21.0045622 45.3843075,20.7959191 C45.4920834,20.5402967 45.6611166,20.3109274 45.7776436,20.0580685 C45.8983158,19.7959979 45.9872079,19.5187282 46.1129465,19.1894129 C46.3902162,18.7555456 46.7204527,18.239695 47.1386602,17.5861307 C47.1506353,17.5778402 47.3302618,17.4521017 47.5098884,17.3263631 C47.4034942,17.2402344 47.2975606,17.1536452 47.2234071,17.0942303 C47.2975606,16.8929564 47.359739,16.6681929 47.4606062,16.4632344 C47.5670004,16.2467614 47.7102411,16.048251 47.7599838,15.9676494 C48.2583324,15.7801929 48.6733158,15.6613631 49.0380959,15.4550228 C49.1122494,15.4135705 48.9994071,15.0409606 48.9634817,14.7530975 C49.0707971,14.7254627 49.2822037,14.6715747 49.6944237,14.5656411 C49.3876768,14.3376535 49.1841,14.1870436 48.9045274,13.9797822 L49.7418635,13.9797822 C49.7593656,13.7812718 49.7741041,13.6145415 49.7888427,13.4473506 C49.8712867,13.4473506 49.9532701,13.4464295 50.0357141,13.4464295 C50.0582826,13.6605996 50.0817722,13.8743091 50.1043407,14.0884793 C50.1660585,14.0972303 50.2277763,14.1064419 50.2894942,14.1156535 C50.3502909,13.7660726 50.410627,13.4160311 50.458988,13.1369191 C50.7878427,13.0185498 51.1756519,12.9867697 51.3723199,12.7767448 C51.5542494,12.5828402 51.5261539,12.1964129 51.6012286,11.8970353 C51.6537349,11.6893133 52.158071,11.3604585 52.3892826,11.2899896 C52.6025315,11.2259689 52.7895274,11.0776618 53.0695606,10.9206037 C53.02949,10.7409772 52.9622452,10.4374544 52.895461,10.133471 C53.2745191,10.5986577 53.7539838,9.3601556 54.1081705,10.2228237 C54.1081705,10.0809647 54.1413324,9.92989419 54.1031041,9.79908921 C53.9239382,9.18605602 54.2435813,8.7931805 54.887934,8.80101037 C55.2619257,8.80561618 55.7506021,8.89496888 55.6557224,8.29345021 C56.558461,8.50854149 56.3083656,7.72325104 56.5008884,7.40360788 C56.7961207,7.36261618 57.0733905,7.32438797 57.446461,7.27326349 C57.2834154,7.06231743 57.1834693,6.93427593 57.1010253,6.82742116 C57.4229714,6.72102697 57.7232701,6.62154149 58.0866685,6.50132988 C57.7799216,7.09179461 57.494822,7.63988589 57.2088012,8.18889834 C57.2972328,8.2381805 57.3842826,8.28700207 57.4713324,8.33582365 C57.6762909,7.98071577 57.8807888,7.62606846 58.1023282,7.24102282 C58.2460295,7.49296058 58.3874278,7.73983195 58.5081,7.95215975 C58.8162286,7.43078216 59.1179091,6.92137967 59.4182079,6.41243776 C59.4711747,6.43592739 59.5246021,6.45941701 59.5775689,6.48244606 L59.5775689,7.7845083 C59.6351415,7.80661618 59.6917929,7.82872407 59.7493656,7.85083195 C60.0597971,7.30688589 60.35549,6.70076141 60.9464154,7.54408506 C60.9689838,7.57724689 61.0726145,7.56066598 61.1370959,7.55744191 C61.915017,7.52105602 61.846851,7.50309336 61.6690668,8.19396473 C61.621627,8.37451245 61.2407266,8.9884668 61.9527846,9.14322199 C62.1641913,9.1888195 61.9371249,9.68210166 62.407378,9.80369502 C62.8707224,9.92344606 63.1157515,9.99207261 63.1507556,9.31409751 C63.5021788,9.89212656 63.7467473,9.70420954 63.9314402,9.30304357 C64.9216892,10.5286494 66.2094734,10.3766577 67.493573,10.2564461 C67.7137307,10.2357199 67.9693531,10.1887407 68.1540461,10.273027 C69.0678386,10.6889315 69.9512328,11.1720809 70.8705523,11.5750892 C71.301656,11.7639274 71.8105979,11.7712967 72.2458469,11.9536867 C73.2324112,12.3668278 73.5718593,13.4874212 73.0394278,14.4219398 C72.5373946,15.305334 71.8101373,15.8520436 70.7696851,15.8681639 C70.5324859,15.871388 70.2934444,15.7240021 69.9599838,15.6143838 C69.4611747,16.127471 68.7647763,15.7419647 68.1964195,15.5839855 C67.4286311,15.3702759 66.5355647,15.4011349 65.9114776,14.7383589 C65.8193614,14.6411763 65.5586726,14.7038154 65.3679921,14.6913797 C65.6687515,15.9897573 66.2090129,16.4973174 67.4516602,16.6741805 C67.9150046,16.7405041 68.3221581,17.3452469 68.2682701,17.7777324 C68.2337266,18.0540809 68.2982079,18.3543797 68.372822,18.6284253 C68.464017,18.9586618 68.5828469,19.2884378 68.7426685,19.5901183 C69.0061207,20.0866245 69.2889174,20.5983299 70.0161747,20.3109274 C70.0691415,20.2897407 70.1948801,20.3436286 70.2289631,20.3988983 C70.5509091,20.9096826 71.0856436,21.0496992 71.6024154,21.0298942 C71.9114651,21.0179191 72.3642162,20.7844046 72.4775191,20.5283216 C72.653461,20.1299191 72.1196477,19.4671432 71.7548676,19.4146369 C71.335739,19.3543008 70.9225979,19.2520519 70.4417515,19.1548693 C70.6001913,18.8039066 70.6821747,18.6233589 70.7747515,18.4170187 C72.5525938,18.7689025 74.327212,19.1198651 76.1105813,19.4726701 C75.9783946,18.7900892 75.9783946,18.7900892 74.9204402,18.9116826 C74.6685025,18.5036079 74.4676892,18.0550021 74.1549548,17.7063423 C73.8560378,17.3733423 73.4410544,17.1444336 73.0274527,16.8321598 C73.5617266,15.9413963 74.0904734,15.060305 74.6265896,14.1672386 L75.6596726,14.1672386 C75.6352618,14.3477863 75.6071664,14.5513631 75.5684776,14.8295539 C76.0824859,14.7752054 76.5458303,14.7254627 77.1455066,14.6619025 C76.8507349,14.3275207 76.6715689,14.1244046 76.4924029,13.9222095 C76.9534444,13.0065747 76.5693199,12.2931349 75.6352618,12.1996369 C75.4095772,11.2678817 75.1889589,10.3545498 74.9489963,9.36291909 C75.4952452,8.93688174 75.9562867,9.0465 77.2030793,10.0892552 C77.0451,10.150973 76.8788303,10.1666328 76.7917805,10.2578278 C76.5204983,10.5420062 75.9590502,10.5797739 76.0866311,11.2139938 C76.2036187,11.7980104 76.6503822,11.6469398 76.9944361,11.7524129 C77.0814859,11.7791266 77.1777473,11.8155124 77.2403863,11.8767697 C77.9588925,12.5837614 78.6267349,12.1093631 79.2070668,11.7118817 C79.8352992,11.2821598 79.481573,10.6474793 79.3305025,10.0800436 C79.5368427,9.74842531 80.2286353,9.54254564 79.6096145,9.01011411 C80.0098593,8.44682365 80.3912203,7.90978631 80.7269838,7.43769087 C81.0176104,7.52796473 81.2359257,7.59613071 81.619129,7.71496058 C81.4118676,7.30688589 81.2902743,7.06922614 81.1511788,6.79471992 C81.8526436,6.80347095 81.5445149,6.3825 81.442266,6.05088174 C81.9355481,5.88184855 82.1220834,6.14391909 82.1506394,6.52620124 C82.1722867,6.83110581 82.0962909,7.14245851 82.0681954,7.40821369 C82.3979714,7.33728423 82.6572784,7.28201452 83.0469299,7.1981888 C83.1846436,6.81498548 83.3513739,6.27057884 83.5830461,5.7551888 C83.6544361,5.5958278 83.9091373,5.41067427 84.0703407,5.41896473 C84.7082452,5.45120539 84.8671456,5.10623029 84.8952411,4.56642946 C84.9113614,4.26290664 84.9979506,3.96352905 85.1462577,3.60473651 C85.5188676,4.18046266 85.5418967,5.38902697 86.4478593,4.34120539 C86.5358303,3.8898361 86.6238012,3.43800622 86.7237473,2.92537967 C85.9550378,2.67021784 85.677768,2.03737967 85.9269423,1.19958299 C86.8550129,0.90296888 87.7545274,0.616026971 88.6991788,0.314807054 C88.7014817,1.24794398 89.0326394,1.49020954 89.7691083,1.35157469 C90.3922743,1.23412656 90.5166311,1.95079046 90.9523407,2.17325104 C91.0587349,2.22759959 91.1153863,2.37867012 91.1830917,2.4684834 C91.4230544,2.36116805 91.7823075,2.16403942 91.8039548,2.19628008 C92.0710917,2.59053734 92.3967224,2.9944668 92.493905,3.44261203 C92.6330004,4.08650415 92.8333531,4.79211411 92.1429423,5.35033817 C91.9955564,5.46916805 92.021349,5.92514315 92.1056353,6.18030498 C92.3386892,6.89006017 92.4220544,7.52980705 91.9992411,8.23311411 C91.8108635,8.54769087 91.9227846,9.04511826 91.9066643,9.45964108 C91.8946892,9.77928423 91.9716062,10.1343921 91.4953656,10.2168361 C91.4704942,10.2209813 91.4382535,10.6051058 91.5230004,10.7418983 C91.7445398,11.0970062 92.1047141,11.3788817 92.2723656,11.7514917 C92.6141166,12.5114502 92.8444071,13.3206909 93.168656,14.0889398 C93.2580087,14.2998859 93.5223822,14.4348361 93.7015481,14.6098568 C94.4269631,15.3205332 94.8327349,16.213139 95.2311373,17.1329191 C95.4982743,17.7500975 95.9731332,18.2756203 96.3356104,18.8545705 C96.4917473,19.1042054 96.6128801,19.3791722 96.7257224,19.6527573 C96.9541705,20.2082178 97.1043199,20.806973 97.406461,21.3172967 C97.6275398,21.6912884 98.1014776,21.9086826 98.3511124,22.2725415 C98.7974154,22.9219606 99.1893697,23.6192801 99.2100959,24.4441805 C99.2123988,24.5588651 99.1649589,24.7177656 99.0825149,24.7840892 C98.6118012,25.1649896 98.7057598,25.5154917 99.0115855,25.9742303 C99.3141871,26.4279025 99.5891539,26.9700062 98.9383531,27.4342718 C99.1354817,27.7645083 99.39571,28.0578983 99.4979589,28.3987282 C99.7162743,29.1269066 100.096254,29.0688734 100.646187,28.7800892 C101.025706,28.5815788 101.450361,28.442944 101.870411,28.3623423 C102.071685,28.3241141 102.366917,28.4249813 102.516606,28.5696037 C102.637739,28.6875124 102.66998,28.9790602 102.626224,29.1669772 C102.534108,29.561695 102.365536,29.9384502 102.221374,30.3433008 C101.723486,29.9034461 101.131179,30.1484751 100.855751,30.5344419 C100.426951,31.1336577 101.051959,31.5624585 101.363312,32.0073797 C102.494038,31.6946452 103.609565,31.439944 103.834328,30.0885996 C104.054946,30.3686328 104.244245,30.5699066 104.384262,30.8001971 C104.468548,30.9392925 104.547307,31.1465539 104.505855,31.2856494 C104.315635,31.9134212 104.437229,32.4301929 104.825498,32.968612 C105.13639,33.3997158 105.25522,33.964388 105.534793,34.4240477 C106.049262,35.2701349 106.250996,35.2775041 107.036747,34.7119108 C107.166171,34.6184129 107.507922,34.6009108 107.590826,34.693027 C108.184054,35.3511971 109.070212,35.6155705 109.836619,35.2222344 C110.24239,35.0140519 110.53578,34.9058154 110.813971,35.3654751 C111.079266,35.8025664 111.004191,36.1599772 110.605328,36.4542884 C110.367208,36.6302303 110.105137,36.7739315 109.86932,36.9521763 C109.553822,37.1912178 109.251681,37.4500643 108.944473,37.7001598 C108.983162,37.7480602 109.02139,37.7964212 109.060079,37.8447822 C108.742739,37.9028154 108.42632,37.9884834 108.106677,38.0082884 C107.923366,38.0193423 107.686627,37.9774295 107.555361,37.8645871 C107.095702,37.4689481 106.585839,37.5569191 106.350482,38.1114585 C106.292909,38.2477905 106.239942,38.3864253 106.175922,38.5199938 C106.11881,38.6397448 106.049722,38.7535083 106.03222,38.785749 C105.657307,38.817529 105.331216,38.7793008 105.065461,38.8884585 C104.843461,38.9801141 104.69193,39.2435664 104.393013,39.3384461 C104.343731,39.5738029 104.279249,39.8073174 104.24793,40.0445166 C104.198187,40.4203506 104.008428,40.482529 103.664834,40.3899523 C103.203793,40.266056 102.729395,40.1905207 102.183146,40.078139 C102.234731,40.3673838 102.264668,40.5354959 102.320399,40.8445456 C101.642884,40.6520228 101.028009,40.5184544 100.446295,40.2978361 C100.063092,40.1527531 99.731934,39.9491763 99.4076851,40.3660021 C99.3694568,40.4152842 99.293461,40.5000311 99.2759589,40.4908195 C98.3934859,40.0228693 98.2272162,40.786973 97.8974402,41.279334 C97.836183,41.3714502 97.7274859,41.4313257 97.6201705,41.5225207 C97.4142909,41.3889523 97.2148593,41.259529 96.9675274,41.0987863 C96.6879548,41.9430311 96.3494278,42.6504834 95.5231456,43.0516494 C95.3338469,43.1437656 95.3835896,43.7273216 95.3135813,44.1418444 C95.1422452,44.2127739 94.9151788,44.3058112 94.6452784,44.4172718 C95.0653282,44.9437158 95.4743241,45.4485124 95.1915274,46.3277614 C94.6816643,45.9086328 94.2920129,45.5889896 93.7245772,45.1242635 C93.6458178,45.5530643 93.5956145,45.8459938 93.5361996,46.1370809 C93.5099465,46.2678859 93.5021166,46.430471 93.4210544,46.5156784 C93.1129257,46.8376245 93.1907639,47.1213423 93.4155274,47.4488154 C93.5104071,47.586529 93.5845606,47.8287946 93.5279091,47.9642054 C93.3013033,48.5049274 93.5251456,48.7458112 93.9617763,48.7941722 C93.8738054,49.3487116 93.7922826,49.8525871 93.7020087,50.4204834 C94.3316228,50.2947448 94.7958884,50.1952593 94.8166145,50.9856162 C94.828129,51.4162593 95.3195689,51.5562759 95.6797432,51.3246037 C95.8814776,51.1942593 96.1131498,51.1104336 96.2840253,51.0284502 C96.9104154,51.4927158 97.4856809,51.9196743 98.0673946,52.350778 C97.9352079,52.5912012 97.8071664,52.8247158 97.6192494,53.1669274 C97.9448801,53.2553589 98.2046477,53.2972718 98.4390834,53.3999813 C98.5814029,53.4635415 98.7467515,53.6040187 98.7822162,53.7408112 C98.8103116,53.8490477 98.6772037,54.021305 98.5814029,54.1364502 C98.3787473,54.3796369 98.1724071,54.6274295 97.9306021,54.8296245 C97.714129,55.0101722 97.4474527,55.1308444 97.0665523,55.3611349 C96.8989008,56.2394627 96.6847307,57.3038651 96.4972743,58.373334 C96.4070004,58.8882635 96.8643573,59.03611 97.178934,59.0365705 C97.8628967,59.0384129 98.5459382,59.3566743 98.6486477,59.9499025 C98.9038095,61.4214585 99.7987183,62.3398568 101.089727,62.9667075 C101.794415,63.3093797 101.787967,63.4581473 101.17171,63.971695 C101.090187,64.0389398 101.109071,64.2263963 101.203029,64.410168 C101.44161,64.0813133 101.681112,63.7524585 102.016415,63.2900353 C102.290461,63.4995996 102.683797,63.6958071 102.929747,64.0090021 C103.560743,64.8104129 104.237337,65.3999564 105.330295,64.9536535 C105.051644,65.2820477 104.783125,65.5676079 104.556059,65.8835664 C104.480984,65.9885788 104.496644,66.1714295 104.498486,66.3183548 C104.50171,66.6200353 104.424793,66.9783672 104.55698,67.2132635 C104.9692,67.9451266 104.577245,68.5024295 104.316096,69.1292801 C104.249772,69.2904834 104.51783,69.5907822 104.665677,69.8979896 L103.281171,69.8979896 C103.730237,69.2011307 103.389868,68.1712718 102.419884,67.4974419 C102.053262,68.0206618 101.753884,68.6166535 101.301133,69.0514419 C100.59322,69.7303382 100.181922,70.9237033 98.8508427,70.6574876 C98.5873905,70.6040602 98.3078178,70.5520145 98.077988,70.4244336 C97.3903407,70.0439938 96.7321705,69.6133506 96.0449838,69.2329108 C95.9192452,69.1629025 95.7115232,69.2209357 95.5461747,69.2494917 C94.5729672,69.4125373 94.3343863,69.1983672 94.4320295,68.2311473 C94.4790087,67.7659606 94.0373116,67.3436079 93.5472535,67.3827573 C93.4546768,67.389666 93.3036062,67.4255913 93.2782743,67.3855207 C92.781768,66.6066784 92.1678137,66.9820519 91.5400419,67.1575332 C91.2254651,67.2459647 90.8652909,67.1736535 90.3632577,67.1736535 C91.0504444,66.5117988 90.5428842,66.2197905 90.2407432,65.7868444 C89.7635813,65.1024212 89.2431249,64.5105747 88.4357266,64.2678485 C88.039627,64.1485581 87.595627,64.1946162 87.1907763,64.093749 C86.8752784,64.0149896 86.4847058,63.9039896 86.3069216,63.6709357 C85.6703988,62.8354419 84.6686353,62.6875954 83.8211664,62.269388 C83.3172909,62.0202137 82.7028759,62.0040934 82.1561664,61.8263091 C81.8908718,61.7401805 81.6688718,61.5223257 81.4270668,61.3634253 C81.5666228,61.1589274 81.712627,60.9590353 81.8429714,60.7480892 C81.9083739,60.6412344 81.9797639,60.5191805 81.9875938,60.3994295 C82.0083199,60.0968278 81.9949631,59.7910021 81.9949631,59.3967448 C82.2501249,59.5280104 82.4145523,59.6132178 82.5743739,59.6952012 C82.7143905,59.3774004 82.8419714,59.0881556 83.0073199,58.7150851 C82.6162867,58.504139 82.1552452,58.2558859 81.5560295,57.9325581 C81.8351415,57.8685373 82.0525357,57.7971473 82.2745357,57.7713548 C82.4937722,57.7455622 82.7185357,57.7662884 83.0584444,57.7662884 C82.8700668,57.4816494 82.7834776,57.351305 82.6701747,57.1813506 C82.8290751,57.0795622 82.9971871,57.0031058 83.1233863,56.8815124 C83.3053158,56.7060311 83.4752701,56.5098237 83.6074568,56.2951929 C83.6378552,56.2449896 83.4586892,55.9861432 83.4328967,55.9944336 C83.2049091,56.0699689 82.9861332,56.1782054 82.7719631,56.2901266 C82.691822,56.3306577 82.629183,56.4061929 82.5591747,56.4656079 C82.0124651,56.0142386 80.3087763,57.1242386 80.0955274,58.0629025 C79.0785647,57.7888568 78.6972037,58.7247573 77.9773158,58.9578112 C77.7502494,59.0204502 77.3504651,59.0425581 77.3255938,59.1512552 C77.1993946,59.7062552 76.8401415,59.6555913 76.4279216,59.6302593 C76.099988,59.6095332 75.7665274,59.6661846 75.365822,59.6924378 C75.292129,59.8283091 75.1857349,60.0249772 75.0641415,60.2506618 C74.597573,59.6694087 74.1904195,60.1041971 73.7989257,60.3114585 C73.4866519,60.4772676 73.2328718,60.6739357 72.8565772,60.4330519 C72.3858635,60.129529 72.4374485,59.8978568 72.9542203,59.6302593 C72.7580129,59.2502801 72.5664112,58.8790519 72.3748095,58.5073631 C72.3315149,58.5221017 72.2891415,58.5359191 72.2463075,58.5506577 C72.2269631,58.7731183 72.2076187,58.9965 72.1914983,59.1811929 C71.9736436,59.2760726 71.7673033,59.3534502 71.5738593,59.4556992 C71.432461,59.5303133 71.2754029,59.7435622 71.1823656,59.7145456 C70.3482535,59.4524751 70.3694402,60.072417 70.2962079,60.5905705 C69.6518552,60.1438071 69.6518552,60.1438071 69.3653739,60.7061763 C69.636656,60.869222 69.9093199,61.0327282 70.3021954,61.2680851 C69.9033324,61.4454087 69.6596851,61.5508817 69.4178801,61.6609606 C69.115739,61.7982137 68.5059299,61.4371183 68.5575149,62.1270685 C68.5800834,62.4328942 68.7518801,62.7608278 68.9421,63.0141473 C69.3170129,63.5124959 69.3206975,63.5848071 68.6247598,64.3318693 C68.5114568,64.1637573 68.3986145,63.9951846 68.2033282,63.7045581 C67.4682411,64.9043714 68.0029755,66.1350436 67.698071,67.2584004 C66.8404693,67.4357241 66.6378137,67.731417 66.6801871,68.7244295 C66.6870959,68.8828693 66.5995855,69.0532842 66.5277349,69.2038942 C66.4112079,69.4466203 66.2702701,69.677832 66.0754444,70.0315581 C66.8146768,69.9504959 67.1241871,70.1757199 67.2595979,70.7648029 C67.4327763,71.5192344 68.0996975,71.8029523 68.7472743,72.0825249 C68.9209133,72.1580602 69.0402037,72.3584129 69.1848261,72.5011929 C69.0070419,72.5679772 68.8195855,72.7125996 68.6537763,72.6909523 C67.5912162,72.5532386 66.9675896,73.2233838 66.286851,73.8603672 C65.9179257,74.2048817 65.4287888,74.4204336 64.9281373,74.5880851 C65.0985523,74.3729938 65.2698884,74.1574419 65.3877971,74.0082137 C64.5679631,73.7949647 63.8227432,73.6033631 63.0775232,73.4080768 C62.7518925,73.3228693 62.3709921,73.0184253 62.2314361,73.6323797 C61.9444942,73.5665166 61.6580129,73.5006535 61.4590419,73.4545954 C61.0168842,73.6692261 60.6019008,73.8709606 60.0183448,74.1546784 C60.4457639,74.4890602 60.8662743,74.8165332 61.2812577,75.1407822 C60.8492328,75.8440892 60.608349,74.7313257 60.1804693,75.0274793 C60.2564651,75.2015788 60.3338427,75.3784419 60.4107598,75.5562261 C60.3831249,75.5820187 60.3545689,75.60689 60.326934,75.6326826 C60.0768386,75.4258817 59.8276643,75.2190809 59.4974278,74.9454959 L59.4974278,75.7653299 C59.1658095,75.1564419 58.9009755,74.6696079 58.576266,74.0722344 C58.3556477,74.2214627 57.9268469,74.3822054 57.9314527,74.5291307 C57.9457307,74.9818817 58.0599548,75.4631888 58.2644527,75.8680394 C58.416905,76.1701805 58.7706311,76.3709938 59.1266602,76.7030726 C58.5140876,76.8320353 57.8936851,76.9172427 58.5242203,77.6113382 C57.870656,78.7733838 59.1266602,78.3132635 59.4380129,78.6462635 C59.7548925,78.9838693 60.2730461,79.1330975 60.588544,79.4707033 C60.762183,79.6563174 60.7000046,80.061168 60.7515896,80.4185788 C60.3204859,80.3946286 60.1606643,79.5660436 59.6977805,80.1523631 C59.5370378,80.3554793 59.4334071,80.6032718 59.3039838,80.8303382 C59.5398012,80.9385747 59.7742369,81.0468112 60.0524278,81.173471 C59.8143075,81.3001307 59.5246021,81.4539647 59.2464112,81.60089 C59.0064485,81.3484917 58.8056353,81.1366245 58.6039008,80.9238361 C58.5159299,80.9804876 58.4279589,81.0375996 58.3395274,81.0933299 C58.7167432,81.776832 59.0925772,82.4594129 59.464266,83.1314004 C58.9193988,83.2414793 58.9193988,83.2414793 58.3404485,82.4004585 C58.2658344,82.773529 58.2119465,83.0443506 58.1110793,83.5454627 C57.8600627,83.0323755 57.7043863,82.6786494 57.514627,82.3433465 C57.4492245,82.2286618 57.2981539,82.161417 57.1853116,82.0720643 C57.1148427,82.2903797 57.0443739,82.5082344 56.9508759,82.7974793 C56.3046809,82.7435913 56.3958759,82.0854212 56.4400917,81.79111 C56.529905,81.2038693 56.4755564,80.8082303 55.9283863,80.5116162 C55.8067929,80.444832 55.7317183,80.2103963 55.7266519,80.0505747 C55.724349,79.9888568 55.9735232,79.8755539 56.1158427,79.8612759 C56.6289299,79.8110726 57.1470834,79.7608693 57.6615523,79.7774502 C57.9194776,79.7862012 58.1723365,79.9391141 58.4279589,80.0266245 C58.4251954,80.0938693 58.422432,80.1624959 58.4192079,80.2292801 C58.6541041,80.1242676 58.8885398,80.0178734 59.2118676,79.873251 C58.3971,79.1155954 57.5533158,78.8093091 56.5566187,78.9175456 C56.202432,78.9557739 55.8289008,79.0511141 55.4963614,78.9774212 C55.2559382,78.9230726 55.0689423,78.6315249 54.8805647,78.4652552 C55.2260004,78.1967365 55.4443158,78.0272427 55.6626311,77.857749 C55.3646353,77.7711598 55.0666394,77.6850311 54.7202826,77.5837033 C54.0201996,77.0056743 53.8599174,75.7786867 52.6858967,75.5327365 C52.6730004,75.2775747 52.6255606,75.028861 52.6541166,74.7879772 C52.7545232,73.9340602 52.9065149,73.0852095 52.977905,72.2294502 C52.9940253,72.037388 52.8047266,71.7817656 52.6412203,71.6316162 C52.3906643,71.4036286 52.0194361,71.2935498 51.80849,71.0411515 C51.4879257,70.6593299 51.0770876,70.5405 50.6602618,70.3332386 C49.9136602,69.9610892 49.2900336,69.3411473 48.6166643,68.8225332 C48.1639133,68.4738734 47.9603365,67.7811598 47.0875357,68.0294129 C46.8263863,68.1035664 46.3390917,67.4053257 45.9646394,67.0497573 C45.8669963,66.9571805 45.8080419,66.8231515 45.7255979,66.698334 C45.8329133,66.6435249 45.9383863,66.5914793 46.0696519,66.5260768 C45.9872079,66.4229066 45.942071,66.3376992 45.8716021,66.2833506 C45.4197722,65.9351515 44.8795108,65.7140726 45.1982328,64.8905539 C45.2963365,64.6372344 44.7017266,64.1153963 44.3751747,63.6460643 C44.0467805,64.1683631 43.8192535,64.5313008 43.517573,65.0139896 C43.3554485,64.3599647 42.8115025,63.8620768 43.5511954,63.3213548 C43.6704859,63.2352261 43.6368635,62.9381515 43.70549,62.5655415 C43.0800212,62.7299689 42.5600253,62.8649191 42.0400295,63.0044751 C41.9087639,63.0394793 41.7733531,63.1421888 41.6531415,63.1242261 C41.104129,63.0422427 40.7296768,63.2582552 40.4717515,63.8395083 C40.6067017,64.0080809 40.7844859,64.2291598 40.9627307,64.4516203 C40.1295398,65.3935083 40.3625938,66.4150768 41.5200336,66.8471017 C42.4213905,67.1824046 42.9570461,68.1390311 42.9169755,69.0726286 C42.9022369,69.4024046 43.1790461,69.777778 43.3969008,70.0780768 C44.0191456,70.9342967 44.6008593,71.8729606 45.9282535,71.6131929 C46.118934,71.5758859 46.3588967,71.7895954 46.5758303,71.8876992 C46.4238386,72.0885124 46.2713863,72.2902469 46.0871539,72.5338942 C46.7821705,72.8632095 47.5356809,73.1510726 48.2141166,73.5623714 C48.9321622,73.9966992 49.8947763,74.0805249 50.319432,74.957471 C50.3949672,75.1136079 50.5409714,75.2821805 50.521627,75.4268029 C50.4866228,75.689334 50.3516726,75.9394295 50.2590959,76.1941307 C50.077627,76.0154253 49.7879216,75.8615913 49.7377183,75.652027 C49.6428386,75.2467158 49.4447888,75.1361763 49.0689548,75.1476909 C48.8920917,75.1532178 48.6502867,75.1274253 48.5457349,75.0159647 C48.1735855,74.6157199 47.8553241,74.68711 47.5725274,75.0749191 C47.1340544,75.6755166 47.0447017,76.5183797 47.3988884,76.7799896 C47.5319963,76.8780934 47.7668925,76.838944 48.0100793,76.8693423 L48.0100793,78.1925913 C47.3721747,78.3105 46.9042245,78.5932967 46.8075025,79.3504917 C46.7407183,79.873251 45.9572701,80.1694046 45.3640419,79.9787241 C45.5086643,79.5660436 45.655129,79.1492178 45.8246228,78.6651473 C46.3980461,78.5748734 46.443183,78.1124502 46.289349,77.5984419 C46.1580834,77.157666 46.0281996,76.6869523 45.7679714,76.3226328 C45.5399838,76.002529 45.1646104,75.7188112 44.7952245,75.5866245 C44.4355108,75.4581224 44.2107473,75.3623216 44.2535813,74.946417 C44.323129,74.2822593 43.6778552,74.2214627 43.3356436,73.9524834 C41.8221747,72.7628029 40.1548718,71.7743963 38.8938012,70.2678361 C37.9744817,69.16889 37.0768095,68.0971183 36.8391498,66.6122054 C36.7562452,66.0968154 36.487266,65.6118237 36.285071,65.0664959 C35.7240834,65.3654129 35.1396062,65.1024212 34.5201249,64.8246909 C34.1175772,64.6446037 33.8062245,64.9329274 33.5344817,65.2779025 C33.3470253,65.516944 33.0232369,65.6574212 32.747349,65.8181639 C32.0431207,66.2294627 31.1348552,66.2197905 30.5747888,66.9820519 C30.4347722,67.1727324 29.7549548,67.201749 29.5108469,67.0327158 C29.0078925,66.6863589 28.6311373,66.1562303 28.2023365,65.7025581 C28.176544,65.7707241 28.1502909,65.8379689 28.1240378,65.9065954 C27.6210834,65.7582884 27.1172079,65.6132054 26.6156353,65.4602925 C26.4710129,65.4156162 26.3042826,65.269612 26.1974278,65.3083008 C25.7142784,65.4805581 25.2030336,65.6380768 24.7935772,65.9305456 C24.5411788,66.1101722 24.4186643,66.5094959 24.3053614,66.8342054 C24.2358137,67.0336369 24.2924651,67.2782054 24.2924651,67.5255373 C24.0833614,67.5642261 23.9064983,67.597388 23.6923282,67.6374585 C23.9309091,67.6816743 24.1298801,67.7185207 24.3237846,67.7549066 C24.3988593,68.4747946 24.0400668,69.0127531 23.3114278,69.1449398 C22.3234817,69.3241058 21.2982286,69.3457531 20.338378,69.6124295 C19.7958137,69.7616577 19.3444444,70.2572427 18.8659008,70.6164959 C18.3882784,70.975749 17.944739,71.3819813 17.4569838,71.7264959 C16.709461,72.2529398 16.4694983,72.914334 16.8536228,73.7369315 C17.0922037,74.2472552 17.0627266,74.5282095 16.4326519,74.550778 C15.7210544,74.5784129 15.4612867,75.1711805 15.0656477,75.6151805 C14.8712826,75.8334959 14.5318344,76.084973 14.2808178,76.0624046 C13.2224029,75.965222 12.6457556,76.2337407 12.2685398,77.0544959 C11.6181996,76.9752759 11.0074693,76.8149938 10.4064112,76.847695 C9.64092573,76.8891473 9.07072656,76.5054834 8.45078465,76.1973548 C8.10949419,76.0269398 7.78063942,75.8652759 7.46237801,76.2678237 C7.40066017,76.3461224 7.18556888,76.2945373 7.0450917,76.3221722 C6.48410415,76.4294876 5.92588008,76.5450934 5.36627427,76.6583963 C5.38515809,76.7210353 5.40404191,76.7836743 5.42246515,76.8458527 C5.24375975,76.7067573 5.01531162,76.5999025 4.89924523,76.4207365 C4.77673071,76.2314378 4.64085934,75.9104129 4.72053983,75.7551971 C5.05998797,75.0947241 4.96464772,74.6120353 4.33180954,74.2048817 C4.1494195,74.086973 4.04993402,73.8447075 3.89656058,73.6733714 C3.63909585,73.3887324 3.3724195,73.3449772 2.94592158,73.3592552 C2.36697137,73.3772178 1.77558548,73.0262552 1.19249004,72.8254419 C0.940091701,72.7393133 0.694602075,72.635222 0.356075104,72.5048776 C0.560112448,72.2105664 0.840145643,71.8485498 1.07181784,71.4575166 C1.18189668,71.2714419 1.20124108,71.0319398 1.25743195,70.8145456 C1.30763527,70.6224834 1.30671411,70.4014046 1.40527842,70.2397407 C1.93172241,69.3775332 1.89119129,69.2333714 0.957593776,68.8681307 C1.08885934,68.4678859 1.21505851,68.0667199 1.35691743,67.6710809 C1.38455228,67.5941639 1.46699627,67.4914544 1.53516224,67.4822427 C2.6847722,67.3284087 2.74280539,66.1562303 3.35998382,65.5086535 C3.60547344,65.2511888 3.69620788,64.8362054 3.82701286,64.4815581 C4.04486763,63.8910934 4.20330747,63.2766784 4.45985104,62.7050975 C4.54644025,62.5116535 4.85502946,62.4181556 5.13183859,62.2306992 L4.23692988,62.2306992 C5.20691328,61.7972925 5.33956058,60.8881058 4.6947473,60.0576784 C5.2474444,59.8310726 5.77388838,59.508666 6.20407095,60.0447822 C6.57529917,59.8656162 6.88711245,59.6740145 7.22563942,59.5620934 C7.55633651,59.4533963 7.82347344,59.5690021 7.96901701,59.932861 C8.20990083,60.5348402 8.86807095,60.362583 9.31253154,60.5951763 C10.0766353,60.9949606 10.9066021,61.2680851 11.7135398,61.5849647 C12.1501705,61.7558402 12.6033822,61.8861846 13.0349465,62.0690353 C13.4582203,62.2477407 13.8644527,62.4692801 14.2771332,62.6742386 C14.415768,62.7437863 14.5438095,62.8432718 14.6898137,62.8888693 C15.3548925,63.0915249 16.023656,63.2812842 16.7960502,63.5055871 C17.4063199,62.684832 18.0796892,61.7765664 18.8037224,60.8019772 C18.8576104,60.3736369 18.9271581,59.8250851 18.9971664,59.2760726 C19.0372369,59.2608734 19.077768,59.2456743 19.1182992,59.2313963 C19.2813448,59.5980187 19.444851,59.9660228 19.6088178,60.334027 C19.6756021,60.3298817 19.7423863,60.3266577 19.8091705,60.322973 C19.6949465,59.2650187 19.2735149,58.1932469 19.9210917,57.1868776 C19.0271041,57.0348859 18.4771705,55.9921307 18.8331996,55.3486992 C18.8659008,55.2888237 18.9170253,55.2321722 18.9285398,55.1676909 C18.9709133,54.9194378 18.1077846,53.7785788 17.8945357,53.6592884 C17.6214112,53.5063755 17.39849,53.2631888 17.1539216,53.0582303 C16.9162618,52.8592593 16.7002494,52.6239025 16.4363365,52.4709896 C16.1931498,52.3300519 15.8988386,52.2766245 15.7288842,52.2190519 C15.9969423,51.7861058 16.2019008,51.454027 16.4077805,51.1219481 C16.8619133,51.1449772 17.3961871,51.1721515 17.930461,51.1993257 C17.9521083,51.121027 17.9742162,51.0422676 17.9958635,50.9639689 C18.2616187,51.2389357 18.5273739,51.5134419 18.8631373,51.8602593 C19.4761705,52.0035 20.2232328,52.1789813 20.9693739,52.3540021 L20.9693739,49.8240311 C21.2540129,49.9939855 21.491212,50.0616909 21.4985813,50.150583 C21.627544,51.5912801 22.962768,51.1131971 23.7185813,51.5355498 C23.9714402,51.6769481 24.3532618,51.5894378 24.676129,51.6064793 C24.6917888,51.5346286 24.706988,51.462778 24.7226477,51.3909274 C24.513544,51.2398568 24.3044402,51.0887863 24.1842286,51.0021971 C24.8939838,50.762695 25.6456519,50.5093755 26.3858054,50.2592801 C26.5935274,49.701056 26.3148759,48.9277407 27.0614776,48.6758029 C27.3451954,48.5800021 27.7122784,48.7315332 28.1392369,48.7817365 C28.455656,48.286612 28.8052369,48.2695705 29.4947266,48.7522593 C29.6955398,48.8922759 30.0810461,48.8195041 30.367988,48.7674585 C30.5890668,48.7278485 30.7884983,48.568027 30.960295,48.4809772 C30.8271871,48.3713589 30.6190046,48.2014046 30.3776602,48.0042759 C30.6549299,47.7422054 31.3209299,47.7191763 30.9704278,47.3474876 C31.2983614,46.7883423 31.617544,46.3438817 31.8294112,45.8524419 C32.0108801,45.4319315 32.0030502,45.3881763 32.5069257,45.5926743 C32.3825689,45.8312552 32.2236685,46.0569398 32.1513573,46.3079564 C32.1103656,46.4521183 32.1624112,46.7284668 32.2605149,46.7795913 C32.380266,46.843612 32.693461,46.7888029 32.7441249,46.6916203 C32.9053282,46.385334 33.0531747,46.0403589 33.0785066,45.7013714 C33.1351581,44.9326618 33.4202577,44.7042137 34.1769921,44.8069232 C34.4759091,44.8479149 34.8006187,44.6963838 35.0765066,44.6397324 C35.2248137,44.9119357 35.3763448,45.1915083 35.5287971,45.4710809 C35.5845274,45.4416037 35.6407183,45.4125871 35.6964485,45.38311 C35.599266,45.8436909 35.502544,46.3042718 35.4053614,46.7648527 C35.4481954,46.7745249 35.4901083,46.7846577 35.5324817,46.7947905 C35.6397971,46.3867158 35.7655357,45.9827863 35.8461373,45.5701058 C35.8820627,45.386334 35.8138967,45.1845996 35.8189631,44.9916162 C35.82449,44.782973 35.8608759,44.3947033 35.8852867,44.3942427 C36.239934,44.3924004 36.6618261,44.3380519 36.9303448,44.5098485 C37.1961,44.6793423 37.3080212,45.0901805 37.6073988,45.6000436 C37.7658386,45.0878776 37.8690087,44.7530353 38.021461,44.2638983 C38.3618303,44.3988485 38.7233863,44.5425498 39.1535689,44.7134253 C38.9205149,44.369832 38.6934485,44.0188693 38.4484195,43.6803423 C38.2485274,43.4030726 38.0689008,43.16311 38.5055315,42.9166992 C38.5981083,42.8637324 38.5898178,42.6200851 38.6165315,42.4621058 C38.6510751,42.2566867 38.6736436,42.0494253 38.7021996,41.8430851 L38.6800917,41.8205166 Z" id="Stroke-1"></path>
                    <path d="M22.2231672,42.4332734 C22.2963996,42.2333813 22.3687108,42.0334892 22.4414826,41.8335971 C22.4916859,41.8418876 22.5414286,41.8497174 22.591632,41.8580079 C22.5013581,41.6341656 22.4115448,41.4103232 22.3120593,41.1639124 C22.5059639,40.7636676 22.71691,40.3293398 22.9273954,39.8945515 C22.9149598,39.7605224 22.1789515,39.4639083 22.5188602,38.7633647 C22.6501257,38.4911614 23.1153124,38.3801614 23.4851589,38.1627672 C23.4833166,38.1595432 23.4437066,37.9601116 23.3833705,37.9532029 C22.7436237,37.8841158 22.1006527,37.8449664 21.4788685,37.9357008 C21.2660801,37.7961448 21.0537523,37.6570494 20.684827,37.4147838 C21.3370095,36.9293315 21.9767564,36.4535515 22.7233581,35.8971697 C22.2369846,35.5637091 22.0389349,35.4282983 21.9127357,35.3412485 C21.8933913,35.0906925 21.8763498,34.8617838 21.8588477,34.6324145 C21.6566527,34.6766303 21.4539971,34.7208461 21.2094286,34.7742734 C21.590329,34.3459332 21.9878104,33.8987091 22.3862129,33.4519456 C22.3484452,33.3966759 22.3115988,33.3414062 22.2742917,33.2865971 C21.9809017,33.4326012 21.687051,33.5781448 21.3932004,33.7236884 C21.3637232,33.6942112 21.3342461,33.664734 21.3052295,33.6352568 C21.6432959,33.1502651 21.9813622,32.6648129 22.3120593,32.1899539 L22.3120593,31.25129 C22.6082129,31.3001116 22.9034452,31.3484726 23.2401299,31.4037423 C23.2240095,31.2268793 23.2060469,31.0315929 23.1885448,30.8363066 C23.2290759,30.8662444 23.2686859,30.8957216 23.3087564,30.9256593 C23.5514826,30.6064768 23.7942087,30.2868336 23.9655448,30.0616095 C24.6098975,30.25229 25.2436568,30.4392859 26.1164577,30.6972112 C25.5223083,30.9993523 24.965466,31.1467382 24.6163456,31.5000037 C24.2980842,31.8210286 23.4404826,31.9076178 23.8775739,32.7854851 C24.8411091,32.463539 25.7945116,32.4603149 26.6972502,33.2069166 C26.5180842,33.371344 26.3301672,33.5191905 26.1735697,33.6951324 C26.069939,33.8116593 25.9575573,33.9641116 25.944661,34.1096552 C25.9078145,34.5292444 25.3436029,35.02529 24.9065116,34.9870618 C24.6881963,34.968178 24.4684992,34.9644934 24.0820718,34.9460701 C24.3247979,35.2122859 24.447773,35.3472361 24.6568768,35.5761448 C24.1714245,35.6152942 23.7753249,35.6470743 23.3787647,35.6783938 C23.3621838,35.7267548 23.3451423,35.7751158 23.3281008,35.8234768 C23.6182668,35.918817 23.9024452,36.0639 24.1999805,36.1002859 C24.9286195,36.1900992 25.5485614,37.0384892 25.4582876,37.7864726 C25.3933456,38.3285763 25.4251257,38.8831158 25.4228228,39.4316676 C25.4223622,39.5177963 25.4472336,39.6610369 25.4983581,39.6813025 C26.4310344,40.0516095 26.2362087,40.851178 26.2343664,41.6102154 C26.0538187,41.6664062 25.8603747,41.7267423 25.537968,41.827149 C25.7806942,41.9703896 25.9110386,42.0390162 26.0321714,42.120539 C26.5945407,42.4982154 26.6277025,43.0435432 26.1187606,43.4843191 C25.7696402,43.7859996 25.7696402,43.7859996 26.0565822,44.2553315 C26.2647647,44.1770328 26.5102544,43.9868129 26.6829722,44.0388585 C27.1122336,44.1687423 27.6303871,44.3110618 27.8827855,44.630705 C28.1457772,44.963705 27.6732212,45.812095 27.2333664,46.0059996 C26.9897191,46.1137755 26.7096859,46.1441739 26.4724867,46.2625432 C26.3186527,46.338539 26.2127191,46.5107963 26.0109846,46.7152942 C25.9340676,46.711149 25.6987108,46.696871 25.389661,46.6779871 C25.6637066,47.4070867 26.1155365,47.6092817 26.7718643,47.4476178 C26.4466942,48.0044602 25.7125282,48.3406842 25.056661,48.1960618 C24.4201382,48.0560452 23.7942087,47.8616801 23.1719639,47.6645515 C22.9614784,47.5977672 22.7772461,47.4494602 22.5833415,47.4766344 C22.073939,47.5180867 21.5654577,47.559539 21.0565158,47.6014519 C21.0703332,47.5480245 21.08369,47.4945971 21.0975075,47.4411697 C20.545271,47.251871 19.9925739,47.0621116 19.3712502,46.8488627 C19.2869639,47.0704021 19.2671589,47.2753606 19.1533954,47.3822154 C19.0244328,47.5038087 18.6983415,47.641983 18.6536651,47.5931614 C17.9655573,46.8442568 17.2300095,47.2182485 16.4539307,47.4093896 C17.147105,46.5964643 18.2893456,46.4739498 19.0225905,45.7563647 C20.0768602,46.4103896 20.7575988,46.3168917 21.721134,45.3828336 C21.5470344,45.0774685 21.368329,44.764734 21.1887025,44.4543025 C21.5327564,43.7827755 21.8777315,43.1080245 22.2231672,42.4332734 Z" id="Stroke-3"></path>
                    <path d="M13.7843116,11.7857589 C13.2707639,11.4347963 12.8281456,11.1326552 12.3422328,10.8010369 C12.8847971,10.567983 13.5360585,10.4790909 13.817934,10.1087838 C14.0560544,9.79512822 13.8667556,9.15584191 13.8667556,8.64966349 C14.1306685,8.74362199 14.5101871,8.8785722 14.8892452,9.01306183 C14.9228676,8.94489585 14.9560295,8.87672988 14.9901124,8.8085639 C14.8855606,8.64321535 14.7805481,8.47740622 14.6511249,8.27336888 C14.9076685,8.31712407 15.1232203,8.35397054 15.3383116,8.39035643 C15.3880544,8.33646846 15.4373365,8.28211992 15.4875398,8.22777137 C15.1365772,7.86391245 14.7856145,7.50005353 14.4816311,7.1845556 C14.6179631,6.95242282 14.7888386,6.66041452 14.9491207,6.38544772 C15.1130876,6.68804938 15.2959382,7.02473402 15.4778676,7.36095809 C15.565378,7.35450996 15.653349,7.34806183 15.7413199,7.34207427 C15.8315938,6.89945602 15.9223282,6.45637718 16.0056934,6.04922365 C16.4487722,6.43426929 16.3723158,7.21403278 15.9476602,7.68520705 C15.6934195,7.96754315 15.6487432,8.44885021 15.5487971,8.85047676 C15.5299133,8.92416971 15.6966436,9.04438133 15.6975647,9.04530249 C16.1107058,8.89515311 16.4437058,8.77402033 16.7771664,8.65288755 C16.8015772,8.69894564 16.8255274,8.74500373 16.8494776,8.79106183 C16.9706104,8.59946017 17.0922037,8.40785851 17.2782784,8.11446846 C17.3418386,8.47049751 17.3892784,8.7362527 17.4496145,9.07017386 C17.8415689,8.85416141 18.1768718,8.66946846 18.5411913,8.46819461 C18.5881705,8.62294979 18.6291622,8.68927344 18.6240959,8.75145187 C18.5973822,9.07616141 18.5586934,9.39948921 18.5241498,9.72327759 C18.8622162,9.67629834 19.2191664,9.68228589 19.5319008,9.56668008 C19.8216062,9.45936473 20.0026145,9.38659295 20.3282452,9.56990415 C20.503266,9.66892905 20.921934,9.33546846 21.1784776,9.22032324 C21.2268386,9.5155556 21.3083614,9.82184191 21.3194154,10.1308917 C21.3313905,10.4532983 21.2765813,10.7784685 21.2411166,11.2178627 C21.6547183,11.4780909 21.8707307,11.9870328 21.468183,12.5167008 C21.2102577,12.856149 21.0730046,13.6446635 20.2983075,13.0753855 C19.976822,13.9772029 19.2385108,13.5663647 18.6991705,13.6050535 C17.6071332,13.6828917 16.5026602,13.6087382 15.4037141,13.5986054 C15.2963988,13.5976842 15.1172328,13.6483481 15.092822,13.6059747 C14.7050129,12.9247755 13.4361124,12.8658212 13.7843116,11.7857589 Z" id="Stroke-5"></path>
                    <path d="M13.9401261,38.8860174 C13.3441344,38.9072041 12.8600639,38.7837685 12.8163087,38.052366 C13.2690598,37.8404988 13.7282589,37.6198805 13.5850183,36.9534199 C13.5596863,36.8373535 13.7393129,36.6162747 13.876566,36.5481087 C13.9645369,36.5043535 14.1713378,36.6241046 14.2832589,36.7189842 C14.4707154,36.8792664 14.6144166,37.0902124 14.7968066,37.2578639 C15.1330307,37.5669137 15.4231967,37.5793494 15.6848066,37.1348888 C15.7838315,36.9667768 15.999844,36.8672913 16.1914456,36.7134573 C15.9897112,36.5734407 15.8068606,36.4467809 15.6115743,36.3109095 C17.0181884,35.5104199 17.0181884,35.5104199 18.2797195,35.7918349 C17.8145328,36.0525237 17.3645452,36.304922 16.9136365,36.5577809 C16.930678,36.5711378 16.9472589,36.5849552 16.9633793,36.5987726 C17.4621884,36.4490838 17.9536282,36.2450465 18.4634913,36.1764199 C18.6804249,36.1474033 19.0604041,36.347756 19.1437693,36.5407394 C19.2593751,36.8092581 19.7153502,37.1620631 19.1810763,37.4909178 C19.1285701,37.5236191 19.0571801,37.625868 19.0723793,37.6544241 C19.5495411,38.553478 18.6325245,38.513868 18.2774166,38.8546979 C18.1986573,38.9302332 18.1410846,39.0453784 18.1102257,39.1531544 C17.9273751,39.8104033 17.7541967,40.4704158 17.5777942,41.1299676 C17.4115245,41.7535942 16.6621593,42.1828556 16.0394539,42.1962124 C15.3039062,42.2123328 14.5577651,42.321951 13.8443253,42.5038805 C13.3141967,42.6392913 11.7505245,42.4131461 11.4737154,41.9387477 C11.3369228,41.7052332 11.5451054,41.2506398 10.9606282,41.2957768 C11.2425037,41.1843162 11.5234581,41.072395 11.969761,40.8950714 C11.6035992,40.7748598 11.3691635,40.6979427 11.1351884,40.6214863 C11.1305826,40.5717436 11.1268979,40.5224614 11.1222921,40.4727187 C11.8965286,40.4211336 12.6707651,40.369088 13.5592257,40.309673 C13.239122,40.155839 12.9853419,40.0337851 12.5878606,39.8421834 C13.1396365,39.5690589 13.5831759,39.3493618 14.0257942,39.1301253 C13.9967776,39.0486025 13.9686822,38.9670797 13.9401261,38.8860174 Z" id="Stroke-7"></path>
                    <path d="M44.9913398,79.5215054 C44.7481531,80.0562398 44.4994394,80.5158996 44.3336303,81.0041154 C44.2456593,81.2620407 44.3580411,81.5853685 44.2797423,81.8492813 C44.1949954,82.1339203 44.0499124,82.5115967 43.8256095,82.610161 C43.6045307,82.7078041 43.1135515,82.889273 42.9767589,82.4005967 C42.8408876,81.9114598 42.4880826,81.8607959 42.083232,81.7028166 C41.4476303,81.4568664 40.894012,81.0059577 40.2952568,80.6591402 C40.0004851,80.4887253 39.6822237,80.3583809 39.3865307,80.2156008 C39.5546427,79.4607087 40.3620411,79.0770448 40.9930369,79.5353228 C41.7249,80.065912 42.4397216,79.9843892 43.2181033,79.8241071 C43.7933689,79.7052772 44.3773855,79.6251361 44.9913398,79.5215054 Z" id="Stroke-9"></path>
                    <path d="M33.001866,74.3588539 C32.2571066,74.1852149 32.4146253,73.5390199 32.3137581,73.0835054 C32.2911896,72.9812564 32.8010527,72.7426755 33.0815465,72.5975925 C33.2574884,72.5063975 33.465671,72.4193477 33.6558909,72.4253353 C33.9870485,72.4350075 34.3223515,71.8551361 34.6125174,72.3493394 C34.8842602,72.8117627 35.1288286,73.2746465 34.7861564,73.9139328 C34.5005963,74.4454432 34.5176378,75.1404598 34.4126253,75.7650075 C34.3757788,75.9856257 34.3748577,76.2131527 34.356895,76.4452855 C33.320588,76.211771 33.320588,76.211771 33.0718743,76.7437419 C32.1870983,76.5899079 32.1442643,75.6609162 33.001866,74.3588539 Z" id="Stroke-11"></path>
                    <path d="M75.7014012,60.4096544 C75.7529863,60.4497249 75.9031357,60.5690154 76.0721689,60.7025838 C76.1914593,60.5625672 76.3052228,60.4299199 76.2973929,60.438671 C76.9191772,60.8195714 77.4820071,61.147505 78.0273349,61.5012311 C78.8858577,62.0599158 79.2543224,60.7882519 79.9995423,60.9724842 C80.0511274,61.2023141 80.0990278,61.4164842 80.1727207,61.7462602 C79.8903846,61.7817249 79.6029822,61.8789075 79.3367664,61.8388369 C78.3529656,61.6928328 78.3193432,61.6992809 77.9292311,62.5145091 C77.6284718,62.6890693 77.1572975,62.798227 77.057812,63.0510859 C76.7340237,63.8819739 76.2347539,63.9828411 75.5190112,63.6083888 C75.6737664,62.3261315 75.6092851,62.2358577 74.0714054,61.7697498 C74.612588,61.3179199 75.1072519,60.9047788 75.7014012,60.4096544 Z" id="Stroke-13"></path>
                    <path d="M38.7020154,41.8431311 C38.5242311,40.6000232 37.6809075,39.4163303 38.3699365,38.0272183 C38.5836461,38.1442058 38.7715631,38.2482971 39.0036959,38.375878 C39.1216046,38.241849 39.2468826,38.0995295 39.3067581,38.0309029 C39.55409,38.1419029 39.7645755,38.236322 40.0528992,38.3662058 C40.0054593,38.1179527 39.9769033,37.9673427 39.949729,37.8268656 C40.2555548,37.7347494 40.5494054,37.6458573 40.8087124,37.5670979 C40.8602975,37.8577245 40.8427954,38.2059237 40.9911025,38.4560191 C41.1274344,38.685849 41.7446129,38.5799154 41.4668826,39.1630108 C41.1863888,39.1648531 40.6990942,38.777044 40.7962768,39.5733884 C40.8257539,39.8184174 40.2956253,40.1652349 39.9796668,40.4116456 C39.4730278,40.8068241 39.3735423,41.3282017 39.3689365,41.9661062 C39.1561481,41.9209693 38.9171066,41.8703054 38.6789863,41.8201021 C38.6799075,41.8205627 38.7020154,41.8431311 38.7020154,41.8431311 Z" id="Stroke-15"></path>
                    <path d="M22.2231672,42.4332734 C21.8777315,43.1080245 21.5327564,43.7827755 21.1887025,44.4543025 C21.3770801,44.8425722 21.331022,45.2391324 20.921105,45.3763855 C20.573827,45.4924519 20.1196942,45.5983855 19.9082876,45.0194353 C19.8018934,44.7292693 19.5587066,44.4326552 19.2966361,44.2760577 C19.1234577,44.1738087 18.8042751,44.3161282 18.5859598,44.3442237 C18.4464037,44.1549249 18.2994784,43.9554934 18.1986112,43.8182402 C18.7761797,43.6915805 19.3182834,43.5824228 19.8557813,43.4516178 C20.6125158,43.2683066 20.323271,42.5028212 20.7179888,42.0044726 L20.1339722,42.0044726 C20.1339722,41.9565722 20.1210759,41.8819581 20.1353539,41.8768917 C21.4498519,41.3670286 21.5359805,41.3905183 22.2231672,42.4332734 Z" id="Stroke-17"></path>
                    <path d="M34.5280008,71.5243008 C34.0512996,71.1245166 33.680532,69.8823299 33.857395,69.4848485 C34.0886066,68.9643921 34.5496481,68.7967407 35.1396523,68.7741722 C35.5440423,69.8560768 34.5547145,70.5202344 34.5280008,71.5243008 Z" id="Stroke-19"></path>
                    <path d="M41.6334747,41.44261 C41.6624913,41.2795643 41.7481593,41.1105311 41.7053253,40.9852531 C41.5376739,40.4910498 41.8296822,40.4841411 42.1525494,40.5513859 C42.6720846,40.660083 43.1902382,40.264444 43.1930017,39.7287884 C43.2616282,39.7333942 43.3297942,39.7375394 43.3984207,39.7426058 C43.3546656,40.0590249 43.3413087,40.3832739 43.2616282,40.6904813 C43.0387071,41.542556 42.6458315,42.1012407 41.6334747,41.44261 Z" id="Stroke-21"></path>
                    <path d="M77.5756432,5.92412988 C77.9395021,6.16363195 78.3742905,6.30180622 78.5147676,6.58598465 C78.6423485,6.8452917 78.4512075,7.26211743 78.4005436,7.61123776 C77.3140332,7.21513817 77.1279585,6.88996805 77.5756432,5.92412988 Z" id="Stroke-23"></path>
                    <path d="M40.3880178,36.6582336 C40.7025946,36.4099805 41.0167108,36.1626485 41.5109141,35.7725365 C41.5661838,36.244632 41.5998062,36.5338768 41.6334286,36.822661 C41.2525282,36.8558228 40.8716278,36.8885241 40.4902668,36.9212253 C40.4557232,36.8337149 40.4221008,36.745744 40.3880178,36.6582336 Z" id="Stroke-25"></path>
                    <path d="M40.9117905,41.7158726 C40.6907116,41.5205863 40.4696328,41.3248394 40.2485539,41.1295531 C40.4350892,41.0374369 40.7114378,40.8209639 40.7911183,40.8780759 C40.9850228,41.017632 41.0868112,41.2838477 41.2254461,41.498939 C41.1208942,41.5712502 41.0163423,41.6435614 40.9117905,41.7158726 Z" id="Stroke-27"></path>
                    <path d="M56.4001593,34.6128398 C56.7819809,34.5317776 57.1154415,34.4603876 57.4489021,34.3894581 C57.479761,34.4451884 57.5101593,34.5009187 57.5410183,34.5561884 C57.1969643,34.7749643 56.8538315,34.9937402 56.4001593,35.2829851 L56.4001593,34.6128398 Z" id="Stroke-29"></path>
                    <path d="M61.6937079,79.6501456 C61.2091768,79.2581913 60.647268,78.8045191 60.1000979,78.3619008 C60.9401975,78.4512535 61.5863925,79.0122411 61.6937079,79.6501456 Z" id="Stroke-31"></path>
                </g>
            </g>
        </g>
    </g>
</svg>