<?xml version="1.0" encoding="UTF-8"?>
<svg width="35px" height="32px" viewBox="0 0 35 32" version="1.1" xmlns="http://www.w3.org/2000/svg" xmlns:xlink="http://www.w3.org/1999/xlink">
    <!-- Generator: Sketch 57.1 (83088) - https://sketch.com -->
    <title>Crown</title>
    <desc>Created with Sketch.</desc>
    <g id="Page-1" stroke="none" stroke-width="1" fill="none" fill-rule="evenodd">
        <g id="FIX" transform="translate(-978.000000, -874.000000)" fill-rule="nonzero">
            <g id="Group-28" transform="translate(962.000000, 874.000000)">
                <g id="Crown" transform="translate(16.000000, -0.000000)">
                    <path d="M34.4464615,6.88207692 C34.4776923,6.78407692 34.4604615,6.67692308 34.3996154,6.594 C34.3387692,6.51053846 34.2423846,6.46153846 34.139,6.46153846 L34.1363077,6.46153846 C34.076,6.46153846 34.0178462,6.48253846 33.9715385,6.52023077 C33.523,6.88476923 30.8818462,8.83615385 27.8002308,9.26046154 C27.6963077,9.27446154 27.6101538,9.34769231 27.5794615,9.44784615 C27.5487692,9.548 27.5783846,9.65676923 27.6564615,9.72676923 C28.5287692,10.5150769 29.0769231,11.6555385 29.0769231,12.9230769 C29.0769231,15.3030769 27.1492308,17.2307692 24.7692308,17.2307692 C22.3892308,17.2307692 20.4615385,15.3030769 20.4615385,12.9230769 C20.4615385,11.1386154 21.5454615,9.60938462 23.0903077,8.95407692 C23.1856154,8.91369231 23.2491538,8.82215385 23.254,8.71876923 C23.2588462,8.61538462 23.2039231,8.51846154 23.1129231,8.46946154 C21.0446923,7.35538462 19.0443077,4.48269231 17.4843846,0.177692308 C17.4456154,0.0710769231 17.3443846,0 17.2307692,0 C17.1171538,0 17.0159231,0.0710769231 16.9776923,0.177153846 C15.4177692,4.48215385 13.4173846,7.35484615 11.3491538,8.46892308 C11.2581538,8.51792308 11.2032308,8.61484615 11.2080769,8.71823077 C11.2129231,8.82161538 11.2764615,8.91315385 11.3717692,8.95353846 C12.9160769,9.60938462 14,11.1386154 14,12.9230769 C14,15.3030769 12.0723077,17.2307692 9.69230769,17.2307692 C7.31230769,17.2307692 5.38461538,15.3030769 5.38461538,12.9230769 C5.38461538,11.6555385 5.93276923,10.5150769 6.80561538,9.72676923 C6.88315385,9.65676923 6.91330769,9.54746154 6.88261538,9.44784615 C6.85192308,9.34823077 6.76576923,9.275 6.66184615,9.26046154 C3.58023077,8.83615385 0.938538462,6.88476923 0.49,6.52023077 C0.443692308,6.48253846 0.385,6.46153846 0.325230769,6.46153846 L0.322538462,6.46153846 C0.219692308,6.46153846 0.122769231,6.51053846 0.0619230769,6.594 C0.00107692308,6.67692308 -0.0161538462,6.78407692 0.0150769231,6.88207692 L3.76923077,28 L30.6923077,28 L34.4464615,6.88207692 Z" id="Path" fill="#FACB1B"></path>
                    <polygon id="Path" fill="#FA5655" points="17.2307692 5.92307692 15.0769231 8.61538462 17.2307692 11.3076923 19.3846154 8.61538462"></polygon>
                    <path d="M17.2307692,0 C17.1176923,0 17.0164615,0.0710769231 16.9776923,0.177692308 C15.4183077,4.48269231 13.4173846,7.35538462 11.3491538,8.46946154 C11.2581538,8.51846154 11.2032308,8.61538462 11.2080769,8.71876923 C11.2129231,8.82215385 11.2764615,8.91369231 11.3717692,8.95407692 C12.9160769,9.60938462 14,11.1386154 14,12.9230769 C14,15.3030769 12.0723077,17.2307692 9.69230769,17.2307692 C7.31230769,17.2307692 5.38461538,15.3030769 5.38461538,12.9230769 C5.38461538,11.6555385 5.93276923,10.5150769 6.80561538,9.72676923 C6.88369231,9.65676923 6.91330769,9.54746154 6.88261538,9.44730769 C6.85138462,9.34715385 6.76576923,9.27446154 6.66184615,9.25992308 C3.58023077,8.83615385 0.938538462,6.88423077 0.490538462,6.51969231 C0.443692308,6.48253846 0.385,6.46153846 0.325230769,6.46153846 L0.322538462,6.46153846 C0.219692308,6.46153846 0.122769231,6.51053846 0.0624615385,6.594 C0.00215384615,6.67746154 -0.0156153846,6.78461538 0.0156153846,6.88207692 L3.76923077,28 L17.2307692,28 L17.2307692,0 Z" id="Path" fill="#FBE158"></path>
                    <polygon id="Path" fill="#DF2C2C" points="2.62069231 21.5384615 3.76923077 28 30.6923077 28 31.8408462 21.5384615"></polygon>
                    <path d="M31.2307692,30.6923077 C31.2307692,30.9895385 30.9895385,31.2307692 30.6923077,31.2307692 L3.76923077,31.2307692 C3.472,31.2307692 3.23076923,30.9895385 3.23076923,30.6923077 L3.23076923,28.5384615 C3.23076923,28.2412308 3.472,28 3.76923077,28 L30.6923077,28 C30.9895385,28 31.2307692,28.2412308 31.2307692,28.5384615 L31.2307692,30.6923077 Z" id="Path" fill="#FBE158"></path>
                    <path d="M32.8461538,21 C32.8461538,21.2972308 32.6049231,21.5384615 32.3076923,21.5384615 L2.15384615,21.5384615 C1.85661538,21.5384615 1.61538462,21.2972308 1.61538462,21 L1.61538462,19.9230769 C1.61538462,19.6258462 1.85661538,19.3846154 2.15384615,19.3846154 L32.3076923,19.3846154 C32.6049231,19.3846154 32.8461538,19.6258462 32.8461538,19.9230769 L32.8461538,21 Z" id="Path" fill="#FBEC9A"></path>
                    <circle id="Oval" fill="#FBEC9A" cx="24.7692308" cy="24.7692308" r="1.07692308"></circle>
                    <polygon id="Path" fill="#FA5655" points="17.2307692 21.5384615 2.62069231 21.5384615 3.76923077 28 17.2307692 28"></polygon>
                    <polygon id="Path" fill="#F79392" points="15.0769231 8.61538462 17.2307692 11.3076923 17.2307692 5.92307692"></polygon>
                    <circle id="Oval" fill="#FBEC9A" cx="9.69230769" cy="24.7692308" r="1.07692308"></circle>
                    <circle id="Oval" fill="#FBEC9A" cx="17.2307692" cy="24.7692308" r="1.07692308"></circle>
                </g>
            </g>
        </g>
    </g>
</svg>