<?xml version="1.0" encoding="UTF-8"?>
<svg width="131px" height="23px" viewBox="0 0 131 23" version="1.1" xmlns="http://www.w3.org/2000/svg" xmlns:xlink="http://www.w3.org/1999/xlink">
    <!-- Generator: Sketch 55.1 (78136) - https://sketchapp.com -->
    <title>Incognito</title>
    <desc>Created with Sketch.</desc>
    <g id="Page-1" stroke="none" stroke-width="1" fill="none" fill-rule="evenodd">
        <g id="Home-Copy-2" transform="translate(-93.000000, -92.000000)" fill="#02F32E" fill-rule="nonzero">
            <path d="M93.728,93.2 L104.96,93.2 L104.96,96.224 L100.928,96.224 L100.928,106.976 L104.96,106.976 L104.96,110 L93.728,110 L93.728,106.976 L97.76,106.976 L97.76,96.224 L93.728,96.224 L93.728,93.2 Z M111.584,110 L108.56,110 L108.56,98.096 L111.584,98.096 L111.584,99.872 L112.016,99.872 C112.288001,99.1999966 112.727997,98.6800018 113.336,98.312 C113.944003,97.9439982 114.655996,97.76 115.472,97.76 C116.048003,97.76 116.587997,97.8519991 117.092,98.036 C117.596003,98.2200009 118.039998,98.5039981 118.424,98.888 C118.808002,99.2720019 119.107999,99.76 119.324,100.352 C119.540001,100.944003 119.648,101.647996 119.648,102.464 L119.648,110 L116.624,110 L116.624,103.232 C116.624,102.383996 116.420002,101.716002 116.012,101.228 C115.603998,100.739998 115.016004,100.496 114.248,100.496 C113.351996,100.496 112.684002,100.795997 112.244,101.396 C111.803998,101.996003 111.584,102.799995 111.584,103.808 L111.584,110 Z M134.864,105.632 C134.591999,107.040007 133.948005,108.175996 132.932,109.04 C131.915995,109.904004 130.560008,110.336 128.864,110.336 C127.983996,110.336 127.164004,110.200001 126.404,109.928 C125.643996,109.655999 124.984003,109.264003 124.424,108.752 C123.863997,108.239997 123.424002,107.608004 123.104,106.856 C122.783998,106.103996 122.624,105.248005 122.624,104.288 L122.624,104 C122.624,103.039995 122.783998,102.176004 123.104,101.408 C123.424002,100.639996 123.867997,99.9840027 124.436,99.44 C125.004003,98.8959973 125.667996,98.4800014 126.428,98.192 C127.188004,97.9039986 127.999996,97.76 128.864,97.76 C130.528008,97.76 131.875995,98.1919957 132.908,99.056 C133.940005,99.9200043 134.591999,101.055993 134.864,102.464 L131.888,103.232 C131.792,102.527996 131.488003,101.920003 130.976,101.408 C130.463997,100.895997 129.744005,100.64 128.816,100.64 C128.383998,100.64 127.976002,100.719999 127.592,100.88 C127.207998,101.040001 126.872001,101.267999 126.584,101.564 C126.295999,101.860001 126.068001,102.219998 125.9,102.644 C125.731999,103.068002 125.648,103.543997 125.648,104.072 L125.648,104.216 C125.648,104.744003 125.731999,105.211998 125.9,105.62 C126.068001,106.028002 126.295999,106.367999 126.584,106.64 C126.872001,106.912001 127.207998,107.115999 127.592,107.252 C127.976002,107.388001 128.383998,107.456 128.816,107.456 C129.744005,107.456 130.451998,107.224002 130.94,106.76 C131.428002,106.295998 131.743999,105.672004 131.888,104.888 L134.864,105.632 Z M149.6,104.192 C149.6,105.184005 149.432002,106.059996 149.096,106.82 C148.759998,107.580004 148.304003,108.219997 147.728,108.74 C147.151997,109.26 146.492004,109.655999 145.748,109.928 C145.003996,110.200001 144.224004,110.336 143.408,110.336 C142.591996,110.336 141.812004,110.200001 141.068,109.928 C140.323996,109.655999 139.664003,109.26 139.088,108.74 C138.511997,108.219997 138.056002,107.580004 137.72,106.82 C137.383998,106.059996 137.216,105.184005 137.216,104.192 L137.216,103.904 C137.216,102.927995 137.383998,102.060004 137.72,101.3 C138.056002,100.539996 138.511997,99.8960026 139.088,99.368 C139.664003,98.8399974 140.323996,98.4400014 141.068,98.168 C141.812004,97.8959986 142.591996,97.76 143.408,97.76 C144.224004,97.76 145.003996,97.8959986 145.748,98.168 C146.492004,98.4400014 147.151997,98.8399974 147.728,99.368 C148.304003,99.8960026 148.759998,100.539996 149.096,101.3 C149.432002,102.060004 149.6,102.927995 149.6,103.904 L149.6,104.192 Z M143.408,107.456 C143.840002,107.456 144.247998,107.384001 144.632,107.24 C145.016002,107.095999 145.351999,106.888001 145.64,106.616 C145.928001,106.343999 146.155999,106.012002 146.324,105.62 C146.492001,105.227998 146.576,104.784002 146.576,104.288 L146.576,103.808 C146.576,103.311998 146.492001,102.868002 146.324,102.476 C146.155999,102.083998 145.928001,101.752001 145.64,101.48 C145.351999,101.207999 145.016002,101.000001 144.632,100.856 C144.247998,100.711999 143.840002,100.64 143.408,100.64 C142.975998,100.64 142.568002,100.711999 142.184,100.856 C141.799998,101.000001 141.464001,101.207999 141.176,101.48 C140.887999,101.752001 140.660001,102.083998 140.492,102.476 C140.323999,102.868002 140.24,103.311998 140.24,103.808 L140.24,104.288 C140.24,104.784002 140.323999,105.227998 140.492,105.62 C140.660001,106.012002 140.887999,106.343999 141.176,106.616 C141.464001,106.888001 141.799998,107.095999 142.184,107.24 C142.568002,107.384001 142.975998,107.456 143.408,107.456 Z M161.12,108.272 L160.688,108.272 C160.559999,108.544001 160.404001,108.803999 160.22,109.052 C160.035999,109.300001 159.796001,109.519999 159.5,109.712 C159.203999,109.904001 158.852002,110.055999 158.444,110.168 C158.035998,110.280001 157.544003,110.336 156.968,110.336 C156.231996,110.336 155.548003,110.204001 154.916,109.94 C154.283997,109.675999 153.732002,109.284003 153.26,108.764 C152.787998,108.243997 152.420001,107.608004 152.156,106.856 C151.891999,106.103996 151.76,105.240005 151.76,104.264 L151.76,103.832 C151.76,102.871995 151.899999,102.016004 152.18,101.264 C152.460001,100.511996 152.843998,99.8760026 153.332,99.356 C153.820002,98.8359974 154.387997,98.4400014 155.036,98.168 C155.684003,97.8959986 156.367996,97.76 157.088,97.76 C158.048005,97.76 158.807997,97.9399982 159.368,98.3 C159.928003,98.6600018 160.367998,99.1679967 160.688,99.824 L161.12,99.824 L161.12,98.096 L164.144,98.096 L164.144,112.928 C164.144,113.472003 163.972002,113.919998 163.628,114.272 C163.283998,114.624002 162.840003,114.8 162.296,114.8 L154.28,114.8 L154.28,111.92 L160.472,111.92 C160.904002,111.92 161.12,111.680002 161.12,111.2 L161.12,108.272 Z M157.952,107.456 C158.896005,107.456 159.659997,107.156003 160.244,106.556 C160.828003,105.955997 161.12,105.168005 161.12,104.192 L161.12,103.904 C161.12,102.927995 160.828003,102.14 160.244,101.54 C159.659997,100.939997 158.896005,100.64 157.952,100.64 C157.007995,100.64 156.244003,100.931997 155.66,101.516 C155.075997,102.100003 154.784,102.895995 154.784,103.904 L154.784,104.192 C154.784,105.200005 155.075997,105.995997 155.66,106.58 C156.244003,107.164003 157.007995,107.456 157.952,107.456 Z M170.336,110 L167.312,110 L167.312,98.096 L170.336,98.096 L170.336,99.872 L170.768,99.872 C171.040001,99.1999966 171.479997,98.6800018 172.088,98.312 C172.696003,97.9439982 173.407996,97.76 174.224,97.76 C174.800003,97.76 175.339997,97.8519991 175.844,98.036 C176.348003,98.2200009 176.791998,98.5039981 177.176,98.888 C177.560002,99.2720019 177.859999,99.76 178.076,100.352 C178.292001,100.944003 178.4,101.647996 178.4,102.464 L178.4,110 L175.376,110 L175.376,103.232 C175.376,102.383996 175.172002,101.716002 174.764,101.228 C174.355998,100.739998 173.768004,100.496 173,100.496 C172.103996,100.496 171.436002,100.795997 170.996,101.396 C170.555998,101.996003 170.336,102.799995 170.336,103.808 L170.336,110 Z M182.216,107.12 L186.248,107.12 L186.248,100.976 L182.504,100.976 L182.504,98.096 L189.272,98.096 L189.272,107.12 L192.728,107.12 L192.728,110 L182.216,110 L182.216,107.12 Z M190.016,94.568 C190.016,94.8880016 189.956,95.1879986 189.836,95.468 C189.715999,95.7480014 189.552001,95.987999 189.344,96.188 C189.135999,96.388001 188.892001,96.5479994 188.612,96.668 C188.331999,96.788 188.040002,96.848 187.736,96.848 C187.415998,96.848 187.120001,96.788 186.848,96.668 C186.575999,96.5479994 186.336001,96.388001 186.128,96.188 C185.919999,95.987999 185.756001,95.7480014 185.636,95.468 C185.515999,95.1879986 185.456,94.8880016 185.456,94.568 C185.456,94.2479984 185.515999,93.9480014 185.636,93.668 C185.756001,93.3879986 185.919999,93.148001 186.128,92.948 C186.336001,92.747999 186.575999,92.5880006 186.848,92.468 C187.120001,92.3479994 187.415998,92.288 187.736,92.288 C188.040002,92.288 188.331999,92.3479994 188.612,92.468 C188.892001,92.5880006 189.135999,92.747999 189.344,92.948 C189.552001,93.148001 189.715999,93.3879986 189.836,93.668 C189.956,93.9480014 190.016,94.2479984 190.016,94.568 Z M196.352,98.096 L199.88,98.096 L199.88,93.2 L202.904,93.2 L202.904,98.096 L207.2,98.096 L207.2,100.976 L202.904,100.976 L202.904,106.4 C202.904,106.880002 203.119998,107.12 203.552,107.12 L206.768,107.12 L206.768,110 L201.728,110 C201.183997,110 200.740002,109.824002 200.396,109.472 C200.051998,109.119998 199.88,108.672003 199.88,108.128 L199.88,100.976 L196.352,100.976 L196.352,98.096 Z M223.04,104.192 C223.04,105.184005 222.872002,106.059996 222.536,106.82 C222.199998,107.580004 221.744003,108.219997 221.168,108.74 C220.591997,109.26 219.932004,109.655999 219.188,109.928 C218.443996,110.200001 217.664004,110.336 216.848,110.336 C216.031996,110.336 215.252004,110.200001 214.508,109.928 C213.763996,109.655999 213.104003,109.26 212.528,108.74 C211.951997,108.219997 211.496002,107.580004 211.16,106.82 C210.823998,106.059996 210.656,105.184005 210.656,104.192 L210.656,103.904 C210.656,102.927995 210.823998,102.060004 211.16,101.3 C211.496002,100.539996 211.951997,99.8960026 212.528,99.368 C213.104003,98.8399974 213.763996,98.4400014 214.508,98.168 C215.252004,97.8959986 216.031996,97.76 216.848,97.76 C217.664004,97.76 218.443996,97.8959986 219.188,98.168 C219.932004,98.4400014 220.591997,98.8399974 221.168,99.368 C221.744003,99.8960026 222.199998,100.539996 222.536,101.3 C222.872002,102.060004 223.04,102.927995 223.04,103.904 L223.04,104.192 Z M216.848,107.456 C217.280002,107.456 217.687998,107.384001 218.072,107.24 C218.456002,107.095999 218.791999,106.888001 219.08,106.616 C219.368001,106.343999 219.595999,106.012002 219.764,105.62 C219.932001,105.227998 220.016,104.784002 220.016,104.288 L220.016,103.808 C220.016,103.311998 219.932001,102.868002 219.764,102.476 C219.595999,102.083998 219.368001,101.752001 219.08,101.48 C218.791999,101.207999 218.456002,101.000001 218.072,100.856 C217.687998,100.711999 217.280002,100.64 216.848,100.64 C216.415998,100.64 216.008002,100.711999 215.624,100.856 C215.239998,101.000001 214.904001,101.207999 214.616,101.48 C214.327999,101.752001 214.100001,102.083998 213.932,102.476 C213.763999,102.868002 213.68,103.311998 213.68,103.808 L213.68,104.288 C213.68,104.784002 213.763999,105.227998 213.932,105.62 C214.100001,106.012002 214.327999,106.343999 214.616,106.616 C214.904001,106.888001 215.239998,107.095999 215.624,107.24 C216.008002,107.384001 216.415998,107.456 216.848,107.456 Z" id="Incognito"></path>
        </g>
    </g>
</svg>