<?xml version="1.0" encoding="UTF-8"?>
<svg width="27px" height="27px" viewBox="0 0 27 27" version="1.1" xmlns="http://www.w3.org/2000/svg" xmlns:xlink="http://www.w3.org/1999/xlink">
    <!-- Generator: Sketch 57.1 (83088) - https://sketch.com -->
    <title>Group 26</title>
    <desc>Created with Sketch.</desc>
    <g id="WEB" stroke="none" stroke-width="1" fill="none" fill-rule="evenodd">
        <g id="LANDING-PAGE-MỚI" transform="translate(-165.000000, -56.000000)">
            <g id="Group-36" transform="translate(166.000000, 46.000000)">
                <g id="Group-26" transform="translate(0.000000, 11.000000)">
                    <g id="Group-30">
                        <g id="Privacy">
                            <g id="Group-7">
                                <path d="M12.4365571,24.8731141 C5.56806987,24.8731141 -1.11910481e-13,19.305112 -1.11910481e-13,12.4365571 C-1.11910481e-13,5.56800215 5.56806987,-8.8817842e-15 12.4365571,-8.8817842e-15 C15.0442564,-8.8817842e-15 17.46451,0.802587227 19.4637687,2.17422363 C22.7304095,4.41537606 24.8731141,8.1757272 24.8731141,12.4365571 C24.8731141,19.305112 19.3050443,24.8731141 12.4365571,24.8731141 Z" id="Fill-725" stroke="#25CDD6" stroke-width="2" fill="#101111"></path>
                                <g id="Group-10" transform="translate(5.915832, 6.484737)" stroke="#00E9FF">
                                    <path d="M12.9721389,5.72333279 C11.5655416,6.30520903 9.15677794,6.65259174 6.52866679,6.65259174 C3.90425119,6.65259174 1.49551667,6.30522358 0.085281936,5.72337644 C0.0295720845,5.70038831 0.00304843351,5.63658896 0.0260365676,5.58087911 C0.0490247017,5.52516926 0.112853148,5.49866016 0.168519351,5.52163374 C1.55371448,6.09315076 3.93134227,6.43434996 6.52866679,6.43434996 C9.12961412,6.43434996 11.5071983,6.09316531 12.8887124,5.52166284 C12.9443931,5.49861651 13.008207,5.52509651 13.0312534,5.58077726 C13.0542851,5.63647257 13.0278197,5.70030101 12.9721389,5.72333279 M2.33769715,5.93974134 L3.52202254,0.119960555 C3.53561172,0.0532222186 3.60638026,0.0151463028 3.66949578,0.0404041514 L6.5388514,1.18815222 L9.40822157,0.0404041514 C9.47148259,0.0151026545 9.54235297,0.0534113615 9.55575301,0.120309742 L10.7197092,5.94009053 C10.7315233,5.9991904 10.6931855,6.05667529 10.6341002,6.06850399 C10.5750003,6.08037635 10.5175154,6.04198034 10.5057013,5.98289502 L9.36746856,0.291745934 L6.57937163,1.40699053 C6.55335721,1.41740793 6.52433105,1.41739338 6.49831663,1.40699053 L3.70982686,0.29158589 L2.55155954,5.98325875 C2.53957079,6.04215494 2.48210046,6.08047819 2.42286964,6.06843125 C2.36381341,6.0564134 2.3256793,5.99879757 2.33769715,5.93974134 M9.43855718,11.6721527 C8.53602557,11.6721527 7.80174383,10.9378709 7.80174383,10.0353393 C7.80174383,9.13280772 8.53602557,8.39852598 9.43855718,8.39852598 C10.3410888,8.39852598 11.0753705,9.13280772 11.0753705,10.0353393 C11.0753705,10.9378709 10.3410888,11.6721527 9.43855718,11.6721527 M3.61877639,11.6721527 C2.71623024,11.6721527 1.98196304,10.9378709 1.98196304,10.0353393 C1.98196304,9.13280772 2.71623024,8.39852598 3.61877639,8.39852598 C4.52132255,8.39852598 5.25558974,9.13280772 5.25558974,10.0353393 C5.25558974,10.9378709 4.52132255,11.6721527 3.61877639,11.6721527 M9.43855718,8.1802842 C8.50641744,8.1802842 7.73277943,8.87139772 7.60282373,9.76810954 C6.98595606,9.24192861 6.07110107,9.24226325 5.45465534,9.76920075 C5.32517977,8.87196515 4.55129442,8.1802842 3.61877639,8.1802842 C2.59589172,8.1802842 1.76372126,9.01245465 1.76372126,10.0353393 C1.76372126,11.058224 2.59589172,11.8903945 3.61877639,11.8903945 C4.64103544,11.8903945 5.47279851,11.0592279 5.47380242,10.0372162 C5.48814818,10.0319202 5.50163552,10.023627 5.51315869,10.0121039 C5.78457871,9.74068382 6.14547787,9.5912173 6.52939426,9.5912173 C6.9132961,9.5912173 7.2742098,9.74068382 7.54561528,10.0121039 C7.55674561,10.0232342 7.56972372,10.0313964 7.5835166,10.036707 C7.58425862,11.058966 8.41612354,11.8903945 9.43855718,11.8903945 C10.4614419,11.8903945 11.2936123,11.058224 11.2936123,10.0353393 C11.2936123,9.01245465 10.4614419,8.1802842 9.43855718,8.1802842" id="Fill-8"></path>
                                </g>
                            </g>
                        </g>
                    </g>
                </g>
            </g>
        </g>
    </g>
</svg>