<?xml version="1.0" encoding="UTF-8"?>
<svg width="98px" height="18px" viewBox="0 0 98 18" version="1.1" xmlns="http://www.w3.org/2000/svg" xmlns:xlink="http://www.w3.org/1999/xlink">
    <!-- Generator: Sketch 55.2 (78181) - https://sketchapp.com -->
    <title>Incognito</title>
    <desc>Created with Sketch.</desc>
    <g id="Page-1" stroke="none" stroke-width="1" fill="none" fill-rule="evenodd">
        <g id="Home-Copy-8" transform="translate(-831.000000, -57.000000)" fill="#000000" fill-rule="nonzero">
            <path d="M831.296,58.4 L839.72,58.4 L839.72,60.668 L836.696,60.668 L836.696,68.732 L839.72,68.732 L839.72,71 L831.296,71 L831.296,68.732 L834.32,68.732 L834.32,60.668 L831.296,60.668 L831.296,58.4 Z M844.688,71 L842.42,71 L842.42,62.072 L844.688,62.072 L844.688,63.404 L845.012,63.404 C845.216001,62.8999975 845.545998,62.5100014 846.002,62.234 C846.458002,61.9579986 846.991997,61.82 847.604,61.82 C848.036002,61.82 848.440998,61.8889993 848.819,62.027 C849.197002,62.1650007 849.529999,62.3779986 849.818,62.666 C850.106001,62.9540014 850.330999,63.32 850.493,63.764 C850.655001,64.2080022 850.736,64.7359969 850.736,65.348 L850.736,71 L848.468,71 L848.468,65.924 C848.468,65.2879968 848.315002,64.7870018 848.009,64.421 C847.702998,64.0549982 847.262003,63.872 846.686,63.872 C846.013997,63.872 845.513002,64.0969977 845.183,64.547 C844.852998,64.9970023 844.688,65.5999962 844.688,66.356 L844.688,71 Z M862.148,67.724 C861.943999,68.7800053 861.461004,69.6319968 860.699,70.28 C859.936996,70.9280032 858.920006,71.252 857.648,71.252 C856.987997,71.252 856.373003,71.150001 855.803,70.946 C855.232997,70.741999 854.738002,70.4480019 854.318,70.064 C853.897998,69.6799981 853.568001,69.2060028 853.328,68.642 C853.087999,68.0779972 852.968,67.4360036 852.968,66.716 L852.968,66.5 C852.968,65.7799964 853.087999,65.1320029 853.328,64.556 C853.568001,63.9799971 853.900998,63.488002 854.327,63.08 C854.753002,62.671998 855.250997,62.3600011 855.821,62.144 C856.391003,61.9279989 856.999997,61.82 857.648,61.82 C858.896006,61.82 859.906996,62.1439968 860.681,62.792 C861.455004,63.4400032 861.943999,64.2919947 862.148,65.348 L859.916,65.924 C859.844,65.3959974 859.616002,64.9400019 859.232,64.556 C858.847998,64.1719981 858.308003,63.98 857.612,63.98 C857.287998,63.98 856.982001,64.0399994 856.694,64.16 C856.405999,64.2800006 856.154001,64.4509989 855.938,64.673 C855.721999,64.8950011 855.551001,65.1649984 855.425,65.483 C855.298999,65.8010016 855.236,66.157998 855.236,66.554 L855.236,66.662 C855.236,67.058002 855.298999,67.4089985 855.425,67.715 C855.551001,68.0210015 855.721999,68.275999 855.938,68.48 C856.154001,68.684001 856.405999,68.8369995 856.694,68.939 C856.982001,69.0410005 857.287998,69.092 857.612,69.092 C858.308003,69.092 858.838998,68.9180017 859.205,68.57 C859.571002,68.2219983 859.807999,67.7540029 859.916,67.166 L862.148,67.724 Z M873.2,66.644 C873.2,67.3880037 873.074001,68.0449972 872.822,68.615 C872.569999,69.1850029 872.228002,69.6649981 871.796,70.055 C871.363998,70.445002 870.869003,70.741999 870.311,70.946 C869.752997,71.150001 869.168003,71.252 868.556,71.252 C867.943997,71.252 867.359003,71.150001 866.801,70.946 C866.242997,70.741999 865.748002,70.445002 865.316,70.055 C864.883998,69.6649981 864.542001,69.1850029 864.29,68.615 C864.037999,68.0449972 863.912,67.3880037 863.912,66.644 L863.912,66.428 C863.912,65.6959963 864.037999,65.0450029 864.29,64.475 C864.542001,63.9049971 864.883998,63.422002 865.316,63.026 C865.748002,62.629998 866.242997,62.330001 866.801,62.126 C867.359003,61.921999 867.943997,61.82 868.556,61.82 C869.168003,61.82 869.752997,61.921999 870.311,62.126 C870.869003,62.330001 871.363998,62.629998 871.796,63.026 C872.228002,63.422002 872.569999,63.9049971 872.822,64.475 C873.074001,65.0450029 873.2,65.6959963 873.2,66.428 L873.2,66.644 Z M868.556,69.092 C868.880002,69.092 869.185999,69.0380005 869.474,68.93 C869.762001,68.8219995 870.013999,68.666001 870.23,68.462 C870.446001,68.257999 870.616999,68.0090015 870.743,67.715 C870.869001,67.4209985 870.932,67.0880019 870.932,66.716 L870.932,66.356 C870.932,65.9839981 870.869001,65.6510015 870.743,65.357 C870.616999,65.0629985 870.446001,64.814001 870.23,64.61 C870.013999,64.405999 869.762001,64.2500005 869.474,64.142 C869.185999,64.0339995 868.880002,63.98 868.556,63.98 C868.231998,63.98 867.926001,64.0339995 867.638,64.142 C867.349999,64.2500005 867.098001,64.405999 866.882,64.61 C866.665999,64.814001 866.495001,65.0629985 866.369,65.357 C866.242999,65.6510015 866.18,65.9839981 866.18,66.356 L866.18,66.716 C866.18,67.0880019 866.242999,67.4209985 866.369,67.715 C866.495001,68.0090015 866.665999,68.257999 866.882,68.462 C867.098001,68.666001 867.349999,68.8219995 867.638,68.93 C867.926001,69.0380005 868.231998,69.092 868.556,69.092 Z M881.84,69.704 L881.516,69.704 C881.42,69.908001 881.303001,70.1029991 881.165,70.289 C881.026999,70.4750009 880.847001,70.6399993 880.625,70.784 C880.402999,70.9280007 880.139002,71.0419996 879.833,71.126 C879.526998,71.2100004 879.158002,71.252 878.726,71.252 C878.173997,71.252 877.661002,71.153001 877.187,70.955 C876.712998,70.756999 876.299002,70.463002 875.945,70.073 C875.590998,69.682998 875.315001,69.2060028 875.117,68.642 C874.918999,68.0779972 874.82,67.4300037 874.82,66.698 L874.82,66.374 C874.82,65.6539964 874.924999,65.0120028 875.135,64.448 C875.345001,63.8839972 875.632998,63.4070019 875.999,63.017 C876.365002,62.626998 876.790998,62.330001 877.277,62.126 C877.763002,61.921999 878.275997,61.82 878.816,61.82 C879.536004,61.82 880.105998,61.9549987 880.526,62.225 C880.946002,62.4950013 881.275999,62.8759975 881.516,63.368 L881.84,63.368 L881.84,62.072 L884.108,62.072 L884.108,73.196 C884.108,73.604002 883.979001,73.9399987 883.721,74.204 C883.462999,74.4680013 883.130002,74.6 882.722,74.6 L876.71,74.6 L876.71,72.44 L881.354,72.44 C881.678002,72.44 881.84,72.2600018 881.84,71.9 L881.84,69.704 Z M879.464,69.092 C880.172004,69.092 880.744998,68.8670022 881.183,68.417 C881.621002,67.9669977 881.84,67.3760037 881.84,66.644 L881.84,66.428 C881.84,65.6959963 881.621002,65.1050022 881.183,64.655 C880.744998,64.2049978 880.172004,63.98 879.464,63.98 C878.755996,63.98 878.183002,64.1989978 877.745,64.637 C877.306998,65.0750022 877.088,65.6719962 877.088,66.428 L877.088,66.644 C877.088,67.4000038 877.306998,67.9969978 877.745,68.435 C878.183002,68.8730022 878.755996,69.092 879.464,69.092 Z M888.752,71 L886.484,71 L886.484,62.072 L888.752,62.072 L888.752,63.404 L889.076,63.404 C889.280001,62.8999975 889.609998,62.5100014 890.066,62.234 C890.522002,61.9579986 891.055997,61.82 891.668,61.82 C892.100002,61.82 892.504998,61.8889993 892.883,62.027 C893.261002,62.1650007 893.593999,62.3779986 893.882,62.666 C894.170001,62.9540014 894.394999,63.32 894.557,63.764 C894.719001,64.2080022 894.8,64.7359969 894.8,65.348 L894.8,71 L892.532,71 L892.532,65.924 C892.532,65.2879968 892.379002,64.7870018 892.073,64.421 C891.766998,64.0549982 891.326003,63.872 890.75,63.872 C890.077997,63.872 889.577002,64.0969977 889.247,64.547 C888.916998,64.9970023 888.752,65.5999962 888.752,66.356 L888.752,71 Z M897.662,68.84 L900.686,68.84 L900.686,64.232 L897.878,64.232 L897.878,62.072 L902.954,62.072 L902.954,68.84 L905.546,68.84 L905.546,71 L897.662,71 L897.662,68.84 Z M903.512,59.426 C903.512,59.6660012 903.467,59.890999 903.377,60.101 C903.287,60.3110011 903.164001,60.4909993 903.008,60.641 C902.851999,60.7910007 902.669001,60.9109995 902.459,61.001 C902.248999,61.0910004 902.030001,61.136 901.802,61.136 C901.561999,61.136 901.340001,61.0910004 901.136,61.001 C900.931999,60.9109995 900.752001,60.7910007 900.596,60.641 C900.439999,60.4909993 900.317,60.3110011 900.227,60.101 C900.137,59.890999 900.092,59.6660012 900.092,59.426 C900.092,59.1859988 900.137,58.9610011 900.227,58.751 C900.317,58.540999 900.439999,58.3610008 900.596,58.211 C900.752001,58.0609992 900.931999,57.9410004 901.136,57.851 C901.340001,57.7609996 901.561999,57.716 901.802,57.716 C902.030001,57.716 902.248999,57.7609996 902.459,57.851 C902.669001,57.9410004 902.851999,58.0609992 903.008,58.211 C903.164001,58.3610008 903.287,58.540999 903.377,58.751 C903.467,58.9610011 903.512,59.1859988 903.512,59.426 Z M908.264,62.072 L910.91,62.072 L910.91,58.4 L913.178,58.4 L913.178,62.072 L916.4,62.072 L916.4,64.232 L913.178,64.232 L913.178,68.3 C913.178,68.6600018 913.339998,68.84 913.664,68.84 L916.076,68.84 L916.076,71 L912.296,71 C911.887998,71 911.555001,70.8680013 911.297,70.604 C911.038999,70.3399987 910.91,70.004002 910.91,69.596 L910.91,64.232 L908.264,64.232 L908.264,62.072 Z M928.28,66.644 C928.28,67.3880037 928.154001,68.0449972 927.902,68.615 C927.649999,69.1850029 927.308002,69.6649981 926.876,70.055 C926.443998,70.445002 925.949003,70.741999 925.391,70.946 C924.832997,71.150001 924.248003,71.252 923.636,71.252 C923.023997,71.252 922.439003,71.150001 921.881,70.946 C921.322997,70.741999 920.828002,70.445002 920.396,70.055 C919.963998,69.6649981 919.622001,69.1850029 919.37,68.615 C919.117999,68.0449972 918.992,67.3880037 918.992,66.644 L918.992,66.428 C918.992,65.6959963 919.117999,65.0450029 919.37,64.475 C919.622001,63.9049971 919.963998,63.422002 920.396,63.026 C920.828002,62.629998 921.322997,62.330001 921.881,62.126 C922.439003,61.921999 923.023997,61.82 923.636,61.82 C924.248003,61.82 924.832997,61.921999 925.391,62.126 C925.949003,62.330001 926.443998,62.629998 926.876,63.026 C927.308002,63.422002 927.649999,63.9049971 927.902,64.475 C928.154001,65.0450029 928.28,65.6959963 928.28,66.428 L928.28,66.644 Z M923.636,69.092 C923.960002,69.092 924.265999,69.0380005 924.554,68.93 C924.842001,68.8219995 925.093999,68.666001 925.31,68.462 C925.526001,68.257999 925.696999,68.0090015 925.823,67.715 C925.949001,67.4209985 926.012,67.0880019 926.012,66.716 L926.012,66.356 C926.012,65.9839981 925.949001,65.6510015 925.823,65.357 C925.696999,65.0629985 925.526001,64.814001 925.31,64.61 C925.093999,64.405999 924.842001,64.2500005 924.554,64.142 C924.265999,64.0339995 923.960002,63.98 923.636,63.98 C923.311998,63.98 923.006001,64.0339995 922.718,64.142 C922.429999,64.2500005 922.178001,64.405999 921.962,64.61 C921.745999,64.814001 921.575001,65.0629985 921.449,65.357 C921.322999,65.6510015 921.26,65.9839981 921.26,66.356 L921.26,66.716 C921.26,67.0880019 921.322999,67.4209985 921.449,67.715 C921.575001,68.0090015 921.745999,68.257999 921.962,68.462 C922.178001,68.666001 922.429999,68.8219995 922.718,68.93 C923.006001,69.0380005 923.311998,69.092 923.636,69.092 Z" id="Incognito"></path>
        </g>
    </g>
</svg>