<?xml version="1.0" encoding="UTF-8"?>
<svg width="44px" height="22px" viewBox="0 0 44 22" version="1.1" xmlns="http://www.w3.org/2000/svg" xmlns:xlink="http://www.w3.org/1999/xlink">
    <!-- Generator: Sketch 55.2 (78181) - https://sketchapp.com -->
    <title>TheMiner</title>
    <desc>Created with Sketch.</desc>
    <g id="Page-1" stroke="none" stroke-width="1" fill="none" fill-rule="evenodd">
        <path d="M0,0.84 L0,0 L6.012,0 L6.012,0.84 L3.528,0.84 L3.528,8.4 L2.484,8.4 L2.484,0.84 L0,0.84 Z M6.873,8.4 L6.873,0 L7.881,0 L7.881,3.516 C8.229,2.976 8.745,2.592 9.609,2.592 C10.701,2.592 11.625,3.228 11.625,4.476 L11.625,8.4 L10.617,8.4 L10.617,4.632 C10.617,3.768 9.993,3.42 9.405,3.42 C8.601,3.42 7.881,4.128 7.881,5.316 L7.881,8.4 L6.873,8.4 Z M16.818,6.744 L17.706,7.104 C17.274,7.968 16.566,8.544 15.378,8.544 C13.674,8.544 12.678,7.284 12.678,5.556 C12.678,3.852 13.698,2.592 15.342,2.592 C17.07,2.592 17.898,3.936 17.898,5.412 L17.898,5.748 L13.71,5.748 C13.746,6.816 14.25,7.764 15.39,7.764 C16.17,7.764 16.53,7.404 16.818,6.744 Z M15.318,3.372 C14.406,3.372 13.842,4.068 13.746,4.992 L16.866,4.992 C16.818,3.984 16.194,3.372 15.318,3.372 Z M7.74,21.4 L5.116,21.4 C4.924,20.104 4.396,15.48 4.204,13.656 L4.156,13.656 L2.796,21.4 L0.076,21.4 L2.044,10.2 L6.172,10.2 L6.556,13.752 C6.732,15.592 6.956,17.544 7.004,18.056 C7.228,17.544 8.06,15.592 8.908,13.752 L10.508,10.2 L14.764,10.2 L12.796,21.4 L10.076,21.4 L11.436,13.656 L11.388,13.656 C10.556,15.432 8.38,20.12 7.74,21.4 Z M18.424,13.752 L17.08,21.4 L14.248,21.4 L15.592,13.752 L18.424,13.752 Z M15.768,11.528 C15.768,10.616 16.456,9.96 17.368,9.96 C18.312,9.96 18.984,10.616 18.984,11.528 C18.984,12.44 18.312,13.096 17.368,13.096 C16.456,13.096 15.768,12.44 15.768,11.528 Z M19.764,13.752 L22.516,13.752 L22.308,14.952 C22.692,14.312 23.476,13.512 24.82,13.512 C26.404,13.512 27.46,14.44 27.108,16.424 L26.244,21.4 L23.412,21.4 L24.148,17.192 C24.34,16.12 24.02,15.816 23.364,15.816 C22.788,15.816 22.164,16.264 21.924,17.592 L21.252,21.4 L18.42,21.4 L19.764,13.752 Z M32.768,18.968 L35.136,19.816 C34.432,20.984 33.104,21.64 31.52,21.64 C29.504,21.64 27.696,20.584 27.696,18.136 C27.696,15.656 29.424,13.512 32.128,13.512 C34.96,13.512 36.16,15.528 35.696,17.736 C35.664,17.912 35.632,18.056 35.6,18.152 L35.552,18.328 L30.448,18.328 C30.368,18.888 30.64,19.608 31.584,19.608 C32.112,19.608 32.512,19.368 32.768,18.968 Z M32.096,15.448 C31.328,15.448 30.88,15.944 30.688,16.792 L33.072,16.792 C33.184,15.944 32.88,15.448 32.096,15.448 Z M43.084,13.768 L42.188,16.248 C41.948,16.072 41.548,16.04 41.34,16.04 C40.668,16.04 39.5,16.472 39.212,18.296 L38.668,21.4 L35.836,21.4 L37.18,13.752 L39.836,13.752 L39.612,15.08 C40.204,13.976 40.956,13.512 42.044,13.512 C42.412,13.512 42.828,13.592 43.084,13.768 Z" id="TheMiner" fill="#000000" fill-rule="nonzero"></path>
    </g>
</svg>