<?xml version="1.0" encoding="UTF-8"?>
<svg width="129px" height="23px" viewBox="0 0 129 23" version="1.1" xmlns="http://www.w3.org/2000/svg" xmlns:xlink="http://www.w3.org/1999/xlink">
    <!-- Generator: Sketch 55 (78076) - https://sketchapp.com -->
    <title>Incognito</title>
    <desc>Created with Sketch.</desc>
    <g id="Page-1" stroke="none" stroke-width="1" fill="none" fill-rule="evenodd">
        <g id="Home-Copy-6" transform="translate(-92.000000, -42.000000)" fill="#FFFFFF" fill-rule="nonzero">
            <path d="M92,42.9317697 L103.2049,42.9317697 L103.2049,46.021322 L99.1826281,46.021322 L99.1826281,57.0063966 L103.2049,57.0063966 L103.2049,60.0959488 L92,60.0959488 L92,57.0063966 L96.0222717,57.0063966 L96.0222717,46.021322 L92,46.021322 L92,42.9317697 Z M109.812918,60.0959488 L106.796214,60.0959488 L106.796214,47.9339019 L109.812918,47.9339019 L109.812918,49.7484009 L110.243875,49.7484009 C110.51522,49.0618303 110.954154,48.5305634 111.56069,48.1545842 C112.167226,47.7786051 112.877501,47.5906183 113.691537,47.5906183 C114.26615,47.5906183 114.804842,47.6846117 115.307628,47.8726013 C115.810415,48.0605908 116.253339,48.3507443 116.636414,48.7430704 C117.01949,49.1353964 117.318763,49.633973 117.534243,50.238806 C117.749723,50.843642 117.857461,51.5628956 117.857461,52.3965885 L117.857461,60.0959488 L114.840757,60.0959488 L114.840757,53.1812367 C114.840757,52.31485 114.637251,51.6323763 114.230234,51.1337953 C113.823216,50.6352143 113.236641,50.3859275 112.47049,50.3859275 C111.576647,50.3859275 110.910266,50.6924276 110.471325,51.3054371 C110.032385,51.9184466 109.812918,52.7398669 109.812918,53.7697228 L109.812918,60.0959488 Z M133.036748,55.6332623 C132.765403,57.0717911 132.122963,58.232405 131.10941,59.1151386 C130.095856,59.9978722 128.743141,60.4392324 127.051225,60.4392324 C126.173344,60.4392324 125.35533,60.3002857 124.59716,60.0223881 C123.83899,59.7444904 123.180589,59.3439969 122.621938,58.8208955 C122.063286,58.2977941 121.624352,57.6521005 121.305122,56.8837953 C120.985893,56.1154901 120.826281,55.2409431 120.826281,54.2601279 L120.826281,53.9658849 C120.826281,52.9850697 120.985893,52.1023493 121.305122,51.3176972 C121.624352,50.5330451 122.067276,49.8628315 122.633909,49.3070362 C123.200541,48.751241 123.862932,48.3262275 124.621102,48.0319829 C125.379273,47.7377384 126.189305,47.5906183 127.051225,47.5906183 C128.711218,47.5906183 130.055953,48.0319785 131.085468,48.9147122 C132.114983,49.7974458 132.765403,50.9580596 133.036748,52.3965885 L130.067929,53.1812367 C129.97216,52.4619722 129.668896,51.8407986 129.158129,51.3176972 C128.647362,50.7945958 127.929106,50.533049 127.003341,50.533049 C126.572381,50.533049 126.165369,50.6147824 125.782294,50.7782516 C125.399219,50.9417208 125.064033,51.1746609 124.776726,51.4770789 C124.489419,51.7794969 124.261972,52.1472971 124.094376,52.5804904 C123.926781,53.0136838 123.842984,53.4999973 123.842984,54.0394456 L123.842984,54.1865672 C123.842984,54.7260155 123.926781,55.2041557 124.094376,55.6210021 C124.261972,56.0378486 124.489419,56.3852154 124.776726,56.663113 C125.064033,56.9410106 125.399219,57.1494307 125.782294,57.2883795 C126.165369,57.4273283 126.572381,57.4968017 127.003341,57.4968017 C127.929106,57.4968017 128.635391,57.2597749 129.122216,56.7857143 C129.609041,56.3116536 129.924275,55.6741334 130.067929,54.8731343 L133.036748,55.6332623 Z M147.737194,54.1620469 C147.737194,55.1755559 147.569601,56.0705363 147.23441,56.8470149 C146.899219,57.6234936 146.444324,58.2773605 145.86971,58.8086354 C145.295097,59.3399076 144.636696,59.7444904 143.894488,60.0223881 C143.152279,60.3002857 142.374169,60.4392324 141.560134,60.4392324 C140.746098,60.4392324 139.967988,60.3002857 139.22578,60.0223881 C138.483571,59.7444904 137.82517,59.3399076 137.250557,58.8086354 C136.675944,58.2773605 136.221048,57.6234936 135.885857,56.8470149 C135.550666,56.0705363 135.383073,55.1755559 135.383073,54.1620469 L135.383073,53.8678038 C135.383073,52.8706418 135.550666,51.9838347 135.885857,51.2073561 C136.221048,50.4308774 136.675944,49.7729238 137.250557,49.2334755 C137.82517,48.6940272 138.483571,48.2853603 139.22578,48.0074627 C139.967988,47.7295651 140.746098,47.5906183 141.560134,47.5906183 C142.374169,47.5906183 143.152279,47.7295651 143.894488,48.0074627 C144.636696,48.2853603 145.295097,48.6940272 145.86971,49.2334755 C146.444324,49.7729238 146.899219,50.4308774 147.23441,51.2073561 C147.569601,51.9838347 147.737194,52.8706418 147.737194,53.8678038 L147.737194,54.1620469 Z M141.560134,57.4968017 C141.991093,57.4968017 142.398105,57.4232417 142.78118,57.2761194 C143.164256,57.1289971 143.499442,56.9164904 143.786748,56.6385928 C144.074055,56.3606951 144.301503,56.0215016 144.469098,55.6210021 C144.636693,55.2205026 144.72049,54.7668824 144.72049,54.2601279 L144.72049,53.7697228 C144.72049,53.2629683 144.636693,52.8093481 144.469098,52.4088486 C144.301503,52.0083491 144.074055,51.6691556 143.786748,51.391258 C143.499442,51.1133604 143.164256,50.9008536 142.78118,50.7537313 C142.398105,50.6066091 141.991093,50.533049 141.560134,50.533049 C141.129174,50.533049 140.722162,50.6066091 140.339087,50.7537313 C139.956011,50.9008536 139.620825,51.1133604 139.333519,51.391258 C139.046212,51.6691556 138.818765,52.0083491 138.651169,52.4088486 C138.483574,52.8093481 138.399777,53.2629683 138.399777,53.7697228 L138.399777,54.2601279 C138.399777,54.7668824 138.483574,55.2205026 138.651169,55.6210021 C138.818765,56.0215016 139.046212,56.3606951 139.333519,56.6385928 C139.620825,56.9164904 139.956011,57.1289971 140.339087,57.2761194 C140.722162,57.4232417 141.129174,57.4968017 141.560134,57.4968017 Z M159.229399,58.3304904 L158.798441,58.3304904 C158.670749,58.608388 158.515127,58.8740215 158.33157,59.1273987 C158.148013,59.380776 157.908595,59.6055427 157.613307,59.8017058 C157.31802,59.9978688 156.966873,60.1531622 156.559855,60.2675906 C156.152838,60.3820191 155.66203,60.4392324 155.087416,60.4392324 C154.353189,60.4392324 153.670846,60.3043724 153.040367,60.0346482 C152.409889,59.764924 151.859227,59.3644305 151.388363,58.8331557 C150.9175,58.3018808 150.550391,57.6521005 150.287027,56.8837953 C150.023662,56.1154901 149.891982,55.2327697 149.891982,54.2356077 L149.891982,53.7942431 C149.891982,52.8134279 150.031643,51.9388809 150.310969,51.1705757 C150.590295,50.4022705 150.973364,49.7524902 151.460189,49.2212154 C151.947014,48.6899405 152.513638,48.2853603 153.160078,48.0074627 C153.806518,47.7295651 154.488861,47.5906183 155.207127,47.5906183 C156.164815,47.5906183 156.922974,47.7745184 157.481626,48.1423241 C158.040277,48.5101298 158.479211,49.0291367 158.798441,49.6993603 L159.229399,49.6993603 L159.229399,47.9339019 L162.246102,47.9339019 L162.246102,63.08742 C162.246102,63.6432153 162.074519,64.1009222 161.731347,64.4605544 C161.388176,64.8201866 160.945251,65 160.402561,65 L152.405902,65 L152.405902,62.0575693 L158.582962,62.0575693 C159.013922,62.0575693 159.229399,61.8123692 159.229399,61.3219616 L159.229399,58.3304904 Z M156.069042,57.4968017 C157.010769,57.4968017 157.772918,57.1903016 158.355512,56.5772921 C158.938106,55.9642826 159.229399,55.159209 159.229399,54.1620469 L159.229399,53.8678038 C159.229399,52.8706418 158.938106,52.065565 158.355512,51.4525586 C157.772918,50.8395492 157.010769,50.533049 156.069042,50.533049 C155.127315,50.533049 154.365166,50.8313758 153.782572,51.4280384 C153.199979,52.0247009 152.908686,52.8379479 152.908686,53.8678038 L152.908686,54.1620469 C152.908686,55.1919028 153.199979,56.0051498 153.782572,56.6018124 C154.365166,57.1984749 155.127315,57.4968017 156.069042,57.4968017 Z M168.423163,60.0959488 L165.406459,60.0959488 L165.406459,47.9339019 L168.423163,47.9339019 L168.423163,49.7484009 L168.85412,49.7484009 C169.125465,49.0618303 169.564399,48.5305634 170.170935,48.1545842 C170.777471,47.7786051 171.487746,47.5906183 172.301782,47.5906183 C172.876395,47.5906183 173.415087,47.6846117 173.917873,47.8726013 C174.42066,48.0605908 174.863584,48.3507443 175.246659,48.7430704 C175.629735,49.1353964 175.929008,49.633973 176.144488,50.238806 C176.359968,50.843642 176.467706,51.5628956 176.467706,52.3965885 L176.467706,60.0959488 L173.451002,60.0959488 L173.451002,53.1812367 C173.451002,52.31485 173.247496,51.6323763 172.840479,51.1337953 C172.433461,50.6352143 171.846886,50.3859275 171.080735,50.3859275 C170.186892,50.3859275 169.520511,50.6924276 169.08157,51.3054371 C168.64263,51.9184466 168.423163,52.7398669 168.423163,53.7697228 L168.423163,60.0959488 Z M180.274499,57.1535181 L184.296771,57.1535181 L184.296771,50.8763326 L180.561804,50.8763326 L180.561804,47.9339019 L187.313474,47.9339019 L187.313474,57.1535181 L190.761136,57.1535181 L190.761136,60.0959488 L180.274499,60.0959488 L180.274499,57.1535181 Z M188.055679,44.3294243 C188.055679,44.6563627 187.995824,44.9628628 187.876114,45.2489339 C187.756403,45.535005 187.5928,45.7802051 187.385301,45.9845416 C187.177801,46.1888781 186.934393,46.3523448 186.655067,46.4749467 C186.375741,46.597548 186.084448,46.6588486 185.78118,46.6588486 C185.461951,46.6588486 185.166668,46.597548 184.895323,46.4749467 C184.623978,46.3523448 184.384559,46.1888781 184.17706,45.9845416 C183.969561,45.7802051 183.805958,45.535005 183.686247,45.2489339 C183.566536,44.9628628 183.506682,44.6563627 183.506682,44.3294243 C183.506682,44.0024859 183.566536,43.6959858 183.686247,43.4099147 C183.805958,43.1238436 183.969561,42.8786435 184.17706,42.674307 C184.384559,42.4699705 184.623978,42.3065038 184.895323,42.1839019 C185.166668,42.0613 185.461951,42 185.78118,42 C186.084448,42 186.375741,42.0613 186.655067,42.1839019 C186.934393,42.3065038 187.177801,42.4699705 187.385301,42.674307 C187.5928,42.8786435 187.756403,43.1238436 187.876114,43.4099147 C187.995824,43.6959858 188.055679,44.0024859 188.055679,44.3294243 Z M194.376392,47.9339019 L197.89588,47.9339019 L197.89588,42.9317697 L200.912584,42.9317697 L200.912584,47.9339019 L205.198218,47.9339019 L205.198218,50.8763326 L200.912584,50.8763326 L200.912584,56.4179104 C200.912584,56.908318 201.12806,57.1535181 201.55902,57.1535181 L204.767261,57.1535181 L204.767261,60.0959488 L199.739421,60.0959488 C199.196731,60.0959488 198.753806,59.9161354 198.410635,59.5565032 C198.067463,59.196871 197.89588,58.7391641 197.89588,58.1833689 L197.89588,50.8763326 L194.376392,50.8763326 L194.376392,47.9339019 Z M221,54.1620469 C221,55.1755559 220.832407,56.0705363 220.497216,56.8470149 C220.162025,57.6234936 219.70713,58.2773605 219.132517,58.8086354 C218.557904,59.3399076 217.899503,59.7444904 217.157294,60.0223881 C216.415085,60.3002857 215.636975,60.4392324 214.82294,60.4392324 C214.008905,60.4392324 213.230794,60.3002857 212.488586,60.0223881 C211.746377,59.7444904 211.087976,59.3399076 210.513363,58.8086354 C209.93875,58.2773605 209.483855,57.6234936 209.148664,56.8470149 C208.813473,56.0705363 208.64588,55.1755559 208.64588,54.1620469 L208.64588,53.8678038 C208.64588,52.8706418 208.813473,51.9838347 209.148664,51.2073561 C209.483855,50.4308774 209.93875,49.7729238 210.513363,49.2334755 C211.087976,48.6940272 211.746377,48.2853603 212.488586,48.0074627 C213.230794,47.7295651 214.008905,47.5906183 214.82294,47.5906183 C215.636975,47.5906183 216.415085,47.7295651 217.157294,48.0074627 C217.899503,48.2853603 218.557904,48.6940272 219.132517,49.2334755 C219.70713,49.7729238 220.162025,50.4308774 220.497216,51.2073561 C220.832407,51.9838347 221,52.8706418 221,53.8678038 L221,54.1620469 Z M214.82294,57.4968017 C215.2539,57.4968017 215.660911,57.4232417 216.043987,57.2761194 C216.427062,57.1289971 216.762248,56.9164904 217.049555,56.6385928 C217.336861,56.3606951 217.564309,56.0215016 217.731904,55.6210021 C217.8995,55.2205026 217.983296,54.7668824 217.983296,54.2601279 L217.983296,53.7697228 C217.983296,53.2629683 217.8995,52.8093481 217.731904,52.4088486 C217.564309,52.0083491 217.336861,51.6691556 217.049555,51.391258 C216.762248,51.1133604 216.427062,50.9008536 216.043987,50.7537313 C215.660911,50.6066091 215.2539,50.533049 214.82294,50.533049 C214.39198,50.533049 213.984969,50.6066091 213.601893,50.7537313 C213.218818,50.9008536 212.883632,51.1133604 212.596325,51.391258 C212.309019,51.6691556 212.081571,52.0083491 211.913976,52.4088486 C211.74638,52.8093481 211.662584,53.2629683 211.662584,53.7697228 L211.662584,54.2601279 C211.662584,54.7668824 211.74638,55.2205026 211.913976,55.6210021 C212.081571,56.0215016 212.309019,56.3606951 212.596325,56.6385928 C212.883632,56.9164904 213.218818,57.1289971 213.601893,57.2761194 C213.984969,57.4232417 214.39198,57.4968017 214.82294,57.4968017 Z" id="Incognito"></path>
        </g>
    </g>
</svg>