<?xml version="1.0" encoding="UTF-8"?>
<svg width="131px" height="19px" viewBox="0 0 131 19" version="1.1" xmlns="http://www.w3.org/2000/svg" xmlns:xlink="http://www.w3.org/1999/xlink">
    <!-- Generator: Sketch 55.2 (78181) - https://sketchapp.com -->
    <title>TheMiner</title>
    <desc>Created with Sketch.</desc>
    <g id="Page-1" stroke="none" stroke-width="1" fill="none" fill-rule="evenodd">
        <g id="Artboard-Copy-19" transform="translate(-43.000000, -77.000000)" fill="#000000" fill-rule="nonzero">
            <path d="M43.7,78.2 L55.796,78.2 L55.796,81.224 L51.332,81.224 L51.332,95 L48.164,95 L48.164,81.224 L43.7,81.224 L43.7,78.2 Z M62.036,95 L59.012,95 L59.012,78.2 L62.036,78.2 L62.036,85.016 L62.468,85.016 C62.7720015,84.2959964 63.219997,83.740002 63.812,83.348 C64.404003,82.955998 65.1319957,82.76 65.996,82.76 C66.588003,82.76 67.1319975,82.855999 67.628,83.048 C68.1240025,83.240001 68.5559982,83.5279981 68.924,83.912 C69.2920018,84.2960019 69.579999,84.787997 69.788,85.388 C69.996001,85.988003 70.1,86.6959959 70.1,87.512 L70.1,95 L67.076,95 L67.076,88.232 C67.076,87.3839958 66.872002,86.7160024 66.464,86.228 C66.055998,85.7399976 65.4680038,85.496 64.7,85.496 C63.8039955,85.496 63.1360022,85.795997 62.696,86.396 C62.2559978,86.996003 62.036,87.799995 62.036,88.808 L62.036,95 Z M76.316,90.032 C76.3320001,90.3840018 76.4159992,90.7079985 76.568,91.004 C76.7200008,91.3000015 76.9279987,91.5559989 77.192,91.772 C77.4560013,91.9880011 77.7599983,92.1559994 78.104,92.276 C78.4480017,92.3960006 78.8119981,92.456 79.196,92.456 C79.9480038,92.456 80.523998,92.3240013 80.924,92.06 C81.324002,91.7959987 81.6119991,91.4800018 81.788,91.112 L84.38,92.552 C84.2359993,92.8560015 84.0360013,93.1719984 83.78,93.5 C83.5239987,93.8280016 83.192002,94.1279986 82.784,94.4 C82.375998,94.6720014 81.8800029,94.8959991 81.296,95.072 C80.7119971,95.2480009 80.0280039,95.336 79.244,95.336 C78.3479955,95.336 77.5320037,95.1920014 76.796,94.904 C76.0599963,94.6159986 75.4240027,94.2000027 74.888,93.656 C74.3519973,93.1119973 73.9360015,92.4480039 73.64,91.664 C73.3439985,90.8799961 73.196,89.992005 73.196,89 L73.196,88.856 C73.196,87.9439954 73.3519984,87.1120038 73.664,86.36 C73.9760016,85.6079962 74.4039973,84.9680026 74.948,84.44 C75.4920027,83.9119974 76.1279964,83.5000015 76.856,83.204 C77.5840036,82.9079985 78.3639958,82.76 79.196,82.76 C80.2200051,82.76 81.0999963,82.9399982 81.836,83.3 C82.5720037,83.6600018 83.1799976,84.1159972 83.66,84.668 C84.1400024,85.2200028 84.4919989,85.8279967 84.716,86.492 C84.9400011,87.1560033 85.052,87.7999969 85.052,88.424 L85.052,90.032 L76.316,90.032 Z M79.172,85.496 C78.4039962,85.496 77.7800024,85.691998 77.3,86.084 C76.8199976,86.476002 76.5080007,86.9279974 76.364,87.44 L81.98,87.44 C81.8839995,86.8799972 81.5840025,86.4160018 81.08,86.048 C80.5759975,85.6799982 79.9400038,85.496 79.172,85.496 Z M101.684,78.2 L107.252,78.2 L108.212,90.824 L108.212,93.272 L108.788,93.272 L108.788,90.824 L109.748,78.2 L115.316,78.2 L115.316,95 L112.436,95 L112.436,83.768 L112.724,79.928 L112.148,79.928 L110.9,95 L106.148,95 L104.852,79.928 L104.276,79.928 L104.564,83.768 L104.564,95 L101.684,95 L101.684,78.2 Z M117.932,92.12 L121.964,92.12 L121.964,85.976 L118.22,85.976 L118.22,83.096 L124.988,83.096 L124.988,92.12 L128.444,92.12 L128.444,95 L117.932,95 L117.932,92.12 Z M125.732,79.568 C125.732,79.8880016 125.672,80.1879986 125.552,80.468 C125.431999,80.7480014 125.268001,80.987999 125.06,81.188 C124.851999,81.388001 124.608001,81.5479994 124.328,81.668 C124.047999,81.788 123.756002,81.848 123.452,81.848 C123.131998,81.848 122.836001,81.788 122.564,81.668 C122.291999,81.5479994 122.052001,81.388001 121.844,81.188 C121.635999,80.987999 121.472001,80.7480014 121.352,80.468 C121.231999,80.1879986 121.172,79.8880016 121.172,79.568 C121.172,79.2479984 121.231999,78.9480014 121.352,78.668 C121.472001,78.3879986 121.635999,78.148001 121.844,77.948 C122.052001,77.747999 122.291999,77.5880006 122.564,77.468 C122.836001,77.3479994 123.131998,77.288 123.452,77.288 C123.756002,77.288 124.047999,77.3479994 124.328,77.468 C124.608001,77.5880006 124.851999,77.747999 125.06,77.948 C125.268001,78.148001 125.431999,78.3879986 125.552,78.668 C125.672,78.9480014 125.732,79.2479984 125.732,79.568 Z M135.428,95 L132.404,95 L132.404,83.096 L135.428,83.096 L135.428,84.872 L135.86,84.872 C136.132001,84.1999966 136.571997,83.6800018 137.18,83.312 C137.788003,82.9439982 138.499996,82.76 139.316,82.76 C139.892003,82.76 140.431997,82.8519991 140.936,83.036 C141.440003,83.2200009 141.883998,83.5039981 142.268,83.888 C142.652002,84.2720019 142.951999,84.76 143.168,85.352 C143.384001,85.944003 143.492,86.6479959 143.492,87.464 L143.492,95 L140.468,95 L140.468,88.232 C140.468,87.3839958 140.264002,86.7160024 139.856,86.228 C139.447998,85.7399976 138.860004,85.496 138.092,85.496 C137.195996,85.496 136.528002,85.795997 136.088,86.396 C135.647998,86.996003 135.428,87.799995 135.428,88.808 L135.428,95 Z M149.756,90.032 C149.772,90.3840018 149.855999,90.7079985 150.008,91.004 C150.160001,91.3000015 150.367999,91.5559989 150.632,91.772 C150.896001,91.9880011 151.199998,92.1559994 151.544,92.276 C151.888002,92.3960006 152.251998,92.456 152.636,92.456 C153.388004,92.456 153.963998,92.3240013 154.364,92.06 C154.764002,91.7959987 155.051999,91.4800018 155.228,91.112 L157.82,92.552 C157.675999,92.8560015 157.476001,93.1719984 157.22,93.5 C156.963999,93.8280016 156.632002,94.1279986 156.224,94.4 C155.815998,94.6720014 155.320003,94.8959991 154.736,95.072 C154.151997,95.2480009 153.468004,95.336 152.684,95.336 C151.787996,95.336 150.972004,95.1920014 150.236,94.904 C149.499996,94.6159986 148.864003,94.2000027 148.328,93.656 C147.791997,93.1119973 147.376001,92.4480039 147.08,91.664 C146.783999,90.8799961 146.636,89.992005 146.636,89 L146.636,88.856 C146.636,87.9439954 146.791998,87.1120038 147.104,86.36 C147.416002,85.6079962 147.843997,84.9680026 148.388,84.44 C148.932003,83.9119974 149.567996,83.5000015 150.296,83.204 C151.024004,82.9079985 151.803996,82.76 152.636,82.76 C153.660005,82.76 154.539996,82.9399982 155.276,83.3 C156.012004,83.6600018 156.619998,84.1159972 157.1,84.668 C157.580002,85.2200028 157.931999,85.8279967 158.156,86.492 C158.380001,87.1560033 158.492,87.7999969 158.492,88.424 L158.492,90.032 L149.756,90.032 Z M152.612,85.496 C151.843996,85.496 151.220002,85.691998 150.74,86.084 C150.259998,86.476002 149.948001,86.9279974 149.804,87.44 L155.42,87.44 C155.324,86.8799972 155.024003,86.4160018 154.52,86.048 C154.015997,85.6799982 153.380004,85.496 152.612,85.496 Z M161.204,83.096 L166.244,83.096 L166.244,84.824 L166.676,84.824 C166.900001,84.1679967 167.279997,83.6600018 167.816,83.3 C168.352003,82.9399982 168.995996,82.76 169.748,82.76 C170.932006,82.76 171.883996,83.1319963 172.604,83.876 C173.324004,84.6200037 173.684,85.7519924 173.684,87.272 L173.684,87.8 L170.564,88.088 L170.564,87.752 C170.564,87.0959967 170.396002,86.572002 170.06,86.18 C169.723998,85.787998 169.220003,85.592 168.548,85.592 C167.875997,85.592 167.348002,85.8239977 166.964,86.288 C166.579998,86.7520023 166.388,87.4159957 166.388,88.28 L166.388,92.12 L169.124,92.12 L169.124,95 L160.916,95 L160.916,92.12 L163.364,92.12 L163.364,85.976 L161.204,85.976 L161.204,83.096 Z" id="TheMiner"></path>
        </g>
    </g>
</svg>