<?xml version="1.0" encoding="UTF-8"?>
<svg width="105px" height="24px" viewBox="0 0 105 24" version="1.1" xmlns="http://www.w3.org/2000/svg" xmlns:xlink="http://www.w3.org/1999/xlink">
    <!-- Generator: Sketch 55.2 (78181) - https://sketchapp.com -->
    <title>Incognito</title>
    <desc>Created with Sketch.</desc>
    <g id="Page-1" stroke="none" stroke-width="1" fill="none" fill-rule="evenodd">
        <g id="Home-Copy-6" transform="translate(-831.000000, -53.000000)" fill="#000000" fill-rule="nonzero">
            <path d="M831.536,71 L831.536,54.2 L835.952,54.2 L835.952,71 L831.536,71 Z M838.856,59.528 L842.984,59.528 L842.984,61.304 C843.368,60.392 844.496,59.168 846.608,59.168 C848.816,59.168 850.592,60.512 850.592,63.2 L850.592,71 L846.344,71 L846.344,64.568 C846.344,63.056 845.744,62.624 844.856,62.624 C843.992,62.624 843.104,63.272 843.104,65.264 L843.104,71 L838.856,71 L838.856,59.528 Z M852.584,65.264 C852.584,61.232 855.152,59.168 858.704,59.168 C861.776,59.168 863.312,60.656 864.128,62.672 L860.336,63.992 C860.12,62.864 859.448,62.408 858.704,62.408 C857.408,62.408 856.904,63.68 856.904,65.264 C856.904,66.848 857.408,68.12 858.704,68.12 C859.448,68.12 859.976,67.664 860.288,66.728 L864.176,68.12 C863.216,69.848 861.704,71.36 858.704,71.36 C855.152,71.36 852.584,69.296 852.584,65.264 Z M871.28,71.36 C867.68,71.36 865.088,69.176 865.088,65.264 C865.088,61.352 867.68,59.168 871.28,59.168 C874.88,59.168 877.472,61.352 877.472,65.264 C877.472,69.176 874.88,71.36 871.28,71.36 Z M871.28,68.288 C872.696,68.288 873.224,66.992 873.224,65.264 C873.224,63.536 872.696,62.24 871.28,62.24 C869.864,62.24 869.336,63.536 869.336,65.264 C869.336,66.992 869.864,68.288 871.28,68.288 Z M880.712,66.296 C879.728,65.552 879.248,64.568 879.248,63.32 C879.248,60.872 881.456,59.168 884.696,59.168 C885.56,59.168 886.496,59.384 887.336,59.744 C887.912,59.168 888.632,58.928 889.496,58.928 C890.264,58.928 890.84,59.048 891.44,59.36 L890.672,61.616 C890.456,61.424 890.264,61.376 890.072,61.376 C889.904,61.376 889.76,61.424 889.64,61.544 C890,62 890.24,62.624 890.24,63.368 C890.24,65.864 888.008,67.472 884.816,67.472 C883.952,67.472 883.64,67.328 883.16,67.328 C882.752,67.328 882.56,67.496 882.56,67.856 C882.56,68.192 882.872,68.384 883.472,68.432 L886.952,68.744 C889.736,69.008 891.056,70.088 891.056,71.912 C891.056,74.624 888.584,76.136 884.48,76.136 C880.712,76.136 878.528,74.912 878.528,72.896 C878.528,71.864 879.08,71.192 880.424,70.784 C879.464,70.328 878.912,69.536 878.912,68.576 C878.912,67.544 879.632,66.656 880.712,66.296 Z M885.848,71.864 L882.632,71.576 C882.2,71.792 881.984,72.104 881.984,72.512 C881.984,73.304 882.848,73.688 884.576,73.688 C886.376,73.688 887.264,73.328 887.264,72.632 C887.264,72.08 886.904,71.96 885.848,71.864 Z M883.304,63.32 C883.304,64.4 883.808,65 884.744,65 C885.68,65 886.184,64.4 886.184,63.32 C886.184,62.24 885.68,61.64 884.744,61.64 C883.808,61.64 883.304,62.24 883.304,63.32 Z M892.856,59.528 L896.984,59.528 L896.984,61.304 C897.368,60.392 898.496,59.168 900.608,59.168 C902.816,59.168 904.592,60.512 904.592,63.2 L904.592,71 L900.344,71 L900.344,64.568 C900.344,63.056 899.744,62.624 898.856,62.624 C897.992,62.624 897.104,63.272 897.104,65.264 L897.104,71 L892.856,71 L892.856,59.528 Z M911.504,59.528 L911.504,71 L907.256,71 L907.256,59.528 L911.504,59.528 Z M906.968,56.192 C906.968,54.824 908,53.84 909.368,53.84 C910.784,53.84 911.792,54.824 911.792,56.192 C911.792,57.56 910.784,58.544 909.368,58.544 C908,58.544 906.968,57.56 906.968,56.192 Z M921.416,67.616 L922.352,70.856 C921.488,71.168 920.504,71.336 919.376,71.336 C916.832,71.336 915.032,70.328 915.032,67.04 L915.032,62.576 L913.208,62.576 L913.208,59.528 L915.032,59.528 L915.032,56.24 L919.232,54.344 L919.232,59.528 L921.608,59.528 L921.608,62.576 L919.232,62.576 L919.232,66.824 C919.232,67.712 919.664,67.952 920.264,67.952 C920.744,67.952 921.056,67.808 921.416,67.616 Z M929.672,71.36 C926.072,71.36 923.48,69.176 923.48,65.264 C923.48,61.352 926.072,59.168 929.672,59.168 C933.272,59.168 935.864,61.352 935.864,65.264 C935.864,69.176 933.272,71.36 929.672,71.36 Z M929.672,68.288 C931.088,68.288 931.616,66.992 931.616,65.264 C931.616,63.536 931.088,62.24 929.672,62.24 C928.256,62.24 927.728,63.536 927.728,65.264 C927.728,66.992 928.256,68.288 929.672,68.288 Z" id="Incognito"></path>
        </g>
    </g>
</svg>