<?xml version="1.0" encoding="UTF-8"?>
<svg width="70px" height="31px" viewBox="0 0 70 31" version="1.1" xmlns="http://www.w3.org/2000/svg" xmlns:xlink="http://www.w3.org/1999/xlink">
    <!-- Generator: Sketch 57.1 (83088) - https://sketch.com -->
    <title>Group 26</title>
    <desc>Created with Sketch.</desc>
    <g id="WEB" stroke="none" stroke-width="1" fill="none" fill-rule="evenodd">
        <g id="HOME-Copy-3" transform="translate(-100.000000, -32.000000)" fill-rule="nonzero">
            <g id="Group-26" transform="translate(100.000000, 32.000000)">
                <path d="M14,21.3975996 L18.8641425,21.3975996 L18.8641425,22.7159563 L17.1180401,22.7159563 L17.1180401,27.4034467 L18.8641425,27.4034467 L18.8641425,28.7218034 L14,28.7218034 L14,27.4034467 L15.7461024,27.4034467 L15.7461024,22.7159563 L14,22.7159563 L14,21.3975996 Z M21.7327394,28.7218034 L20.4231626,28.7218034 L20.4231626,23.5320819 L21.7327394,23.5320819 L21.7327394,24.3063548 L21.9198218,24.3063548 C22.037615,24.0133852 22.22816,23.7866859 22.4914625,23.6262502 C22.754765,23.4658145 23.0631014,23.3855978 23.4164811,23.3855978 C23.6659255,23.3855978 23.8997762,23.4257061 24.1180401,23.505924 C24.336304,23.5861419 24.5285812,23.7099545 24.6948775,23.8773657 C24.8611738,24.044777 24.9910908,24.2575268 25.0846325,24.5156178 C25.1781742,24.7737101 25.2249443,25.080626 25.2249443,25.4363748 L25.2249443,28.7218034 L23.9153675,28.7218034 L23.9153675,25.7711956 C23.9153675,25.4014958 23.8270239,25.1102744 23.6503341,24.8975227 C23.4736443,24.684771 23.2190069,24.5783967 22.8864143,24.5783967 C22.4983895,24.5783967 22.2091076,24.7091847 22.0185598,24.9707647 C21.8280119,25.2323447 21.7327394,25.5828567 21.7327394,26.0223111 L21.7327394,28.7218034 Z M31.8144024,26.8175104 C31.6966092,27.4313515 31.4177206,27.9266022 30.9777283,28.3032774 C30.537736,28.6799526 29.950511,28.8682874 29.2160356,28.8682874 C28.8349399,28.8682874 28.4798334,28.8089968 28.1507053,28.6904139 C27.8215772,28.571831 27.5357597,28.4009346 27.2932442,28.1777196 C27.0507288,27.9545047 26.8601838,27.6789779 26.7216036,27.3511309 C26.5830233,27.023284 26.5137342,26.6501021 26.5137342,26.2315741 L26.5137342,26.1060163 C26.5137342,25.6874883 26.5830233,25.3108187 26.7216036,24.9759963 C26.8601838,24.6411739 27.052461,24.355184 27.298441,24.1180182 C27.5444209,23.8808523 27.8319706,23.6994929 28.1610987,23.5739345 C28.4902268,23.448376 28.841869,23.3855978 29.2160356,23.3855978 C29.9366529,23.3855978 30.5204135,23.5739326 30.9673348,23.9506078 C31.4142561,24.327283 31.6966092,24.8225337 31.8144024,25.4363748 L30.5256125,25.7711956 C30.4840384,25.464275 30.3523891,25.1992113 30.1306607,24.9759963 C29.9089323,24.7527814 29.5971314,24.6411756 29.1952487,24.6411756 C29.0081654,24.6411756 28.8314782,24.6760524 28.6651819,24.745807 C28.4988856,24.8155617 28.3533785,24.9149606 28.2286563,25.0440068 C28.103934,25.1730529 28.0051971,25.3299986 27.9324425,25.5148484 C27.8596878,25.6996983 27.8233111,25.9072153 27.8233111,26.1374058 L27.8233111,26.2001846 C27.8233111,26.4303751 27.8596878,26.6344044 27.9324425,26.8122788 C28.0051971,26.9901532 28.103934,27.1383797 28.2286563,27.2569626 C28.3533785,27.3755455 28.4988856,27.4644814 28.6651819,27.5237729 C28.8314782,27.5830644 29.0081654,27.6127096 29.1952487,27.6127096 C29.5971314,27.6127096 29.9037356,27.5115669 30.1150705,27.3092784 C30.3264054,27.1069898 30.4632514,26.8349507 30.5256125,26.4931528 L31.8144024,26.8175104 Z M38.1959911,26.1897215 C38.1959911,26.6222004 38.1232376,27.0041015 37.9777283,27.3354362 C37.832219,27.6667709 37.6347451,27.9457854 37.3853007,28.1724881 C37.1358562,28.3991908 36.8500387,28.571831 36.5278396,28.6904139 C36.2056406,28.8089968 35.8678563,28.8682874 35.5144766,28.8682874 C35.161097,28.8682874 34.8233127,28.8089968 34.5011136,28.6904139 C34.1789145,28.571831 33.893097,28.3991908 33.6436526,28.1724881 C33.3942081,27.9457854 33.1967342,27.6667709 33.0512249,27.3354362 C32.9057157,27.0041015 32.8329621,26.6222004 32.8329621,26.1897215 L32.8329621,26.0641637 C32.8329621,25.6386602 32.9057157,25.2602468 33.0512249,24.9289121 C33.1967342,24.5975775 33.3942081,24.3168191 33.6436526,24.0866287 C33.893097,23.8564383 34.1789145,23.6820542 34.5011136,23.5634713 C34.8233127,23.4448884 35.161097,23.3855978 35.5144766,23.3855978 C35.8678563,23.3855978 36.2056406,23.4448884 36.5278396,23.5634713 C36.8500387,23.6820542 37.1358562,23.8564383 37.3853007,24.0866287 C37.6347451,24.3168191 37.832219,24.5975775 37.9777283,24.9289121 C38.1232376,25.2602468 38.1959911,25.6386602 38.1959911,26.0641637 L38.1959911,26.1897215 Z M35.5144766,27.6127096 C35.70156,27.6127096 35.8782471,27.5813205 36.0445434,27.5185413 C36.2108397,27.4557621 36.3563468,27.3650824 36.481069,27.2464995 C36.6057913,27.1279165 36.7045282,26.9831778 36.7772829,26.8122788 C36.8500375,26.6413799 36.8864143,26.4478136 36.8864143,26.2315741 L36.8864143,26.0223111 C36.8864143,25.8060716 36.8500375,25.6125053 36.7772829,25.4416064 C36.7045282,25.2707075 36.6057913,25.1259687 36.481069,25.0073858 C36.3563468,24.8888028 36.2108397,24.7981231 36.0445434,24.7353439 C35.8782471,24.6725647 35.70156,24.6411756 35.5144766,24.6411756 C35.3273933,24.6411756 35.1507061,24.6725647 34.9844098,24.7353439 C34.8181135,24.7981231 34.6726064,24.8888028 34.5478842,25.0073858 C34.423162,25.1259687 34.324425,25.2707075 34.2516704,25.4416064 C34.1789157,25.6125053 34.142539,25.8060716 34.142539,26.0223111 L34.142539,26.2315741 C34.142539,26.4478136 34.1789157,26.6413799 34.2516704,26.8122788 C34.324425,26.9831778 34.423162,27.1279165 34.5478842,27.2464995 C34.6726064,27.3650824 34.8181135,27.4557621 34.9844098,27.5185413 C35.1507061,27.5813205 35.3273933,27.6127096 35.5144766,27.6127096 Z M43.1848552,27.9684567 L42.9977728,27.9684567 C42.9423407,28.0870396 42.8747839,28.2003893 42.7951002,28.308509 C42.7154166,28.4166287 42.6114829,28.51254 42.4832962,28.5962456 C42.3551095,28.6799512 42.2026735,28.7462171 42.0259837,28.7950454 C41.8492938,28.8438737 41.6362299,28.8682874 41.3867854,28.8682874 C41.0680509,28.8682874 40.77184,28.8107407 40.498144,28.6956455 C40.224448,28.5805503 39.9854007,28.4096539 39.7809948,28.1829512 C39.5765889,27.9562485 39.417224,27.6789779 39.3028953,27.3511309 C39.1885666,27.023284 39.1314031,26.6466144 39.1314031,26.2211109 L39.1314031,26.0327743 C39.1314031,25.6142463 39.1920311,25.2410644 39.3132888,24.9132174 C39.4345465,24.5853705 39.6008403,24.3080998 39.8121752,24.0813971 C40.0235101,23.8546945 40.2694863,23.6820542 40.5501114,23.5634713 C40.8307364,23.4448884 41.1269472,23.3855978 41.4387528,23.3855978 C41.8544935,23.3855978 42.1836167,23.4640706 42.4261321,23.6210186 C42.6686476,23.7779666 42.8591926,23.9994344 42.9977728,24.2854285 L43.1848552,24.2854285 L43.1848552,23.5320819 L44.4944321,23.5320819 L44.4944321,29.9983074 C44.4944321,30.2354733 44.4199463,30.4307835 44.2709725,30.5842437 C44.1219988,30.737704 43.9297215,30.814433 43.6941351,30.814433 L40.2227171,30.814433 L40.2227171,29.5588552 L42.9042316,29.5588552 C43.091315,29.5588552 43.1848552,29.4542248 43.1848552,29.2449608 L43.1848552,27.9684567 Z M41.8129176,27.6127096 C42.2217293,27.6127096 42.5525847,27.4819216 42.8054937,27.2203416 C43.0584027,26.9587616 43.1848552,26.615225 43.1848552,26.1897215 L43.1848552,26.0641637 C43.1848552,25.6386602 43.0584027,25.2951236 42.8054937,25.0335436 C42.5525847,24.7719636 42.2217293,24.6411756 41.8129176,24.6411756 C41.4041059,24.6411756 41.0732505,24.7684759 40.8203415,25.0230805 C40.5674325,25.277685 40.44098,25.6247093 40.44098,26.0641637 L40.44098,26.1897215 C40.44098,26.6291759 40.5674325,26.9762002 40.8203415,27.2308047 C41.0732505,27.4854093 41.4041059,27.6127096 41.8129176,27.6127096 Z M47.1759465,28.7218034 L45.8663697,28.7218034 L45.8663697,23.5320819 L47.1759465,23.5320819 L47.1759465,24.3063548 L47.363029,24.3063548 C47.4808222,24.0133852 47.6713672,23.7866859 47.9346696,23.6262502 C48.1979721,23.4658145 48.5063086,23.3855978 48.8596882,23.3855978 C49.1091327,23.3855978 49.3429833,23.4257061 49.5612472,23.505924 C49.7795111,23.5861419 49.9717883,23.7099545 50.1380846,23.8773657 C50.3043809,24.044777 50.434298,24.2575268 50.5278396,24.5156178 C50.6213813,24.7737101 50.6681514,25.080626 50.6681514,25.4363748 L50.6681514,28.7218034 L49.3585746,28.7218034 L49.3585746,25.7711956 C49.3585746,25.4014958 49.270231,25.1102744 49.0935412,24.8975227 C48.9168514,24.684771 48.662214,24.5783967 48.3296214,24.5783967 C47.9415967,24.5783967 47.6523147,24.7091847 47.4617669,24.9707647 C47.271219,25.2323447 47.1759465,25.5828567 47.1759465,26.0223111 L47.1759465,28.7218034 Z M52.3207127,27.4662256 L54.0668151,27.4662256 L54.0668151,24.7876596 L52.4454343,24.7876596 L52.4454343,23.5320819 L55.376392,23.5320819 L55.376392,27.4662256 L56.8730512,27.4662256 L56.8730512,28.7218034 L52.3207127,28.7218034 L52.3207127,27.4662256 Z M55.6985895,21.9939991 C55.6985895,22.1335084 55.6726061,22.2642965 55.6206385,22.3863671 C55.5686709,22.5084378 55.4976495,22.6130682 55.4075724,22.7002616 C55.3174952,22.7874549 55.2118294,22.8572085 55.0905716,22.9095245 C54.9693139,22.9618405 54.8428613,22.9879982 54.7112101,22.9879982 C54.5726298,22.9879982 54.444445,22.9618405 54.3266518,22.9095245 C54.2088586,22.8572085 54.104925,22.7874549 54.0148478,22.7002616 C53.9247706,22.6130682 53.8537493,22.5084378 53.8017817,22.3863671 C53.7498141,22.2642965 53.7238307,22.1335084 53.7238307,21.9939991 C53.7238307,21.8544897 53.7498141,21.7237017 53.8017817,21.601631 C53.8537493,21.4795603 53.9247706,21.3749299 54.0148478,21.2877366 C54.104925,21.2005432 54.2088586,21.1307896 54.3266518,21.0784736 C54.444445,21.0261576 54.5726298,21 54.7112101,21 C54.8428613,21 54.9693139,21.0261576 55.0905716,21.0784736 C55.2118294,21.1307896 55.3174952,21.2005432 55.4075724,21.2877366 C55.4976495,21.3749299 55.5686709,21.4795603 55.6206385,21.601631 C55.6726061,21.7237017 55.6985895,21.8544897 55.6985895,21.9939991 Z M58.4424647,23.5320819 L59.9703044,23.5320819 L59.9703044,21.3975996 L61.2798812,21.3975996 L61.2798812,23.5320819 L63.1403118,23.5320819 L63.1403118,24.7876596 L61.2798812,24.7876596 L61.2798812,27.1523311 C61.2798812,27.3615951 61.3734215,27.4662256 61.5605048,27.4662256 L62.9532294,27.4662256 L62.9532294,28.7218034 L60.7706013,28.7218034 C60.5350149,28.7218034 60.3427377,28.6450744 60.1937639,28.4916141 C60.0447901,28.3381538 59.9703044,28.1428437 59.9703044,27.9056778 L59.9703044,24.7876596 L58.4424647,24.7876596 L58.4424647,23.5320819 Z M70,26.1897215 C70,26.6222004 69.9272465,27.0041015 69.7817372,27.3354362 C69.6362279,27.6667709 69.438754,27.9457854 69.1893096,28.1724881 C68.9398651,28.3991908 68.6540476,28.571831 68.3318486,28.6904139 C68.0096495,28.8089968 67.6718652,28.8682874 67.3184855,28.8682874 C66.9651059,28.8682874 66.6273216,28.8089968 66.3051225,28.6904139 C65.9829234,28.571831 65.6971059,28.3991908 65.4476615,28.1724881 C65.198217,27.9457854 65.0007431,27.6667709 64.8552339,27.3354362 C64.7097246,27.0041015 64.636971,26.6222004 64.636971,26.1897215 L64.636971,26.0641637 C64.636971,25.6386602 64.7097246,25.2602468 64.8552339,24.9289121 C65.0007431,24.5975775 65.198217,24.3168191 65.4476615,24.0866287 C65.6971059,23.8564383 65.9829234,23.6820542 66.3051225,23.5634713 C66.6273216,23.4448884 66.9651059,23.3855978 67.3184855,23.3855978 C67.6718652,23.3855978 68.0096495,23.4448884 68.3318486,23.5634713 C68.6540476,23.6820542 68.9398651,23.8564383 69.1893096,24.0866287 C69.438754,24.3168191 69.6362279,24.5975775 69.7817372,24.9289121 C69.9272465,25.2602468 70,25.6386602 70,26.0641637 L70,26.1897215 Z M67.3184855,27.6127096 C67.5055689,27.6127096 67.682256,27.5813205 67.8485523,27.5185413 C68.0148486,27.4557621 68.1603557,27.3650824 68.285078,27.2464995 C68.4098002,27.1279165 68.5085371,26.9831778 68.5812918,26.8122788 C68.6540464,26.6413799 68.6904232,26.4478136 68.6904232,26.2315741 L68.6904232,26.0223111 C68.6904232,25.8060716 68.6540464,25.6125053 68.5812918,25.4416064 C68.5085371,25.2707075 68.4098002,25.1259687 68.285078,25.0073858 C68.1603557,24.8888028 68.0148486,24.7981231 67.8485523,24.7353439 C67.682256,24.6725647 67.5055689,24.6411756 67.3184855,24.6411756 C67.1314022,24.6411756 66.954715,24.6725647 66.7884187,24.7353439 C66.6221224,24.7981231 66.4766153,24.8888028 66.3518931,25.0073858 C66.2271709,25.1259687 66.1284339,25.2707075 66.0556793,25.4416064 C65.9829247,25.6125053 65.9465479,25.8060716 65.9465479,26.0223111 L65.9465479,26.2315741 C65.9465479,26.4478136 65.9829247,26.6413799 66.0556793,26.8122788 C66.1284339,26.9831778 66.2271709,27.1279165 66.3518931,27.2464995 C66.4766153,27.3650824 66.6221224,27.4557621 66.7884187,27.5185413 C66.954715,27.5813205 67.1314022,27.6127096 67.3184855,27.6127096 Z" id="Incognito" fill="#8C9C9D" opacity="0.801013765"></path>
                <path d="M-3.26849658e-13,14 L-3.26849658e-13,-5.82645043e-13 L3.12,-5.82645043e-13 C3.94,1.32 4.7,2.58 5.44,3.76 C6.68,5.8 8.1,8.08 8.8,9.2 L8.86,9.2 L8.86,-5.82645043e-13 L11.7,-5.82645043e-13 L11.7,14 L8.58,14 C7.8,12.7 7.04,11.48 6.3,10.3 L2.9,4.8 L2.84,4.8 L2.84,14 L-3.26849658e-13,14 Z M18.78,4.2 C21.76,4.2 23.76,6.12 23.76,9.24 C23.76,12.36 21.76,14.28 18.78,14.28 C15.82,14.28 13.82,12.36 13.82,9.24 C13.82,6.12 15.82,4.2 18.78,4.2 Z M18.78,12.12 C20.22,12.12 20.84,10.86 20.84,9.24 C20.84,7.62 20.22,6.36 18.78,6.36 C17.36,6.36 16.74,7.62 16.74,9.24 C16.74,10.86 17.36,12.12 18.78,12.12 Z M29.44,4.2 C30.8,4.2 31.78,4.82 32.32,5.68 L32.32,-5.82645043e-13 L35.2,-5.82645043e-13 L35.2,14 L32.42,14 L32.42,12.62 C31.92,13.48 30.96,14.28 29.3,14.28 C26.96,14.28 25.12,12.36 25.12,9.24 C25.12,6.14 27.02,4.2 29.44,4.2 Z M32.34,9.54 L32.34,8.96 C32.34,7.22 31.24,6.42 30.2,6.42 C28.88,6.42 28.06,7.64 28.06,9.24 C28.06,10.86 28.82,12.06 30.1,12.06 C31.2,12.06 32.34,11.28 32.34,9.54 Z M43.88,11.02 L46.36,12.02 C45.58,13.44 44.16,14.28 42.1,14.28 C39.14,14.28 37.16,12.36 37.16,9.22 C37.16,6.1 39.2,4.2 42,4.2 C45.2,4.2 46.72,6.52 46.72,9.28 L46.72,9.98 L40.08,9.98 C40.14,11.08 40.58,12.16 42.06,12.16 C43.08,12.16 43.58,11.6 43.88,11.02 Z M42,6.24 C40.8,6.24 40.18,7.04 40.1,8.24 L43.84,8.24 C43.78,6.9 43.04,6.24 42,6.24 Z" id="Node" fill="#101111"></path>
                <path d="M2.34,23.16 C3.58,23.16 4.51,24.11 4.51,25.64 C4.51,27.17 3.58,28.12 2.34,28.12 C1.52,28.12 1.06,27.72 0.79,27.29 L0.79,28 L0,28 L0,21 L0.84,21 L0.84,23.88 C1.15,23.49 1.59,23.16 2.34,23.16 Z M0.84,25.32 L0.84,25.96 C0.84,27.03 1.64,27.43 2.25,27.43 C3.11,27.43 3.64,26.66 3.64,25.64 C3.64,24.62 3.11,23.85 2.25,23.85 C1.64,23.85 0.84,24.25 0.84,25.32 Z M7.36,30 L6.5,30 L7.32,27.98 L5.46,23.28 L6.33,23.28 C6.56,23.88 6.78,24.43 6.97,24.94 C7.29,25.8 7.66,26.73 7.74,26.99 L7.76,26.99 C7.84,26.73 8.19,25.8 8.51,24.94 L9.14,23.28 L9.95,23.28 L7.36,30 Z" id="by" fill="#101111"></path>
            </g>
        </g>
    </g>
</svg>