<?xml version="1.0" encoding="UTF-8"?>
<svg width="103px" height="18px" viewBox="0 0 103 18" version="1.1" xmlns="http://www.w3.org/2000/svg" xmlns:xlink="http://www.w3.org/1999/xlink">
    <!-- Generator: Sketch 55.1 (78136) - https://sketchapp.com -->
    <title>Incognito</title>
    <desc>Created with Sketch.</desc>
    <g id="Page-1" stroke="none" stroke-width="1" fill="none" fill-rule="evenodd">
        <g id="Home" transform="translate(-669.000000, -52.000000)" fill="#000000" fill-rule="nonzero">
            <path d="M669.368,52.7 L678.26,52.7 L678.26,55.094 L675.068,55.094 L675.068,63.606 L678.26,63.606 L678.26,66 L669.368,66 L669.368,63.606 L672.56,63.606 L672.56,55.094 L669.368,55.094 L669.368,52.7 Z M683.504,66 L681.11,66 L681.11,56.576 L683.504,56.576 L683.504,57.982 L683.846,57.982 C684.061334,57.4499973 684.409664,57.0383348 684.891,56.747 C685.372336,56.4556652 685.935997,56.31 686.582,56.31 C687.038002,56.31 687.465498,56.3828326 687.8645,56.5285 C688.263502,56.6741674 688.614998,56.8989985 688.919,57.203 C689.223002,57.5070015 689.460499,57.893331 689.6315,58.362 C689.802501,58.830669 689.888,59.3879968 689.888,60.034 L689.888,66 L687.494,66 L687.494,60.642 C687.494,59.9706633 687.332502,59.4418353 687.0095,59.0555 C686.686498,58.6691647 686.221003,58.476 685.613,58.476 C684.903663,58.476 684.374835,58.7134976 684.0265,59.1885 C683.678165,59.6635024 683.504,60.299996 683.504,61.098 L683.504,66 Z M701.934,62.542 C701.718666,63.6566722 701.208837,64.5559966 700.4045,65.24 C699.600163,65.9240034 698.526673,66.266 697.184,66.266 C696.48733,66.266 695.83817,66.1583344 695.2365,65.943 C694.63483,65.7276656 694.112336,65.4173354 693.669,65.012 C693.225664,64.6066646 692.877335,64.1063363 692.624,63.511 C692.370665,62.9156637 692.244,62.2380038 692.244,61.478 L692.244,61.25 C692.244,60.4899962 692.370665,59.806003 692.624,59.198 C692.877335,58.589997 693.228831,58.0706688 693.6785,57.64 C694.128169,57.2093312 694.65383,56.8800011 695.2555,56.652 C695.85717,56.4239989 696.499997,56.31 697.184,56.31 C698.50134,56.31 699.568496,56.6519966 700.3855,57.336 C701.202504,58.0200034 701.718666,58.9193278 701.934,60.034 L699.578,60.642 C699.502,60.0846639 699.261335,59.6033354 698.856,59.198 C698.450665,58.7926646 697.88067,58.59 697.146,58.59 C696.803998,58.59 696.481002,58.6533327 696.177,58.78 C695.872998,58.9066673 695.607001,59.0871655 695.379,59.3215 C695.150999,59.5558345 694.970501,59.8408317 694.8375,60.1765 C694.704499,60.5121683 694.638,60.8889979 694.638,61.307 L694.638,61.421 C694.638,61.8390021 694.704499,62.2094984 694.8375,62.5325 C694.970501,62.8555016 695.150999,63.1246656 695.379,63.34 C695.607001,63.5553344 695.872998,63.7168328 696.177,63.8245 C696.481002,63.9321672 696.803998,63.986 697.146,63.986 C697.88067,63.986 698.441165,63.8023352 698.8275,63.435 C699.213835,63.0676648 699.463999,62.5736698 699.578,61.953 L701.934,62.542 Z M713.6,61.402 C713.6,62.1873373 713.467001,62.8808303 713.201,63.4825 C712.934999,64.0841697 712.574002,64.5908313 712.118,65.0025 C711.661998,65.4141687 711.139503,65.7276656 710.5505,65.943 C709.961497,66.1583344 709.344003,66.266 708.698,66.266 C708.051997,66.266 707.434503,66.1583344 706.8455,65.943 C706.256497,65.7276656 705.734002,65.4141687 705.278,65.0025 C704.821998,64.5908313 704.461001,64.0841697 704.195,63.4825 C703.928999,62.8808303 703.796,62.1873373 703.796,61.402 L703.796,61.174 C703.796,60.4013295 703.928999,59.7141697 704.195,59.1125 C704.461001,58.5108303 704.821998,58.0010021 705.278,57.583 C705.734002,57.1649979 706.256497,56.8483344 706.8455,56.633 C707.434503,56.4176656 708.051997,56.31 708.698,56.31 C709.344003,56.31 709.961497,56.4176656 710.5505,56.633 C711.139503,56.8483344 711.661998,57.1649979 712.118,57.583 C712.574002,58.0010021 712.934999,58.5108303 713.201,59.1125 C713.467001,59.7141697 713.6,60.4013295 713.6,61.174 L713.6,61.402 Z M708.698,63.986 C709.040002,63.986 709.362998,63.9290006 709.667,63.815 C709.971002,63.7009994 710.236999,63.5363344 710.465,63.321 C710.693001,63.1056656 710.873499,62.8428349 711.0065,62.5325 C711.139501,62.2221651 711.206,61.8706686 711.206,61.478 L711.206,61.098 C711.206,60.7053314 711.139501,60.3538349 711.0065,60.0435 C710.873499,59.7331651 710.693001,59.4703344 710.465,59.255 C710.236999,59.0396656 709.971002,58.8750006 709.667,58.761 C709.362998,58.6469994 709.040002,58.59 708.698,58.59 C708.355998,58.59 708.033002,58.6469994 707.729,58.761 C707.424998,58.8750006 707.159001,59.0396656 706.931,59.255 C706.702999,59.4703344 706.522501,59.7331651 706.3895,60.0435 C706.256499,60.3538349 706.19,60.7053314 706.19,61.098 L706.19,61.478 C706.19,61.8706686 706.256499,62.2221651 706.3895,62.5325 C706.522501,62.8428349 706.702999,63.1056656 706.931,63.321 C707.159001,63.5363344 707.424998,63.7009994 707.729,63.815 C708.033002,63.9290006 708.355998,63.986 708.698,63.986 Z M722.72,64.632 L722.378,64.632 C722.276666,64.8473344 722.153167,65.0531657 722.0075,65.2495 C721.861833,65.4458343 721.671835,65.6199992 721.4375,65.772 C721.203165,65.9240008 720.924502,66.0443329 720.6015,66.133 C720.278498,66.2216671 719.889002,66.266 719.433,66.266 C718.85033,66.266 718.308836,66.161501 717.8085,65.9525 C717.308164,65.743499 716.871169,65.4331687 716.4975,65.0215 C716.123831,64.6098313 715.832501,64.1063363 715.6235,63.511 C715.414499,62.9156637 715.31,62.2316705 715.31,61.459 L715.31,61.117 C715.31,60.3569962 715.420832,59.6793363 715.6425,59.084 C715.864168,58.4886637 716.168165,57.9851687 716.5545,57.5735 C716.940835,57.1618313 717.390497,56.8483344 717.9035,56.633 C718.416503,56.4176656 718.957997,56.31 719.528,56.31 C720.288004,56.31 720.889664,56.4524986 721.333,56.7375 C721.776336,57.0225014 722.124665,57.4246641 722.378,57.944 L722.72,57.944 L722.72,56.576 L725.114,56.576 L725.114,68.318 C725.114,68.7486688 724.977835,69.1033319 724.7055,69.382 C724.433165,69.6606681 724.081669,69.8 723.651,69.8 L717.305,69.8 L717.305,67.52 L722.207,67.52 C722.549002,67.52 722.72,67.3300019 722.72,66.95 L722.72,64.632 Z M720.212,63.986 C720.959337,63.986 721.564164,63.7485024 722.0265,63.2735 C722.488836,62.7984976 722.72,62.1746705 722.72,61.402 L722.72,61.174 C722.72,60.4013295 722.488836,59.7775024 722.0265,59.3025 C721.564164,58.8274976 720.959337,58.59 720.212,58.59 C719.464663,58.59 718.859836,58.8211644 718.3975,59.2835 C717.935164,59.7458356 717.704,60.375996 717.704,61.174 L717.704,61.402 C717.704,62.200004 717.935164,62.8301644 718.3975,63.2925 C718.859836,63.7548356 719.464663,63.986 720.212,63.986 Z M730.016,66 L727.622,66 L727.622,56.576 L730.016,56.576 L730.016,57.982 L730.358,57.982 C730.573334,57.4499973 730.921664,57.0383348 731.403,56.747 C731.884336,56.4556652 732.447997,56.31 733.094,56.31 C733.550002,56.31 733.977498,56.3828326 734.3765,56.5285 C734.775502,56.6741674 735.126998,56.8989985 735.431,57.203 C735.735002,57.5070015 735.972499,57.893331 736.1435,58.362 C736.314501,58.830669 736.4,59.3879968 736.4,60.034 L736.4,66 L734.006,66 L734.006,60.642 C734.006,59.9706633 733.844502,59.4418353 733.5215,59.0555 C733.198498,58.6691647 732.733003,58.476 732.125,58.476 C731.415663,58.476 730.886835,58.7134976 730.5385,59.1885 C730.190165,59.6635024 730.016,60.299996 730.016,61.098 L730.016,66 Z M739.421,63.72 L742.613,63.72 L742.613,58.856 L739.649,58.856 L739.649,56.576 L745.007,56.576 L745.007,63.72 L747.743,63.72 L747.743,66 L739.421,66 L739.421,63.72 Z M745.596,53.783 C745.596,54.0363346 745.5485,54.2738322 745.4535,54.4955 C745.3585,54.7171678 745.228667,54.9071659 745.064,55.0655 C744.899333,55.2238341 744.706168,55.3504995 744.4845,55.4455 C744.262832,55.5405005 744.031668,55.588 743.791,55.588 C743.537665,55.588 743.303334,55.5405005 743.088,55.4455 C742.872666,55.3504995 742.682667,55.2238341 742.518,55.0655 C742.353333,54.9071659 742.2235,54.7171678 742.1285,54.4955 C742.0335,54.2738322 741.986,54.0363346 741.986,53.783 C741.986,53.5296654 742.0335,53.2921678 742.1285,53.0705 C742.2235,52.8488322 742.353333,52.6588341 742.518,52.5005 C742.682667,52.3421659 742.872666,52.2155005 743.088,52.1205 C743.303334,52.0254995 743.537665,51.978 743.791,51.978 C744.031668,51.978 744.262832,52.0254995 744.4845,52.1205 C744.706168,52.2155005 744.899333,52.3421659 745.064,52.5005 C745.228667,52.6588341 745.3585,52.8488322 745.4535,53.0705 C745.5485,53.2921678 745.596,53.5296654 745.596,53.783 Z M750.612,56.576 L753.405,56.576 L753.405,52.7 L755.799,52.7 L755.799,56.576 L759.2,56.576 L759.2,58.856 L755.799,58.856 L755.799,63.15 C755.799,63.5300019 755.969998,63.72 756.312,63.72 L758.858,63.72 L758.858,66 L754.868,66 C754.437331,66 754.085835,65.8606681 753.8135,65.582 C753.541165,65.3033319 753.405,64.9486688 753.405,64.518 L753.405,58.856 L750.612,58.856 L750.612,56.576 Z M771.74,61.402 C771.74,62.1873373 771.607001,62.8808303 771.341,63.4825 C771.074999,64.0841697 770.714002,64.5908313 770.258,65.0025 C769.801998,65.4141687 769.279503,65.7276656 768.6905,65.943 C768.101497,66.1583344 767.484003,66.266 766.838,66.266 C766.191997,66.266 765.574503,66.1583344 764.9855,65.943 C764.396497,65.7276656 763.874002,65.4141687 763.418,65.0025 C762.961998,64.5908313 762.601001,64.0841697 762.335,63.4825 C762.068999,62.8808303 761.936,62.1873373 761.936,61.402 L761.936,61.174 C761.936,60.4013295 762.068999,59.7141697 762.335,59.1125 C762.601001,58.5108303 762.961998,58.0010021 763.418,57.583 C763.874002,57.1649979 764.396497,56.8483344 764.9855,56.633 C765.574503,56.4176656 766.191997,56.31 766.838,56.31 C767.484003,56.31 768.101497,56.4176656 768.6905,56.633 C769.279503,56.8483344 769.801998,57.1649979 770.258,57.583 C770.714002,58.0010021 771.074999,58.5108303 771.341,59.1125 C771.607001,59.7141697 771.74,60.4013295 771.74,61.174 L771.74,61.402 Z M766.838,63.986 C767.180002,63.986 767.502998,63.9290006 767.807,63.815 C768.111002,63.7009994 768.376999,63.5363344 768.605,63.321 C768.833001,63.1056656 769.013499,62.8428349 769.1465,62.5325 C769.279501,62.2221651 769.346,61.8706686 769.346,61.478 L769.346,61.098 C769.346,60.7053314 769.279501,60.3538349 769.1465,60.0435 C769.013499,59.7331651 768.833001,59.4703344 768.605,59.255 C768.376999,59.0396656 768.111002,58.8750006 767.807,58.761 C767.502998,58.6469994 767.180002,58.59 766.838,58.59 C766.495998,58.59 766.173002,58.6469994 765.869,58.761 C765.564998,58.8750006 765.299001,59.0396656 765.071,59.255 C764.842999,59.4703344 764.662501,59.7331651 764.5295,60.0435 C764.396499,60.3538349 764.33,60.7053314 764.33,61.098 L764.33,61.478 C764.33,61.8706686 764.396499,62.2221651 764.5295,62.5325 C764.662501,62.8428349 764.842999,63.1056656 765.071,63.321 C765.299001,63.5363344 765.564998,63.7009994 765.869,63.815 C766.173002,63.9290006 766.495998,63.986 766.838,63.986 Z" id="Incognito"></path>
        </g>
    </g>
</svg>