<?xml version="1.0" encoding="UTF-8"?>
<svg width="424px" height="486px" viewBox="0 0 424 486" version="1.1" xmlns="http://www.w3.org/2000/svg" xmlns:xlink="http://www.w3.org/1999/xlink">
    <!-- Generator: Sketch 55 (78076) - https://sketchapp.com -->
    <title>Asset 1</title>
    <desc>Created with Sketch.</desc>
    <g id="Page-1" stroke="none" stroke-width="1" fill="none" fill-rule="evenodd">
        <g id="Home-Copy-2" transform="translate(-199.000000, -211.000000)" fill-rule="nonzero">
            <g id="Group-9" transform="translate(193.000000, 203.000000)">
                <g id="Group-2" transform="translate(0.000000, 8.000000)">
                    <g id="Asset-1">
                        <path d="M168.924177,58.3575823 C170.228326,58.083834 173.94392,65.887196 175.075823,66.6315451 C176.207725,67.3758941 184.183333,67.3451359 184.426323,68.504721 C184.669313,69.6643062 176.8598,72.8108727 176.029328,74.0842632 C175.198856,75.3576538 175.580258,83.7392704 174.276109,84.0130186 C172.97196,84.2867668 170.185265,76.5910587 168.696567,75.6160229 C167.207868,74.6409871 159.010801,75.0254649 158.767811,73.8658798 C158.524821,72.7062947 166.506581,69.2921316 167.164807,68.2863376 C167.823033,67.2805436 167.632332,58.6282546 168.924177,58.3575823 Z" id="Path" fill="#FFFFFF"></path>
                        <path d="M414.374821,271.512089 C415.67897,271.23834 419.394564,279.041702 420.526466,279.786052 C421.658369,280.530401 429.633977,280.499642 429.876967,281.659227 C430.119957,282.818813 422.310443,285.965379 421.479971,287.23877 C420.649499,288.51216 421.030901,296.893777 419.726753,297.167525 C418.422604,297.441273 415.635908,289.745565 414.14721,288.770529 C412.658512,287.795494 404.461445,288.179971 404.218455,287.020386 C403.975465,285.860801 411.957225,282.446638 412.615451,281.440844 C413.273677,280.43505 413.082976,271.785837 414.374821,271.512089 Z" id="Path" fill="#FFFFFF"></path>
                        <path d="M91.8010014,0.30758226 C93.1297568,0.384477825 94.6830472,8.8860515 95.5904149,9.90414878 C96.4977825,10.9222461 104.202718,12.9799714 104.125823,14.1518598 C104.048927,15.3237482 95.6980687,16.3387697 94.5630901,17.3476395 C93.4281116,18.3565093 91.6133763,26.5505007 90.2815451,26.4736052 C88.9497139,26.3967096 88.2761087,18.2427039 87.0857654,16.9170243 C85.895422,15.5913448 77.8921316,13.8165951 77.9597997,12.6354793 C78.0274678,11.4543634 86.6213162,10.2394134 87.5194564,9.43969957 C88.4175966,8.63998569 90.4691702,0.230686695 91.8010014,0.30758226 Z" id="Path" fill="#FFFFFF"></path>
                        <path d="M400.447496,175.798641 C401.179542,175.64485 403.268026,180.027897 403.907797,180.446209 C404.547568,180.864521 409.02289,180.849142 409.161302,181.49814 C409.299714,182.147139 404.910515,183.918813 404.44299,184.632403 C403.975465,185.345994 404.190773,190.058155 403.458727,190.211946 C402.726681,190.365737 401.161087,186.04113 400.324464,185.493634 C399.48784,184.946137 394.883333,185.161445 394.747997,184.509371 C394.612661,183.857296 399.094134,181.941059 399.463233,181.375107 C399.832332,180.809156 399.715451,175.937053 400.447496,175.798641 Z" id="Path" fill="#FFFFFF"></path>
                        <path d="M303.097711,19.2792561 C303.829757,19.1254649 305.91824,23.5085122 306.558011,23.926824 C307.197783,24.3451359 311.673104,24.326681 311.811516,24.9787554 C311.949928,25.6308298 307.56073,27.3994278 307.093205,28.1130186 C306.62568,28.8266094 306.840987,33.5387697 306.108941,33.689485 C305.376896,33.8402003 303.811302,29.527897 302.968526,28.9742489 C302.125751,28.4206009 297.527396,28.6420601 297.39206,27.9899857 C297.256724,27.3379113 301.738197,25.4216738 302.113448,24.8557225 C302.488698,24.2897711 302.353362,19.4299714 303.097711,19.2792561 Z" id="Path" fill="#FFFFFF"></path>
                        <path d="M343.237196,55.380186 C343.969242,55.2263948 346.057725,59.6094421 346.697496,60.0277539 C347.337268,60.4460658 351.812589,60.4276109 351.951001,61.0796853 C352.089413,61.7317597 347.700215,63.5003577 347.23269,64.2139485 C346.765165,64.9275393 346.980472,69.6396996 346.248426,69.7934907 C345.516381,69.9472818 343.950787,65.6226753 343.114163,65.0751788 C342.277539,64.5276824 337.673033,64.74299 337.537697,64.0909156 C337.402361,63.4388412 341.883834,61.5226037 342.252933,60.9566524 C342.622031,60.390701 342.50515,55.5309013 343.237196,55.380186 Z" id="Path" fill="#FFFFFF"></path>
                        <path d="M62.1623748,128.341774 C62.3623033,139.651574 66.4439199,141.915379 74.9270386,141.469385 C65.3120172,142.318312 62.3623033,143.773176 62.4853362,154.596996 C62.3623033,143.773176 58.6866953,141.469385 49.8006438,141.915379 C60.7075107,141.469385 61.9993562,138.845708 62.1623748,128.341774 Z" id="Path" fill="#FFFFFF"></path>
                        <path d="M329.091488,157.08226 C329.208369,163.630687 331.570601,164.940987 336.473462,164.685694 C330.906223,165.17475 329.199142,166.017525 329.269886,172.289127 C329.199142,166.017525 327.070672,164.685694 321.921745,164.940987 C328.248712,164.685694 328.996137,163.163162 329.091488,157.08226 Z" id="Path" fill="#FFFFFF"></path>
                        <path d="M95.8641631,95.2059371 C95.9810443,101.757439 98.3432761,103.06774 103.246137,102.809371 C97.6758226,103.301502 95.9687411,104.144278 96.039485,110.412804 C95.9687411,104.144278 93.8402718,102.809371 88.6944206,103.06774 C95.0213877,102.809371 95.7718884,101.289914 95.8641631,95.2059371 Z" id="Path" fill="#FFFFFF"></path>
                        <path d="M385.379041,348.090844 C385.495923,354.63927 387.858155,355.949571 392.761016,355.694278 C387.193777,356.183333 385.486695,357.026109 385.557439,363.297711 C385.486695,357.026109 383.358226,355.694278 378.209299,355.949571 C384.536266,355.694278 385.283691,354.171745 385.379041,348.090844 Z" id="Path" fill="#FFFFFF"></path>
                        <path d="M29.6601574,335.633763 C29.7770386,342.182189 32.1392704,343.492489 37.0421316,343.237196 C31.4748927,343.726252 29.7678112,344.569027 29.8385551,350.840629 C29.7678112,344.569027 27.6393419,343.237196 22.4904149,343.492489 C28.817382,343.237196 29.5648069,341.723891 29.6601574,335.633763 Z" id="Path" fill="#FFFFFF"></path>
                        <path d="M407.063591,1.48254649 C407.180472,8.03404864 409.542704,9.34434907 414.445565,9.08905579 C408.878326,9.57811159 407.171245,10.420887 407.241989,16.6924893 C407.171245,10.420887 405.042775,9.08905579 399.893848,9.34434907 C406.220815,9.08905579 406.96824,7.56652361 407.063591,1.48254649 Z" id="Path" fill="#FFFFFF"></path>
                        <path d="M27.8146638,16.7109442 C27.9315451,23.2593705 30.2937768,24.569671 35.1966381,24.3143777 C29.6386266,24.8034335 27.9315451,25.6462089 27.9899857,31.9178112 C27.9192418,25.6462089 25.7907725,24.3143777 20.6418455,24.569671 C26.9718884,24.3143777 27.7193133,22.7918455 27.8146638,16.7109442 Z" id="Path" fill="#FFFFFF"></path>
                        <path d="M32.8436338,236.447711 C32.844878,237.964492 31.9321486,239.332613 30.5311824,239.913923 C29.1302163,240.495232 27.5170163,240.175207 26.4440496,239.10312 C25.3710829,238.031034 25.0497337,236.418097 25.6298932,235.016654 C26.2100526,233.615212 27.5774242,232.70136 29.094206,232.701359 C31.1637572,232.701358 32.841936,234.378161 32.8436338,236.447711 Z" id="Path" fill="#FFFFFF"></path>
                        <path d="M368.262089,21.795279 C368.263333,23.3120602 367.350604,24.6801813 365.949637,25.2614908 C364.548671,25.8428002 362.935471,25.5227748 361.862505,24.4506883 C360.789538,23.3786018 360.468189,21.765665 361.048348,20.3642222 C361.628508,18.9627795 362.995879,18.0489275 364.512661,18.048927 C366.582212,18.0489263 368.260391,19.7257285 368.262089,21.795279 Z" id="Path" fill="#FFFFFF"></path>
                        <circle id="Oval" fill="#FFFFFF" cx="382.967597" cy="124.333977" r="3.74942775"></circle>
                        <path d="M46.2234621,74.0442775 C46.2247064,75.5610588 45.311977,76.9291799 43.9110108,77.5104893 C42.5100446,78.0917988 40.8968446,77.7717733 39.8238779,76.6996868 C38.7509113,75.6276004 38.429562,74.0146636 39.0097215,72.6132208 C39.589881,71.211778 40.9572526,70.2979261 42.4740343,70.2979256 C44.5435855,70.2979249 46.2217643,71.9747271 46.2234621,74.0442775 Z" id="Path" fill="#FFFFFF"></path>
                        <path d="M19.436123,271.973462 C19.4373675,272.732614 18.9810234,273.417707 18.2800155,273.709084 C17.5790077,274.000462 16.7714944,273.840698 16.2342522,273.304336 C15.69701,272.767975 15.5359213,271.960725 15.8261483,271.25924 C16.1163753,270.557755 16.8007186,270.100287 17.5598712,270.100286 C18.5948965,270.100285 19.4344263,270.938438 19.436123,271.973462 L19.436123,271.973462 Z" id="Path" fill="#FFFFFF"></path>
                        <path d="M394.994063,265.514235 C394.995307,266.273386 394.538963,266.958479 393.837955,267.249857 C393.136948,267.541234 392.329434,267.38147 391.792192,266.845109 C391.25495,266.308747 391.093861,265.501497 391.384088,264.800012 C391.674315,264.098527 392.358658,263.64106 393.117811,263.641059 C394.152836,263.641057 394.992366,264.479211 394.994063,265.514235 L394.994063,265.514235 Z" id="Path" fill="#FFFFFF"></path>
                        <path d="M271.902718,105.500715 C271.903962,106.260147 271.447285,106.945434 270.745899,107.236631 C270.044513,107.527827 269.236758,107.367499 268.699759,106.830499 C268.162759,106.293499 268.00243,105.485744 268.293627,104.784359 C268.584824,104.082973 269.270111,103.626295 270.029542,103.627539 C271.064069,103.627539 271.902718,104.466189 271.902718,105.500715 L271.902718,105.500715 Z" id="Path" fill="#FFFFFF"></path>
                        <path d="M390.380329,64.2416309 C390.381574,65.0007826 389.925229,65.6858755 389.224222,65.977253 C388.523214,66.2686305 387.7157,66.1088665 387.178458,65.572505 C386.641216,65.0361435 386.480127,64.2288934 386.770354,63.5274085 C387.060581,62.8259235 387.744925,62.368456 388.504077,62.3684549 C389.539103,62.3684535 390.378632,63.206607 390.380329,64.2416309 L390.380329,64.2416309 Z" id="Path" fill="#FFFFFF"></path>
                        <path d="M10.2086552,176.46917 C10.2098997,177.228322 9.75355555,177.913415 9.05254774,178.204792 C8.35153992,178.49617 7.5440266,178.336406 7.0067844,177.800044 C6.4695422,177.263683 6.3084535,176.456433 6.59868049,175.754948 C6.88890747,175.053463 7.57325074,174.595995 8.33240343,174.595994 C9.36742869,174.595993 10.2069585,175.434146 10.2086552,176.46917 Z" id="Path" fill="#FFFFFF"></path>
                        <path d="M233.97475,61.4733906 C233.975994,62.2325422 233.51965,62.9176351 232.818642,63.2090127 C232.117634,63.5003902 231.310121,63.3406261 230.772879,62.8042647 C230.235637,62.2679032 230.074548,61.4606531 230.364775,60.7591681 C230.655002,60.0576832 231.339345,59.6002156 232.098498,59.6002146 C233.133523,59.6002132 233.973053,60.4383667 233.97475,61.4733906 L233.97475,61.4733906 Z" id="Path" fill="#FFFFFF"></path>
                        <path d="M148.620672,132.177325 C148.621917,132.936476 148.165573,133.621569 147.464565,133.912947 C146.763557,134.204324 145.956044,134.04456 145.418802,133.508199 C144.881559,132.971837 144.720471,132.164587 145.010698,131.463102 C145.300925,130.761617 145.985268,130.30415 146.744421,130.304149 C147.779446,130.304147 148.618976,131.142301 148.620672,132.177325 Z" id="Path" fill="#FFFFFF"></path>
                        <path d="M154.655436,3.56795422 C154.65668,4.3273856 154.200003,5.01267279 153.498617,5.30386952 C152.797231,5.59506625 151.989477,5.43473769 151.452477,4.89773789 C150.915477,4.36073809 150.755148,3.5529834 151.046345,2.85159761 C151.337542,2.15021182 152.022829,1.6935343 152.78226,1.69477825 C153.816085,1.69647166 154.653743,2.53412995 154.655436,3.56795422 Z" id="Path" fill="#FFFFFF"></path>
                        <path d="M416.678612,91.115093 C416.679857,91.8742447 416.223513,92.5593376 415.522505,92.8507151 C414.821497,93.1420926 414.013984,92.9823286 413.476741,92.4459671 C412.939499,91.9096056 412.778411,91.1023555 413.068638,90.4008706 C413.358865,89.6993856 414.043208,89.241918 414.802361,89.241917 C415.837386,89.2419156 416.676916,90.0800691 416.678612,91.115093 Z" id="Path" fill="#FFFFFF"></path>
                        <circle id="Oval" fill="#F2F2F2" transform="translate(215.028392, 294.583291) rotate(-45.000000) translate(-215.028392, -294.583291) " cx="215.028392" cy="294.583291" r="151.868741"></circle>
                        <path d="M207.645708,147.095064 C293.940987,147.095064 363.897496,217.051574 363.897496,303.346853 C363.907105,317.589848 361.969862,331.767322 358.139557,345.485622 C363.951596,329.139623 366.913592,311.916977 366.896423,294.568455 C366.896423,210.693848 298.902289,142.718169 215.027682,142.718169 C188.96722,142.680554 163.33968,149.381202 140.632761,162.169671 C161.568794,152.216236 184.464088,147.065925 207.645708,147.095064 Z" id="Path" fill="#FFFFFF"></path>
                        <path d="M252.789557,415.109943 C170.911159,415.109943 104.534907,348.733691 104.534907,266.855293 C104.483079,227.772078 119.916782,190.260051 147.458011,162.529542 C99.2721745,187.006938 66.2562947,237.029041 66.2562947,294.789914 C66.2562947,376.671388 132.635622,443.044564 214.510944,443.044564 C254.075854,443.094 292.00849,427.277009 319.817883,399.13412 C299.048276,409.672596 276.079783,415.147006 252.789557,415.109943 L252.789557,415.109943 Z" id="Path" fill="#B3B3B3" opacity="0.53"></path>
                        <path d="M355.565093,283.304793 C355.565093,288.613324 351.261678,292.916738 345.953147,292.916738 C340.644616,292.916738 336.341202,288.613324 336.341202,283.304793 C336.341202,277.996262 340.644616,273.692847 345.953147,273.692847 C351.261678,273.692847 355.565093,277.996262 355.565093,283.304793 Z" id="Path" fill="#B3B3B3"></path>
                        <circle id="Oval" fill="#C2C2C2" transform="translate(143.482549, 365.949987) rotate(-24.010000) translate(-143.482549, -365.949987) " cx="143.482549" cy="365.949987" r="36.8083691"></circle>
                        <path d="M143.465594,330.081903 C163.284676,330.081903 179.351216,346.148443 179.351216,365.967525 C179.351216,385.786607 163.284676,401.853147 143.465594,401.853147 C123.646512,401.853147 107.579971,385.786607 107.579971,365.967525 C107.579971,346.148443 123.646512,330.081903 143.465594,330.081903 L143.465594,330.081903 Z M143.465594,328.236409 C125.466742,328.236785 109.974554,340.951231 106.46324,358.604257 C102.951925,376.257284 112.399409,393.93241 129.028104,400.820455 C145.656799,407.7085 164.835508,401.891099 174.835537,386.92587 C184.835566,371.96064 182.871844,352.015496 170.145279,339.28784 C163.08506,332.188484 153.477926,328.208956 143.465594,328.236409 L143.465594,328.236409 Z" id="Shape" fill="#F7F7F7"></path>
                        <path d="M143.465594,330.081903 C132.578319,330.072399 122.278049,335.016529 115.475608,343.517096 C129.748169,332.027168 150.385403,333.138461 163.341568,346.094627 C176.297733,359.050792 177.409026,379.688025 165.919099,393.960587 C177.804549,384.433356 182.377989,368.439365 177.326015,354.068922 C172.274042,339.698479 158.698191,330.084927 143.465594,330.09113 L143.465594,330.081903 Z" id="Path" fill="#999999"></path>
                        <path d="M155.636624,301.246066 C155.637868,306.171836 152.671449,310.613216 148.120869,312.498802 C143.570289,314.384387 138.33192,313.342754 134.848875,309.859709 C131.365829,306.376664 130.324197,301.138295 132.209782,296.587715 C134.095367,292.037135 138.536748,289.070716 143.462518,289.07196 C150.186091,289.07196 155.636624,294.522493 155.636624,301.246066 Z" id="Path" fill="#B3B3B3"></path>
                        <path d="M213.951144,428.406724 C202.116093,428.406724 192.521888,418.812519 192.521888,406.977468 C192.521888,395.142416 202.116093,385.548212 213.951144,385.548212 C225.786196,385.548212 235.380401,395.142416 235.380401,406.977468 C235.366841,418.806898 225.780575,428.393164 213.951144,428.406724 Z" id="Path" fill="#C2C2C2"></path>
                        <path d="M213.951144,386.470959 C222.245533,386.469714 229.723894,391.465176 232.898882,399.127835 C236.073869,406.790494 234.320178,415.611213 228.4556,421.476672 C222.591021,427.34213 213.770565,429.097144 206.10743,425.923306 C198.444295,422.749468 193.447711,415.271856 193.447711,406.977468 C193.447711,395.653237 202.626913,386.472657 213.951144,386.470959 L213.951144,386.470959 Z M213.951144,384.625465 C201.606474,384.625465 191.599142,394.632798 191.599142,406.977468 C191.599142,419.322138 201.606474,429.329471 213.951144,429.329471 C226.295815,429.329471 236.303147,419.322138 236.303147,406.977468 C236.289586,394.638419 226.290193,384.639026 213.951144,384.625465 Z" id="Shape" fill="#F7F7F7"></path>
                        <path d="M213.951144,386.470959 C207.714823,386.466285 201.816951,389.306504 197.93226,394.185122 C206.089745,387.66732 217.842738,388.322184 225.225646,395.70588 C232.608554,403.089576 233.262163,414.842639 226.743491,422.999428 C233.552789,417.564667 236.183989,408.420195 233.304416,400.19759 C230.424843,391.974986 222.663387,386.470043 213.951144,386.470959 L213.951144,386.470959 Z" id="Path" fill="#999999"></path>
                        <path d="M308.071316,367.683834 C289.512692,367.683834 274.467954,352.639096 274.467954,334.080472 C274.467954,315.521848 289.512692,300.47711 308.071316,300.47711 C326.629941,300.47711 341.674678,315.521848 341.674678,334.080472 C341.654336,352.630664 326.621508,367.663492 308.071316,367.683834 Z" id="Path" fill="#C2C2C2"></path>
                        <path d="M308.071316,301.399857 C326.120322,301.399857 340.751931,316.031467 340.751931,334.080472 C340.751931,352.129477 326.120322,366.761087 308.071316,366.761087 C290.022311,366.761087 275.390701,352.129477 275.390701,334.080472 C275.390701,325.413034 278.833827,317.100592 284.962632,310.971788 C291.091436,304.842983 299.403878,301.399857 308.071316,301.399857 L308.071316,301.399857 Z M308.071316,299.554363 C291.601747,299.555636 277.426436,311.190404 274.21403,327.343644 C271.001624,343.496884 279.646767,359.669972 294.862684,365.972558 C310.0786,372.275145 327.627708,366.951981 336.778179,353.258348 C345.92865,339.564715 344.132109,321.314243 332.487196,309.667668 C326.02598,303.170847 317.234032,299.529133 308.071316,299.554363 L308.071316,299.554363 Z" id="Shape" fill="#F7F7F7"></path>
                        <path d="M308.071316,301.399857 C298.130949,301.394772 288.731273,305.924736 282.541989,313.703147 C295.541992,303.314669 314.273088,304.357174 326.040003,316.124089 C337.806918,327.891004 338.849422,346.622099 328.460944,359.622103 C339.321295,350.962888 343.520105,336.383968 338.929197,323.274704 C334.338288,310.165441 321.96121,301.391452 308.071316,301.399857 L308.071316,301.399857 Z" id="Path" fill="#999999"></path>
                        <path d="M279.927539,415.512876 C276.232802,415.512876 273.237625,412.517699 273.237625,408.822961 C273.237625,405.128224 276.232802,402.133047 279.927539,402.133047 C283.622277,402.133047 286.617454,405.128224 286.617454,408.822961 C286.612371,412.515592 283.62017,415.507793 279.927539,415.512876 L279.927539,415.512876 Z" id="Path" fill="#C2C2C2"></path>
                        <path d="M279.927539,403.055794 C283.112658,403.055794 285.694707,405.637843 285.694707,408.822961 C285.694707,412.00808 283.112658,414.590129 279.927539,414.590129 C276.742421,414.590129 274.160372,412.00808 274.160372,408.822961 C274.160372,405.637843 276.742421,403.055794 279.927539,403.055794 L279.927539,403.055794 Z M279.927539,401.2103 C275.723183,401.2103 272.314878,404.618605 272.314878,408.822961 C272.314878,413.027318 275.723183,416.435622 279.927539,416.435622 C284.131896,416.435622 287.5402,413.027318 287.5402,408.822961 C287.535116,404.620713 284.129788,401.215385 279.927539,401.2103 L279.927539,401.2103 Z" id="Shape" fill="#F7F7F7"></path>
                        <path d="M279.927539,403.055794 C278.176442,403.051765 276.518463,403.843974 275.421459,405.20887 C277.716328,403.378487 281.019916,403.563887 283.095576,405.639546 C285.171235,407.715205 285.356634,411.018794 283.526252,413.313662 C285.440453,411.784636 286.17971,409.213102 285.369763,406.900944 C284.559816,404.588787 282.377455,403.040694 279.927539,403.040415 L279.927539,403.055794 Z" id="Path" fill="#999999"></path>
                        <path d="M143.822389,313.958441 C136.589598,313.956742 130.72748,308.092329 130.728612,300.859538 C130.729745,293.626746 136.593698,287.76417 143.82649,287.764736 C151.059282,287.765302 156.922317,293.628796 156.922318,300.861588 C156.91384,308.092466 151.053269,313.951661 143.822389,313.958441 Z" id="Path" fill="#C2C2C2"></path>
                        <path d="M143.822389,288.687482 C150.545561,288.689181 155.994551,294.140466 155.993419,300.863638 C155.992287,307.58681 150.541461,313.036259 143.818288,313.035693 C137.095116,313.035127 131.645208,307.584761 131.645207,300.861588 C131.645207,294.138015 137.09574,288.687482 143.819313,288.687482 L143.822389,288.687482 Z M143.819313,286.841989 C136.076903,286.843687 129.801657,293.121228 129.80279,300.863638 C129.803922,308.606049 136.081004,314.881753 143.823414,314.881187 C151.565825,314.880621 157.841988,308.603999 157.841989,300.861588 C157.831818,293.121793 151.55911,286.850461 143.819313,286.841989 L143.819313,286.841989 Z" id="Shape" fill="#F7F7F7"></path>
                        <path d="M143.822389,288.687482 C140.119905,288.684834 136.61838,290.371047 134.311946,293.267382 C139.156372,289.407382 146.126844,289.800293 150.506802,294.180251 C154.88676,298.560209 155.279671,305.530681 151.419671,310.375107 C155.461752,307.147665 157.023105,301.718393 155.313039,296.836746 C153.602974,291.955098 148.994894,288.68701 143.822389,288.687482 L143.822389,288.687482 Z" id="Path" fill="#999999"></path>
                        <path d="M346.365308,293.864092 C340.547158,293.864092 335.830615,289.147549 335.830615,283.329399 C335.830615,277.511249 340.547158,272.794707 346.365308,272.794707 C352.183458,272.794707 356.9,277.511249 356.9,283.329399 C356.89322,289.144739 352.180647,293.857312 346.365308,293.864092 L346.365308,293.864092 Z" id="Path" fill="#C2C2C2"></path>
                        <path d="M346.365308,273.717454 C351.673839,273.717454 355.977253,278.020868 355.977253,283.329399 C355.977253,288.63793 351.673839,292.941345 346.365308,292.941345 C341.056777,292.941345 336.753362,288.63793 336.753362,283.329399 C336.753362,278.020868 341.056777,273.717454 346.365308,273.717454 L346.365308,273.717454 Z M346.365308,271.87196 C340.037539,271.87196 334.907868,277.00163 334.907868,283.329399 C334.907868,289.657168 340.037539,294.786838 346.365308,294.786838 C352.693077,294.786838 357.822747,289.657168 357.822747,283.329399 C357.815966,277.004441 352.690266,271.878741 346.365308,271.87196 L346.365308,271.87196 Z" id="Shape" fill="#F7F7F7"></path>
                        <path d="M346.365308,273.717454 C343.441832,273.714574 340.677005,275.046584 338.857225,277.334621 C342.680501,274.275762 348.192391,274.580934 351.65462,278.043163 C355.116849,281.505392 355.422021,287.017282 352.363162,290.840558 C355.554352,288.29239 356.787042,284.005967 355.437023,280.151839 C354.087005,276.29771 350.449038,273.717373 346.365308,273.717454 Z" id="Path" fill="#999999"></path>
                        <path d="M242.556295,204.972818 C234.614732,204.972818 228.176824,198.53491 228.176824,190.593348 C228.176824,182.651785 234.614732,176.213877 242.556295,176.213877 C250.497857,176.213877 256.935765,182.651785 256.935765,190.593348 C256.925598,198.530695 250.493642,204.962651 242.556295,204.972818 Z" id="Path" fill="#C2C2C2"></path>
                        <path d="M242.556295,177.136624 C249.988238,177.136624 256.013019,183.161404 256.013019,190.593348 C256.013019,198.025291 249.988238,204.050072 242.556295,204.050072 C235.124351,204.050072 229.099571,198.025291 229.099571,190.593348 C229.099571,183.161404 235.124351,177.136624 242.556295,177.136624 L242.556295,177.136624 Z M242.556295,175.29113 C234.105113,175.29113 227.254077,182.142166 227.254077,190.593348 C227.254077,199.044529 234.105113,205.895565 242.556295,205.895565 C251.007476,205.895565 257.858512,199.044529 257.858512,190.593348 C257.848343,182.146382 251.00326,175.301299 242.556295,175.29113 Z" id="Shape" fill="#F7F7F7"></path>
                        <path d="M242.556295,177.136624 C238.463506,177.133995 234.592923,178.997944 232.043133,182.199428 C237.396041,177.921976 245.108609,178.350972 249.954115,183.19569 C254.799621,188.040407 255.229871,195.752906 250.95329,201.106509 C255.418904,197.538571 257.143246,191.538859 255.253474,186.144356 C253.363702,180.749854 248.272228,177.13782 242.556295,177.136624 L242.556295,177.136624 Z" id="Path" fill="#999999"></path>
                        <path d="M173.81166,239.166738 C161.256386,239.167982 149.936693,231.605825 145.131136,220.006622 C140.325578,208.407418 142.980572,195.055539 151.858052,186.17718 C160.735531,177.298821 174.087147,174.642503 185.686827,179.446911 C197.286507,184.251319 204.849785,195.570262 204.849785,208.125536 C204.836219,225.262295 190.948417,239.151473 173.81166,239.166738 Z" id="Path" fill="#C2C2C2"></path>
                        <path d="M173.81166,178.007082 C185.993717,178.005837 196.976943,185.343175 201.639677,196.597571 C206.30241,207.851968 203.726362,220.806957 195.112787,229.421412 C186.499211,238.035868 173.544485,240.613239 162.289612,235.951655 C151.034739,231.29007 143.69628,220.307594 143.69628,208.125536 C143.69628,191.492774 157.178897,178.00878 173.81166,178.007082 L173.81166,178.007082 Z M173.81166,176.161588 C160.883169,176.160344 149.22701,183.947321 144.278629,195.891332 C139.330248,207.835342 142.064188,221.584111 151.205571,230.726374 C160.346955,239.868637 174.09546,242.6039 186.039947,237.656668 C197.984433,232.709437 205.772532,221.054027 205.772532,208.125536 C205.758965,190.479159 191.458036,176.176854 173.81166,176.161588 L173.81166,176.161588 Z" id="Shape" fill="#F7F7F7"></path>
                        <path d="M173.81166,178.007082 C164.6513,178.000853 155.988208,182.172727 150.281617,189.338412 C162.261682,179.760887 179.52663,180.719672 190.372552,191.564806 C201.218474,202.40994 202.178514,219.674818 192.60186,231.655579 C202.60361,223.67374 206.468406,210.242477 202.238497,198.16553 C198.008589,186.088584 186.607938,178.00399 173.81166,178.007082 L173.81166,178.007082 Z" id="Path" fill="#999999"></path>
                        <path d="M231.02196,270.617024 C222.354635,270.617024 214.540751,265.395954 211.223909,257.38839 C207.907067,249.380825 209.740463,240.16372 215.869188,234.034996 C221.997912,227.906272 231.215017,226.072875 239.222581,229.389717 C247.230145,232.706559 252.451216,240.520443 252.451216,249.187768 C252.437656,261.017198 242.85139,270.603464 231.02196,270.617024 Z" id="Path" fill="#C2C2C2"></path>
                        <path d="M231.02196,228.681259 C239.316349,228.680015 246.79471,233.675477 249.969697,241.338135 C253.144684,249.000794 251.390994,257.821514 245.526415,263.686972 C239.661836,269.552431 230.84138,271.307444 223.178245,268.133607 C215.51511,264.959769 210.518527,257.482157 210.518526,249.187768 C210.518526,237.863537 219.697729,228.682957 231.02196,228.681259 L231.02196,228.681259 Z M231.02196,226.835765 C218.67729,226.835765 208.669957,236.843098 208.669957,249.187768 C208.669957,261.532439 218.67729,271.539771 231.02196,271.539771 C243.36663,271.539771 253.373963,261.532439 253.373963,249.187768 C253.360402,236.84872 243.361009,226.849327 231.02196,226.835765 L231.02196,226.835765 Z" id="Shape" fill="#F7F7F7"></path>
                        <path d="M231.02196,228.681259 C224.784869,228.677004 218.88623,231.517048 215,236.395422 C223.157484,229.87762 234.910478,230.532485 242.293386,237.91618 C249.676293,245.299876 250.329903,257.05294 243.81123,265.209728 C250.620529,259.774968 253.251729,250.630495 250.372156,242.407891 C247.492582,234.185286 239.731127,228.680344 231.018884,228.681259 L231.02196,228.681259 Z" id="Path" fill="#999999"></path>
                        <path d="M313.146423,267.412017 C303.845877,267.412017 296.306295,259.872435 296.306295,250.571888 C296.306295,241.271342 303.845877,233.73176 313.146423,233.73176 C322.44697,233.73176 329.986552,241.271342 329.986552,250.571888 C329.976381,259.868218 322.442754,267.401846 313.146423,267.412017 L313.146423,267.412017 Z" id="Path" fill="#C2C2C2"></path>
                        <path d="M313.146423,234.654506 C321.937351,234.654506 329.063805,241.780961 329.063805,250.571888 C329.063805,259.362816 321.937351,266.48927 313.146423,266.48927 C304.355496,266.48927 297.229041,259.362816 297.229041,250.571888 C297.229041,241.780961 304.355496,234.654506 313.146423,234.654506 L313.146423,234.654506 Z M313.146423,232.809013 C303.336258,232.809013 295.383548,240.761723 295.383548,250.571888 C295.383548,260.382054 303.336258,268.334764 313.146423,268.334764 C322.956589,268.334764 330.909299,260.382054 330.909299,250.571888 C330.897435,240.766641 322.95167,232.820876 313.146423,232.809013 L313.146423,232.809013 Z" id="Shape" fill="#F7F7F7"></path>
                        <path d="M313.146423,234.654506 C308.305303,234.651707 303.727083,236.856455 300.710873,240.643133 C307.043026,235.588036 316.162358,236.097481 321.89207,241.826405 C327.621782,247.555329 328.132481,256.674591 323.078255,263.007439 C328.364162,258.788863 330.406517,251.690258 328.170715,245.307595 C325.934913,238.924932 319.909351,234.652461 313.146423,234.654506 L313.146423,234.654506 Z" id="Path" fill="#999999"></path>
                        <path d="M221.48691,156.322532 C221.48691,157.860443 218.801717,159.090773 215.489056,159.090773 C212.176395,159.090773 209.491202,157.860443 209.491202,156.322532 C209.491202,154.784621 212.176395,153.554292 215.489056,153.554292 C218.801717,153.554292 221.48691,154.793848 221.48691,156.322532 Z" id="Path" fill="#000000" opacity="0.17"></path>
                        <path d="M192.488054,165.479256 C192.488054,167.017167 187.625179,168.247496 181.624249,168.247496 C175.623319,168.247496 170.760443,167.017167 170.760443,165.479256 C170.760443,163.941345 175.626395,162.711016 181.624249,162.711016 C187.622103,162.711016 192.488054,163.9598 192.488054,165.479256 Z" id="Path" fill="#000000" opacity="0.1"></path>
                        <path d="M165.753004,165.236266 C165.753004,166.774177 160.890129,168.004506 154.889199,168.004506 C148.888269,168.004506 144.025393,166.774177 144.025393,165.236266 C144.025393,163.698355 148.891345,162.468026 154.889199,162.468026 C160.887053,162.468026 165.753004,163.707582 165.753004,165.236266 Z" id="Path" fill="#000000" opacity="0.1"></path>
                        <path d="M194.26588,52.119814 C194.26588,53.7336074 192.957642,55.0418455 191.343848,55.0418455 L191.343848,55.0418455 C189.730055,55.0418455 188.421817,53.7336074 188.421817,52.119814 L188.421817,45.045422 C188.423512,43.4323314 189.730758,42.1250859 191.343848,42.1233906 L191.343848,42.1233906 C192.957642,42.1233906 194.26588,43.4316286 194.26588,45.045422 L194.26588,52.119814 Z" id="Path" fill="#8F8F8F"></path>
                        <path d="M190.977825,55.1587268 C189.511974,54.9806222 188.412599,53.7317529 188.421817,52.2551502 L188.421817,45.1253934 C188.411645,43.6209846 189.551114,42.3574273 191.048569,42.2125894 C192.294392,46.441626 192.269791,50.9435579 190.977825,55.1587268 L190.977825,55.1587268 Z" id="Path" fill="#6B6B6B"></path>
                        <path d="M149.35887,45.045422 C149.35887,43.4316286 148.050632,42.1233906 146.436838,42.1233906 L146.436838,42.1233906 C144.823748,42.1250859 143.516502,43.4323314 143.514807,45.045422 L143.514807,52.119814 C143.514807,53.7336074 144.823045,55.0418455 146.436838,55.0418455 L146.436838,55.0418455 C148.050632,55.0418455 149.35887,53.7336074 149.35887,52.119814 L149.35887,45.045422 Z" id="Path" fill="#8F8F8F"></path>
                        <path d="M146.68598,55.1587268 C148.176047,54.9922349 149.316018,53.7538777 149.35887,52.2551502 L149.35887,45.1253934 C149.314783,43.5982636 148.134076,42.3461594 146.61216,42.2125894 C145.369511,46.4422337 145.395178,50.9435284 146.68598,55.1587268 L146.68598,55.1587268 Z" id="Path" fill="#6B6B6B"></path>
                        <rect id="Rectangle" fill="#6B6B6B" x="145.052718" y="60.2707439" width="45.8297568" height="51.3662375" rx="16.81"></rect>
                        <rect id="Rectangle" fill="#8F8F8F" x="145.052718" y="60.2707439" width="45.8297568" height="1.84549356" rx="0.922746781"></rect>
                        <circle id="Oval" fill="#EDEDED" cx="168.770386" cy="48.5641631" r="22.4073677"></circle>
                        <path d="M166.223605,70.4609442 C177.49352,70.4657537 187.013389,62.0993442 188.456159,50.9221618 C189.89893,39.7449794 182.815607,29.2354003 171.913877,26.3782546 C180.140891,27.5522734 187.042468,33.1830721 189.844042,41.0069629 C192.645616,48.8308537 190.887003,57.562688 185.275197,63.692103 C179.663392,69.821518 171.120188,72.3416988 163.080114,70.239485 C164.121496,70.386543 165.171892,70.4605435 166.223605,70.4609442 Z" id="Path" fill="#DCDCDC"></path>
                        <path d="M168.770386,26.1444921 C171.720843,26.141243 174.642718,26.7224819 177.36731,27.8546495 C165.97176,24.9239465 154.250251,31.3052482 150.526726,42.4669214 C146.8032,53.6285945 152.345816,65.7691953 163.218526,70.2671674 C152.274747,67.4695562 145.12362,56.964472 146.533814,45.7571397 C147.944009,34.5498074 157.474682,26.1437576 168.770386,26.1444921 Z" id="Path" fill="#FFFFFF"></path>
                        <path d="M186.683977,92.6837625 C186.683977,92.6837625 192.746423,119.092775 183.783476,144.05 L171.129542,144.05 C171.129542,144.05 167.964521,132.494134 167.703076,115.884692 C167.703076,115.884692 165.857582,116.118455 166.032904,115.943133 C165.331617,121.756438 164.85794,138.956438 164.012089,143.28412 L150.567668,143.28412 C150.567668,143.28412 140.565093,110.62196 148.983619,89.5341202 C148.983619,89.5341202 141.601645,95.3474249 141.07568,100.883906 C141.07568,100.883906 142.656652,110.382046 140.811159,110.911087 C138.965665,111.440129 137.913734,104.322675 136.329685,105.642203 C134.745637,106.961731 138.965665,110.388197 138.4397,113.024177 C137.913734,115.660157 125.678112,112.030687 131.586767,101.689771 C133.693705,97.998784 133.16774,94.5723176 134.222747,89.3003577 C135.277754,84.0283977 137.123247,75.5914163 149.777182,63.9924893 C149.777182,63.9924893 166.912589,74.8009299 186.945422,63.7279685 C186.945422,63.7279685 203.028898,65.8379828 206.190844,45.8020744 C206.190844,45.8020744 203.028898,40.2655937 203.554864,38.6846209 C204.08083,37.1036481 205.400358,40.0041488 207.245851,38.6846209 C209.091345,37.365093 206.455365,32.8866953 211.201359,32.093133 C215.947353,31.2995708 219.899785,41.3667382 213.572818,47.9551502 C213.572818,47.9551502 219.37382,69.615093 186.683977,92.6837625 Z" id="Path" fill="#EDEDED"></path>
                        <path d="M152.348569,86.519814 C143.053433,109.434692 151.22897,133.782904 152.600787,143.317954 L150.567668,143.317954 C150.567668,143.317954 140.565093,110.640415 148.983619,89.5525751 C148.983619,89.5525751 141.601645,95.3566524 141.07568,100.893133 C141.07568,100.893133 141.998426,106.472675 141.607797,109.314735 C134.44113,91.6595136 152.348569,86.519814 152.348569,86.519814 Z" id="Path" fill="#000000" opacity="0.1"></path>
                        <path d="M131.586767,101.689771 C133.693705,97.998784 133.16774,94.5723176 134.222747,89.3003577 C135.277754,84.0283977 137.123247,75.5914163 149.777182,63.9924893 C149.777182,63.9924893 166.912589,74.8009299 186.945422,63.7279685 C186.945422,63.7279685 203.028898,65.8379828 206.190844,45.8020744 C206.190844,45.8020744 203.028898,40.2655937 203.554864,38.6846209 C204.08083,37.1036481 205.400358,40.0041488 207.245851,38.6846209 C209.091345,37.365093 206.455365,32.8866953 211.201359,32.093133 C212.714664,31.8409156 214.147997,32.7082976 215.199928,34.1908441 C214.482083,33.6947751 213.602023,33.4912612 212.73927,33.6218169 C207.996352,34.4123033 210.632332,38.8937768 208.786838,40.2133047 C206.941345,41.5328326 205.621817,38.6323319 205.095851,40.2133047 C204.569886,41.7942775 207.731831,47.3307582 207.731831,47.3307582 C204.542203,67.360515 188.474106,65.2566524 188.474106,65.2566524 C168.438197,76.3296137 151.30279,65.5211731 151.30279,65.5211731 C138.648856,77.1201001 136.803362,85.5570815 135.748355,90.8290415 C134.693348,96.1010014 135.222389,99.5274678 133.112375,103.218455 C130.787053,107.290844 131.266881,110.320529 132.752504,112.338269 C130.282618,110.498927 128.569385,106.970959 131.586767,101.689771 Z" id="Path" fill="#FFFFFF"></path>
                        <path d="M182.510086,143.025751 C191.473033,118.071602 185.410587,91.6595136 185.410587,91.6595136 C218.100429,68.5908441 212.299428,46.9309013 212.299428,46.9309013 C216.823963,42.2187411 216.088841,35.7287554 213.569742,32.7052217 C217.177682,34.5876252 219.173891,42.6339771 213.828112,48.2042918 C213.828112,48.2042918 219.626037,69.8642346 186.936195,92.9329041 C186.936195,92.9329041 193.001717,119.341917 184.03877,144.299142 L171.384835,144.299142 C171.384835,144.299142 171.261803,143.859299 171.077253,143.028827 L182.510086,143.025751 Z" id="Path" fill="#EDEDED"></path>
                        <path d="M167.90608,121.642632 L188.889342,117.115021 C188.864735,118.010086 188.821674,118.917454 188.769385,119.8402 L168.078326,124.303219 C168.014759,123.435837 167.957344,122.548975 167.90608,121.642632 Z" id="Path" fill="#089021"></path>
                        <path d="M172.673605,143.253362 C172.811262,143.565888 172.893485,143.899984 172.916595,144.240701 L171.129542,144.240701 C171.129542,144.240701 167.964521,132.715594 167.703076,116.106152 L170.723534,115.244921 C170.723534,115.244921 171.061874,139.09485 172.673605,143.253362 Z" id="Path" fill="#000000" opacity="0.1"></path>
                        <rect id="Rectangle" fill="#9E9E9E" x="170.329828" y="142.016881" width="15.2899142" height="3.69098712" rx="1.84549356"></rect>
                        <path d="M185.607439,144.126896 C185.540007,145.01706 184.799222,145.705602 183.906509,145.707868 L172.043062,145.707868 C171.150349,145.705602 170.409564,145.01706 170.342132,144.126896 L185.607439,144.126896 Z" id="Path" fill="#4F4F4F"></path>
                        <path d="M184.740057,147.817883 C184.740057,147.817883 184.389413,150.278541 184.214092,152.034835 C184.03877,153.79113 184.03877,154.846137 187.025393,156.956152 C190.012017,159.066166 193.527682,166.269742 182.983763,166.094421 C172.439843,165.919099 171.938484,163.993634 171.560157,156.42711 C171.384835,152.911445 170.855794,147.814807 170.855794,147.814807 L184.740057,147.817883 Z" id="Path" fill="#9E9E9E"></path>
                        <path d="M174.546781,147.817883 C174.546781,147.817883 175.072747,152.911445 175.251144,156.430186 C175.604864,163.526109 176.066237,166.125179 184.82618,166.565021 C184.212483,166.617145 183.596452,166.636652 182.980687,166.623462 C172.433691,166.44814 171.935408,163.99671 171.557082,156.430186 C171.38176,152.914521 170.852718,147.817883 170.852718,147.817883 L174.546781,147.817883 Z" id="Path" fill="#777777"></path>
                        <path d="M182.454721,163.984406 C187.594421,164.070529 189.387625,162.277325 189.529113,160.173462 C190.82711,163.129328 190.218097,166.740343 182.974535,166.63269 C174.106938,166.48505 172.344492,164.728755 171.781617,159.675179 C172.812017,162.711016 175.355722,163.867525 182.454721,163.984406 Z" id="Path" fill="#4F4F4F"></path>
                        <rect id="Rectangle" fill="#9E9E9E" x="170.329828" y="145.707868" width="15.2899142" height="3.69098712" rx="1.84549356"></rect>
                        <path d="M185.607439,147.817883 C185.540007,148.708047 184.799222,149.396589 183.906509,149.398856 L172.043062,149.398856 C171.150349,149.396589 170.409564,148.708047 170.342132,147.817883 L185.607439,147.817883 Z" id="Path" fill="#4F4F4F"></path>
                        <path d="M183.334406,148.869814 C182.687172,148.730083 182.012362,148.797887 181.405866,149.063591 C180.790701,149.371173 178.591488,148.002432 178.305436,148.672961 C177.711803,150.026323 178.305436,156.251788 183.226753,157.337554 C184.489565,157.765771 185.875888,157.62669 187.028469,156.956152 C185.877525,156.999784 184.735573,156.737645 183.718884,156.196423 C182.810965,155.665909 182.076004,154.883945 181.602718,153.944921 C181.107908,153.048532 180.932218,152.010662 181.104435,151.001359 C181.206517,150.507438 181.459017,150.057236 181.827253,149.712589 C182.265241,149.329454 182.77866,149.042359 183.334406,148.869814 L183.334406,148.869814 Z" id="Path" fill="#4F4F4F"></path>
                        <rect id="Rectangle" fill="#9E9E9E" x="150.007868" y="142.016881" width="15.2899142" height="3.69098712" rx="1.84549356"></rect>
                        <path d="M150.023247,144.126896 C150.089239,145.017754 150.830879,145.70709 151.724177,145.707868 L163.587625,145.707868 C164.480328,145.706976 165.221025,145.017269 165.285479,144.126896 L150.023247,144.126896 Z" id="Path" fill="#4F4F4F"></path>
                        <path d="M150.887554,147.817883 C150.887554,147.817883 151.241273,150.278541 151.416595,152.034835 C151.591917,153.79113 151.591917,154.846137 148.605293,156.956152 C145.61867,159.066166 142.103004,166.269742 152.646924,166.094421 C163.190844,165.919099 163.692203,163.993634 164.070529,156.42711 C164.245851,152.911445 164.771817,147.814807 164.771817,147.814807 L150.887554,147.817883 Z" id="Path" fill="#9E9E9E"></path>
                        <path d="M161.08083,147.817883 C161.08083,147.817883 160.554864,152.911445 160.379542,156.430186 C160.022747,163.526109 159.561373,165.869886 150.801431,166.309728 C151.415137,166.361685 152.03116,166.381192 152.646924,166.368169 C163.190844,166.192847 163.692203,163.99671 164.070529,156.430186 C164.245851,152.914521 164.771817,147.817883 164.771817,147.817883 L161.08083,147.817883 Z" id="Path" fill="#777777"></path>
                        <path d="M153.175966,163.984406 C148.039342,164.070529 146.243062,162.277325 146.101574,160.173462 C144.803577,163.129328 145.412589,166.740343 152.656152,166.63269 C161.520672,166.48505 163.286195,164.728755 163.84907,159.675179 C162.81867,162.711016 160.274964,163.867525 153.175966,163.984406 Z" id="Path" fill="#4F4F4F"></path>
                        <rect id="Rectangle" fill="#9E9E9E" x="150.007868" y="145.707868" width="15.2899142" height="3.69098712" rx="1.84549356"></rect>
                        <path d="M150.023247,147.817883 C150.089239,148.708741 150.830879,149.398077 151.724177,149.398856 L163.587625,149.398856 C164.480328,149.397963 165.221025,148.708256 165.285479,147.817883 L150.023247,147.817883 Z" id="Path" fill="#4F4F4F"></path>
                        <path d="M152.29628,148.869814 C152.942498,148.730114 153.616323,148.797927 154.221745,149.063591 C154.852289,149.371173 157.036123,148.002432 157.32525,148.672961 C157.915808,150.026323 157.32525,156.251788 152.403934,157.337554 C151.141122,157.765771 149.754799,157.62669 148.602217,156.956152 C149.752184,156.999827 150.893156,156.737668 151.908727,156.196423 C152.817423,155.666885 153.552629,154.884659 154.024893,153.944921 C154.520758,153.048901 154.697536,152.011011 154.526252,151.001359 C154.423033,150.507863 154.170714,150.057984 153.803433,149.712589 C153.365026,149.33005 152.851739,149.043028 152.29628,148.869814 L152.29628,148.869814 Z" id="Path" fill="#4F4F4F"></path>
                        <path d="M165.574607,121.802575 C165.519242,122.654578 165.466953,123.543491 165.411588,124.466237 L146.076967,119.957082 C146.076967,119.957082 146.076967,119.957082 146.076967,119.941702 C145.990844,119.043562 145.852432,118.133119 145.852432,117.216524 L145.852432,117.216524 L165.574607,121.802575 Z" id="Path" fill="#089021"></path>
                        <path d="M145.612518,111.295565 L145.578684,109.982189 C167.241702,113.617811 186.831617,109.477754 188.837053,109.016381 C188.864735,109.610014 188.88319,110.212876 188.901645,110.82804 C186.591702,111.335551 177.062804,113.245637 164.491917,113.245637 C158.169666,113.260509 151.8567,112.760574 145.615594,111.750787 C145.615594,111.600072 145.612518,111.449356 145.612518,111.295565 Z" id="Path" fill="#B2B2B2"></path>
                        <path d="M186.936195,92.9390558 C187.660974,96.4142927 188.174552,99.9302466 188.474106,103.467597 C185.791989,95.4120172 183.55279,85.2279685 183.55279,85.2279685 C209.525036,79.8821888 213.843491,48.2104435 213.843491,48.2104435 C213.843491,48.2104435 219.613734,69.8703863 186.936195,92.9390558 Z" id="Path" fill="#DCDCDC"></path>
                        <path d="M175.503362,90.1708155 C175.507464,90.6457988 175.321646,91.102739 174.987217,91.4400564 C174.652787,91.7773738 174.197462,91.9671136 173.722461,91.9670959 L160.370315,91.9670959 C159.386251,91.9670973 158.588034,91.1702565 158.586338,90.1861946 L158.586338,82.6627325 C158.586338,82.1895923 158.774292,81.7358308 159.108852,81.4012702 C159.443413,81.0667096 159.897175,80.8787554 160.370315,80.8787554 L173.722461,80.8787554 C174.706523,80.880452 175.503363,81.6786691 175.503362,82.6627325 L175.503362,90.1708155 Z M174.580615,82.567382 C174.581433,82.3645414 174.501428,82.1697281 174.358285,82.0260086 C174.215143,81.8822892 174.020653,81.8015005 173.817811,81.8015021 L160.284192,81.8015021 C160.080817,81.8006804 159.885535,81.8811072 159.741726,82.024916 C159.597917,82.1687249 159.51749,82.3640072 159.518312,82.567382 L159.518312,89.9493562 C159.51831,90.1521985 159.599099,90.3466882 159.742818,90.4898305 C159.886538,90.6329727 160.081351,90.7129781 160.284192,90.7121602 L173.817811,90.7121602 C174.239096,90.7121602 174.580615,90.3706412 174.580615,89.9493562 L174.580615,82.567382 Z" id="Shape" fill="#C1C1C1"></path>
                        <rect id="Rectangle" fill="#D1D1D1" x="164.122818" y="83.0318312" width="6.45922747" height="7.07439199" rx="3.22961373"></rect>
                        <path d="M168.973391,69.424392 C171.310787,69.4256353 173.642839,69.2010827 175.937053,68.7538627 C182.39628,67.4927754 186.361016,64.9306152 186.52711,64.8198856 C187.104919,64.4309026 187.262971,63.6498494 186.881857,63.0668207 C186.500743,62.4837919 185.721904,62.3151654 185.133763,62.6883405 C185.072246,62.7283262 181.313591,65.1274678 175.337268,66.2778255 C167.340129,67.8157368 159.361445,66.5023605 151.631903,62.3776824 C151.015153,62.0709784 150.266318,62.3102938 149.941744,62.9178295 C149.61717,63.5253651 149.834528,64.2808657 150.432332,64.6230329 C157.316023,68.2986409 163.713734,69.424392 168.973391,69.424392 Z" id="Path" fill="#BFBFBF"></path>
                        <path d="M150.177039,63.3619456 C157.06073,67.0375536 163.458441,68.1633047 168.718097,68.1633047 C171.056511,68.164516 173.389579,67.9399646 175.684835,67.4927754 C182.144063,66.2316881 186.105722,63.6695279 186.271817,63.5618741 C186.504567,63.4073752 186.679743,63.1802962 186.7701,62.9159514 C186.817096,62.9640514 186.859329,63.0165851 186.896209,63.0728183 C187.080792,63.3550069 187.145607,63.699005 187.076374,64.0290171 C187.007141,64.3590292 186.80954,64.647975 186.52711,64.8321888 C186.361016,64.9429185 182.387053,67.5050787 175.937053,68.766166 C173.642839,69.2133859 171.310787,69.4379386 168.973391,69.4366953 C163.713734,69.4366953 157.316023,68.3109442 150.432332,64.6353362 C149.881322,64.3400544 149.627964,63.68707 149.835622,63.0974249 C149.933738,63.204176 150.049164,63.2936051 150.177039,63.3619456 Z" id="Path" fill="#8F8F8F"></path>
                        <path d="M168.090629,86.5444206 C168.090629,86.8960577 168.375688,87.1811159 168.727325,87.1811159 C169.078962,87.1811159 169.36402,86.8960577 169.36402,86.5444206 C169.36402,86.1927835 169.078962,85.9077253 168.727325,85.9077253 C168.558463,85.9077253 168.396517,85.9748055 168.277113,86.0942091 C168.15771,86.2136126 168.090629,86.3755585 168.090629,86.5444206 Z" id="Path" fill="#A5A5A5"></path>
                        <path d="M168.090629,84.508226 C168.090629,84.8598631 168.375688,85.1449213 168.727325,85.1449213 C169.078962,85.1449213 169.36402,84.8598631 169.36402,84.508226 C169.36402,84.1565889 169.078962,83.8715308 168.727325,83.8715308 C168.558463,83.8715308 168.396517,83.938611 168.277113,84.0580145 C168.15771,84.177418 168.090629,84.339364 168.090629,84.508226 Z" id="Path" fill="#A5A5A5"></path>
                        <path d="M168.090629,88.583691 C168.090629,88.9353281 168.375688,89.2203863 168.727325,89.2203863 C169.078962,89.2203863 169.36402,88.9353281 169.36402,88.583691 C169.36402,88.2320539 169.078962,87.9469957 168.727325,87.9469957 C168.558463,87.9469957 168.396517,88.0140759 168.277113,88.1334794 C168.15771,88.252883 168.090629,88.4148289 168.090629,88.583691 Z" id="Path" fill="#A5A5A5"></path>
                        <path d="M165.291631,86.5444206 C165.291631,86.8960577 165.576689,87.1811159 165.928326,87.1811159 C166.279963,87.1811159 166.565021,86.8960577 166.565021,86.5444206 C166.565021,86.1927835 166.279963,85.9077253 165.928326,85.9077253 C165.576689,85.9077253 165.291631,86.1927835 165.291631,86.5444206 Z" id="Path" fill="#A5A5A5"></path>
                        <path d="M165.291631,84.508226 C165.291631,84.8598631 165.576689,85.1449213 165.928326,85.1449213 C166.279963,85.1449213 166.565021,84.8598631 166.565021,84.508226 C166.565021,84.1565889 166.279963,83.8715308 165.928326,83.8715308 C165.576689,83.8715308 165.291631,84.1565889 165.291631,84.508226 Z" id="Path" fill="#A5A5A5"></path>
                        <path d="M165.291631,88.583691 C165.291631,88.9353281 165.576689,89.2203863 165.928326,89.2203863 C166.279963,89.2203863 166.565021,88.9353281 166.565021,88.583691 C166.565021,88.2320539 166.279963,87.9469957 165.928326,87.9469957 C165.576689,87.9469957 165.291631,88.2320539 165.291631,88.583691 Z" id="Path" fill="#A5A5A5"></path>
                        <path d="M149.07897,71.4790415 L146.193848,74.7055794 L142.502861,71.6543634 C143.251311,70.7254649 144.071531,69.7699094 144.963519,68.7876967 L149.07897,71.4790415 Z" id="Path" fill="#089021"></path>
                        <path d="M146.642918,69.8826896 C145.681211,70.9079638 144.804602,71.9137577 144.01309,72.9000715 L142.509013,71.6697425 C143.257463,70.7408441 144.077682,69.7852885 144.969671,68.8030758 L146.642918,69.8826896 Z" id="Path" fill="#FFFFFF" opacity="0.33"></path>
                        <path d="M175.64485,95.658083 C175.643606,96.4834493 176.140002,97.2281791 176.902303,97.544608 C177.664605,97.861037 178.542477,97.6867612 179.1261,97.1031384 C179.709723,96.5195156 179.883998,95.6416437 179.567569,94.8793419 C179.25114,94.1170402 178.506411,93.6206445 177.681044,93.6218884 C176.556485,93.6218884 175.64485,94.5335238 175.64485,95.658083 Z" id="Path" fill="#D1D1D1"></path>
                        <path d="M178.954435,100.760873 C178.953191,101.586239 179.449587,102.330969 180.211888,102.647398 C180.97419,102.963827 181.852062,102.789551 182.435685,102.205928 C183.019308,101.622305 183.193583,100.744433 182.877155,99.9821316 C182.560726,99.2198299 181.815996,98.7234342 180.990629,98.7246781 C179.86607,98.7246781 178.954435,99.6363135 178.954435,100.760873 Z" id="Path" fill="#D1D1D1"></path>
                        <path d="M178.446924,106.617239 C178.446924,107.741798 179.35856,108.653433 180.483119,108.653433 C181.607678,108.653433 182.519313,107.741798 182.519313,106.617239 C182.519313,105.49268 181.607678,104.581044 180.483119,104.581044 C179.35856,104.581044 178.446924,105.49268 178.446924,106.617239 L178.446924,106.617239 Z" id="Path" fill="#D1D1D1"></path>
                        <path d="M159.349142,95.658083 C159.349142,96.7826422 158.437506,97.6942775 157.312947,97.6942775 C156.188388,97.6942775 155.276753,96.7826422 155.276753,95.658083 C155.276753,94.5335238 156.188388,93.6218884 157.312947,93.6218884 C158.437506,93.6218884 159.349142,94.5335238 159.349142,95.658083 L159.349142,95.658083 Z" id="Path" fill="#D1D1D1"></path>
                        <path d="M156.039557,100.760873 C156.0408,101.586239 155.544405,102.330969 154.782103,102.647398 C154.019801,102.963827 153.141929,102.789551 152.558307,102.205928 C151.974684,101.622305 151.800408,100.744433 152.116837,99.9821316 C152.433266,99.2198299 153.177996,98.7234342 154.003362,98.7246781 C154.543394,98.7246781 155.061308,98.9392051 155.443169,99.3210657 C155.825029,99.7029262 156.039557,100.22084 156.039557,100.760873 Z" id="Path" fill="#D1D1D1"></path>
                        <path d="M156.559371,106.617239 C156.559371,107.741798 155.647735,108.653433 154.523176,108.653433 C153.398617,108.653433 152.486981,107.741798 152.486981,106.617239 C152.486981,105.49268 153.398617,104.581044 154.523176,104.581044 C155.647735,104.581044 156.559371,105.49268 156.559371,106.617239 L156.559371,106.617239 Z" id="Path" fill="#D1D1D1"></path>
                        <rect id="Rectangle" fill="#BFBFBF" x="151.511946" y="32.8959227" width="34.7567954" height="31.6809728" rx="15.8404864"></rect>
                        <path d="M151.964092,48.5641631 C151.964091,52.6157546 153.57379,56.5013586 156.438987,59.365978 C159.304183,62.2305974 163.190111,63.839514 167.241702,63.8386981 L170.29907,63.8386981 C178.734963,63.8386981 185.573605,57.0000559 185.573605,48.5641631 L185.573605,48.5641631 C185.574421,44.5125716 183.965504,40.6266436 181.100885,37.7614474 C178.236266,34.8962511 174.350662,33.2865521 170.29907,33.2865522 L167.241702,33.2865522 C158.804111,33.2865522 151.964092,40.1265716 151.964092,48.5641631 L151.964092,48.5641631 Z" id="Path" fill="#292534"></path>
                        <path d="M160.367239,34.919814 C155.506624,39.0768438 153.750617,45.821982 155.967124,51.8214464 C158.183631,57.8209108 163.903253,61.8041716 170.29907,61.8025036 L173.353362,61.8025036 C175.746444,61.8073396 178.106939,61.2477756 180.243205,60.1692418 C177.479151,62.5407586 173.956436,63.8426793 170.314449,63.8386981 L167.257082,63.8386981 C160.187101,63.8309542 154.045969,58.9733085 152.410559,52.0950729 C150.775148,45.2168374 154.07272,38.1149895 160.382618,34.9259657 L160.367239,34.919814 Z" id="Path" fill="#000014"></path>
                        <path d="M173.860873,35.6610873 C173.860873,35.6610873 185.066094,39.9057225 181.501216,53.6546495 C181.501216,53.6546495 182.423963,42.7077969 168.856509,36.7653076 C168.862661,35.7472103 173.860873,35.6610873 173.860873,35.6610873 Z" id="Path" fill="#FFFFFF"></path>
                        <path d="M271.358298,73.9550787 C271.358298,73.9550787 295.371245,91.5241774 334.627969,78.3473534 C279.764521,77.3538627 278.626466,36.3562232 278.626466,36.3562232 L271.358298,73.9550787 Z" id="Path" fill="#02F32E"></path>
                        <path d="M263.376538,47.3922747 L280.293562,47.2323319 C280.293562,47.2323319 283.766166,57.3825465 280.293562,64.8721745 C278.448069,68.8307582 275.741345,77.2369814 269.811159,73.0507868 C262.619886,67.9756795 263.376538,47.3922747 263.376538,47.3922747 Z" id="Path" fill="#0D581B"></path>
                        <path d="M217.31917,68.8307582 C217.31917,68.8307582 275.326109,51.8245351 280.296638,64.8721745 C282.194421,60.1415594 292.04628,33.9786123 280.145923,28.4851931 C263.844063,20.9555794 217.31917,32.6190987 217.31917,32.6190987 L217.31917,68.8307582 Z" id="Path" fill="#02F32E"></path>
                        <path d="M224.587339,30.9704578 C220.121245,31.9178112 217.31917,32.6190987 217.31917,32.6190987 L217.31917,68.8307582 C217.31917,68.8307582 220.1397,68.0033619 224.587339,66.8560801 L224.587339,30.9704578 Z" id="Path" fill="#0D581B" opacity="0.63"></path>
                        <rect id="Rectangle" fill="#DBDBDB" x="212.105651" y="30.4352647" width="6.15164521" height="126.723891"></rect>
                        <rect id="Rectangle" fill="#B3B3B3" x="216.411803" y="30.4352647" width="1.84549356" height="126.723891"></rect>
                        <path d="M221.871388,25.1325465 C221.871388,28.6998793 218.979493,31.591774 215.41216,31.591774 C211.844827,31.591774 208.952933,28.6998793 208.952933,25.1325465 C208.952933,21.5652137 211.844827,18.673319 215.41216,18.673319 C218.979493,18.673319 221.871388,21.5652137 221.871388,25.1325465 Z" id="Path" fill="#F2F2F2"></path>
                        <path d="M218.36495,19.3776824 C220.471456,21.7018318 220.603713,25.2034205 218.678528,27.6798495 C216.753344,30.1562785 213.327283,30.8916182 210.555436,29.423319 C212.286057,31.3327467 214.986062,32.0307823 217.425271,31.1993859 C219.86448,30.3679895 221.57611,28.1662627 221.780306,25.5973592 C221.984502,23.0284557 220.642188,20.583978 218.36495,19.3776824 L218.36495,19.3776824 Z" id="Path" fill="#CCCCCC"></path>
                        <path d="M136.717239,446.30186 C138.018312,446.37568 139.537768,454.69578 140.423605,455.68927 C141.309442,456.682761 148.845207,458.688197 148.777539,459.844707 C148.709871,461.001216 140.528183,461.997783 139.420887,462.972818 C138.313591,463.947854 136.53269,471.978827 135.231617,471.892704 C133.930544,471.806581 133.26309,463.837124 132.103505,462.536052 C130.94392,461.234979 123.106724,459.50329 123.183619,458.346781 C123.260515,457.190272 131.660587,456.003004 132.540272,455.21867 C133.419957,454.434335 135.416166,446.221888 136.717239,446.30186 Z" id="Path" fill="#FFFFFF"></path>
                        <path d="M309.24628,437.997139 C309.962947,437.849499 312.014521,442.137196 312.629685,442.54628 C313.24485,442.955365 317.637124,442.939986 317.769385,443.576681 C317.901645,444.213376 313.610873,445.945064 313.155651,446.652504 C312.700429,447.359943 312.909585,451.961373 312.192918,452.112089 C311.476252,452.262804 309.944492,448.030472 309.117096,447.498355 C308.2897,446.966237 303.792847,447.172318 303.660587,446.535622 C303.528326,445.898927 307.914449,444.022675 308.27432,443.4598 C308.634192,442.896924 308.529614,438.144778 309.24628,437.997139 Z" id="Path" fill="#FFFFFF"></path>
                        <path d="M71.8296853,447.587554 C71.9434907,453.997568 74.2565093,455.27711 79.06402,455.027969 C73.6167382,455.507797 71.9434907,456.332117 72.0111588,462.468383 C71.9434907,456.316738 69.858083,455.027969 64.8260372,455.280186 C71.0053648,455.027969 71.7374106,453.53927 71.8296853,447.587554 Z" id="Path" fill="#FFFFFF"></path>
                        <path d="M416.327969,436.370029 C416.441774,442.780043 418.754793,444.059585 423.562303,443.810443 C418.111946,444.290272 416.441774,445.114592 416.509442,451.250858 C416.441774,445.114592 414.356366,443.810443 409.321245,444.062661 C415.503648,443.810443 416.235694,442.321745 416.327969,436.370029 Z" id="Path" fill="#FFFFFF"></path>
                        <path d="M16.194206,437.51731 C16.3080114,443.927325 18.62103,445.206867 23.4285408,444.957725 C17.9812589,445.440629 16.3080114,446.26495 16.3787554,452.39814 C16.3080114,446.26495 14.2256795,444.957725 9.19055794,445.209943 C15.379113,444.957725 16.1019313,443.469027 16.194206,437.51731 Z" id="Path" fill="#FFFFFF"></path>
                        <circle id="Oval" fill="#FFFFFF" transform="translate(371.622565, 435.853436) rotate(-76.720000) translate(-371.622565, -435.853436) " cx="371.622565" cy="435.853436" r="3.66945637"></circle>
                        <circle id="Oval" fill="#FFFFFF" cx="369.141774" cy="484.0299" r="1.83319027"></circle>
                        <path d="M225.05794,472.409442 C225.05794,473.42868 224.231684,474.254936 223.212446,474.254936 C222.193208,474.254936 221.366953,473.42868 221.366953,472.409442 C221.366953,471.390204 222.193208,470.563948 223.212446,470.563948 C224.231684,470.563948 225.05794,471.390204 225.05794,472.409442 Z" id="Path" fill="#FFFFFF"></path>
                        <path d="M63.0758941,405.476466 C63.0758941,406.495704 62.2496385,407.32196 61.2304006,407.32196 C60.2111626,407.32196 59.384907,406.495704 59.384907,405.476466 C59.384907,404.457228 60.2111626,403.630973 61.2304006,403.630973 C62.2496385,403.630973 63.0758941,404.457228 63.0758941,405.476466 Z" id="Path" fill="#FFFFFF"></path>
                    </g>
                </g>
            </g>
        </g>
    </g>
</svg>