<?xml version="1.0" encoding="UTF-8"?>
<svg width="962px" height="486px" viewBox="0 0 962 486" version="1.1" xmlns="http://www.w3.org/2000/svg" xmlns:xlink="http://www.w3.org/1999/xlink">
    <!-- Generator: Sketch 55.2 (78181) - https://sketchapp.com -->
    <title>Group 33</title>
    <desc>Created with Sketch.</desc>
    <defs>
        <rect id="path-1" x="0" y="0" width="296" height="216" rx="4"></rect>
        <filter x="-6.8%" y="-7.4%" width="113.5%" height="118.5%" filterUnits="objectBoundingBox" id="filter-2">
            <feMorphology radius="7" operator="erode" in="SourceAlpha" result="shadowSpreadOuter1"></feMorphology>
            <feOffset dx="0" dy="4" in="shadowSpreadOuter1" result="shadowOffsetOuter1"></feOffset>
            <feGaussianBlur stdDeviation="13" in="shadowOffsetOuter1" result="shadowBlurOuter1"></feGaussianBlur>
            <feColorMatrix values="0 0 0 0 0.517068614   0 0 0 0 0.517068614   0 0 0 0 0.517068614  0 0 0 1 0" type="matrix" in="shadowBlurOuter1"></feColorMatrix>
        </filter>
        <rect id="path-3" x="0" y="0" width="296" height="216" rx="4"></rect>
        <filter x="-6.8%" y="-7.4%" width="113.5%" height="118.5%" filterUnits="objectBoundingBox" id="filter-4">
            <feMorphology radius="7" operator="erode" in="SourceAlpha" result="shadowSpreadOuter1"></feMorphology>
            <feOffset dx="0" dy="4" in="shadowSpreadOuter1" result="shadowOffsetOuter1"></feOffset>
            <feGaussianBlur stdDeviation="13" in="shadowOffsetOuter1" result="shadowBlurOuter1"></feGaussianBlur>
            <feColorMatrix values="0 0 0 0 0.517068614   0 0 0 0 0.517068614   0 0 0 0 0.517068614  0 0 0 1 0" type="matrix" in="shadowBlurOuter1"></feColorMatrix>
        </filter>
        <linearGradient x1="6.31666667%" y1="93.9407358%" x2="93.6833333%" y2="6.33402222%" id="linearGradient-5">
            <stop stop-color="#00AEE9" offset="0%"></stop>
            <stop stop-color="#69FABD" offset="100%"></stop>
        </linearGradient>
        <rect id="path-6" x="0" y="0" width="296" height="216" rx="4"></rect>
        <filter x="-6.8%" y="-7.4%" width="113.5%" height="118.5%" filterUnits="objectBoundingBox" id="filter-7">
            <feMorphology radius="7" operator="erode" in="SourceAlpha" result="shadowSpreadOuter1"></feMorphology>
            <feOffset dx="0" dy="4" in="shadowSpreadOuter1" result="shadowOffsetOuter1"></feOffset>
            <feGaussianBlur stdDeviation="13" in="shadowOffsetOuter1" result="shadowBlurOuter1"></feGaussianBlur>
            <feColorMatrix values="0 0 0 0 0.517068614   0 0 0 0 0.517068614   0 0 0 0 0.517068614  0 0 0 1 0" type="matrix" in="shadowBlurOuter1"></feColorMatrix>
        </filter>
        <rect id="path-8" x="0" y="0" width="296" height="216" rx="4"></rect>
        <filter x="-7.8%" y="-8.8%" width="115.5%" height="121.3%" filterUnits="objectBoundingBox" id="filter-9">
            <feMorphology radius="5.5" operator="erode" in="SourceAlpha" result="shadowSpreadOuter1"></feMorphology>
            <feOffset dx="0" dy="4" in="shadowSpreadOuter1" result="shadowOffsetOuter1"></feOffset>
            <feGaussianBlur stdDeviation="12.5" in="shadowOffsetOuter1" result="shadowBlurOuter1"></feGaussianBlur>
            <feColorMatrix values="0 0 0 0 0.517068614   0 0 0 0 0.517068614   0 0 0 0 0.517068614  0 0 0 1 0" type="matrix" in="shadowBlurOuter1"></feColorMatrix>
        </filter>
        <rect id="path-10" x="0" y="0" width="296" height="216" rx="4"></rect>
        <filter x="-6.8%" y="-7.4%" width="113.5%" height="118.5%" filterUnits="objectBoundingBox" id="filter-11">
            <feMorphology radius="7" operator="erode" in="SourceAlpha" result="shadowSpreadOuter1"></feMorphology>
            <feOffset dx="0" dy="4" in="shadowSpreadOuter1" result="shadowOffsetOuter1"></feOffset>
            <feGaussianBlur stdDeviation="13" in="shadowOffsetOuter1" result="shadowBlurOuter1"></feGaussianBlur>
            <feColorMatrix values="0 0 0 0 0.517068614   0 0 0 0 0.517068614   0 0 0 0 0.517068614  0 0 0 1 0" type="matrix" in="shadowBlurOuter1"></feColorMatrix>
        </filter>
        <rect id="path-12" x="0" y="0" width="296" height="216" rx="4"></rect>
        <filter x="-7.8%" y="-8.8%" width="115.5%" height="121.3%" filterUnits="objectBoundingBox" id="filter-13">
            <feMorphology radius="5.5" operator="erode" in="SourceAlpha" result="shadowSpreadOuter1"></feMorphology>
            <feOffset dx="0" dy="4" in="shadowSpreadOuter1" result="shadowOffsetOuter1"></feOffset>
            <feGaussianBlur stdDeviation="12.5" in="shadowOffsetOuter1" result="shadowBlurOuter1"></feGaussianBlur>
            <feColorMatrix values="0 0 0 0 0.517068614   0 0 0 0 0.517068614   0 0 0 0 0.517068614  0 0 0 1 0" type="matrix" in="shadowBlurOuter1"></feColorMatrix>
        </filter>
    </defs>
    <g id="Page-1" stroke="none" stroke-width="1" fill="none" fill-rule="evenodd">
        <g id="Home-Copy-6" transform="translate(-240.000000, -2339.000000)">
            <g id="Group-33" transform="translate(252.000000, 2347.000000)">
                <g id="Group-27">
                    <g id="Rectangle-Copy-3">
                        <use fill="black" fill-opacity="1" filter="url(#filter-2)" xlink:href="#path-1"></use>
                        <use fill="#FFFFFF" fill-rule="evenodd" xlink:href="#path-1"></use>
                    </g>
                    <g id="Group-24" transform="translate(82.000000, 53.000000)">
                        <path d="M38.422,79.6 C38.0739983,79.6 37.7920011,79.4920011 37.576,79.276 C37.3599989,79.0599989 37.252,78.7780017 37.252,78.43 L37.252,67 L42.58,67 C43.6480053,67 44.5089967,67.2549974 45.163,67.765 C45.8170033,68.2750025 46.144,68.9499958 46.144,69.79 L46.144,70.744 C46.144,71.1880022 46.042001,71.610998 45.838,72.013 C45.633999,72.415002 45.3520018,72.7359988 44.992,72.976 L44.992,72.994 C45.5800029,73.1500008 46.0509982,73.4529977 46.405,73.903 C46.7590018,74.3530022 46.936,74.877997 46.936,75.478 L46.936,76.342 C46.936,77.3260049 46.6240031,78.114997 46,78.709 C45.3759969,79.303003 44.5300053,79.6 43.462,79.6 L38.422,79.6 Z M42.94,72.688 C43.5040028,72.688 43.9569983,72.5110018 44.299,72.157 C44.6410017,71.8029982 44.812,71.3320029 44.812,70.744 L44.812,69.79 C44.812,69.3099976 44.6050021,68.9230015 44.191,68.629 C43.7769979,68.3349985 43.2400033,68.188 42.58,68.188 L38.584,68.188 L38.584,72.688 L42.94,72.688 Z M43.282,78.412 C44.0020036,78.412 44.5689979,78.2230019 44.983,77.845 C45.3970021,77.4669981 45.604,76.9660031 45.604,76.342 L45.604,75.478 C45.604,74.9739975 45.4240018,74.5690015 45.064,74.263 C44.7039982,73.9569985 44.2300029,73.804 43.642,73.804 L38.584,73.804 L38.584,78.412 L43.282,78.412 Z M50.068,69.268 C49.7799986,69.268 49.5460009,69.1780009 49.366,68.998 C49.1859991,68.8179991 49.096,68.5840014 49.096,68.296 C49.096,68.0079986 49.1859991,67.7740009 49.366,67.594 C49.5460009,67.4139991 49.7799986,67.324 50.068,67.324 C50.3560014,67.324 50.5899991,67.4139991 50.77,67.594 C50.9500009,67.7740009 51.04,68.0079986 51.04,68.296 C51.04,68.5840014 50.9500009,68.8179991 50.77,68.998 C50.5899991,69.1780009 50.3560014,69.268 50.068,69.268 Z M49.42,70.618 L50.716,70.618 L50.716,79.6 L49.42,79.6 L49.42,70.618 Z M57.304,79.6 C56.3559953,79.6 55.6750021,79.396002 55.261,78.988 C54.8469979,78.579998 54.64,77.9080047 54.64,76.972 L54.64,71.77 L53.056,71.77 L53.056,70.618 L54.64,70.618 L54.64,67.9 L55.936,67.9 L55.936,70.618 L58.276,70.618 L58.276,71.77 L55.936,71.77 L55.936,76.972 C55.936,77.5000026 56.040999,77.8779989 56.251,78.106 C56.4610011,78.3340011 56.8119975,78.448 57.304,78.448 L58.276,78.448 L58.276,79.6 L57.304,79.6 Z M63.568,79.744 C62.5839951,79.744 61.792,79.447003 61.192,78.853 C60.591997,78.258997 60.292,77.4700049 60.292,76.486 L60.292,73.912 C60.292,72.8799948 60.591997,72.0490031 61.192,71.419 C61.792,70.7889968 62.5779951,70.474 63.55,70.474 L65.026,70.474 C65.9500046,70.474 66.6939972,70.7319974 67.258,71.248 C67.8220028,71.7640026 68.104,72.4419958 68.104,73.282 L66.844,73.282 C66.844,72.7899975 66.6790017,72.3910015 66.349,72.085 C66.0189984,71.7789985 65.5780028,71.626 65.026,71.626 L63.55,71.626 C62.9619971,71.626 62.4880018,71.8359979 62.128,72.256 C61.7679982,72.6760021 61.588,73.2279966 61.588,73.912 L61.588,76.486 C61.588,77.1220032 61.7709982,77.6319981 62.137,78.016 C62.5030018,78.4000019 62.9799971,78.592 63.568,78.592 L65.044,78.592 C65.6080028,78.592 66.0609983,78.394002 66.403,77.998 C66.7450017,77.601998 66.916,77.0740033 66.916,76.414 L68.176,76.414 C68.176,77.410005 67.8880029,78.2139969 67.312,78.826 C66.7359971,79.4380031 65.9800047,79.744 65.044,79.744 L63.568,79.744 Z M73.288,79.744 C72.279995,79.744 71.4700031,79.4320031 70.858,78.808 C70.2459969,78.1839969 69.94,77.3620051 69.94,76.342 L69.94,73.876 C69.94,72.8559949 70.2489969,72.0340031 70.867,71.41 C71.4850031,70.7859969 72.3039949,70.474 73.324,70.474 L74.8,70.474 C75.8200051,70.474 76.6389969,70.7859969 77.257,71.41 C77.8750031,72.0340031 78.184,72.8559949 78.184,73.876 L78.184,76.342 C78.184,77.3620051 77.8720031,78.1839969 77.248,78.808 C76.6239969,79.4320031 75.7960052,79.744 74.764,79.744 L73.288,79.744 Z M74.764,78.592 C75.4120032,78.592 75.9279981,78.3850021 76.312,77.971 C76.6960019,77.5569979 76.888,77.0140034 76.888,76.342 L76.888,73.876 C76.888,73.2039966 76.6960019,72.6610021 76.312,72.247 C75.9279981,71.8329979 75.4240031,71.626 74.8,71.626 L73.324,71.626 C72.6999969,71.626 72.1960019,71.8329979 71.812,72.247 C71.4279981,72.6610021 71.236,73.2039966 71.236,73.876 L71.236,76.342 C71.236,77.0260034 71.4219981,77.571998 71.794,77.98 C72.1660019,78.388002 72.6639969,78.592 73.288,78.592 L74.764,78.592 Z M81.532,69.268 C81.2439986,69.268 81.0100009,69.1780009 80.83,68.998 C80.6499991,68.8179991 80.56,68.5840014 80.56,68.296 C80.56,68.0079986 80.6499991,67.7740009 80.83,67.594 C81.0100009,67.4139991 81.2439986,67.324 81.532,67.324 C81.8200014,67.324 82.0539991,67.4139991 82.234,67.594 C82.4140009,67.7740009 82.504,68.0079986 82.504,68.296 C82.504,68.5840014 82.4140009,68.8179991 82.234,68.998 C82.0539991,69.1780009 81.8200014,69.268 81.532,69.268 Z M80.884,70.618 L82.18,70.618 L82.18,79.6 L80.884,79.6 L80.884,70.618 Z M85.24,70.618 L86.5,70.618 L86.5,71.95 C86.7760014,71.5179978 87.1359978,71.1640014 87.58,70.888 C88.0240022,70.6119986 88.4679978,70.474 88.912,70.474 L90.136,70.474 C90.9640041,70.474 91.6329975,70.7559972 92.143,71.32 C92.6530026,71.8840028 92.908,72.6219954 92.908,73.534 L92.908,79.6 L91.612,79.6 L91.612,73.498 C91.612,72.9459972 91.4740014,72.4960017 91.198,72.148 C90.9219986,71.7999983 90.5560023,71.626 90.1,71.626 L88.948,71.626 C88.3839972,71.626 87.8710023,71.8479978 87.409,72.292 C86.9469977,72.7360022 86.6560006,73.3059965 86.536,74.002 L86.536,79.6 L85.24,79.6 L85.24,70.618 Z" id="Bitcoin" stroke="#2A3036" stroke-width="0.75" fill="#2A3036" fill-rule="nonzero"></path>
                        <path d="M1.04,106 C0.70933168,106 0.45333424,105.909334 0.272,105.728 C0.09066576,105.546666 2.07478479e-12,105.290668 2.07478479e-12,104.96 L2.07478479e-12,94.8 L1.184,94.8 L1.184,104.944 L7.264,104.944 L7.264,106 L1.04,106 Z M9.76,96.816 C9.50399872,96.816 9.2960008,96.7360008 9.136,96.576 C8.9759992,96.4159992 8.896,96.2080013 8.896,95.952 C8.896,95.6959987 8.9759992,95.4880008 9.136,95.328 C9.2960008,95.1679992 9.50399872,95.088 9.76,95.088 C10.0160013,95.088 10.2239992,95.1679992 10.384,95.328 C10.5440008,95.4880008 10.624,95.6959987 10.624,95.952 C10.624,96.2080013 10.5440008,96.4159992 10.384,96.576 C10.2239992,96.7360008 10.0160013,96.816 9.76,96.816 Z M9.184,98.016 L10.336,98.016 L10.336,106 L9.184,106 L9.184,98.016 Z M15.648,109.248 C14.9439965,109.248 14.362669,109.058669 13.904,108.68 C13.445331,108.301331 13.1893336,107.80267 13.136,107.184 L14.288,107.184 C14.3306669,107.504002 14.4773321,107.762666 14.728,107.96 C14.9786679,108.157334 15.2853315,108.256 15.648,108.256 L16.976,108.256 C17.5306694,108.256 17.9599985,108.072002 18.264,107.704 C18.5680015,107.335998 18.72,106.821337 18.72,106.16 L18.72,104.928 C18.4853322,105.248002 18.1786686,105.506666 17.8,105.704 C17.4213314,105.901334 17.0560018,106 16.704,106 L15.536,106 C14.9919973,106 14.5066688,105.872001 14.08,105.616 C13.6533312,105.359999 13.3226678,105.002669 13.088,104.544 C12.8533322,104.085331 12.736,103.552003 12.736,102.944 L12.736,101.072 C12.736,100.122662 13.0106639,99.3546696 13.56,98.768 C14.1093361,98.1813304 14.8319955,97.888 15.728,97.888 L16.848,97.888 C17.189335,97.888 17.5413315,97.983999 17.904,98.176 C18.2666685,98.368001 18.5493323,98.6133318 18.752,98.912 L18.752,98.016 L19.872,98.016 L19.872,106.16 C19.872,107.130672 19.6160026,107.888 19.104,108.432 C18.5919974,108.976003 17.8826712,109.248 16.976,109.248 L15.648,109.248 Z M16.704,104.976 C17.237336,104.976 17.6933314,104.765335 18.072,104.344 C18.4506686,103.922665 18.6666664,103.38667 18.72,102.736 L18.72,100.768 C18.6773331,100.223997 18.4773351,99.7786684 18.12,99.432 C17.7626649,99.0853316 17.3386691,98.912 16.848,98.912 L15.76,98.912 C15.1946638,98.912 14.741335,99.1093314 14.4,99.504 C14.058665,99.8986686 13.888,100.42133 13.888,101.072 L13.888,102.944 C13.888,103.541336 14.0453318,104.029331 14.36,104.408 C14.6746682,104.786669 15.0773309,104.976 15.568,104.976 L16.704,104.976 Z M22.304,94.8 L23.456,94.8 L23.456,99.12 C23.7013346,98.7466648 24.0159981,98.4480011 24.4,98.224 C24.7840019,97.9999989 25.1733314,97.888 25.568,97.888 L26.688,97.888 C27.4240037,97.888 28.0186644,98.1386642 28.472,98.64 C28.9253356,99.1413358 29.152,99.7973293 29.152,100.608 L29.152,106 L28,106 L28,100.576 C28,100.085331 27.8773346,99.6853349 27.632,99.376 C27.3866654,99.0666651 27.0613354,98.912 26.656,98.912 L25.6,98.912 C25.0986642,98.912 24.6426687,99.1066647 24.232,99.496 C23.8213313,99.8853353 23.5626672,100.383997 23.456,100.992 L23.456,106 L22.304,106 L22.304,94.8 Z M34.624,106 C33.7813291,106 33.1760018,105.818668 32.808,105.456 C32.4399982,105.093332 32.256,104.496004 32.256,103.664 L32.256,99.04 L30.848,99.04 L30.848,98.016 L32.256,98.016 L32.256,95.6 L33.408,95.6 L33.408,98.016 L35.488,98.016 L35.488,99.04 L33.408,99.04 L33.408,103.664 C33.408,104.133336 33.5013324,104.469332 33.688,104.672 C33.8746676,104.874668 34.1866645,104.976 34.624,104.976 L35.488,104.976 L35.488,106 L34.624,106 Z M37.6,98.016 L38.72,98.016 L38.72,99.2 C38.9653346,98.8159981 39.2853314,98.5013346 39.68,98.256 C40.0746686,98.0106654 40.4693314,97.888 40.864,97.888 L41.952,97.888 C42.6880037,97.888 43.2826644,98.1386642 43.736,98.64 C44.1893356,99.1413358 44.416,99.7973293 44.416,100.608 L44.416,106 L43.264,106 L43.264,100.576 C43.264,100.085331 43.1413346,99.6853349 42.896,99.376 C42.6506654,99.0666651 42.3253354,98.912 41.92,98.912 L40.896,98.912 C40.3946642,98.912 39.9386687,99.1093314 39.528,99.504 C39.1173313,99.8986686 38.8586672,100.40533 38.752,101.024 L38.752,106 L37.6,106 L37.6,98.016 Z M47.616,96.816 C47.3599987,96.816 47.1520008,96.7360008 46.992,96.576 C46.8319992,96.4159992 46.752,96.2080013 46.752,95.952 C46.752,95.6959987 46.8319992,95.4880008 46.992,95.328 C47.1520008,95.1679992 47.3599987,95.088 47.616,95.088 C47.8720013,95.088 48.0799992,95.1679992 48.24,95.328 C48.4000008,95.4880008 48.48,95.6959987 48.48,95.952 C48.48,96.2080013 48.4000008,96.4159992 48.24,96.576 C48.0799992,96.7360008 47.8720013,96.816 47.616,96.816 Z M47.04,98.016 L48.192,98.016 L48.192,106 L47.04,106 L47.04,98.016 Z M50.912,98.016 L52.032,98.016 L52.032,99.2 C52.2773346,98.8159981 52.5973314,98.5013346 52.992,98.256 C53.3866686,98.0106654 53.7813314,97.888 54.176,97.888 L55.264,97.888 C56.0000037,97.888 56.5946644,98.1386642 57.048,98.64 C57.5013356,99.1413358 57.728,99.7973293 57.728,100.608 L57.728,106 L56.576,106 L56.576,100.576 C56.576,100.085331 56.4533346,99.6853349 56.208,99.376 C55.9626654,99.0666651 55.6373354,98.912 55.232,98.912 L54.208,98.912 C53.7066642,98.912 53.2506687,99.1093314 52.84,99.504 C52.4293313,99.8986686 52.1706672,100.40533 52.064,101.024 L52.064,106 L50.912,106 L50.912,98.016 Z M62.656,109.248 C61.9519965,109.248 61.370669,109.058669 60.912,108.68 C60.453331,108.301331 60.1973336,107.80267 60.144,107.184 L61.296,107.184 C61.3386669,107.504002 61.4853321,107.762666 61.736,107.96 C61.9866679,108.157334 62.2933315,108.256 62.656,108.256 L63.984,108.256 C64.5386694,108.256 64.9679985,108.072002 65.272,107.704 C65.5760015,107.335998 65.728,106.821337 65.728,106.16 L65.728,104.928 C65.4933322,105.248002 65.1866686,105.506666 64.808,105.704 C64.4293314,105.901334 64.0640018,106 63.712,106 L62.544,106 C61.9999973,106 61.5146688,105.872001 61.088,105.616 C60.6613312,105.359999 60.3306678,105.002669 60.096,104.544 C59.8613322,104.085331 59.744,103.552003 59.744,102.944 L59.744,101.072 C59.744,100.122662 60.0186639,99.3546696 60.568,98.768 C61.1173361,98.1813304 61.8399955,97.888 62.736,97.888 L63.856,97.888 C64.197335,97.888 64.5493315,97.983999 64.912,98.176 C65.2746685,98.368001 65.5573323,98.6133318 65.76,98.912 L65.76,98.016 L66.88,98.016 L66.88,106.16 C66.88,107.130672 66.6240026,107.888 66.112,108.432 C65.5999974,108.976003 64.8906712,109.248 63.984,109.248 L62.656,109.248 Z M63.712,104.976 C64.245336,104.976 64.7013314,104.765335 65.08,104.344 C65.4586686,103.922665 65.6746664,103.38667 65.728,102.736 L65.728,100.768 C65.6853331,100.223997 65.4853351,99.7786684 65.128,99.432 C64.7706649,99.0853316 64.3466691,98.912 63.856,98.912 L62.768,98.912 C62.2026638,98.912 61.749335,99.1093314 61.408,99.504 C61.066665,99.8986686 60.896,100.42133 60.896,101.072 L60.896,102.944 C60.896,103.541336 61.0533318,104.029331 61.368,104.408 C61.6826682,104.786669 62.0853309,104.976 62.576,104.976 L63.712,104.976 Z M73.536,94.8 L74.656,94.8 L80.864,104.128 L80.864,94.8 L82.016,94.8 L82.016,106 L80.896,106 L74.688,96.736 L74.688,106 L73.536,106 L73.536,94.8 Z M87.168,106.128 C86.2719955,106.128 85.5520027,105.864003 85.008,105.336 C84.4639973,104.807997 84.192,104.106671 84.192,103.232 L84.192,100.944 C84.192,100.026662 84.4639973,99.2880028 85.008,98.728 C85.5520027,98.1679972 86.2719955,97.888 87.168,97.888 L88.48,97.888 C89.3333376,97.888 90.0213307,98.1599973 90.544,98.704 C91.0666693,99.2480027 91.328,99.9679955 91.328,100.864 L91.328,102.272 L85.344,102.272 L85.344,103.232 C85.344,103.786669 85.5119983,104.237332 85.848,104.584 C86.1840017,104.930668 86.6239973,105.104 87.168,105.104 L88.384,105.104 C88.917336,105.104 89.3493317,104.957335 89.68,104.664 C90.0106683,104.370665 90.176,103.978669 90.176,103.488 L91.296,103.488 C91.296,104.277337 91.029336,104.914664 90.496,105.4 C89.962664,105.885336 89.258671,106.128 88.384,106.128 L87.168,106.128 Z M90.176,101.28 L90.176,100.864 C90.176,100.27733 90.0213349,99.8053351 89.712,99.448 C89.4026651,99.0906649 88.9920026,98.912 88.48,98.912 L87.168,98.912 C86.6239973,98.912 86.1840017,99.0986648 85.848,99.472 C85.5119983,99.8453352 85.344,100.335997 85.344,100.944 L85.344,101.28 L90.176,101.28 Z M96.48,106 C95.6373291,106 95.0320018,105.818668 94.664,105.456 C94.2959982,105.093332 94.112,104.496004 94.112,103.664 L94.112,99.04 L92.704,99.04 L92.704,98.016 L94.112,98.016 L94.112,95.6 L95.264,95.6 L95.264,98.016 L97.344,98.016 L97.344,99.04 L95.264,99.04 L95.264,103.664 C95.264,104.133336 95.3573324,104.469332 95.544,104.672 C95.7306676,104.874668 96.0426645,104.976 96.48,104.976 L97.344,104.976 L97.344,106 L96.48,106 Z M109.296,98.016 L107.568,105.072 C107.482666,105.392002 107.365334,105.626666 107.216,105.776 C107.066666,105.925334 106.864001,106 106.608,106 L106.064,106 L104.064,99.968 L102,106 L101.456,106 C101.210665,106 101.008001,105.925334 100.848,105.776 C100.687999,105.626666 100.570667,105.392002 100.496,105.072 L98.752,98.016 L99.968,98.016 L101.456,104.72 L103.616,98.24 L104.032,98.24 C104.341335,98.24 104.549333,98.410665 104.656,98.752 L106.608,104.672 L108.08,98.016 L109.296,98.016 Z M113.68,106.128 C112.783996,106.128 112.064003,105.850669 111.52,105.296 C110.975997,104.741331 110.704,104.010671 110.704,103.104 L110.704,100.912 C110.704,100.005329 110.978664,99.2746694 111.528,98.72 C112.077336,98.1653306 112.805329,97.888 113.712,97.888 L115.024,97.888 C115.930671,97.888 116.658664,98.1653306 117.208,98.72 C117.757336,99.2746694 118.032,100.005329 118.032,100.912 L118.032,103.104 C118.032,104.010671 117.754669,104.741331 117.2,105.296 C116.645331,105.850669 115.909338,106.128 114.992,106.128 L113.68,106.128 Z M114.992,105.104 C115.568003,105.104 116.026665,104.920002 116.368,104.552 C116.709335,104.183998 116.88,103.701336 116.88,103.104 L116.88,100.912 C116.88,100.314664 116.709335,99.8320018 116.368,99.464 C116.026665,99.0959982 115.578669,98.912 115.024,98.912 L113.712,98.912 C113.157331,98.912 112.709335,99.0959982 112.368,99.464 C112.026665,99.8320018 111.856,100.314664 111.856,100.912 L111.856,103.104 C111.856,103.712003 112.021332,104.197332 112.352,104.56 C112.682668,104.922668 113.125331,105.104 113.68,105.104 L114.992,105.104 Z M120.144,98.016 L121.264,98.016 L121.264,99.248 C121.477334,98.8746648 121.799998,98.5706678 122.232,98.336 C122.664002,98.1013322 123.114664,97.984 123.584,97.984 L124.288,97.984 L124.288,99.024 L123.584,99.024 C122.90133,99.024 122.349335,99.2399978 121.928,99.672 C121.506665,100.104002 121.296,100.67733 121.296,101.392 L121.296,106 L120.144,106 L120.144,98.016 Z M131.216,106 L128.08,102.224 L126.976,103.328 L126.976,106 L125.824,106 L125.824,94.8 L126.976,94.8 L126.976,101.92 L130.928,98.016 L132.336,98.016 L128.88,101.44 L132.592,106 L131.216,106 Z" id="LightningNetwork" fill="#2A3036" fill-rule="nonzero"></path>
                        <g id="Group" transform="translate(45.252000, 0.000000)">
                            <circle id="Oval-Copy" fill="#FF8E00" cx="20" cy="20" r="20"></circle>
                            <g id="flaticon1558425073-svg" transform="translate(20.500000, 20.500000) rotate(17.000000) translate(-20.500000, -20.500000) translate(13.000000, 10.000000)" fill="#FFFFFF" fill-rule="nonzero">
                                <path d="M14.3763043,10.8363478 C13.8964348,10.2158261 13.1723043,9.7896087 12.2039565,9.55795652 C13.437087,8.92895652 13.979,7.8613913 13.8302174,6.35508696 C13.7804783,5.80886957 13.6295217,5.33547826 13.377,4.93421739 C13.1243043,4.53286957 12.7833043,4.21021739 12.3526957,3.96613043 C11.9224348,3.72173913 11.4544783,3.53569565 10.949913,3.40743478 C10.4452174,3.27917391 9.86578261,3.18604348 9.212,3.12817391 L9.212,0 L7.30052174,0 L7.30052174,3.04126087 C6.96952174,3.04126087 6.46473913,3.04952174 5.78621739,3.06608696 L5.78621739,0 L3.87447826,0 L3.87447826,3.12817391 C3.60130435,3.13647826 3.2,3.14069565 2.6703913,3.14069565 L0.038826087,3.12817391 L0.038826087,5.164 L1.4166087,5.164 C2.04556522,5.164 2.41382609,5.44543478 2.5213913,6.00808696 L2.5213913,9.57078261 C2.60426087,9.57078261 2.6703913,9.57504348 2.72008696,9.58330435 L2.5213913,9.58330435 L2.5213913,14.5732609 C2.45526087,14.9952174 2.21530435,15.2063913 1.80147826,15.2063913 L0.423782609,15.2063913 L0.038826087,17.478087 L2.5216087,17.478087 C2.67886957,17.478087 2.90630435,17.4801739 3.20434783,17.483913 C3.50221739,17.488087 3.72556522,17.4901739 3.87456522,17.4901739 L3.87456522,20.6555217 L5.7866087,20.6555217 L5.7866087,17.5273913 C6.13408696,17.5358696 6.63886957,17.539913 7.30091304,17.539913 L7.30091304,20.6555217 L9.21243478,20.6555217 L9.21243478,17.4901739 C9.89117391,17.4571304 10.4931739,17.3953913 11.0184348,17.3040435 C11.5439565,17.2126957 12.0468261,17.0701739 12.5266957,16.8755652 C13.0065217,16.6812174 13.4078261,16.439 13.7305217,16.1493478 C14.0533913,15.8599565 14.3200435,15.4915217 14.5314348,15.0445652 C14.7421304,14.5976087 14.8767826,14.0803913 14.9345217,13.4926957 C15.0425652,12.3426957 14.8562609,11.4571304 14.3763043,10.8363478 Z M5.8233913,5.30017391 C5.88134783,5.30017391 6.04478261,5.29808696 6.31373913,5.29391304 C6.58282609,5.28965217 6.80617391,5.28556522 6.98408696,5.2813913 C7.16204348,5.27730435 7.40204348,5.28765217 7.70421739,5.31247826 C8.00626087,5.33730435 8.26069565,5.37047826 8.46752174,5.41178261 C8.67434783,5.45308696 8.90213043,5.5213913 9.15017391,5.61656522 C9.39865217,5.71165217 9.59713043,5.82756522 9.74591304,5.96408696 C9.895,6.1006087 10.0211739,6.27447826 10.1244348,6.48552174 C10.228,6.69652174 10.2797391,6.93856522 10.2797391,7.2116087 C10.2797391,7.44334783 10.2425652,7.65443478 10.1681739,7.84486957 C10.093913,8.03517391 9.98191304,8.19452174 9.83313043,8.32278261 C9.68430435,8.45108696 9.53091304,8.56291304 9.37365217,8.658 C9.21656522,8.75308696 9.01569565,8.82969565 8.77165217,8.88756522 C8.52765217,8.94552174 8.31456522,8.99104348 8.1326087,9.02408696 C7.95052174,9.05721739 7.723,9.08004348 7.44986957,9.0923913 C7.17669565,9.10473913 6.96973913,9.11317391 6.82913043,9.11726087 C6.6883913,9.12134783 6.49604348,9.12134783 6.25182609,9.11726087 C6.00756522,9.11317391 5.865,9.111 5.82352174,9.111 L5.82352174,5.30013043 L5.8233913,5.30013043 L5.8233913,5.30017391 Z M11.0433913,13.7535217 C10.9645652,13.9439565 10.8633478,14.1095652 10.7393043,14.2503478 C10.6150435,14.3907826 10.4515217,14.5150435 10.2488696,14.6224783 C10.0462609,14.7302174 9.84952174,14.8169565 9.65934783,14.8831739 C9.46891304,14.9496522 9.23917391,15.0072609 8.97047826,15.057087 C8.70117391,15.1067826 8.46547826,15.1417391 8.26252174,15.1625652 C8.05986957,15.1833043 7.81791304,15.1997826 7.53643478,15.2123043 C7.25517391,15.2244783 7.03573913,15.2307826 6.87856522,15.2307826 C6.72130435,15.2307826 6.52265217,15.2285217 6.28265217,15.2244783 C6.04252174,15.2206087 5.88956522,15.2185217 5.82330435,15.2185217 L5.82330435,11.0226522 C5.88943478,11.0226522 6.086,11.0186087 6.41295652,11.0101739 C6.73995652,11.0018261 7.00669565,10.9979565 7.2136087,10.9979565 C7.42047826,10.9979565 7.70608696,11.0101739 8.07034783,11.0351739 C8.43426087,11.0598261 8.74047826,11.096913 8.98895652,11.1465652 C9.23713043,11.1963043 9.50795652,11.2727391 9.80195652,11.3763043 C10.0956522,11.4796957 10.3336957,11.6058696 10.5158261,11.7548261 C10.697913,11.9040435 10.850913,12.094087 10.975,12.3258696 C11.0993913,12.5575217 11.1614348,12.8223913 11.1614348,13.1203913 C11.1614348,13.3523478 11.1221304,13.5630435 11.0433913,13.7535217 Z" id="Shape"></path>
                            </g>
                        </g>
                    </g>
                </g>
                <g id="Group-30" transform="translate(0.000000, 244.000000)">
                    <g id="Rectangle-Copy-10">
                        <use fill="black" fill-opacity="1" filter="url(#filter-4)" xlink:href="#path-3"></use>
                        <use fill="#FFFFFF" fill-rule="evenodd" xlink:href="#path-3"></use>
                    </g>
                    <g id="Group-23" transform="translate(84.000000, 54.000000)" fill-rule="nonzero">
                        <g id="harmony-logo-horizontal-full-color" transform="translate(45.000000, 0.000000)" fill="url(#linearGradient-5)">
                            <path d="M30.3037433,0.106949316 C25.7247298,0.103397112 22.0075191,3.80816614 21.9957219,8.38716578 L21.9957219,17.5679144 C21.140107,17.6256684 20.2652406,17.6620321 19.3582888,17.6620321 C18.4513369,17.6620321 17.5807487,17.6983957 16.7208556,17.7497326 L16.7208556,8.38716578 C16.6480676,3.85133095 12.9503226,0.212448642 8.41390374,0.212448642 C3.87748492,0.212448642 0.179739829,3.85133095 0.106951872,8.38716578 L0.106951872,30.3294118 C0.179739829,34.8652466 3.87748492,38.504129 8.41390374,38.504129 C12.9503226,38.504129 16.6480676,34.8652466 16.7208556,30.3294118 L16.7208556,21.1486631 C17.5764706,21.0909091 18.4513369,21.0545455 19.3582888,21.0545455 C20.2652406,21.0545455 21.1358289,21.0181818 21.9957219,20.9668449 L21.9957219,30.3294118 C22.0685099,34.8652466 25.766255,38.504129 30.3026738,38.504129 C34.8390926,38.504129 38.5368376,34.8652466 38.6096257,30.3294118 L38.6096257,8.38716578 C38.5978299,3.80900169 34.8819219,0.10457739 30.3037433,0.106949316 Z M8.41283422,3.49946476 C11.1151555,3.49827643 13.308431,5.68485348 13.315508,8.38716578 L13.315508,18.1090909 C10.8850952,18.4612712 8.51171022,19.132292 6.25668449,20.1048128 C5.27964458,20.5336233 4.35989204,21.0826006 3.51871658,21.7390374 L3.51871658,8.38716578 C3.52578276,5.68819129 5.71385279,3.50299022 8.41283422,3.49946476 Z M13.315508,30.3294118 C13.315508,33.0370836 11.1205061,35.2320856 8.41283422,35.2320856 C5.70516225,35.2320856 3.51016043,33.0370836 3.51016043,30.3294118 L3.51016043,28.1283422 C3.51016043,26.1839572 5.05026738,24.342246 7.63208556,23.1957219 C9.45128235,22.4108734 11.3600764,21.8526751 13.315508,21.5336898 L13.315508,30.3294118 Z M30.3037433,35.2171128 C27.601422,35.2183012 25.4081465,33.0317241 25.4010695,30.3294118 L25.4010695,20.6074866 C27.8314824,20.2553063 30.2048674,19.5842856 32.459893,18.6117647 C33.436933,18.1829542 34.3566856,17.6339769 35.197861,16.9775401 L35.197861,30.3294118 C35.1907949,33.0283863 33.0027247,35.2135874 30.3037433,35.2171128 Z M31.084492,15.5080214 C29.2652952,16.2928699 27.3565012,16.8510682 25.4010695,17.1700535 L25.4010695,8.38716578 C25.4010695,5.6794938 27.5960714,3.48449198 30.3037433,3.48449198 C33.0114152,3.48449198 35.2064171,5.6794938 35.2064171,8.38716578 L35.2064171,10.5882353 C35.2064171,12.5240642 33.6663102,14.3657754 31.084492,15.5080214 Z" id="Shape"></path>
                        </g>
                        <path d="M1.76214598e-12,93 L1.184,93 L1.184,98.024 L7.36,98.024 L7.36,93 L8.544,93 L8.544,104.2 L7.36,104.2 L7.36,99.08 L1.184,99.08 L1.184,104.2 L1.76214598e-12,104.2 L1.76214598e-12,93 Z M13.344,104.328 C12.5653294,104.328 11.9440023,104.125335 11.48,103.72 C11.0159977,103.314665 10.784,102.77067 10.784,102.088 L10.784,101.576 C10.784,100.903997 11.0239976,100.365335 11.504,99.96 C11.9840024,99.5546646 12.6186627,99.352 13.408,99.352 L14.432,99.352 C14.784,99.352 15.1466648,99.4053328 15.52,99.512 C15.8933352,99.6186672 16.213332,99.7626658 16.48,99.944 L16.48,98.616 C16.48,98.1679978 16.3413347,97.8026681 16.064,97.52 C15.7866653,97.2373319 15.418669,97.096 14.96,97.096 L13.68,97.096 C13.221331,97.096 12.8533347,97.2026656 12.576,97.416 C12.2986653,97.6293344 12.16,97.9119982 12.16,98.264 L11.008,98.264 C11.008,97.6133301 11.2533309,97.088 11.744,96.688 C12.2346691,96.287998 12.879996,96.088 13.68,96.088 L14.96,96.088 C15.7493373,96.088 16.3866642,96.3199977 16.872,96.784 C17.3573358,97.2480023 17.6,97.8586629 17.6,98.616 L17.6,104.2 L16.512,104.2 L16.512,103.08 C16.2666654,103.464002 15.944002,103.767999 15.544,103.992 C15.143998,104.216001 14.7306688,104.328 14.304,104.328 L13.344,104.328 Z M14.336,103.32 C14.8373358,103.32 15.2853314,103.165335 15.68,102.856 C16.0746686,102.546665 16.3413326,102.136003 16.48,101.624 L16.48,101.032 C16.2666656,100.829332 15.9706686,100.666667 15.592,100.544 C15.2133314,100.421333 14.8266686,100.36 14.432,100.36 L13.408,100.36 C12.9706645,100.36 12.6160014,100.471999 12.344,100.696 C12.0719986,100.920001 11.936,101.213332 11.936,101.576 L11.936,102.088 C11.936,102.461335 12.0639987,102.759999 12.32,102.984 C12.5760013,103.208001 12.9173312,103.32 13.344,103.32 L14.336,103.32 Z M19.936,96.216 L21.056,96.216 L21.056,97.448 C21.2693344,97.0746648 21.5919978,96.7706678 22.024,96.536 C22.4560022,96.3013322 22.9066643,96.184 23.376,96.184 L24.08,96.184 L24.08,97.224 L23.376,97.224 C22.6933299,97.224 22.1413354,97.4399978 21.72,97.872 C21.2986646,98.3040022 21.088,98.8773298 21.088,99.592 L21.088,104.2 L19.936,104.2 L19.936,96.216 Z M34.368,96.088 C35.0720035,96.088 35.6293313,96.3146644 36.04,96.768 C36.4506687,97.2213356 36.656,97.847996 36.656,98.648 L36.656,104.2 L35.504,104.2 L35.504,98.616 C35.504,98.1466643 35.3973344,97.778668 35.184,97.512 C34.9706656,97.245332 34.6880018,97.112 34.336,97.112 L33.424,97.112 C32.965331,97.112 32.5866682,97.2666651 32.288,97.576 C31.9893318,97.8853349 31.7973338,98.3226638 31.712,98.888 L31.712,104.2 L30.56,104.2 L30.56,98.712 C30.56,98.2106642 30.4613343,97.8186681 30.264,97.536 C30.0666657,97.2533319 29.797335,97.112 29.456,97.112 L28.544,97.112 C28.1066645,97.112 27.7226683,97.3039981 27.392,97.688 C27.0613317,98.0720019 26.8533338,98.5733302 26.768,99.192 L26.768,104.2 L25.616,104.2 L25.616,96.216 L26.736,96.216 L26.736,97.368 C26.9493344,96.9626646 27.2159984,96.6480011 27.536,96.424 C27.8560016,96.1999989 28.1919982,96.088 28.544,96.088 L29.488,96.088 C29.9360022,96.088 30.322665,96.1973322 30.648,96.416 C30.973335,96.6346678 31.2213325,96.9519979 31.392,97.368 C31.6373346,96.9413312 31.930665,96.6213344 32.272,96.408 C32.613335,96.1946656 32.9866646,96.088 33.392,96.088 L34.368,96.088 Z M41.648,104.328 C40.7519955,104.328 40.0320027,104.050669 39.488,103.496 C38.9439973,102.941331 38.672,102.210671 38.672,101.304 L38.672,99.112 C38.672,98.2053288 38.9466639,97.4746694 39.496,96.92 C40.0453361,96.3653306 40.7733288,96.088 41.68,96.088 L42.992,96.088 C43.8986712,96.088 44.6266639,96.3653306 45.176,96.92 C45.7253361,97.4746694 46,98.2053288 46,99.112 L46,101.304 C46,102.210671 45.7226694,102.941331 45.168,103.496 C44.6133306,104.050669 43.8773379,104.328 42.96,104.328 L41.648,104.328 Z M42.96,103.304 C43.5360029,103.304 43.994665,103.120002 44.336,102.752 C44.677335,102.383998 44.848,101.901336 44.848,101.304 L44.848,99.112 C44.848,98.5146637 44.677335,98.0320018 44.336,97.664 C43.994665,97.2959982 43.5466694,97.112 42.992,97.112 L41.68,97.112 C41.1253306,97.112 40.677335,97.2959982 40.336,97.664 C39.994665,98.0320018 39.824,98.5146637 39.824,99.112 L39.824,101.304 C39.824,101.912003 39.9893317,102.397332 40.32,102.76 C40.6506683,103.122668 41.0933306,103.304 41.648,103.304 L42.96,103.304 Z M48.112,96.216 L49.232,96.216 L49.232,97.4 C49.4773346,97.0159981 49.7973314,96.7013346 50.192,96.456 C50.5866686,96.2106654 50.9813314,96.088 51.376,96.088 L52.464,96.088 C53.2000037,96.088 53.7946644,96.3386642 54.248,96.84 C54.7013356,97.3413358 54.928,97.9973293 54.928,98.808 L54.928,104.2 L53.776,104.2 L53.776,98.776 C53.776,98.2853309 53.6533346,97.8853349 53.408,97.576 C53.1626654,97.2666651 52.8373354,97.112 52.432,97.112 L51.408,97.112 C50.9066642,97.112 50.4506687,97.3093314 50.04,97.704 C49.6293313,98.0986686 49.3706672,98.6053302 49.264,99.224 L49.264,104.2 L48.112,104.2 L48.112,96.216 Z M59.84,107.448 C59.1359965,107.448 58.554669,107.258669 58.096,106.88 C57.637331,106.501331 57.3813336,106.00267 57.328,105.384 L58.48,105.384 C58.5226669,105.704002 58.6693321,105.962666 58.92,106.16 C59.1706679,106.357334 59.4773315,106.456 59.84,106.456 L61.088,106.456 C61.6426694,106.456 62.0719985,106.272002 62.376,105.904 C62.6800015,105.535998 62.832,105.021337 62.832,104.36 L62.832,102.888 C62.5759987,103.272002 62.2533353,103.586665 61.864,103.832 C61.4746647,104.077335 61.0880019,104.2 60.704,104.2 L59.68,104.2 C58.9333296,104.2 58.3280023,103.949336 57.864,103.448 C57.3999977,102.946664 57.168,102.290671 57.168,101.48 L57.168,96.216 L58.32,96.216 L58.32,101.512 C58.32,102.013336 58.4453321,102.415998 58.696,102.72 C58.9466679,103.024002 59.2746646,103.176 59.68,103.176 L60.672,103.176 C61.1626691,103.176 61.6159979,102.978669 62.032,102.584 C62.4480021,102.189331 62.7146661,101.693336 62.832,101.096 L62.832,96.216 L63.984,96.216 L63.984,104.36 C63.984,105.330672 63.7280026,106.087997 63.216,106.632 C62.7039974,107.176003 61.9946712,107.448 61.088,107.448 L59.84,107.448 Z M70.64,93 L71.76,93 L77.968,102.328 L77.968,93 L79.12,93 L79.12,104.2 L78,104.2 L71.792,94.936 L71.792,104.2 L70.64,104.2 L70.64,93 Z M84.272,104.328 C83.3759955,104.328 82.6560027,104.064003 82.112,103.536 C81.5679973,103.007997 81.296,102.306671 81.296,101.432 L81.296,99.144 C81.296,98.2266621 81.5679973,97.4880028 82.112,96.928 C82.6560027,96.3679972 83.3759955,96.088 84.272,96.088 L85.584,96.088 C86.4373376,96.088 87.1253307,96.3599973 87.648,96.904 C88.1706693,97.4480027 88.432,98.1679955 88.432,99.064 L88.432,100.472 L82.448,100.472 L82.448,101.432 C82.448,101.986669 82.6159983,102.437332 82.952,102.784 C83.2880017,103.130668 83.7279973,103.304 84.272,103.304 L85.488,103.304 C86.021336,103.304 86.4533317,103.157335 86.784,102.864 C87.1146683,102.570665 87.28,102.178669 87.28,101.688 L88.4,101.688 C88.4,102.477337 88.133336,103.114664 87.6,103.6 C87.066664,104.085336 86.362671,104.328 85.488,104.328 L84.272,104.328 Z M87.28,99.48 L87.28,99.064 C87.28,98.4773304 87.1253349,98.0053351 86.816,97.648 C86.5066651,97.2906649 86.0960026,97.112 85.584,97.112 L84.272,97.112 C83.7279973,97.112 83.2880017,97.2986648 82.952,97.672 C82.6159983,98.0453352 82.448,98.535997 82.448,99.144 L82.448,99.48 L87.28,99.48 Z M93.584,104.2 C92.7413291,104.2 92.1360018,104.018668 91.768,103.656 C91.3999982,103.293332 91.216,102.696004 91.216,101.864 L91.216,97.24 L89.808,97.24 L89.808,96.216 L91.216,96.216 L91.216,93.8 L92.368,93.8 L92.368,96.216 L94.448,96.216 L94.448,97.24 L92.368,97.24 L92.368,101.864 C92.368,102.333336 92.4613324,102.669332 92.648,102.872 C92.8346676,103.074668 93.1466645,103.176 93.584,103.176 L94.448,103.176 L94.448,104.2 L93.584,104.2 Z M106.4,96.216 L104.672,103.272 C104.586666,103.592002 104.469334,103.826666 104.32,103.976 C104.170666,104.125334 103.968001,104.2 103.712,104.2 L103.168,104.2 L101.168,98.168 L99.104,104.2 L98.56,104.2 C98.3146654,104.2 98.1120008,104.125334 97.952,103.976 C97.7919992,103.826666 97.674667,103.592002 97.6,103.272 L95.856,96.216 L97.072,96.216 L98.56,102.92 L100.72,96.44 L101.136,96.44 C101.445335,96.44 101.653333,96.610665 101.76,96.952 L103.712,102.872 L105.184,96.216 L106.4,96.216 Z M110.784,104.328 C109.887996,104.328 109.168003,104.050669 108.624,103.496 C108.079997,102.941331 107.808,102.210671 107.808,101.304 L107.808,99.112 C107.808,98.2053288 108.082664,97.4746694 108.632,96.92 C109.181336,96.3653306 109.909329,96.088 110.816,96.088 L112.128,96.088 C113.034671,96.088 113.762664,96.3653306 114.312,96.92 C114.861336,97.4746694 115.136,98.2053288 115.136,99.112 L115.136,101.304 C115.136,102.210671 114.858669,102.941331 114.304,103.496 C113.749331,104.050669 113.013338,104.328 112.096,104.328 L110.784,104.328 Z M112.096,103.304 C112.672003,103.304 113.130665,103.120002 113.472,102.752 C113.813335,102.383998 113.984,101.901336 113.984,101.304 L113.984,99.112 C113.984,98.5146637 113.813335,98.0320018 113.472,97.664 C113.130665,97.2959982 112.682669,97.112 112.128,97.112 L110.816,97.112 C110.261331,97.112 109.813335,97.2959982 109.472,97.664 C109.130665,98.0320018 108.96,98.5146637 108.96,99.112 L108.96,101.304 C108.96,101.912003 109.125332,102.397332 109.456,102.76 C109.786668,103.122668 110.229331,103.304 110.784,103.304 L112.096,103.304 Z M117.248,96.216 L118.368,96.216 L118.368,97.448 C118.581334,97.0746648 118.903998,96.7706678 119.336,96.536 C119.768002,96.3013322 120.218664,96.184 120.688,96.184 L121.392,96.184 L121.392,97.224 L120.688,97.224 C120.00533,97.224 119.453335,97.4399978 119.032,97.872 C118.610665,98.3040022 118.4,98.8773298 118.4,99.592 L118.4,104.2 L117.248,104.2 L117.248,96.216 Z M128.32,104.2 L125.184,100.424 L124.08,101.528 L124.08,104.2 L122.928,104.2 L122.928,93 L124.08,93 L124.08,100.12 L128.032,96.216 L129.44,96.216 L125.984,99.64 L129.696,104.2 L128.32,104.2 Z" id="HarmonyNetwork" fill="#2A3036"></path>
                        <path d="M53.212,80.888 C52.3839959,80.888 51.6520032,80.7020019 51.016,80.33 C50.3799968,79.9579981 49.8850018,79.4300034 49.531,78.746 C49.1769982,78.0619966 49,77.2700045 49,76.37 L49,72.518 C49,71.6179955 49.1769982,70.8260034 49.531,70.142 C49.8850018,69.4579966 50.3799968,68.9300019 51.016,68.558 C51.6520032,68.1859981 52.3899958,68 53.23,68 L55.138,68 C55.9780042,68 56.7159968,68.1859981 57.352,68.558 C57.9880032,68.9300019 58.4829982,69.4579966 58.837,70.142 C59.1910018,70.8260034 59.368,71.6179955 59.368,72.518 L59.368,76.37 C59.368,77.2700045 59.1910018,78.0589966 58.837,78.737 C58.4829982,79.4150034 57.9850032,79.9429981 57.343,80.321 C56.7009968,80.6990019 55.9660041,80.888 55.138,80.888 L53.212,80.888 Z M55.102,79.7 C55.9780044,79.7 56.6859973,79.3940031 57.226,78.782 C57.7660027,78.1699969 58.036,77.366005 58.036,76.37 L58.036,72.518 C58.036,71.521995 57.7660027,70.7180031 57.226,70.106 C56.6859973,69.4939969 55.9780044,69.188 55.102,69.188 L53.266,69.188 C52.3899956,69.188 51.6820027,69.4939969 51.142,70.106 C50.6019973,70.7180031 50.332,71.521995 50.332,72.518 L50.332,76.37 C50.332,77.366005 50.5989973,78.1699969 51.133,78.782 C51.6670027,79.3940031 52.3719956,79.7 53.248,79.7 L55.102,79.7 Z M61.816,71.762 L63.076,71.762 L63.076,73.094 C63.3520014,72.6619978 63.7119978,72.3080014 64.156,72.032 C64.6000022,71.7559986 65.0439978,71.618 65.488,71.618 L66.712,71.618 C67.5400041,71.618 68.2089974,71.8999972 68.719,72.464 C69.2290025,73.0280028 69.484,73.7659954 69.484,74.678 L69.484,80.744 L68.188,80.744 L68.188,74.642 C68.188,74.0899972 68.0500014,73.6400017 67.774,73.292 C67.4979986,72.9439983 67.1320023,72.77 66.676,72.77 L65.524,72.77 C64.9599972,72.77 64.4470023,72.9919978 63.985,73.436 C63.5229977,73.8800022 63.2320006,74.4499965 63.112,75.146 L63.112,80.744 L61.816,80.744 L61.816,71.762 Z M75.1,80.888 C74.091995,80.888 73.2820031,80.591003 72.67,79.997 C72.0579969,79.402997 71.752,78.6140049 71.752,77.63 L71.752,75.056 C71.752,74.0239948 72.0579969,73.1930032 72.67,72.563 C73.2820031,71.9329969 74.091995,71.618 75.1,71.618 L76.576,71.618 C77.5360048,71.618 78.3099971,71.9239969 78.898,72.536 C79.4860029,73.1480031 79.78,73.957995 79.78,74.966 L79.78,76.55 L73.048,76.55 L73.048,77.63 C73.048,78.2540031 73.2369981,78.7609981 73.615,79.151 C73.9930019,79.541002 74.4879969,79.736 75.1,79.736 L76.468,79.736 C77.068003,79.736 77.5539981,79.5710017 77.926,79.241 C78.2980019,78.9109984 78.484,78.4700028 78.484,77.918 L79.744,77.918 C79.744,78.8060044 79.444003,79.5229973 78.844,80.069 C78.243997,80.6150027 77.4520049,80.888 76.468,80.888 L75.1,80.888 Z M78.484,75.434 L78.484,74.966 C78.484,74.3059967 78.3100017,73.775002 77.962,73.373 C77.6139983,72.970998 77.1520029,72.77 76.576,72.77 L75.1,72.77 C74.4879969,72.77 73.9930019,72.9799979 73.615,73.4 C73.2369981,73.8200021 73.048,74.3719966 73.048,75.056 L73.048,75.434 L78.484,75.434 Z" id="One" stroke="#2A3036" stroke-width="0.75" fill="#2A3036"></path>
                    </g>
                </g>
                <g id="Group-28" transform="translate(324.000000, 0.000000)">
                    <g id="Rectangle-Copy-7">
                        <use fill="black" fill-opacity="1" filter="url(#filter-7)" xlink:href="#path-6"></use>
                        <use fill="#FFFFFF" fill-rule="evenodd" xlink:href="#path-6"></use>
                    </g>
                    <g id="Group-25" transform="translate(100.000000, 55.000000)">
                        <g id="Group-9" transform="translate(28.000000, 0.000000)">
                            <circle id="Oval" fill="#627EEA" cx="20" cy="20" r="20"></circle>
                            <g id="icons8-ethereum" transform="translate(11.515152, 6.666667)" fill-rule="nonzero">
                                <polygon id="Path" fill="#FFFFFF" points="0 13.3333333 8.48484848 0 16.969697 13.3333333 8.48484848 18.1818182"></polygon>
                                <polygon id="Path" fill="#C0CBF6" points="8.48484848 0 16.969697 13.3333333 8.48484848 18.1818182"></polygon>
                                <polygon id="Path" fill="#FFFFFF" points="0 15.1515152 8.48484848 20 16.969697 15.1515152 8.48484848 26.6666667"></polygon>
                                <polygon id="Path" fill="#C0CBF6" points="8.48484848 20 16.969697 15.1515152 8.48484848 26.6666667"></polygon>
                                <polygon id="Path" fill="#C0CBF6" points="0 13.3333333 8.48484848 9.6969697 16.969697 13.3333333 8.48484848 18.1818182"></polygon>
                                <polygon id="Path" fill="#8197EE" points="8.48484848 9.6969697 16.969697 13.3333333 8.48484848 18.1818182"></polygon>
                            </g>
                        </g>
                        <path d="M11.17,79.6 C10.7979981,79.6 10.510001,79.495001 10.306,79.285 C10.101999,79.0749989 10,78.7840019 10,78.412 L10,67 L18.46,67 L18.46,68.152 L11.332,68.152 L11.332,72.58 L17.92,72.58 L17.92,73.732 L11.332,73.732 L11.332,78.448 L18.46,78.448 L18.46,79.6 L11.17,79.6 Z M24.256,79.6 C23.3079953,79.6 22.6270021,79.396002 22.213,78.988 C21.7989979,78.579998 21.592,77.9080047 21.592,76.972 L21.592,71.77 L20.008,71.77 L20.008,70.618 L21.592,70.618 L21.592,67.9 L22.888,67.9 L22.888,70.618 L25.228,70.618 L25.228,71.77 L22.888,71.77 L22.888,76.972 C22.888,77.5000026 22.9929989,77.8779989 23.203,78.106 C23.413001,78.3340011 23.7639975,78.448 24.256,78.448 L25.228,78.448 L25.228,79.6 L24.256,79.6 Z M27.604,67 L28.9,67 L28.9,71.86 C29.1760014,71.4399979 29.5299978,71.1040013 29.962,70.852 C30.3940022,70.5999987 30.8319978,70.474 31.276,70.474 L32.536,70.474 C33.3640041,70.474 34.0329974,70.7559972 34.543,71.32 C35.0530025,71.8840028 35.308,72.6219954 35.308,73.534 L35.308,79.6 L34.012,79.6 L34.012,73.498 C34.012,72.9459972 33.8740014,72.4960017 33.598,72.148 C33.3219986,71.7999983 32.9560023,71.626 32.5,71.626 L31.312,71.626 C30.7479972,71.626 30.2350023,71.8449978 29.773,72.283 C29.3109977,72.7210022 29.0200006,73.2819966 28.9,73.966 L28.9,79.6 L27.604,79.6 L27.604,67 Z M40.924,79.744 C39.915995,79.744 39.1060031,79.447003 38.494,78.853 C37.8819969,78.258997 37.576,77.4700049 37.576,76.486 L37.576,73.912 C37.576,72.8799948 37.8819969,72.0490031 38.494,71.419 C39.1060031,70.7889968 39.915995,70.474 40.924,70.474 L42.4,70.474 C43.3600048,70.474 44.1339971,70.7799969 44.722,71.392 C45.3100029,72.0040031 45.604,72.813995 45.604,73.822 L45.604,75.406 L38.872,75.406 L38.872,76.486 C38.872,77.1100031 39.0609981,77.616998 39.439,78.007 C39.8170019,78.3970019 40.3119969,78.592 40.924,78.592 L42.292,78.592 C42.892003,78.592 43.3779981,78.4270016 43.75,78.097 C44.1220019,77.7669983 44.308,77.3260028 44.308,76.774 L45.568,76.774 C45.568,77.6620044 45.268003,78.3789973 44.668,78.925 C44.067997,79.4710027 43.2760049,79.744 42.292,79.744 L40.924,79.744 Z M44.308,74.29 L44.308,73.822 C44.308,73.1619967 44.1340017,72.631002 43.786,72.229 C43.4379983,71.826998 42.9760029,71.626 42.4,71.626 L40.924,71.626 C40.3119969,71.626 39.8170019,71.8359979 39.439,72.256 C39.0609981,72.6760021 38.872,73.2279966 38.872,73.912 L38.872,74.29 L44.308,74.29 Z M47.872,70.618 L49.132,70.618 L49.132,72.004 C49.372,71.5839979 49.7349976,71.2420013 50.221,70.978 C50.7070024,70.7139987 51.2139974,70.582 51.742,70.582 L52.534,70.582 L52.534,71.752 L51.742,71.752 C50.9739962,71.752 50.3530024,71.9949976 49.879,72.481 C49.4049976,72.9670024 49.168,73.611996 49.168,74.416 L49.168,79.6 L47.872,79.6 L47.872,70.618 Z M57.25,79.744 C56.241995,79.744 55.4320031,79.447003 54.82,78.853 C54.2079969,78.258997 53.902,77.4700049 53.902,76.486 L53.902,73.912 C53.902,72.8799948 54.2079969,72.0490031 54.82,71.419 C55.4320031,70.7889968 56.241995,70.474 57.25,70.474 L58.726,70.474 C59.6860048,70.474 60.4599971,70.7799969 61.048,71.392 C61.6360029,72.0040031 61.93,72.813995 61.93,73.822 L61.93,75.406 L55.198,75.406 L55.198,76.486 C55.198,77.1100031 55.3869981,77.616998 55.765,78.007 C56.1430019,78.3970019 56.6379969,78.592 57.25,78.592 L58.618,78.592 C59.218003,78.592 59.7039981,78.4270016 60.076,78.097 C60.4480019,77.7669983 60.634,77.3260028 60.634,76.774 L61.894,76.774 C61.894,77.6620044 61.594003,78.3789973 60.994,78.925 C60.393997,79.4710027 59.6020049,79.744 58.618,79.744 L57.25,79.744 Z M60.634,74.29 L60.634,73.822 C60.634,73.1619967 60.4600017,72.631002 60.112,72.229 C59.7639983,71.826998 59.3020029,71.626 58.726,71.626 L57.25,71.626 C56.6379969,71.626 56.1430019,71.8359979 55.765,72.256 C55.3869981,72.6760021 55.198,73.2279966 55.198,73.912 L55.198,74.29 L60.634,74.29 Z M66.88,79.744 C66.0519959,79.744 65.3800026,79.4620028 64.864,78.898 C64.3479974,78.3339972 64.09,77.5960046 64.09,76.684 L64.09,70.618 L65.386,70.618 L65.386,76.72 C65.386,77.2840028 65.5239986,77.7369983 65.8,78.079 C66.0760014,78.4210017 66.4359978,78.592 66.88,78.592 L67.996,78.592 C68.5480028,78.592 69.0579977,78.3700022 69.526,77.926 C69.9940023,77.4819978 70.2939993,76.9240034 70.426,76.252 L70.426,70.618 L71.722,70.618 L71.722,79.6 L70.462,79.6 L70.462,78.232 C70.1859986,78.6640022 69.8200023,79.0239986 69.364,79.312 C68.9079977,79.6000014 68.4640022,79.744 68.032,79.744 L66.88,79.744 Z M84.304,70.474 C85.096004,70.474 85.7229977,70.7289974 86.185,71.239 C86.6470023,71.7490025 86.878,72.4539955 86.878,73.354 L86.878,79.6 L85.582,79.6 L85.582,73.318 C85.582,72.7899974 85.4620012,72.3760015 85.222,72.076 C84.9819988,71.7759985 84.664002,71.626 84.268,71.626 L83.242,71.626 C82.7259974,71.626 82.3000017,71.7999983 81.964,72.148 C81.6279983,72.4960017 81.4120005,72.9879968 81.316,73.624 L81.316,79.6 L80.02,79.6 L80.02,73.426 C80.02,72.8619972 79.9090011,72.4210016 79.687,72.103 C79.4649989,71.7849984 79.1620019,71.626 78.778,71.626 L77.752,71.626 C77.2599975,71.626 76.8280019,71.8419978 76.456,72.274 C76.0839981,72.7060022 75.8500005,73.2699965 75.754,73.966 L75.754,79.6 L74.458,79.6 L74.458,70.618 L75.718,70.618 L75.718,71.914 C75.958,71.4579977 76.2579982,71.1040013 76.618,70.852 C76.9780018,70.5999987 77.355998,70.474 77.752,70.474 L78.814,70.474 C79.3180025,70.474 79.7529982,70.5969988 80.119,70.843 C80.4850018,71.0890012 80.763999,71.4459977 80.956,71.914 C81.2320014,71.4339976 81.5619981,71.0740012 81.946,70.834 C82.3300019,70.5939988 82.7499977,70.474 83.206,70.474 L84.304,70.474 Z" id="Ethereum" stroke="#2A3036" stroke-width="0.75" fill="#2A3036" fill-rule="nonzero"></path>
                        <path d="M1.04,106.328 C0.70933168,106.328 0.45333424,106.234668 0.272,106.048 C0.09066576,105.861332 -9.66338121e-13,105.602668 -9.66338121e-13,105.272 L-9.66338121e-13,95.128 L7.52,95.128 L7.52,96.152 L1.184,96.152 L1.184,100.088 L7.04,100.088 L7.04,101.112 L1.184,101.112 L1.184,105.304 L7.52,105.304 L7.52,106.328 L1.04,106.328 Z M12.672,106.328 C11.8293291,106.328 11.2240018,106.146668 10.856,105.784 C10.4879982,105.421332 10.304,104.824004 10.304,103.992 L10.304,99.368 L8.896,99.368 L8.896,98.344 L10.304,98.344 L10.304,95.928 L11.456,95.928 L11.456,98.344 L13.536,98.344 L13.536,99.368 L11.456,99.368 L11.456,103.992 C11.456,104.461336 11.5493324,104.797332 11.736,105 C11.9226676,105.202668 12.2346645,105.304 12.672,105.304 L13.536,105.304 L13.536,106.328 L12.672,106.328 Z M15.648,95.128 L16.8,95.128 L16.8,99.448 C17.0453346,99.0746648 17.3599981,98.7760011 17.744,98.552 C18.1280019,98.3279989 18.5173314,98.216 18.912,98.216 L20.032,98.216 C20.7680037,98.216 21.3626644,98.4666642 21.816,98.968 C22.2693356,99.4693358 22.496,100.125329 22.496,100.936 L22.496,106.328 L21.344,106.328 L21.344,100.904 C21.344,100.413331 21.2213346,100.013335 20.976,99.704 C20.7306654,99.3946651 20.4053354,99.24 20,99.24 L18.944,99.24 C18.4426642,99.24 17.9866687,99.4346647 17.576,99.824 C17.1653313,100.213335 16.9066672,100.711997 16.8,101.32 L16.8,106.328 L15.648,106.328 L15.648,95.128 Z M27.488,106.456 C26.5919955,106.456 25.8720027,106.192003 25.328,105.664 C24.7839973,105.135997 24.512,104.434671 24.512,103.56 L24.512,101.272 C24.512,100.354662 24.7839973,99.6160028 25.328,99.056 C25.8720027,98.4959972 26.5919955,98.216 27.488,98.216 L28.8,98.216 C29.6533376,98.216 30.3413307,98.4879973 30.864,99.032 C31.3866693,99.5760027 31.648,100.295996 31.648,101.192 L31.648,102.6 L25.664,102.6 L25.664,103.56 C25.664,104.114669 25.8319983,104.565332 26.168,104.912 C26.5040017,105.258668 26.9439973,105.432 27.488,105.432 L28.704,105.432 C29.237336,105.432 29.6693317,105.285335 30,104.992 C30.3306683,104.698665 30.496,104.306669 30.496,103.816 L31.616,103.816 C31.616,104.605337 31.349336,105.242664 30.816,105.728 C30.282664,106.213336 29.578671,106.456 28.704,106.456 L27.488,106.456 Z M30.496,101.608 L30.496,101.192 C30.496,100.60533 30.3413349,100.133335 30.032,99.776 C29.7226651,99.4186649 29.3120026,99.24 28.8,99.24 L27.488,99.24 C26.9439973,99.24 26.5040017,99.4266648 26.168,99.8 C25.8319983,100.173335 25.664,100.663997 25.664,101.272 L25.664,101.608 L30.496,101.608 Z M33.664,98.344 L34.784,98.344 L34.784,99.576 C34.9973344,99.2026648 35.3199978,98.8986678 35.752,98.664 C36.1840022,98.4293322 36.6346643,98.312 37.104,98.312 L37.808,98.312 L37.808,99.352 L37.104,99.352 C36.4213299,99.352 35.8693354,99.5679978 35.448,100 C35.0266646,100.432002 34.816,101.00533 34.816,101.72 L34.816,106.328 L33.664,106.328 L33.664,98.344 Z M42,106.456 C41.1039955,106.456 40.3840027,106.192003 39.84,105.664 C39.2959973,105.135997 39.024,104.434671 39.024,103.56 L39.024,101.272 C39.024,100.354662 39.2959973,99.6160028 39.84,99.056 C40.3840027,98.4959972 41.1039955,98.216 42,98.216 L43.312,98.216 C44.1653376,98.216 44.8533307,98.4879973 45.376,99.032 C45.8986693,99.5760027 46.16,100.295996 46.16,101.192 L46.16,102.6 L40.176,102.6 L40.176,103.56 C40.176,104.114669 40.3439983,104.565332 40.68,104.912 C41.0160017,105.258668 41.4559973,105.432 42,105.432 L43.216,105.432 C43.749336,105.432 44.1813317,105.285335 44.512,104.992 C44.8426683,104.698665 45.008,104.306669 45.008,103.816 L46.128,103.816 C46.128,104.605337 45.861336,105.242664 45.328,105.728 C44.794664,106.213336 44.090671,106.456 43.216,106.456 L42,106.456 Z M45.008,101.608 L45.008,101.192 C45.008,100.60533 44.8533349,100.133335 44.544,99.776 C44.2346651,99.4186649 43.8240026,99.24 43.312,99.24 L42,99.24 C41.4559973,99.24 41.0160017,99.4266648 40.68,99.8 C40.3439983,100.173335 40.176,100.663997 40.176,101.272 L40.176,101.608 L45.008,101.608 Z M50.56,106.456 C49.8239963,106.456 49.226669,106.205336 48.768,105.704 C48.309331,105.202664 48.08,104.546671 48.08,103.736 L48.08,98.344 L49.232,98.344 L49.232,103.768 C49.232,104.269336 49.3546654,104.671998 49.6,104.976 C49.8453346,105.280002 50.1653314,105.432 50.56,105.432 L51.552,105.432 C52.0426691,105.432 52.4959979,105.234669 52.912,104.84 C53.3280021,104.445331 53.5946661,103.949336 53.712,103.352 L53.712,98.344 L54.864,98.344 L54.864,106.328 L53.744,106.328 L53.744,105.112 C53.4986654,105.496002 53.1733354,105.815999 52.768,106.072 C52.3626646,106.328001 51.9680019,106.456 51.584,106.456 L50.56,106.456 Z M66.048,98.216 C66.7520035,98.216 67.3093313,98.4426644 67.72,98.896 C68.1306687,99.3493356 68.336,99.975996 68.336,100.776 L68.336,106.328 L67.184,106.328 L67.184,100.744 C67.184,100.274664 67.0773344,99.906668 66.864,99.64 C66.6506656,99.373332 66.3680018,99.24 66.016,99.24 L65.104,99.24 C64.645331,99.24 64.2666682,99.3946651 63.968,99.704 C63.6693318,100.013335 63.4773338,100.450664 63.392,101.016 L63.392,106.328 L62.24,106.328 L62.24,100.84 C62.24,100.338664 62.1413343,99.9466681 61.944,99.664 C61.7466657,99.3813319 61.477335,99.24 61.136,99.24 L60.224,99.24 C59.7866645,99.24 59.4026683,99.4319981 59.072,99.816 C58.7413317,100.200002 58.5333338,100.70133 58.448,101.32 L58.448,106.328 L57.296,106.328 L57.296,98.344 L58.416,98.344 L58.416,99.496 C58.6293344,99.0906646 58.8959984,98.7760011 59.216,98.552 C59.5360016,98.3279989 59.8719982,98.216 60.224,98.216 L61.168,98.216 C61.6160022,98.216 62.002665,98.3253322 62.328,98.544 C62.653335,98.7626678 62.9013325,99.0799979 63.072,99.496 C63.3173346,99.0693312 63.610665,98.7493344 63.952,98.536 C64.293335,98.3226656 64.6666646,98.216 65.072,98.216 L66.048,98.216 Z M74.448,105.272 C74.448,104.68533 74.5546656,104.176002 74.768,103.744 C74.9813344,103.311998 75.3226643,102.920002 75.792,102.568 L79.76,99.56 C80.3146694,99.1546646 80.592,98.6640029 80.592,98.088 L80.592,97.576 C80.592,97.117331 80.4373349,96.7493347 80.128,96.472 C79.8186651,96.1946653 79.4080026,96.056 78.896,96.056 L77.424,96.056 C76.8586638,96.056 76.4080017,96.2506647 76.072,96.64 C75.7359983,97.0293353 75.568,97.5493301 75.568,98.2 L74.384,98.2 C74.384,97.2293285 74.6586639,96.4533362 75.208,95.872 C75.7573361,95.2906638 76.4853288,95 77.392,95 L78.896,95 C79.7600043,95 80.4559974,95.2346643 80.984,95.704 C81.5120026,96.1733357 81.776,96.7973294 81.776,97.576 L81.776,98.088 C81.776,98.9840045 81.3493376,99.7466635 80.496,100.376 L76.64,103.24 C76.2559981,103.517335 75.9920007,103.802665 75.848,104.096 C75.7039993,104.389335 75.632,104.781331 75.632,105.272 L81.936,105.272 L81.936,106.328 L74.448,106.328 L74.448,105.272 Z M84.272,106.488 C84.0159987,106.488 83.8080008,106.408001 83.648,106.248 C83.4879992,106.087999 83.408,105.880001 83.408,105.624 C83.408,105.367999 83.4879992,105.160001 83.648,105 C83.8080008,104.839999 84.0159987,104.76 84.272,104.76 C84.5280013,104.76 84.7359992,104.839999 84.896,105 C85.0560008,105.160001 85.136,105.367999 85.136,105.624 C85.136,105.880001 85.0560008,106.087999 84.896,106.248 C84.7359992,106.408001 84.5280013,106.488 84.272,106.488 Z M90.368,106.456 C89.7279968,106.456 89.1600025,106.306668 88.664,106.008 C88.1679975,105.709332 87.7813347,105.288003 87.504,104.744 C87.2266653,104.199997 87.088,103.576004 87.088,102.872 L87.088,98.584 C87.088,97.8799965 87.2266653,97.2560027 87.504,96.712 C87.7813347,96.1679973 88.1679975,95.7466682 88.664,95.448 C89.1600025,95.1493318 89.7279968,95 90.368,95 L92.064,95 C92.7040032,95 93.2693309,95.1493318 93.76,95.448 C94.2506691,95.7466682 94.6319986,96.1679973 94.904,96.712 C95.1760014,97.2560027 95.312,97.8799965 95.312,98.584 L95.312,102.872 C95.312,103.576004 95.1760014,104.199997 94.904,104.744 C94.6319986,105.288003 94.2506691,105.709332 93.76,106.008 C93.2693309,106.306668 92.7040032,106.456 92.064,106.456 L90.368,106.456 Z M92.032,105.4 C92.6613365,105.4 93.1679981,105.168002 93.552,104.704 C93.9360019,104.239998 94.128,103.629337 94.128,102.872 L94.128,98.584 C94.128,97.8266629 93.9360019,97.2160023 93.552,96.752 C93.1679981,96.2879977 92.6613365,96.056 92.032,96.056 L90.4,96.056 C89.7706635,96.056 89.2586686,96.2879977 88.864,96.752 C88.4693314,97.2160023 88.272,97.8266629 88.272,98.584 L88.272,102.872 C88.272,103.629337 88.4693314,104.239998 88.864,104.704 C89.2586686,105.168002 89.7706635,105.4 90.4,105.4 L92.032,105.4 Z" id="Ethereum2.0" fill="#2A3036" fill-rule="nonzero"></path>
                    </g>
                </g>
                <g id="Group-31" transform="translate(324.000000, 244.000000)">
                    <g id="Rectangle-Copy-11">
                        <use fill="black" fill-opacity="1" filter="url(#filter-9)" xlink:href="#path-8"></use>
                        <use fill="#FFFFFF" fill-rule="evenodd" xlink:href="#path-8"></use>
                    </g>
                    <g id="Group-20" transform="translate(82.000000, 54.000000)">
                        <path d="M1.02318154e-12,92.8 L1.184,92.8 L1.184,104 L1.02318154e-12,104 L1.02318154e-12,92.8 Z M3.84,96.016 L4.96,96.016 L4.96,97.2 C5.20533456,96.8159981 5.52533136,96.5013346 5.92,96.256 C6.31466864,96.0106654 6.70933136,95.888 7.104,95.888 L8.192,95.888 C8.92800368,95.888 9.5226644,96.1386642 9.976,96.64 C10.4293356,97.1413358 10.656,97.7973293 10.656,98.608 L10.656,104 L9.504,104 L9.504,98.576 C9.504,98.0853309 9.38133456,97.6853349 9.136,97.376 C8.89066544,97.0666651 8.56533536,96.912 8.16,96.912 L7.136,96.912 C6.63466416,96.912 6.17866872,97.1093314 5.768,97.504 C5.35733128,97.8986686 5.0986672,98.4053302 4.992,99.024 L4.992,104 L3.84,104 L3.84,96.016 Z M15.584,104.128 C14.709329,104.128 14.005336,103.864003 13.472,103.336 C12.938664,102.807997 12.672,102.106671 12.672,101.232 L12.672,98.944 C12.672,98.0266621 12.938664,97.2880028 13.472,96.728 C14.005336,96.1679972 14.7039957,95.888 15.568,95.888 L16.88,95.888 C17.7013374,95.888 18.3626642,96.117331 18.864,96.576 C19.3653358,97.034669 19.616,97.6373296 19.616,98.384 L18.496,98.384 C18.496,97.9466645 18.3493348,97.5920014 18.056,97.32 C17.7626652,97.0479986 17.3706691,96.912 16.88,96.912 L15.568,96.912 C15.0453307,96.912 14.6240016,97.0986648 14.304,97.472 C13.9839984,97.8453352 13.824,98.335997 13.824,98.944 L13.824,101.232 C13.824,101.797336 13.986665,102.250665 14.312,102.592 C14.637335,102.933335 15.0613307,103.104 15.584,103.104 L16.896,103.104 C17.3973358,103.104 17.7999985,102.928002 18.104,102.576 C18.4080015,102.223998 18.56,101.75467 18.56,101.168 L19.68,101.168 C19.68,102.053338 19.4240026,102.767997 18.912,103.312 C18.3999974,103.856003 17.7280042,104.128 16.896,104.128 L15.584,104.128 Z M24.224,104.128 C23.3279955,104.128 22.6080027,103.850669 22.064,103.296 C21.5199973,102.741331 21.248,102.010671 21.248,101.104 L21.248,98.912 C21.248,98.0053288 21.5226639,97.2746694 22.072,96.72 C22.6213361,96.1653306 23.3493288,95.888 24.256,95.888 L25.568,95.888 C26.4746712,95.888 27.2026639,96.1653306 27.752,96.72 C28.3013361,97.2746694 28.576,98.0053288 28.576,98.912 L28.576,101.104 C28.576,102.010671 28.2986694,102.741331 27.744,103.296 C27.1893306,103.850669 26.4533379,104.128 25.536,104.128 L24.224,104.128 Z M25.536,103.104 C26.1120029,103.104 26.570665,102.920002 26.912,102.552 C27.253335,102.183998 27.424,101.701336 27.424,101.104 L27.424,98.912 C27.424,98.3146637 27.253335,97.8320018 26.912,97.464 C26.570665,97.0959982 26.1226694,96.912 25.568,96.912 L24.256,96.912 C23.7013306,96.912 23.253335,97.0959982 22.912,97.464 C22.570665,97.8320018 22.4,98.3146637 22.4,98.912 L22.4,101.104 C22.4,101.712003 22.5653317,102.197332 22.896,102.56 C23.2266683,102.922668 23.6693306,103.104 24.224,103.104 L25.536,103.104 Z M33.28,107.248 C32.5759965,107.248 31.994669,107.058669 31.536,106.68 C31.077331,106.301331 30.8213336,105.80267 30.768,105.184 L31.92,105.184 C31.9626669,105.504002 32.1093321,105.762666 32.36,105.96 C32.6106679,106.157334 32.9173315,106.256 33.28,106.256 L34.608,106.256 C35.1626694,106.256 35.5919985,106.072002 35.896,105.704 C36.2000015,105.335998 36.352,104.821337 36.352,104.16 L36.352,102.928 C36.1173322,103.248002 35.8106686,103.506666 35.432,103.704 C35.0533314,103.901334 34.6880018,104 34.336,104 L33.168,104 C32.6239973,104 32.1386688,103.872001 31.712,103.616 C31.2853312,103.359999 30.9546678,103.002669 30.72,102.544 C30.4853322,102.085331 30.368,101.552003 30.368,100.944 L30.368,99.072 C30.368,98.1226619 30.6426639,97.3546696 31.192,96.768 C31.7413361,96.1813304 32.4639955,95.888 33.36,95.888 L34.48,95.888 C34.821335,95.888 35.1733315,95.983999 35.536,96.176 C35.8986685,96.368001 36.1813323,96.6133318 36.384,96.912 L36.384,96.016 L37.504,96.016 L37.504,104.16 C37.504,105.130672 37.2480026,105.888 36.736,106.432 C36.2239974,106.976003 35.5146712,107.248 34.608,107.248 L33.28,107.248 Z M34.336,102.976 C34.869336,102.976 35.3253314,102.765335 35.704,102.344 C36.0826686,101.922665 36.2986664,101.38667 36.352,100.736 L36.352,98.768 C36.3093331,98.2239973 36.1093351,97.7786684 35.752,97.432 C35.3946649,97.0853316 34.9706691,96.912 34.48,96.912 L33.392,96.912 C32.8266638,96.912 32.373335,97.1093314 32.032,97.504 C31.690665,97.8986686 31.52,98.4213301 31.52,99.072 L31.52,100.944 C31.52,101.541336 31.6773318,102.029331 31.992,102.408 C32.3066682,102.786669 32.7093309,102.976 33.2,102.976 L34.336,102.976 Z M39.936,96.016 L41.056,96.016 L41.056,97.2 C41.3013346,96.8159981 41.6213314,96.5013346 42.016,96.256 C42.4106686,96.0106654 42.8053314,95.888 43.2,95.888 L44.288,95.888 C45.0240037,95.888 45.6186644,96.1386642 46.072,96.64 C46.5253356,97.1413358 46.752,97.7973293 46.752,98.608 L46.752,104 L45.6,104 L45.6,98.576 C45.6,98.0853309 45.4773346,97.6853349 45.232,97.376 C44.9866654,97.0666651 44.6613354,96.912 44.256,96.912 L43.232,96.912 C42.7306642,96.912 42.2746687,97.1093314 41.864,97.504 C41.4533313,97.8986686 41.1946672,98.4053302 41.088,99.024 L41.088,104 L39.936,104 L39.936,96.016 Z M49.952,94.816 C49.6959987,94.816 49.4880008,94.7360008 49.328,94.576 C49.1679992,94.4159992 49.088,94.2080013 49.088,93.952 C49.088,93.6959987 49.1679992,93.4880008 49.328,93.328 C49.4880008,93.1679992 49.6959987,93.088 49.952,93.088 C50.2080013,93.088 50.4159992,93.1679992 50.576,93.328 C50.7360008,93.4880008 50.816,93.6959987 50.816,93.952 C50.816,94.2080013 50.7360008,94.4159992 50.576,94.576 C50.4159992,94.7360008 50.2080013,94.816 49.952,94.816 Z M49.376,96.016 L50.528,96.016 L50.528,104 L49.376,104 L49.376,96.016 Z M56.384,104 C55.5413291,104 54.9360018,103.818668 54.568,103.456 C54.1999982,103.093332 54.016,102.496004 54.016,101.664 L54.016,97.04 L52.608,97.04 L52.608,96.016 L54.016,96.016 L54.016,93.6 L55.168,93.6 L55.168,96.016 L57.248,96.016 L57.248,97.04 L55.168,97.04 L55.168,101.664 C55.168,102.133336 55.2613324,102.469332 55.448,102.672 C55.6346676,102.874668 55.9466645,102.976 56.384,102.976 L57.248,102.976 L57.248,104 L56.384,104 Z M62.016,104.128 C61.1199955,104.128 60.4000027,103.850669 59.856,103.296 C59.3119973,102.741331 59.04,102.010671 59.04,101.104 L59.04,98.912 C59.04,98.0053288 59.3146639,97.2746694 59.864,96.72 C60.4133361,96.1653306 61.1413288,95.888 62.048,95.888 L63.36,95.888 C64.2666712,95.888 64.9946639,96.1653306 65.544,96.72 C66.0933361,97.2746694 66.368,98.0053288 66.368,98.912 L66.368,101.104 C66.368,102.010671 66.0906694,102.741331 65.536,103.296 C64.9813306,103.850669 64.2453379,104.128 63.328,104.128 L62.016,104.128 Z M63.328,103.104 C63.9040029,103.104 64.362665,102.920002 64.704,102.552 C65.045335,102.183998 65.216,101.701336 65.216,101.104 L65.216,98.912 C65.216,98.3146637 65.045335,97.8320018 64.704,97.464 C64.362665,97.0959982 63.9146694,96.912 63.36,96.912 L62.048,96.912 C61.4933306,96.912 61.045335,97.0959982 60.704,97.464 C60.362665,97.8320018 60.192,98.3146637 60.192,98.912 L60.192,101.104 C60.192,101.712003 60.3573317,102.197332 60.688,102.56 C61.0186683,102.922668 61.4613306,103.104 62.016,103.104 L63.328,103.104 Z M72.704,92.8 L73.824,92.8 L80.032,102.128 L80.032,92.8 L81.184,92.8 L81.184,104 L80.064,104 L73.856,94.736 L73.856,104 L72.704,104 L72.704,92.8 Z M86.336,104.128 C85.4399955,104.128 84.7200027,103.864003 84.176,103.336 C83.6319973,102.807997 83.36,102.106671 83.36,101.232 L83.36,98.944 C83.36,98.0266621 83.6319973,97.2880028 84.176,96.728 C84.7200027,96.1679972 85.4399955,95.888 86.336,95.888 L87.648,95.888 C88.5013376,95.888 89.1893307,96.1599973 89.712,96.704 C90.2346693,97.2480027 90.496,97.9679955 90.496,98.864 L90.496,100.272 L84.512,100.272 L84.512,101.232 C84.512,101.786669 84.6799983,102.237332 85.016,102.584 C85.3520017,102.930668 85.7919973,103.104 86.336,103.104 L87.552,103.104 C88.085336,103.104 88.5173317,102.957335 88.848,102.664 C89.1786683,102.370665 89.344,101.978669 89.344,101.488 L90.464,101.488 C90.464,102.277337 90.197336,102.914664 89.664,103.4 C89.130664,103.885336 88.426671,104.128 87.552,104.128 L86.336,104.128 Z M89.344,99.28 L89.344,98.864 C89.344,98.2773304 89.1893349,97.8053351 88.88,97.448 C88.5706651,97.0906649 88.1600026,96.912 87.648,96.912 L86.336,96.912 C85.7919973,96.912 85.3520017,97.0986648 85.016,97.472 C84.6799983,97.8453352 84.512,98.335997 84.512,98.944 L84.512,99.28 L89.344,99.28 Z M95.648,104 C94.8053291,104 94.2000018,103.818668 93.832,103.456 C93.4639982,103.093332 93.28,102.496004 93.28,101.664 L93.28,97.04 L91.872,97.04 L91.872,96.016 L93.28,96.016 L93.28,93.6 L94.432,93.6 L94.432,96.016 L96.512,96.016 L96.512,97.04 L94.432,97.04 L94.432,101.664 C94.432,102.133336 94.5253324,102.469332 94.712,102.672 C94.8986676,102.874668 95.2106645,102.976 95.648,102.976 L96.512,102.976 L96.512,104 L95.648,104 Z M108.464,96.016 L106.736,103.072 C106.650666,103.392002 106.533334,103.626666 106.384,103.776 C106.234666,103.925334 106.032001,104 105.776,104 L105.232,104 L103.232,97.968 L101.168,104 L100.624,104 C100.378665,104 100.176001,103.925334 100.016,103.776 C99.8559992,103.626666 99.738667,103.392002 99.664,103.072 L97.92,96.016 L99.136,96.016 L100.624,102.72 L102.784,96.24 L103.2,96.24 C103.509335,96.24 103.717333,96.410665 103.824,96.752 L105.776,102.672 L107.248,96.016 L108.464,96.016 Z M112.848,104.128 C111.951996,104.128 111.232003,103.850669 110.688,103.296 C110.143997,102.741331 109.872,102.010671 109.872,101.104 L109.872,98.912 C109.872,98.0053288 110.146664,97.2746694 110.696,96.72 C111.245336,96.1653306 111.973329,95.888 112.88,95.888 L114.192,95.888 C115.098671,95.888 115.826664,96.1653306 116.376,96.72 C116.925336,97.2746694 117.2,98.0053288 117.2,98.912 L117.2,101.104 C117.2,102.010671 116.922669,102.741331 116.368,103.296 C115.813331,103.850669 115.077338,104.128 114.16,104.128 L112.848,104.128 Z M114.16,103.104 C114.736003,103.104 115.194665,102.920002 115.536,102.552 C115.877335,102.183998 116.048,101.701336 116.048,101.104 L116.048,98.912 C116.048,98.3146637 115.877335,97.8320018 115.536,97.464 C115.194665,97.0959982 114.746669,96.912 114.192,96.912 L112.88,96.912 C112.325331,96.912 111.877335,97.0959982 111.536,97.464 C111.194665,97.8320018 111.024,98.3146637 111.024,98.912 L111.024,101.104 C111.024,101.712003 111.189332,102.197332 111.52,102.56 C111.850668,102.922668 112.293331,103.104 112.848,103.104 L114.16,103.104 Z M119.312,96.016 L120.432,96.016 L120.432,97.248 C120.645334,96.8746648 120.967998,96.5706678 121.4,96.336 C121.832002,96.1013322 122.282664,95.984 122.752,95.984 L123.456,95.984 L123.456,97.024 L122.752,97.024 C122.06933,97.024 121.517335,97.2399978 121.096,97.672 C120.674665,98.1040022 120.464,98.6773298 120.464,99.392 L120.464,104 L119.312,104 L119.312,96.016 Z M130.384,104 L127.248,100.224 L126.144,101.328 L126.144,104 L124.992,104 L124.992,92.8 L126.144,92.8 L126.144,99.92 L130.096,96.016 L131.504,96.016 L128.048,99.44 L131.76,104 L130.384,104 Z" id="IncognitoNetwork" fill="#2A3036" fill-rule="nonzero"></path>
                        <path d="M36.256,66 L42.358,66 C43.2940047,66 44.0469972,66.2639974 44.617,66.792 C45.1870029,67.3200026 45.472,68.0159957 45.472,68.88 L45.472,70.734 C45.472,71.6580046 45.1660031,72.4049971 44.554,72.975 C43.9419969,73.5450028 43.138005,73.83 42.142,73.83 L37.588,73.83 L37.588,78.6 L36.256,78.6 L36.256,66 Z M42.106,72.642 C42.7180031,72.642 43.2099981,72.4650018 43.582,72.111 C43.9540019,71.7569982 44.14,71.2860029 44.14,70.698 L44.14,68.844 C44.14,68.3519975 43.9750017,67.9530015 43.645,67.647 C43.3149984,67.3409985 42.8740028,67.188 42.322,67.188 L37.588,67.188 L37.588,72.642 L42.106,72.642 Z M47.416,69.618 L48.676,69.618 L48.676,71.004 C48.916,70.5839979 49.2789976,70.2420013 49.765,69.978 C50.2510024,69.7139987 50.7579974,69.582 51.286,69.582 L52.078,69.582 L52.078,70.752 L51.286,70.752 C50.5179962,70.752 49.8970024,70.9949976 49.423,71.481 C48.9489976,71.9670024 48.712,72.611996 48.712,73.416 L48.712,78.6 L47.416,78.6 L47.416,69.618 Z M54.778,68.268 C54.4899986,68.268 54.2560009,68.1780009 54.076,67.998 C53.8959991,67.8179991 53.806,67.5840014 53.806,67.296 C53.806,67.0079986 53.8959991,66.7740009 54.076,66.594 C54.2560009,66.4139991 54.4899986,66.324 54.778,66.324 C55.0660014,66.324 55.2999991,66.4139991 55.48,66.594 C55.6600009,66.7740009 55.75,67.0079986 55.75,67.296 C55.75,67.5840014 55.6600009,67.8179991 55.48,67.998 C55.2999991,68.1780009 55.0660014,68.268 54.778,68.268 Z M54.13,69.618 L55.426,69.618 L55.426,78.6 L54.13,78.6 L54.13,69.618 Z M61.6,78.6 C61.0959975,78.6 60.7300011,78.2940031 60.502,77.682 L57.406,69.618 L58.774,69.618 L61.546,77.178 L61.564,77.178 L64.336,69.618 L65.704,69.618 L62.212,78.6 L61.6,78.6 Z M69.952,78.744 C69.0759956,78.744 68.3770026,78.5160023 67.855,78.06 C67.3329974,77.6039977 67.072,76.9920038 67.072,76.224 L67.072,75.648 C67.072,74.8919962 67.3419973,74.2860023 67.882,73.83 C68.4220027,73.3739977 69.1359956,73.146 70.024,73.146 L71.176,73.146 C71.572,73.146 71.9799979,73.2059994 72.4,73.326 C72.8200021,73.4460006 73.1799985,73.607999 73.48,73.812 L73.48,72.318 C73.48,71.8139975 73.3240016,71.4030016 73.012,71.085 C72.6999984,70.7669984 72.2860026,70.608 71.77,70.608 L70.33,70.608 C69.8139974,70.608 69.4000016,70.7279988 69.088,70.968 C68.7759984,71.2080012 68.62,71.525998 68.62,71.922 L67.324,71.922 C67.324,71.1899963 67.5999972,70.5990023 68.152,70.149 C68.7040028,69.6989977 69.4299955,69.474 70.33,69.474 L71.77,69.474 C72.6580044,69.474 73.3749973,69.7349974 73.921,70.257 C74.4670027,70.7790026 74.74,71.4659957 74.74,72.318 L74.74,78.6 L73.516,78.6 L73.516,77.34 C73.2399986,77.7720022 72.8770023,78.1139987 72.427,78.366 C71.9769978,78.6180013 71.5120024,78.744 71.032,78.744 L69.952,78.744 Z M71.068,77.61 C71.6320028,77.61 72.1359978,77.4360017 72.58,77.088 C73.0240022,76.7399983 73.3239992,76.2780029 73.48,75.702 L73.48,75.036 C73.2399988,74.8079989 72.9070021,74.6250007 72.481,74.487 C72.0549979,74.3489993 71.6200022,74.28 71.176,74.28 L70.024,74.28 C69.5319975,74.28 69.1330015,74.4059987 68.827,74.658 C68.5209985,74.9100013 68.368,75.239998 68.368,75.648 L68.368,76.224 C68.368,76.6440021 68.5119986,76.9799987 68.8,77.232 C69.0880014,77.4840013 69.4719976,77.61 69.952,77.61 L71.068,77.61 Z M80.284,78.744 C79.2999951,78.744 78.508,78.447003 77.908,77.853 C77.307997,77.258997 77.008,76.4700049 77.008,75.486 L77.008,72.912 C77.008,71.8799948 77.307997,71.0490031 77.908,70.419 C78.508,69.7889968 79.2939951,69.474 80.266,69.474 L81.742,69.474 C82.6660046,69.474 83.4099972,69.7319974 83.974,70.248 C84.5380028,70.7640026 84.82,71.4419958 84.82,72.282 L83.56,72.282 C83.56,71.7899975 83.3950017,71.3910015 83.065,71.085 C82.7349984,70.7789985 82.2940028,70.626 81.742,70.626 L80.266,70.626 C79.6779971,70.626 79.2040018,70.8359979 78.844,71.256 C78.4839982,71.6760021 78.304,72.2279966 78.304,72.912 L78.304,75.486 C78.304,76.1220032 78.4869982,76.6319981 78.853,77.016 C79.2190018,77.4000019 79.6959971,77.592 80.284,77.592 L81.76,77.592 C82.3240028,77.592 82.7769983,77.394002 83.119,76.998 C83.4610017,76.601998 83.632,76.0740033 83.632,75.414 L84.892,75.414 C84.892,76.410005 84.6040029,77.2139969 84.028,77.826 C83.4519971,78.4380031 82.6960047,78.744 81.76,78.744 L80.284,78.744 Z M89.914,82.254 C89.121996,82.254 88.4680026,82.0410021 87.952,81.615 C87.4359974,81.1889979 87.1480003,80.6280035 87.088,79.932 L88.384,79.932 C88.4320002,80.2920018 88.5969986,80.5829989 88.879,80.805 C89.1610014,81.0270011 89.505998,81.138 89.914,81.138 L91.318,81.138 C91.9420031,81.138 92.4249983,80.9310021 92.767,80.517 C93.1090017,80.1029979 93.28,79.5240037 93.28,78.78 L93.28,77.124 C92.9919986,77.5560022 92.6290022,77.9099986 92.191,78.186 C91.7529978,78.4620014 91.3180022,78.6 90.886,78.6 L89.734,78.6 C88.8939958,78.6 88.2130026,78.3180028 87.691,77.754 C87.1689974,77.1899972 86.908,76.4520046 86.908,75.54 L86.908,69.618 L88.204,69.618 L88.204,75.576 C88.204,76.1400028 88.3449986,76.5929983 88.627,76.935 C88.9090014,77.2770017 89.2779977,77.448 89.734,77.448 L90.85,77.448 C91.4020028,77.448 91.9119977,77.2260022 92.38,76.782 C92.8480023,76.3379978 93.1479993,75.7800034 93.28,75.108 L93.28,69.618 L94.576,69.618 L94.576,78.78 C94.576,79.8720055 94.2880029,80.7239969 93.712,81.336 C93.1359971,81.9480031 92.3380051,82.254 91.318,82.254 L89.914,82.254 Z" id="Privacy" stroke="#2A3036" stroke-width="0.75" fill="#2A3036" fill-rule="nonzero"></path>
                        <g id="Group-10" transform="translate(45.256000, 0.000000)">
                            <g id="Group-6-Copy" fill="#07252A">
                                <circle id="Oval-Copy" cx="20" cy="20" r="20"></circle>
                            </g>
                            <g id="flaticon1560311901-svg" transform="translate(9.000000, 10.000000)" fill="#FFFFFF" fill-rule="nonzero" stroke="#FFFFFF" stroke-width="0.25">
                                <path d="M6,13.75 C4.3435,13.75 3,15.0935 3,16.75 C3,18.4065 4.3435,19.75 6,19.75 C7.6565,19.75 9,18.4065 9,16.75 C9,15.0935 7.6565,13.75 6,13.75 Z M6,18.75 C4.8955,18.75 4,17.8545 4,16.75 C4,15.6455 4.8955,14.75 6,14.75 C7.1045,14.75 8,15.6455 8,16.75 C8,17.8545 7.1045,18.75 6,18.75 Z M16,13.75 C14.3435,13.75 13,15.0935 13,16.75 C13,18.4065 14.3435,19.75 16,19.75 C17.6565,19.75 19,18.4065 19,16.75 C19,15.0935 17.6565,13.75 16,13.75 Z M16,18.75 C14.8955,18.75 14,17.8545 14,16.75 C14,15.6455 14.8955,14.75 16,14.75 C17.1045,14.75 18,15.6455 18,16.75 C18,17.8545 17.1045,18.75 16,18.75 Z" id="Shape"></path>
                                <path d="M21.5,10.25 L0.5,10.25 C0.224,10.25 0,10.4735 0,10.75 C0,11.0265 0.224,11.25 0.5,11.25 L21.5,11.25 C21.776,11.25 22,11.0265 22,10.75 C22,10.4735 21.776,10.25 21.5,10.25 Z M5.5,9.25 L16.5,9.25 C17.052,9.25 17.5,8.802 17.5,8.25 L17,1.25 C17,0.698 16.552,0.25 16,0.25 C16,0.25 11,1.75 10.9685,1.75 C10.9365,1.75 6,0.25 6,0.25 C5.448,0.25 5,0.698 5,1.25 L4.5,8.25 C4.5,8.802 4.948,9.25 5.5,9.25 Z M6,1.25 C6,1.25 11.014,2.75 11,2.75 C10.986,2.75 16,1.25 16,1.25 L16.5,8.25 L5.5,8.25 L6,1.25 Z M12.602,18.129 C11.4305,16.957 10.531,16.957 9.3595,18.129 L9.366,18.1355 C9.267,18.227 9.203,18.3555 9.203,18.5 C9.203,18.7765 9.427,19 9.703,19 C9.8505,19 9.9795,18.9335 10.071,18.832 C10.8525,18.055 11.115,18.056 11.8945,18.836 C11.985,18.9275 12.1105,18.9845 12.2495,18.9845 C12.5255,18.9845 12.7495,18.761 12.7495,18.4845 C12.7495,18.3455 12.6925,18.22 12.601,18.1295 L12.602,18.129 Z" id="Shape"></path>
                            </g>
                        </g>
                    </g>
                </g>
                <g id="Group-29" transform="translate(640.000000, 0.000000)">
                    <g id="Rectangle-Copy-8">
                        <use fill="black" fill-opacity="1" filter="url(#filter-11)" xlink:href="#path-10"></use>
                        <use fill="#FFFFFF" fill-rule="evenodd" xlink:href="#path-10"></use>
                    </g>
                    <g id="Group-26" transform="translate(87.000000, 55.000000)" fill-rule="nonzero">
                        <path d="M3.632,106.456 C2.91732976,106.456 2.28533608,106.285335 1.736,105.944 C1.18666392,105.602665 0.76000152,105.125336 0.456,104.512 C0.15199848,103.898664 -5.1159077e-13,103.192004 -5.1159077e-13,102.392 L-5.1159077e-13,99.064 C-5.1159077e-13,98.263996 0.15199848,97.5546698 0.456,96.936 C0.76000152,96.3173302 1.1919972,95.8400017 1.752,95.504 C2.3120028,95.1679983 2.95999632,95 3.696,95 L5.392,95 C6.0853368,95 6.69599736,95.1493318 7.224,95.448 C7.75200264,95.7466682 8.1626652,96.1679973 8.456,96.712 C8.7493348,97.2560027 8.896,97.8799965 8.896,98.584 L7.744,98.584 C7.744,97.8266629 7.52800216,97.2160023 7.096,96.752 C6.66399784,96.2879977 6.09600352,96.056 5.392,96.056 L3.696,96.056 C2.93866288,96.056 2.33066896,96.3306639 1.872,96.88 C1.41333104,97.4293361 1.184,98.1573288 1.184,99.064 L1.184,102.392 C1.184,103.298671 1.40799776,104.026664 1.856,104.576 C2.30400224,105.125336 2.89599632,105.4 3.632,105.4 L5.36,105.4 C6.08533696,105.4 6.66933112,105.144003 7.112,104.632 C7.55466888,104.119997 7.776,103.448004 7.776,102.616 L8.928,102.616 C8.928,103.373337 8.77866816,104.042664 8.48,104.624 C8.18133184,105.205336 7.76266936,105.655998 7.224,105.976 C6.68533064,106.296002 6.06400352,106.456 5.36,106.456 L3.632,106.456 Z M13.472,106.456 C12.5759955,106.456 11.8560027,106.178669 11.312,105.624 C10.7679973,105.069331 10.496,104.338671 10.496,103.432 L10.496,101.24 C10.496,100.333329 10.7706639,99.6026694 11.32,99.048 C11.8693361,98.4933306 12.5973288,98.216 13.504,98.216 L14.816,98.216 C15.7226712,98.216 16.4506639,98.4933306 17,99.048 C17.5493361,99.6026694 17.824,100.333329 17.824,101.24 L17.824,103.432 C17.824,104.338671 17.5466694,105.069331 16.992,105.624 C16.4373306,106.178669 15.7013379,106.456 14.784,106.456 L13.472,106.456 Z M14.784,105.432 C15.3600029,105.432 15.818665,105.248002 16.16,104.88 C16.501335,104.511998 16.672,104.029336 16.672,103.432 L16.672,101.24 C16.672,100.642664 16.501335,100.160002 16.16,99.792 C15.818665,99.4239982 15.3706694,99.24 14.816,99.24 L13.504,99.24 C12.9493306,99.24 12.501335,99.4239982 12.16,99.792 C11.818665,100.160002 11.648,100.642664 11.648,101.24 L11.648,103.432 C11.648,104.040003 11.8133317,104.525332 12.144,104.888 C12.4746683,105.250668 12.9173306,105.432 13.472,105.432 L14.784,105.432 Z M22.208,106.456 C21.3973293,106.456 20.7466691,106.226669 20.256,105.768 C19.7653309,105.309331 19.52,104.70667 19.52,103.96 L20.64,103.96 C20.64,104.408002 20.7839986,104.770665 21.072,105.048 C21.3600014,105.325335 21.7386643,105.464 22.208,105.464 L23.6,105.464 C24.058669,105.464 24.4319986,105.370668 24.72,105.184 C25.0080014,104.997332 25.152,104.754668 25.152,104.456 L25.152,103.912 C25.152,103.709332 25.0720008,103.530667 24.912,103.376 C24.7519992,103.221333 24.5440013,103.117334 24.288,103.064 L21.52,102.584 C20.9653306,102.488 20.52,102.277335 20.184,101.952 C19.8479983,101.626665 19.68,101.245336 19.68,100.808 L19.68,100.28 C19.68,99.6613302 19.9146643,99.1626686 20.384,98.784 C20.8533357,98.4053314 21.4719962,98.216 22.24,98.216 L23.616,98.216 C24.3626704,98.216 24.965331,98.4266646 25.424,98.848 C25.882669,99.2693354 26.112,99.8266632 26.112,100.52 L24.992,100.52 C24.9813333,100.125331 24.8506679,99.8080012 24.6,99.568 C24.3493321,99.3279988 24.0213354,99.208 23.616,99.208 L22.24,99.208 C21.8133312,99.208 21.4720013,99.3066657 21.216,99.504 C20.9599987,99.7013343 20.832,99.9599984 20.832,100.28 L20.832,100.744 C20.832,100.946668 20.9199991,101.127999 21.096,101.288 C21.2720009,101.448001 21.4986653,101.549333 21.776,101.592 L24.528,102.072 C25.061336,102.168 25.490665,102.375998 25.816,102.696 C26.141335,103.016002 26.304,103.399998 26.304,103.848 L26.304,104.488 C26.304,105.07467 26.0560025,105.549332 25.56,105.912 C25.0639975,106.274668 24.4106707,106.456 23.6,106.456 L22.208,106.456 Z M37.008,98.216 C37.7120035,98.216 38.2693313,98.4426644 38.68,98.896 C39.0906687,99.3493356 39.296,99.975996 39.296,100.776 L39.296,106.328 L38.144,106.328 L38.144,100.744 C38.144,100.274664 38.0373344,99.906668 37.824,99.64 C37.6106656,99.373332 37.3280018,99.24 36.976,99.24 L36.064,99.24 C35.605331,99.24 35.2266682,99.3946651 34.928,99.704 C34.6293318,100.013335 34.4373338,100.450664 34.352,101.016 L34.352,106.328 L33.2,106.328 L33.2,100.84 C33.2,100.338664 33.1013343,99.9466681 32.904,99.664 C32.7066657,99.3813319 32.437335,99.24 32.096,99.24 L31.184,99.24 C30.7466645,99.24 30.3626683,99.4319981 30.032,99.816 C29.7013317,100.200002 29.4933338,100.70133 29.408,101.32 L29.408,106.328 L28.256,106.328 L28.256,98.344 L29.376,98.344 L29.376,99.496 C29.5893344,99.0906646 29.8559984,98.7760011 30.176,98.552 C30.4960016,98.3279989 30.8319982,98.216 31.184,98.216 L32.128,98.216 C32.5760022,98.216 32.962665,98.3253322 33.288,98.544 C33.613335,98.7626678 33.8613325,99.0799979 34.032,99.496 C34.2773346,99.0693312 34.570665,98.7493344 34.912,98.536 C35.253335,98.3226656 35.6266646,98.216 36.032,98.216 L37.008,98.216 Z M44.288,106.456 C43.3919955,106.456 42.6720027,106.178669 42.128,105.624 C41.5839973,105.069331 41.312,104.338671 41.312,103.432 L41.312,101.24 C41.312,100.333329 41.5866639,99.6026694 42.136,99.048 C42.6853361,98.4933306 43.4133288,98.216 44.32,98.216 L45.632,98.216 C46.5386712,98.216 47.2666639,98.4933306 47.816,99.048 C48.3653361,99.6026694 48.64,100.333329 48.64,101.24 L48.64,103.432 C48.64,104.338671 48.3626694,105.069331 47.808,105.624 C47.2533306,106.178669 46.5173379,106.456 45.6,106.456 L44.288,106.456 Z M45.6,105.432 C46.1760029,105.432 46.634665,105.248002 46.976,104.88 C47.317335,104.511998 47.488,104.029336 47.488,103.432 L47.488,101.24 C47.488,100.642664 47.317335,100.160002 46.976,99.792 C46.634665,99.4239982 46.1866694,99.24 45.632,99.24 L44.32,99.24 C43.7653306,99.24 43.317335,99.4239982 42.976,99.792 C42.634665,100.160002 42.464,100.642664 42.464,101.24 L42.464,103.432 C42.464,104.040003 42.6293317,104.525332 42.96,104.888 C43.2906683,105.250668 43.7333306,105.432 44.288,105.432 L45.6,105.432 Z M53.024,106.456 C52.2133293,106.456 51.5626691,106.226669 51.072,105.768 C50.5813309,105.309331 50.336,104.70667 50.336,103.96 L51.456,103.96 C51.456,104.408002 51.5999986,104.770665 51.888,105.048 C52.1760014,105.325335 52.5546643,105.464 53.024,105.464 L54.416,105.464 C54.874669,105.464 55.2479986,105.370668 55.536,105.184 C55.8240014,104.997332 55.968,104.754668 55.968,104.456 L55.968,103.912 C55.968,103.709332 55.8880008,103.530667 55.728,103.376 C55.5679992,103.221333 55.3600013,103.117334 55.104,103.064 L52.336,102.584 C51.7813306,102.488 51.336,102.277335 51,101.952 C50.6639983,101.626665 50.496,101.245336 50.496,100.808 L50.496,100.28 C50.496,99.6613302 50.7306643,99.1626686 51.2,98.784 C51.6693357,98.4053314 52.2879962,98.216 53.056,98.216 L54.432,98.216 C55.1786704,98.216 55.781331,98.4266646 56.24,98.848 C56.698669,99.2693354 56.928,99.8266632 56.928,100.52 L55.808,100.52 C55.7973333,100.125331 55.6666679,99.8080012 55.416,99.568 C55.1653321,99.3279988 54.8373354,99.208 54.432,99.208 L53.056,99.208 C52.6293312,99.208 52.2880013,99.3066657 52.032,99.504 C51.7759987,99.7013343 51.648,99.9599984 51.648,100.28 L51.648,100.744 C51.648,100.946668 51.7359991,101.127999 51.912,101.288 C52.0880009,101.448001 52.3146653,101.549333 52.592,101.592 L55.344,102.072 C55.877336,102.168 56.306665,102.375998 56.632,102.696 C56.957335,103.016002 57.12,103.399998 57.12,103.848 L57.12,104.488 C57.12,105.07467 56.8720025,105.549332 56.376,105.912 C55.8799975,106.274668 55.2266707,106.456 54.416,106.456 L53.024,106.456 Z M63.296,95.128 L64.416,95.128 L70.624,104.456 L70.624,95.128 L71.776,95.128 L71.776,106.328 L70.656,106.328 L64.448,97.064 L64.448,106.328 L63.296,106.328 L63.296,95.128 Z M76.928,106.456 C76.0319955,106.456 75.3120027,106.192003 74.768,105.664 C74.2239973,105.135997 73.952,104.434671 73.952,103.56 L73.952,101.272 C73.952,100.354662 74.2239973,99.6160028 74.768,99.056 C75.3120027,98.4959972 76.0319955,98.216 76.928,98.216 L78.24,98.216 C79.0933376,98.216 79.7813307,98.4879973 80.304,99.032 C80.8266693,99.5760027 81.088,100.295996 81.088,101.192 L81.088,102.6 L75.104,102.6 L75.104,103.56 C75.104,104.114669 75.2719983,104.565332 75.608,104.912 C75.9440017,105.258668 76.3839973,105.432 76.928,105.432 L78.144,105.432 C78.677336,105.432 79.1093317,105.285335 79.44,104.992 C79.7706683,104.698665 79.936,104.306669 79.936,103.816 L81.056,103.816 C81.056,104.605337 80.789336,105.242664 80.256,105.728 C79.722664,106.213336 79.018671,106.456 78.144,106.456 L76.928,106.456 Z M79.936,101.608 L79.936,101.192 C79.936,100.60533 79.7813349,100.133335 79.472,99.776 C79.1626651,99.4186649 78.7520026,99.24 78.24,99.24 L76.928,99.24 C76.3839973,99.24 75.9440017,99.4266648 75.608,99.8 C75.2719983,100.173335 75.104,100.663997 75.104,101.272 L75.104,101.608 L79.936,101.608 Z M86.24,106.328 C85.3973291,106.328 84.7920018,106.146668 84.424,105.784 C84.0559982,105.421332 83.872,104.824004 83.872,103.992 L83.872,99.368 L82.464,99.368 L82.464,98.344 L83.872,98.344 L83.872,95.928 L85.024,95.928 L85.024,98.344 L87.104,98.344 L87.104,99.368 L85.024,99.368 L85.024,103.992 C85.024,104.461336 85.1173324,104.797332 85.304,105 C85.4906676,105.202668 85.8026645,105.304 86.24,105.304 L87.104,105.304 L87.104,106.328 L86.24,106.328 Z M99.056,98.344 L97.328,105.4 C97.2426662,105.720002 97.1253341,105.954666 96.976,106.104 C96.8266659,106.253334 96.6240013,106.328 96.368,106.328 L95.824,106.328 L93.824,100.296 L91.76,106.328 L91.216,106.328 C90.9706654,106.328 90.7680008,106.253334 90.608,106.104 C90.4479992,105.954666 90.330667,105.720002 90.256,105.4 L88.512,98.344 L89.728,98.344 L91.216,105.048 L93.376,98.568 L93.792,98.568 C94.1013349,98.568 94.3093328,98.738665 94.416,99.08 L96.368,105 L97.84,98.344 L99.056,98.344 Z M103.44,106.456 C102.543996,106.456 101.824003,106.178669 101.28,105.624 C100.735997,105.069331 100.464,104.338671 100.464,103.432 L100.464,101.24 C100.464,100.333329 100.738664,99.6026694 101.288,99.048 C101.837336,98.4933306 102.565329,98.216 103.472,98.216 L104.784,98.216 C105.690671,98.216 106.418664,98.4933306 106.968,99.048 C107.517336,99.6026694 107.792,100.333329 107.792,101.24 L107.792,103.432 C107.792,104.338671 107.514669,105.069331 106.96,105.624 C106.405331,106.178669 105.669338,106.456 104.752,106.456 L103.44,106.456 Z M104.752,105.432 C105.328003,105.432 105.786665,105.248002 106.128,104.88 C106.469335,104.511998 106.64,104.029336 106.64,103.432 L106.64,101.24 C106.64,100.642664 106.469335,100.160002 106.128,99.792 C105.786665,99.4239982 105.338669,99.24 104.784,99.24 L103.472,99.24 C102.917331,99.24 102.469335,99.4239982 102.128,99.792 C101.786665,100.160002 101.616,100.642664 101.616,101.24 L101.616,103.432 C101.616,104.040003 101.781332,104.525332 102.112,104.888 C102.442668,105.250668 102.885331,105.432 103.44,105.432 L104.752,105.432 Z M109.904,98.344 L111.024,98.344 L111.024,99.576 C111.237334,99.2026648 111.559998,98.8986678 111.992,98.664 C112.424002,98.4293322 112.874664,98.312 113.344,98.312 L114.048,98.312 L114.048,99.352 L113.344,99.352 C112.66133,99.352 112.109335,99.5679978 111.688,100 C111.266665,100.432002 111.056,101.00533 111.056,101.72 L111.056,106.328 L109.904,106.328 L109.904,98.344 Z M120.976,106.328 L117.84,102.552 L116.736,103.656 L116.736,106.328 L115.584,106.328 L115.584,95.128 L116.736,95.128 L116.736,102.248 L120.688,98.344 L122.096,98.344 L118.64,101.768 L122.352,106.328 L120.976,106.328 Z" id="CosmosNetwork" fill="#2A3036"></path>
                        <path d="M48.19,76.108 L42.664,76.108 L41.368,79.6 L40,79.6 L44.842,67 L45.454,67 C45.850002,67 46.1379991,67.2399976 46.318,67.72 L49.09,74.992 L49.108,74.992 L49.108,75.028 L50.854,79.6 L49.486,79.6 L48.19,76.108 Z M43.078,74.992 L47.776,74.992 L45.436,68.728 L45.418,68.728 L43.078,74.992 Z M56.146,79.6 C55.1979953,79.6 54.5170021,79.396002 54.103,78.988 C53.6889979,78.579998 53.482,77.9080047 53.482,76.972 L53.482,71.77 L51.898,71.77 L51.898,70.618 L53.482,70.618 L53.482,67.9 L54.778,67.9 L54.778,70.618 L57.118,70.618 L57.118,71.77 L54.778,71.77 L54.778,76.972 C54.778,77.5000026 54.8829989,77.8779989 55.093,78.106 C55.303001,78.3340011 55.6539975,78.448 56.146,78.448 L57.118,78.448 L57.118,79.6 L56.146,79.6 Z M62.482,79.744 C61.473995,79.744 60.6640031,79.4320031 60.052,78.808 C59.4399969,78.1839969 59.134,77.3620051 59.134,76.342 L59.134,73.876 C59.134,72.8559949 59.4429969,72.0340031 60.061,71.41 C60.6790031,70.7859969 61.4979949,70.474 62.518,70.474 L63.994,70.474 C65.0140051,70.474 65.8329969,70.7859969 66.451,71.41 C67.0690031,72.0340031 67.378,72.8559949 67.378,73.876 L67.378,76.342 C67.378,77.3620051 67.0660031,78.1839969 66.442,78.808 C65.8179969,79.4320031 64.9900052,79.744 63.958,79.744 L62.482,79.744 Z M63.958,78.592 C64.6060032,78.592 65.1219981,78.3850021 65.506,77.971 C65.8900019,77.5569979 66.082,77.0140034 66.082,76.342 L66.082,73.876 C66.082,73.2039966 65.8900019,72.6610021 65.506,72.247 C65.1219981,71.8329979 64.6180031,71.626 63.994,71.626 L62.518,71.626 C61.8939969,71.626 61.3900019,71.8329979 61.006,72.247 C60.6219981,72.6610021 60.43,73.2039966 60.43,73.876 L60.43,76.342 C60.43,77.0260034 60.6159981,77.571998 60.988,77.98 C61.3600019,78.388002 61.8579969,78.592 62.482,78.592 L63.958,78.592 Z M79.6,70.474 C80.392004,70.474 81.0189977,70.7289974 81.481,71.239 C81.9430023,71.7490025 82.174,72.4539955 82.174,73.354 L82.174,79.6 L80.878,79.6 L80.878,73.318 C80.878,72.7899974 80.7580012,72.3760015 80.518,72.076 C80.2779988,71.7759985 79.960002,71.626 79.564,71.626 L78.538,71.626 C78.0219974,71.626 77.5960017,71.7999983 77.26,72.148 C76.9239983,72.4960017 76.7080005,72.9879968 76.612,73.624 L76.612,79.6 L75.316,79.6 L75.316,73.426 C75.316,72.8619972 75.2050011,72.4210016 74.983,72.103 C74.7609989,71.7849984 74.4580019,71.626 74.074,71.626 L73.048,71.626 C72.5559975,71.626 72.1240019,71.8419978 71.752,72.274 C71.3799981,72.7060022 71.1460005,73.2699965 71.05,73.966 L71.05,79.6 L69.754,79.6 L69.754,70.618 L71.014,70.618 L71.014,71.914 C71.254,71.4579977 71.5539982,71.1040013 71.914,70.852 C72.2740018,70.5999987 72.651998,70.474 73.048,70.474 L74.11,70.474 C74.6140025,70.474 75.0489982,70.5969988 75.415,70.843 C75.7810018,71.0890012 76.059999,71.4459977 76.252,71.914 C76.5280014,71.4339976 76.8579981,71.0740012 77.242,70.834 C77.6260019,70.5939988 78.0459977,70.474 78.502,70.474 L79.6,70.474 Z" id="Atom" stroke="#2A3036" stroke-width="0.75" fill="#2A3036"></path>
                        <g id="Cosmos_Logo" transform="translate(41.000000, 0.000000)">
                            <circle id="Oval" fill="#2E3148" cx="20" cy="20" r="20"></circle>
                            <circle id="Oval" fill="#1B1E36" cx="20" cy="20" r="11.6049383"></circle>
                            <path d="M20.0411523,2.55144033 C17.8823045,2.55144033 16.1316872,10.381893 16.1316872,20.0411523 C16.1316872,29.7004115 17.8823045,37.5308642 20.0411523,37.5308642 C22.2,37.5308642 23.9506173,29.7004115 23.9506173,20.0411523 C23.9506173,10.381893 22.2,2.55144033 20.0411523,2.55144033 Z M20.3111111,36.5432099 C20.0641975,36.872428 19.817284,36.6255144 19.817284,36.6255144 C18.8230453,35.473251 18.3259259,33.3333333 18.3259259,33.3333333 C16.5868313,27.7366255 17.000823,15.7201646 17.000823,15.7201646 C17.818107,6.18024691 19.3053498,3.92674897 19.8106996,3.42633745 C19.9175437,3.32112999 20.0845456,3.30793648 20.2065844,3.39506173 C20.9407407,3.91522634 21.5563786,6.09053498 21.5563786,6.09053498 C23.3744856,12.8395062 23.2098765,19.1769547 23.2098765,19.1769547 C23.3744856,24.691358 22.2987654,30.8641975 22.2987654,30.8641975 C21.4707819,35.5555556 20.3111111,36.5432099 20.3111111,36.5432099 Z" id="Shape" fill="#6F7390"></path>
                            <path d="M35.2115226,11.3374486 C34.1366255,9.46419753 26.4740741,11.8427984 18.0921811,16.6502058 C9.71028807,21.4576132 3.79670782,26.872428 4.87078189,28.744856 C5.94485597,30.617284 13.6082305,28.2395062 21.9901235,23.4320988 C30.3720165,18.6246914 36.2855967,13.2098765 35.2115226,11.3374486 Z M5.8617284,28.4872428 C5.45020576,28.4353909 5.54320988,28.0971193 5.54320988,28.0971193 C6.04773663,26.6617284 7.65432099,25.1654321 7.65432099,25.1654321 C11.6452675,20.8716049 22.2748971,15.2510288 22.2748971,15.2510288 C30.9555556,11.2123457 33.6518519,11.382716 34.3358025,11.5703704 C34.4810181,11.6105538 34.5759958,11.7497153 34.5604938,11.8995885 C34.4781893,12.7950617 32.8938272,14.4115226 32.8938272,14.4115226 C27.9473251,19.3497942 22.3679012,22.3613169 22.3679012,22.3613169 C17.6666667,25.2493827 11.7769547,27.3868313 11.7769547,27.3868313 C7.29547325,29.0016461 5.8617284,28.4872428 5.8617284,28.4872428 L5.8617284,28.4872428 Z" id="Shape" fill="#6F7390"></path>
                            <path d="M35.1736626,28.8065844 C36.2567901,26.9382716 30.3588477,21.4979424 22.0049383,16.655144 C13.6510288,11.8123457 5.9909465,9.40411523 4.90864198,11.2757202 C3.82633745,13.1473251 9.72345679,18.5843621 18.0814815,23.4271605 C26.4395062,28.2699588 34.091358,30.6781893 35.1736626,28.8065844 Z M5.62633745,11.9975309 C5.46584362,11.618107 5.80411523,11.526749 5.80411523,11.526749 C7.29958848,11.2444444 9.4,11.8872428 9.4,11.8872428 C15.1144033,13.1884774 25.3037037,19.5711934 25.3037037,19.5711934 C33.1489712,25.0609053 34.3522634,27.4790123 34.5325103,28.1654321 C34.5703509,28.3107676 34.4980867,28.4622447 34.3613169,28.5242798 C33.5432099,28.8987654 31.3522634,28.3407407 31.3522634,28.3407407 C24.599177,26.5300412 19.1983539,23.2123457 19.1983539,23.2123457 C14.345679,20.5950617 9.5473251,16.5679012 9.5473251,16.5679012 C5.90123457,13.4979424 5.62798354,12.000823 5.62798354,12.000823 L5.62633745,11.9975309 Z" id="Shape" fill="#6F7390"></path>
                            <circle id="Oval" fill="#B7B9C8" cx="20" cy="20" r="2.05761317"></circle>
                            <ellipse id="Oval" fill="#B7B9C8" cx="28.436214" cy="12.0987654" rx="1.19341564" ry="1.2345679"></ellipse>
                            <ellipse id="Oval" fill="#B7B9C8" cx="8.84773663" cy="16.2962963" rx="1.19341564" ry="1.2345679"></ellipse>
                            <ellipse id="Oval" fill="#B7B9C8" cx="17.5720165" cy="31.4403292" rx="1.19341564" ry="1.2345679"></ellipse>
                        </g>
                    </g>
                </g>
                <g id="Group-32" transform="translate(640.000000, 244.000000)">
                    <g id="Rectangle-Copy-13">
                        <use fill="black" fill-opacity="1" filter="url(#filter-13)" xlink:href="#path-12"></use>
                        <use fill="#FFFFFF" fill-rule="evenodd" xlink:href="#path-12"></use>
                    </g>
                    <text id="And-more." font-family="BaiJamjuree-Regular, Bai Jamjuree" font-size="16" font-weight="normal" fill="#2A3036">
                        <tspan x="111.28" y="114">And more.</tspan>
                    </text>
                </g>
            </g>
        </g>
    </g>
</svg>