<?xml version="1.0" encoding="UTF-8"?>
<svg width="69px" height="62px" viewBox="0 0 69 62" version="1.1" xmlns="http://www.w3.org/2000/svg" xmlns:xlink="http://www.w3.org/1999/xlink">
    <!-- Generator: Sketch 55.1 (78136) - https://sketchapp.com -->
    <title>top1</title>
    <desc>Created with Sketch.</desc>
    <defs>
        <polygon id="path-1" points="0.96504855 0.103074434 0.96504855 57.1197411 5.98664508 56.12589 12.6289411 54.812945 28.879492 51.5982201 32.9650485 50.7907767 33.8900959 50.9739482 49.4358685 54.0482201 55.6944566 55.2868932 64.9650486 57.1197411 64.9650486 0.103074434"></polygon>
        <linearGradient x1="49.9999989%" y1="-6.13948596%" x2="49.9999989%" y2="90.2430275%" id="linearGradient-3">
            <stop stop-color="#D35D5B" offset="0%"></stop>
            <stop stop-color="#F84A27" offset="55.7062362%"></stop>
            <stop stop-color="#CA3900" offset="100%"></stop>
        </linearGradient>
    </defs>
    <g id="Page-1" stroke="none" stroke-width="1" fill="none" fill-rule="evenodd">
        <g id="top1" transform="translate(2.000000, 2.000000)">
            <g id="Fill-1-Clipped-Copy-5">
                <mask id="mask-2" fill="white">
                    <use xlink:href="#path-1"></use>
                </mask>
                <use id="path-1" stroke="#FF9180" stroke-width="4" xlink:href="#path-1"></use>
                <polygon id="Fill-1" fill="url(#linearGradient-3)" fill-rule="nonzero" mask="url(#mask-2)" points="0.96504855 0.103074434 0.96504855 57.1197411 5.98664508 56.12589 12.6289411 54.812945 28.879492 51.5982201 32.9650485 50.7907767 33.8900959 50.9739482 49.4358685 54.0482201 55.6944566 55.2868932 64.9650486 57.1197411 64.9650486 0.103074434"></polygon>
            </g>
            <g id="Group-10-Copy-3" transform="translate(9.000000, 8.000000)" fill="#FFFFFF" fill-rule="nonzero">
                <polygon id="Fill-4-Copy-Copy" points="3.00000008 0 2.29171887 2.29178618 0 2.29178618 1.85414056 3.70821384 1.14585952 6 3.00000008 4.58357241 4.85414048 6 4.14585944 3.70821384 6 2.29178618 3.70828113 2.29178618"></polygon>
                <polygon id="Fill-4-Copy-Copy-3" points="45.0000001 0 44.2917189 2.29178618 42 2.29178618 43.8541406 3.70821384 43.1458595 6 45.0000001 4.58357241 46.8541405 6 46.1458594 3.70821384 48 2.29178618 45.7082811 2.29178618"></polygon>
            </g>
            <path d="M22.659,8.46 L19.773,8.46 L19.773,6.9 L27.339,6.9 L27.339,8.46 L24.453,8.46 L24.453,16 L22.659,16 L22.659,8.46 Z M31.512,16.104 C30.8273299,16.104 30.222836,15.9588348 29.6985,15.6685 C29.174164,15.3781652 28.7668348,14.970836 28.4765,14.4465 C28.1861652,13.922164 28.041,13.3133368 28.041,12.62 L28.041,10.28 C28.041,9.5866632 28.1861652,8.97783596 28.4765,8.4535 C28.7668348,7.92916405 29.174164,7.52183479 29.6985,7.2315 C30.222836,6.94116521 30.8273299,6.796 31.512,6.796 L32.89,6.796 C33.5746701,6.796 34.179164,6.94116521 34.7035,7.2315 C35.227836,7.52183479 35.6351652,7.92916405 35.9255,8.4535 C36.2158348,8.97783596 36.361,9.5866632 36.361,10.28 L36.361,12.62 C36.361,13.3133368 36.2158348,13.922164 35.9255,14.4465 C35.6351652,14.970836 35.227836,15.3781652 34.7035,15.6685 C34.179164,15.9588348 33.5746701,16.104 32.89,16.104 L31.512,16.104 Z M32.89,14.518 C33.3926692,14.518 33.7978318,14.3360018 34.1055,13.972 C34.4131682,13.6079982 34.567,13.1313363 34.567,12.542 L34.567,10.358 C34.567,9.76866372 34.4131682,9.29200182 34.1055,8.928 C33.7978318,8.56399818 33.3926692,8.382 32.89,8.382 L31.512,8.382 C31.0093308,8.382 30.6041682,8.56399818 30.2965,8.928 C29.9888318,9.29200182 29.835,9.76866372 29.835,10.358 L29.835,12.542 C29.835,13.1313363 29.9888318,13.6079982 30.2965,13.972 C30.6041682,14.3360018 31.0093308,14.518 31.512,14.518 L32.89,14.518 Z M37.713,6.9 L42.51,6.9 C43.0386693,6.9 43.5066646,7.00183232 43.914,7.2055 C44.3213354,7.40916769 44.6376655,7.69949812 44.863,8.0765 C45.0883345,8.45350188 45.201,8.88466424 45.201,9.37 L45.201,10.579 C45.201,11.0816692 45.0840012,11.5258314 44.85,11.9115 C44.6159988,12.2971686 44.2888354,12.5961656 43.8685,12.8085 C43.4481646,13.0208344 42.9606694,13.127 42.406,13.127 L39.507,13.127 L39.507,16 L37.713,16 L37.713,6.9 Z M42.38,11.567 C42.6833349,11.567 42.9303324,11.469501 43.121,11.2745 C43.3116676,11.079499 43.407,10.8216683 43.407,10.501 L43.407,9.448 C43.407,9.14466515 43.3225008,8.90416755 43.1535,8.7265 C42.9844992,8.54883245 42.7613347,8.46 42.484,8.46 L39.507,8.46 L39.507,11.567 L42.38,11.567 Z" id="TOP" fill="#FFFFFF" fill-rule="nonzero"></path>
            <g id="Group-12-Copy-7" transform="translate(22.000000, 13.000000)" fill="#FFFFFF" fill-rule="nonzero">
                <path d="M4.57314286,28 L4.57314286,12.6 L1.24114286,12.6 L1.24114286,8.764 L8.71714286,8.764 L8.71714286,28 L4.57314286,28 Z M17.2971429,17.4 C17.2971429,17.866669 17.2071438,18.299998 17.0271429,18.7 C16.847142,19.1 16.6004778,19.4499985 16.2871429,19.75 C15.973808,20.0500015 15.6104783,20.2833325 15.1971429,20.45 C14.7838075,20.6166675 14.3371453,20.7 13.8571429,20.7 C13.3771405,20.7 12.9304783,20.6166675 12.5171429,20.45 C12.1038075,20.2833325 11.7438111,20.0500015 11.4371429,19.75 C11.1304747,19.4499985 10.8871438,19.1 10.7071429,18.7 C10.527142,18.299998 10.4371429,17.866669 10.4371429,17.4 C10.4371429,16.933331 10.527142,16.500002 10.7071429,16.1 C10.8871438,15.699998 11.1304747,15.3500015 11.4371429,15.05 C11.7438111,14.7499985 12.1038075,14.5166675 12.5171429,14.35 C12.9304783,14.1833325 13.3771405,14.1 13.8571429,14.1 C14.3371453,14.1 14.7838075,14.1833325 15.1971429,14.35 C15.6104783,14.5166675 15.973808,14.7499985 16.2871429,15.05 C16.6004778,15.3500015 16.847142,15.699998 17.0271429,16.1 C17.2071438,16.500002 17.2971429,16.933331 17.2971429,17.4 Z M13.8571429,18.78 C14.2438115,18.78 14.5638083,18.646668 14.8171429,18.38 C15.0704775,18.113332 15.1971429,17.7866686 15.1971429,17.4 C15.1971429,17.0133314 15.0704775,16.686668 14.8171429,16.42 C14.5638083,16.153332 14.2438115,16.02 13.8571429,16.02 C13.4704743,16.02 13.1504775,16.153332 12.8971429,16.42 C12.6438083,16.686668 12.5171429,17.0133314 12.5171429,17.4 C12.5171429,17.7866686 12.6438083,18.113332 12.8971429,18.38 C13.1504775,18.646668 13.4704743,18.78 13.8571429,18.78 Z M11.6971429,28 L21.8771429,14.26 L24.5371429,14.26 L14.3571429,28 L11.6971429,28 Z M22.3571429,28.16 C21.8771405,28.16 21.4304783,28.0766675 21.0171429,27.91 C20.6038075,27.7433325 20.2438111,27.5100015 19.9371429,27.21 C19.6304747,26.9099985 19.3871438,26.56 19.2071429,26.16 C19.027142,25.759998 18.9371429,25.326669 18.9371429,24.86 C18.9371429,24.393331 19.027142,23.960002 19.2071429,23.56 C19.3871438,23.159998 19.6304747,22.8100015 19.9371429,22.51 C20.2438111,22.2099985 20.6038075,21.9766675 21.0171429,21.81 C21.4304783,21.6433325 21.8771405,21.56 22.3571429,21.56 C22.8371453,21.56 23.2871408,21.6433325 23.7071429,21.81 C24.127145,21.9766675 24.4904747,22.2099985 24.7971429,22.51 C25.1038111,22.8100015 25.347142,23.159998 25.5271429,23.56 C25.7071438,23.960002 25.7971429,24.393331 25.7971429,24.86 C25.7971429,25.326669 25.7071438,25.759998 25.5271429,26.16 C25.347142,26.56 25.1038111,26.9099985 24.7971429,27.21 C24.4904747,27.5100015 24.127145,27.7433325 23.7071429,27.91 C23.2871408,28.0766675 22.8371453,28.16 22.3571429,28.16 Z M22.3571429,26.24 C22.7438115,26.24 23.0671416,26.106668 23.3271429,25.84 C23.5871442,25.573332 23.7171429,25.2466686 23.7171429,24.86 C23.7171429,24.4733314 23.5871442,24.146668 23.3271429,23.88 C23.0671416,23.613332 22.7438115,23.48 22.3571429,23.48 C21.9704743,23.48 21.6504775,23.613332 21.3971429,23.88 C21.1438083,24.146668 21.0171429,24.4733314 21.0171429,24.86 C21.0171429,25.2466686 21.1438083,25.573332 21.3971429,25.84 C21.6504775,26.106668 21.9704743,26.24 22.3571429,26.24 Z" id="1%"></path>
            </g>
        </g>
    </g>
</svg>