<?xml version="1.0" encoding="UTF-8"?>
<svg width="69px" height="62px" viewBox="0 0 69 62" version="1.1" xmlns="http://www.w3.org/2000/svg" xmlns:xlink="http://www.w3.org/1999/xlink">
    <!-- Generator: Sketch 55.1 (78136) - https://sketchapp.com -->
    <title>top10</title>
    <desc>Created with Sketch.</desc>
    <defs>
        <polygon id="path-1" points="0.96504855 0.103074434 0.96504855 57.1197411 5.98664508 56.12589 12.6289411 54.812945 28.879492 51.5982201 32.9650485 50.7907767 33.8900959 50.9739482 49.4358685 54.0482201 55.6944566 55.2868932 64.9650486 57.1197411 64.9650486 0.103074434"></polygon>
        <linearGradient x1="49.9999989%" y1="-6.13948596%" x2="49.9999989%" y2="110.124282%" id="linearGradient-3">
            <stop stop-color="#FF842F" offset="0%"></stop>
            <stop stop-color="#FFA71C" offset="52.7174972%"></stop>
            <stop stop-color="#EE8710" offset="100%"></stop>
        </linearGradient>
    </defs>
    <g id="Page-1" stroke="none" stroke-width="1" fill="none" fill-rule="evenodd">
        <g id="top10" transform="translate(2.000000, 2.000000)">
            <g id="Fill-1-Clipped-Copy-6">
                <mask id="mask-2" fill="white">
                    <use xlink:href="#path-1"></use>
                </mask>
                <use id="path-1" stroke="#FFBB8B" stroke-width="4" xlink:href="#path-1"></use>
                <polygon id="Fill-1" fill="url(#linearGradient-3)" fill-rule="nonzero" mask="url(#mask-2)" points="0.96504855 0.103074434 0.96504855 57.1197411 5.98664508 56.12589 12.6289411 54.812945 28.879492 51.5982201 32.9650485 50.7907767 33.8900959 50.9739482 49.4358685 54.0482201 55.6944566 55.2868932 64.9650486 57.1197411 64.9650486 0.103074434"></polygon>
            </g>
            <g id="Group-10-Copy-4" transform="translate(9.000000, 8.000000)" fill="#FFFFFF" fill-rule="nonzero">
                <polygon id="Fill-4-Copy-Copy" points="3.00000008 0 2.29171887 2.29178618 0 2.29178618 1.85414056 3.70821384 1.14585952 6 3.00000008 4.58357241 4.85414048 6 4.14585944 3.70821384 6 2.29178618 3.70828113 2.29178618"></polygon>
                <polygon id="Fill-4-Copy-Copy-3" points="45.0000001 0 44.2917189 2.29178618 42 2.29178618 43.8541406 3.70821384 43.1458595 6 45.0000001 4.58357241 46.8541405 6 46.1458594 3.70821384 48 2.29178618 45.7082811 2.29178618"></polygon>
            </g>
            <path d="M22.659,8.46 L19.773,8.46 L19.773,6.9 L27.339,6.9 L27.339,8.46 L24.453,8.46 L24.453,16 L22.659,16 L22.659,8.46 Z M31.512,16.104 C30.8273299,16.104 30.222836,15.9588348 29.6985,15.6685 C29.174164,15.3781652 28.7668348,14.970836 28.4765,14.4465 C28.1861652,13.922164 28.041,13.3133368 28.041,12.62 L28.041,10.28 C28.041,9.5866632 28.1861652,8.97783595 28.4765,8.4535 C28.7668348,7.92916404 29.174164,7.52183479 29.6985,7.2315 C30.222836,6.94116522 30.8273299,6.796 31.512,6.796 L32.89,6.796 C33.5746701,6.796 34.179164,6.94116522 34.7035,7.2315 C35.227836,7.52183479 35.6351652,7.92916404 35.9255,8.4535 C36.2158348,8.97783595 36.361,9.5866632 36.361,10.28 L36.361,12.62 C36.361,13.3133368 36.2158348,13.922164 35.9255,14.4465 C35.6351652,14.970836 35.227836,15.3781652 34.7035,15.6685 C34.179164,15.9588348 33.5746701,16.104 32.89,16.104 L31.512,16.104 Z M32.89,14.518 C33.3926692,14.518 33.7978318,14.3360018 34.1055,13.972 C34.4131682,13.6079982 34.567,13.1313363 34.567,12.542 L34.567,10.358 C34.567,9.76866372 34.4131682,9.29200182 34.1055,8.928 C33.7978318,8.56399818 33.3926692,8.382 32.89,8.382 L31.512,8.382 C31.0093308,8.382 30.6041682,8.56399818 30.2965,8.928 C29.9888318,9.29200182 29.835,9.76866372 29.835,10.358 L29.835,12.542 C29.835,13.1313363 29.9888318,13.6079982 30.2965,13.972 C30.6041682,14.3360018 31.0093308,14.518 31.512,14.518 L32.89,14.518 Z M37.713,6.9 L42.51,6.9 C43.0386693,6.9 43.5066646,7.00183232 43.914,7.2055 C44.3213354,7.40916768 44.6376655,7.69949811 44.863,8.0765 C45.0883345,8.45350188 45.201,8.88466424 45.201,9.37 L45.201,10.579 C45.201,11.0816692 45.0840012,11.5258314 44.85,11.9115 C44.6159988,12.2971686 44.2888354,12.5961656 43.8685,12.8085 C43.4481646,13.0208344 42.9606694,13.127 42.406,13.127 L39.507,13.127 L39.507,16 L37.713,16 L37.713,6.9 Z M42.38,11.567 C42.6833349,11.567 42.9303324,11.469501 43.121,11.2745 C43.3116676,11.079499 43.407,10.8216683 43.407,10.501 L43.407,9.448 C43.407,9.14466515 43.3225008,8.90416756 43.1535,8.7265 C42.9844992,8.54883245 42.7613347,8.46 42.484,8.46 L39.507,8.46 L39.507,11.567 L42.38,11.567 Z" id="TOP" fill="#FFFFFF" fill-rule="nonzero"></path>
            <g id="Group-12" transform="translate(12.000000, 14.000000)" fill="#FFFFFF" fill-rule="nonzero">
                <path d="M4.60914286,28 L4.60914286,12.6 L1.27714286,12.6 L1.27714286,8.764 L8.75314286,8.764 L8.75314286,28 L4.60914286,28 Z M11.0851429,18.396 C11.0851429,17.0893268 11.2578078,15.834006 11.6031429,14.63 C11.9484779,13.425994 12.4664727,12.3666712 13.1571429,11.452 C13.847813,10.5373288 14.7064711,9.80466942 15.7331429,9.254 C16.7598147,8.70333058 17.9544694,8.428 19.3171429,8.428 C20.6798163,8.428 21.8744711,8.70333058 22.9011429,9.254 C23.9278147,9.80466942 24.7864727,10.5373288 25.4771429,11.452 C26.167813,12.3666712 26.6858078,13.425994 27.0311429,14.63 C27.3764779,15.834006 27.5491429,17.0893268 27.5491429,18.396 C27.5491429,19.7026732 27.3764779,20.957994 27.0311429,22.162 C26.6858078,23.366006 26.167813,24.4253288 25.4771429,25.34 C24.7864727,26.2546712 23.9278147,26.9873306 22.9011429,27.538 C21.8744711,28.0886694 20.6798163,28.364 19.3171429,28.364 C17.9544694,28.364 16.7598147,28.0886694 15.7331429,27.538 C14.7064711,26.9873306 13.847813,26.2546712 13.1571429,25.34 C12.4664727,24.4253288 11.9484779,23.366006 11.6031429,22.162 C11.2578078,20.957994 11.0851429,19.7026732 11.0851429,18.396 Z M23.3771429,18.396 C23.3771429,17.6306628 23.2978103,16.8840036 23.1391429,16.156 C22.9804754,15.4279964 22.7378112,14.7793362 22.4111429,14.21 C22.0844746,13.6406638 21.6644788,13.1833351 21.1511429,12.838 C20.637807,12.4926649 20.0264797,12.32 19.3171429,12.32 C18.607806,12.32 17.9964788,12.4926649 17.4831429,12.838 C16.969807,13.1833351 16.5498112,13.6406638 16.2231429,14.21 C15.8964746,14.7793362 15.6538103,15.4279964 15.4951429,16.156 C15.3364754,16.8840036 15.2571429,17.6306628 15.2571429,18.396 C15.2571429,19.1613372 15.3364754,19.9079964 15.4951429,20.636 C15.6538103,21.3640036 15.8964746,22.0126638 16.2231429,22.582 C16.5498112,23.1513362 16.969807,23.6086649 17.4831429,23.954 C17.9964788,24.2993351 18.607806,24.472 19.3171429,24.472 C20.0264797,24.472 20.637807,24.2993351 21.1511429,23.954 C21.6644788,23.6086649 22.0844746,23.1513362 22.4111429,22.582 C22.7378112,22.0126638 22.9804754,21.3640036 23.1391429,20.636 C23.2978103,19.9079964 23.3771429,19.1613372 23.3771429,18.396 Z M35.2611429,17.4 C35.2611429,17.866669 35.1711438,18.299998 34.9911429,18.7 C34.811142,19.1 34.5644778,19.4499985 34.2511429,19.75 C33.937808,20.0500015 33.5744783,20.2833325 33.1611429,20.45 C32.7478075,20.6166675 32.3011453,20.7 31.8211429,20.7 C31.3411405,20.7 30.8944783,20.6166675 30.4811429,20.45 C30.0678075,20.2833325 29.7078111,20.0500015 29.4011429,19.75 C29.0944747,19.4499985 28.8511438,19.1 28.6711429,18.7 C28.491142,18.299998 28.4011429,17.866669 28.4011429,17.4 C28.4011429,16.933331 28.491142,16.500002 28.6711429,16.1 C28.8511438,15.699998 29.0944747,15.3500015 29.4011429,15.05 C29.7078111,14.7499985 30.0678075,14.5166675 30.4811429,14.35 C30.8944783,14.1833325 31.3411405,14.1 31.8211429,14.1 C32.3011453,14.1 32.7478075,14.1833325 33.1611429,14.35 C33.5744783,14.5166675 33.937808,14.7499985 34.2511429,15.05 C34.5644778,15.3500015 34.811142,15.699998 34.9911429,16.1 C35.1711438,16.500002 35.2611429,16.933331 35.2611429,17.4 Z M31.8211429,18.78 C32.2078115,18.78 32.5278083,18.646668 32.7811429,18.38 C33.0344775,18.113332 33.1611429,17.7866686 33.1611429,17.4 C33.1611429,17.0133314 33.0344775,16.686668 32.7811429,16.42 C32.5278083,16.153332 32.2078115,16.02 31.8211429,16.02 C31.4344743,16.02 31.1144775,16.153332 30.8611429,16.42 C30.6078083,16.686668 30.4811429,17.0133314 30.4811429,17.4 C30.4811429,17.7866686 30.6078083,18.113332 30.8611429,18.38 C31.1144775,18.646668 31.4344743,18.78 31.8211429,18.78 Z M29.6611429,28 L39.8411429,14.26 L42.5011429,14.26 L32.3211429,28 L29.6611429,28 Z M40.3211429,28.16 C39.8411405,28.16 39.3944783,28.0766675 38.9811429,27.91 C38.5678075,27.7433325 38.2078111,27.5100015 37.9011429,27.21 C37.5944747,26.9099985 37.3511438,26.56 37.1711429,26.16 C36.991142,25.759998 36.9011429,25.326669 36.9011429,24.86 C36.9011429,24.393331 36.991142,23.960002 37.1711429,23.56 C37.3511438,23.159998 37.5944747,22.8100015 37.9011429,22.51 C38.2078111,22.2099985 38.5678075,21.9766675 38.9811429,21.81 C39.3944783,21.6433325 39.8411405,21.56 40.3211429,21.56 C40.8011453,21.56 41.2511408,21.6433325 41.6711429,21.81 C42.091145,21.9766675 42.4544747,22.2099985 42.7611429,22.51 C43.0678111,22.8100015 43.311142,23.159998 43.4911429,23.56 C43.6711438,23.960002 43.7611429,24.393331 43.7611429,24.86 C43.7611429,25.326669 43.6711438,25.759998 43.4911429,26.16 C43.311142,26.56 43.0678111,26.9099985 42.7611429,27.21 C42.4544747,27.5100015 42.091145,27.7433325 41.6711429,27.91 C41.2511408,28.0766675 40.8011453,28.16 40.3211429,28.16 Z M40.3211429,26.24 C40.7078115,26.24 41.0311416,26.106668 41.2911429,25.84 C41.5511442,25.573332 41.6811429,25.2466686 41.6811429,24.86 C41.6811429,24.4733314 41.5511442,24.146668 41.2911429,23.88 C41.0311416,23.613332 40.7078115,23.48 40.3211429,23.48 C39.9344743,23.48 39.6144775,23.613332 39.3611429,23.88 C39.1078083,24.146668 38.9811429,24.4733314 38.9811429,24.86 C38.9811429,25.2466686 39.1078083,25.573332 39.3611429,25.84 C39.6144775,26.106668 39.9344743,26.24 40.3211429,26.24 Z" id="10%"></path>
            </g>
        </g>
    </g>
</svg>