<?xml version="1.0" encoding="UTF-8"?>
<svg width="50px" height="58px" viewBox="0 0 50 58" version="1.1" xmlns="http://www.w3.org/2000/svg" xmlns:xlink="http://www.w3.org/1999/xlink">
    <!-- Generator: Sketch 55.1 (78136) - https://sketchapp.com -->
    <title>3</title>
    <desc>Created with Sketch.</desc>
    <defs>
        <polygon id="path-1" points="0 0.103074434 0 57.1197411 3.91763754 56.12589 9.09967638 54.812945 21.7776699 51.5983819 24.9650485 50.7907767 25.6867314 50.97411 37.8148867 54.0483819 42.6975728 55.2868932 49.9300971 57.1197411 49.9300971 0.103074434"></polygon>
        <linearGradient x1="49.9999989%" y1="-6.13948596%" x2="49.9999989%" y2="110.124282%" id="linearGradient-3">
            <stop stop-color="#D35D5B" offset="0%"></stop>
            <stop stop-color="#BA413A" offset="100%"></stop>
        </linearGradient>
    </defs>
    <g id="Page-3" stroke="none" stroke-width="1" fill="none" fill-rule="evenodd">
        <g id="3">
            <g id="Group-15">
                <g id="Group-3" transform="translate(0.000000, 0.058576)">
                    <mask id="mask-2" fill="white">
                        <use xlink:href="#path-1"></use>
                    </mask>
                    <g id="Clip-2"></g>
                    <polygon id="Fill-1" fill="url(#linearGradient-3)" mask="url(#mask-2)" points="0 0.103074434 0 57.1197411 3.91763754 56.12589 9.09967638 54.812945 21.7776699 51.5983819 24.9650485 50.7907767 25.6867314 50.97411 37.8148867 54.0483819 42.6975728 55.2868932 49.9300971 57.1197411 49.9300971 0.103074434"></polygon>
                </g>
                <polygon id="Fill-4" fill="#FFFFFF" points="13.5098867 9.51690939 13.0827023 10.8314725 11.7005016 10.8314725 12.8187864 11.643932 12.3916019 12.9584951 13.5098867 12.1460356 14.6281715 12.9584951 14.2009871 11.643932 15.3192718 10.8314725 13.9370712 10.8314725"></polygon>
                <polygon id="Fill-5" fill="#FFFFFF" points="36.4202265 9.51690939 35.9930421 10.8314725 34.6108414 10.8314725 35.7291262 11.643932 35.3019417 12.9584951 36.4202265 12.1460356 37.5385113 12.9584951 37.1113269 11.643932 38.2296117 10.8314725 36.847411 10.8314725"></polygon>
                <g id="Group-14" transform="translate(13.592233, 8.472816)" fill="#FFFFFF">
                    <path d="M15.1368447,35.8158738 L8.11127832,35.8158738 L8.11127832,22.2550324 C8.11127832,20.6082686 8.14622977,19.1013107 8.2162945,17.7348058 C7.78409385,18.2603722 7.2465534,18.8095631 6.6044822,19.3817314 L3.69606796,21.782055 L0.104320388,17.3668447 L8.89962783,10.2009871 L15.1368447,10.2009871 L15.1368447,35.8158738 Z" id="Fill-6"></path>
                    <polygon id="Fill-8" points="7.30546926 5.34451456 5.91436893 5.34451456 5.91436893 1.3331877 4.65708738 1.3331877 4.65708738 0.195809061 8.55935275 0.195809061 8.55935275 1.3331877 7.30546926 1.3331877"></polygon>
                    <path d="M10.2247249,2.7631068 C10.2247249,3.75857605 10.5710032,4.25631068 11.2635599,4.25631068 C11.6158252,4.25631068 11.8769903,4.13543689 12.0472168,3.89352751 C12.2174434,3.65177994 12.3025566,3.27508091 12.3025566,2.7631068 C12.3025566,2.24902913 12.2163107,1.86925566 12.043657,1.62378641 C11.871165,1.37847896 11.6133981,1.25582524 11.2706796,1.25582524 C10.5732686,1.25582524 10.2247249,1.75825243 10.2247249,2.7631068 M13.7676052,2.7631068 C13.7676052,3.62944984 13.5551456,4.28802589 13.1302265,4.73883495 C12.7053074,5.18964401 12.0829773,5.41504854 11.2635599,5.41504854 C10.4559547,5.41504854 9.83669903,5.18851133 9.40579288,4.73527508 C8.97504854,4.28220065 8.75967638,3.62249191 8.75967638,2.75614887 C8.75967638,1.89919094 8.97391586,1.24466019 9.40239482,0.792718447 C9.83087379,0.340776699 10.4536893,0.114724919 11.2706796,0.114724919 C12.0900971,0.114724919 12.7111327,0.338996764 13.1337864,0.787378641 C13.5562783,1.23592233 13.7676052,1.89449838 13.7676052,2.7631068" id="Fill-10"></path>
                    <path d="M15.7430097,2.50252427 L15.9965696,2.50252427 C16.2054693,2.50252427 16.3716505,2.44378641 16.4949515,2.32647249 C16.6182524,2.20899676 16.6799029,2.04702265 16.6799029,1.84038835 C16.6799029,1.49297735 16.4873463,1.31919094 16.102233,1.31919094 L15.7430097,1.31919094 L15.7430097,2.50252427 Z M18.0886408,1.83326861 C18.0886408,2.40851133 17.9188997,2.8528479 17.5795793,3.16644013 C17.2404207,3.47987055 16.7583819,3.63650485 16.1339482,3.63650485 L15.7430097,3.63650485 L15.7430097,5.34443366 L14.3519094,5.34443366 L14.3519094,0.195728155 L16.1339482,0.195728155 C16.7842718,0.195728155 17.2726214,0.337799353 17.5989968,0.621779935 C17.9253722,0.90592233 18.0886408,1.30980583 18.0886408,1.83326861 L18.0886408,1.83326861 Z" id="Fill-12"></path>
                </g>
            </g>
        </g>
    </g>
</svg>