<?xml version="1.0" encoding="UTF-8"?>
<svg width="50px" height="58px" viewBox="0 0 50 58" version="1.1" xmlns="http://www.w3.org/2000/svg" xmlns:xlink="http://www.w3.org/1999/xlink">
    <!-- Generator: Sketch 55.1 (78136) - https://sketchapp.com -->
    <title>1</title>
    <desc>Created with Sketch.</desc>
    <defs>
        <polygon id="path-1" points="0 0.103074434 0 57.1197411 3.91763754 56.12589 9.09967638 54.812945 21.7776699 51.5982201 24.9650485 50.7907767 25.6867314 50.9739482 37.8148867 54.0482201 42.6975728 55.2868932 49.9300971 57.1197411 49.9300971 0.103074434"></polygon>
        <linearGradient x1="49.9999989%" y1="-6.13948596%" x2="49.9999989%" y2="110.124282%" id="linearGradient-3">
            <stop stop-color="#5B85D3" offset="0%"></stop>
            <stop stop-color="#3A62BA" offset="100%"></stop>
        </linearGradient>
    </defs>
    <g id="Page-3" stroke="none" stroke-width="1" fill="none" fill-rule="evenodd">
        <g id="1">
            <g id="Group-17">
                <g id="Group-16">
                    <g id="Group-3" transform="translate(0.000000, 0.058576)">
                        <mask id="mask-2" fill="white">
                            <use xlink:href="#path-1"></use>
                        </mask>
                        <g id="Clip-2"></g>
                        <polygon id="Fill-1" fill="url(#linearGradient-3)" mask="url(#mask-2)" points="0 0.103074434 0 57.1197411 3.91763754 56.12589 9.09967638 54.812945 21.7776699 51.5982201 24.9650485 50.7907767 25.6867314 50.9739482 37.8148867 54.0482201 42.6975728 55.2868932 49.9300971 57.1197411 49.9300971 0.103074434"></polygon>
                    </g>
                    <polygon id="Fill-4" fill="#FFFFFF" points="36.4202265 8.60512945 35.9930421 9.91969256 34.6108414 9.91969256 35.7291262 10.7321521 35.3019417 12.0467152 36.4202265 11.2342557 37.5385113 12.0467152 37.1113269 10.7321521 38.2296117 9.91969256 36.847411 9.91969256"></polygon>
                    <polygon id="Fill-4-Copy" fill="#FFFFFF" points="13.136246 8.60512945 12.7090615 9.91969256 11.3268608 9.91969256 12.4451456 10.7321521 12.0179612 12.0467152 13.136246 11.2342557 14.2545307 12.0467152 13.8273463 10.7321521 14.9456311 9.91969256 13.5634304 9.91969256"></polygon>
                    <g id="Group-15" transform="translate(8.090615, 7.825566)" fill="#FFFFFF">
                        <path d="M13.9422168,35.1116667 L7.46923948,35.1116667 L7.46923948,22.6174919 C7.46923948,21.1000162 7.50144013,19.7118285 7.56600324,18.452767 C7.16762136,18.9370712 6.67263754,19.4428964 6.08088997,19.9700809 L3.40127832,22.1817314 L0.0920550162,18.1137702 L8.19545307,11.5115049 L13.9422168,11.5115049 L13.9422168,35.1116667 Z" id="Fill-5"></path>
                        <path d="M22.3071521,23.343932 C22.3071521,26.0128641 22.4738188,27.8474919 22.8074757,28.8484628 C23.1409709,29.8492718 23.7006796,30.3495955 24.4864401,30.3495955 C25.2825566,30.3495955 25.8448544,29.8330906 26.1733333,28.8000809 C26.5013269,27.7669094 26.6655663,25.9484628 26.6655663,23.343932 C26.6655663,20.7287217 26.4985761,18.8966828 26.1652427,17.8473301 C25.8314239,16.7981392 25.2717152,16.2735437 24.4864401,16.2735437 C23.7006796,16.2735437 23.1409709,16.7795307 22.8074757,17.7908576 C22.4738188,18.8026699 22.3071521,20.6536408 22.3071521,23.343932 M33.0095793,23.343932 C33.0095793,27.5194984 32.3097411,30.5783981 30.9110356,32.5207929 C29.5118447,34.4635113 27.3702589,35.4345469 24.4864401,35.4345469 C21.666699,35.4345469 19.5412945,34.4203074 18.1102265,32.3916667 C16.678835,30.3633495 15.9631392,27.3471683 15.9631392,23.343932 C15.9631392,19.1468447 16.6626537,16.0691748 18.0616828,14.1104369 C19.4605502,12.1518608 21.6021359,11.1725728 24.4864401,11.1725728 C27.295178,11.1725728 29.4178317,12.1923139 30.8545631,14.2316343 C32.2911327,16.2711165 33.0095793,19.3083333 33.0095793,23.343932" id="Fill-7"></path>
                        <polygon id="Fill-9" points="12.8070874 5.24449838 11.4159871 5.24449838 11.4159871 1.23317152 10.1587055 1.23317152 10.1587055 0.0957928803 14.0608091 0.0957928803 14.0608091 1.23317152 12.8070874 1.23317152"></polygon>
                        <path d="M15.726343,2.66309061 C15.726343,3.65855987 16.0726214,4.1562945 16.765178,4.1562945 C17.1174434,4.1562945 17.3786084,4.03542071 17.548835,3.79351133 C17.7190615,3.55176375 17.8041748,3.17506472 17.8041748,2.66309061 C17.8041748,2.14885113 17.7179288,1.76923948 17.5452751,1.52377023 C17.3727832,1.27846278 17.1150162,1.15580906 16.7722977,1.15580906 C16.0748867,1.15580906 15.726343,1.65823625 15.726343,2.66309061 M19.2692233,2.66309061 C19.2692233,3.52943366 19.0567638,4.18800971 18.6318447,4.63881877 C18.2069256,5.08962783 17.5845955,5.31503236 16.765178,5.31503236 C15.9575728,5.31503236 15.3383172,5.08849515 14.907411,4.6352589 C14.4766667,4.18218447 14.2612945,3.52247573 14.2612945,2.65613269 C14.2612945,1.79917476 14.475534,1.14464401 14.9040129,0.692702265 C15.3323301,0.240760518 15.9553074,0.0147087379 16.7722977,0.0147087379 C17.5917152,0.0147087379 18.2127508,0.238980583 18.6354045,0.68736246 C19.0578964,1.13590615 19.2692233,1.7944822 19.2692233,2.66309061" id="Fill-11"></path>
                        <path d="M21.2446278,2.40250809 L21.4981877,2.40250809 C21.7070874,2.40250809 21.8732686,2.34377023 21.9965696,2.22645631 C22.1198706,2.10898058 22.181521,1.94700647 22.181521,1.74037217 C22.181521,1.39296117 21.9889644,1.21917476 21.6038511,1.21917476 L21.2446278,1.21917476 L21.2446278,2.40250809 Z M23.5900971,1.73325243 C23.5900971,2.30849515 23.4205178,2.75283172 23.0811974,3.06642395 C22.741877,3.37969256 22.26,3.53648867 21.6355663,3.53648867 L21.2446278,3.53648867 L21.2446278,5.24441748 L19.8535275,5.24441748 L19.8535275,0.0957119741 L21.6355663,0.0957119741 C22.28589,0.0957119741 22.7742395,0.237783172 23.1006149,0.521763754 C23.4269903,0.805906149 23.5900971,1.20978964 23.5900971,1.73325243 L23.5900971,1.73325243 Z" id="Fill-13"></path>
                    </g>
                </g>
            </g>
        </g>
    </g>
</svg>