<?xml version="1.0" encoding="UTF-8"?>
<svg width="50px" height="58px" viewBox="0 0 50 58" version="1.1" xmlns="http://www.w3.org/2000/svg" xmlns:xlink="http://www.w3.org/1999/xlink">
    <!-- Generator: Sketch 55.1 (78136) - https://sketchapp.com -->
    <title>2</title>
    <desc>Created with Sketch.</desc>
    <defs>
        <polygon id="path-1" points="0 0.103074434 0 57.1197411 3.91763754 56.12589 9.09967638 54.812945 21.7776699 51.5982201 24.9650485 50.7907767 25.6867314 50.9739482 37.8148867 54.0482201 42.6977346 55.2868932 49.9300971 57.1197411 49.9300971 0.103074434"></polygon>
        <linearGradient x1="49.9999989%" y1="-6.13948596%" x2="49.9999989%" y2="110.124282%" id="linearGradient-3">
            <stop stop-color="#3B3F57" offset="0%"></stop>
            <stop stop-color="#2F3346" offset="100%"></stop>
        </linearGradient>
    </defs>
    <g id="Page-3" stroke="none" stroke-width="1" fill="none" fill-rule="evenodd">
        <g id="2">
            <g id="Group-16">
                <g id="Group-3" transform="translate(0.000000, 0.058576)">
                    <mask id="mask-2" fill="white">
                        <use xlink:href="#path-1"></use>
                    </mask>
                    <g id="Clip-2"></g>
                    <polygon id="Fill-1" fill="url(#linearGradient-3)" mask="url(#mask-2)" points="0 0.103074434 0 57.1197411 3.91763754 56.12589 9.09967638 54.812945 21.7776699 51.5982201 24.9650485 50.7907767 25.6867314 50.9739482 37.8148867 54.0482201 42.6977346 55.2868932 49.9300971 57.1197411 49.9300971 0.103074434"></polygon>
                </g>
                <polygon id="Fill-4" fill="#FFFFFF" points="36.4201618 8.60512945 35.9929773 9.91969256 34.6107767 9.91969256 35.7290615 10.7321521 35.301877 12.0467152 36.4201618 11.2342557 37.5384466 12.0467152 37.1112621 10.7321521 38.2295469 9.91969256 36.8473463 9.91969256"></polygon>
                <polygon id="Fill-4-Copy-2" fill="#FFFFFF" points="13.4598706 8.60512945 13.0326861 9.91969256 11.6504854 9.91969256 12.7687702 10.7321521 12.3415858 12.0467152 13.4598706 11.2342557 14.5781553 12.0467152 14.1509709 10.7321521 15.2692557 9.91969256 13.887055 9.91969256"></polygon>
                <path d="M18.1580421,27.6540291 C19.3954207,27.6540291 20.512411,27.941246 21.5091748,28.5158414 C22.5059385,29.0902751 23.2818285,29.9028964 23.8366828,30.9537055 C24.3913754,32.0046764 24.6688835,33.2172977 24.6688835,34.5922168 C24.6688835,36.9982039 23.9446117,38.8443204 22.4962298,40.1307282 C21.0475243,41.4174595 18.8552913,42.0605016 15.9190453,42.0605016 C13.4049676,42.0605016 11.3525405,41.6726375 9.76160194,40.8967476 L9.76160194,36.1240939 C10.6159709,36.5169741 11.5808576,36.8409223 12.6562621,37.0964239 C13.7315049,37.3517638 14.6570712,37.4794337 15.4329612,37.4794337 C16.5130583,37.4794337 17.3428317,37.2511165 17.9222816,36.7943204 C18.5017314,36.3376861 18.7915372,35.6626052 18.7915372,34.7689159 C18.7915372,33.9439968 18.496877,33.3007929 17.9077184,32.8391424 C17.3183981,32.3776537 16.4247087,32.1469094 15.2266505,32.1469094 C14.3133819,32.1469094 13.3264887,32.318754 12.2658091,32.6624434 L10.1298867,31.6017638 L10.9400809,20.2299191 L23.225356,20.2299191 L23.225356,25.0761974 L15.8895955,25.0761974 L15.6243851,27.9192395 C16.3904045,27.7719903 16.9353883,27.6909223 17.2594984,27.6761974 C17.5836084,27.6614725 17.8829612,27.6540291 18.1580421,27.6540291" id="Fill-5" fill="#FFFFFF"></path>
                <path d="M31.6966181,31.0272816 C31.6966181,33.4628803 31.8487217,35.1371521 32.1532524,36.0504207 C32.4576214,36.9638511 32.968301,37.4204854 33.6852913,37.4204854 C34.4118285,37.4204854 34.9249353,36.9491262 35.2246117,36.0064078 C35.5239644,35.0635275 35.6738026,33.4039806 35.6738026,31.0272816 C35.6738026,28.6410356 35.5215372,26.9690291 35.2171683,26.0115858 C34.9126375,25.0541424 34.4019579,24.5753398 33.6852913,24.5753398 C32.968301,24.5753398 32.4576214,25.0369903 32.1532524,25.9601294 C31.8487217,26.8832686 31.6966181,28.5724272 31.6966181,31.0272816 M41.4629612,31.0272816 C41.4629612,34.8377994 40.8244498,37.6292233 39.5479126,39.4017152 C38.2712136,41.1743689 36.3170065,42.0606149 33.6852913,42.0606149 C31.1123139,42.0606149 29.1726699,41.1350485 27.8666828,39.283754 C26.560534,37.4327832 25.9074595,34.6805178 25.9074595,31.0272816 C25.9074595,27.1975081 26.5456472,24.388932 27.8225081,22.6015534 C29.0990453,20.8141748 31.0532524,19.9204854 33.6852913,19.9204854 C36.2482362,19.9204854 38.1854531,20.851068 39.4964563,22.7119094 C40.8074595,24.5730744 41.4629612,27.3447573 41.4629612,31.0272816" id="Fill-7" fill="#FFFFFF"></path>
                <polygon id="Fill-9" fill="#FFFFFF" points="20.8977023 13.0700647 19.5066019 13.0700647 19.5066019 9.05873786 18.2493204 9.05873786 18.2493204 7.92135922 22.1514239 7.92135922 22.1514239 9.05873786 20.8977023 9.05873786"></polygon>
                <path d="M23.8169741,10.488657 C23.8169741,11.4841262 24.1632524,11.9818608 24.8558091,11.9818608 C25.2080744,11.9818608 25.4692395,11.8609871 25.639466,11.6190777 C25.8096926,11.3773301 25.8948058,11.0006311 25.8948058,10.488657 C25.8948058,9.97441748 25.8085599,9.59480583 25.6359061,9.34933657 C25.4634142,9.10402913 25.2056472,8.9813754 24.8629288,8.9813754 C24.1655178,8.9813754 23.8169741,9.48380259 23.8169741,10.488657 M27.3598544,10.488657 C27.3598544,11.355 27.1473948,12.0135761 26.7224757,12.4643851 C26.2973948,12.9151942 25.6752265,13.1405987 24.8558091,13.1405987 C24.0482039,13.1405987 23.4289482,12.9140615 22.9980421,12.4608252 C22.5672977,12.0077508 22.3519256,11.3480421 22.3519256,10.481699 C22.3519256,9.6247411 22.566165,8.97021036 22.994644,8.51826861 C23.4229612,8.06632686 24.0459385,7.84027508 24.8629288,7.84027508 C25.6823463,7.84027508 26.3033819,8.06454693 26.7260356,8.5129288 C27.1485275,8.96147249 27.3598544,9.62004854 27.3598544,10.488657" id="Fill-11" fill="#FFFFFF"></path>
                <path d="M29.3352589,10.2280744 L29.5888188,10.2280744 C29.7977184,10.2280744 29.9638997,10.1693366 30.0872006,10.0520227 C30.2105016,9.93454693 30.2721521,9.77257282 30.2721521,9.56593851 C30.2721521,9.21852751 30.0795955,9.0447411 29.6944822,9.0447411 L29.3352589,9.0447411 L29.3352589,10.2280744 Z M31.6807282,9.55881877 C31.6807282,10.1340615 31.5111489,10.5783981 31.1718285,10.8919903 C30.8325081,11.2052589 30.3506311,11.362055 29.7261974,11.362055 L29.3352589,11.362055 L29.3352589,13.0699838 L27.9441586,13.0699838 L27.9441586,7.92127832 L29.7261974,7.92127832 C30.376521,7.92127832 30.8648706,8.06334951 31.191246,8.3473301 C31.5176214,8.63147249 31.6807282,9.03535599 31.6807282,9.55881877 L31.6807282,9.55881877 Z" id="Fill-13" fill="#FFFFFF"></path>
            </g>
        </g>
    </g>
</svg>