<?xml version="1.0" encoding="UTF-8"?>
<svg width="69px" height="62px" viewBox="0 0 69 62" version="1.1" xmlns="http://www.w3.org/2000/svg" xmlns:xlink="http://www.w3.org/1999/xlink">
    <!-- Generator: Sketch 55.1 (78136) - https://sketchapp.com -->
    <title>top50</title>
    <desc>Created with Sketch.</desc>
    <defs>
        <linearGradient x1="50%" y1="0%" x2="50%" y2="100%" id="linearGradient-1">
            <stop stop-color="#DADCE6" offset="0%"></stop>
            <stop stop-color="#666E9A" offset="100%"></stop>
        </linearGradient>
        <polygon id="path-2" points="0.96504855 0.103074434 0.96504855 57.1197411 5.98664508 56.12589 12.6289411 54.812945 28.879492 51.5982201 32.9650485 50.7907767 33.8900959 50.9739482 49.4358685 54.0482201 55.6944566 55.2868932 64.9650486 57.1197411 64.9650486 0.103074434"></polygon>
        <linearGradient x1="49.9999989%" y1="-6.13948596%" x2="49.9999989%" y2="110.124282%" id="linearGradient-4">
            <stop stop-color="#537CCD" offset="0%"></stop>
            <stop stop-color="#28357B" offset="52.7174972%"></stop>
            <stop stop-color="#3F68BE" offset="100%"></stop>
        </linearGradient>
    </defs>
    <g id="Page-1" stroke="none" stroke-width="1" fill="none" fill-rule="evenodd">
        <g id="top50" transform="translate(2.000000, 2.000000)">
            <g id="Fill-1-Clipped-Copy-7">
                <mask id="mask-3" fill="white">
                    <use xlink:href="#path-2"></use>
                </mask>
                <use id="path-1" stroke="url(#linearGradient-1)" stroke-width="4" xlink:href="#path-2"></use>
                <polygon id="Fill-1" fill="url(#linearGradient-4)" fill-rule="nonzero" mask="url(#mask-3)" points="0.96504855 0.103074434 0.96504855 57.1197411 5.98664508 56.12589 12.6289411 54.812945 28.879492 51.5982201 32.9650485 50.7907767 33.8900959 50.9739482 49.4358685 54.0482201 55.6944566 55.2868932 64.9650486 57.1197411 64.9650486 0.103074434"></polygon>
            </g>
            <g id="Group-10-Copy-5" transform="translate(9.000000, 8.000000)" fill="#FFFFFF" fill-rule="nonzero">
                <polygon id="Fill-4-Copy-Copy" points="3.00000008 0 2.29171887 2.29178618 0 2.29178618 1.85414056 3.70821384 1.14585952 6 3.00000008 4.58357241 4.85414048 6 4.14585944 3.70821384 6 2.29178618 3.70828113 2.29178618"></polygon>
                <polygon id="Fill-4-Copy-Copy-3" points="45.0000001 0 44.2917189 2.29178618 42 2.29178618 43.8541406 3.70821384 43.1458595 6 45.0000001 4.58357241 46.8541405 6 46.1458594 3.70821384 48 2.29178618 45.7082811 2.29178618"></polygon>
            </g>
            <path d="M22.659,8.46 L19.773,8.46 L19.773,6.9 L27.339,6.9 L27.339,8.46 L24.453,8.46 L24.453,16 L22.659,16 L22.659,8.46 Z M31.512,16.104 C30.8273299,16.104 30.222836,15.9588348 29.6985,15.6685 C29.174164,15.3781652 28.7668348,14.970836 28.4765,14.4465 C28.1861652,13.922164 28.041,13.3133368 28.041,12.62 L28.041,10.28 C28.041,9.5866632 28.1861652,8.97783596 28.4765,8.4535 C28.7668348,7.92916404 29.174164,7.52183479 29.6985,7.2315 C30.222836,6.94116521 30.8273299,6.796 31.512,6.796 L32.89,6.796 C33.5746701,6.796 34.179164,6.94116521 34.7035,7.2315 C35.227836,7.52183479 35.6351652,7.92916404 35.9255,8.4535 C36.2158348,8.97783596 36.361,9.5866632 36.361,10.28 L36.361,12.62 C36.361,13.3133368 36.2158348,13.922164 35.9255,14.4465 C35.6351652,14.970836 35.227836,15.3781652 34.7035,15.6685 C34.179164,15.9588348 33.5746701,16.104 32.89,16.104 L31.512,16.104 Z M32.89,14.518 C33.3926692,14.518 33.7978318,14.3360018 34.1055,13.972 C34.4131682,13.6079982 34.567,13.1313363 34.567,12.542 L34.567,10.358 C34.567,9.76866372 34.4131682,9.29200182 34.1055,8.928 C33.7978318,8.56399818 33.3926692,8.382 32.89,8.382 L31.512,8.382 C31.0093308,8.382 30.6041682,8.56399818 30.2965,8.928 C29.9888318,9.29200182 29.835,9.76866372 29.835,10.358 L29.835,12.542 C29.835,13.1313363 29.9888318,13.6079982 30.2965,13.972 C30.6041682,14.3360018 31.0093308,14.518 31.512,14.518 L32.89,14.518 Z M37.713,6.9 L42.51,6.9 C43.0386693,6.9 43.5066646,7.00183232 43.914,7.2055 C44.3213354,7.40916768 44.6376655,7.69949811 44.863,8.0765 C45.0883345,8.45350189 45.201,8.88466424 45.201,9.37 L45.201,10.579 C45.201,11.0816692 45.0840012,11.5258314 44.85,11.9115 C44.6159988,12.2971686 44.2888354,12.5961656 43.8685,12.8085 C43.4481646,13.0208344 42.9606694,13.127 42.406,13.127 L39.507,13.127 L39.507,16 L37.713,16 L37.713,6.9 Z M42.38,11.567 C42.6833349,11.567 42.9303324,11.469501 43.121,11.2745 C43.3116676,11.079499 43.407,10.8216683 43.407,10.501 L43.407,9.448 C43.407,9.14466515 43.3225008,8.90416755 43.1535,8.7265 C42.9844992,8.54883245 42.7613347,8.46 42.484,8.46 L39.507,8.46 L39.507,11.567 L42.38,11.567 Z" id="TOP" fill="#FFFFFF" fill-rule="nonzero"></path>
            <g id="Group-12-Copy-8" transform="translate(9.000000, 14.000000)" fill="#FFFFFF" fill-rule="nonzero">
                <path d="M2.00914286,19.124 L3.43714286,8.764 L14.4691429,8.764 L14.4691429,12.348 L6.57314286,12.348 L6.04114286,16.016 C6.4891451,15.6426648 7.0258064,15.358001 7.65114286,15.162 C8.27647932,14.965999 8.9251395,14.868 9.59714286,14.868 C10.5118141,14.868 11.3518057,15.0359983 12.1171429,15.372 C12.88248,15.7080017 13.5404734,16.1653304 14.0911429,16.744 C14.6418123,17.3226696 15.0711413,17.9993295 15.3791429,18.774 C15.6871444,19.5486705 15.8411429,20.3746623 15.8411429,21.252 C15.8411429,22.260005 15.6591447,23.1979957 15.2951429,24.066 C14.931141,24.9340043 14.4271461,25.6853302 13.7831429,26.32 C13.1391396,26.9546698 12.3784806,27.4539982 11.5011429,27.818 C10.6238051,28.1820018 9.6811479,28.364 8.67314286,28.364 C7.60913754,28.364 6.6431472,28.2100015 5.77514286,27.902 C4.90713852,27.5939985 4.16514594,27.1646694 3.54914286,26.614 C2.93313978,26.0633306 2.4478113,25.4006705 2.09314286,24.626 C1.73847442,23.8513295 1.55180962,22.997338 1.53314286,22.064 L5.53714286,22.064 C5.6118099,22.7546701 5.9151402,23.3519975 6.44714286,23.856 C6.97914552,24.3600025 7.71180486,24.612 8.64514286,24.612 C9.0931451,24.612 9.50380766,24.5280008 9.87714286,24.36 C10.2504781,24.1919992 10.5771415,23.9680014 10.8571429,23.688 C11.1371443,23.4079986 11.3564754,23.0766686 11.5151429,22.694 C11.6738103,22.3113314 11.7531429,21.8960022 11.7531429,21.448 C11.7531429,20.9999978 11.6738103,20.5846686 11.5151429,20.202 C11.3564754,19.8193314 11.1324776,19.4880014 10.8431429,19.208 C10.5538081,18.9279986 10.2178114,18.7086675 9.83514286,18.55 C9.45247428,18.3913325 9.0371451,18.312 8.58914286,18.312 C7.95447302,18.312 7.39447862,18.4613318 6.90914286,18.76 C6.4238071,19.0586682 6.02247778,19.4319978 5.70514286,19.88 L2.00914286,19.124 Z M16.9971429,18.396 C16.9971429,17.0893268 17.1698078,15.834006 17.5151429,14.63 C17.8604779,13.425994 18.3784727,12.3666712 19.0691429,11.452 C19.759813,10.5373288 20.6184711,9.80466942 21.6451429,9.254 C22.6718147,8.70333058 23.8664694,8.428 25.2291429,8.428 C26.5918163,8.428 27.7864711,8.70333058 28.8131429,9.254 C29.8398147,9.80466942 30.6984727,10.5373288 31.3891429,11.452 C32.079813,12.3666712 32.5978078,13.425994 32.9431429,14.63 C33.2884779,15.834006 33.4611429,17.0893268 33.4611429,18.396 C33.4611429,19.7026732 33.2884779,20.957994 32.9431429,22.162 C32.5978078,23.366006 32.079813,24.4253288 31.3891429,25.34 C30.6984727,26.2546712 29.8398147,26.9873306 28.8131429,27.538 C27.7864711,28.0886694 26.5918163,28.364 25.2291429,28.364 C23.8664694,28.364 22.6718147,28.0886694 21.6451429,27.538 C20.6184711,26.9873306 19.759813,26.2546712 19.0691429,25.34 C18.3784727,24.4253288 17.8604779,23.366006 17.5151429,22.162 C17.1698078,20.957994 16.9971429,19.7026732 16.9971429,18.396 Z M29.2891429,18.396 C29.2891429,17.6306628 29.2098103,16.8840036 29.0511429,16.156 C28.8924754,15.4279964 28.6498112,14.7793362 28.3231429,14.21 C27.9964746,13.6406638 27.5764788,13.1833351 27.0631429,12.838 C26.549807,12.4926649 25.9384797,12.32 25.2291429,12.32 C24.519806,12.32 23.9084788,12.4926649 23.3951429,12.838 C22.881807,13.1833351 22.4618112,13.6406638 22.1351429,14.21 C21.8084746,14.7793362 21.5658103,15.4279964 21.4071429,16.156 C21.2484754,16.8840036 21.1691429,17.6306628 21.1691429,18.396 C21.1691429,19.1613372 21.2484754,19.9079964 21.4071429,20.636 C21.5658103,21.3640036 21.8084746,22.0126638 22.1351429,22.582 C22.4618112,23.1513362 22.881807,23.6086649 23.3951429,23.954 C23.9084788,24.2993351 24.519806,24.472 25.2291429,24.472 C25.9384797,24.472 26.549807,24.2993351 27.0631429,23.954 C27.5764788,23.6086649 27.9964746,23.1513362 28.3231429,22.582 C28.6498112,22.0126638 28.8924754,21.3640036 29.0511429,20.636 C29.2098103,19.9079964 29.2891429,19.1613372 29.2891429,18.396 Z M41.1731429,17.4 C41.1731429,17.866669 41.0831438,18.299998 40.9031429,18.7 C40.723142,19.1 40.4764778,19.4499985 40.1631429,19.75 C39.849808,20.0500015 39.4864783,20.2833325 39.0731429,20.45 C38.6598075,20.6166675 38.2131453,20.7 37.7331429,20.7 C37.2531405,20.7 36.8064783,20.6166675 36.3931429,20.45 C35.9798075,20.2833325 35.6198111,20.0500015 35.3131429,19.75 C35.0064747,19.4499985 34.7631438,19.1 34.5831429,18.7 C34.403142,18.299998 34.3131429,17.866669 34.3131429,17.4 C34.3131429,16.933331 34.403142,16.500002 34.5831429,16.1 C34.7631438,15.699998 35.0064747,15.3500015 35.3131429,15.05 C35.6198111,14.7499985 35.9798075,14.5166675 36.3931429,14.35 C36.8064783,14.1833325 37.2531405,14.1 37.7331429,14.1 C38.2131453,14.1 38.6598075,14.1833325 39.0731429,14.35 C39.4864783,14.5166675 39.849808,14.7499985 40.1631429,15.05 C40.4764778,15.3500015 40.723142,15.699998 40.9031429,16.1 C41.0831438,16.500002 41.1731429,16.933331 41.1731429,17.4 Z M37.7331429,18.78 C38.1198115,18.78 38.4398083,18.646668 38.6931429,18.38 C38.9464775,18.113332 39.0731429,17.7866686 39.0731429,17.4 C39.0731429,17.0133314 38.9464775,16.686668 38.6931429,16.42 C38.4398083,16.153332 38.1198115,16.02 37.7331429,16.02 C37.3464743,16.02 37.0264775,16.153332 36.7731429,16.42 C36.5198083,16.686668 36.3931429,17.0133314 36.3931429,17.4 C36.3931429,17.7866686 36.5198083,18.113332 36.7731429,18.38 C37.0264775,18.646668 37.3464743,18.78 37.7331429,18.78 Z M35.5731429,28 L45.7531429,14.26 L48.4131429,14.26 L38.2331429,28 L35.5731429,28 Z M46.2331429,28.16 C45.7531405,28.16 45.3064783,28.0766675 44.8931429,27.91 C44.4798075,27.7433325 44.1198111,27.5100015 43.8131429,27.21 C43.5064747,26.9099985 43.2631438,26.56 43.0831429,26.16 C42.903142,25.759998 42.8131429,25.326669 42.8131429,24.86 C42.8131429,24.393331 42.903142,23.960002 43.0831429,23.56 C43.2631438,23.159998 43.5064747,22.8100015 43.8131429,22.51 C44.1198111,22.2099985 44.4798075,21.9766675 44.8931429,21.81 C45.3064783,21.6433325 45.7531405,21.56 46.2331429,21.56 C46.7131453,21.56 47.1631408,21.6433325 47.5831429,21.81 C48.003145,21.9766675 48.3664747,22.2099985 48.6731429,22.51 C48.9798111,22.8100015 49.223142,23.159998 49.4031429,23.56 C49.5831438,23.960002 49.6731429,24.393331 49.6731429,24.86 C49.6731429,25.326669 49.5831438,25.759998 49.4031429,26.16 C49.223142,26.56 48.9798111,26.9099985 48.6731429,27.21 C48.3664747,27.5100015 48.003145,27.7433325 47.5831429,27.91 C47.1631408,28.0766675 46.7131453,28.16 46.2331429,28.16 Z M46.2331429,26.24 C46.6198115,26.24 46.9431416,26.106668 47.2031429,25.84 C47.4631442,25.573332 47.5931429,25.2466686 47.5931429,24.86 C47.5931429,24.4733314 47.4631442,24.146668 47.2031429,23.88 C46.9431416,23.613332 46.6198115,23.48 46.2331429,23.48 C45.8464743,23.48 45.5264775,23.613332 45.2731429,23.88 C45.0198083,24.146668 44.8931429,24.4733314 44.8931429,24.86 C44.8931429,25.2466686 45.0198083,25.573332 45.2731429,25.84 C45.5264775,26.106668 45.8464743,26.24 46.2331429,26.24 Z" id="50%"></path>
            </g>
        </g>
    </g>
</svg>