<?xml version="1.0" encoding="UTF-8"?>
<svg width="206px" height="64px" viewBox="0 0 206 64" version="1.1" xmlns="http://www.w3.org/2000/svg" xmlns:xlink="http://www.w3.org/1999/xlink">
    <!-- Generator: Sketch 58 (84663) - https://sketch.com -->
    <title>app store</title>
    <desc>Created with Sketch.</desc>
    <g id="DM" stroke="none" stroke-width="1" fill="none" fill-rule="evenodd">
        <g id="app-store" fill-rule="nonzero">
            <path d="M198.72,64 L6.72,64 C3.2,64 0.32,61.12 0.32,57.6 L0.32,6.4 C0.32,2.88 3.2,0 6.72,0 L198.72,0 C202.24,0 205.12,2.88 205.12,6.4 L205.12,57.6 C205.12,61.12 202.24,64 198.72,64 Z" id="Path" fill="#FFFFFF"></path>
            <path d="M43.52,31.68 C43.52,26.72 47.68,24.32 47.84,24.16 C45.44,20.8 41.92,20.32 40.64,20.16 C37.6,19.84 34.56,21.92 33.12,21.92 C31.52,21.92 29.12,20.16 26.56,20.16 C23.2,20.16 20.16,22.08 18.4,25.12 C14.88,31.2 17.44,40.16 20.8,45.12 C22.56,47.52 24.48,50.24 27.04,50.08 C29.6,49.92 30.56,48.48 33.6,48.48 C36.64,48.48 37.44,50.08 40.16,50.08 C42.88,50.08 44.64,47.68 46.24,45.28 C48.16,42.56 48.96,39.84 48.96,39.68 C48.8,39.52 43.52,37.6 43.52,31.68 Z" id="Path" fill="#000000"></path>
            <path d="M38.56,16.96 C39.84,15.2 40.8,12.96 40.64,10.56 C38.72,10.72 36.16,11.84 34.88,13.6 C33.6,15.04 32.48,17.44 32.8,19.68 C34.88,19.84 37.12,18.56 38.56,16.96 Z" id="Path" fill="#000000"></path>
            <path d="M80,49.76 L76.48,49.76 L74.56,43.68 L67.84,43.68 L66.08,49.76 L62.72,49.76 L69.44,29.12 L73.6,29.12 L80,49.76 Z M73.92,41.12 L72.16,35.68 C72,35.2 71.68,33.76 71.04,31.84 L71.04,31.84 C70.88,32.64 70.56,34.08 70.08,35.68 L68.32,41.12 L73.92,41.12 Z" id="Shape" fill="#000000"></path>
            <path d="M97.12,42.24 C97.12,44.8 96.48,46.72 95.04,48.32 C93.76,49.6 92.32,50.24 90.4,50.24 C88.48,50.24 87.04,49.6 86.24,48.16 L86.24,48.16 L86.24,56 L82.88,56 L82.88,40 C82.88,38.4 82.88,36.8 82.72,35.04 L85.6,35.04 L85.76,37.44 L85.76,37.44 C86.88,35.68 88.48,34.72 90.72,34.72 C92.48,34.72 93.92,35.36 95.04,36.8 C96.48,38.08 97.12,39.84 97.12,42.24 Z M93.76,42.24 C93.76,40.8 93.44,39.52 92.8,38.72 C92.16,37.76 91.2,37.28 89.92,37.28 C89.12,37.28 88.32,37.6 87.68,38.08 C87.04,38.56 86.56,39.36 86.4,40.16 C86.24,40.64 86.24,40.96 86.24,41.12 L86.24,43.68 C86.24,44.8 86.56,45.6 87.2,46.4 C87.84,47.2 88.8,47.52 89.76,47.52 C91.04,47.52 92,47.04 92.64,46.08 C93.44,45.12 93.76,43.84 93.76,42.24 Z" id="Shape" fill="#000000"></path>
            <path d="M114.24,42.24 C114.24,44.8 113.6,46.72 112.16,48.32 C110.88,49.6 109.44,50.24 107.52,50.24 C105.6,50.24 104.16,49.6 103.36,48.16 L103.36,48.16 L103.36,56 L100,56 L100,40 C100,38.4 100,36.8 99.84,35.04 L102.72,35.04 L102.88,37.44 L102.88,37.44 C104,35.68 105.6,34.72 107.84,34.72 C109.6,34.72 111.04,35.36 112.16,36.8 C113.6,38.08 114.24,39.84 114.24,42.24 Z M110.88,42.24 C110.88,40.8 110.56,39.52 109.92,38.72 C109.28,37.76 108.32,37.28 107.04,37.28 C106.24,37.28 105.44,37.6 104.8,38.08 C104.16,38.56 103.68,39.36 103.52,40.16 C103.36,40.64 103.36,40.96 103.36,41.12 L103.36,43.68 C103.36,44.8 103.68,45.6 104.32,46.4 C104.96,47.2 105.92,47.52 106.88,47.52 C108.16,47.52 109.12,47.04 109.76,46.08 C110.56,45.12 110.88,43.84 110.88,42.24 Z" id="Shape" fill="#000000"></path>
            <path d="M133.44,44 C133.44,45.76 132.8,47.2 131.68,48.32 C130.4,49.6 128.48,50.08 126.08,50.08 C123.84,50.08 122.08,49.6 120.8,48.8 L121.6,46.08 C123.04,46.88 124.64,47.36 126.4,47.36 C127.68,47.36 128.64,47.04 129.28,46.56 C129.92,45.92 130.24,45.28 130.24,44.32 C130.24,43.52 129.92,42.72 129.44,42.24 C128.8,41.6 127.84,41.12 126.56,40.64 C122.88,39.36 121.12,37.28 121.12,34.72 C121.12,32.96 121.76,31.68 123.04,30.56 C124.32,29.44 125.92,28.96 128.16,28.96 C130.08,28.96 131.52,29.28 132.8,29.92 L132,32.64 C130.88,32 129.6,31.68 128,31.68 C126.88,31.68 125.92,32 125.28,32.48 C124.8,32.96 124.48,33.6 124.48,34.4 C124.48,35.2 124.8,35.84 125.44,36.48 C125.92,36.96 127.04,37.44 128.48,38.08 C130.24,38.72 131.52,39.68 132.48,40.64 C132.96,41.44 133.44,42.56 133.44,44 Z" id="Path" fill="#000000"></path>
            <path d="M144.32,37.44 L140.64,37.44 L140.64,44.64 C140.64,46.4 141.28,47.36 142.56,47.36 C143.2,47.36 143.68,47.36 144,47.2 L144.16,49.76 C143.52,50.08 142.72,50.08 141.6,50.08 C140.32,50.08 139.2,49.76 138.56,48.96 C137.76,48.16 137.44,46.88 137.44,44.96 L137.44,37.44 L135.2,37.44 L135.2,34.88 L137.44,34.88 L137.44,32.16 L140.64,31.2 L140.64,34.88 L144.32,34.88 L144.32,37.44 Z" id="Path" fill="#000000"></path>
            <path d="M160.8,42.24 C160.8,44.48 160.16,46.4 158.88,47.84 C157.44,49.28 155.68,50.08 153.44,50.08 C151.2,50.08 149.44,49.28 148.16,47.84 C146.88,46.4 146.24,44.64 146.24,42.4 C146.24,40.16 146.88,38.24 148.32,36.8 C149.6,35.36 151.52,34.56 153.76,34.56 C156,34.56 157.76,35.36 159.04,36.8 C160.16,38.24 160.8,40 160.8,42.24 Z M157.28,42.4 C157.28,40.96 156.96,39.84 156.32,38.88 C155.68,37.76 154.56,37.12 153.28,37.12 C152,37.12 150.88,37.76 150.24,38.88 C149.6,39.84 149.28,41.12 149.28,42.4 C149.28,43.84 149.6,44.96 150.24,45.92 C150.88,47.04 152,47.68 153.28,47.68 C154.56,47.68 155.52,47.04 156.32,45.92 C156.96,44.96 157.28,43.68 157.28,42.4 Z" id="Shape" fill="#000000"></path>
            <path d="M171.52,37.76 C171.2,37.76 170.88,37.6 170.4,37.6 C169.28,37.6 168.32,38.08 167.68,38.88 C167.2,39.68 166.88,40.64 166.88,41.76 L166.88,49.6 L163.52,49.6 L163.52,39.36 C163.52,37.6 163.52,36.16 163.36,34.72 L166.24,34.72 L166.4,37.6 L166.56,37.6 C166.88,36.64 167.52,35.84 168.16,35.2 C168.96,34.72 169.76,34.4 170.56,34.4 C170.88,34.4 171.2,34.4 171.36,34.4 L171.36,37.76 L171.52,37.76 Z" id="Path" fill="#000000"></path>
            <path d="M186.24,41.6 C186.24,42.24 186.24,42.72 186.08,43.04 L176.16,43.04 C176.16,44.48 176.64,45.6 177.6,46.4 C178.4,47.04 179.52,47.52 180.8,47.52 C182.24,47.52 183.68,47.36 184.8,46.88 L185.28,49.12 C183.84,49.76 182.24,50.08 180.32,50.08 C178.08,50.08 176.16,49.44 174.88,48 C173.6,46.72 172.96,44.8 172.96,42.56 C172.96,40.32 173.6,38.4 174.72,36.96 C176,35.36 177.76,34.56 180,34.56 C182.08,34.56 183.84,35.36 184.8,36.96 C185.92,38.24 186.24,39.84 186.24,41.6 Z M183.2,40.8 C183.2,39.84 183.04,39.04 182.56,38.24 C181.92,37.28 181.12,36.8 180,36.8 C178.88,36.8 178.08,37.28 177.44,38.08 C176.96,38.72 176.64,39.68 176.48,40.64 L183.2,40.64 L183.2,40.8 Z" id="Shape" fill="#000000"></path>
            <path d="M72.96,16.48 C72.96,18.24 72.48,19.68 71.36,20.64 C70.4,21.44 68.96,21.92 67.04,21.92 C66.08,21.92 65.28,21.92 64.64,21.76 L64.64,11.84 C65.44,11.68 66.4,11.68 67.52,11.68 C69.28,11.68 70.56,12 71.52,12.8 C72.32,13.6 72.96,14.88 72.96,16.48 Z M71.2,16.48 C71.2,15.36 70.88,14.4 70.24,13.76 C69.6,13.12 68.64,12.8 67.52,12.8 C67.04,12.8 66.56,12.8 66.24,12.96 L66.24,20.48 C66.4,20.48 66.88,20.48 67.36,20.48 C68.64,20.48 69.6,20.16 70.24,19.52 C70.88,18.88 71.2,17.76 71.2,16.48 Z" id="Shape" fill="#000000"></path>
            <path d="M81.92,18.08 C81.92,19.2 81.6,20.16 80.96,20.8 C80.32,21.6 79.36,21.92 78.24,21.92 C77.12,21.92 76.32,21.6 75.68,20.8 C75.04,20.16 74.72,19.2 74.72,18.08 C74.72,16.96 75.04,16 75.68,15.36 C76.32,14.56 77.28,14.24 78.4,14.24 C79.52,14.24 80.32,14.56 80.96,15.36 C81.6,16 81.92,16.96 81.92,18.08 Z M80.32,18.08 C80.32,17.44 80.16,16.8 79.84,16.32 C79.52,15.68 79.04,15.52 78.4,15.52 C77.76,15.52 77.28,15.84 76.96,16.32 C76.64,16.8 76.48,17.44 76.48,18.08 C76.48,18.72 76.64,19.36 76.96,19.84 C77.28,20.48 77.76,20.64 78.4,20.64 C79.04,20.64 79.52,20.32 79.84,19.68 C80.16,19.36 80.32,18.72 80.32,18.08 Z" id="Shape" fill="#000000"></path>
            <path d="M94.24,14.4 L92,21.76 L90.56,21.76 L89.6,18.56 C89.28,17.76 89.12,16.96 88.96,16.16 L88.96,16.16 C88.8,16.96 88.64,17.76 88.32,18.56 L87.36,21.76 L85.92,21.76 L83.52,14.4 L85.12,14.4 L85.92,17.92 C86.08,18.72 86.24,19.52 86.4,20.32 L86.4,20.32 C86.56,19.68 86.72,18.88 87.04,17.92 L88,14.4 L89.28,14.4 L90.24,17.76 C90.56,18.56 90.72,19.36 90.88,20.16 L90.88,20.16 C91.04,19.36 91.2,18.56 91.36,17.76 L92.32,14.4 L94.24,14.4 Z" id="Path" fill="#000000"></path>
            <path d="M102.56,21.76 L100.96,21.76 L100.96,17.6 C100.96,16.32 100.48,15.68 99.52,15.68 C99.04,15.68 98.72,15.84 98.4,16.16 C98.08,16.48 97.92,16.96 97.92,17.44 L97.92,21.76 L96.32,21.76 L96.32,16.48 C96.32,15.84 96.32,15.2 96.32,14.4 L97.76,14.4 L97.76,15.52 L97.76,15.52 C97.92,15.2 98.24,14.88 98.56,14.56 C99.04,14.24 99.52,14.08 100,14.08 C100.64,14.08 101.28,14.24 101.76,14.72 C102.4,15.2 102.56,16 102.56,17.12 L102.56,21.76 Z" id="Path" fill="#000000"></path>
            <polygon id="Path" fill="#000000" points="107.04 21.76 105.44 21.76 105.44 11.04 107.04 11.04"></polygon>
            <path d="M116.64,18.08 C116.64,19.2 116.32,20.16 115.68,20.8 C115.04,21.6 114.08,21.92 112.96,21.92 C111.84,21.92 111.04,21.6 110.4,20.8 C109.76,20.16 109.44,19.2 109.44,18.08 C109.44,16.96 109.76,16 110.4,15.36 C111.04,14.72 112,14.24 113.12,14.24 C114.24,14.24 115.04,14.56 115.68,15.36 C116.32,16 116.64,16.96 116.64,18.08 Z M115.04,18.08 C115.04,17.44 114.88,16.8 114.56,16.32 C114.24,15.68 113.76,15.52 113.12,15.52 C112.48,15.52 112,15.84 111.68,16.32 C111.36,16.8 111.2,17.44 111.2,18.08 C111.2,18.72 111.36,19.36 111.68,19.84 C112,20.48 112.48,20.64 113.12,20.64 C113.76,20.64 114.24,20.32 114.56,19.68 C114.88,19.36 115.04,18.72 115.04,18.08 Z" id="Shape" fill="#000000"></path>
            <path d="M124.48,21.76 L123.04,21.76 L122.88,20.96 L122.88,20.96 C122.4,21.6 121.6,21.92 120.8,21.92 C120.16,21.92 119.52,21.76 119.2,21.28 C118.88,20.8 118.56,20.32 118.56,19.84 C118.56,18.88 118.88,18.24 119.68,17.76 C120.48,17.28 121.44,17.12 122.88,17.12 L122.88,16.96 C122.88,16 122.4,15.52 121.44,15.52 C120.64,15.52 120.16,15.68 119.52,16 L119.2,14.88 C119.84,14.4 120.64,14.24 121.76,14.24 C123.68,14.24 124.64,15.2 124.64,17.28 L124.64,20 C124.48,20.8 124.48,21.28 124.48,21.76 Z M122.88,19.2 L122.88,18.08 C121.12,18.08 120.16,18.56 120.16,19.52 C120.16,19.84 120.32,20.16 120.48,20.32 C120.64,20.48 120.96,20.64 121.28,20.64 C121.6,20.64 121.92,20.48 122.24,20.32 C122.56,20.16 122.72,19.84 122.88,19.52 C122.88,19.52 122.88,19.36 122.88,19.2 Z" id="Shape" fill="#000000"></path>
            <path d="M133.76,21.76 L132.32,21.76 L132.32,20.64 L132.32,20.64 C131.84,21.6 131.04,21.92 129.92,21.92 C128.96,21.92 128.32,21.6 127.68,20.96 C127.04,20.32 126.88,19.36 126.88,18.24 C126.88,17.12 127.2,16.16 127.84,15.36 C128.48,14.72 129.28,14.4 130.08,14.4 C131.04,14.4 131.68,14.72 132.16,15.36 L132.16,15.36 L132.16,11.2 L133.76,11.2 L133.76,19.84 C133.76,20.48 133.76,21.12 133.76,21.76 Z M132.16,18.72 L132.16,17.44 C132.16,17.28 132.16,17.12 132.16,16.96 C132,16.64 131.84,16.32 131.52,16 C131.2,15.68 130.88,15.68 130.4,15.68 C129.76,15.68 129.28,16 128.96,16.48 C128.64,16.96 128.48,17.6 128.48,18.4 C128.48,19.2 128.64,19.68 128.96,20.16 C129.28,20.64 129.76,20.96 130.4,20.96 C130.88,20.96 131.36,20.8 131.68,20.32 C132,19.68 132.16,19.2 132.16,18.72 Z" id="Shape" fill="#000000"></path>
            <path d="M147.68,18.08 C147.68,19.2 147.36,20.16 146.72,20.8 C146.08,21.6 145.12,21.92 144,21.92 C142.88,21.92 142.08,21.6 141.44,20.8 C140.8,20.16 140.48,19.2 140.48,18.08 C140.48,16.96 140.8,16 141.44,15.36 C142.08,14.56 143.04,14.24 144.16,14.24 C145.28,14.24 146.08,14.56 146.72,15.36 C147.36,16 147.68,16.96 147.68,18.08 Z M145.92,18.08 C145.92,17.44 145.76,16.8 145.44,16.32 C145.12,15.68 144.64,15.52 144,15.52 C143.36,15.52 142.88,15.84 142.56,16.32 C142.24,16.8 142.08,17.44 142.08,18.08 C142.08,18.72 142.24,19.36 142.56,19.84 C142.88,20.48 143.36,20.64 144,20.64 C144.64,20.64 145.12,20.32 145.44,19.68 C145.76,19.36 145.92,18.72 145.92,18.08 Z" id="Shape" fill="#000000"></path>
            <path d="M156.48,21.76 L154.88,21.76 L154.88,17.6 C154.88,16.32 154.4,15.68 153.44,15.68 C152.96,15.68 152.64,15.84 152.32,16.16 C152,16.48 151.84,16.96 151.84,17.44 L151.84,21.76 L150.24,21.76 L150.24,16.48 C150.24,15.84 150.24,15.2 150.24,14.4 L151.68,14.4 L151.68,15.52 L151.68,15.52 C151.84,15.2 152.16,14.88 152.48,14.56 C152.96,14.24 153.44,14.08 153.92,14.08 C154.56,14.08 155.2,14.24 155.68,14.72 C156.32,15.2 156.48,16 156.48,17.12 L156.48,21.76 Z" id="Path" fill="#000000"></path>
            <path d="M167.36,15.68 L165.6,15.68 L165.6,19.2 C165.6,20.16 165.92,20.48 166.56,20.48 C166.88,20.48 167.04,20.48 167.36,20.48 L167.36,21.76 C167.04,21.92 166.56,21.92 166.08,21.92 C165.44,21.92 164.96,21.76 164.64,21.28 C164.32,20.96 164.16,20.16 164.16,19.36 L164.16,15.68 L163.04,15.68 L163.04,14.4 L164.16,14.4 L164.16,13.12 L165.76,12.64 L165.76,14.4 L167.52,14.4 L167.52,15.68 L167.36,15.68 Z" id="Path" fill="#000000"></path>
            <path d="M176,21.76 L174.4,21.76 L174.4,17.6 C174.4,16.32 173.92,15.68 172.96,15.68 C172.16,15.68 171.68,16 171.36,16.8 C171.36,16.96 171.36,17.12 171.36,17.44 L171.36,21.76 L169.76,21.76 L169.76,11.04 L171.36,11.04 L171.36,15.52 L171.36,15.52 C171.84,14.72 172.64,14.24 173.6,14.24 C174.24,14.24 174.88,14.4 175.2,14.88 C175.68,15.36 176,16.32 176,17.28 L176,21.76 Z" id="Path" fill="#000000"></path>
            <path d="M184.8,17.76 C184.8,18.08 184.8,18.24 184.8,18.56 L180,18.56 C180,19.36 180.32,19.84 180.64,20.16 C181.12,20.48 181.6,20.64 182.24,20.64 C183.04,20.64 183.68,20.48 184.16,20.32 L184.48,21.44 C183.84,21.76 183.04,21.92 182.08,21.92 C180.96,21.92 180,21.6 179.36,20.96 C178.72,20.32 178.4,19.36 178.4,18.24 C178.4,17.12 178.72,16.16 179.36,15.52 C180,14.72 180.8,14.4 181.92,14.4 C183.04,14.4 183.84,14.72 184.32,15.52 C184.64,16 184.8,16.8 184.8,17.76 Z M183.36,17.28 C183.36,16.8 183.2,16.32 183.04,16 C182.72,15.52 182.4,15.36 181.76,15.36 C181.28,15.36 180.8,15.52 180.48,16 C180.16,16.32 180,16.8 180,17.28 L183.36,17.28 Z" id="Shape" fill="#000000"></path>
        </g>
    </g>
</svg>