<?xml version="1.0" encoding="UTF-8"?>
<svg width="201px" height="64px" viewBox="0 0 201 64" version="1.1" xmlns="http://www.w3.org/2000/svg" xmlns:xlink="http://www.w3.org/1999/xlink">
    <!-- Generator: Sketch 58 (84663) - https://sketch.com -->
    <title>google play</title>
    <desc>Created with Sketch.</desc>
    <defs>
        <linearGradient x1="32.0715648%" y1="-6.0957265%" x2="54.461911%" y2="92.1559829%" id="linearGradient-1">
            <stop stop-color="#006884" offset="0%"></stop>
            <stop stop-color="#8AD1D0" offset="100%"></stop>
        </linearGradient>
        <linearGradient x1="-7.52792208%" y1="30.2358998%" x2="91.537013%" y2="70.9239374%" id="linearGradient-2">
            <stop stop-color="#24BBB6" offset="0%"></stop>
            <stop stop-color="#DBE692" offset="100%"></stop>
        </linearGradient>
        <linearGradient x1="49.9404255%" y1="105.754795%" x2="49.9404255%" y2="-3.12739726%" id="linearGradient-3">
            <stop stop-color="#FCC072" offset="0%"></stop>
            <stop stop-color="#F58A5B" offset="100%"></stop>
        </linearGradient>
        <linearGradient x1="11.1493421%" y1="89.5089855%" x2="90.4368421%" y2="27.9281683%" id="linearGradient-4">
            <stop stop-color="#712B8F" offset="0%"></stop>
            <stop stop-color="#EA1D27" offset="100%"></stop>
        </linearGradient>
    </defs>
    <g id="DM" stroke="none" stroke-width="1" fill="none" fill-rule="evenodd">
        <g id="google-play" fill-rule="nonzero">
            <path d="M194.341463,63.2195122 L7.02439024,63.2195122 C3.5902439,63.2195122 0.780487805,60.4097561 0.780487805,56.9756098 L0.780487805,7.02439024 C0.780487805,3.5902439 3.5902439,0.780487805 7.02439024,0.780487805 L194.341463,0.780487805 C197.77561,0.780487805 200.585366,3.5902439 200.585366,7.02439024 L200.585366,56.9756098 C200.585366,60.4097561 197.77561,63.2195122 194.341463,63.2195122 Z" id="Path" fill="#FFFFFF"></path>
            <path d="M16.0780488,31.3756098 L16.0780488,14.9853659 C16.0780488,14.0487805 16.8585366,13.2682927 17.6390244,13.2682927 C18.4195122,13.2682927 18.7317073,13.4243902 19.2,13.7365854 L49.3268293,30.2829268 C49.9512195,30.595122 50.2634146,31.0634146 50.2634146,31.5317073 C50.2634146,32 49.9512195,32.4682927 49.3268293,32.7804878 L19.2,49.3268293 C18.8878049,49.4829268 18.4195122,49.795122 17.6390244,49.795122 C16.8585366,49.795122 16.0780488,49.0146341 16.0780488,48.0780488 L16.0780488,31.3756098 Z" id="Path" fill="url(#linearGradient-1)"></path>
            <path d="M35.5902439,31.5317073 L17.3268293,13.2682927 C17.4829268,13.2682927 17.4829268,13.2682927 17.6390244,13.2682927 C18.4195122,13.2682927 18.7317073,13.4243902 19.2,13.7365854 L41.3658537,25.9121951 L35.5902439,31.5317073 Z" id="Path" fill="url(#linearGradient-2)"></path>
            <path d="M41.2097561,36.995122 L35.5902439,31.3756098 L41.3658537,25.6 L49.3268293,29.9707317 C49.9512195,30.2829268 50.2634146,30.7512195 50.2634146,31.2195122 C50.2634146,31.6878049 49.9512195,32.1560976 49.3268293,32.4682927 L41.2097561,36.995122 Z" id="Path" fill="url(#linearGradient-3)"></path>
            <path d="M17.4829268,49.4829268 L17.4829268,49.4829268 L35.5902439,31.3756098 L41.2097561,36.995122 L19.2,49.0146341 C18.7317073,49.3268293 18.4195122,49.4829268 17.4829268,49.4829268 C17.6390244,49.4829268 17.6390244,49.4829268 17.4829268,49.4829268 Z" id="Path" fill="url(#linearGradient-4)"></path>
            <path d="M111.765854,53.697561 C110.985366,53.0731707 110.360976,51.9804878 110.04878,51.3560976 L112.546341,50.2634146 C112.702439,50.5756098 113.014634,51.0439024 113.326829,51.5121951 C113.95122,52.1365854 114.887805,52.7609756 115.82439,52.7609756 C116.760976,52.7609756 117.853659,52.2926829 118.478049,51.5121951 C118.946341,50.7317073 119.258537,49.9512195 119.258537,48.8585366 L119.258537,47.9219512 C117.385366,50.2634146 113.482927,49.9512195 111.297561,47.4536585 C108.956098,44.9560976 108.956098,40.7414634 111.297561,38.2439024 C113.639024,35.902439 117.073171,35.5902439 119.102439,37.7756098 C119.102439,37.7756098 119.102439,37.7756098 119.102439,37.7756098 L119.102439,36.6829268 L121.756098,36.6829268 L121.756098,48.3902439 C121.756098,51.3560976 120.663415,53.0731707 119.258537,54.1658537 C118.321951,54.9463415 116.917073,55.2585366 115.668293,55.2585366 C114.263415,55.102439 112.858537,54.6341463 111.765854,53.697561 L111.765854,53.697561 Z M177.170732,54.3219512 L177.170732,54.3219512 L179.82439,48.0780488 L175.141463,37.3073171 L177.795122,37.3073171 L181.073171,44.9560976 L184.35122,37.3073171 L187.004878,37.3073171 L179.82439,54.3219512 L177.170732,54.3219512 L177.170732,54.3219512 Z M164.526829,48.3902439 L164.526829,48.3902439 C163.746341,47.6097561 163.434146,46.5170732 163.434146,45.4243902 C163.434146,44.4878049 163.746341,43.5512195 164.370732,42.9268293 C165.463415,41.8341463 167.02439,41.3658537 168.741463,41.3658537 C169.834146,41.3658537 170.770732,41.5219512 171.55122,41.9902439 C171.55122,40.1170732 169.990244,39.3365854 168.741463,39.3365854 C167.64878,39.3365854 166.556098,39.9609756 166.087805,41.0536585 L163.746341,40.1170732 C164.214634,39.0243902 165.463415,36.995122 168.585366,36.995122 C170.146341,36.995122 171.707317,37.4634146 172.643902,38.5560976 C173.580488,39.6487805 173.892683,40.897561 173.892683,42.6146341 L173.892683,49.1707317 L171.239024,49.1707317 L171.239024,48.0780488 C170.926829,48.5463415 170.302439,48.8585366 169.834146,49.1707317 C169.209756,49.4829268 168.429268,49.6390244 167.64878,49.6390244 C166.712195,49.4829268 165.307317,49.1707317 164.526829,48.3902439 L164.526829,48.3902439 Z M81.3268293,42.7707317 L81.3268293,42.7707317 C81.3268293,39.6487805 83.6682927,36.2146341 87.8829268,36.2146341 C91.9414634,36.2146341 94.4390244,39.6487805 94.4390244,42.7707317 C94.4390244,45.8926829 92.097561,49.3268293 87.8829268,49.3268293 C83.6682927,49.3268293 81.3268293,45.8926829 81.3268293,42.7707317 L81.3268293,42.7707317 Z M95.3756098,42.7707317 L95.3756098,42.7707317 C95.3756098,39.6487805 97.7170732,36.2146341 101.931707,36.2146341 C105.990244,36.2146341 108.487805,39.6487805 108.487805,42.7707317 C108.487805,45.8926829 106.146341,49.3268293 101.931707,49.3268293 C97.8731707,49.3268293 95.3756098,45.8926829 95.3756098,42.7707317 L95.3756098,42.7707317 Z M63.6878049,46.204878 L63.6878049,46.204878 C59.7853659,42.302439 59.9414634,35.902439 63.8439024,31.8439024 C65.8731707,29.8146341 68.3707317,28.8780488 71.0243902,28.8780488 C73.5219512,28.8780488 76.0195122,29.8146341 77.8926829,31.6878049 L76.0195122,33.7170732 C73.2097561,30.9073171 68.6829268,31.0634146 66.0292683,33.8731707 C63.2195122,36.8390244 63.2195122,41.3658537 66.0292683,44.3317073 C68.8390244,47.297561 73.5219512,47.4536585 76.3317073,44.4878049 C77.2682927,43.5512195 77.5804878,42.302439 77.7365854,41.0536585 L71.1804878,41.0536585 L71.1804878,38.2439024 L80.3902439,38.2439024 C80.5463415,38.8682927 80.5463415,39.6487805 80.5463415,40.4292683 C80.5463415,42.7707317 79.6097561,45.1121951 78.0487805,46.6731707 C76.3317073,48.3902439 73.8341463,49.3268293 71.3365854,49.3268293 C68.5268293,49.1707317 65.7170732,48.2341463 63.6878049,46.204878 L63.6878049,46.204878 Z M129.717073,47.297561 L129.717073,47.297561 C127.37561,44.8 127.37561,40.5853659 129.717073,37.9317073 C132.058537,35.4341463 135.960976,35.4341463 138.146341,37.9317073 C138.926829,38.7121951 139.395122,39.804878 139.863415,40.897561 L131.278049,44.4878049 C131.746341,45.5804878 132.839024,46.5170732 134.4,46.5170732 C135.804878,46.5170732 136.741463,46.0487805 137.678049,44.6439024 L140.019512,46.204878 L140.019512,46.204878 C139.707317,46.5170732 139.395122,46.8292683 139.239024,47.1414634 C136.585366,49.795122 132.058537,49.795122 129.717073,47.297561 L129.717073,47.297561 Z M145.95122,49.1707317 L145.95122,49.1707317 L145.95122,31.8439024 L151.570732,31.8439024 C154.84878,31.8439024 157.502439,34.1853659 157.502439,36.995122 C157.502439,39.804878 155.160976,42.1463415 152.195122,42.1463415 L148.760976,42.1463415 L148.760976,49.0146341 L145.95122,49.0146341 L145.95122,49.1707317 Z M159.063415,49.1707317 L159.063415,49.1707317 L159.063415,31.8439024 L161.717073,31.8439024 L161.717073,49.1707317 L159.063415,49.1707317 L159.063415,49.1707317 Z M123.785366,48.8585366 L123.785366,48.8585366 L123.785366,29.502439 L126.595122,29.502439 L126.595122,48.8585366 L123.785366,48.8585366 L123.785366,48.8585366 Z M171.395122,44.0195122 L171.395122,44.0195122 C170.770732,43.5512195 169.834146,43.395122 168.897561,43.395122 C167.02439,43.395122 165.931707,44.3317073 165.931707,45.4243902 C165.931707,46.5170732 167.02439,47.1414634 168.117073,47.1414634 C169.678049,47.1414634 171.395122,45.8926829 171.395122,44.0195122 L171.395122,44.0195122 Z M91.4731707,42.7707317 L91.4731707,42.7707317 C91.4731707,40.897561 90.2243902,38.8682927 87.8829268,38.8682927 C85.5414634,38.8682927 84.2926829,40.897561 84.2926829,42.7707317 C84.2926829,44.6439024 85.5414634,46.6731707 87.8829268,46.6731707 C90.0682927,46.6731707 91.4731707,44.6439024 91.4731707,42.7707317 L91.4731707,42.7707317 Z M105.521951,42.7707317 L105.521951,42.7707317 C105.521951,40.897561 104.273171,38.8682927 101.931707,38.8682927 C99.5902439,38.8682927 98.3414634,40.897561 98.3414634,42.7707317 C98.3414634,44.6439024 99.5902439,46.6731707 101.931707,46.6731707 C104.273171,46.6731707 105.521951,44.6439024 105.521951,42.7707317 L105.521951,42.7707317 Z M119.414634,43.8634146 L119.414634,43.8634146 C119.414634,43.7073171 119.414634,43.5512195 119.570732,43.395122 C119.570732,43.395122 119.570732,43.395122 119.570732,43.395122 C119.570732,43.2390244 119.570732,42.9268293 119.570732,42.7707317 C119.570732,42.6146341 119.570732,42.302439 119.570732,42.1463415 C119.570732,42.1463415 119.570732,41.9902439 119.570732,41.9902439 C119.570732,41.8341463 119.414634,41.5219512 119.414634,41.3658537 C118.946341,39.804878 117.541463,38.7121951 116.136585,38.7121951 C114.263415,38.7121951 112.702439,40.5853659 112.702439,42.6146341 C112.702439,44.8 114.263415,46.5170732 116.292683,46.5170732 C117.541463,46.6731707 118.790244,45.5804878 119.414634,43.8634146 L119.414634,43.8634146 Z M130.809756,42.4585366 L130.809756,42.4585366 L136.585366,39.9609756 C135.960976,38.8682927 135.02439,38.5560976 134.243902,38.5560976 C131.902439,38.7121951 130.497561,41.2097561 130.809756,42.4585366 L130.809756,42.4585366 Z M154.692683,37.1512195 L154.692683,37.1512195 C154.692683,35.5902439 153.443902,34.497561 151.726829,34.497561 L148.604878,34.497561 L148.604878,39.9609756 L151.882927,39.9609756 C153.443902,39.9609756 154.692683,38.7121951 154.692683,37.1512195 Z" id="Shape" fill="#000000"></path>
            <polygon id="Path" fill="#FFFFFF" points="179.2 51.2 179.2 51.2 179.043902 51.2 179.043902 51.2 179.043902 51.0439024 179.043902 51.0439024 179.2 51.0439024 179.2 51.0439024 179.043902 51.0439024 179.043902 51.0439024 179.043902 51.2 179.043902 51.2"></polygon>
            <polygon id="Path" fill="#FFFFFF" points="179.2 51.2 179.2 51.2 179.2 51.0439024 179.2 51.0439024 179.2 51.0439024 179.2 51.0439024 179.2 51.0439024 179.2 51.0439024 179.2 51.0439024 179.2 51.0439024"></polygon>
            <polygon id="Path" fill="#FFFFFF" points="179.2 51.0439024 179.2 51.0439024 179.2 51.0439024 179.2 51.0439024 179.2 51.2 179.2 51.2"></polygon>
            <polygon id="Path" fill="#FFFFFF" points="179.2 51.2 179.2 51.2 179.2 51.0439024 179.2 51.0439024 179.2 51.0439024 179.2 51.0439024 179.2 51.0439024 179.2 51.0439024 179.2 51.0439024 179.2 51.0439024"></polygon>
            <polygon id="Path" fill="#FFFFFF" points="179.356098 51.0439024 179.356098 51.0439024 179.356098 51.0439024 179.356098 51.0439024 179.356098 51.0439024 179.356098 51.0439024 179.356098 51.0439024 179.356098 51.0439024 179.356098 51.2 179.356098 51.2"></polygon>
            <polygon id="Path" fill="#FFFFFF" points="179.356098 51.2 179.356098 51.2 179.356098 51.0439024 179.356098 51.0439024"></polygon>
            <path d="M179.356098,51.2 L179.356098,51.2 L179.356098,51.2 L179.356098,51.2 L179.356098,51.2 L179.356098,51.2 C179.356098,51.2 179.356098,51.2 179.356098,51.2 C179.356098,51.2 179.356098,51.2 179.356098,51.2 L179.356098,51.2 C179.356098,51.0439024 179.356098,51.0439024 179.356098,51.2 C179.356098,51.0439024 179.356098,51.0439024 179.356098,51.2 L179.356098,51.2 C179.356098,51.0439024 179.356098,51.0439024 179.356098,51.2 C179.356098,51.0439024 179.356098,51.0439024 179.356098,51.2 L179.356098,51.2 C179.356098,51.2 179.356098,51.2 179.356098,51.2 C179.356098,51.2 179.356098,51.2 179.356098,51.2 L179.356098,51.2 Z" id="Path" fill="#FFFFFF"></path>
            <polygon id="Path" fill="#FFFFFF" points="179.512195 51.2 179.512195 51.0439024 179.512195 51.0439024 179.512195 51.0439024 179.512195 51.0439024 179.512195 51.0439024 179.512195 51.2 179.512195 51.2 179.512195 51.0439024 179.512195 51.0439024 179.512195 51.2 179.512195 51.2 179.512195 51.0439024 179.512195 51.0439024"></polygon>
            <path d="M179.512195,51.2 C179.512195,51.0439024 179.512195,51.0439024 179.512195,51.2 C179.512195,51.0439024 179.512195,51.0439024 179.512195,51.2 C179.512195,51.0439024 179.512195,51.0439024 179.512195,51.2 C179.512195,51.0439024 179.512195,51.0439024 179.512195,51.2 L179.512195,51.2 C179.512195,51.0439024 179.512195,51.0439024 179.512195,51.2 C179.512195,51.0439024 179.512195,51.0439024 179.512195,51.2 C179.512195,51.0439024 179.512195,51.0439024 179.512195,51.2 C179.512195,51.0439024 179.512195,51.0439024 179.512195,51.2 C179.512195,51.2 179.512195,51.2 179.512195,51.2 C179.512195,51.2 179.512195,51.2 179.512195,51.2 L179.512195,51.2 C179.512195,51.2 179.512195,51.2 179.512195,51.2 C179.512195,51.2 179.512195,51.2 179.512195,51.2 Z" id="Path" fill="#FFFFFF"></path>
            <polygon id="Path" fill="#FFFFFF" points="179.668293 51.0439024 179.512195 51.0439024 179.512195 51.0439024 179.668293 51.0439024 179.668293 51.2 179.668293 51.2"></polygon>
            <polygon id="Path" fill="#FFFFFF" points="179.668293 51.2 179.668293 51.2 179.668293 51.0439024 179.668293 51.0439024 179.668293 51.0439024 179.668293 51.0439024 179.668293 51.0439024 179.668293 51.0439024 179.668293 51.0439024 179.668293 51.0439024"></polygon>
            <path d="M61.502439,16.5463415 C61.502439,13.7365854 63.5317073,12.0195122 66.0292683,12.0195122 C67.7463415,12.0195122 68.8390244,12.8 69.6195122,13.8926829 L68.3707317,14.6731707 C67.902439,14.0487805 67.1219512,13.5804878 66.0292683,13.5804878 C64.3121951,13.5804878 63.0634146,14.8292683 63.0634146,16.702439 C63.0634146,18.5756098 64.3121951,19.8243902 66.0292683,19.8243902 C66.9658537,19.8243902 67.7463415,19.3560976 68.0585366,19.0439024 L68.0585366,17.6390244 L65.5609756,17.6390244 L65.5609756,16.2341463 L69.7756098,16.2341463 L69.7756098,19.5121951 C68.995122,20.4487805 67.7463415,21.0731707 66.1853659,21.0731707 C63.5317073,21.0731707 61.502439,19.2 61.502439,16.5463415 Z" id="Path" fill="#000000"></path>
            <polygon id="Path" fill="#000000" points="71.6487805 20.9170732 71.6487805 12.1756098 77.5804878 12.1756098 77.5804878 13.5804878 73.0536585 13.5804878 73.0536585 15.7658537 77.4243902 15.7658537 77.4243902 17.1707317 73.0536585 17.1707317 73.0536585 19.6682927 77.5804878 19.6682927 77.5804878 21.0731707"></polygon>
            <polygon id="Path" fill="#000000" points="81.9512195 20.9170732 81.9512195 13.5804878 79.297561 13.5804878 79.297561 12.1756098 86.1658537 12.1756098 86.1658537 13.5804878 83.5121951 13.5804878 83.5121951 20.9170732"></polygon>
            <path d="M91.4731707,20.9170732 L91.4731707,12.1756098 L93.0341463,12.1756098 L93.0341463,20.9170732 C93.0341463,20.9170732 91.4731707,20.9170732 91.4731707,20.9170732 Z" id="Path" fill="#000000"></path>
            <polygon id="Path" fill="#000000" points="97.2487805 20.9170732 97.2487805 13.5804878 94.595122 13.5804878 94.595122 12.1756098 101.463415 12.1756098 101.463415 13.5804878 98.8097561 13.5804878 98.8097561 20.9170732"></polygon>
            <path d="M106.458537,16.5463415 C106.458537,13.8926829 108.331707,12.0195122 110.985366,12.0195122 C113.639024,12.0195122 115.512195,13.8926829 115.512195,16.5463415 C115.512195,19.2 113.639024,21.0731707 110.985366,21.0731707 C108.331707,21.0731707 106.458537,19.0439024 106.458537,16.5463415 Z M113.795122,16.5463415 C113.795122,14.6731707 112.702439,13.4243902 110.829268,13.4243902 C109.112195,13.4243902 107.863415,14.8292683 107.863415,16.5463415 C107.863415,18.4195122 108.956098,19.6682927 110.829268,19.6682927 C112.702439,19.6682927 113.795122,18.2634146 113.795122,16.5463415 Z" id="Shape" fill="#000000"></path>
            <polygon id="Path" fill="#000000" points="123.317073 20.9170732 118.790244 14.6731707 118.790244 20.9170732 117.229268 20.9170732 117.229268 12.1756098 118.790244 12.1756098 123.317073 18.2634146 123.317073 12.1756098 124.878049 12.1756098 124.878049 20.9170732"></polygon>
        </g>
    </g>
</svg>