<?xml version="1.0" encoding="UTF-8"?>
<svg width="54px" height="54px" viewBox="0 0 54 54" version="1.1" xmlns="http://www.w3.org/2000/svg" xmlns:xlink="http://www.w3.org/1999/xlink">
    <!-- Generator: Sketch 55.1 (78136) - https://sketchapp.com -->
    <title>citizen-normal</title>
    <desc>Created with Sketch.</desc>
    <defs>
        <circle id="path-1" cx="25" cy="25" r="25"></circle>
    </defs>
    <g id="Page-1" stroke="none" stroke-width="1" fill="none" fill-rule="evenodd">
        <g id="citizen-normal" transform="translate(2.000000, 2.000000)">
            <mask id="mask-2" fill="white">
                <use xlink:href="#path-1"></use>
            </mask>
            <g id="Mask">
                <use fill="#FBFBFB" fill-rule="evenodd" xlink:href="#path-1"></use>
                <circle stroke="#000000" stroke-width="2" cx="25" cy="25" r="26"></circle>
                <use stroke="#E0E0E0" stroke-width="2" xlink:href="#path-1"></use>
            </g>
            <g id="iconfinder_citizenship-citizen-002_2194154" mask="url(#mask-2)" fill-rule="nonzero" stroke="#000000" stroke-width="1.5">
                <g transform="translate(7.000000, 18.000000)">
                    <path d="M18.3431415,16.4757341 C14.8880946,16.4757341 12.0871892,13.6749146 12.0871892,10.2197817 C12.0871892,6.76464887 14.8880946,3.96382937 18.3431415,3.96382937 C21.7985191,3.96382937 24.5990939,6.76449014 24.5990939,10.2197817 C24.5990939,13.6750734 21.7985191,16.4757341 18.3431415,16.4757341 Z M16.7313955,13.0821098 C16.2535889,12.8109165 15.8443474,12.4199375 15.5467938,11.9380622 L14.9086508,13.0821098 L16.7313955,13.0821098 Z M19.9548876,13.0821098 L21.7776323,13.0821098 L21.1394893,11.9380622 C20.8419356,12.4199375 20.4326942,12.8109165 19.9548876,13.0821098 Z" id="Shape"></path>
                    <path d="M36.4180593,3.07966512 L36.4301046,3.0424289 L35.9724462,2.14724388 L35.7415768,2.86093282 L36.4180593,3.07966512 Z M0.944393479,2.86072226 L0.713592151,2.14724388 L0.256046767,3.04253365 L0.268047124,3.07963097 L0.944393479,2.86072226 Z M3.67830262,8.74901919 L4.74648197,12.0513074 C5.66920325,12.2822327 6.42601151,12.9886455 6.69485221,13.9407664 C7.39237084,16.4097561 7.99337073,18.0098715 8.47161046,18.924923 C8.5193545,18.8823705 8.57481142,18.8326798 8.6479281,18.7670441 C10.4687316,17.1325493 11.6224993,16.4309466 13.3200501,16.3877065 C13.4213433,16.376373 13.5185243,16.3703307 13.6160979,16.3703307 L23.0704299,16.3703307 C23.1681982,16.3703307 23.2653868,16.3763683 23.3037066,16.3833325 C25.063936,16.4311812 26.2179421,17.13292 28.038112,18.766801 C28.1014091,18.8236217 28.1600014,18.8760344 28.2145035,18.9245334 C28.6927315,18.0094563 29.2937068,16.4093723 29.9911972,13.9404824 C30.2603427,12.9879925 31.0171374,12.2812966 31.9398742,12.0506161 L33.007963,8.74878932 L24.4874568,5.9926372 L26.7313197,-0.94445134 L35.2516131,1.81195583 L35.452483,1.19099625 L37.6305,1.89523121 L34.201394,12.4956598 C35.0884001,13.147649 35.5163265,14.301619 35.2024744,15.4125558 C33.5208721,21.3652343 31.9931825,23.9981954 29.6063855,24.6896066 C29.2305256,24.7985304 28.8558866,24.8518783 28.4838823,24.8518783 C27.4515252,24.8518783 26.6528702,24.5479173 25.711541,23.8648348 L25.711541,59.7293056 C25.711541,61.8146755 24.021007,63.5046429 21.9357143,63.5046429 C20.2569832,63.5046429 18.8339891,62.4089336 18.3432635,60.8934547 C17.8525128,62.4089775 16.4293865,63.5046429 14.7503241,63.5046429 C12.6654263,63.5046429 10.9749868,61.8145811 10.9749868,59.7293056 L10.9749868,23.8645155 C10.0336703,24.5476184 9.23448711,24.8518783 8.20215608,24.8518783 C7.83015177,24.8518783 7.45551274,24.7985304 7.0796514,24.6896062 C4.69288745,23.9979189 3.16545819,21.3653648 1.483567,15.4125666 C1.16973655,14.3017065 1.59773987,13.1478846 2.48468382,12.4957816 L-0.944393479,1.89544176 L1.23348727,1.19054098 L1.43443323,1.81173568 L9.95497134,-0.944426784 L12.1988202,5.99261865 L3.67830262,8.74901919 Z" id="Path"></path>
                </g>
            </g>
        </g>
    </g>
</svg>