<?xml version="1.0" encoding="UTF-8"?>
<svg width="54px" height="54px" viewBox="0 0 54 54" version="1.1" xmlns="http://www.w3.org/2000/svg" xmlns:xlink="http://www.w3.org/1999/xlink">
    <!-- Generator: Sketch 55.1 (78136) - https://sketchapp.com -->
    <title>citizen-active</title>
    <desc>Created with Sketch.</desc>
    <defs>
        <linearGradient x1="50%" y1="0%" x2="50%" y2="100%" id="linearGradient-1">
            <stop stop-color="#FFFFFF" offset="0%"></stop>
            <stop stop-color="#4E4E4E" offset="53.9375%"></stop>
            <stop stop-color="#6F6F6F" offset="100%"></stop>
        </linearGradient>
        <circle id="path-2" cx="25" cy="25" r="25"></circle>
    </defs>
    <g id="Page-1" stroke="none" stroke-width="1" fill="none" fill-rule="evenodd">
        <g id="citizen-active" transform="translate(2.000000, 2.000000)">
            <mask id="mask-3" fill="white">
                <use xlink:href="#path-2"></use>
            </mask>
            <g id="Mask">
                <use fill="#101011" fill-rule="evenodd" xlink:href="#path-2"></use>
                <circle stroke="url(#linearGradient-1)" stroke-width="2" cx="25" cy="25" r="26"></circle>
                <use stroke="#E0E0E0" stroke-width="2" xlink:href="#path-2"></use>
            </g>
            <g id="iconfinder_citizenship-citizen-002_2194154" mask="url(#mask-3)" fill="#FFFFFF" fill-rule="nonzero">
                <g transform="translate(7.000000, 18.000000)">
                    <path d="M18.3431415,15.7257341 C21.3843849,15.7257341 23.8490939,13.2607804 23.8490939,10.2197817 C23.8490939,7.17878307 21.3843849,4.71382937 18.3431415,4.71382937 C15.3023876,4.71382937 12.8371892,7.17878307 12.8371892,10.2197817 C12.8371892,13.2607804 15.3023876,15.7257341 18.3431415,15.7257341 Z M21.7776323,12.3321098 C21.0657738,13.4849339 19.7945106,14.2574802 18.3431415,14.2574802 C16.8917725,14.2574802 15.6205093,13.4849339 14.9086508,12.3321098 L21.7776323,12.3321098 Z" id="Shape"></path>
                    <path d="M11.2544114,5.50986772 L9.47219577,0 L0.95167328,2.75615741 L0.750767196,2.13508598 L0,2.37808201 L3.38750661,12.849914 C2.45247354,13.208168 1.92781746,14.2264021 2.20531746,15.208664 C3.81917328,20.9206614 5.24411376,23.3768056 7.2884127,23.969246 C7.60506614,24.0610119 7.90972884,24.1018783 8.20215608,24.1018783 C9.66722884,24.1018783 10.8308201,23.0763029 11.7249868,22.2739021 L11.7249868,31.1130357 L11.7249868,35.7478241 L11.7249868,59.7293056 C11.7249868,61.400668 13.0799405,62.7546429 14.7503241,62.7546429 C16.4211971,62.7546429 17.7761508,61.400668 17.7761508,59.7293056 L17.7761508,37.6391799 L18.910377,37.6391799 L18.910377,59.7293056 C18.910377,61.400668 20.2653307,62.7546429 21.9357143,62.7546429 C23.6065873,62.7546429 24.961541,61.400668 24.961541,59.7293056 L24.961541,35.7478241 L24.961541,31.1130357 L24.961541,22.2743915 C25.8557077,23.0765476 27.0188095,24.1018783 28.4838823,24.1018783 C28.7763095,24.1018783 29.0809722,24.0610119 29.3976257,23.969246 C31.4419246,23.3770503 32.8671098,20.9206614 34.4807209,15.208664 C34.7582209,14.2264021 34.2338095,13.2079233 33.2985317,12.849914 L36.6860384,2.37808201 L35.9352712,2.13533069 L35.7343651,2.75640212 L27.2140873,0 L25.4318717,5.50986772 L33.9523942,8.26602513 L32.5110582,12.7216865 C31.6903042,12.7576587 30.9485913,13.3104563 30.7129365,14.1444246 C29.5657407,18.2051257 28.7530622,19.5938492 28.3928505,20.0504762 C28.1368849,19.8632738 27.7906217,19.5524934 27.5371032,19.324914 C26.5257209,18.4170437 25.1467857,17.1837103 23.2833267,17.1330556 C23.2133399,17.1252249 23.142619,17.1203307 23.0704299,17.1203307 L13.6160979,17.1203307 C13.5441534,17.1203307 13.4734325,17.1252249 13.4034458,17.1330556 C11.5394974,17.1834656 10.1605622,18.4170437 9.14893519,19.3251587 C8.89541667,19.5527381 8.54915344,19.8637632 8.29318783,20.0507209 C7.93297619,19.5940939 7.12029762,18.2053704 5.97310185,14.1446693 C5.7376918,13.3109458 4.99573413,12.7586376 4.17522487,12.7221759 L2.73388889,8.26626984 L11.2544114,5.50986772 Z" id="Path"></path>
                </g>
            </g>
        </g>
    </g>
</svg>