<?xml version="1.0" encoding="UTF-8"?>
<svg width="54px" height="54px" viewBox="0 0 54 54" version="1.1" xmlns="http://www.w3.org/2000/svg" xmlns:xlink="http://www.w3.org/1999/xlink">
    <!-- Generator: Sketch 55.1 (78136) - https://sketchapp.com -->
    <title>guardian-active</title>
    <desc>Created with Sketch.</desc>
    <defs>
        <linearGradient x1="50%" y1="0%" x2="50%" y2="100%" id="linearGradient-1">
            <stop stop-color="#FFFFFF" offset="0%"></stop>
            <stop stop-color="#4E4E4E" offset="53.9375%"></stop>
            <stop stop-color="#6F6F6F" offset="100%"></stop>
        </linearGradient>
        <circle id="path-2" cx="25" cy="25" r="25"></circle>
    </defs>
    <g id="Page-1" stroke="none" stroke-width="1" fill="none" fill-rule="evenodd">
        <g id="guardian-active" transform="translate(2.000000, 2.000000)">
            <mask id="mask-3" fill="white">
                <use xlink:href="#path-2"></use>
            </mask>
            <g id="Mask">
                <use fill="#101011" fill-rule="evenodd" xlink:href="#path-2"></use>
                <circle stroke="url(#linearGradient-1)" stroke-width="2" cx="25" cy="25" r="26"></circle>
                <use stroke="#E0E0E0" stroke-width="2" xlink:href="#path-2"></use>
            </g>
            <g id="icons8-doctor_fate_helmet_filled" mask="url(#mask-3)" fill="#FFFFFF" fill-rule="nonzero">
                <g transform="translate(10.833333, 13.500000)" id="Shape">
                    <path d="M28.2233333,32.0866667 C28.1983333,32.0433333 26.3225,28.6641667 25.4458333,22.0016667 C22.9783333,29.59 17.5966667,36.0241667 17.3025,36.3716667 C17.1375,36.5666667 16.9033333,36.6666667 16.6666667,36.6666667 C16.4766667,36.6666667 16.285,36.6016667 16.1291667,36.47 C15.7775,36.1725 15.7333333,35.6466667 16.0308333,35.2958333 C16.12,35.1891667 25,24.5733333 25,15 C25,9.89833333 21.3675,5.51583333 16.5041667,4.43333333 L14.94,0.523333333 C14.8133333,0.2075 14.5075,0 14.1666667,0 C13.8258333,0 13.52,0.2075 13.3925,0.523333333 L11.8291667,4.43333333 C6.96583333,5.51583333 3.33333333,9.89833333 3.33333333,15 C3.33333333,24.5833333 12.2133333,35.1891667 12.3025,35.295 C12.6,35.6466667 12.5558333,36.1725 12.205,36.4691667 C12.0483333,36.6016667 11.8575,36.6666667 11.6675,36.6666667 C11.4308333,36.6666667 11.1958333,36.5666667 11.0308333,36.3716667 C10.7366667,36.0241667 5.3525,29.5866667 2.88583333,21.9958333 C2.0075,28.64 0.134166667,32.0441667 0.109166667,32.0883333 C-0.07,32.405 -0.0241666667,32.8025 0.224166667,33.0691667 C0.551666667,33.42 8.31666667,41.6666667 14.1666667,41.6666667 C20.0166667,41.6666667 27.7816667,33.42 28.1091667,33.0683333 C28.3583333,32.8016667 28.4041667,32.4033333 28.2233333,32.0866667 Z M9.16666667,23.3333333 C7.98583333,23.3333333 6.66666667,18.3333333 6.66666667,18.3333333 C6.66666667,18.3333333 11.3191667,19.8608333 12.5,22.5 C12.5,22.5 10.3475,23.3333333 9.16666667,23.3333333 Z M14.1666667,8.23083333 L13.3733333,5.05916667 L14.1666667,3.07666667 L14.96,5.05916667 L14.1666667,8.23083333 Z M21.6666667,18.3333333 C21.6666667,18.3333333 20.3475,23.3333333 19.1666667,23.3333333 C17.9858333,23.3333333 15.8333333,22.5 15.8333333,22.5 C17.0141667,19.8608333 21.6666667,18.3333333 21.6666667,18.3333333 Z"></path>
                </g>
            </g>
        </g>
    </g>
</svg>