<?xml version="1.0" encoding="UTF-8"?>
<svg width="54px" height="54px" viewBox="0 0 54 54" version="1.1" xmlns="http://www.w3.org/2000/svg" xmlns:xlink="http://www.w3.org/1999/xlink">
    <!-- Generator: Sketch 55.1 (78136) - https://sketchapp.com -->
    <title>guardian-normal</title>
    <desc>Created with Sketch.</desc>
    <defs>
        <circle id="path-1" cx="25" cy="25" r="25"></circle>
    </defs>
    <g id="Page-1" stroke="none" stroke-width="1" fill="none" fill-rule="evenodd">
        <g id="guardian-normal" transform="translate(2.000000, 2.000000)">
            <mask id="mask-2" fill="white">
                <use xlink:href="#path-1"></use>
            </mask>
            <g id="Mask">
                <use fill="#FBFBFB" fill-rule="evenodd" xlink:href="#path-1"></use>
                <circle stroke="#000000" stroke-width="2" cx="25" cy="25" r="26"></circle>
                <use stroke="#E0E0E0" stroke-width="2" xlink:href="#path-1"></use>
            </g>
            <g id="icons8-doctor_fate_helmet_filled" mask="url(#mask-2)" fill-rule="nonzero" stroke="#000000" stroke-width="1.5">
                <g transform="translate(10.833333, 13.500000)" id="Shape">
                    <path d="M11.2766124,3.79512991 L12.6970319,0.24257707 C12.939009,-0.356830218 13.5200215,-0.75 14.1666667,-0.75 C14.8138198,-0.75 15.3953322,-0.356188157 15.6363473,0.244764738 L17.0566359,3.79510783 C22.1070934,5.10571114 25.75,9.72715374 25.75,15 C25.75,15.8831689 25.677966,16.7907711 25.5376231,17.7207787 C24.9877585,21.3645562 23.4242932,25.230149 21.1640673,29.1322356 C20.1774211,30.8355958 19.1211834,32.434338 18.0630968,33.8852874 C17.689827,34.3971505 17.3417353,34.8554018 17.0271888,35.2547033 C16.8334671,35.5006236 16.6970034,35.6683045 16.6028573,35.7808988 C16.573724,35.8152549 16.5780954,35.8674046 16.6132112,35.8971118 C16.6285123,35.91004 16.6469783,35.9166667 16.6666667,35.9166667 C16.6918529,35.9166667 16.7132591,35.9069478 16.7300644,35.8870869 C16.9524406,35.6243932 17.3091398,35.18079 17.7544237,34.5936552 C18.4594857,33.6639869 19.1953207,32.6238359 19.9303656,31.4931892 C21.9879422,28.3282231 23.6715507,25.0327804 24.7325935,21.7697423 L25.7571768,18.6188286 L26.1894237,21.9038234 C26.5666613,24.7707569 27.154005,27.2304568 27.8628173,29.2813663 C28.1102405,29.9972721 28.3548728,30.6105362 28.5854685,31.1205122 C28.7222656,31.423047 28.8352204,31.6464378 28.8729725,31.7118748 L28.8746211,31.7147471 C29.2184735,32.3168849 29.1307449,33.0735446 28.65802,33.5794693 C28.3421313,33.9186679 27.8106217,34.4586319 27.131844,35.1038001 C26.0505472,36.1315567 24.884316,37.1485459 23.6686527,38.0918995 C20.1836734,40.7962402 16.9459369,42.4166667 14.1666667,42.4166667 C11.3874349,42.4166667 8.14979605,40.7963162 4.66469486,38.0920147 C3.44912412,37.1487796 2.28301754,36.1319818 1.20152806,35.1041885 C0.523500545,34.4598251 0.000687012854,33.928859 -0.324694817,33.5802939 C-0.795937396,33.0742616 -0.883895233,32.3204675 -0.543525975,31.7188847 C-0.50135347,31.6443799 -0.39106053,31.4245467 -0.2540443,31.1196551 C-0.0234904432,30.6066214 0.221047992,29.9907356 0.468405151,29.2727792 C1.17689953,27.2163679 1.7643236,24.7567659 2.1423021,21.8975414 L2.57612096,18.6159117 L3.59911867,21.7640489 C4.65979475,25.0281362 6.34363087,28.3248793 8.40184664,31.4912481 C9.13711757,32.6223924 9.87321588,33.6630199 10.5785489,34.5931176 C11.024007,35.1805274 11.3809676,35.6244818 11.603373,35.88721 C11.6198277,35.9066563 11.641918,35.9166667 11.6675,35.9166667 C11.6867462,35.9166667 11.7043506,35.9103218 11.7207263,35.8964722 C11.7553537,35.8671911 11.7597321,35.8146492 11.7289337,35.7782409 C11.4351257,35.4295154 10.9063622,34.7587435 10.2574433,33.8687911 C9.19054793,32.4056094 8.12674959,30.7935683 7.13503805,29.0766975 C4.29177442,24.1543828 2.58333333,19.3529118 2.58333333,15 C2.58333333,9.72718335 6.226199,5.10576305 11.2766124,3.79512991 Z M27.5728532,32.4600337 C27.5725892,32.4595494 27.57232,32.4590669 27.5720455,32.4585863 L27.5736941,32.4614585 C27.5734191,32.4609817 27.5731437,32.4605042 27.5728681,32.4600259 Z M9.17189322,22.5833258 C9.19533012,22.5832585 9.21964543,22.5827399 9.24481229,22.5817759 C9.25161363,22.5872773 9.25832381,22.5924253 9.26494044,22.597216 C9.25075849,22.5921778 9.2239951,22.5850089 9.18170184,22.5835833 Z M9.24481229,22.5817759 C9.50753498,22.5717119 9.86305743,22.5130991 10.2808291,22.4124922 C10.5266079,22.3533043 10.7877096,22.2812104 11.058126,22.1990544 C11.1659,22.1663113 11.2729532,22.1326542 11.378616,22.0984284 C10.9140412,21.5074768 10.213139,20.9344498 9.32985354,20.3996633 C8.85320396,20.1110751 8.34824386,19.8482512 7.83609203,19.6132491 C7.94428164,19.9393012 8.05751268,20.2594438 8.17449496,20.5657469 C8.57452684,21.6131793 8.979184,22.366918 9.24481229,22.5817759 Z M14.1597925,5.11255031 L14.136872,5.02091673 L14.1666667,5.09537202 L14.1964613,5.02091673 L14.1735409,5.11255031 L14.2636829,5.3378106 L14.2355433,4.92325276 L14.8629838,3.3553106 L13.4703495,3.3553106 L14.09779,4.92325276 L14.0696505,5.3378106 L14.1597925,5.11255031 Z M14.1666667,5.14003268 L13.4390823,8.04884165 L14.894251,8.04884165 L14.1666667,5.14003268 Z M20.4972413,19.6132491 C19.9850895,19.8482512 19.4801294,20.1110751 19.0034798,20.3996633 C18.1201943,20.9344498 17.4192921,21.5074768 16.9547173,22.0984284 C17.0603801,22.1326542 17.1674334,22.1663113 17.2752073,22.1990544 C17.5456237,22.2812104 17.8067255,22.3533043 18.0525042,22.4124922 C18.4702759,22.5130991 18.8257984,22.5717119 19.088521,22.5817759 C19.3541493,22.366918 19.7588065,21.6131793 20.1588384,20.5657469 C20.2758207,20.2594438 20.3890517,19.9393012 20.4972413,19.6132491 Z"></path>
                </g>
            </g>
        </g>
    </g>
</svg>