<?xml version="1.0" encoding="UTF-8"?>
<svg width="54px" height="54px" viewBox="0 0 54 54" version="1.1" xmlns="http://www.w3.org/2000/svg" xmlns:xlink="http://www.w3.org/1999/xlink">
    <!-- Generator: Sketch 55.1 (78136) - https://sketchapp.com -->
    <title>keep-normal</title>
    <desc>Created with Sketch.</desc>
    <defs>
        <circle id="path-1" cx="25" cy="25" r="25"></circle>
    </defs>
    <g id="Page-1" stroke="none" stroke-width="1" fill="none" fill-rule="evenodd">
        <g id="keep-normal" transform="translate(2.000000, 2.000000)">
            <mask id="mask-2" fill="white">
                <use xlink:href="#path-1"></use>
            </mask>
            <g id="Mask">
                <use fill="#FBFBFB" fill-rule="evenodd" xlink:href="#path-1"></use>
                <circle stroke="#000000" stroke-width="2" cx="25" cy="25" r="26"></circle>
                <use stroke="#E0E0E0" stroke-width="2" xlink:href="#path-1"></use>
            </g>
            <g id="iconfinder_angel_657403" mask="url(#mask-2)" fill-rule="nonzero">
                <g transform="translate(1.000000, 13.000000)">
                    <path d="M24.165,4.5309375 C24.783473,4.5309375 30.20625,4.46750437 30.20625,2.26546875 C30.20625,0.063433125 24.783473,0 24.165,0 C23.546527,0 18.12375,0.063433125 18.12375,2.26546875 C18.12375,4.46750437 23.546527,4.5309375 24.165,4.5309375 Z M24.165,1.5103125 C26.5335476,1.5103125 28.058208,1.95170133 28.5664282,2.26546875 C28.058208,2.57923617 26.5335476,3.020625 24.165,3.020625 C21.7960748,3.020625 20.271792,2.57923617 19.7631942,2.26546875 C20.271792,1.95170133 21.7960748,1.5103125 24.165,1.5103125 Z" id="Shape" stroke="none" fill="#000000"></path>
                    <path d="M46.7529408,10.9970549 C46.5198002,11.2308621 46.242594,11.4889643 45.9179796,11.7673853 C44.4743353,13.0055963 42.539214,14.2354489 40.0453136,15.3769382 C39.771169,15.5024176 39.4912499,15.6263016 39.205431,15.7485498 C36.282535,16.9983755 33.7765424,17.6502327 31.719395,17.8706513 C33.4917304,20.5610048 35.1667179,24.0827159 36.4611209,28.4631954 C36.5247915,28.6784529 36.5880738,28.8993889 36.6537264,29.1350886 C37.7183406,29.2130525 38.6631033,29.1205992 39.3593139,28.8126005 C40.8510264,28.1537842 41.3924838,26.975367 41.152829,25.4109234 L40.9937594,24.3725323 L42.0275266,24.559306 C44.0099603,24.9174781 45.3147958,24.4172925 45.7762432,23.5101066 C46.3737123,22.3353376 46.2314867,21.149808 45.1563468,19.633689 L44.6419069,18.9082467 L45.4437649,18.5236186 C46.9468047,17.8026539 47.592931,16.5390045 47.5795734,14.7854226 C47.5717233,13.7548806 47.3322955,12.6273239 46.9363125,11.4932228 C46.876713,11.3225291 46.8153292,11.156874 46.7529408,10.9970549 Z" id="Path" stroke="#000000" stroke-width="1.5" fill="none"></path>
                    <path d="M11.8692023,28.4633792 C13.1633205,24.0826676 14.8380514,20.5619722 16.6112801,17.8706719 C14.5539625,17.6502998 12.0481505,16.9985446 9.12487505,15.7485193 C8.8405827,15.6269214 8.56206375,15.503678 8.28926024,15.3788566 C5.79360021,14.2369663 3.85718576,13.0066826 2.41264248,11.7680374 C2.08763034,11.4893509 1.81011707,11.2310149 1.57675086,10.997014 C1.5143697,11.1568322 1.45299301,11.3224866 1.39340047,11.4931799 C0.997424175,12.627391 0.758016745,13.7550641 0.75021041,14.7857144 C0.736928604,16.5392769 1.38304331,17.8029704 2.88591945,18.5240259 L3.68766769,18.9086917 L3.17327562,19.6340666 C2.09813113,21.150192 1.9559502,22.3360322 2.55373688,23.510445 C3.01527095,24.4178013 4.31938805,24.917837 6.30171822,24.5596836 L7.33523876,24.3729545 L7.17644149,25.4111336 C6.9371147,26.9757958 7.47863144,28.1541774 8.97059009,28.8131025 C9.66034455,29.1180717 10.6046912,29.2117253 11.6760625,29.1370859 C11.7414064,28.9025614 11.8050965,28.6802404 11.8692023,28.4633792 Z" id="Path" stroke="#000000" stroke-width="1.5" fill="none"></path>
                    <path d="M33.2900174,28.3944348 C32.5507198,26.0760908 31.6825802,23.9968997 30.7287371,22.1576733 C30.2027983,21.1438274 29.6735646,20.2442738 29.1562469,19.458511 C27.73116,20.5380053 25.9936101,21.1392187 24.165,21.1392187 C22.3367557,21.1392187 20.5992659,20.5380301 19.1744214,19.4587903 C18.688486,20.1966734 18.1913981,21.0359641 17.6958694,21.9773452 C16.6314986,23.9997768 15.6715543,26.3167204 14.8750757,28.9255838 C14.8595248,28.9764721 14.8595248,28.9764721 14.8441891,29.0263632 C14.8380891,29.0461952 14.8380891,29.0461952 14.8320296,29.0658926 C14.7931643,29.1923631 14.7770467,29.2454183 14.756096,29.3166484 C14.6996091,29.5077963 14.644122,29.7000174 14.5896276,29.8932902 C13.5533708,33.5685346 12.9014499,37.5080669 12.5617672,41.4959424 C12.3579586,43.8886568 12.290053,45.970259 12.302277,47.58 L36.0277001,47.58 C36.0398768,45.9705441 35.9719602,43.8891923 35.7682034,41.4966853 C35.428556,37.5085546 34.7767462,33.5687419 33.7406909,29.8932403 C33.6862107,29.6999667 33.630738,29.5077446 33.5742123,29.3164138 C33.4914469,29.0360046 33.4036094,28.7519466 33.2900174,28.3944348 Z M33.2900174,28.3944348 C33.289978,28.3943108 33.2899386,28.3941867 33.2898992,28.3940626 L33.2901361,28.3948069 C33.2900965,28.3946828 33.290057,28.3945588 33.2900174,28.3944348 Z" id="Path" stroke="#000000" stroke-width="1.5" fill="none"></path>
                    <path d="M20.0243641,16.1252072 L20.0245713,16.1254683 C20.164792,16.3022538 20.3131546,16.4674044 20.4692504,16.6202489 C21.4536932,17.5818295 22.7654972,18.1289062 24.165,18.1289062 C25.5649229,18.1289062 26.8766781,17.5817992 27.861043,16.6199537 C28.0164313,16.4681263 28.1646669,16.3030345 28.3065593,16.124143 C28.4376947,15.959359 28.5626537,15.7781602 28.6845426,15.5773409 C29.1868672,14.7512884 29.45625,13.8138868 29.45625,12.8376563 C29.45625,9.9155895 27.0870668,7.54640625 24.165,7.54640625 C21.2429332,7.54640625 18.87375,9.9155895 18.87375,12.8376563 C18.87375,13.8136166 19.143349,14.7514365 19.6453645,15.5773233 C19.7681418,15.7786782 19.8934759,15.9603385 20.0243641,16.1252072 Z" id="Path" stroke="#000000" stroke-width="1.5" fill="none"></path>
                </g>
            </g>
        </g>
    </g>
</svg>