<?xml version="1.0" encoding="UTF-8"?>
<svg width="54px" height="54px" viewBox="0 0 54 54" version="1.1" xmlns="http://www.w3.org/2000/svg" xmlns:xlink="http://www.w3.org/1999/xlink">
    <!-- Generator: Sketch 55.1 (78136) - https://sketchapp.com -->
    <title>keeper-active</title>
    <desc>Created with Sketch.</desc>
    <defs>
        <linearGradient x1="50%" y1="0%" x2="50%" y2="100%" id="linearGradient-1">
            <stop stop-color="#FFFFFF" offset="0%"></stop>
            <stop stop-color="#4E4E4E" offset="53.9375%"></stop>
            <stop stop-color="#6F6F6F" offset="100%"></stop>
        </linearGradient>
        <circle id="path-2" cx="25" cy="25" r="25"></circle>
    </defs>
    <g id="Page-1" stroke="none" stroke-width="1" fill="none" fill-rule="evenodd">
        <g id="keeper-active" transform="translate(2.000000, 2.000000)">
            <mask id="mask-3" fill="white">
                <use xlink:href="#path-2"></use>
            </mask>
            <g id="Mask">
                <use fill="#101011" fill-rule="evenodd" xlink:href="#path-2"></use>
                <circle stroke="url(#linearGradient-1)" stroke-width="2" cx="25" cy="25" r="26"></circle>
                <use stroke="#E0E0E0" stroke-width="2" xlink:href="#path-2"></use>
            </g>
            <g id="iconfinder_angel_657403" mask="url(#mask-3)" fill="#FFFFFF" fill-rule="nonzero">
                <g transform="translate(1.000000, 13.000000)">
                    <path d="M24.165,4.5309375 C24.783473,4.5309375 30.20625,4.46750437 30.20625,2.26546875 C30.20625,0.063433125 24.783473,0 24.165,0 C23.546527,0 18.12375,0.063433125 18.12375,2.26546875 C18.12375,4.46750437 23.546527,4.5309375 24.165,4.5309375 Z M24.165,1.5103125 C26.5335476,1.5103125 28.058208,1.95170133 28.5664282,2.26546875 C28.058208,2.57923617 26.5335476,3.020625 24.165,3.020625 C21.7960748,3.020625 20.271792,2.57923617 19.7631942,2.26546875 C20.271792,1.95170133 21.7960748,1.5103125 24.165,1.5103125 Z" id="Shape"></path>
                    <path d="M46.9590138,9.60860812 C46.9590138,9.60860812 45.1262496,12.4004208 38.9105585,15.0589484 C34.6420378,16.884161 31.7022145,17.1854684 30.3459539,17.2066127 C31.6240559,18.9532891 33.9816537,22.7188758 35.7419229,28.6759259 C35.8559515,29.0614331 35.9631837,29.447318 36.0670177,29.8320701 C37.1287673,29.9570484 38.5579005,29.9872547 39.6623166,29.4986686 C41.674808,28.6098497 42.1445152,26.9315149 41.8941809,25.2973568 C44.4417005,25.7576245 45.9123673,24.8967464 46.4447524,23.8500998 C47.1270361,22.5085648 47.0688891,21.0341222 45.7681324,19.1998477 C50.7272435,16.8211055 46.9590138,9.60860812 46.9590138,9.60860812 Z" id="Path"></path>
                    <path d="M12.5884547,28.6759259 C14.3483463,22.7184982 16.7066993,18.9532891 17.9848013,17.2066127 C16.6289182,17.1854684 13.6890949,16.8845386 9.41981906,15.0589484 C3.20337281,12.4000432 1.37060859,9.60860812 1.37060859,9.60860812 C1.37060859,9.60860812 -2.39724352,16.8211055 2.56149,19.2002252 C1.26073336,21.0344998 1.20258633,22.5093199 1.88524758,23.8504774 C2.41763273,24.897124 3.88754437,25.7580021 6.43506398,25.2977344 C6.18510727,26.9318925 6.65481445,28.6102273 8.66730586,29.4990462 C9.76039453,29.9823462 11.1876398,29.9578036 12.2622272,29.8362234 C12.3664388,29.4495834 12.4740485,29.0629434 12.5884547,28.6759259 Z" id="Path"></path>
                    <path d="M34.0046859,28.1669505 C33.1826984,25.5892247 32.2572544,23.4759199 31.3944884,21.8123107 C30.6008191,20.2823641 29.8626539,19.1333939 29.3083692,18.3514296 C27.9581498,19.6114078 26.1529488,20.3892187 24.165,20.3892187 C22.1774287,20.3892187 20.3722277,19.6114078 19.0223859,18.3518072 C18.4903784,19.1020549 17.7892158,20.1898575 17.0321716,21.6280526 C16.0833178,23.4309881 15.0498865,25.7844326 14.1576694,28.7068873 C14.1172685,28.8394172 14.0764901,28.9693041 14.0368444,29.1040995 C11.2261528,38.6152924 11.5648404,48.33 11.5648404,48.33 L36.7651596,48.33 C36.7651596,48.33 37.1034696,38.6152924 34.2935332,29.1040995 C34.1991387,28.7842908 34.1021011,28.473544 34.0046859,28.1669505 Z" id="Path"></path>
                    <path d="M19.4369667,16.591538 C19.5947944,16.7905216 19.7639494,16.9793107 19.9451869,17.1567724 C21.0344998,18.2207876 22.5221576,18.8789062 24.165,18.8789062 C25.80822,18.8789062 27.2958778,18.2207876 28.3851907,17.1563948 C28.5664282,16.9793107 28.7355832,16.7901441 28.8934109,16.5911604 C29.0508609,16.3933095 29.1935855,16.1841312 29.3253602,15.9670238 C29.8807777,15.0536623 30.20625,13.9851162 30.20625,12.8376563 C30.20625,9.50137594 27.5012803,6.79640625 24.165,6.79640625 C20.8287197,6.79640625 18.12375,9.50137594 18.12375,12.8376563 C18.12375,13.9851162 18.4495999,15.0540398 19.0050173,15.9677789 C19.1371697,16.1845087 19.2798942,16.393687 19.4369667,16.591538 Z" id="Path"></path>
                </g>
            </g>
        </g>
    </g>
</svg>