<?xml version="1.0" encoding="UTF-8"?>
<svg width="51px" height="50px" viewBox="0 0 51 50" version="1.1" xmlns="http://www.w3.org/2000/svg" xmlns:xlink="http://www.w3.org/1999/xlink">
    <!-- Generator: Sketch 60.1 (88133) - https://sketch.com -->
    <title>Games</title>
    <desc>Created with Sketch.</desc>
    <g id="Page-1" stroke="none" stroke-width="1" fill="none" fill-rule="evenodd">
        <g id="Create-tokens-Copy" transform="translate(-537.000000, -1413.000000)">
            <g id="Games" transform="translate(537.000000, 1413.000000)">
                <path d="M11.6600791,4.743083 C9.28853755,5.23715415 6.71936759,7.60869565 6.02766798,9.98023715 L0.889328063,26.6798419 C0.197628458,29.0513834 0.988142292,32.4110672 2.56916996,34.1897233 L14.5256917,47.0355731 C16.2055336,48.8142292 19.5652174,49.8023715 21.9367589,49.2094862 L38.9328063,45.256917 C41.3043478,44.7628458 43.8735178,42.3913043 44.5652174,40.0197628 L49.7035573,23.3201581 C50.3952569,20.9486166 49.6047431,17.5889328 48.0237154,15.8102767 L36.0671937,2.96442688 C34.3873518,1.18577075 31.027668,0.197628458 28.6561265,0.790513834 L11.6600791,4.743083 Z" id="Path" fill="#FFFFFF"></path>
                <path d="M11.7588933,5.33596838 C10.6719368,5.53359684 9.58498024,6.22529644 8.59683794,7.11462451 C7.70750988,8.00395257 6.91699605,9.09090909 6.62055336,10.0790514 L1.48221344,26.8774704 C1.18577075,27.9644269 1.18577075,29.2490119 1.48221344,30.5335968 C1.77865613,31.7193676 2.27272727,32.9051383 3.06324111,33.7944664 L15.0197628,46.541502 C15.8102767,47.43083 16.8972332,48.0237154 18.1818182,48.4189723 C19.3675889,48.8142292 20.6521739,48.9130435 21.7391304,48.6166008 L38.8339921,44.6640316 C39.9209486,44.4664032 41.0079051,43.7747036 41.9960474,42.8853755 C42.8853755,41.9960474 43.6758893,40.9090909 43.972332,39.9209486 L49.1106719,23.1225296 C49.4071146,22.0355731 49.4071146,20.7509881 49.1106719,19.4664032 C48.8142292,18.2806324 48.3201581,17.0948617 47.5296443,16.2055336 L35.5731225,3.45849802 C34.7826087,2.56916996 33.6956522,1.97628458 32.4110672,1.58102767 C31.2252964,1.18577075 29.9407115,1.08695652 28.8537549,1.38339921 L11.7588933,5.33596838 Z M7.80632411,6.22529644 C8.89328063,5.23715415 10.1778656,4.44664032 11.4624506,4.15019763 L28.5573123,0.197628458 C29.8418972,-0.0988142292 31.4229249,-3.71230824e-16 32.8063241,0.395256917 C34.1897233,0.889328063 35.5731225,1.58102767 36.4624506,2.56916996 L48.4189723,15.4150198 C49.3083004,16.4031621 50,17.7865613 50.2964427,19.2687747 C50.6916996,20.6521739 50.6916996,22.2332016 50.2964427,23.5177866 L45.1581028,40.2173913 C44.7628458,41.5019763 43.8735178,42.7865613 42.7865613,43.7747036 C41.6996047,44.8616601 40.4150198,45.5533597 39.1304348,45.8498024 L22.0355731,49.8023715 C20.7509881,50.0988142 19.1699605,50 17.7865613,49.6047431 C16.4031621,49.1106719 15.0197628,48.4189723 14.1304348,47.43083 L2.17391304,34.5849802 C1.28458498,33.5968379 0.592885375,32.2134387 0.296442688,30.7312253 C-0.0988142292,29.3478261 -0.0988142292,27.7667984 0.296442688,26.4822134 L5.43478261,9.7826087 C5.83003953,8.49802372 6.71936759,7.21343874 7.80632411,6.22529644 Z" id="Shape" fill="#2C3944" fill-rule="nonzero"></path>
                <path d="M22.7272727,22.3320158 C21.9367589,23.0237154 21.0474308,23.5177866 20.1581028,23.715415 L5.23715415,27.173913 C4.54545455,27.3715415 4.0513834,27.2727273 3.75494071,27.0750988 C3.55731225,26.7786561 3.45849802,26.284585 3.65612648,25.5928854 L8.20158103,10.8695652 C8.39920949,10.0790514 8.99209486,9.18972332 9.88142292,8.39920949 C10.6719368,7.70750988 11.5612648,7.11462451 12.4505929,6.91699605 L27.3715415,3.45849802 C28.0632411,3.35968379 28.5573123,3.35968379 28.8537549,3.65612648 C29.0513834,3.95256917 29.1501976,4.44664032 28.9525692,5.13833992 L24.4071146,19.8616601 C24.1106719,20.6521739 23.5177866,21.541502 22.7272727,22.3320158 Z" id="Path" fill="#25CDD6"></path>
                <path d="M37.6482213,43.1818182 C37.4505929,43.3794466 37.055336,43.4782609 36.6600791,43.5770751 L21.4426877,47.1343874 C19.6640316,47.5296443 17.1936759,46.7391304 15.9090909,45.4545455 L5.23715415,33.9920949 C4.94071146,33.6956522 4.34782609,32.9051383 4.94071146,32.312253 C5.13833992,32.1146245 5.53359684,32.0158103 5.92885375,31.916996 L21.1462451,28.3596838 C22.9249012,27.9644269 25.4940711,28.7549407 26.6798419,30.0395257 L37.3517787,41.5019763 C37.6482213,41.8972332 37.8458498,42.1936759 37.944664,42.5889328 C37.944664,42.7865613 37.8458498,42.9841897 37.6482213,43.1818182 Z" id="Path" fill="#E4EEEF"></path>
                <path d="M23.2213439,22.7272727 C22.7272727,23.1225296 22.2332016,23.5177866 21.8379447,23.715415 C21.3438735,24.0118577 20.8498024,24.2094862 20.3557312,24.3083004 L5.33596838,27.8656126 C4.94071146,27.8656126 4.54545455,27.9644269 4.24901186,27.8656126 C3.85375494,27.8656126 3.55731225,27.6679842 3.35968379,27.4703557 C3.06324111,27.173913 2.96442688,26.8774704 2.96442688,26.4822134 L2.96442688,26.4822134 C2.96442688,26.1857708 2.96442688,25.7905138 3.06324111,25.3952569 L3.06324111,25.3952569 L7.60869565,10.6719368 C7.70750988,10.2766798 8.00395257,9.7826087 8.30039526,9.28853755 C8.59683794,8.7944664 8.99209486,8.39920949 9.38735178,8.00395257 C9.88142292,7.60869565 10.2766798,7.21343874 10.770751,6.91699605 C11.2648221,6.62055336 11.7588933,6.4229249 12.2529644,6.32411067 L27.2727273,2.86561265 C27.6679842,2.76679842 28.0632411,2.76679842 28.3596838,2.76679842 C28.7549407,2.86561265 29.0513834,2.96442688 29.2490119,3.26086957 C29.5454545,3.45849802 29.6442688,3.85375494 29.6442688,4.24901186 C29.6442688,4.54545455 29.6442688,4.94071146 29.5454545,5.23715415 L29.5454545,5.23715415 L25,19.9604743 C24.9011858,20.4545455 24.6047431,20.9486166 24.3083004,21.4426877 C24.0118577,21.9367589 23.6166008,22.3320158 23.2213439,22.7272727 Z M21.1462451,22.7272727 C21.541502,22.43083 21.9367589,22.1343874 22.3320158,21.8379447 C22.7272727,21.541502 23.0237154,21.1462451 23.3201581,20.7509881 C23.5177866,20.3557312 23.715415,19.9604743 23.8142292,19.6640316 L28.3596838,4.94071146 L28.3596838,4.94071146 C28.3596838,4.64426877 28.458498,4.44664032 28.458498,4.24901186 C28.458498,4.15019763 28.3596838,4.15019763 28.3596838,4.0513834 C28.3596838,4.0513834 28.2608696,4.0513834 28.1620553,4.0513834 C28.0632411,4.0513834 27.7667984,4.0513834 27.56917,4.0513834 L12.5494071,7.50988142 C12.1541502,7.60869565 11.7588933,7.80632411 11.4624506,8.00395257 C11.0671937,8.20158103 10.6719368,8.49802372 10.2766798,8.89328063 C9.88142292,9.18972332 9.58498024,9.58498024 9.28853755,9.98023715 C9.09090909,10.3754941 8.89328063,10.6719368 8.7944664,11.0671937 L4.24901186,25.7905138 L4.24901186,25.7905138 C4.15019763,25.9881423 4.15019763,26.284585 4.15019763,26.3833992 L4.15019763,26.3833992 C4.15019763,26.4822134 4.24901186,26.5810277 4.24901186,26.5810277 C4.24901186,26.6798419 4.34782609,26.6798419 4.44664032,26.6798419 C4.54545455,26.6798419 4.84189723,26.6798419 5.03952569,26.5810277 L20.0592885,23.1225296 C20.4545455,23.0237154 20.8498024,22.9249012 21.1462451,22.7272727 Z" id="Shape" fill="#2C3944" fill-rule="nonzero"></path>
                <path d="M38.0434783,43.5770751 C37.944664,43.7747036 37.7470356,43.8735178 37.4505929,43.972332 C37.2529644,44.0711462 37.055336,44.1699605 36.8577075,44.1699605 L21.6403162,47.7272727 C20.6521739,47.9249012 19.4664032,47.826087 18.2806324,47.5296443 C17.1936759,47.1343874 16.1067194,46.541502 15.4150198,45.8498024 L4.84189723,34.3873518 C4.64426877,34.1897233 4.24901186,33.6956522 4.15019763,33.201581 C4.0513834,32.7075099 4.15019763,32.312253 4.54545455,31.916996 C4.743083,31.7193676 4.84189723,31.6205534 5.13833992,31.5217391 C5.33596838,31.4229249 5.53359684,31.3241107 5.83003953,31.3241107 L20.9486166,27.7667984 L20.9486166,27.7667984 C21.9367589,27.56917 23.1225296,27.6679842 24.3083004,27.9644269 C25.3952569,28.3596838 26.4822134,28.9525692 27.173913,29.6442688 L37.7470356,41.0079051 C37.944664,41.3043478 38.1422925,41.5019763 38.2411067,41.6996047 C38.4387352,41.9960474 38.5375494,42.2924901 38.5375494,42.4901186 L38.5375494,42.4901186 C38.5375494,42.687747 38.5375494,42.8853755 38.4387352,43.083004 C38.3399209,43.2806324 38.2411067,43.4782609 38.0434783,43.5770751 Z M36.9565217,42.8853755 C37.055336,42.7865613 37.1541502,42.7865613 37.2529644,42.687747 C37.2529644,42.687747 37.2529644,42.687747 37.2529644,42.5889328 C37.2529644,42.5889328 37.2529644,42.5889328 37.2529644,42.5889328 L37.2529644,42.5889328 C37.2529644,42.4901186 37.2529644,42.3913043 37.1541502,42.2924901 C37.1541502,42.1936759 37.055336,41.9960474 36.8577075,41.8972332 L26.284585,30.5335968 C25.6916996,29.9407115 24.8023715,29.4466403 23.9130435,29.1501976 C23.0237154,28.8537549 22.0355731,28.7549407 21.2450593,28.9525692 L21.2450593,28.9525692 L6.02766798,32.5098814 C5.92885375,32.5098814 5.7312253,32.6086957 5.63241107,32.6086957 C5.53359684,32.7075099 5.43478261,32.7075099 5.33596838,32.8063241 C5.33596838,32.8063241 5.33596838,32.9051383 5.33596838,32.9051383 C5.33596838,33.201581 5.63241107,33.3992095 5.7312253,33.5968379 L16.4031621,44.9604743 C16.8972332,45.5533597 17.7865613,46.0474308 18.6758893,46.3438735 C19.5652174,46.6403162 20.5533597,46.7391304 21.3438735,46.541502 L36.5612648,42.9841897 C36.6600791,42.9841897 36.8577075,42.8853755 36.9565217,42.8853755 Z" id="Shape" fill="#2C3944" fill-rule="nonzero"></path>
                <path d="M42.2924901,38.4387352 C41.6996047,38.9328063 41.0079051,38.3399209 40.7114625,38.0434783 L30.2371542,26.7786561 C29.0513834,25.4940711 28.458498,22.9249012 28.9525692,21.2450593 L33.4980237,6.52173913 C33.5968379,6.12648221 33.7944664,5.83003953 33.9920949,5.63241107 C34.5849802,5.03952569 35.2766798,5.7312253 35.5731225,6.02766798 L46.0474308,17.2924901 C47.2332016,18.5770751 47.826087,21.1462451 47.3320158,22.826087 L42.8853755,37.5494071 C42.687747,37.944664 42.5889328,38.2411067 42.2924901,38.4387352 Z" id="Path" fill="#FFFFFF"></path>
                <path d="M42.7865613,38.8339921 C42.2924901,39.229249 41.8972332,39.3280632 41.4031621,39.229249 C40.9090909,39.0316206 40.513834,38.6363636 40.2173913,38.4387352 L29.8418972,27.173913 C29.1501976,26.4822134 28.6561265,25.3952569 28.3596838,24.3083004 C28.0632411,23.2213439 28.0632411,22.0355731 28.3596838,21.0474308 L28.3596838,21.0474308 L32.9051383,6.4229249 C32.9051383,6.12648221 33.0039526,5.92885375 33.1027668,5.7312253 C33.3003953,5.53359684 33.3992095,5.33596838 33.4980237,5.13833992 C34.0909091,4.64426877 34.6837945,4.743083 35.1778656,4.94071146 C35.5731225,5.13833992 35.8695652,5.43478261 36.0671937,5.63241107 L36.0671937,5.63241107 L36.0671937,5.63241107 L36.0671937,5.63241107 L46.4426877,16.8972332 C47.1343874,17.5889328 47.7272727,18.6758893 47.9249012,19.7628458 C48.2213439,20.8498024 48.2213439,22.0355731 47.9249012,23.0237154 L43.4782609,37.6482213 C43.3794466,37.944664 43.2806324,38.1422925 43.1818182,38.3399209 C43.083004,38.5375494 42.8853755,38.7351779 42.7865613,38.8339921 Z M41.798419,38.0434783 C41.798419,38.0434783 41.8972332,38.0434783 41.8972332,37.944664 C41.9960474,37.944664 41.9960474,37.8458498 42.0948617,37.7470356 C42.1936759,37.6482213 42.1936759,37.4505929 42.2924901,37.3517787 L46.7391304,22.7272727 C46.9367589,21.9367589 46.9367589,20.9486166 46.7391304,20.0592885 C46.541502,19.1699605 46.1462451,18.2806324 45.5533597,17.687747 L35.1778656,6.52173913 L35.1778656,6.52173913 L35.1778656,6.52173913 L35.1778656,6.52173913 C34.9802372,6.32411067 34.8814229,6.22529644 34.5849802,6.12648221 C34.5849802,6.02766798 34.486166,6.02766798 34.3873518,6.12648221 C34.2885375,6.12648221 34.2885375,6.22529644 34.1897233,6.32411067 C34.1897233,6.4229249 34.0909091,6.62055336 34.0909091,6.71936759 L29.5454545,21.3438735 L29.5454545,21.4426877 C29.3478261,22.1343874 29.3478261,23.1225296 29.5454545,24.0118577 C29.743083,24.9011858 30.1383399,25.7905138 30.7312253,26.3833992 L41.2055336,37.5494071 C41.3043478,37.7470356 41.5019763,37.944664 41.798419,38.0434783 Z" id="Shape" fill="#2C3944" fill-rule="nonzero"></path>
                <path d="M15.3162055,13.0434783 C16.5019763,13.0434783 17.3913043,13.9328063 17.3913043,15.0197628 C17.3913043,16.2055336 16.5019763,17.0948617 15.3162055,17.0948617 C14.229249,17.0948617 13.3399209,16.2055336 13.3399209,15.0197628 C13.3399209,13.9328063 14.229249,13.0434783 15.3162055,13.0434783 Z" id="Path" fill="#FFFFFF"></path>
                <path d="M15.3162055,12.3517787 C16.1067194,12.3517787 16.6996047,12.6482213 17.1936759,13.1422925 L17.1936759,13.1422925 C17.687747,13.6363636 17.9841897,14.3280632 17.9841897,15.0197628 C17.9841897,15.8102767 17.687747,16.4031621 17.1936759,16.8972332 L17.1936759,16.8972332 C16.6996047,17.3913043 16.1067194,17.687747 15.3162055,17.687747 C14.6245059,17.687747 13.9328063,17.3913043 13.4387352,16.8972332 L13.4387352,16.8972332 C12.944664,16.4031621 12.6482213,15.8102767 12.6482213,15.0197628 C12.6482213,14.3280632 12.944664,13.6363636 13.4387352,13.1422925 L13.4387352,13.1422925 C13.9328063,12.6482213 14.6245059,12.3517787 15.3162055,12.3517787 Z M16.3043478,14.0316206 C16.1067194,13.7351779 15.7114625,13.6363636 15.3162055,13.6363636 C14.9209486,13.6363636 14.6245059,13.7351779 14.3280632,14.0316206 C14.1304348,14.3280632 13.9328063,14.6245059 13.9328063,15.0197628 C13.9328063,15.4150198 14.1304348,15.8102767 14.3280632,16.0079051 C14.6245059,16.3043478 14.9209486,16.5019763 15.3162055,16.5019763 C15.7114625,16.5019763 16.1067194,16.3043478 16.3043478,16.0079051 C16.6007905,15.8102767 16.798419,15.4150198 16.798419,15.0197628 C16.798419,14.6245059 16.6007905,14.3280632 16.3043478,14.0316206 Z" id="Shape" fill="#2C3944" fill-rule="nonzero"></path>
                <path d="M16.5019763,35.1778656 C17.5889328,35.1778656 18.4782609,36.0671937 18.4782609,37.1541502 C18.4782609,38.3399209 17.5889328,39.229249 16.5019763,39.229249 C15.3162055,39.229249 14.4268775,38.3399209 14.4268775,37.1541502 C14.4268775,36.0671937 15.3162055,35.1778656 16.5019763,35.1778656 Z" id="Path" fill="#FFFFFF"></path>
                <path d="M16.5019763,34.486166 C17.1936759,34.486166 17.8853755,34.7826087 18.3794466,35.2766798 L18.3794466,35.2766798 C18.7747036,35.770751 19.0711462,36.4624506 19.0711462,37.1541502 C19.0711462,37.944664 18.7747036,38.5375494 18.3794466,39.0316206 L18.3794466,39.0316206 C17.8853755,39.5256917 17.1936759,39.8221344 16.5019763,39.8221344 C15.7114625,39.8221344 15.0197628,39.5256917 14.6245059,39.0316206 L14.6245059,39.0316206 C14.1304348,38.5375494 13.8339921,37.944664 13.8339921,37.1541502 C13.8339921,36.4624506 14.1304348,35.770751 14.6245059,35.2766798 L14.6245059,35.2766798 C15.0197628,34.7826087 15.7114625,34.486166 16.5019763,34.486166 Z M17.4901186,36.1660079 L17.4901186,36.1660079 C17.1936759,35.9683794 16.798419,35.770751 16.5019763,35.770751 C16.1067194,35.770751 15.7114625,35.9683794 15.4150198,36.1660079 L15.4150198,36.1660079 C15.2173913,36.4624506 15.0197628,36.7588933 15.0197628,37.1541502 C15.0197628,37.5494071 15.2173913,37.944664 15.4150198,38.2411067 L15.4150198,38.2411067 C15.7114625,38.4387352 16.1067194,38.6363636 16.5019763,38.6363636 C16.798419,38.6363636 17.1936759,38.4387352 17.4901186,38.2411067 L17.4901186,38.2411067 C17.687747,37.944664 17.8853755,37.5494071 17.8853755,37.1541502 C17.8853755,36.7588933 17.687747,36.4624506 17.4901186,36.1660079 Z" id="Shape" fill="#2C3944" fill-rule="nonzero"></path>
                <path d="M22.0355731,39.6245059 C23.1225296,39.6245059 24.0118577,40.513834 24.0118577,41.6007905 C24.0118577,42.7865613 23.1225296,43.6758893 22.0355731,43.6758893 C20.8498024,43.6758893 19.9604743,42.7865613 19.9604743,41.6007905 C19.9604743,40.513834 20.8498024,39.6245059 22.0355731,39.6245059 Z" id="Path" fill="#FFFFFF"></path>
                <path d="M22.0355731,38.9328063 C22.7272727,38.9328063 23.4189723,39.229249 23.9130435,39.7233202 L23.9130435,39.7233202 C24.3083004,40.2173913 24.6047431,40.9090909 24.6047431,41.6007905 C24.6047431,42.3913043 24.3083004,42.9841897 23.9130435,43.4782609 L23.9130435,43.4782609 C23.4189723,43.972332 22.7272727,44.2687747 22.0355731,44.2687747 C21.2450593,44.2687747 20.5533597,43.972332 20.1581028,43.4782609 L20.1581028,43.4782609 C19.6640316,42.9841897 19.3675889,42.3913043 19.3675889,41.6007905 C19.3675889,40.9090909 19.6640316,40.2173913 20.1581028,39.7233202 L20.1581028,39.7233202 C20.5533597,39.229249 21.2450593,38.9328063 22.0355731,38.9328063 Z M23.0237154,40.6126482 C22.7272727,40.3162055 22.43083,40.2173913 22.0355731,40.2173913 C21.6403162,40.2173913 21.2450593,40.3162055 20.9486166,40.6126482 C20.7509881,40.9090909 20.5533597,41.2055336 20.5533597,41.6007905 C20.5533597,41.9960474 20.7509881,42.3913043 20.9486166,42.5889328 C21.2450593,42.8853755 21.6403162,43.083004 22.0355731,43.083004 C22.43083,43.083004 22.7272727,42.8853755 23.0237154,42.5889328 C23.2213439,42.3913043 23.4189723,41.9960474 23.4189723,41.6007905 C23.4189723,41.2055336 23.2213439,40.9090909 23.0237154,40.6126482 Z" id="Shape" fill="#2C3944" fill-rule="nonzero"></path>
                <path d="M35.2766798,18.5770751 C36.3636364,18.5770751 37.3517787,19.4664032 37.3517787,20.5533597 C37.3517787,21.7391304 36.3636364,22.6284585 35.2766798,22.6284585 C34.1897233,22.6284585 33.201581,21.7391304 33.201581,20.5533597 C33.201581,19.4664032 34.1897233,18.5770751 35.2766798,18.5770751 Z" id="Path" fill="#FFFFFF"></path>
                <path d="M35.2766798,17.8853755 C35.9683794,17.8853755 36.6600791,18.1818182 37.1541502,18.6758893 L37.1541502,18.6758893 C37.6482213,19.1699605 37.944664,19.8616601 37.944664,20.5533597 C37.944664,21.3438735 37.6482213,21.9367589 37.1541502,22.43083 L37.1541502,22.43083 C36.6600791,22.9249012 35.9683794,23.2213439 35.2766798,23.2213439 C34.5849802,23.2213439 33.8932806,22.9249012 33.3992095,22.43083 L33.3992095,22.43083 C32.9051383,21.9367589 32.6086957,21.3438735 32.6086957,20.5533597 C32.6086957,19.8616601 32.9051383,19.1699605 33.3992095,18.6758893 L33.3992095,18.6758893 C33.8932806,18.1818182 34.5849802,17.8853755 35.2766798,17.8853755 Z M36.2648221,19.5652174 C36.0671937,19.3675889 35.6719368,19.1699605 35.2766798,19.1699605 C34.8814229,19.1699605 34.486166,19.3675889 34.2885375,19.5652174 C33.9920949,19.8616601 33.8932806,20.1581028 33.8932806,20.5533597 C33.8932806,20.9486166 33.9920949,21.3438735 34.2885375,21.541502 C34.486166,21.8379447 34.8814229,22.0355731 35.2766798,22.0355731 C35.6719368,22.0355731 36.0671937,21.8379447 36.2648221,21.541502 C36.5612648,21.3438735 36.6600791,20.9486166 36.6600791,20.5533597 C36.6600791,20.1581028 36.5612648,19.8616601 36.2648221,19.5652174 Z" id="Shape" fill="#2C3944" fill-rule="nonzero"></path>
                <path d="M23.1225296,32.9051383 C24.2094862,32.9051383 25.0988142,33.8932806 25.0988142,34.9802372 C25.0988142,36.0671937 24.2094862,37.055336 23.1225296,37.055336 C21.9367589,37.055336 21.0474308,36.0671937 21.0474308,34.9802372 C21.0474308,33.8932806 21.9367589,32.9051383 23.1225296,32.9051383 Z" id="Path" fill="#FFFFFF"></path>
                <path d="M23.1225296,32.312253 C23.8142292,32.312253 24.5059289,32.6086957 25,33.1027668 L25,33.1027668 C25.4940711,33.5968379 25.7905138,34.2885375 25.7905138,34.9802372 C25.7905138,35.6719368 25.4940711,36.3636364 25,36.8577075 L25,36.8577075 C24.5059289,37.3517787 23.8142292,37.6482213 23.1225296,37.6482213 C22.3320158,37.6482213 21.7391304,37.3517787 21.2450593,36.8577075 L21.2450593,36.8577075 C20.7509881,36.3636364 20.4545455,35.6719368 20.4545455,34.9802372 C20.4545455,34.2885375 20.7509881,33.5968379 21.2450593,33.1027668 L21.2450593,33.1027668 C21.7391304,32.6086957 22.3320158,32.312253 23.1225296,32.312253 Z M24.1106719,33.9920949 C23.8142292,33.6956522 23.5177866,33.5968379 23.1225296,33.5968379 C22.7272727,33.5968379 22.3320158,33.6956522 22.1343874,33.9920949 C21.8379447,34.1897233 21.6403162,34.5849802 21.6403162,34.9802372 C21.6403162,35.3754941 21.8379447,35.770751 22.1343874,35.9683794 C22.3320158,36.2648221 22.7272727,36.3636364 23.1225296,36.3636364 C23.5177866,36.3636364 23.8142292,36.2648221 24.1106719,35.9683794 C24.4071146,35.770751 24.5059289,35.3754941 24.5059289,34.9802372 C24.5059289,34.5849802 24.4071146,34.1897233 24.1106719,33.9920949 Z" id="Shape" fill="#2C3944" fill-rule="nonzero"></path>
                <path d="M40.8102767,22.9249012 C41.8972332,22.9249012 42.8853755,23.9130435 42.8853755,25 C42.8853755,26.1857708 41.8972332,27.0750988 40.8102767,27.0750988 C39.7233202,27.0750988 38.7351779,26.1857708 38.7351779,25 C38.7351779,23.9130435 39.7233202,22.9249012 40.8102767,22.9249012 Z" id="Path" fill="#FFFFFF"></path>
                <path d="M40.8102767,22.3320158 C41.5019763,22.3320158 42.1936759,22.6284585 42.687747,23.1225296 L42.687747,23.1225296 C43.1818182,23.6166008 43.4782609,24.3083004 43.4782609,25 C43.4782609,25.7905138 43.1818182,26.3833992 42.687747,26.8774704 L42.687747,26.8774704 C42.1936759,27.3715415 41.5019763,27.6679842 40.8102767,27.6679842 C40.1185771,27.6679842 39.4268775,27.3715415 38.9328063,26.8774704 L38.9328063,26.8774704 C38.4387352,26.3833992 38.1422925,25.7905138 38.1422925,25 C38.1422925,24.3083004 38.4387352,23.6166008 38.9328063,23.1225296 L38.9328063,23.1225296 C39.4268775,22.6284585 40.1185771,22.3320158 40.8102767,22.3320158 Z M41.798419,24.0118577 C41.6007905,23.715415 41.2055336,23.6166008 40.8102767,23.6166008 C40.4150198,23.6166008 40.0197628,23.715415 39.8221344,24.0118577 C39.5256917,24.3083004 39.4268775,24.6047431 39.4268775,25 C39.4268775,25.3952569 39.5256917,25.7905138 39.8221344,25.9881423 C40.0197628,26.284585 40.4150198,26.3833992 40.8102767,26.3833992 C41.2055336,26.3833992 41.6007905,26.284585 41.798419,25.9881423 C42.0948617,25.7905138 42.1936759,25.3952569 42.1936759,25 C42.1936759,24.6047431 42.0948617,24.3083004 41.798419,24.0118577 Z" id="Shape" fill="#2C3944" fill-rule="nonzero"></path>
            </g>
        </g>
    </g>
</svg>