<?xml version="1.0" encoding="UTF-8"?>
<svg width="60px" height="60px" viewBox="0 0 60 60" version="1.1" xmlns="http://www.w3.org/2000/svg" xmlns:xlink="http://www.w3.org/1999/xlink">
    <!-- Generator: Sketch 56 (81588) - https://sketch.com -->
    <title>iconfinder_exchange-money-coin_2946212</title>
    <desc>Created with Sketch.</desc>
    <g id="Page-1" stroke="none" stroke-width="1" fill="none" fill-rule="evenodd">
        <g id="Create-tokens" transform="translate(-486.000000, -3064.000000)">
            <g id="iconfinder_exchange-money-coin_2946212" transform="translate(486.000000, 3065.000000)">
                <g id="Layer_1_copy" fill-rule="nonzero">
                    <polygon id="Path" fill="#F3F7F7" points="18 6 13 8 11 10 9.244 13.125 13 14 19 13 23 14 23.109 18.125 18 18 9 19 5 25 0 25 0 11.29 6 5 20 0 25 5 18 5"></polygon>
                    <polygon id="Path" fill="#F3F7F7" points="42 39 47 41 49 43 50.756 46.125 47 47 41 46 37 47 36.891 51.125 42 51 51 52 55 58 60 58 60 44.29 54 38 40 33 35 38 42 38"></polygon>
                    <path d="M44.668,51.5 C41.8856171,56.9018309 35.504642,59.3713933 29.8106561,57.2500832 C24.1166702,55.1287732 20.9069283,49.086163 22.3371528,43.1805817 C23.7673772,37.2750005 29.3861305,33.3704913 35.4197537,34.0893949 C41.4533769,34.8082986 45.9974117,39.9236997 46,46 C46,46.2226667 45.994,46.4443333 45.982,46.665" id="Path" fill="#4EC3C7"></path>
                    <path d="M15.332,18.5 C18.1143829,23.9018309 24.495358,26.3713933 30.1893439,24.2500832 C35.8833298,22.1287732 39.0930717,16.086163 37.6628472,10.1805817 C36.2326228,4.27500048 30.6138695,0.370491254 24.5802463,1.08939492 C18.5466231,1.80829858 14.0025883,6.92369973 14,13 C14,13.2226667 14.006,13.4443333 14.018,13.665" id="Path" fill="#FFFFFF"></path>
                    <polygon id="Path" fill="#FFFFFF" points="13 8 11 10 9.244 13.125 13 14 19 13 23 14 23.109 18.125 18 18 9 19 5 25 0 25 0 11.29 6 5"></polygon>
                    <polygon id="Path" fill="#FFFFFF" points="47 41 49 43 50.756 46.125 47 47 41 46 37 47 36.891 51.125 42 51 51 52 55 58 60 58 60 44.29 54 38"></polygon>
                </g>
                <g id="fill" stroke="#000000" stroke-linejoin="round">
                    <path d="M44.668,51.5 C41.8856171,56.9018309 35.504642,59.3713933 29.8106561,57.2500832 C24.1166702,55.1287732 20.9069283,49.086163 22.3371528,43.1805817 C23.7673772,37.2750005 29.3861305,33.3704913 35.4197537,34.0893949 C41.4533769,34.8082986 45.9974117,39.9236997 46,46 C46,46.2226667 45.994,46.4443333 45.982,46.665" id="Path"></path>
                    <polyline id="Path" points="50.756 46.125 46.795 46.75 40.852 46.125 36.891 46.75 36.891 51.125 41.513 51.125 50.756 51.75 54.718 58 60 58"></polyline>
                    <polyline id="Path" points="38.246 34.733 39.839 33 53.548 37.839 60 44.29"></polyline>
                    <path d="M15.332,18.5 C18.1143829,23.9018309 24.495358,26.3713933 30.1893439,24.2500832 C35.8833298,22.1287732 39.0930717,16.086163 37.6628472,10.1805817 C36.2326228,4.27500048 30.6138695,0.370491254 24.5802463,1.08939492 C18.5466231,1.80829858 14.0025883,6.92369973 14,13 C14,13.2226667 14.006,13.4443333 14.018,13.665" id="Path"></path>
                    <polyline id="Path" points="9.244 13.125 13.205 13.75 19.148 13.125 23.109 13.75 23.109 18.125 18.487 18.125 9.244 18.75 5.282 25 0 25"></polyline>
                    <polyline id="Path" points="21.754 1.733 20.161 0 6.452 4.839 0 11.29"></polyline>
                    <path d="M19.984,53 C10.3030613,48.956077 3.9997265,39.4916103 4,29" id="Path"></path>
                    <path d="M40.016,5 C49.6969387,9.043923 56.0002735,18.5083897 56,29" id="Path"></path>
                    <polyline id="Path" points="52 26 56 29 60 26"></polyline>
                    <polyline id="Path" points="8 32 4 29 0 32"></polyline>
                </g>
            </g>
        </g>
    </g>
</svg>