<?xml version="1.0" encoding="UTF-8"?>
<svg width="67px" height="70px" viewBox="0 0 67 70" version="1.1" xmlns="http://www.w3.org/2000/svg" xmlns:xlink="http://www.w3.org/1999/xlink">
    <!-- Generator: Sketch 56 (81588) - https://sketch.com -->
    <title>iconfinder_voting-hands-up-voters_5093137</title>
    <desc>Created with Sketch.</desc>
    <g id="Page-1" stroke="none" stroke-width="1" fill="none" fill-rule="evenodd">
        <g id="Create-tokens" transform="translate(-534.000000, -1404.000000)">
            <g id="iconfinder_voting-hands-up-voters_5093137" transform="translate(534.000000, 1404.000000)">
                <path d="M11.8776285,37.6953271 L14.2192368,36.8186916 L16.7108645,34.0514019 L19.9721573,36.6158879 L21.6158489,39.5074766 L23.8857087,39.5074766 L24.7727804,39.9523364 C26.3216999,39.4016457 27.787787,38.6399985 29.1298676,37.688785 L29.3777259,37.335514 C29.3777259,37.335514 23.755257,34.064486 22.1441783,32.2392523 C20.5330997,30.4140187 15.8498832,20.4635514 15.8498832,20.4635514 C21.0222936,17.9514019 20.8527064,24.1859813 24.0487734,25.2850467 C27.2448403,26.3841121 26.8013045,23.9373832 26.8013045,23.9373832 L27.4535631,7.03271028 C21.6497269,3.6538076 14.4568601,3.77962216 8.77401948,7.35944491 C3.09117889,10.9392677 -0.145295997,17.3832651 0.369043337,24.0942094 C0.883382671,30.8051537 5.06379054,36.6773087 11.2253699,39.3439252 L11.8776285,37.6953271 Z" id="Path" fill="#1B73E8" fill-rule="nonzero"></path>
                <path d="M21.5245327,48.3392523 L21.5245327,38.1859813 C21.5245327,37.2827119 20.7944674,36.5504673 19.8938863,36.5504673 L19.8938863,36.5504673 C18.9933051,36.5504673 18.2632399,37.2827119 18.2632399,38.1859813 L18.2632399,48.3392523" id="Path" stroke="#101111" stroke-linecap="round" stroke-linejoin="round"></path>
                <path d="M18.2632399,48.3392523 L18.2632399,35.6345794 C18.2632399,35.2008142 18.0914401,34.7848148 17.7856346,34.4780964 C17.4798291,34.171378 17.0650678,33.9990654 16.6325935,33.9990654 L16.6325935,33.9990654 C15.7320123,33.9990654 15.001947,34.73131 15.001947,35.6345794 L15.001947,48.3392523" id="Path" stroke="#101111" stroke-linecap="round" stroke-linejoin="round"></path>
                <path d="M15.001947,48.3392523 L15.001947,38.1925234 C15.001947,37.2892539 14.2718818,36.5570093 13.3713006,36.5570093 L13.3713006,36.5570093 C12.4707195,36.5570093 11.7406542,37.2892539 11.7406542,38.1925234 L11.7406542,49.6476636" id="Path" stroke="#101111" stroke-linecap="round" stroke-linejoin="round"></path>
                <path d="M11.7406542,48.9934579 L11.7406542,50.4327103 C11.7408388,51.0319805 11.4129512,51.5829608 10.886969,51.8672377 C10.3609868,52.1515146 9.72185686,52.1231769 9.22293614,51.7934579 L9.14466511,51.7280374 C8.64377624,51.2746377 8.20117794,50.7603944 7.8271028,50.1971963 L6.97916667,48.9934579 C6.76331758,48.6512523 6.46201115,48.3715991 6.10514019,48.182243 L5.8703271,48.0383178 C4.94186933,47.5550872 3.80569584,47.756187 3.09822819,48.528972 L3.09822819,48.528972 L5.93555296,53.7626168 L7.74230919,56.9158879 C8.10359115,57.4064957 8.50503404,57.8660319 8.94246495,58.2897196 L9.67951713,58.9439252 C10.847675,59.9944496 12.3237202,60.6371262 13.8865849,60.7757009 L15.001947,60.7757009" id="Path" stroke="#101111" stroke-linecap="round" stroke-linejoin="round"></path>
                <path d="M22.2159268,61.7373832 C22.239716,64.3029558 22.4095798,66.8650718 22.7246885,69.411215" id="Path" stroke="#101111" stroke-linecap="round" stroke-linejoin="round"></path>
                <path d="M13.5474104,61.7373832 C13.5225646,64.3048848 13.3548909,66.8689954 13.0451713,69.417757" id="Path" stroke="#101111" stroke-linecap="round" stroke-linejoin="round"></path>
                <path d="M21.5245327,48.9934579 L21.5245327,41.1429907 C21.5245327,40.2397212 22.254598,39.5074766 23.1551791,39.5074766 L23.1551791,39.5074766 C24.0557603,39.5074766 24.7858255,40.2397212 24.7858255,41.1429907 L24.7858255,57.8056075 C24.7858255,59.5724025 23.3578179,61.0046729 21.5962812,61.0046729" id="Path" stroke="#101111" stroke-linecap="round" stroke-linejoin="round"></path>
                <path d="M17.2000584,57.8579439 C17.2197513,55.6504614 15.5272293,53.8068899 13.3321651,53.6448598" id="Path" stroke="#101111" stroke-linecap="round" stroke-linejoin="round"></path>
                <path d="M22.1050428,49.5560748 C20.4874416,48.5224299 16.1890576,48.3 14.2192368,49.3336449" id="Path" stroke="#101111" stroke-linecap="round" stroke-linejoin="round"></path>
                <path d="M41.0922897,20.8626168 L41.0922897,6.3 C41.0922897,5.03542277 40.0701983,4.01028037 38.8093847,4.01028037 L38.8093847,4.01028037 C37.5485711,4.01028037 36.5264798,5.03542277 36.5264798,6.3 L36.5264798,20.6336449" id="Path" stroke="#101111" stroke-linecap="round" stroke-linejoin="round"></path>
                <path d="M41.6336643,38.2383178 C41.6336643,49.6214953 43.59044,57.5504673 43.59044,69.2084112" id="Path" stroke="#101111" stroke-linecap="round" stroke-linejoin="round"></path>
                <path d="M29.9517134,38.2383178 C29.9517134,49.6214953 27.9949377,57.5504673 27.9949377,69.2084112" id="Path" stroke="#101111" stroke-linecap="round" stroke-linejoin="round"></path>
                <path d="M41.0922897,20.8626168 L41.0922897,9.98971963 C41.0922897,8.7251424 42.1143811,7.7 43.3751947,7.7 L43.3751947,7.7 C44.6360083,7.7 45.6580997,8.7251424 45.6580997,9.98971963 L45.6580997,33.364486 C45.6580997,35.8358312 43.6606411,37.8392523 41.1966511,37.8392523" id="Path" stroke="#101111" stroke-linecap="round" stroke-linejoin="round"></path>
                <path d="M34.6088396,31.7158879 C34.6176566,31.1673672 34.5451151,30.6205796 34.3935942,30.0934579 C33.7409371,27.8249277 31.7511794,26.2022824 29.4038162,26.0242991" id="Path" stroke="#101111" stroke-linecap="round" stroke-linejoin="round"></path>
                <path d="M41.4771223,21.8373832 C39.3051012,20.4504673 33.5130452,20.1429907 30.8583528,21.5364486" id="Path" stroke="#101111" stroke-linecap="round" stroke-linejoin="round"></path>
                <path d="M36.5264798,20.3588785 L36.5264798,2.8 C36.5264798,1.53542277 35.5043884,0.510280374 34.2435748,0.510280374 L34.2435748,0.510280374 C32.9827612,0.510280374 31.9606698,1.53542277 31.9606698,2.8 L31.9606698,20.8626168" id="Path" stroke="#101111" stroke-linecap="round" stroke-linejoin="round"></path>
                <path d="M31.9606698,20.2084112 L31.9606698,6.36542056 C31.9392292,5.12142291 30.9181124,4.12944605 29.6777648,4.1474166 L29.6777648,4.1474166 C28.4374172,4.12944605 27.4163004,5.12142291 27.3948598,6.36542056 L27.3948598,19.2140187 L27.4535631,23.2962617 C27.4343558,24.118747 26.9717232,24.8660197 26.2452417,25.2480173 C25.5187601,25.6300149 24.6428313,25.5865827 23.9574572,25.1345794 L23.833528,25.0233645 C23.1297434,24.427633 22.5050058,23.7438668 21.9745911,22.988785 L20.8722741,21.3598131 C20.5597337,20.8956087 20.1297817,20.5230755 19.6264603,20.2803738 L19.2481503,20.0906542 C17.9641493,19.433048 16.4020059,19.6990593 15.4063474,20.7448598 L15.4063474,20.7448598 L19.3198988,27.7841121 L21.8702298,32.0168224 C22.3740475,32.6778643 22.9302757,33.2970113 23.5334891,33.8682243 L24.557535,34.7579439 C26.2044219,36.1830082 28.2600063,37.04664 30.4278621,37.2242991 L31.9606698,37.2242991" id="Path" stroke="#101111" stroke-linecap="round" stroke-linejoin="round"></path>
                <path d="M45.6580997,19.0700935 C45.6580997,18.0560748 46.0885903,17.1859813 47.0995911,17.1859813 L47.0995911,17.1859813 C47.5833647,17.1859813 48.0472295,17.3791768 48.3886966,17.7228908 C48.7301637,18.0666047 48.9211265,18.5325424 48.9194042,19.017757 L48.9194042,30.6757009" id="Path" stroke="#101111" stroke-linecap="round" stroke-linejoin="round"></path>
                <path d="M48.9193925,30.6757009 L48.9193925,15.7009346 C48.9193925,14.6170112 49.7954708,13.7383178 50.8761682,13.7383178 L50.8761682,13.7383178 C51.9568656,13.7383178 52.8329439,14.6170112 52.8329439,15.7009346 L52.8329439,31.0485981" id="Path" stroke="#101111" stroke-linecap="round" stroke-linejoin="round"></path>
                <path d="M52.8329439,30.6757009 L52.8329439,18.6121495 C52.8329439,17.5282262 53.7090222,16.6495327 54.7897196,16.6495327 L54.7897196,16.6495327 C55.870417,16.6495327 56.7464953,17.5282262 56.7464953,18.6121495 L56.7464953,32.6383178" id="Path" stroke="#101111" stroke-linecap="round" stroke-linejoin="round"></path>
                <path d="M56.7464953,31.3299065 L56.7464953,32.9523364 C56.7457989,33.6184385 57.110799,34.2308232 57.696106,34.5455608 C58.281413,34.8602985 58.9919477,34.8262621 59.5446846,34.4570093 L59.6294782,34.3850467 C60.1952039,33.882356 60.6988566,33.3135063 61.1296729,32.6906542 L62.0428349,31.382243 C62.2832115,31.0035045 62.61828,30.6945017 63.0147002,30.4859813 L63.3147391,30.328972 C64.3402618,29.7860823 65.6022529,30.0096098 66.3803544,30.8719626 L66.3803544,30.8719626 L63.269081,36.635514 L61.2275117,40.128972 C60.8333392,40.670708 60.3971453,41.1803908 59.9229945,41.653271 L59.1011488,42.3859813 C57.8042963,43.5471159 56.1689534,44.2582622 54.4375,44.4140187 L53.4852025,44.4140187" id="Path" stroke="#101111" stroke-linecap="round" stroke-linejoin="round"></path>
                <path d="M45.5211254,44.7018692 C45.5211254,48.411215 45.5211254,51.564486 45.2015187,55.064486" id="Path" stroke="#101111" stroke-linecap="round" stroke-linejoin="round"></path>
                <path d="M54.515771,45.1794393 C54.515771,54.2728972 56.0355335,60.2261682 56.1268497,69.4897196" id="Path" stroke="#101111" stroke-linecap="round" stroke-linejoin="round"></path>
                <path d="M41.6597547,40.8616822 C41.7540186,42.8941308 43.4273166,44.4916811 45.4558995,44.4859965" id="Path" stroke="#101111" stroke-linecap="round" stroke-linejoin="round"></path>
                <path d="M50.4848131,40.5607477 C50.4575995,38.1003568 52.3430407,36.0431025 54.7897196,35.8635514" id="Path" stroke="#101111" stroke-linecap="round" stroke-linejoin="round"></path>
                <path d="M45.7624611,31.1794393 C47.3735397,30.6168224 51.5806075,30.2700935 53.7721963,31.4214953" id="Path" stroke="#101111" stroke-linecap="round" stroke-linejoin="round"></path>
            </g>
        </g>
    </g>
</svg>