<?xml version="1.0" encoding="UTF-8"?>
<svg width="57px" height="48px" viewBox="0 0 57 48" version="1.1" xmlns="http://www.w3.org/2000/svg" xmlns:xlink="http://www.w3.org/1999/xlink">
    <!-- Generator: Sketch 56 (81588) - https://sketch.com -->
    <title>iconfinder_money_coin_hand_4222313</title>
    <desc>Created with Sketch.</desc>
    <g id="Page-1" stroke="none" stroke-width="1" fill="none" fill-rule="evenodd">
        <g id="Create-tokens" transform="translate(-533.000000, -1094.000000)" fill-rule="nonzero">
            <g id="iconfinder_money_coin_hand_4222313" transform="translate(534.000000, 1093.000000)">
                <g id="solution">
                    <path d="M26.9962963,21.2962963 L32.2814815,21.2981481 C38.8203704,21.2981481 37.8944444,16.6685185 37.8944444,15.7425926 L25.4981481,15.7407407 L28.5222222,11.7444444 C32.4666667,6.52962963 28.2166667,4.47407407 27.4777778,3.91481481 L25.3333333,6.74814815 C25.4981481,3.61851852 22.6018519,2.75740741 21.9574074,2.42962963 L15.9259259,14.2759259 L14.9314815,14.9055556 L14.9314815,10.1166667 C14.9314815,3.93518519 11.2037037,4.70925926 10.2777778,4.71481481 L10.2777778,20.3018519 L0.925925926,31.637037 L0.925925926,47.5314815 L4.89814815,43.5203704 L34.1907407,43.5185185 C34.1907407,42.5925926 35.1166667,37.962963 28.5777778,37.962963 L25.0018519,37.9648148 L21.4518519,34.8759259 L21.9148148,28.8592593 L26.9962963,21.2962963 Z" id="Path" fill="#FFFFFF"></path>
                    <path d="M26.9962963,21.2962963 L32.2814815,21.2981481 C38.8203704,21.2981481 37.8944444,16.6685185 37.8944444,15.7425926 L25.4981481,15.7407407 L28.5222222,11.7444444 C32.4666667,6.52962963 28.2166667,4.47407407 27.4777778,3.91481481 L25.3333333,6.74814815 C25.4981481,3.61851852 22.6018519,2.75740741 21.9574074,2.42962963 L15.9259259,14.2759259 L14.9314815,14.9055556 L14.9314815,10.1166667 C14.9314815,3.93518519 11.2037037,4.70925926 10.2777778,4.71481481 L10.2777778,20.3018519 L0.925925926,35.1555556 L0.925925926,47.5314815 L4.89814815,43.5203704 L34.1907407,43.5185185 C34.1907407,42.5925926 35.1166667,37.962963 28.5777778,37.962963 L25.0018519,37.9648148 L21.4518519,34.8759259 L21.9148148,28.8592593 L26.9962963,21.2962963 Z" id="Path" fill="#FFFFFF"></path>
                    <g id="Group" fill="#101111" stroke="#FFFFFF" stroke-width="0.5">
                        <path d="M0.92962963,32.3351852 C0.72037037,32.3351852 0.507407407,32.262963 0.335185185,32.1166667 C-0.0555555556,31.787037 -0.107407407,31.2037037 0.222222222,30.812963 L9.35185185,19.962963 L9.35185185,4.71481481 C9.35185185,4.20555556 9.76296296,3.79074074 10.2722222,3.78888889 L10.5037037,3.77777778 C11.2740741,3.72962963 12.8851852,3.63333333 14.1777778,4.8537037 C15.2925926,5.9037037 15.8555556,7.67407407 15.8555556,10.1166667 C15.8555556,10.6277778 15.4407407,11.0425926 14.9296296,11.0425926 C14.4185185,11.0425926 14.0037037,10.6277778 14.0037037,10.1166667 C14.0037037,8.23148148 13.6240741,6.87777778 12.9074074,6.20185185 C12.3962963,5.71851852 11.7574074,5.61481481 11.2037037,5.60740741 L11.2037037,20.3018519 C11.2037037,20.5203704 11.1259259,20.7314815 10.9851852,20.8981481 L1.63703704,32.0055556 C1.45555556,32.2222222 1.19444444,32.3351852 0.92962963,32.3351852 Z" id="Path"></path>
                        <path d="M15.5851852,15.5240741 C15.4407407,15.5240741 15.2944444,15.4907407 15.1574074,15.4185185 C14.7037037,15.1814815 14.5296296,14.6222222 14.7666667,14.1685185 L21.1388889,2.00185185 C21.3740741,1.55185185 21.9277778,1.37592593 22.3796296,1.60740741 L22.6222222,1.71481481 C23.1037037,1.92222222 23.9092593,2.27037037 24.65,2.90740741 C25.6611111,3.77777778 26.2074074,4.88703704 26.2759259,6.20555556 C26.3018519,6.71481481 25.9092593,7.15185185 25.3981481,7.17777778 C24.9203704,7.18518519 24.4518519,6.81111111 24.4259259,6.3 C24.3851852,5.4962963 24.062963,4.8462963 23.4425926,4.31111111 C23.0981481,4.01481481 22.7148148,3.79814815 22.3759259,3.63518519 L16.4074074,15.0277778 C16.2407407,15.3425926 15.9185185,15.5240741 15.5851852,15.5240741 Z" id="Path"></path>
                        <path d="M15.4314815,20.6796296 C15.237037,20.6796296 15.0388889,20.6185185 14.8722222,20.4907407 C14.4648148,20.1814815 14.387037,19.6 14.6962963,19.1925926 L26.7425926,3.35555556 C27.05,2.94814815 27.6296296,2.87037037 28.0388889,3.17777778 L28.2555556,3.32592593 C28.9833333,3.80555556 30.6851852,4.92777778 31.0388889,6.9962963 C31.312963,8.5962963 30.7166667,10.3833333 29.262963,12.3055556 L26.3814815,16.1111111 C26.0722222,16.5185185 25.4925926,16.6 25.0851852,16.2907407 C24.6777778,15.9814815 24.5962963,15.4018519 24.9055556,14.9944444 L27.7851852,11.1888889 C28.9166667,9.69074074 29.3981481,8.38703704 29.212963,7.31111111 C29.0388889,6.3037037 28.2907407,5.62037037 27.6814815,5.17962963 L16.1666667,20.3166667 C15.987037,20.5537037 15.7092593,20.6796296 15.4314815,20.6796296 Z" id="Path"></path>
                        <path d="M0.925925926,48.4259259 C0.688888889,48.4259259 0.453703704,48.3351852 0.272222222,48.1555556 C-0.0907407407,47.7944444 -0.0907407407,47.2074074 0.27037037,46.8462963 L4.24259259,42.8666667 C4.41481481,42.6907407 4.65185185,42.5925926 4.89814815,42.5925926 L33.3092593,42.5925926 C33.3240741,42.5925926 33.2314815,40.8333333 32.5333333,40.0888889 C31.787037,39.2925926 30.4555556,38.8888889 28.5777778,38.8888889 L25.0018519,38.8888889 C25.0018519,38.8888889 25.0018519,38.8888889 25.0018519,38.8888889 C24.812963,38.8888889 24.6296296,38.8333333 24.4759259,38.7277778 L20.9259259,35.6388889 C20.6833333,35.4703704 20.3814815,35.1981481 20.3722222,34.9037037 L20.3722222,29.4259259 C20.3666667,29.2037037 20.4407407,28.9851852 20.5814815,28.812963 L26.2814815,20.7111111 C26.4555556,20.4944444 26.7185185,20.3703704 26.9962963,20.3703704 L26.9962963,20.3703704 L32.2814815,20.3722222 C34.1592593,20.3722222 35.4888889,19.9685185 36.2351852,19.1722222 C36.9333333,18.4259259 37.0277778,16.6666667 37.0111111,16.6666667 L23.9407407,16.6666667 L16.8074074,24.837037 C16.4740741,25.2240741 15.8851852,25.2648148 15.5018519,24.9259259 C15.1166667,24.5907407 15.0777778,24.0055556 15.412963,23.6203704 L22.8222222,15.1333333 C22.9981481,14.9314815 23.2537037,14.8148148 23.5203704,14.8148148 L23.5203704,14.8148148 L37.8944444,14.8166667 C38.4055556,14.8166667 38.8203704,15.2314815 38.8203704,15.7425926 L38.8333333,16.0055556 C38.8888889,16.8740741 39.0222222,18.9074074 37.5851852,20.4388889 C36.4759259,21.6222222 34.6907407,22.2222222 32.2814815,22.2222222 L27.4351852,22.2222222 L22.2222222,29.6296296 L22.2222222,34.3796296 L25.2907407,37.037037 L28.5777778,37.037037 C30.9888889,37.037037 32.7740741,37.637037 33.8833333,38.8222222 C35.3185185,40.3537037 35.187037,42.387037 35.1314815,43.2574074 L35.1166667,43.5185185 C35.1166667,44.0296296 34.7018519,44.4444444 34.1907407,44.4444444 L5.28148148,44.4444444 L1.58148148,48.1555556 C1.4,48.337037 1.16296296,48.4259259 0.925925926,48.4259259 Z" id="Path"></path>
                    </g>
                    <g id="Group" transform="translate(27.777778, 20.370370)">
                        <circle id="Oval" fill="#FFFFFF" cx="10.1851852" cy="10.1851852" r="9.25925926"></circle>
                        <path d="M19.4444444,10.1851852 C19.4444444,8.90185185 19.1796296,7.67777778 18.7111111,6.56666667 C17.0240741,4.80925926 14.6648148,3.7037037 12.037037,3.7037037 C6.92222222,3.7037037 2.77777778,7.84814815 2.77777778,12.962963 C2.77777778,14.2462963 3.04259259,15.4703704 3.51111111,16.5814815 C5.1962963,18.3388889 7.55740741,19.4444444 10.1851852,19.4444444 C15.3,19.4444444 19.4444444,15.3 19.4444444,10.1851852 Z" id="Path" fill="#25CDD6"></path>
                        <path d="M10.1851852,20.3703704 C4.56851852,20.3703704 0,15.8018519 0,10.1851852 C0,4.56851852 4.56851852,0 10.1851852,0 C15.8018519,0 20.3703704,4.56851852 20.3703704,10.1851852 C20.3703704,15.8018519 15.8018519,20.3703704 10.1851852,20.3703704 Z M10.1851852,1.85185185 C5.59074074,1.85185185 1.85185185,5.59074074 1.85185185,10.1851852 C1.85185185,14.7796296 5.59074074,18.5185185 10.1851852,18.5185185 C14.7796296,18.5185185 18.5185185,14.7796296 18.5185185,10.1851852 C18.5185185,5.59074074 14.7796296,1.85185185 10.1851852,1.85185185 Z" id="Shape" stroke="#FFFFFF" stroke-width="0.5" fill="#101111"></path>
                    </g>
                </g>
                <g id="Group" transform="translate(43.592593, 14.814815)" fill="#101111" stroke="#FFFFFF" stroke-width="0.5">
                    <path d="M1.31481481,4.63888889 C1.15740741,4.63888889 0.998148148,4.6 0.851851852,4.51481481 C0.409259259,4.25925926 0.257407407,3.69259259 0.512962963,3.25 L1.90185185,0.844444444 C2.15740741,0.401851852 2.72407407,0.248148148 3.16666667,0.505555556 C3.60925926,0.761111111 3.76111111,1.32777778 3.50555556,1.77037037 L2.11666667,4.17592593 C1.94444444,4.47222222 1.63333333,4.63888889 1.31481481,4.63888889 Z" id="Path"></path>
                    <path d="M6.4,9.72222222 C6.07962963,9.72222222 5.76851852,9.55555556 5.5962963,9.25925926 C5.34074074,8.81666667 5.49259259,8.25 5.93518519,7.99444444 L8.34074074,6.60555556 C8.78148148,6.35 9.34814815,6.50185185 9.60555556,6.94444444 C9.86111111,7.38703704 9.70925926,7.9537037 9.26666667,8.20925926 L6.86111111,9.59814815 C6.71666667,9.68333333 6.55740741,9.72222222 6.4,9.72222222 Z" id="Path"></path>
                    <path d="M11.037037,16.6666667 L8.25925926,16.6666667 C7.74814815,16.6666667 7.33333333,16.2518519 7.33333333,15.7407407 C7.33333333,15.2296296 7.74814815,14.8148148 8.25925926,14.8148148 L11.037037,14.8148148 C11.5481481,14.8148148 11.962963,15.2296296 11.962963,15.7407407 C11.962963,16.2518519 11.5481481,16.6666667 11.037037,16.6666667 Z" id="Path"></path>
                    <path d="M8.8037037,25 C8.6462963,25 8.48703704,24.9611111 8.34074074,24.8759259 L5.93518519,23.487037 C5.49259259,23.2314815 5.34074074,22.6648148 5.5962963,22.2222222 C5.8537037,21.7796296 6.41666667,21.6277778 6.86111111,21.8833333 L9.26666667,23.2722222 C9.70925926,23.5277778 9.86111111,24.0944444 9.60555556,24.537037 C9.43518519,24.8333333 9.12407407,25 8.8037037,25 Z" id="Path"></path>
                    <path d="M2.7037037,31.1 C2.38333333,31.1 2.07222222,30.9333333 1.9,30.637037 L0.511111111,28.2314815 C0.257407407,27.7888889 0.409259259,27.2222222 0.851851852,26.9666667 C1.29259259,26.7111111 1.86111111,26.862963 2.11666667,27.3055556 L3.50555556,29.7111111 C3.76111111,30.1537037 3.60925926,30.7203704 3.16666667,30.9759259 C3.02037037,31.0611111 2.86111111,31.1 2.7037037,31.1 Z" id="Path"></path>
                </g>
            </g>
        </g>
    </g>
</svg>