<?xml version="1.0" encoding="UTF-8"?>
<svg width="64px" height="50px" viewBox="0 0 64 50" version="1.1" xmlns="http://www.w3.org/2000/svg" xmlns:xlink="http://www.w3.org/1999/xlink">
    <!-- Generator: Sketch 56 (81588) - https://sketch.com -->
    <title>iconfinder_Split-33_2668049</title>
    <desc>Created with Sketch.</desc>
    <g id="Page-1" stroke="none" stroke-width="1" fill="none" fill-rule="evenodd">
        <g id="Create-tokens" transform="translate(-850.000000, -1093.000000)" fill-rule="nonzero">
            <g id="iconfinder_Split-33_2668049" transform="translate(851.000000, 1093.000000)">
                <g id="Group" transform="translate(6.818182, 1.136364)" fill="#F4B91A">
                    <circle id="Oval" cx="23.9204545" cy="23.8636364" r="23.5795455"></circle>
                    <circle id="Oval" cx="23.9204545" cy="23.8636364" r="23.5795455"></circle>
                </g>
                <g id="Group" transform="translate(6.818182, 1.136364)" fill="#25CDD6">
                    <path d="M47.5,23.8636364 C47.5,36.875 36.9318182,47.4431818 23.9204545,47.4431818 C17.3295455,47.4431818 11.4204545,44.7727273 7.15909091,40.3977273 C2.95454545,36.1363636 0.340909091,30.2840909 0.340909091,23.8636364 C0.340909091,10.8522727 10.9090909,0.284090909 23.9204545,0.284090909 C36.9318182,0.284090909 47.5,10.8522727 47.5,23.8636364 Z" id="Path"></path>
                    <path d="M47.5,23.8636364 C47.5,36.875 36.9318182,47.4431818 23.9204545,47.4431818 C17.3295455,47.4431818 11.4204545,44.7727273 7.15909091,40.3977273 C2.95454545,36.1363636 0.340909091,30.2840909 0.340909091,23.8636364 C0.340909091,10.8522727 10.9090909,0.284090909 23.9204545,0.284090909 C36.9318182,0.284090909 47.5,10.8522727 47.5,23.8636364 Z" id="Path"></path>
                </g>
                <g id="Group" transform="translate(6.250000, 0.000000)" fill="#272827" stroke="#FFFFFF">
                    <path d="M24.4886364,44.9886364 C35.490498,44.9886364 44.4772727,36.0162405 44.4772727,25 C44.4772727,13.9625541 35.5260823,5.01136364 24.4886364,5.01136364 C13.4511905,5.01136364 4.5,13.9625541 4.5,25 C4.5,36.0374459 13.4511905,44.9886364 24.4886364,44.9886364 Z M24.4886364,-2.17045455 C39.466603,-2.17045455 51.6022727,10.0073529 51.6022727,25 C51.6022727,39.9926471 39.466603,52.1704545 24.4886364,52.1704545 C9.50335499,52.1704545 -2.68181818,39.9852814 -2.68181818,25 C-2.68181818,10.0147186 9.50335499,-2.17045455 24.4886364,-2.17045455 Z" id="Shape" stroke-width="9"></path>
                    <path d="M24.4886364,49.4886364 C10.9659091,49.4886364 0,38.5227273 0,25 C0,11.4772727 10.9659091,0.511363636 24.4886364,0.511363636 C38.0113636,0.511363636 48.9772727,11.4772727 48.9772727,25 C48.9772727,38.5227273 37.9545455,49.4886364 24.4886364,49.4886364 Z M24.4886364,2.32954545 C11.9886364,2.32954545 1.81818182,12.5 1.81818182,25 C1.81818182,37.5 11.9886364,47.6704545 24.4886364,47.6704545 C36.9886364,47.6704545 47.1022727,37.5 47.1022727,25 C47.1022727,12.5 36.9886364,2.32954545 24.4886364,2.32954545 Z" id="Shape" stroke-width="0.75"></path>
                </g>
                <g id="Group" transform="translate(6.250000, 0.000000)">
                    <path d="M24.4886364,1.42045455 L24.4886364,25 L24.4886364,25 L7.67045455,41.5340909 C3.46590909,37.2727273 0.852272727,31.4204545 0.852272727,25 C0.909090909,11.9886364 11.4772727,1.42045455 24.4886364,1.42045455 Z" id="Path" fill="#FFFFFF"></path>
                    <path d="M7.67045455,42.8409091 L7.04545455,42.2159091 C2.5,37.6136364 0,31.4772727 0,25 C0,11.4772727 10.9659091,0.511363636 24.4886364,0.511363636 L25.3977273,0.511363636 L25.3977273,25.3409091 L25.1136364,25.625 L7.67045455,42.8409091 Z M23.5795455,2.38636364 C11.4772727,2.84090909 1.81818182,12.8409091 1.81818182,25 C1.81818182,30.6818182 3.92045455,36.0795455 7.72727273,40.2272727 L23.5795455,24.6022727 L23.5795455,2.38636364 Z" id="Shape" stroke="#FFFFFF" stroke-width="0.75" fill="#272827"></path>
                </g>
                <circle id="Oval" fill="#FFFFFF" cx="53.6931818" cy="30.3409091" r="7.78409091"></circle>
                <circle id="Oval" fill="#E4EEEF" cx="8.80681818" cy="17.2159091" r="7.78409091"></circle>
                <path d="M53.6931818,38.9772727 C48.9204545,38.9772727 45,35.0568182 45,30.2840909 C45,25.5113636 48.9204545,21.5909091 53.6931818,21.5909091 C58.4659091,21.5909091 62.3863636,25.5113636 62.3863636,30.2840909 C62.3863636,35.0568182 58.4659091,38.9772727 53.6931818,38.9772727 Z M53.6931818,23.4659091 C49.8863636,23.4659091 46.8181818,26.5340909 46.8181818,30.3409091 C46.8181818,34.1477273 49.8863636,37.2159091 53.6931818,37.2159091 C57.5,37.2159091 60.5681818,34.1477273 60.5681818,30.3409091 C60.5681818,26.5340909 57.4431818,23.4659091 53.6931818,23.4659091 Z" id="Shape" stroke="#FFFFFF" stroke-width="0.75" fill="#272827"></path>
                <path d="M8.80681818,25.9090909 C4.03409091,25.9090909 0.113636364,21.9886364 0.113636364,17.2159091 C0.113636364,12.4431818 4.03409091,8.52272727 8.80681818,8.52272727 C13.5795455,8.52272727 17.5,12.4431818 17.5,17.2159091 C17.5,21.9886364 13.5795455,25.9090909 8.80681818,25.9090909 Z M8.80681818,10.3977273 C5,10.3977273 1.93181818,13.4659091 1.93181818,17.2727273 C1.93181818,21.0795455 5,24.1477273 8.80681818,24.1477273 C12.6136364,24.1477273 15.6818182,21.0795455 15.6818182,17.2727273 C15.6818182,13.4659091 12.6136364,10.3977273 8.80681818,10.3977273 Z" id="Shape" stroke="#FFFFFF" stroke-width="0.75" fill="#272827"></path>
            </g>
        </g>
    </g>
</svg>