<?xml version="1.0" encoding="UTF-8"?>
<svg width="76px" height="72px" viewBox="0 0 76 72" version="1.1" xmlns="http://www.w3.org/2000/svg" xmlns:xlink="http://www.w3.org/1999/xlink">
    <!-- Generator: Sketch 56 (81588) - https://sketch.com -->
    <title>iconfinder_Ripple_Cryptocurrency_deal_agreement_contract_2931589</title>
    <desc>Created with Sketch.</desc>
    <g id="Page-1" stroke="none" stroke-width="1" fill="none" fill-rule="evenodd">
        <g id="Create-tokens" transform="translate(-844.000000, -1401.000000)" fill-rule="nonzero">
            <g id="Group-9" transform="translate(732.000000, 1373.000000)">
                <g id="iconfinder_Ripple_Cryptocurrency_deal_agreement_contract_2931589" transform="translate(150.000000, 64.500000) scale(-1, 1) translate(-150.000000, -64.500000) translate(113.000000, 29.000000)">
                    <ellipse id="Oval" stroke="#4D4D4D" fill="#FFFFFF" transform="translate(36.964393, 18.936694) rotate(-0.664668) translate(-36.964393, -18.936694) " cx="36.9643926" cy="18.9366939" rx="18.5064254" ry="18.6770172"></ellipse>
                    <ellipse id="Oval" stroke="#4D4D4D" stroke-linecap="round" transform="translate(36.964393, 18.936694) rotate(-0.664668) translate(-36.964393, -18.936694) " cx="36.9643926" cy="18.9366939" rx="14.8954008" ry="15.0325889"></ellipse>
                    <path d="M40.1826033,49.7248106 L53.1304132,62.6117512 C54.1056052,63.5823587 55.6996107,63.5823587 56.6754088,62.6117512 L56.9487534,62.3396916 C57.9184906,61.3690841 57.9184906,59.7825722 56.9487534,58.8173938 L54.7989673,56.6777141 L42.4366362,31.5492958 L12.4075115,32.8546995 L7.88732394,50.5301312 L10.1595394,50.5240989 C14.0372761,50.5536575 15.4021812,53.0697568 18.0962324,55.5086418 L36.5006323,69.2002999 C37.4758243,70.1709074 39.3437806,70.3072389 40.3189726,69.3366314 L40.5923172,69.0645717 C41.3596218,68.3008744 41.3596218,66.9236855 40.9135427,66.0001305 C40.7947499,65.751597 41.1159753,66.2070406 40.9135427,66.0001305 L40.230484,65.3112344 L35.3284625,60.3091976 L40.230484,65.3112344 L41.9602528,66.8265644 C42.9354448,67.7971719 44.5294503,67.7971719 45.4991875,66.8265644 L45.7725322,66.5599339 C46.7477241,65.5893264 46.9653089,64.4075862 45.9895109,63.4363755 L47.9077723,65.050033 C48.8829642,66.0206405 50.4769698,66.0206405 51.446707,65.050033 L51.7200516,64.7834025 C52.6952436,63.812795 52.7134262,62.2033601 51.7382342,61.2327527" id="Path" stroke="#101111" fill="#FFFFFF" stroke-linecap="round" stroke-linejoin="round"></path>
                    <path d="M53.7410329,55.7042254 L40.281893,42.5066736 L41.8238478,40.7455545 C41.3036413,41.2659399 40.8370208,41.9278653 40.281893,42.5066736 C38.5508817,44.3093512 36.5537462,46.1180518 34.3320308,46.8450254 C33.0381375,47.27085 31.425136,47.0516136 30.603884,45.9584429 C28.1696305,42.7493996 34.7456673,37.6900972 36.677777,35.5916913 C36.677777,35.5916913 40.8785651,31.4370403 40.9435909,31.3719922 C42.6450998,29.6994109 48.210828,29.8060176 49.9599021,30.7516253 C50.9876712,31.306944 51.9034515,32.0989657 53.026351,32.4302296 C53.8000378,32.6669327 54.6212898,32.6669327 55.4250811,32.6609097 C56.6599695,32.6609097 57.894858,32.6548867 59.1297464,32.6488637 L64.5774648,49.6944968 C64.5774648,49.6944968 63.0577874,49.6884738 63.0529706,49.6884738 C59.3489075,49.6734164 56.3107568,53.4642794 53.7410329,55.7042254" id="Path" stroke="#101111" fill="#FFFFFF" stroke-linecap="round" stroke-linejoin="round"></path>
                    <g id="Group" transform="translate(15.774648, 52.253521)" fill="#FFFFFF" stroke="#101111" stroke-linecap="round">
                        <path d="M14.5515152,8.67971102 C14.0352539,8.16567508 13.355271,7.90925206 12.6752881,7.90925206 C12.1829279,7.90925206 11.6845924,8.04371054 11.2561673,8.31203254 C11.0918481,8.41733851 10.9335041,8.53989801 10.7930858,8.67971102 L10.2361929,9.2342035 C9.97208707,9.49717096 9.77908664,9.79464546 9.65002134,10.1218674 C9.26880068,11.0737858 9.46837388,12.2119233 10.2361929,12.9770277 C10.7578318,13.4910636 11.4384123,13.7474866 12.1183952,13.7474866 C12.7983781,13.7474866 13.4789586,13.4904687 13.9946223,12.9770277 L14.5515152,12.4225352 C15.5894153,11.3944633 15.5894153,9.70718796 14.5515152,8.67971102 Z" id="Path"></path>
                        <path d="M7.36867264,1.08399709 C6.85241144,0.569961146 6.16645327,0.313538125 5.48647034,0.313538125 C4.80648741,0.313538125 4.12590696,0.570556095 3.61024328,1.08399709 L1.07434913,3.4078679 C0.0424242424,4.43534483 0.139223218,6.22197669 1.1711481,7.25540311 C1.69278703,7.76943905 2.37336748,8.02586207 3.05335041,8.02586207 C3.73333333,8.02586207 4.41391379,7.7688441 4.93555271,7.25540311 L6.23277849,5.99887081 L7.36927017,4.83217581 C8.40059752,3.79874939 8.40059752,2.11742351 7.36867264,1.08399709 Z" id="Path"></path>
                        <path d="M10.7578318,5.27600777 C10.2415706,4.76197183 9.55561246,4.50554881 8.87562953,4.50554881 C8.19564661,4.50554881 7.50968843,4.76256678 6.99342723,5.27600777 L6.23218096,5.99887081 L5.68006829,6.58370568 C4.64814341,7.6171321 4.64814341,9.29845799 5.68006829,10.3318844 C6.19632949,10.8459203 6.87631242,11.1023434 7.55629535,11.1023434 C8.24225352,11.1023434 8.92223645,10.8453254 9.43849765,10.3318844 L10.7578318,9.01823701 C10.968758,8.80822001 11.1390525,8.56845556 11.2561673,8.31203254 C11.7485275,7.32501214 11.5788306,6.09287275 10.7578318,5.27600777 Z" id="Path"></path>
                        <path d="M18.3625267,12.4451433 C17.8462655,11.9311073 17.1662825,11.6746843 16.4803244,11.6746843 C15.8003414,11.6746843 15.119761,11.9317023 14.6040973,12.4451433 C14.0878361,12.9645338 13.830303,13.6421807 13.830303,14.3192326 C13.830303,14.9962846 14.0884336,15.6739315 14.6040973,16.193322 C15.1203585,16.7073579 15.8003414,16.963781 16.4803244,16.963781 C17.1662825,16.963781 18.1163466,16.8412215 18.6320102,16.3271855 C19.6705079,15.2943541 19.4004268,13.4785697 18.3625267,12.4451433 Z" id="Path"></path>
                    </g>
                    <path d="M35.4929577,53.7323944 L45.8450704,63.0985915" id="Path" stroke="#101111" fill="#FFCDD2" stroke-linecap="round"></path>
                    <path d="M73.8682496,49.8807501 L68.1198537,27.4212558 C67.7943022,26.148442 66.5041535,25.3819643 65.2381198,25.7094152 L59.9460989,27.0798579 C58.6806681,27.4073088 57.9186363,28.7049847 58.2441879,29.9784049 L63.9925838,52.4378991 C64.3181353,53.710713 65.608284,54.4771906 66.8743177,54.1497397 L72.1663386,52.779297 C73.4323723,52.4518461 74.194404,51.1541703 73.8682496,49.8807501 Z M68.4230989,50.4962365 C67.4428271,50.4962365 66.6482402,49.6970137 66.6482402,48.7110226 C66.6482402,47.7250315 67.4428271,46.9258088 68.4230989,46.9258088 C69.4033707,46.9258088 70.1979576,47.7250315 70.1979576,48.7110226 C70.1973548,49.6970137 69.4027679,50.4962365 68.4230989,50.4962365 Z" id="Shape" stroke="#4D4D4D" fill="#25CDD6"></path>
                    <path d="M13.9975404,27.0799223 L8.70545194,25.7094541 C7.44000495,25.3819971 6.14983985,26.1478826 5.82368129,27.4213265 L0.0752120094,49.8806318 C-0.250343671,51.1534693 0.511094892,52.4511693 1.77714476,52.7792327 L7.06923321,54.1497008 C8.33468019,54.4771578 9.6248453,53.7112723 9.95100386,52.4378284 L15.6994731,29.9779167 C16.0250288,28.7050792 15.2629874,27.4073793 13.9975404,27.0799223 Z M5.5204322,50.4961297 C4.54014788,50.4961297 3.74555086,49.6968921 3.74555086,48.7108827 C3.74555086,47.7248732 4.54014788,46.9256356 5.5204322,46.9256356 C6.50071653,46.9256356 7.29531354,47.7248732 7.29531354,48.7108827 C7.29531354,49.6968921 6.50071653,50.4961297 5.5204322,50.4961297 Z" id="Shape" stroke="#4D4D4D" fill="#E4EEEF"></path>
                </g>
            </g>
        </g>
    </g>
</svg>