<?xml version="1.0" encoding="UTF-8"?>
<svg width="46px" height="50px" viewBox="0 0 46 50" version="1.1" xmlns="http://www.w3.org/2000/svg" xmlns:xlink="http://www.w3.org/1999/xlink">
    <!-- Generator: Sketch 60.1 (88133) - https://sketch.com -->
    <title>Finance</title>
    <desc>Created with Sketch.</desc>
    <g id="Page-1" stroke="none" stroke-width="1" fill="none" fill-rule="evenodd">
        <g id="Create-tokens-Copy" transform="translate(-536.000000, -1098.000000)" fill-rule="nonzero">
            <g id="Finance" transform="translate(536.000000, 1098.000000)">
                <path d="M6.69603524,1.56387665 L2.30176211,9.11894273 L6.49779736,9.11894273 C6.92731278,9.11894273 7.26872247,9.46035242 7.26872247,9.88986784 L7.26872247,34.9339207 L8.08370044,34.9339207 C8.51321586,34.9339207 8.85462555,35.2753304 8.85462555,35.7048458 L8.85462555,36.9162996 L15.7599119,31.8832599 C15.9251101,31.7621145 16.1453744,31.7070485 16.3546256,31.7511013 L30.4515419,34.339207 C30.8590308,34.4162996 31.1343612,34.8017621 31.0792952,35.2202643 L30.8480176,36.6960352 C30.7929515,37.0264317 30.5396476,37.2907489 30.2092511,37.3348018 L24.5484581,38.2599119 L31.3546256,40.1101322 L38.7004405,32.3348018 L38.7004405,9.87885463 C38.7004405,9.44933921 39.0418502,9.10792952 39.4713656,9.10792952 L43.6674009,9.10792952 L39.2731278,1.55286344 L6.69603524,1.55286344 L6.69603524,1.56387665 Z M27.8524229,28.7995595 C26.3215859,29.4933921 24.6806167,29.8348018 22.9845815,29.8348018 C21.2885463,29.8348018 19.6475771,29.4823789 18.1167401,28.7995595 C14.030837,26.9603524 11.3436123,23.0506608 11.1013216,18.5792952 C11.0903084,18.3810573 11.0792952,18.1718062 11.0792952,17.9405286 C11.0792952,16.7621145 11.2444934,15.6057269 11.5859031,14.4933921 C12.4559471,11.5969163 14.3942731,9.15198238 17.0264317,7.63215859 C17.3678414,7.4339207 17.7092511,7.25770925 18.0506608,7.10352423 C18.8986784,6.71806167 19.7797357,6.43171806 20.6938326,6.25550661 C22.1255507,5.969163 23.6784141,5.95814978 25.1101322,6.22246696 C26.0792952,6.39867841 27.0264317,6.69603524 27.9185022,7.10352423 C28.623348,7.42290749 29.3171806,7.81938326 29.9559471,8.28193833 L29.9559471,8.28193833 C33.0396476,10.5176211 34.8898678,14.1189427 34.8898678,17.9295154 C34.8788546,22.6211454 32.1255507,26.8832599 27.8524229,28.7995595 Z" id="Shape" fill="#FFFFFF"></path>
                <polygon id="Path" fill="#E4EEEF" points="1.57488987 36.4757709 1.57488987 48.4361233 7.31277533 48.4361233 7.31277533 46.3105727 7.31277533 38.4361233 7.31277533 36.4757709 6.49779736 36.4757709"></polygon>
                <path d="M21.5418502,15.8259912 C21.5418502,16.2114537 21.685022,16.4757709 22.1806167,16.7180617 C22.1806167,16.7180617 22.1806167,16.7180617 22.1806167,16.7180617 C22.3127753,16.7731278 22.4559471,16.839207 22.6431718,16.8942731 L22.6431718,14.8678414 C21.9162996,14.9339207 21.5418502,15.3193833 21.5418502,15.8259912 Z" id="Path" fill="#FFFFFF"></path>
                <path d="M23.6013216,18.5022026 C23.5792952,18.4911894 23.5682819,18.4911894 23.5462555,18.4801762 L23.5462555,20.561674 C24.284141,20.4845815 24.6806167,20.1101322 24.6806167,19.5594714 C24.6806167,19.0748899 24.438326,18.7665198 23.6013216,18.5022026 Z" id="Path" fill="#FFFFFF"></path>
                <path d="M39.8348018,33.3810573 L32.1585903,41.5088106 C32.1365639,41.530837 32.1145374,41.5528634 32.092511,41.5748899 C32.0814978,41.5859031 32.0814978,41.5859031 32.0704846,41.5969163 C32.0484581,41.6079295 32.0374449,41.6189427 32.0154185,41.6409692 C32.0044053,41.6409692 32.0044053,41.6519824 31.9933921,41.6519824 C31.9713656,41.6629956 31.938326,41.685022 31.9162996,41.6960352 C31.9162996,41.6960352 31.9162996,41.6960352 31.9162996,41.6960352 C31.8832599,41.7070485 31.8612335,41.7180617 31.8281938,41.7290749 C31.8171806,41.7290749 31.8171806,41.7290749 31.8061674,41.7400881 C31.784141,41.7511013 31.7621145,41.7511013 31.7400881,41.7511013 C31.7290749,41.7511013 31.7180617,41.7511013 31.7180617,41.7511013 C31.685022,41.7511013 31.6629956,41.7621145 31.6299559,41.7621145 C31.6299559,41.7621145 31.6189427,41.7621145 31.6189427,41.7621145 C31.6189427,41.7621145 31.6189427,41.7621145 31.6189427,41.7621145 C31.5969163,41.7621145 31.5748899,41.7621145 31.5418502,41.7621145 C31.530837,41.7621145 31.5198238,41.7621145 31.5198238,41.7621145 C31.4867841,41.7621145 31.4537445,41.7511013 31.4207048,41.7400881 L20.7378855,38.8325991 C20.3854626,38.7334802 20.154185,38.4140969 20.1651982,38.0506608 C20.1872247,37.6872247 20.4515419,37.3898678 20.814978,37.3348018 L29.4052863,35.9030837 L29.438326,35.715859 L16.3986784,33.3259912 L8.85462555,38.8215859 L8.85462555,45.5726872 L32.1365639,46.6740088 L41.4096916,34.7356828 C41.5528634,34.5484581 41.6299559,34.3281938 41.6299559,34.0969163 C41.6299559,33.7114537 41.4317181,33.3810573 41.1013216,33.1938326 C40.7378855,32.9845815 40.2863436,33.0176211 39.9449339,33.2819383 C39.9118943,33.314978 39.8678414,33.3480176 39.8348018,33.3810573 Z" id="Path" fill="#FFFFFF"></path>
                <path d="M28.0506608,14.8348018 C28.0396476,14.8237885 28.0396476,14.8127753 28.0286344,14.8017621 C27.2356828,13.5242291 26.0022026,12.6101322 24.5594714,12.2136564 C24.0528634,12.0704846 23.5242291,12.0044053 22.9845815,12.0044053 C20.9251101,12.0044053 19.0418502,13.0506608 17.9405286,14.8017621 C17.9295154,14.8127753 17.9295154,14.8237885 17.9185022,14.8348018 C17.8303965,14.9669604 17.753304,15.1211454 17.6762115,15.2643172 C17.2577093,16.1013216 17.0484581,16.9933921 17.0484581,17.9295154 C17.0484581,18.1167401 17.0594714,18.2709251 17.0704846,18.4140969 C17.2246696,20.2973568 18.2709251,22.0044053 19.8898678,22.9955947 C20.8259912,23.5682819 21.8942731,23.876652 22.9955947,23.876652 C26.2665198,23.876652 28.9317181,21.2114537 28.9317181,17.9405286 C28.9317181,17.0704846 28.7444934,16.2334802 28.3920705,15.4515419 C28.2819383,15.2312775 28.1718062,15.0220264 28.0506608,14.8348018 Z M23.6013216,21.7290749 L23.6013216,22.4118943 C23.6013216,22.6872247 23.3810573,22.907489 23.1057269,22.907489 C22.8303965,22.907489 22.5991189,22.6872247 22.5991189,22.4118943 L22.5991189,21.7070485 C21.7400881,21.6189427 20.9471366,21.3105727 20.253304,20.814978 C20.0550661,20.6938326 19.9449339,20.5066079 19.9449339,20.2643172 C19.9449339,19.9118943 20.2202643,19.6365639 20.5726872,19.6365639 C20.7048458,19.6365639 20.8480176,19.6806167 20.9471366,19.7577093 C21.4867841,20.1431718 22.0154185,20.407489 22.6431718,20.5286344 L22.6431718,18.2709251 C21.6519824,18.0066079 20.969163,17.6872247 20.5837004,17.19163 C20.3193833,16.8502203 20.1872247,16.4427313 20.1872247,15.9140969 C20.1872247,15.5506608 20.2753304,15.2202643 20.4295154,14.9449339 C20.6387665,14.5594714 20.969163,14.2621145 21.3986784,14.0418502 C21.7400881,13.876652 22.1475771,13.7665198 22.5991189,13.722467 L22.5991189,13.4801762 C22.5991189,13.2048458 22.8303965,12.9845815 23.1057269,12.9845815 C23.3810573,12.9845815 23.6013216,13.2048458 23.6013216,13.4801762 L23.6013216,13.7334802 C24.2731278,13.8105727 24.845815,14.030837 25.3744493,14.3612335 C25.561674,14.4603524 25.715859,14.6365639 25.715859,14.9118943 C25.715859,15.2643172 25.4295154,15.5396476 25.0770925,15.5396476 C24.9669604,15.5396476 24.845815,15.5066079 24.7356828,15.4405286 C24.339207,15.1982379 23.9427313,15.0330396 23.5572687,14.9339207 L23.5572687,17.1365639 C24.7577093,17.4339207 25.4955947,17.8634361 25.8259912,18.5022026 C25.9801762,18.7885463 26.0462555,19.1189427 26.0462555,19.4933921 C26.0352423,20.7488987 25.0550661,21.5859031 23.6013216,21.7290749 Z" id="Shape" fill="#FFFFFF"></path>
                <path d="M29.0528634,9.54845815 L29.0528634,9.54845815 C28.5022026,9.15198238 27.907489,8.79955947 27.2797357,8.52422907 C26.4977974,8.17180617 25.6828194,7.90748899 24.8348018,7.75330396 C24.2400881,7.64317181 23.6123348,7.58810573 22.9845815,7.58810573 C22.3127753,7.58810573 21.6409692,7.65418502 20.9911894,7.78634361 C20.1982379,7.94052863 19.4273128,8.18281938 18.7004405,8.52422907 C18.4030837,8.65638767 18.1057269,8.81057269 17.8193833,8.98678414 C15.5286344,10.30837 13.8436123,12.4339207 13.0837004,14.9559471 C12.7863436,15.9251101 12.6431718,16.9273128 12.6431718,17.9515419 C12.6431718,18.1497797 12.6431718,18.3259912 12.654185,18.5022026 C12.8634361,22.3898678 15.1982379,25.8039648 18.7555066,27.4008811 C20.0881057,27.9955947 21.5088106,28.3039648 22.9955947,28.3039648 C24.4713656,28.3039648 25.8920705,27.9955947 27.2246696,27.4008811 C30.9471366,25.7378855 33.3480176,22.0264317 33.3480176,17.9515419 C33.3370044,14.6365639 31.7400881,11.4977974 29.0528634,9.54845815 Z M22.9845815,25.4295154 C21.5969163,25.4295154 20.2422907,25.0440529 19.0748899,24.3281938 C17.0484581,23.0837004 15.7268722,20.9361233 15.5286344,18.5682819 C15.5066079,18.3810573 15.5066079,18.1828194 15.5066079,17.9515419 C15.5066079,16.7731278 15.7709251,15.6387665 16.2995595,14.592511 C16.3876652,14.4052863 16.4867841,14.2290749 16.5969163,14.0638767 C16.6079295,14.0418502 16.6189427,14.030837 16.6299559,14.0088106 C18.0066079,11.7951542 20.3854626,10.4735683 22.9845815,10.4735683 C23.6563877,10.4735683 24.3281938,10.561674 24.9669604,10.7378855 C26.7951542,11.2334802 28.3480176,12.4008811 29.3502203,14.0088106 C29.3612335,14.030837 29.3722467,14.0418502 29.3832599,14.0638767 C29.5264317,14.2951542 29.6696035,14.5484581 29.7907489,14.8237885 C30.2422907,15.8039648 30.4735683,16.8612335 30.4735683,17.9515419 C30.4735683,22.0704846 27.1145374,25.4295154 22.9845815,25.4295154 Z" id="Shape" fill="#1B73E8"></path>
                <path d="M29.9559471,8.30396476 L29.9559471,8.30396476 C29.3171806,7.84140969 28.6343612,7.44493392 27.9185022,7.12555066 C27.0264317,6.71806167 26.0792952,6.42070485 25.1101322,6.24449339 C23.6784141,5.98017621 22.1255507,5.99118943 20.6938326,6.27753304 C19.7907489,6.45374449 18.8986784,6.74008811 18.0506608,7.12555066 C17.7092511,7.27973568 17.3678414,7.45594714 17.0264317,7.65418502 C14.3942731,9.17400881 12.4559471,11.6189427 11.5859031,14.5154185 C11.2555066,15.6277533 11.0792952,16.784141 11.0792952,17.9625551 C11.0792952,18.1828194 11.0903084,18.4030837 11.1013216,18.6013216 C11.3325991,23.0726872 14.0198238,26.9933921 18.1167401,28.8215859 C19.6475771,29.5154185 21.2885463,29.8568282 22.9845815,29.8568282 C24.6806167,29.8568282 26.3215859,29.5044053 27.8524229,28.8215859 C32.1255507,26.9052863 34.8788546,22.6431718 34.8788546,17.9625551 C34.8788546,14.1409692 33.0396476,10.5286344 29.9559471,8.30396476 Z M27.2246696,27.3898678 C25.8920705,27.9845815 24.4713656,28.2929515 22.9955947,28.2929515 C21.5198238,28.2929515 20.0881057,27.9845815 18.7555066,27.3898678 C15.1982379,25.7929515 12.8634361,22.3788546 12.654185,18.4911894 C12.6431718,18.314978 12.6431718,18.1387665 12.6431718,17.9405286 C12.6431718,16.9162996 12.7863436,15.9030837 13.0837004,14.9449339 C13.8436123,12.4229075 15.5286344,10.2973568 17.8193833,8.97577093 C18.1167401,8.81057269 18.4140969,8.65638767 18.7004405,8.51321586 C19.438326,8.18281938 20.2092511,7.92951542 20.9911894,7.7753304 C21.6409692,7.64317181 22.3127753,7.57709251 22.9845815,7.57709251 C23.6123348,7.57709251 24.2290749,7.63215859 24.8348018,7.74229075 C25.6828194,7.89647577 26.4977974,8.14977974 27.2797357,8.51321586 C27.8964758,8.79955947 28.4911894,9.14096916 29.0528634,9.53744493 L29.0528634,9.53744493 C31.7400881,11.4867841 33.3480176,14.6145374 33.3480176,17.9295154 C33.3370044,22.0154185 30.9361233,25.7268722 27.2246696,27.3898678 Z" id="Shape" fill="#101111"></path>
                <path d="M29.3832599,14.0528634 C29.3722467,14.030837 29.3612335,14.0198238 29.3502203,13.9977974 C28.3480176,12.3898678 26.7951542,11.222467 24.9669604,10.7268722 C24.3281938,10.5506608 23.6674009,10.4625551 22.9845815,10.4625551 C20.3744493,10.4625551 18.0066079,11.784141 16.6299559,13.9977974 C16.6189427,14.0198238 16.6079295,14.030837 16.5969163,14.0528634 C16.4867841,14.2180617 16.3876652,14.4052863 16.2995595,14.5814978 C15.7709251,15.6277533 15.5066079,16.7621145 15.5066079,17.9405286 C15.5066079,18.1718062 15.5176211,18.3810573 15.5286344,18.5572687 C15.715859,20.9140969 17.0484581,23.0726872 19.0748899,24.3171806 C20.253304,25.0440529 21.5969163,25.4185022 22.9845815,25.4185022 C27.1145374,25.4185022 30.4625551,22.0594714 30.4625551,17.9405286 C30.4625551,16.8502203 30.2312775,15.7929515 29.7797357,14.8127753 C29.6585903,14.5484581 29.5264317,14.2951542 29.3832599,14.0528634 Z M22.9845815,23.8876652 C21.8832599,23.8876652 20.814978,23.5903084 19.8788546,23.0066079 C18.2709251,22.0154185 17.2136564,20.30837 17.0594714,18.4251101 C17.0484581,18.2819383 17.0374449,18.1277533 17.0374449,17.9405286 C17.0374449,17.0044053 17.246696,16.1013216 17.6651982,15.2753304 C17.7422907,15.1211454 17.8193833,14.9779736 17.907489,14.845815 C17.9185022,14.8348018 17.9185022,14.8237885 17.9295154,14.8127753 C19.0198238,13.061674 20.9030837,12.0154185 22.9735683,12.0154185 C23.5132159,12.0154185 24.0418502,12.0814978 24.5484581,12.2246696 C25.9911894,12.6211454 27.2246696,13.5352423 28.0176211,14.8127753 C28.0286344,14.8237885 28.0286344,14.8348018 28.0396476,14.845815 C28.160793,15.0330396 28.2709251,15.2422907 28.3700441,15.4735683 C28.7334802,16.2555066 28.9096916,17.092511 28.9096916,17.9625551 C28.9317181,21.222467 26.2665198,23.8876652 22.9845815,23.8876652 Z" id="Shape" fill="#101111"></path>
                <path d="M23.5462555,17.1255507 L23.5462555,14.9229075 C23.9317181,15.0110132 24.3281938,15.1872247 24.7246696,15.4295154 C24.8348018,15.4955947 24.9559471,15.5286344 25.0660793,15.5286344 C25.4185022,15.5286344 25.7048458,15.253304 25.7048458,14.9008811 C25.7048458,14.6255507 25.5396476,14.4603524 25.3634361,14.3502203 C24.8348018,14.0198238 24.2621145,13.7995595 23.5903084,13.722467 L23.5903084,13.469163 C23.5903084,13.1938326 23.3700441,12.9735683 23.0947137,12.9735683 C22.8193833,12.9735683 22.5881057,13.1938326 22.5881057,13.469163 L22.5881057,13.7114537 C22.1365639,13.7444934 21.7290749,13.8546256 21.3876652,14.030837 C20.9581498,14.2400881 20.6277533,14.5484581 20.4185022,14.9339207 C20.2643172,15.2202643 20.1762115,15.5506608 20.1762115,15.9030837 C20.1762115,16.4317181 20.30837,16.839207 20.5726872,17.1806167 C20.9581498,17.6762115 21.6409692,18.0066079 22.6321586,18.2599119 L22.6321586,20.5176211 C22.0044053,20.407489 21.4757709,20.1431718 20.9361233,19.746696 C20.8370044,19.6696035 20.6938326,19.6255507 20.561674,19.6255507 C20.2092511,19.6255507 19.9339207,19.9008811 19.9339207,20.253304 C19.9339207,20.4955947 20.0440529,20.6718062 20.2422907,20.8039648 C20.9361233,21.2995595 21.7290749,21.6079295 22.5881057,21.6960352 L22.5881057,22.4008811 C22.5881057,22.6762115 22.8193833,22.8964758 23.0947137,22.8964758 C23.3700441,22.8964758 23.5903084,22.6762115 23.5903084,22.4008811 L23.5903084,21.7180617 C25.0440529,21.5859031 26.0352423,20.7488987 26.0352423,19.4823789 C26.0352423,19.1079295 25.969163,18.777533 25.814978,18.4911894 C25.4845815,17.8634361 24.7577093,17.4339207 23.5462555,17.1255507 Z M22.6431718,16.8942731 C22.4669604,16.839207 22.3127753,16.7731278 22.1806167,16.7180617 C22.1806167,16.7180617 22.1806167,16.7180617 22.1806167,16.7180617 C21.6740088,16.4757709 21.5418502,16.2114537 21.5418502,15.8259912 C21.5418502,15.3193833 21.9052863,14.9339207 22.6431718,14.8678414 L22.6431718,16.8942731 Z M23.5462555,20.5726872 L23.5462555,18.4911894 C23.5682819,18.5022026 23.5792952,18.5022026 23.6013216,18.5132159 C24.438326,18.7885463 24.6806167,19.0859031 24.6806167,19.5814978 C24.6806167,20.1211454 24.284141,20.4845815 23.5462555,20.5726872 Z" id="Shape" fill="#101111"></path>
                <path d="M40.3854626,0.396475771 C40.2422907,0.154185022 39.9889868,0.0110132159 39.7136564,0.0110132159 L6.25550661,0.0110132159 C5.98017621,0.0110132159 5.72687225,0.154185022 5.58370044,0.396475771 L0.297356828,9.49339207 C0.154185022,9.73568282 0.154185022,10.0220264 0.297356828,10.2643172 C0.440528634,10.5066079 0.693832599,10.6497797 0.969162996,10.6497797 L5.72687225,10.6497797 L5.72687225,34.9229075 L0.803964758,34.9229075 C0.374449339,34.9229075 0.0330396476,35.2643172 0.0330396476,35.6938326 L0.0330396476,49.2070485 C0.0330396476,49.6365639 0.374449339,49.9779736 0.803964758,49.9779736 L8.08370044,49.9779736 C8.51321586,49.9779736 8.85462555,49.6365639 8.85462555,49.2070485 L8.85462555,47.1145374 L32.4669604,48.2378855 C32.4779736,48.2378855 32.4889868,48.2378855 32.5,48.2378855 C32.7422907,48.2378855 32.9625551,48.1277533 33.1057269,47.9405286 L42.6321586,35.6828194 C42.9845815,35.2312775 43.1718062,34.6806167 43.1718062,34.0969163 C43.1718062,33.1718062 42.6651982,32.3017621 41.8612335,31.8502203 C41.3546256,31.5638767 40.7929515,31.4647577 40.2422907,31.530837 L40.2422907,10.6497797 L45.0110132,10.6497797 C45.2863436,10.6497797 45.5396476,10.5066079 45.6828194,10.2643172 C45.8259912,10.0220264 45.814978,9.73568282 45.6828194,9.49339207 L40.3854626,0.396475771 Z M7.31277533,38.4361233 L7.31277533,46.3105727 L7.31277533,48.4361233 L1.57488987,48.4361233 L1.57488987,36.4757709 L6.49779736,36.4757709 L7.31277533,36.4757709 L7.31277533,38.4361233 Z M41.1013216,33.1938326 C41.4317181,33.3810573 41.6299559,33.722467 41.6299559,34.0969163 C41.6299559,34.3281938 41.5528634,34.5484581 41.4096916,34.7356828 L32.1365639,46.6740088 L8.85462555,45.5726872 L8.85462555,38.8215859 L16.3986784,33.3259912 L29.438326,35.715859 L29.4052863,35.9030837 L20.7819383,37.3127753 C20.4185022,37.3678414 20.154185,37.6762115 20.1321586,38.0286344 C20.1101322,38.3920705 20.3524229,38.722467 20.7048458,38.8105727 L31.3876652,41.7180617 C31.4207048,41.7290749 31.4537445,41.7290749 31.4867841,41.7400881 C31.4977974,41.7400881 31.5088106,41.7400881 31.5088106,41.7400881 C31.530837,41.7400881 31.5528634,41.7400881 31.5859031,41.7400881 C31.5859031,41.7400881 31.5969163,41.7400881 31.5969163,41.7400881 C31.6299559,41.7400881 31.6519824,41.7400881 31.685022,41.7290749 C31.6960352,41.7290749 31.7070485,41.7290749 31.7070485,41.7290749 C31.7290749,41.7290749 31.7511013,41.7180617 31.7731278,41.7180617 C31.784141,41.7180617 31.784141,41.7180617 31.7951542,41.7070485 C31.8281938,41.6960352 31.8502203,41.685022 31.8832599,41.6740088 C31.9052863,41.6629956 31.938326,41.6519824 31.9603524,41.6299559 C31.9713656,41.6299559 31.9713656,41.6189427 31.9823789,41.6189427 C32.0044053,41.6079295 32.0154185,41.5969163 32.0374449,41.5748899 C32.0484581,41.5638767 32.0484581,41.5638767 32.0594714,41.5528634 C32.0814978,41.530837 32.1035242,41.5088106 32.1255507,41.4867841 L39.8017621,33.3700441 C39.8348018,33.3259912 39.8788546,33.2929515 39.9229075,33.2599119 C40.2863436,33.0176211 40.7378855,32.9845815 41.1013216,33.1938326 Z M39.4713656,9.10792952 C39.0418502,9.10792952 38.7004405,9.44933921 38.7004405,9.87885463 L38.7004405,32.3348018 L31.3546256,40.1101322 L24.5484581,38.2599119 L30.2092511,37.3348018 C30.5396476,37.2797357 30.7929515,37.0264317 30.8480176,36.6960352 L31.0792952,35.2202643 C31.1453744,34.8127753 30.8700441,34.4162996 30.4515419,34.339207 L16.3546256,31.7511013 C16.1453744,31.7180617 15.9361233,31.7621145 15.7599119,31.8832599 L8.85462555,36.9162996 L8.85462555,35.7048458 C8.85462555,35.2753304 8.51321586,34.9339207 8.08370044,34.9339207 L7.26872247,34.9339207 L7.26872247,9.87885463 C7.26872247,9.44933921 6.92731278,9.10792952 6.49779736,9.10792952 L2.30176211,9.10792952 L6.69603524,1.55286344 L39.284141,1.55286344 L43.6784141,9.10792952 L39.4713656,9.10792952 Z" id="Shape" fill="#101111"></path>
            </g>
        </g>
    </g>
</svg>