<?xml version="1.0" encoding="UTF-8"?>
<svg width="70px" height="66px" viewBox="0 0 70 66" version="1.1" xmlns="http://www.w3.org/2000/svg" xmlns:xlink="http://www.w3.org/1999/xlink">
    <!-- Generator: Sketch 56 (81588) - https://sketch.com -->
    <title>iconfinder_trophy_2144189</title>
    <desc>Created with Sketch.</desc>
    <g id="Page-1" stroke="none" stroke-width="1" fill="none" fill-rule="evenodd">
        <g id="Create-tokens" transform="translate(-891.000000, -3061.000000)" fill-rule="nonzero">
            <g id="iconfinder_trophy_2144189" transform="translate(892.000000, 3062.000000)">
                <rect id="Rectangle" stroke="#4D4D4D" fill="#4EC3C7" x="12.5372752" y="58.1526897" width="42.4338481" height="6.26863484"></rect>
                <path d="M13.7427781,30.1094677 C13.7427781,30.1094677 0,24.5773003 0,8.66460387 C0,-0.979452258 13.7427781,-0.979452258 13.7427781,8.66460387 L13.7427781,30.1094677 Z" id="Path" stroke="#4D4D4D" fill="#FFFFFF"></path>
                <path d="M53.7656148,30.1094677 C53.7656148,30.1094677 68,24.5773003 68,8.66460387 C68,-0.979452258 53.7656148,-0.979452258 53.7656148,8.66460387 L53.7656148,30.1094677 Z" id="Path" stroke="#4D4D4D" fill="#FFFFFF"></path>
                <path d="M53.8098806,25.8130852 C53.8098806,25.4916974 53.7656148,0.288352903 53.7656148,0.288352903 L13.7427781,0.288352903 C13.7427781,0.288352903 13.6985123,25.4916755 13.6985123,25.8130852 C13.6985123,36.0963961 22.0047452,44.5707261 32.0382219,45.7717487 C33.1761256,45.9384622 34.3322508,45.9384622 35.4701545,45.7717487 C45.5036477,44.5707097 53.8098806,36.0963961 53.8098806,25.8130852 Z" id="Path" stroke="#4D4D4D" fill="#FFFFFF"></path>
                <path d="M39.5611935,44.8503871 C38.2319742,45.2942971 36.8613653,45.6029894 35.4701819,45.7717761 C34.3322886,45.9385059 33.1761701,45.9385059 32.0382768,45.7717761 C30.6467128,45.6029901 29.2757414,45.2941614 27.9462123,44.8499868 C27.9463139,50.4291026 24.8579276,55.5498277 19.9231719,58.1526568 L47.5851935,58.1526568 C42.6501007,55.5502519 39.5612981,50.4296032 39.5611935,44.8503871 Z" id="Path" stroke="#4D4D4D" fill="#FFFFFF"></path>
                <path d="M42.4402861,16.0043484 L37.1318387,15.2042845 C36.9504419,15.1767709 36.7941301,15.0619144 36.7136771,14.8970232 L34.3605645,10.0639287 C34.1510148,9.63329129 33.9259239,9.48048323 33.7964223,9.48048323 C33.6673977,9.48048323 33.4408919,9.63187645 33.2280465,10.0585161 L30.8245645,14.8668839 C30.7423766,15.0309836 30.5848362,15.144253 30.4031071,15.1699061 L25.0795681,15.9160471 C24.6058439,15.9824458 24.3901687,16.1491445 24.3496648,16.272049 C24.3096326,16.3944819 24.3826284,16.6565397 24.7235606,16.9918235 L26.8364961,19.0732048 L26.837911,19.0743839 L28.5543626,20.7642113 C28.6849872,20.8931977 28.7439525,21.0780999 28.7121171,21.2588948 L27.7764371,26.5527661 C27.6846097,27.072171 27.8117532,27.2723048 27.8522516,27.3212758 C27.9114123,27.3862818 27.9986961,27.418134 28.0858206,27.4065116 C28.2987094,27.3942419 28.5056311,27.3315353 28.6895181,27.2235642 L33.4606887,24.7461542 C33.6237008,24.6614924 33.8179333,24.6624604 33.9800935,24.7487426 L36.0972626,25.8756068 L36.1165713,25.8854777 L38.7263071,27.2748713 C38.9108808,27.3859585 39.1196559,27.4505948 39.3347097,27.4632313 C39.4199252,27.4743814 39.5052098,27.4431689 39.5630965,27.3796461 C39.6045381,27.3311413 39.7321477,27.1317148 39.6464513,26.613001 L39.4029948,25.1499042 L38.7220516,21.3154061 C38.6902929,21.13483 38.7492639,20.9501742 38.8798061,20.82143 L40.5712842,19.1480816 L42.7788713,17.0794119 C43.12169,16.7488387 43.1984423,16.4860571 43.1593587,16.3627029 C43.1207358,16.2412132 42.9088335,16.0747448 42.4402861,16.0043484 Z" id="Path" fill="#4EC3C7"></path>
            </g>
        </g>
    </g>
</svg>