<?xml version="1.0" encoding="UTF-8"?>
<svg width="37px" height="50px" viewBox="0 0 37 50" version="1.1" xmlns="http://www.w3.org/2000/svg" xmlns:xlink="http://www.w3.org/1999/xlink">
    <!-- Generator: Sketch 60.1 (88133) - https://sketch.com -->
    <title>Digital Cash</title>
    <desc>Created with Sketch.</desc>
    <g id="Page-1" stroke="none" stroke-width="1" fill="none" fill-rule="evenodd">
        <g id="Create-tokens-Copy" transform="translate(-865.000000, -1413.000000)">
            <g id="Digital-Cash" transform="translate(865.000000, 1413.000000)">
                <g id="iconfinder_dollar-finance-money-32_4069754-(1)" transform="translate(0.000000, 6.896552)" fill-rule="nonzero">
                    <path d="M25.0057728,41.708359 C26.1122229,41.708359 27.0070043,40.8135776 27.0070043,39.7071275 L27.0070043,37.6962746 L20.9552032,37.6962746 L20.9552032,40.0342518 C20.9552032,40.4094828 20.6569427,40.7077432 20.2817118,40.7077432 L8.10113916,40.7077432 C7.72590825,40.7077432 7.42764778,40.4094828 7.42764778,40.0342518 L7.42764778,37.6962746 L1.37584667,37.6962746 L1.37584667,39.7071275 C1.37584667,40.8135776 2.27062808,41.708359 3.3770782,41.708359 L25.0057728,41.708359 Z" id="Path" fill="#E4EEEF"></path>
                    <polygon id="Path" fill="#FFFFFF" points="19.6082204 37.0227833 19.6082204 36.1472445 17.9437346 36.1472445 9.92918719 36.1472445 8.77463054 36.1472445 8.77463054 37.0227833 8.77463054 39.3607605 19.6082204 39.3607605"></polygon>
                    <path d="M10.5257081,24.4477371 C10.0254002,24.5631927 9.56357759,24.822968 9.18834667,25.1981989 C8.64955357,25.7273707 8.3512931,26.4393473 8.3512931,27.1994304 L8.3512931,32.6643319 L10.2274477,34.809883 L17.6647167,34.809883 L20.0315579,32.4430419 L20.0315579,26.5066964 L14.8841595,24.4958436 C14.6243842,24.3996305 14.4512007,24.1494766 14.4512007,23.8704587 L14.4512007,18.492149 L14.4512007,16.7795567 C14.4512007,16.4331897 14.3165025,16.1156866 14.0759698,15.8751539 C13.8354372,15.6346213 13.5083128,15.499923 13.1715671,15.499923 C12.4595905,15.499923 11.8919335,16.0772014 11.8919335,16.7795567 L11.8919335,18.492149 L11.8919335,26.8819273 C11.8919335,27.2571583 11.593673,27.5554187 11.2184421,27.5554187 C11.2184421,27.5554187 11.2184421,27.5554187 11.2184421,27.5554187 L11.2184421,27.5554187 C10.9875308,27.5554187 10.7854834,27.4399631 10.6604064,27.2571583 C10.583436,27.1513239 10.5449507,27.0166256 10.5449507,26.8819273 L10.5257081,24.4477371 Z" id="Path" fill="#FFFFFF"></path>
                    <path d="M19.8391318,17.8090363 C20.4548953,17.8090363 21.0321736,17.5685037 21.4747537,17.135545 C21.9077124,16.7025862 22.1482451,16.1156866 22.1482451,15.499923 C22.1482451,14.2299107 21.1091441,13.1908097 19.8391318,13.1908097 L8.54371921,13.1908097 C7.92795567,13.1908097 7.35067734,13.4313424 6.90809729,13.8643011 C6.47513855,14.2972599 6.23460591,14.8841595 6.23460591,15.499923 C6.23460591,16.7699353 7.2737069,17.8090363 8.54371921,17.8090363 L10.5353294,17.8090363 L10.5353294,16.7699353 C10.5353294,15.3171182 11.71875,14.143319 13.1619458,14.143319 C13.8643011,14.143319 14.5281712,14.4127155 15.0188578,14.9130234 C15.5191656,15.4133313 15.7885622,16.06758 15.7885622,16.7699353 L15.7885622,17.8090363 L19.8391318,17.8090363 Z" id="Path" fill="#1B73E8"></path>
                    <path d="M7.42764778,35.4737531 C7.42764778,35.0985222 7.72590825,34.8002617 8.10113916,34.8002617 L8.44750616,34.8002617 L7.17749384,33.3570659 C7.1005234,33.2608528 7.04279557,33.1550185 7.02355296,33.0299415 C7.01393165,32.9914563 7.01393165,32.9529711 7.01393165,32.9048645 L7.01393165,27.1898091 C7.01393165,26.0737377 7.44689039,25.0250154 8.24545874,24.2360683 C8.8804649,23.6106835 9.67903325,23.2065887 10.5449507,23.0718904 L10.5449507,19.1560191 L8.55334052,19.1560191 C6.53286638,19.1560191 4.89724446,17.5203972 4.89724446,15.499923 C4.89724446,14.5281712 5.28209667,13.6045259 5.96520936,12.9117919 C6.65794335,12.2190579 7.57196736,11.843827 8.55334052,11.843827 L19.8391318,11.843827 C21.8596059,11.843827 23.4952278,13.4794489 23.4952278,15.499923 C23.4952278,16.4812962 23.1103756,17.3953202 22.4272629,18.0880542 C21.7441502,18.7807882 20.8205049,19.1560191 19.8391318,19.1560191 L15.7981835,19.1560191 L15.7981835,23.3990148 L20.9455819,25.4098676 C21.2053571,25.5060807 21.3785406,25.7562346 21.3785406,26.0352525 L21.3785406,32.7028171 C21.3785406,32.8856219 21.3111915,33.0491841 21.1764932,33.1838824 L19.5697352,34.7906404 L20.2817118,34.7906404 C20.6569427,34.7906404 20.9552032,35.0889009 20.9552032,35.4641318 L20.9552032,36.3396706 L27.0070043,36.3396706 L27.0070043,3.39632081 C27.0070043,2.28987069 26.1122229,1.39508929 25.0057728,1.39508929 L3.3770782,1.39508929 C2.27062808,1.39508929 1.37584667,2.28987069 1.37584667,3.39632081 L1.37584667,36.3492919 L7.42764778,36.3492919 L7.42764778,35.4737531 Z" id="Path" fill="#FFFFFF"></path>
                    <path d="M25.0057728,43.0553417 C26.8530634,43.0553417 28.3539871,41.5544181 28.3539871,39.7071275 L28.3539871,37.0227833 L28.3539871,3.39632081 C28.3539871,1.54903017 26.8530634,0.0481065271 25.0057728,0.0481065271 L3.3770782,0.0481065271 C1.52978756,0.0481065271 0.0288639163,1.54903017 0.0288639163,3.39632081 L0.0288639163,37.0227833 L0.0288639163,39.7071275 C0.0288639163,41.5544181 1.52978756,43.0553417 3.3770782,43.0553417 L25.0057728,43.0553417 Z M1.37584667,3.39632081 C1.37584667,2.28987069 2.27062808,1.39508929 3.3770782,1.39508929 L25.0057728,1.39508929 C26.1122229,1.39508929 27.0070043,2.28987069 27.0070043,3.39632081 L27.0070043,36.3492919 L20.9552032,36.3492919 L20.9552032,35.4737531 C20.9552032,35.0985222 20.6569427,34.8002617 20.2817118,34.8002617 L19.5697352,34.8002617 L21.1764932,33.1935037 C21.3015702,33.0684267 21.3785406,32.8952432 21.3785406,32.7124384 L21.3785406,26.0448738 C21.3785406,25.7658559 21.2053571,25.515702 20.9455819,25.4194889 L15.7981835,23.4086361 L15.7981835,19.1656404 L19.8391318,19.1656404 C20.8108836,19.1656404 21.7345289,18.7807882 22.4272629,18.0976755 C23.1199969,17.4145628 23.4952278,16.4909175 23.4952278,15.5095443 C23.4952278,13.4890702 21.8596059,11.8534483 19.8391318,11.8534483 L8.54371921,11.8534483 C7.57196736,11.8534483 6.64832204,12.2383005 5.95558805,12.9214132 C5.26285406,13.6141472 4.88762315,14.5281712 4.88762315,15.5095443 C4.88762315,17.5300185 6.52324507,19.1656404 8.54371921,19.1656404 L10.5353294,19.1656404 L10.5353294,23.0815117 C9.66941195,23.21621 8.8708436,23.6106835 8.23583744,24.2456897 C7.43726909,25.0346367 7.00431034,26.083359 7.00431034,27.1994304 L7.00431034,32.9144858 C7.00431034,32.9529711 7.00431034,32.9914563 7.01393165,33.0395628 C7.03317426,33.1550185 7.09090209,33.2704741 7.16787254,33.3666872 L8.43788485,34.809883 L8.09151786,34.809883 C7.71628695,34.809883 7.41802648,35.1081435 7.41802648,35.4833744 L7.41802648,36.3589132 L1.37584667,36.3589132 L1.37584667,3.39632081 Z M15.0188578,14.9130234 C14.5185499,14.4127155 13.8643011,14.143319 13.1619458,14.143319 C11.7091287,14.143319 10.5353294,15.3267395 10.5353294,16.7699353 L10.5353294,17.8090363 L8.54371921,17.8090363 C7.2737069,17.8090363 6.23460591,16.7699353 6.23460591,15.499923 C6.23460591,14.8841595 6.47513855,14.3068812 6.90809729,13.8643011 C7.34105603,13.4313424 7.92795567,13.1908097 8.54371921,13.1908097 L19.8295105,13.1908097 C21.0995228,13.1908097 22.1386238,14.2299107 22.1386238,15.499923 C22.1386238,16.1156866 21.8980911,16.6929649 21.4651324,17.135545 C21.0321736,17.5685037 20.445274,17.8090363 19.8295105,17.8090363 L15.7885622,17.8090363 L15.7885622,16.7699353 C15.7981835,16.0772014 15.5191656,15.4133313 15.0188578,14.9130234 Z M10.6507851,27.2571583 C10.7758621,27.4399631 10.9779095,27.5554187 11.2088208,27.5554187 L11.2088208,27.5554187 C11.2088208,27.5554187 11.2088208,27.5554187 11.2088208,27.5554187 C11.5840517,27.5554187 11.8823122,27.2571583 11.8823122,26.8819273 L11.8823122,18.492149 L11.8823122,16.7795567 C11.8823122,16.06758 12.4595905,15.499923 13.1619458,15.499923 C13.5083128,15.499923 13.8258159,15.6346213 14.0663485,15.8751539 C14.3068812,16.1156866 14.4415794,16.442811 14.4415794,16.7795567 L14.4415794,18.492149 L14.4415794,23.8704587 C14.4415794,24.1494766 14.6147629,24.3996305 14.8745382,24.4958436 L20.0219366,26.5066964 L20.0219366,32.4430419 L17.6550954,34.809883 L10.2178264,34.809883 L8.3416718,32.6643319 L8.3416718,27.1994304 C8.3416718,26.4393473 8.63993227,25.7273707 9.17872537,25.1981989 C9.55395628,24.822968 10.0157789,24.572814 10.5160868,24.4477371 L10.5257081,26.8819273 C10.5353294,27.0166256 10.5738147,27.1513239 10.6507851,27.2571583 Z M8.77463054,37.0227833 L8.77463054,36.1472445 L9.92918719,36.1472445 L17.9437346,36.1472445 L19.6082204,36.1472445 L19.6082204,37.0227833 L19.6082204,39.3607605 L8.77463054,39.3607605 L8.77463054,37.0227833 Z M1.37584667,39.7071275 L1.37584667,37.6962746 L7.42764778,37.6962746 L7.42764778,40.0342518 C7.42764778,40.4094828 7.72590825,40.7077432 8.10113916,40.7077432 L20.2913331,40.7077432 C20.666564,40.7077432 20.9648245,40.4094828 20.9648245,40.0342518 L20.9648245,37.6962746 L27.0166256,37.6962746 L27.0166256,39.7071275 C27.0166256,40.8135776 26.1218442,41.708359 25.0153941,41.708359 L3.3770782,41.708359 C2.27062808,41.708359 1.37584667,40.8135776 1.37584667,39.7071275 Z" id="Shape" fill="#2C3944"></path>
                </g>
                <g id="Group-20" transform="translate(18.965517, 0.000000)">
                    <circle id="Oval" fill="#FFFFFF" cx="8.18965517" cy="8.18965517" r="8.18965517"></circle>
                    <path d="M9.31604873,7.22957269 L9.31604873,5.23064926 C9.67418918,5.31393773 10.0240008,5.47218584 10.3904701,5.68873588 C10.4987451,5.75536666 10.5986913,5.7803532 10.7069663,5.7803532 C11.0317913,5.7803532 11.2899856,5.53048777 11.2899856,5.20566272 C11.2899856,4.95579729 11.1400664,4.79754918 10.9734894,4.70593186 C10.4904162,4.40609334 9.97402769,4.206201 9.35769297,4.13124137 L9.35769297,3.89803363 C9.35769297,3.64816821 9.15780063,3.44827586 8.9079352,3.44827586 C8.65806977,3.44827586 8.44984858,3.64816821 8.44984858,3.89803363 L8.44984858,4.11458367 C7.15054834,4.22285869 6.25936165,4.98911268 6.25936165,6.10517826 C6.25936165,7.27954578 6.96731369,7.85423627 8.49149281,8.25402095 L8.49149281,10.3112463 C7.91680233,10.2029713 7.44205801,9.96976357 6.950656,9.61162312 C6.85903868,9.53666349 6.73410596,9.49501925 6.60917325,9.49501925 C6.28434819,9.49501925 6.03448276,9.74488468 6.03448276,10.0697097 C6.03448276,10.2862598 6.14275778,10.4528367 6.31766358,10.5694406 C6.950656,11.0191984 7.67526574,11.3023792 8.45817742,11.3856677 L8.45817742,12.0353178 C8.45817742,12.2851832 8.66639861,12.4850756 8.91626404,12.4850756 C9.16612947,12.4850756 9.36602182,12.2851832 9.36602182,12.0353178 L9.36602182,11.4106542 C10.6903086,11.2857215 11.5898241,10.5277964 11.5898241,9.37841539 C11.5731664,8.25402095 10.8985298,7.62102853 9.31604873,7.22957269 Z M8.49149281,7.00469381 C7.69192344,6.74649953 7.4920311,6.47164756 7.4920311,6.03854748 C7.4920311,5.58046086 7.825185,5.22232041 8.49149281,5.16401848 L8.49149281,7.00469381 Z M9.31604873,10.3528906 L9.31604873,8.4539133 C10.1156181,8.70377873 10.3488258,8.98695955 10.3488258,9.44504617 C10.340497,9.94477703 9.98235654,10.2779309 9.31604873,10.3528906 Z" id="Shape" fill="#2C3944" fill-rule="nonzero"></path>
                    <path d="M9.01131466,3.01980663e-14 C7.8471367,3.01980663e-14 6.72144397,0.240532635 5.66310037,0.721597906 C2.74784483,2.03971675 0.862068966,4.95497229 0.862068966,8.158867 C0.862068966,8.24545874 0.862068966,8.3416718 0.862068966,8.42826355 C0.929418103,10.5449507 1.8049569,12.536561 3.33474446,14.0086207 C4.86453202,15.4903017 6.87538485,16.3081127 9.01131466,16.3081127 C13.5044643,16.3081127 17.1605603,12.6520166 17.1605603,8.158867 C17.1605603,3.66571736 13.5044643,3.01980663e-14 9.01131466,3.01980663e-14 Z M9.01131466,14.9611299 C5.31673337,14.9611299 2.33412869,12.0747383 2.20905172,8.38015702 C2.20905172,8.30318658 2.20905172,8.23583744 2.20905172,8.158867 C2.20905172,5.48414409 3.77732451,3.04995382 6.21151478,1.953125 C7.09667488,1.55865148 8.03956281,1.35660406 9.01131466,1.35660406 C12.7636238,1.35660406 15.8135776,4.40655788 15.8135776,8.158867 C15.8135776,11.9111761 12.7636238,14.9611299 9.01131466,14.9611299 Z" id="Shape" fill="#2C3944" fill-rule="nonzero"></path>
                </g>
            </g>
        </g>
    </g>
</svg>