<?xml version="1.0" encoding="UTF-8"?>
<svg width="530px" height="447px" viewBox="0 0 530 447" version="1.1" xmlns="http://www.w3.org/2000/svg" xmlns:xlink="http://www.w3.org/1999/xlink">
    <!-- Generator: Sketch 58 (84663) - https://sketch.com -->
    <title>Group</title>
    <desc>Created with Sketch.</desc>
    <g id="Page-1" stroke="none" stroke-width="1" fill="none" fill-rule="evenodd">
        <g id="Artboard" transform="translate(-758.000000, -168.000000)">
            <g id="Group" transform="translate(758.000000, 168.000000)">
                <g id="undraw_apps_m7mh" transform="translate(14.616217, 0.000000)" fill-rule="nonzero">
                    <path d="M25.4237047,372.161279 L24.8537473,371.947827 C24.7285074,371.90068 12.263642,367.129703 6.42456471,356.311669 C0.58522195,345.49313 3.44447718,332.467576 3.47403473,332.337536 L3.60861029,331.744332 L4.1782862,331.957784 C4.30352612,332.004931 16.7681261,336.775908 22.6074688,347.593942 C28.4468063,358.412481 25.5875511,371.438035 25.5579935,371.568075 L25.4237047,372.161279 Z M7.35961044,355.808095 C12.2963432,364.954789 22.1464645,369.643409 24.6421873,370.713762 C25.1167012,368.041508 26.6047961,357.235404 21.6724762,348.097516 C16.7406714,338.960663 6.8866524,334.264791 4.38989407,333.191849 C3.9151252,335.865658 2.42754545,346.670727 7.35961044,355.808095 L7.35961044,355.808095 Z" id="Shape" fill="#FFFFFF"></path>
                    <rect id="Rectangle" fill="#00565E" x="76.2416736" y="14.9762896" width="321.277759" height="342.733144"></rect>
                    <path d="M406.812591,372.685723 L66.9485152,372.685723 C64.3101908,372.685723 62.1691767,370.546822 62.1691767,367.911102 L62.1691767,4.77462137 C62.1691767,2.13893968 64.3102296,0 66.9485152,0 L406.812591,0 C409.450915,0 411.59193,2.13890216 411.59193,4.77462137 L411.59193,367.911102 C411.59193,370.54686 409.450953,372.685723 406.812591,372.685723 Z M66.9485152,1.06102697 C64.8964809,1.06102697 63.2312519,2.72461243 63.2312519,4.77462137 L63.2312519,367.911102 C63.2312519,369.961073 64.8965185,371.624696 66.9485152,371.624696 L406.812591,371.624696 C408.864549,371.624696 410.529855,369.961035 410.529855,367.911102 L410.529855,4.77462137 C410.529855,2.72465116 408.864587,1.06102697 406.812591,1.06102697 L66.9485152,1.06102697 Z" id="Shape" fill="#FFFFFF"></path>
                    <path d="M353.974348,349.608387 L120.317796,349.608387 C117.679471,349.605419 115.541428,347.469486 115.538457,344.833765 L115.538457,306.636795 C115.541428,304.001074 117.679471,301.865141 120.317796,301.862173 L353.974348,301.862173 C356.61271,301.86505 358.750807,304.001037 358.753687,306.636795 L358.753687,344.833765 C358.750807,347.469523 356.61271,349.60551 353.974348,349.608387 Z M120.317796,302.9232 C118.2658,302.925591 116.600533,304.586824 116.600533,306.636795 L116.600533,344.833765 C116.600533,346.883737 118.265799,348.544971 120.317796,348.54736 L353.974348,348.54736 C356.026306,348.544878 357.689127,346.883698 357.691612,344.833765 L357.691612,306.636795 C357.689124,304.586863 356.026305,302.925685 353.974348,302.9232 L120.317796,302.9232 Z" id="Shape" fill="#FFFFFF"></path>
                    <path d="M173.421558,343.242225 L144.745526,343.242225 C142.986617,343.24031 141.561218,341.816317 141.559301,340.059144 L141.559301,311.411416 C141.561221,309.654244 142.986618,308.230253 144.745526,308.228335 L173.421558,308.228335 C175.180465,308.230256 176.605861,309.654245 176.607784,311.411416 L176.607784,340.059144 C176.605864,341.816316 175.180466,343.240307 173.421558,343.242225 L173.421558,343.242225 Z M144.745526,309.289362 C143.572909,309.29061 142.622626,310.239955 142.621376,311.411416 L142.621376,340.059144 C142.622623,341.230606 143.572907,342.179952 144.745526,342.181198 L173.421558,342.181198 C174.594176,342.179949 175.544459,341.230605 175.545708,340.059144 L175.545708,311.411416 C175.544456,310.239957 174.594174,309.290613 173.421558,309.289362 L144.745526,309.289362 Z" id="Shape" fill="#FFFFFF"></path>
                    <path d="M225.463244,343.242225 L196.787213,343.242225 C195.028304,343.24031 193.602904,341.816317 193.600987,340.059144 L193.600987,311.411416 C193.602907,309.654244 195.028305,308.230253 196.787213,308.228335 L225.463244,308.228335 C227.222151,308.230256 228.647547,309.654245 228.64947,311.411416 L228.64947,340.059144 C228.64755,341.816316 227.222152,343.240307 225.463244,343.242225 L225.463244,343.242225 Z M196.787213,309.289362 C195.614595,309.29061 194.664312,310.239955 194.663063,311.411416 L194.663063,340.059144 C194.664309,341.230606 195.614594,342.179952 196.787213,342.181198 L225.463244,342.181198 C226.635862,342.179949 227.586145,341.230605 227.587395,340.059144 L227.587395,311.411416 C227.586142,310.239957 226.635861,309.290613 225.463244,309.289362 L196.787213,309.289362 Z" id="Shape" fill="#FFFFFF"></path>
                    <path d="M277.504931,343.242225 L248.8289,343.242225 C247.06999,343.24031 245.644591,341.816317 245.642674,340.059144 L245.642674,311.411416 C245.644594,309.654244 247.069992,308.230253 248.8289,308.228335 L277.504931,308.228335 C279.263838,308.230256 280.689234,309.654245 280.691157,311.411416 L280.691157,340.059144 C280.689237,341.816316 279.263839,343.240307 277.504931,343.242225 L277.504931,343.242225 Z M248.8289,309.289362 C247.656282,309.29061 246.705999,310.239955 246.704749,311.411416 L246.704749,340.059144 C246.705996,341.230606 247.656281,342.179952 248.8289,342.181198 L277.504931,342.181198 C278.677549,342.179949 279.627832,341.230605 279.629082,340.059144 L279.629082,311.411416 C279.627829,310.239957 278.677548,309.290613 277.504931,309.289362 L248.8289,309.289362 Z" id="Shape" fill="#FFFFFF"></path>
                    <path d="M329.546618,343.242225 L300.870586,343.242225 C299.111677,343.24031 297.686278,341.816317 297.684361,340.059144 L297.684361,311.411416 C297.686281,309.654244 299.111678,308.230253 300.870586,308.228335 L329.546618,308.228335 C331.305525,308.230256 332.730921,309.654245 332.732843,311.411416 L332.732843,340.059144 C332.730924,341.816316 331.305526,343.240307 329.546618,343.242225 L329.546618,343.242225 Z M300.870586,309.289362 C299.697968,309.29061 298.747686,310.239955 298.746436,311.411416 L298.746436,340.059144 C298.747683,341.230606 299.697967,342.179952 300.870586,342.181198 L329.546618,342.181198 C330.719268,342.180028 331.669597,341.230637 331.670768,340.059144 L331.670768,311.411416 C331.669597,310.239923 330.719268,309.290532 329.546618,309.289362 L300.870586,309.289362 Z" id="Shape" fill="#FFFFFF"></path>
                    <rect id="Rectangle" fill="#FFFFFF" x="115.803976" y="57.8259699" width="33.9864076" height="33.9528631" rx="5"></rect>
                    <rect id="Rectangle" fill="#FFFFFF" x="167.845663" y="57.8259699" width="33.9864076" height="33.9528631" rx="5"></rect>
                    <rect id="Rectangle" fill="#FFFFFF" x="219.887349" y="57.8259699" width="33.9864076" height="33.9528631" rx="5"></rect>
                    <rect id="Rectangle" fill="#FFFFFF" x="271.929036" y="57.8259699" width="33.9864076" height="33.9528631" rx="5"></rect>
                    <rect id="Rectangle" fill="#FFFFFF" x="323.970723" y="57.8259699" width="33.9864076" height="33.9528631" rx="5"></rect>
                    <rect id="Rectangle" fill="#FFFFFF" x="116.069495" y="127.85375" width="33.9864076" height="33.9528631" rx="5"></rect>
                    <rect id="Rectangle" fill="#FFFFFF" x="168.111182" y="127.85375" width="33.9864076" height="33.9528631" rx="5"></rect>
                    <rect id="Rectangle" fill="#FFFFFF" x="220.152868" y="127.85375" width="33.9864076" height="33.9528631" rx="5"></rect>
                    <rect id="Rectangle" fill="#FFFFFF" x="272.194555" y="127.85375" width="33.9864076" height="33.9528631" rx="5"></rect>
                    <rect id="Rectangle" fill="#FFFFFF" x="324.236242" y="127.85375" width="33.9864076" height="33.9528631" rx="5"></rect>
                    <rect id="Rectangle" fill="#FFFFFF" x="116.335014" y="197.88153" width="33.9864076" height="33.9528631" rx="5"></rect>
                    <rect id="Rectangle" fill="#FFFFFF" x="168.3767" y="197.88153" width="33.9864076" height="33.9528631" rx="5"></rect>
                    <rect id="Rectangle" fill="#FFFFFF" x="220.418387" y="197.88153" width="33.9864076" height="33.9528631" rx="5"></rect>
                    <rect id="Rectangle" fill="#FFFFFF" x="272.460074" y="197.88153" width="33.9864076" height="33.9528631" rx="5"></rect>
                    <rect id="Rectangle" fill="#FFFFFF" x="324.50176" y="197.88153" width="33.9864076" height="33.9528631" rx="5"></rect>
                    <rect id="Rectangle" fill="#FFFFFF" x="85.8003507" y="21.7510529" width="32.9243324" height="2.65256743"></rect>
                    <rect id="Rectangle" fill="#FFFFFF" x="313.615489" y="21.7510529" width="32.9243324" height="2.65256743"></rect>
                    <rect id="Rectangle" fill="#FFFFFF" x="353.974348" y="21.7510529" width="32.9243324" height="2.65256743"></rect>
                    <ellipse id="Oval" fill="#FFFFFF" cx="221.496717" cy="287.538309" rx="4.53007482" ry="4.52560364"></ellipse>
                    <ellipse id="Oval" fill="#FFFFFF" cx="237.146072" cy="287.538309" rx="4.53007482" ry="4.52560364"></ellipse>
                    <ellipse id="Oval" fill="#FFFFFF" cx="252.795421" cy="287.538309" rx="4.53007482" ry="4.52560364"></ellipse>
                    <rect id="Rectangle" fill="#00CFDA" x="118.724683" y="59.9480238" width="33.9864076" height="33.9528631" rx="5"></rect>
                    <rect id="Rectangle" fill="#00CFDA" x="170.76637" y="59.9480238" width="33.9864076" height="33.9528631" rx="5"></rect>
                    <rect id="Rectangle" fill="#00CFDA" x="222.808056" y="59.9480238" width="33.9864076" height="33.9528631" rx="5"></rect>
                    <rect id="Rectangle" fill="#00CFDA" x="274.849743" y="59.9480238" width="33.9864076" height="33.9528631" rx="5"></rect>
                    <rect id="Rectangle" fill="#00CFDA" x="326.89143" y="59.9480238" width="33.9864076" height="33.9528631" rx="5"></rect>
                    <rect id="Rectangle" fill="#00CFDA" x="118.724683" y="129.975804" width="33.9864076" height="33.9528631" rx="5"></rect>
                    <rect id="Rectangle" fill="#00CFDA" x="170.76637" y="129.975804" width="33.9864076" height="33.9528631" rx="5"></rect>
                    <rect id="Rectangle" fill="#00CFDA" x="222.808056" y="129.975804" width="33.9864076" height="33.9528631" rx="5"></rect>
                    <rect id="Rectangle" fill="#00CFDA" x="274.849743" y="129.975804" width="33.9864076" height="33.9528631" rx="5"></rect>
                    <rect id="Rectangle" fill="#00CFDA" x="326.89143" y="129.975804" width="33.9864076" height="33.9528631" rx="5"></rect>
                    <rect id="Rectangle" fill="#00CFDA" x="118.724683" y="200.003584" width="33.9864076" height="33.9528631" rx="5"></rect>
                    <rect id="Rectangle" fill="#00CFDA" x="222.808056" y="200.003584" width="33.9864076" height="33.9528631" rx="5"></rect>
                    <rect id="Rectangle" fill="#00CFDA" x="274.849743" y="200.003584" width="33.9864076" height="33.9528631" rx="5"></rect>
                    <rect id="Rectangle" fill="#00CFDA" x="326.89143" y="200.003584" width="33.9864076" height="33.9528631" rx="5"></rect>
                    <path d="M180.81734,380.215572 C180.81734,380.215572 190.902695,399.736659 196.575706,404.144648 C202.248717,408.552637 187.435853,413.905194 187.435853,413.905194 L170.101654,386.827552 L180.81734,380.215572 Z" id="Path" fill="#FAF8D2"></path>
                    <path d="M119.674885,332.67228 C119.674885,332.67228 166.634812,344.951677 170.731985,353.137935 C174.829158,361.324194 187.435853,381.160141 187.435853,381.160141 L168.840981,395.958384 L150.56128,368.565894 L100.134511,345.896246 L119.674885,332.67228 Z" id="Path" fill="#A9F3F6"></path>
                    <path d="M185.86002,406.033785 C185.86002,406.033785 181.447676,402.255511 180.187009,404.774346 C178.926342,407.293182 175.144329,420.202299 175.144329,420.202299 C175.144329,420.202299 180.502174,425.240002 191.533031,422.091458 C191.533031,422.091458 194.369537,419.887466 198.781881,422.091458 C203.194224,424.295449 219.582922,419.887466 218.952585,412.645771 C218.322249,405.404076 201.618386,406.03379 201.618386,406.03379 C201.618386,406.03379 194.582817,398.15931 193.688258,401.152005 C192.793699,404.144701 194.054371,404.459529 194.054371,404.459529 C194.054371,404.459529 188.381355,410.441774 185.86002,406.033785 Z" id="Path" fill="#265558"></path>
                    <path d="M131.966409,399.421805 L128.814738,425.869748 L144.257933,425.869748 C144.257933,425.869748 142.99725,405.404092 143.312431,402.885251 C143.627613,400.36641 131.966409,399.421805 131.966409,399.421805 Z" id="Path" fill="#FAF8D2"></path>
                    <path d="M140.791091,341.173397 C140.791091,341.173397 149.300613,353.76765 144.257933,354.712218 C139.215253,355.656787 135.11808,341.173397 135.11808,341.173397 L140.791091,341.173397 Z" id="Path" fill="#FFB8B8"></path>
                    <path d="M76.4969593,339.913974 C76.4969593,339.913974 70.1936171,358.490493 95.091831,363.528191 C119.990045,368.565888 127.554065,372.659023 127.554065,372.659023 L130.705741,404.774362 L152.452263,406.033801 C152.452263,406.033801 162.852783,357.231086 149.300592,350.93396 C135.7484,344.636834 107.068168,337.395139 107.068168,337.395139 L76.4969593,339.913974 Z" id="Path" fill="#A9F3F6"></path>
                    <path d="M130.705741,421.776598 C130.705741,421.776598 135.11808,419.572606 135.748416,419.572606 C135.748416,419.572606 138.518648,413.189335 143.59446,413.862122 L154.658459,429.962861 C154.658459,429.962861 171.362327,441.927399 159.701139,445.07596 C148.039951,448.22452 138.900093,445.705679 138.900093,445.705679 L134.172583,442.242259 C134.172583,442.242259 134.802925,438.778839 130.705747,439.408553 C130.705747,439.408553 122.196225,435.945133 122.511396,433.426287 C122.826566,430.90744 129.520949,419.943382 129.520949,419.943382 L130.705741,421.776598 Z" id="Path" fill="#265558"></path>
                    <path d="M125.628172,289.660363 L125.628172,289.660363 L136.378753,327.004846 L144.257933,344.951656 C144.257933,344.951656 135.748416,342.025031 135.11808,345.534908 L122.51139,327.319727 L125.628172,289.660363 Z" id="Path" fill="#D0CDE1"></path>
                    <path d="M125.628172,289.660363 L125.628172,289.660363 L136.378753,327.004846 L144.257933,344.951656 C144.257933,344.951656 135.748416,342.025031 135.11808,345.534908 L122.51139,327.319727 L125.628172,289.660363 Z" id="Path" fill="#FFFFFF" opacity="0.116322545"></path>
                    <path d="M114.632204,272.53474 C114.632204,272.53474 109.904695,266.237614 107.06819,266.237614 C104.231684,266.237614 87.4754823,271.217544 85.2693131,292.31293 C83.0631439,313.408316 75.5514574,348.100238 75.5514574,348.100238 C75.5514574,348.100238 73.6604325,338.969406 94.7766654,342.74768 C94.7766654,342.74768 119.99005,337.395123 124.402394,337.395123 C128.814738,337.395123 126.15921,291.782417 126.15921,291.782417 L123.529745,281.255746 C123.529745,281.255746 120.305216,287.332984 114.632204,272.53474 Z" id="Path" fill="#FFFFFF"></path>
                    <rect id="Rectangle" fill="#00CFDA" x="126.690247" y="315.655524" width="33.9864076" height="33.9528631" rx="5"></rect>
                    <polygon id="Path" fill="#000000" opacity="0.1" points="110.377239 296.306636 111.323017 318.346288 125.34241 334.770455 112.5837 316.45713"></polygon>
                    <polygon id="Path" fill="#000000" opacity="0.1" points="85.1641039 302.288706 96.1948173 327.792081 110.377239 339.441626 95.2495704 329.05152"></polygon>
                    <path d="M131.62227,338.219302 C131.62227,338.219302 144.12383,346.873988 139.76716,349.580927 C135.41049,352.287867 126.335328,340.274289 126.335328,340.274289 L131.62227,338.219302 Z" id="Path" fill="#FAF8D2"></path>
                    <path d="M94.4614999,274.109018 C94.4614999,274.109018 85.3195121,300.559269 86.7553475,304.239001 C91.2717853,315.813537 96.3525036,326.69004 96.3525036,326.69004 L110.597784,339.557475 L129.760229,344.951677 L131.966398,343.062519 C131.966398,343.062519 132.59674,337.080252 129.760229,336.450538 C126.923718,335.820824 122.51138,333.301978 122.51138,333.301978 L111.165357,316.614597 C111.165357,316.614597 110.850197,275.053587 94.4614999,274.109018 Z" id="Path" fill="#FFFFFF"></path>
                    <path d="M473.772872,367.092037 L490.016288,344.395609 L473.733161,369.582729 L473.690805,372.187874 C472.553291,372.163909 471.427618,372.112679 470.313788,372.034184 L472.048731,338.580953 L472.034982,338.322094 L472.064927,338.273011 L472.229809,335.111915 L455.881253,309.877961 L472.277741,332.743856 L472.318986,333.414197 L473.629635,308.138943 L459.631972,282.061802 L473.799328,303.697076 L475.15135,251.294206 L475.156692,251.119816 L475.156777,251.291479 L474.947782,292.616564 L488.859321,276.226976 L474.889474,296.175477 L474.53224,318.806965 L487.52468,297.082236 L474.482051,322.13425 L474.283587,334.718502 L493.139208,304.477944 L474.212066,339.108543 L473.772872,367.092037 Z" id="Path" fill="#FFFFFF"></path>
                    <rect id="Rectangle" fill="#FFFFFF" x="430.974596" y="371.701435" width="84.1229915" height="1"></rect>
                    <rect id="Rectangle" fill="#FFFFFF" x="0.277071441" y="371.701435" width="41.1349599" height="1"></rect>
                </g>
                <g id="iconfinder_question-mark_251094" transform="translate(143.411189, 257.131733) rotate(-330.000000) translate(-143.411189, -257.131733) translate(130.832509, 238.731131)" fill="#00CFDA" fill-rule="nonzero">
                    <ellipse id="Oval" cx="11.9972628" cy="33.2784477" rx="3.14467005" ry="3.14156627"></ellipse>
                    <path d="M24.3749352,12.4649997 C24.3749352,5.8557427 18.9439777,0.497128247 12.2454935,0.497128247 C5.5470094,0.497128247 0.116051914,5.8557427 0.116051914,12.4649997 C0.116051914,14.116566 1.4730332,15.4569676 3.14841232,15.4569676 C4.82379144,15.4569676 6.18077273,14.116566 6.18077273,12.4649997 C6.18077273,9.16037122 8.89625147,6.48106399 12.2454935,6.48106399 C15.5947356,6.48106399 18.3102144,9.16037122 18.3102144,12.4649997 C18.3102144,15.7696282 15.5947356,18.4489355 12.2454935,18.4489355 C10.5701144,18.4489355 9.21313313,19.7893371 9.21313313,21.4409033 L9.21313313,24.4328712 C9.21313313,26.0844375 10.5701144,27.4248391 12.2454935,27.4248391 C13.9208727,27.4248391 15.2778539,26.0844375 15.2778539,24.4328712 L15.2778539,24.0095078 C20.4980624,22.6735941 24.3749352,18.0345479 24.3749352,12.4649997 Z" id="Path"></path>
                </g>
                <g id="iconfinder_35_Spy_2828427-Copy" style="mix-blend-mode: hard-light;" transform="translate(192.514694, 68.216867)" fill-rule="nonzero">
                    <path d="M3.19983962,7.26518496 C3.19983962,3.73422821 6.06507362,0.871822196 9.59951887,0.871822196 C13.1339641,0.871822196 15.9991981,3.73422821 15.9991981,7.26518496 L3.19983962,7.26518496 Z" id="Path" fill="#00CFDA"></path>
                    <path d="M16.8166117,6.39336277 C16.3649598,2.75449153 13.26988,0.0221864899 9.59951887,0.0221864899 C5.92915778,0.0221864899 2.83407796,2.75449153 2.38242605,6.39336277 L0,6.39336277 L0,8.13700716 L19.1990377,8.13700716 L19.1990377,6.39336277 L16.8166117,6.39336277 Z M9.59951887,1.74364439 C12.3127267,1.74673511 14.6224823,3.71683186 15.050882,6.39336277 L4.14815573,6.39336277 C4.57655548,3.71683186 6.88631102,1.74673511 9.59951887,1.74364439 Z" id="Shape" fill="#0D3A3C"></path>
                    <path d="M13.672042,9.88065155 C12.2423202,9.88234052 10.9872105,10.8313441 10.597287,12.2055107 L8.60175069,12.2055107 C8.16620496,10.6705663 6.66446937,9.69144239 5.08267578,9.91109192 C3.5008822,10.1307415 2.32337293,11.4819082 2.32337293,13.0773329 C2.32337293,14.6727577 3.5008822,16.0239244 5.08267578,16.2435739 C6.66446937,16.4632235 8.16620496,15.4840996 8.60175069,13.9491551 L10.597287,13.9491551 C11.048301,15.538608 12.6373617,16.5228883 14.2629947,16.2197316 C15.8886277,15.9165749 17.0152264,14.4258639 16.8618769,12.780901 C16.7085273,11.1359382 15.3257544,9.87869863 13.672042,9.88065155 L13.672042,9.88065155 Z M5.52699571,14.5303699 C4.7237127,14.5303699 4.07252316,13.8798231 4.07252316,13.0773329 C4.07252316,12.2748428 4.7237127,11.6242959 5.52699571,11.6242959 C6.33027872,11.6242959 6.98146827,12.2748428 6.98146827,13.0773329 C6.98146827,13.8798231 6.33027872,14.5303699 5.52699571,14.5303699 Z M13.672042,14.5303699 C12.868759,14.5303699 12.2175695,13.8798231 12.2175695,13.0773329 C12.2175695,12.2748428 12.868759,11.6242959 13.672042,11.6242959 C14.475325,11.6242959 15.1265146,12.2748428 15.1265146,13.0773329 C15.1265146,13.8798231 14.475325,14.5303699 13.672042,14.5303699 Z" id="Shape" fill="#0D3A3C"></path>
                </g>
                <g id="iconfinder_35_Spy_2828427-Copy-7" style="mix-blend-mode: hard-light;" transform="translate(297.636522, 68.216867)" fill-rule="nonzero">
                    <path d="M3.19983962,7.26518496 C3.19983962,3.73422821 6.06507362,0.871822196 9.59951887,0.871822196 C13.1339641,0.871822196 15.9991981,3.73422821 15.9991981,7.26518496 L3.19983962,7.26518496 Z" id="Path" fill="#00CFDA"></path>
                    <path d="M16.8166117,6.39336277 C16.3649598,2.75449153 13.26988,0.0221864899 9.59951887,0.0221864899 C5.92915778,0.0221864899 2.83407796,2.75449153 2.38242605,6.39336277 L0,6.39336277 L0,8.13700716 L19.1990377,8.13700716 L19.1990377,6.39336277 L16.8166117,6.39336277 Z M9.59951887,1.74364439 C12.3127267,1.74673511 14.6224823,3.71683186 15.050882,6.39336277 L4.14815573,6.39336277 C4.57655548,3.71683186 6.88631102,1.74673511 9.59951887,1.74364439 Z" id="Shape" fill="#0D3A3C"></path>
                    <path d="M13.672042,9.88065155 C12.2423202,9.88234052 10.9872105,10.8313441 10.597287,12.2055107 L8.60175069,12.2055107 C8.16620496,10.6705663 6.66446937,9.69144239 5.08267578,9.91109192 C3.5008822,10.1307415 2.32337293,11.4819082 2.32337293,13.0773329 C2.32337293,14.6727577 3.5008822,16.0239244 5.08267578,16.2435739 C6.66446937,16.4632235 8.16620496,15.4840996 8.60175069,13.9491551 L10.597287,13.9491551 C11.048301,15.538608 12.6373617,16.5228883 14.2629947,16.2197316 C15.8886277,15.9165749 17.0152264,14.4258639 16.8618769,12.780901 C16.7085273,11.1359382 15.3257544,9.87869863 13.672042,9.88065155 L13.672042,9.88065155 Z M5.52699571,14.5303699 C4.7237127,14.5303699 4.07252316,13.8798231 4.07252316,13.0773329 C4.07252316,12.2748428 4.7237127,11.6242959 5.52699571,11.6242959 C6.33027872,11.6242959 6.98146827,12.2748428 6.98146827,13.0773329 C6.98146827,13.8798231 6.33027872,14.5303699 5.52699571,14.5303699 Z M13.672042,14.5303699 C12.868759,14.5303699 12.2175695,13.8798231 12.2175695,13.0773329 C12.2175695,12.2748428 12.868759,11.6242959 13.672042,11.6242959 C14.475325,11.6242959 15.1265146,12.2748428 15.1265146,13.0773329 C15.1265146,13.8798231 14.475325,14.5303699 13.672042,14.5303699 Z" id="Shape" fill="#0D3A3C"></path>
                </g>
                <g id="iconfinder_35_Spy_2828427-Copy-8" style="mix-blend-mode: hard-light;" transform="translate(348.849720, 68.216867)" fill-rule="nonzero">
                    <path d="M3.19983962,7.26518496 C3.19983962,3.73422821 6.06507362,0.871822196 9.59951887,0.871822196 C13.1339641,0.871822196 15.9991981,3.73422821 15.9991981,7.26518496 L3.19983962,7.26518496 Z" id="Path" fill="#00CFDA"></path>
                    <path d="M16.8166117,6.39336277 C16.3649598,2.75449153 13.26988,0.0221864899 9.59951887,0.0221864899 C5.92915778,0.0221864899 2.83407796,2.75449153 2.38242605,6.39336277 L0,6.39336277 L0,8.13700716 L19.1990377,8.13700716 L19.1990377,6.39336277 L16.8166117,6.39336277 Z M9.59951887,1.74364439 C12.3127267,1.74673511 14.6224823,3.71683186 15.050882,6.39336277 L4.14815573,6.39336277 C4.57655548,3.71683186 6.88631102,1.74673511 9.59951887,1.74364439 Z" id="Shape" fill="#0D3A3C"></path>
                    <path d="M13.672042,9.88065155 C12.2423202,9.88234052 10.9872105,10.8313441 10.597287,12.2055107 L8.60175069,12.2055107 C8.16620496,10.6705663 6.66446937,9.69144239 5.08267578,9.91109192 C3.5008822,10.1307415 2.32337293,11.4819082 2.32337293,13.0773329 C2.32337293,14.6727577 3.5008822,16.0239244 5.08267578,16.2435739 C6.66446937,16.4632235 8.16620496,15.4840996 8.60175069,13.9491551 L10.597287,13.9491551 C11.048301,15.538608 12.6373617,16.5228883 14.2629947,16.2197316 C15.8886277,15.9165749 17.0152264,14.4258639 16.8618769,12.780901 C16.7085273,11.1359382 15.3257544,9.87869863 13.672042,9.88065155 L13.672042,9.88065155 Z M5.52699571,14.5303699 C4.7237127,14.5303699 4.07252316,13.8798231 4.07252316,13.0773329 C4.07252316,12.2748428 4.7237127,11.6242959 5.52699571,11.6242959 C6.33027872,11.6242959 6.98146827,12.2748428 6.98146827,13.0773329 C6.98146827,13.8798231 6.33027872,14.5303699 5.52699571,14.5303699 Z M13.672042,14.5303699 C12.868759,14.5303699 12.2175695,13.8798231 12.2175695,13.0773329 C12.2175695,12.2748428 12.868759,11.6242959 13.672042,11.6242959 C14.475325,11.6242959 15.1265146,12.2748428 15.1265146,13.0773329 C15.1265146,13.8798231 14.475325,14.5303699 13.672042,14.5303699 Z" id="Shape" fill="#0D3A3C"></path>
                </g>
                <g id="iconfinder_35_Spy_2828427-Copy-9" style="mix-blend-mode: hard-light;" transform="translate(348.849720, 137.331325)" fill-rule="nonzero">
                    <path d="M3.19983962,7.26518496 C3.19983962,3.73422821 6.06507362,0.871822196 9.59951887,0.871822196 C13.1339641,0.871822196 15.9991981,3.73422821 15.9991981,7.26518496 L3.19983962,7.26518496 Z" id="Path" fill="#00CFDA"></path>
                    <path d="M16.8166117,6.39336277 C16.3649598,2.75449153 13.26988,0.0221864899 9.59951887,0.0221864899 C5.92915778,0.0221864899 2.83407796,2.75449153 2.38242605,6.39336277 L0,6.39336277 L0,8.13700716 L19.1990377,8.13700716 L19.1990377,6.39336277 L16.8166117,6.39336277 Z M9.59951887,1.74364439 C12.3127267,1.74673511 14.6224823,3.71683186 15.050882,6.39336277 L4.14815573,6.39336277 C4.57655548,3.71683186 6.88631102,1.74673511 9.59951887,1.74364439 Z" id="Shape" fill="#0D3A3C"></path>
                    <path d="M13.672042,9.88065155 C12.2423202,9.88234052 10.9872105,10.8313441 10.597287,12.2055107 L8.60175069,12.2055107 C8.16620496,10.6705663 6.66446937,9.69144239 5.08267578,9.91109192 C3.5008822,10.1307415 2.32337293,11.4819082 2.32337293,13.0773329 C2.32337293,14.6727577 3.5008822,16.0239244 5.08267578,16.2435739 C6.66446937,16.4632235 8.16620496,15.4840996 8.60175069,13.9491551 L10.597287,13.9491551 C11.048301,15.538608 12.6373617,16.5228883 14.2629947,16.2197316 C15.8886277,15.9165749 17.0152264,14.4258639 16.8618769,12.780901 C16.7085273,11.1359382 15.3257544,9.87869863 13.672042,9.88065155 L13.672042,9.88065155 Z M5.52699571,14.5303699 C4.7237127,14.5303699 4.07252316,13.8798231 4.07252316,13.0773329 C4.07252316,12.2748428 4.7237127,11.6242959 5.52699571,11.6242959 C6.33027872,11.6242959 6.98146827,12.2748428 6.98146827,13.0773329 C6.98146827,13.8798231 6.33027872,14.5303699 5.52699571,14.5303699 Z M13.672042,14.5303699 C12.868759,14.5303699 12.2175695,13.8798231 12.2175695,13.0773329 C12.2175695,12.2748428 12.868759,11.6242959 13.672042,11.6242959 C14.475325,11.6242959 15.1265146,12.2748428 15.1265146,13.0773329 C15.1265146,13.8798231 14.475325,14.5303699 13.672042,14.5303699 Z" id="Shape" fill="#0D3A3C"></path>
                </g>
                <g id="iconfinder_35_Spy_2828427-Copy-10" style="mix-blend-mode: hard-light;" transform="translate(296.738044, 137.331325)" fill-rule="nonzero">
                    <path d="M3.19983962,7.26518496 C3.19983962,3.73422821 6.06507362,0.871822196 9.59951887,0.871822196 C13.1339641,0.871822196 15.9991981,3.73422821 15.9991981,7.26518496 L3.19983962,7.26518496 Z" id="Path" fill="#00CFDA"></path>
                    <path d="M16.8166117,6.39336277 C16.3649598,2.75449153 13.26988,0.0221864899 9.59951887,0.0221864899 C5.92915778,0.0221864899 2.83407796,2.75449153 2.38242605,6.39336277 L0,6.39336277 L0,8.13700716 L19.1990377,8.13700716 L19.1990377,6.39336277 L16.8166117,6.39336277 Z M9.59951887,1.74364439 C12.3127267,1.74673511 14.6224823,3.71683186 15.050882,6.39336277 L4.14815573,6.39336277 C4.57655548,3.71683186 6.88631102,1.74673511 9.59951887,1.74364439 Z" id="Shape" fill="#0D3A3C"></path>
                    <path d="M13.672042,9.88065155 C12.2423202,9.88234052 10.9872105,10.8313441 10.597287,12.2055107 L8.60175069,12.2055107 C8.16620496,10.6705663 6.66446937,9.69144239 5.08267578,9.91109192 C3.5008822,10.1307415 2.32337293,11.4819082 2.32337293,13.0773329 C2.32337293,14.6727577 3.5008822,16.0239244 5.08267578,16.2435739 C6.66446937,16.4632235 8.16620496,15.4840996 8.60175069,13.9491551 L10.597287,13.9491551 C11.048301,15.538608 12.6373617,16.5228883 14.2629947,16.2197316 C15.8886277,15.9165749 17.0152264,14.4258639 16.8618769,12.780901 C16.7085273,11.1359382 15.3257544,9.87869863 13.672042,9.88065155 L13.672042,9.88065155 Z M5.52699571,14.5303699 C4.7237127,14.5303699 4.07252316,13.8798231 4.07252316,13.0773329 C4.07252316,12.2748428 4.7237127,11.6242959 5.52699571,11.6242959 C6.33027872,11.6242959 6.98146827,12.2748428 6.98146827,13.0773329 C6.98146827,13.8798231 6.33027872,14.5303699 5.52699571,14.5303699 Z M13.672042,14.5303699 C12.868759,14.5303699 12.2175695,13.8798231 12.2175695,13.0773329 C12.2175695,12.2748428 12.868759,11.6242959 13.672042,11.6242959 C14.475325,11.6242959 15.1265146,12.2748428 15.1265146,13.0773329 C15.1265146,13.8798231 14.475325,14.5303699 13.672042,14.5303699 Z" id="Shape" fill="#0D3A3C"></path>
                </g>
                <g id="iconfinder_35_Spy_2828427-Copy-11" style="mix-blend-mode: hard-light;" transform="translate(296.738044, 207.343373)" fill-rule="nonzero">
                    <path d="M3.19983962,7.26518496 C3.19983962,3.73422821 6.06507362,0.871822196 9.59951887,0.871822196 C13.1339641,0.871822196 15.9991981,3.73422821 15.9991981,7.26518496 L3.19983962,7.26518496 Z" id="Path" fill="#00CFDA"></path>
                    <path d="M16.8166117,6.39336277 C16.3649598,2.75449153 13.26988,0.0221864899 9.59951887,0.0221864899 C5.92915778,0.0221864899 2.83407796,2.75449153 2.38242605,6.39336277 L0,6.39336277 L0,8.13700716 L19.1990377,8.13700716 L19.1990377,6.39336277 L16.8166117,6.39336277 Z M9.59951887,1.74364439 C12.3127267,1.74673511 14.6224823,3.71683186 15.050882,6.39336277 L4.14815573,6.39336277 C4.57655548,3.71683186 6.88631102,1.74673511 9.59951887,1.74364439 Z" id="Shape" fill="#0D3A3C"></path>
                    <path d="M13.672042,9.88065155 C12.2423202,9.88234052 10.9872105,10.8313441 10.597287,12.2055107 L8.60175069,12.2055107 C8.16620496,10.6705663 6.66446937,9.69144239 5.08267578,9.91109192 C3.5008822,10.1307415 2.32337293,11.4819082 2.32337293,13.0773329 C2.32337293,14.6727577 3.5008822,16.0239244 5.08267578,16.2435739 C6.66446937,16.4632235 8.16620496,15.4840996 8.60175069,13.9491551 L10.597287,13.9491551 C11.048301,15.538608 12.6373617,16.5228883 14.2629947,16.2197316 C15.8886277,15.9165749 17.0152264,14.4258639 16.8618769,12.780901 C16.7085273,11.1359382 15.3257544,9.87869863 13.672042,9.88065155 L13.672042,9.88065155 Z M5.52699571,14.5303699 C4.7237127,14.5303699 4.07252316,13.8798231 4.07252316,13.0773329 C4.07252316,12.2748428 4.7237127,11.6242959 5.52699571,11.6242959 C6.33027872,11.6242959 6.98146827,12.2748428 6.98146827,13.0773329 C6.98146827,13.8798231 6.33027872,14.5303699 5.52699571,14.5303699 Z M13.672042,14.5303699 C12.868759,14.5303699 12.2175695,13.8798231 12.2175695,13.0773329 C12.2175695,12.2748428 12.868759,11.6242959 13.672042,11.6242959 C14.475325,11.6242959 15.1265146,12.2748428 15.1265146,13.0773329 C15.1265146,13.8798231 14.475325,14.5303699 13.672042,14.5303699 Z" id="Shape" fill="#0D3A3C"></path>
                </g>
                <g id="iconfinder_35_Spy_2828427-Copy-14" style="mix-blend-mode: hard-light;" transform="translate(348.849720, 207.343373)" fill-rule="nonzero">
                    <path d="M3.19983962,7.26518496 C3.19983962,3.73422821 6.06507362,0.871822196 9.59951887,0.871822196 C13.1339641,0.871822196 15.9991981,3.73422821 15.9991981,7.26518496 L3.19983962,7.26518496 Z" id="Path" fill="#00CFDA"></path>
                    <path d="M16.8166117,6.39336277 C16.3649598,2.75449153 13.26988,0.0221864899 9.59951887,0.0221864899 C5.92915778,0.0221864899 2.83407796,2.75449153 2.38242605,6.39336277 L0,6.39336277 L0,8.13700716 L19.1990377,8.13700716 L19.1990377,6.39336277 L16.8166117,6.39336277 Z M9.59951887,1.74364439 C12.3127267,1.74673511 14.6224823,3.71683186 15.050882,6.39336277 L4.14815573,6.39336277 C4.57655548,3.71683186 6.88631102,1.74673511 9.59951887,1.74364439 Z" id="Shape" fill="#0D3A3C"></path>
                    <path d="M13.672042,9.88065155 C12.2423202,9.88234052 10.9872105,10.8313441 10.597287,12.2055107 L8.60175069,12.2055107 C8.16620496,10.6705663 6.66446937,9.69144239 5.08267578,9.91109192 C3.5008822,10.1307415 2.32337293,11.4819082 2.32337293,13.0773329 C2.32337293,14.6727577 3.5008822,16.0239244 5.08267578,16.2435739 C6.66446937,16.4632235 8.16620496,15.4840996 8.60175069,13.9491551 L10.597287,13.9491551 C11.048301,15.538608 12.6373617,16.5228883 14.2629947,16.2197316 C15.8886277,15.9165749 17.0152264,14.4258639 16.8618769,12.780901 C16.7085273,11.1359382 15.3257544,9.87869863 13.672042,9.88065155 L13.672042,9.88065155 Z M5.52699571,14.5303699 C4.7237127,14.5303699 4.07252316,13.8798231 4.07252316,13.0773329 C4.07252316,12.2748428 4.7237127,11.6242959 5.52699571,11.6242959 C6.33027872,11.6242959 6.98146827,12.2748428 6.98146827,13.0773329 C6.98146827,13.8798231 6.33027872,14.5303699 5.52699571,14.5303699 Z M13.672042,14.5303699 C12.868759,14.5303699 12.2175695,13.8798231 12.2175695,13.0773329 C12.2175695,12.2748428 12.868759,11.6242959 13.672042,11.6242959 C14.475325,11.6242959 15.1265146,12.2748428 15.1265146,13.0773329 C15.1265146,13.8798231 14.475325,14.5303699 13.672042,14.5303699 Z" id="Shape" fill="#0D3A3C"></path>
                </g>
                <g id="iconfinder_35_Spy_2828427-Copy-4" style="mix-blend-mode: hard-light;" transform="translate(192.514694, 137.331325)" fill-rule="nonzero">
                    <path d="M3.19983962,7.26518496 C3.19983962,3.73422821 6.06507362,0.871822196 9.59951887,0.871822196 C13.1339641,0.871822196 15.9991981,3.73422821 15.9991981,7.26518496 L3.19983962,7.26518496 Z" id="Path" fill="#00CFDA"></path>
                    <path d="M16.8166117,6.39336277 C16.3649598,2.75449153 13.26988,0.0221864899 9.59951887,0.0221864899 C5.92915778,0.0221864899 2.83407796,2.75449153 2.38242605,6.39336277 L0,6.39336277 L0,8.13700716 L19.1990377,8.13700716 L19.1990377,6.39336277 L16.8166117,6.39336277 Z M9.59951887,1.74364439 C12.3127267,1.74673511 14.6224823,3.71683186 15.050882,6.39336277 L4.14815573,6.39336277 C4.57655548,3.71683186 6.88631102,1.74673511 9.59951887,1.74364439 Z" id="Shape" fill="#0D3A3C"></path>
                    <path d="M13.672042,9.88065155 C12.2423202,9.88234052 10.9872105,10.8313441 10.597287,12.2055107 L8.60175069,12.2055107 C8.16620496,10.6705663 6.66446937,9.69144239 5.08267578,9.91109192 C3.5008822,10.1307415 2.32337293,11.4819082 2.32337293,13.0773329 C2.32337293,14.6727577 3.5008822,16.0239244 5.08267578,16.2435739 C6.66446937,16.4632235 8.16620496,15.4840996 8.60175069,13.9491551 L10.597287,13.9491551 C11.048301,15.538608 12.6373617,16.5228883 14.2629947,16.2197316 C15.8886277,15.9165749 17.0152264,14.4258639 16.8618769,12.780901 C16.7085273,11.1359382 15.3257544,9.87869863 13.672042,9.88065155 L13.672042,9.88065155 Z M5.52699571,14.5303699 C4.7237127,14.5303699 4.07252316,13.8798231 4.07252316,13.0773329 C4.07252316,12.2748428 4.7237127,11.6242959 5.52699571,11.6242959 C6.33027872,11.6242959 6.98146827,12.2748428 6.98146827,13.0773329 C6.98146827,13.8798231 6.33027872,14.5303699 5.52699571,14.5303699 Z M13.672042,14.5303699 C12.868759,14.5303699 12.2175695,13.8798231 12.2175695,13.0773329 C12.2175695,12.2748428 12.868759,11.6242959 13.672042,11.6242959 C14.475325,11.6242959 15.1265146,12.2748428 15.1265146,13.0773329 C15.1265146,13.8798231 14.475325,14.5303699 13.672042,14.5303699 Z" id="Shape" fill="#0D3A3C"></path>
                </g>
                <g id="iconfinder_35_Spy_2828427-Copy-2" style="mix-blend-mode: hard-light;" transform="translate(244.626369, 68.216867)" fill-rule="nonzero">
                    <path d="M3.19983962,7.26518496 C3.19983962,3.73422821 6.06507362,0.871822196 9.59951887,0.871822196 C13.1339641,0.871822196 15.9991981,3.73422821 15.9991981,7.26518496 L3.19983962,7.26518496 Z" id="Path" fill="#00CFDA"></path>
                    <path d="M16.8166117,6.39336277 C16.3649598,2.75449153 13.26988,0.0221864899 9.59951887,0.0221864899 C5.92915778,0.0221864899 2.83407796,2.75449153 2.38242605,6.39336277 L0,6.39336277 L0,8.13700716 L19.1990377,8.13700716 L19.1990377,6.39336277 L16.8166117,6.39336277 Z M9.59951887,1.74364439 C12.3127267,1.74673511 14.6224823,3.71683186 15.050882,6.39336277 L4.14815573,6.39336277 C4.57655548,3.71683186 6.88631102,1.74673511 9.59951887,1.74364439 Z" id="Shape" fill="#0D3A3C"></path>
                    <path d="M13.672042,9.88065155 C12.2423202,9.88234052 10.9872105,10.8313441 10.597287,12.2055107 L8.60175069,12.2055107 C8.16620496,10.6705663 6.66446937,9.69144239 5.08267578,9.91109192 C3.5008822,10.1307415 2.32337293,11.4819082 2.32337293,13.0773329 C2.32337293,14.6727577 3.5008822,16.0239244 5.08267578,16.2435739 C6.66446937,16.4632235 8.16620496,15.4840996 8.60175069,13.9491551 L10.597287,13.9491551 C11.048301,15.538608 12.6373617,16.5228883 14.2629947,16.2197316 C15.8886277,15.9165749 17.0152264,14.4258639 16.8618769,12.780901 C16.7085273,11.1359382 15.3257544,9.87869863 13.672042,9.88065155 L13.672042,9.88065155 Z M5.52699571,14.5303699 C4.7237127,14.5303699 4.07252316,13.8798231 4.07252316,13.0773329 C4.07252316,12.2748428 4.7237127,11.6242959 5.52699571,11.6242959 C6.33027872,11.6242959 6.98146827,12.2748428 6.98146827,13.0773329 C6.98146827,13.8798231 6.33027872,14.5303699 5.52699571,14.5303699 Z M13.672042,14.5303699 C12.868759,14.5303699 12.2175695,13.8798231 12.2175695,13.0773329 C12.2175695,12.2748428 12.868759,11.6242959 13.672042,11.6242959 C14.475325,11.6242959 15.1265146,12.2748428 15.1265146,13.0773329 C15.1265146,13.8798231 14.475325,14.5303699 13.672042,14.5303699 Z" id="Shape" fill="#0D3A3C"></path>
                </g>
                <g id="iconfinder_35_Spy_2828427-Copy-5" style="mix-blend-mode: hard-light;" transform="translate(244.626369, 137.331325)" fill-rule="nonzero">
                    <path d="M3.19983962,7.26518496 C3.19983962,3.73422821 6.06507362,0.871822196 9.59951887,0.871822196 C13.1339641,0.871822196 15.9991981,3.73422821 15.9991981,7.26518496 L3.19983962,7.26518496 Z" id="Path" fill="#00CFDA"></path>
                    <path d="M16.8166117,6.39336277 C16.3649598,2.75449153 13.26988,0.0221864899 9.59951887,0.0221864899 C5.92915778,0.0221864899 2.83407796,2.75449153 2.38242605,6.39336277 L0,6.39336277 L0,8.13700716 L19.1990377,8.13700716 L19.1990377,6.39336277 L16.8166117,6.39336277 Z M9.59951887,1.74364439 C12.3127267,1.74673511 14.6224823,3.71683186 15.050882,6.39336277 L4.14815573,6.39336277 C4.57655548,3.71683186 6.88631102,1.74673511 9.59951887,1.74364439 Z" id="Shape" fill="#0D3A3C"></path>
                    <path d="M13.672042,9.88065155 C12.2423202,9.88234052 10.9872105,10.8313441 10.597287,12.2055107 L8.60175069,12.2055107 C8.16620496,10.6705663 6.66446937,9.69144239 5.08267578,9.91109192 C3.5008822,10.1307415 2.32337293,11.4819082 2.32337293,13.0773329 C2.32337293,14.6727577 3.5008822,16.0239244 5.08267578,16.2435739 C6.66446937,16.4632235 8.16620496,15.4840996 8.60175069,13.9491551 L10.597287,13.9491551 C11.048301,15.538608 12.6373617,16.5228883 14.2629947,16.2197316 C15.8886277,15.9165749 17.0152264,14.4258639 16.8618769,12.780901 C16.7085273,11.1359382 15.3257544,9.87869863 13.672042,9.88065155 L13.672042,9.88065155 Z M5.52699571,14.5303699 C4.7237127,14.5303699 4.07252316,13.8798231 4.07252316,13.0773329 C4.07252316,12.2748428 4.7237127,11.6242959 5.52699571,11.6242959 C6.33027872,11.6242959 6.98146827,12.2748428 6.98146827,13.0773329 C6.98146827,13.8798231 6.33027872,14.5303699 5.52699571,14.5303699 Z M13.672042,14.5303699 C12.868759,14.5303699 12.2175695,13.8798231 12.2175695,13.0773329 C12.2175695,12.2748428 12.868759,11.6242959 13.672042,11.6242959 C14.475325,11.6242959 15.1265146,12.2748428 15.1265146,13.0773329 C15.1265146,13.8798231 14.475325,14.5303699 13.672042,14.5303699 Z" id="Shape" fill="#0D3A3C"></path>
                </g>
                <g id="iconfinder_35_Spy_2828427-Copy-12" style="mix-blend-mode: hard-light;" transform="translate(244.626369, 207.343373)" fill-rule="nonzero">
                    <path d="M3.19983962,7.26518496 C3.19983962,3.73422821 6.06507362,0.871822196 9.59951887,0.871822196 C13.1339641,0.871822196 15.9991981,3.73422821 15.9991981,7.26518496 L3.19983962,7.26518496 Z" id="Path" fill="#00CFDA"></path>
                    <path d="M16.8166117,6.39336277 C16.3649598,2.75449153 13.26988,0.0221864899 9.59951887,0.0221864899 C5.92915778,0.0221864899 2.83407796,2.75449153 2.38242605,6.39336277 L0,6.39336277 L0,8.13700716 L19.1990377,8.13700716 L19.1990377,6.39336277 L16.8166117,6.39336277 Z M9.59951887,1.74364439 C12.3127267,1.74673511 14.6224823,3.71683186 15.050882,6.39336277 L4.14815573,6.39336277 C4.57655548,3.71683186 6.88631102,1.74673511 9.59951887,1.74364439 Z" id="Shape" fill="#0D3A3C"></path>
                    <path d="M13.672042,9.88065155 C12.2423202,9.88234052 10.9872105,10.8313441 10.597287,12.2055107 L8.60175069,12.2055107 C8.16620496,10.6705663 6.66446937,9.69144239 5.08267578,9.91109192 C3.5008822,10.1307415 2.32337293,11.4819082 2.32337293,13.0773329 C2.32337293,14.6727577 3.5008822,16.0239244 5.08267578,16.2435739 C6.66446937,16.4632235 8.16620496,15.4840996 8.60175069,13.9491551 L10.597287,13.9491551 C11.048301,15.538608 12.6373617,16.5228883 14.2629947,16.2197316 C15.8886277,15.9165749 17.0152264,14.4258639 16.8618769,12.780901 C16.7085273,11.1359382 15.3257544,9.87869863 13.672042,9.88065155 L13.672042,9.88065155 Z M5.52699571,14.5303699 C4.7237127,14.5303699 4.07252316,13.8798231 4.07252316,13.0773329 C4.07252316,12.2748428 4.7237127,11.6242959 5.52699571,11.6242959 C6.33027872,11.6242959 6.98146827,12.2748428 6.98146827,13.0773329 C6.98146827,13.8798231 6.33027872,14.5303699 5.52699571,14.5303699 Z M13.672042,14.5303699 C12.868759,14.5303699 12.2175695,13.8798231 12.2175695,13.0773329 C12.2175695,12.2748428 12.868759,11.6242959 13.672042,11.6242959 C14.475325,11.6242959 15.1265146,12.2748428 15.1265146,13.0773329 C15.1265146,13.8798231 14.475325,14.5303699 13.672042,14.5303699 Z" id="Shape" fill="#0D3A3C"></path>
                </g>
                <g id="iconfinder_35_Spy_2828427-Copy-3" style="mix-blend-mode: hard-light;" transform="translate(140.403019, 68.216867)" fill-rule="nonzero">
                    <path d="M3.19983962,7.26518496 C3.19983962,3.73422821 6.06507362,0.871822196 9.59951887,0.871822196 C13.1339641,0.871822196 15.9991981,3.73422821 15.9991981,7.26518496 L3.19983962,7.26518496 Z" id="Path" fill="#00CFDA"></path>
                    <path d="M16.8166117,6.39336277 C16.3649598,2.75449153 13.26988,0.0221864899 9.59951887,0.0221864899 C5.92915778,0.0221864899 2.83407796,2.75449153 2.38242605,6.39336277 L0,6.39336277 L0,8.13700716 L19.1990377,8.13700716 L19.1990377,6.39336277 L16.8166117,6.39336277 Z M9.59951887,1.74364439 C12.3127267,1.74673511 14.6224823,3.71683186 15.050882,6.39336277 L4.14815573,6.39336277 C4.57655548,3.71683186 6.88631102,1.74673511 9.59951887,1.74364439 Z" id="Shape" fill="#0D3A3C"></path>
                    <path d="M13.672042,9.88065155 C12.2423202,9.88234052 10.9872105,10.8313441 10.597287,12.2055107 L8.60175069,12.2055107 C8.16620496,10.6705663 6.66446937,9.69144239 5.08267578,9.91109192 C3.5008822,10.1307415 2.32337293,11.4819082 2.32337293,13.0773329 C2.32337293,14.6727577 3.5008822,16.0239244 5.08267578,16.2435739 C6.66446937,16.4632235 8.16620496,15.4840996 8.60175069,13.9491551 L10.597287,13.9491551 C11.048301,15.538608 12.6373617,16.5228883 14.2629947,16.2197316 C15.8886277,15.9165749 17.0152264,14.4258639 16.8618769,12.780901 C16.7085273,11.1359382 15.3257544,9.87869863 13.672042,9.88065155 L13.672042,9.88065155 Z M5.52699571,14.5303699 C4.7237127,14.5303699 4.07252316,13.8798231 4.07252316,13.0773329 C4.07252316,12.2748428 4.7237127,11.6242959 5.52699571,11.6242959 C6.33027872,11.6242959 6.98146827,12.2748428 6.98146827,13.0773329 C6.98146827,13.8798231 6.33027872,14.5303699 5.52699571,14.5303699 Z M13.672042,14.5303699 C12.868759,14.5303699 12.2175695,13.8798231 12.2175695,13.0773329 C12.2175695,12.2748428 12.868759,11.6242959 13.672042,11.6242959 C14.475325,11.6242959 15.1265146,12.2748428 15.1265146,13.0773329 C15.1265146,13.8798231 14.475325,14.5303699 13.672042,14.5303699 Z" id="Shape" fill="#0D3A3C"></path>
                </g>
                <g id="iconfinder_35_Spy_2828427-Copy-6" style="mix-blend-mode: hard-light;" transform="translate(140.403019, 137.331325)" fill-rule="nonzero">
                    <path d="M3.19983962,7.26518496 C3.19983962,3.73422821 6.06507362,0.871822196 9.59951887,0.871822196 C13.1339641,0.871822196 15.9991981,3.73422821 15.9991981,7.26518496 L3.19983962,7.26518496 Z" id="Path" fill="#00CFDA"></path>
                    <path d="M16.8166117,6.39336277 C16.3649598,2.75449153 13.26988,0.0221864899 9.59951887,0.0221864899 C5.92915778,0.0221864899 2.83407796,2.75449153 2.38242605,6.39336277 L0,6.39336277 L0,8.13700716 L19.1990377,8.13700716 L19.1990377,6.39336277 L16.8166117,6.39336277 Z M9.59951887,1.74364439 C12.3127267,1.74673511 14.6224823,3.71683186 15.050882,6.39336277 L4.14815573,6.39336277 C4.57655548,3.71683186 6.88631102,1.74673511 9.59951887,1.74364439 Z" id="Shape" fill="#0D3A3C"></path>
                    <path d="M13.672042,9.88065155 C12.2423202,9.88234052 10.9872105,10.8313441 10.597287,12.2055107 L8.60175069,12.2055107 C8.16620496,10.6705663 6.66446937,9.69144239 5.08267578,9.91109192 C3.5008822,10.1307415 2.32337293,11.4819082 2.32337293,13.0773329 C2.32337293,14.6727577 3.5008822,16.0239244 5.08267578,16.2435739 C6.66446937,16.4632235 8.16620496,15.4840996 8.60175069,13.9491551 L10.597287,13.9491551 C11.048301,15.538608 12.6373617,16.5228883 14.2629947,16.2197316 C15.8886277,15.9165749 17.0152264,14.4258639 16.8618769,12.780901 C16.7085273,11.1359382 15.3257544,9.87869863 13.672042,9.88065155 L13.672042,9.88065155 Z M5.52699571,14.5303699 C4.7237127,14.5303699 4.07252316,13.8798231 4.07252316,13.0773329 C4.07252316,12.2748428 4.7237127,11.6242959 5.52699571,11.6242959 C6.33027872,11.6242959 6.98146827,12.2748428 6.98146827,13.0773329 C6.98146827,13.8798231 6.33027872,14.5303699 5.52699571,14.5303699 Z M13.672042,14.5303699 C12.868759,14.5303699 12.2175695,13.8798231 12.2175695,13.0773329 C12.2175695,12.2748428 12.868759,11.6242959 13.672042,11.6242959 C14.475325,11.6242959 15.1265146,12.2748428 15.1265146,13.0773329 C15.1265146,13.8798231 14.475325,14.5303699 13.672042,14.5303699 Z" id="Shape" fill="#0D3A3C"></path>
                </g>
                <g id="iconfinder_35_Spy_2828427-Copy-13" style="mix-blend-mode: hard-light;" transform="translate(140.403019, 207.343373)" fill-rule="nonzero">
                    <path d="M3.19983962,7.26518496 C3.19983962,3.73422821 6.06507362,0.871822196 9.59951887,0.871822196 C13.1339641,0.871822196 15.9991981,3.73422821 15.9991981,7.26518496 L3.19983962,7.26518496 Z" id="Path" fill="#00CFDA"></path>
                    <path d="M16.8166117,6.39336277 C16.3649598,2.75449153 13.26988,0.0221864899 9.59951887,0.0221864899 C5.92915778,0.0221864899 2.83407796,2.75449153 2.38242605,6.39336277 L0,6.39336277 L0,8.13700716 L19.1990377,8.13700716 L19.1990377,6.39336277 L16.8166117,6.39336277 Z M9.59951887,1.74364439 C12.3127267,1.74673511 14.6224823,3.71683186 15.050882,6.39336277 L4.14815573,6.39336277 C4.57655548,3.71683186 6.88631102,1.74673511 9.59951887,1.74364439 Z" id="Shape" fill="#0D3A3C"></path>
                    <path d="M13.672042,9.88065155 C12.2423202,9.88234052 10.9872105,10.8313441 10.597287,12.2055107 L8.60175069,12.2055107 C8.16620496,10.6705663 6.66446937,9.69144239 5.08267578,9.91109192 C3.5008822,10.1307415 2.32337293,11.4819082 2.32337293,13.0773329 C2.32337293,14.6727577 3.5008822,16.0239244 5.08267578,16.2435739 C6.66446937,16.4632235 8.16620496,15.4840996 8.60175069,13.9491551 L10.597287,13.9491551 C11.048301,15.538608 12.6373617,16.5228883 14.2629947,16.2197316 C15.8886277,15.9165749 17.0152264,14.4258639 16.8618769,12.780901 C16.7085273,11.1359382 15.3257544,9.87869863 13.672042,9.88065155 L13.672042,9.88065155 Z M5.52699571,14.5303699 C4.7237127,14.5303699 4.07252316,13.8798231 4.07252316,13.0773329 C4.07252316,12.2748428 4.7237127,11.6242959 5.52699571,11.6242959 C6.33027872,11.6242959 6.98146827,12.2748428 6.98146827,13.0773329 C6.98146827,13.8798231 6.33027872,14.5303699 5.52699571,14.5303699 Z M13.672042,14.5303699 C12.868759,14.5303699 12.2175695,13.8798231 12.2175695,13.0773329 C12.2175695,12.2748428 12.868759,11.6242959 13.672042,11.6242959 C14.475325,11.6242959 15.1265146,12.2748428 15.1265146,13.0773329 C15.1265146,13.8798231 14.475325,14.5303699 13.672042,14.5303699 Z" id="Shape" fill="#0D3A3C"></path>
                </g>
                <path d="M367.994068,157.355117 C362.356071,163.129546 356.178996,165.111131 349.462842,163.299873 L302.646783,133.786956 L302.644677,133.784852 L302.491199,133.690332 L302.465946,133.67354 L302.093802,133.440382 L297.636522,130.638438 C297.644941,130.562827 297.655463,130.489307 297.670152,130.417899 C297.738469,130.071643 297.896524,129.749351 298.128532,129.483213 C298.209312,129.387793 298.297915,129.299268 298.393421,129.218558 L298.395527,129.218558 C298.437591,129.182855 298.481735,129.147139 298.527985,129.113539 C298.574231,129.077836 298.622581,129.044231 298.673035,129.012723 C299.535076,128.43511 300.834399,128.189352 302.188388,128.115841 C305.112412,127.977135 308.021693,128.60723 310.625698,129.943202 C315.888229,132.602319 327.199574,137.834456 328.963588,134.629223 C331.276325,130.428399 304.99523,83.5891989 304.99523,83.5891989 C302.831757,78.0336068 304.41494,76.2188459 305.40731,75.6475406 C305.436773,75.6307332 305.466184,75.6139257 305.493545,75.5992217 C305.598664,75.5452122 305.707564,75.4988842 305.819387,75.4606016 C305.877824,75.4394301 305.937516,75.4218928 305.998121,75.4080903 C306.01401,75.4036135 306.030157,75.400107 306.046473,75.3975904 L309.532413,80.0268955 L309.584976,80.0962114 L309.772074,80.3461617 L309.828845,80.4217734 L330.960951,108.479093 C363.339261,91.0456694 374.482447,137.674827 374.482447,137.674827 C375.794857,145.020592 373.632064,151.580688 367.994068,157.355117 Z" id="Path" fill="#FFFFFF" fill-rule="nonzero"></path>
                <polygon id="Fill-1" fill="#01CFDA" transform="translate(25.638394, 102.135217) rotate(-45.000000) translate(-25.638394, -102.135217) " points="13.0721287 114.701482 38.217074 114.713898 38.2046589 89.5689522 13.0597136 89.5565371"></polygon>
                <path d="M7.40287096,96.5384545 L37.9501958,96.5384545 L37.9501958,66.0203822 L7.40287096,66.0203822 L7.40287096,96.5384545 Z M6.97339888,96.9684003 L36.6231451,96.9684003 L36.6231451,67.3479184 L6.97339888,67.3479184 L6.97339888,96.9684003 Z" id="Fill-2" fill="#FFFFFF" transform="translate(22.461797, 81.494391) rotate(-45.000000) translate(-22.461797, -81.494391) "></path>
                <polygon id="Fill-3" fill="#01CFDA" points="457.565456 132.563325 464.473846 156.730048 488.663547 149.829373 481.756055 125.662651"></polygon>
                <path d="M474.102736,138.113934 L482.490021,167.458856 L511.863934,159.07985 L503.47665,129.734031 L474.102736,138.113934 Z M475.744254,139.024989 L502.563797,131.373928 L510.222417,158.167898 L483.402873,165.818958 L475.744254,139.024989 Z" id="Fill-4" fill="#FFFFFF"></path>
                <polygon id="Fill-5" fill="#01CFDA" points="474.919632 10.7709048 457.741647 29.1329108 476.121794 46.293941 493.299779 27.9319349"></polygon>
                <path d="M478.7378,29.666259 L459.69278,50.0236084 L480.07114,69.0498313 L499.115262,48.6915843 L478.7378,29.666259 Z M457.815861,50.0873373 L478.674008,27.7911928 L500.993079,48.6278554 L480.134932,70.9248976 L457.815861,50.0873373 Z" id="Fill-6" fill="#FFFFFF"></path>
            </g>
        </g>
    </g>
</svg>