<?xml version="1.0" encoding="UTF-8"?>
<svg width="50px" height="50px" viewBox="0 0 50 50" version="1.1" xmlns="http://www.w3.org/2000/svg" xmlns:xlink="http://www.w3.org/1999/xlink">
    <!-- Generator: Sketch 60.1 (88133) - https://sketch.com -->
    <title>Rewards</title>
    <desc>Created with Sketch.</desc>
    <g id="Page-1" stroke="none" stroke-width="1" fill="none" fill-rule="evenodd">
        <g id="Create-tokens-Copy" transform="translate(-858.000000, -1098.000000)" fill-rule="nonzero">
            <g id="Rewards" transform="translate(858.000000, 1098.000000)">
                <path d="M41.2895928,15.5995475 C41.300905,15.6674208 41.3235294,15.7239819 41.3348416,15.7918552 C41.3687783,15.9049774 41.3914027,16.0294118 41.4140271,16.1425339 C41.4253394,16.199095 41.4366516,16.2556561 41.4479638,16.3235294 C41.4819005,16.4705882 41.5045249,16.6289593 41.5384615,16.7873303 C41.5384615,16.8099548 41.5497738,16.8325792 41.5497738,16.8552036 C41.5837104,17.0361991 41.6063348,17.2058824 41.6289593,17.3868778 C41.6402715,17.4434389 41.6402715,17.4886878 41.6515837,17.5452489 C41.6628959,17.6696833 41.6855204,17.8054299 41.6968326,17.9298643 C41.7081448,17.9977376 41.7081448,18.0542986 41.719457,18.1221719 C41.7307692,18.2352941 41.7420814,18.3597285 41.7533937,18.4728507 C41.7533937,18.540724 41.7647059,18.6085973 41.7647059,18.6764706 C41.7760181,18.800905 41.7760181,18.9253394 41.7873303,19.0497738 C41.7873303,19.1063348 41.7873303,19.1628959 41.7986425,19.219457 C41.8099548,19.4004525 41.8099548,19.581448 41.8099548,19.7737557 C41.8099548,19.9434389 41.8099548,20.10181 41.7986425,20.2714932 C41.7986425,20.3167421 41.7986425,20.3733032 41.7986425,20.418552 C41.7986425,20.5429864 41.7873303,20.6561086 41.7760181,20.780543 C41.7760181,20.8257919 41.7760181,20.8823529 41.7647059,20.9276018 C41.7533937,21.0859729 41.7420814,21.2443439 41.7307692,21.4027149 C41.7307692,21.4140271 41.7307692,21.4140271 41.7307692,21.4253394 C41.719457,21.5837104 41.6968326,21.7533937 41.6742081,21.9117647 C41.6628959,21.9570136 41.6628959,22.0022624 41.6515837,22.0588235 C41.6402715,22.1832579 41.6176471,22.2963801 41.5950226,22.4095023 C41.5837104,22.4547511 41.5837104,22.5113122 41.5723982,22.5565611 C41.5497738,22.7036199 41.5271493,22.8506787 41.4932127,22.9977376 C41.4932127,23.0090498 41.4932127,23.020362 41.4819005,23.0316742 C41.4479638,23.1900452 41.4140271,23.3484163 41.3800905,23.5067873 C41.3687783,23.5520362 41.3574661,23.5972851 41.3461538,23.6425339 C41.3235294,23.7556561 41.2895928,23.8800905 41.2556561,23.9932127 C41.2443439,24.0271493 41.2443439,24.0497738 41.2330317,24.0837104 L47.1606335,20.520362 L47.4773756,20.3280543 L41.1425339,15.1470588 C41.1538462,15.1809955 41.1651584,15.2262443 41.1764706,15.2714932 C41.2217195,15.361991 41.2556561,15.4751131 41.2895928,15.5995475 Z" id="Path" fill="#25CDD6"></path>
                <path d="M9.57013575,20.3393665 C9.57013575,20.4298643 9.58144796,20.520362 9.58144796,20.5995475 C9.58144796,20.6561086 9.59276018,20.7126697 9.59276018,20.7692308 C9.59276018,20.8257919 9.6040724,20.8823529 9.6040724,20.9276018 C9.6040724,20.9841629 9.61538462,21.0520362 9.61538462,21.1085973 C9.61538462,21.1538462 9.62669683,21.2104072 9.62669683,21.2556561 C9.63800905,21.3122172 9.63800905,21.3800905 9.64932127,21.4366516 C9.64932127,21.4819005 9.66063348,21.5384615 9.66063348,21.5837104 C9.6719457,21.6402715 9.6719457,21.7081448 9.68325792,21.7647059 C9.69457014,21.8099548 9.69457014,21.8665158 9.70588235,21.9117647 C9.71719457,21.9683258 9.72850679,22.0248869 9.72850679,22.0927602 C9.739819,22.138009 9.739819,22.1945701 9.75113122,22.239819 C9.76244344,22.2963801 9.77375566,22.3529412 9.78506787,22.4095023 C9.79638009,22.4660633 9.80769231,22.5113122 9.80769231,22.5678733 C9.81900452,22.6244344 9.83031674,22.6809955 9.84162896,22.7375566 C9.85294118,22.7941176 9.86425339,22.8393665 9.87556561,22.8959276 C9.88687783,22.9524887 9.89819005,23.0090498 9.90950226,23.0542986 C9.92081448,23.1108597 9.9321267,23.1561086 9.94343891,23.2126697 C9.95475113,23.2692308 9.96606335,23.3144796 9.97737557,23.3710407 C9.98868778,23.4276018 10,23.4841629 10.0226244,23.5294118 C10.0339367,23.5859729 10.0452489,23.6312217 10.0678733,23.6877828 C10.0791855,23.7443439 10.10181,23.800905 10.1131222,23.8574661 C10.1244344,23.9140271 10.1470588,23.959276 10.158371,24.0158371 C10.1696833,24.0723982 10.1923077,24.1289593 10.2036199,24.1855204 C10.2149321,24.2307692 10.2375566,24.2873303 10.2488688,24.3325792 C10.2714932,24.3891403 10.2828054,24.4457014 10.3054299,24.5022624 C10.3167421,24.5475113 10.3393665,24.6040724 10.3506787,24.6493213 C10.3733032,24.7058824 10.3846154,24.7624434 10.4072398,24.8190045 C10.4298643,24.8642534 10.4411765,24.9208145 10.4638009,24.9660633 C10.4864253,25.0226244 10.5090498,25.0791855 10.520362,25.1357466 C10.5429864,25.1809955 10.5542986,25.2375566 10.5769231,25.2828054 C10.5769231,25.2941176 10.5882353,25.3054299 10.5882353,25.3167421 L24.8868778,33.8914027 L39.1855204,25.3167421 C39.1968326,25.2941176 39.1968326,25.2828054 39.2081448,25.260181 C39.2307692,25.2036199 39.2420814,25.158371 39.2647059,25.10181 C39.2873303,25.0452489 39.3099548,24.9773756 39.3325792,24.9208145 C39.3552036,24.8642534 39.3665158,24.8190045 39.3891403,24.7624434 C39.4117647,24.7058824 39.4343891,24.638009 39.4570136,24.581448 C39.479638,24.5248869 39.4909502,24.479638 39.5135747,24.4230769 C39.5361991,24.3665158 39.5475113,24.2986425 39.5701357,24.2420814 C39.581448,24.1855204 39.6040724,24.1289593 39.6153846,24.0837104 C39.638009,24.0271493 39.6493213,23.959276 39.6719457,23.9027149 C39.6832579,23.8461538 39.7058824,23.7895928 39.7171946,23.7443439 C39.7285068,23.6877828 39.7511312,23.6199095 39.7624434,23.5633484 C39.7737557,23.5067873 39.7850679,23.4502262 39.8076923,23.4049774 C39.8190045,23.3371041 39.841629,23.280543 39.8529412,23.2126697 C39.8642534,23.1561086 39.8755656,23.0995475 39.8868778,23.0429864 C39.89819,22.9751131 39.9095023,22.918552 39.9208145,22.8506787 C39.9321267,22.7941176 39.9434389,22.7375566 39.9547511,22.6809955 C39.9660633,22.6131222 39.9773756,22.5565611 39.9886878,22.4886878 C40,22.4321267 40.0113122,22.3755656 40.0226244,22.3190045 C40.0339367,22.2511312 40.0452489,22.1945701 40.0565611,22.1266968 C40.0678733,22.0701357 40.0678733,22.0135747 40.0791855,21.9683258 C40.0904977,21.9004525 40.10181,21.8325792 40.10181,21.7760181 C40.1131222,21.719457 40.1131222,21.6628959 40.1244344,21.6176471 C40.1357466,21.5497738 40.1357466,21.4819005 40.1470588,21.4140271 C40.1470588,21.3574661 40.158371,21.3122172 40.158371,21.2556561 C40.1696833,21.1877828 40.1696833,21.1199095 40.1809955,21.0520362 C40.1809955,20.9954751 40.1923077,20.9502262 40.1923077,20.8936652 C40.1923077,20.8257919 40.2036199,20.7466063 40.2036199,20.678733 C40.2036199,20.6334842 40.2149321,20.5882353 40.2149321,20.5316742 C40.2149321,20.4524887 40.2262443,20.361991 40.2262443,20.2828054 C40.2262443,20.2375566 40.2262443,20.2036199 40.2262443,20.1696833 C40.2262443,20.0452489 40.2262443,19.9208145 40.2262443,19.8076923 C40.2262443,17.4208145 39.6945701,15.1357466 38.6425339,13.020362 C36.6742081,9.03846154 33.0995475,6.1199095 28.8235294,4.98868778 C28.8235294,4.98868778 28.8235294,4.98868778 28.8235294,4.98868778 C28.8235294,4.98868778 28.8235294,4.98868778 28.8235294,4.98868778 C28.6651584,4.94343891 28.5067873,4.90950226 28.3484163,4.87556561 C27.861991,4.76244344 27.3755656,4.68325792 26.8891403,4.61538462 C24.9208145,4.36651584 22.8959276,4.49095023 20.9728507,4.98868778 C20.158371,5.20361991 19.3665158,5.48642534 18.5972851,5.82579186 C15.361991,7.28506787 12.7262443,9.84162896 11.1425339,13.020362 C10.361991,14.5927602 9.87556561,16.2556561 9.6719457,17.9751131 C9.64932127,18.1561086 9.63800905,18.3257919 9.61538462,18.5067873 C9.59276018,18.7895928 9.57013575,19.0723982 9.57013575,19.3665158 C9.57013575,19.5135747 9.55882353,19.6606335 9.55882353,19.8076923 C9.55882353,19.9547511 9.55882353,20.1357466 9.57013575,20.3054299 C9.55882353,20.2941176 9.55882353,20.3167421 9.57013575,20.3393665 Z M19.4117647,23.5859729 C19.7285068,23.5859729 20.0339367,23.6877828 20.2714932,23.8687783 C21.4932127,24.7511312 22.6809955,25.3506787 24.1176471,25.6108597 L24.1176471,20.4977376 C20.3280543,19.5135747 18.5633484,18.0882353 18.5633484,15.1470588 C18.5633484,12.3642534 20.7692308,10.4524887 24.0158371,10.1923077 L24.0158371,9.64932127 C24.0158371,9.02714932 24.5361991,8.52941176 25.158371,8.52941176 C25.780543,8.52941176 26.2782805,9.02714932 26.2782805,9.64932127 L26.2782805,10.2262443 C27.8054299,10.4072398 29.1063348,10.9049774 30.3054299,11.6515837 C30.7239819,11.8891403 31.0859729,12.2737557 31.0859729,12.8959276 C31.0859729,13.699095 30.4411765,14.321267 29.6266968,14.321267 C29.3665158,14.321267 29.1063348,14.2420814 28.8461538,14.0837104 C27.9411765,13.540724 27.0588235,13.1447964 26.1764706,12.9411765 L26.1764706,17.9298643 C30.1244344,18.9140271 31.8099548,20.4977376 31.8099548,23.280543 C31.8099548,26.1312217 29.581448,28.0316742 26.2782805,28.3484163 L26.2782805,29.9095023 C26.2782805,30.5316742 25.780543,31.0294118 25.158371,31.0294118 C24.5361991,31.0294118 24.0158371,30.5316742 24.0158371,29.9095023 L24.0158371,28.280543 C22.0701357,28.0769231 20.2714932,27.3755656 18.6877828,26.2556561 C18.2466063,25.9728507 17.9864253,25.5542986 17.9864253,25.0113122 C17.9751131,24.2081448 18.6085973,23.5859729 19.4117647,23.5859729 Z" id="Shape" fill="#FFFFFF"></path>
                <path d="M8.51809955,24.0497738 C8.4841629,23.9140271 8.45022624,23.7782805 8.41628959,23.6312217 C8.40497738,23.5972851 8.40497738,23.5633484 8.39366516,23.5294118 C8.37104072,23.4276018 8.34841629,23.3144796 8.32579186,23.2126697 C8.31447964,23.1674208 8.30316742,23.1108597 8.2918552,23.0656109 C8.26923077,22.9638009 8.25791855,22.8733032 8.23529412,22.7714932 C8.2239819,22.7262443 8.21266968,22.6809955 8.21266968,22.6244344 C8.19004525,22.5113122 8.17873303,22.3868778 8.1561086,22.2737557 C8.1561086,22.2511312 8.14479638,22.2285068 8.14479638,22.1945701 C8.12217195,22.0588235 8.11085973,21.9117647 8.08823529,21.7647059 C8.08823529,21.719457 8.07692308,21.6855204 8.07692308,21.6402715 C8.06561086,21.5384615 8.05429864,21.4366516 8.04298643,21.3348416 C8.04298643,21.2895928 8.03167421,21.2330317 8.03167421,21.1877828 C8.02036199,21.0859729 8.02036199,20.9841629 8.00904977,20.8936652 C8.00904977,20.8484163 7.99773756,20.8031674 7.99773756,20.7579186 C7.98642534,20.6221719 7.98642534,20.4864253 7.97511312,20.3506787 C7.97511312,20.3393665 7.97511312,20.3393665 7.97511312,20.3280543 C7.97511312,20.2714932 7.97511312,20.2149321 7.97511312,20.158371 C7.97511312,20.0226244 7.97511312,19.8868778 7.97511312,19.7624434 C7.97511312,19.581448 7.97511312,19.4004525 7.98642534,19.219457 C7.98642534,19.1628959 7.98642534,19.1063348 7.99773756,19.0497738 C7.99773756,18.9253394 8.00904977,18.800905 8.02036199,18.6764706 C8.02036199,18.6085973 8.03167421,18.540724 8.03167421,18.4728507 C8.04298643,18.3597285 8.05429864,18.2352941 8.06561086,18.1221719 C8.07692308,18.0542986 8.07692308,17.9864253 8.08823529,17.9298643 C8.09954751,17.8054299 8.12217195,17.6696833 8.13348416,17.5452489 C8.14479638,17.4886878 8.14479638,17.4434389 8.1561086,17.3868778 C8.17873303,17.2058824 8.21266968,17.0361991 8.23529412,16.8552036 C8.23529412,16.8325792 8.24660633,16.7986425 8.24660633,16.7760181 C8.26923077,16.6289593 8.30316742,16.4705882 8.33710407,16.3235294 C8.34841629,16.2669683 8.35972851,16.2104072 8.37104072,16.1425339 C8.39366516,16.0294118 8.42760181,15.9049774 8.45022624,15.7918552 C8.46153846,15.7239819 8.4841629,15.6674208 8.49547511,15.5995475 C8.52941176,15.4864253 8.5520362,15.3733032 8.58597285,15.260181 C8.59728507,15.2262443 8.60859729,15.1809955 8.6199095,15.1470588 L2.28506787,20.3280543 L8.52941176,24.0723982 C8.51809955,24.061086 8.51809955,24.0497738 8.51809955,24.0497738 Z" id="Path" fill="#25CDD6"></path>
                <path d="M25.2941176,35.4864253 C25.1696833,35.5656109 25.0226244,35.5995475 24.8868778,35.5995475 C24.7511312,35.5995475 24.6040724,35.5656109 24.479638,35.4864253 L9.54751131,26.5271493 C9.54751131,26.5271493 9.54751131,26.5271493 9.54751131,26.5271493 L6.1199095,24.4683258 L1.69683258,21.821267 L1.69683258,43.1561086 C1.69683258,46.0520362 4.06108597,48.4162896 6.95701357,48.4162896 L42.8280543,48.4162896 C45.7239819,48.4162896 48.0882353,46.0520362 48.0882353,43.1561086 L48.0882353,21.821267 L46.6176471,22.7036199 L25.2941176,35.4864253 Z" id="Path" fill="#FFFFFF"></path>
                <path d="M49.6606335,20.3393665 C49.6606335,20.3280543 49.6606335,20.3167421 49.6606335,20.2941176 C49.6606335,20.2714932 49.6493213,20.2488688 49.6493213,20.2375566 C49.6493213,20.2262443 49.6493213,20.2149321 49.638009,20.2036199 C49.6266968,20.1809955 49.6266968,20.158371 49.6153846,20.1357466 C49.6153846,20.1244344 49.6040724,20.1131222 49.6040724,20.1131222 C49.5927602,20.0791855 49.581448,20.0565611 49.5588235,20.0226244 C49.5588235,20.0226244 49.5475113,20.0113122 49.5475113,20.0113122 C49.5361991,19.9886878 49.5135747,19.9660633 49.5022624,19.9434389 C49.4909502,19.9321267 49.4909502,19.9208145 49.479638,19.9208145 C49.4683258,19.9095023 49.4570136,19.8868778 49.4343891,19.8755656 C49.4230769,19.8642534 49.4117647,19.8529412 49.4004525,19.841629 C49.3891403,19.8303167 49.3778281,19.8190045 49.3665158,19.8076923 L39.9660633,12.1153846 C37.8054299,7.86199095 33.959276,4.71719457 29.3778281,3.46153846 L25.3733032,0.180995475 C25.0791855,-0.056561086 24.6606335,-0.056561086 24.3665158,0.180995475 L20.361991,3.45022624 C19.5248869,3.67647059 18.699095,3.98190045 17.9072398,4.33257919 C14.4004525,5.91628959 11.5158371,8.67647059 9.77375566,12.1153846 L0.373303167,19.8076923 C0.36199095,19.8190045 0.350678733,19.8303167 0.339366516,19.841629 C0.328054299,19.8529412 0.316742081,19.8642534 0.305429864,19.8642534 C0.294117647,19.8755656 0.271493213,19.89819 0.260180995,19.9095023 C0.248868778,19.9208145 0.248868778,19.9208145 0.237556561,19.9321267 C0.214932127,19.9547511 0.20361991,19.9773756 0.192307692,20 C0.192307692,20 0.192307692,20.0113122 0.180995475,20.0113122 C0.169683258,20.0452489 0.147058824,20.0678733 0.135746606,20.10181 C0.135746606,20.1131222 0.124434389,20.1244344 0.124434389,20.1244344 C0.113122172,20.1470588 0.113122172,20.1696833 0.101809955,20.1923077 C0.101809955,20.2036199 0.0904977376,20.2149321 0.0904977376,20.2262443 C0.0904977376,20.2488688 0.0791855204,20.2714932 0.0791855204,20.2828054 C0.0791855204,20.2941176 0.0791855204,20.3054299 0.0791855204,20.3280543 C0.0791855204,20.3506787 0.0791855204,20.3733032 0.0791855204,20.3846154 C0.0791855204,20.3959276 0.0791855204,20.3959276 0.0791855204,20.4072398 L0.0791855204,43.1447964 C0.0791855204,46.9230769 3.14479638,49.9886878 6.92307692,49.9886878 L42.7941176,49.9886878 C46.5723982,49.9886878 49.638009,46.9230769 49.638009,43.1447964 L49.638009,20.4072398 C49.638009,20.3959276 49.638009,20.3959276 49.638009,20.3846154 C49.6606335,20.3846154 49.6606335,20.361991 49.6606335,20.3393665 Z M47.5,20.3167421 L47.1832579,20.5090498 L41.2556561,24.0723982 C41.2669683,24.0384615 41.2669683,24.0158371 41.2782805,23.9819005 C41.3122172,23.8687783 41.3348416,23.7443439 41.3687783,23.6312217 C41.3800905,23.5859729 41.3914027,23.540724 41.4027149,23.4954751 C41.4366516,23.3371041 41.4705882,23.178733 41.5045249,23.020362 C41.5045249,23.0090498 41.5045249,22.9977376 41.5158371,22.9864253 C41.5497738,22.8393665 41.5723982,22.6923077 41.5950226,22.5452489 C41.6063348,22.5 41.6063348,22.4434389 41.6176471,22.39819 C41.6402715,22.2850679 41.6515837,22.1606335 41.6742081,22.0475113 C41.6855204,22.0022624 41.6855204,21.9570136 41.6968326,21.9004525 C41.719457,21.7420814 41.7307692,21.5723982 41.7533937,21.4140271 C41.7533937,21.4027149 41.7533937,21.4027149 41.7533937,21.3914027 C41.7647059,21.2330317 41.7760181,21.0746606 41.7873303,20.9162896 C41.7873303,20.8710407 41.7986425,20.8144796 41.7986425,20.7692308 C41.8099548,20.6447964 41.8099548,20.5316742 41.821267,20.4072398 C41.821267,20.361991 41.821267,20.3054299 41.821267,20.260181 C41.821267,20.0904977 41.8325792,19.9321267 41.8325792,19.7624434 C41.8325792,19.581448 41.8325792,19.4004525 41.821267,19.2081448 C41.821267,19.1515837 41.821267,19.0950226 41.8099548,19.0384615 C41.8099548,18.9140271 41.7986425,18.7895928 41.7873303,18.6651584 C41.7873303,18.5972851 41.7760181,18.5294118 41.7760181,18.4615385 C41.7647059,18.3371041 41.7533937,18.2239819 41.7420814,18.1108597 C41.7307692,18.0429864 41.7307692,17.9864253 41.719457,17.918552 C41.7081448,17.7941176 41.6855204,17.658371 41.6742081,17.5339367 C41.6628959,17.4773756 41.6628959,17.4321267 41.6515837,17.3755656 C41.6289593,17.1945701 41.5950226,17.0135747 41.5723982,16.8438914 C41.5723982,16.821267 41.561086,16.7986425 41.561086,16.7760181 C41.5384615,16.6176471 41.5045249,16.4705882 41.4705882,16.3122172 C41.459276,16.2556561 41.4479638,16.199095 41.4366516,16.1312217 C41.4140271,16.0180995 41.3800905,15.8936652 41.3574661,15.780543 C41.3461538,15.7126697 41.3235294,15.6561086 41.3122172,15.5882353 C41.2782805,15.4751131 41.2556561,15.361991 41.2217195,15.2488688 C41.2104072,15.2036199 41.199095,15.1696833 41.1877828,15.1244344 L47.5,20.3167421 Z M24.8868778,1.82126697 L26.2104072,2.90723982 C25.3393665,2.83936652 24.4457014,2.83936652 23.5633484,2.90723982 L24.8868778,1.82126697 Z M9.55882353,19.321267 C9.57013575,19.0384615 9.58144796,18.7443439 9.6040724,18.4615385 C9.61538462,18.280543 9.63800905,18.1108597 9.66063348,17.9298643 C9.86425339,16.2104072 10.361991,14.5475113 11.1312217,12.9751131 C12.7036199,9.79638009 15.3506787,7.239819 18.5859729,5.78054299 C19.3552036,5.44117647 20.1470588,5.15837104 20.9615385,4.94343891 C22.8846154,4.43438914 24.9095023,4.30995475 26.8778281,4.57013575 C27.3642534,4.63800905 27.861991,4.71719457 28.3371041,4.83031674 C28.4954751,4.86425339 28.6538462,4.90950226 28.8122172,4.94343891 C28.8122172,4.94343891 28.8122172,4.94343891 28.8122172,4.94343891 C28.8122172,4.94343891 28.8122172,4.94343891 28.8122172,4.94343891 C33.0882353,6.07466063 36.6628959,9.00452489 38.6312217,12.9751131 C39.6832579,15.10181 40.2149321,17.3868778 40.2149321,19.7624434 C40.2149321,19.8868778 40.2149321,20.0113122 40.2149321,20.1244344 C40.2149321,20.1696833 40.2149321,20.2036199 40.2149321,20.2375566 C40.2149321,20.3167421 40.2149321,20.4072398 40.2036199,20.4864253 C40.2036199,20.5316742 40.2036199,20.5769231 40.1923077,20.6334842 C40.1923077,20.7013575 40.1809955,20.780543 40.1809955,20.8484163 C40.1809955,20.9049774 40.1696833,20.9502262 40.1696833,21.0067873 C40.1696833,21.0746606 40.158371,21.1425339 40.1470588,21.2104072 C40.1470588,21.2669683 40.1357466,21.3122172 40.1357466,21.3687783 C40.1244344,21.4366516 40.1244344,21.5045249 40.1131222,21.5723982 C40.10181,21.6289593 40.10181,21.6855204 40.0904977,21.7307692 C40.0791855,21.7986425 40.0791855,21.8665158 40.0678733,21.9230769 C40.0565611,21.979638 40.0565611,22.0361991 40.0452489,22.081448 C40.0339367,22.1493213 40.0226244,22.2058824 40.0113122,22.2737557 C40,22.3303167 39.9886878,22.3868778 39.9773756,22.4434389 C39.9660633,22.5113122 39.9547511,22.5678733 39.9434389,22.6357466 C39.9321267,22.6923077 39.9208145,22.7488688 39.9095023,22.8054299 C39.89819,22.8733032 39.8868778,22.9298643 39.8755656,22.9977376 C39.8642534,23.0542986 39.8529412,23.1108597 39.841629,23.1674208 C39.8303167,23.2352941 39.8076923,23.2918552 39.7963801,23.3597285 C39.7850679,23.4162896 39.7737557,23.4728507 39.7511312,23.5180995 C39.739819,23.5859729 39.7171946,23.6425339 39.7058824,23.699095 C39.6945701,23.7556561 39.6719457,23.8122172 39.6606335,23.8574661 C39.638009,23.9140271 39.6266968,23.9819005 39.6040724,24.0384615 C39.5927602,24.0950226 39.5701357,24.1515837 39.5588235,24.1968326 C39.5361991,24.2533937 39.5248869,24.321267 39.5022624,24.3778281 C39.479638,24.4343891 39.4683258,24.479638 39.4457014,24.5361991 C39.4230769,24.5927602 39.4004525,24.6606335 39.3778281,24.7171946 C39.3552036,24.7737557 39.3438914,24.8190045 39.321267,24.8755656 C39.2986425,24.9321267 39.2760181,25 39.2533937,25.0565611 C39.2307692,25.1131222 39.219457,25.158371 39.1968326,25.2149321 C39.1855204,25.2375566 39.1855204,25.2488688 39.1742081,25.2714932 L24.8868778,33.8914027 L10.5882353,25.3167421 C10.5882353,25.3054299 10.5769231,25.2941176 10.5769231,25.2828054 C10.5542986,25.2375566 10.5429864,25.1809955 10.520362,25.1357466 C10.4977376,25.0791855 10.4751131,25.0226244 10.4638009,24.9660633 C10.4411765,24.9208145 10.4298643,24.8642534 10.4072398,24.8190045 C10.3846154,24.7624434 10.3733032,24.7058824 10.3506787,24.6493213 C10.3393665,24.6040724 10.3167421,24.5475113 10.3054299,24.5022624 C10.2828054,24.4457014 10.2714932,24.3891403 10.2488688,24.3325792 C10.2375566,24.2873303 10.2149321,24.2307692 10.2036199,24.1855204 C10.1923077,24.1289593 10.1696833,24.0723982 10.158371,24.0158371 C10.1470588,23.959276 10.1244344,23.9140271 10.1131222,23.8574661 C10.10181,23.800905 10.0791855,23.7443439 10.0678733,23.6877828 C10.0565611,23.6312217 10.0452489,23.5859729 10.0226244,23.5294118 C10.0113122,23.4728507 10,23.4162896 9.97737557,23.3710407 C9.96606335,23.3144796 9.95475113,23.2692308 9.94343891,23.2126697 C9.9321267,23.1561086 9.92081448,23.1108597 9.90950226,23.0542986 C9.89819005,22.9977376 9.88687783,22.9411765 9.87556561,22.8959276 C9.86425339,22.8393665 9.85294118,22.7941176 9.84162896,22.7375566 C9.83031674,22.6809955 9.81900452,22.6244344 9.80769231,22.5678733 C9.79638009,22.5113122 9.78506787,22.4660633 9.78506787,22.4095023 C9.77375566,22.3529412 9.76244344,22.2963801 9.75113122,22.239819 C9.739819,22.1945701 9.739819,22.138009 9.72850679,22.0927602 C9.71719457,22.0361991 9.70588235,21.979638 9.70588235,21.9117647 C9.69457014,21.8665158 9.69457014,21.8099548 9.68325792,21.7647059 C9.6719457,21.7081448 9.6719457,21.6402715 9.66063348,21.5837104 C9.64932127,21.5384615 9.64932127,21.4819005 9.64932127,21.4366516 C9.63800905,21.3800905 9.63800905,21.3122172 9.62669683,21.2556561 C9.62669683,21.2104072 9.61538462,21.1538462 9.61538462,21.1085973 C9.61538462,21.0520362 9.6040724,20.9841629 9.6040724,20.9276018 C9.6040724,20.8710407 9.59276018,20.8144796 9.59276018,20.7692308 C9.59276018,20.7126697 9.58144796,20.6561086 9.58144796,20.5995475 C9.58144796,20.5090498 9.57013575,20.418552 9.57013575,20.3393665 C9.57013575,20.3167421 9.57013575,20.2941176 9.57013575,20.2714932 C9.55882353,20.10181 9.55882353,19.9208145 9.55882353,19.7737557 C9.55882353,19.6153846 9.55882353,19.4683258 9.55882353,19.321267 Z M8.60859729,15.1357466 C8.59728507,15.1696833 8.58597285,15.2149321 8.57466063,15.2488688 C8.54072398,15.361991 8.51809955,15.4751131 8.4841629,15.5882353 C8.47285068,15.6561086 8.45022624,15.7126697 8.43891403,15.780543 C8.40497738,15.8936652 8.38235294,16.0180995 8.35972851,16.1312217 C8.34841629,16.1877828 8.33710407,16.2443439 8.32579186,16.3122172 C8.2918552,16.459276 8.26923077,16.6063348 8.23529412,16.7647059 C8.23529412,16.7873303 8.2239819,16.821267 8.2239819,16.8438914 C8.19004525,17.0248869 8.16742081,17.1945701 8.14479638,17.3755656 C8.13348416,17.4321267 8.13348416,17.4773756 8.12217195,17.5339367 C8.11085973,17.658371 8.08823529,17.7828054 8.07692308,17.918552 C8.06561086,17.9864253 8.06561086,18.0542986 8.05429864,18.1108597 C8.04298643,18.2239819 8.03167421,18.3484163 8.02036199,18.4615385 C8.02036199,18.5294118 8.00904977,18.5972851 8.00904977,18.6651584 C7.99773756,18.7895928 7.99773756,18.9140271 7.98642534,19.0384615 C7.98642534,19.0950226 7.98642534,19.1515837 7.97511312,19.2081448 C7.9638009,19.3891403 7.9638009,19.5701357 7.9638009,19.7511312 C7.9638009,19.8642534 7.9638009,20 7.9638009,20.1470588 C7.9638009,20.2036199 7.9638009,20.260181 7.9638009,20.3167421 C7.9638009,20.3280543 7.9638009,20.3280543 7.9638009,20.3393665 C7.9638009,20.4751131 7.97511312,20.6108597 7.98642534,20.7466063 C7.98642534,20.7918552 7.99773756,20.8371041 7.99773756,20.8823529 C8.00904977,20.9841629 8.00904977,21.0859729 8.02036199,21.1764706 C8.02036199,21.2217195 8.03167421,21.2782805 8.03167421,21.3235294 C8.04298643,21.4253394 8.05429864,21.5271493 8.06561086,21.6289593 C8.06561086,21.6742081 8.07692308,21.7081448 8.07692308,21.7533937 C8.08823529,21.9004525 8.11085973,22.0361991 8.13348416,22.1832579 C8.13348416,22.2058824 8.14479638,22.2285068 8.14479638,22.2624434 C8.16742081,22.3755656 8.17873303,22.5 8.20135747,22.6131222 C8.21266968,22.658371 8.21266968,22.7036199 8.2239819,22.760181 C8.24660633,22.861991 8.25791855,22.9524887 8.28054299,23.0542986 C8.2918552,23.0995475 8.30316742,23.1561086 8.31447964,23.2013575 C8.33710407,23.3031674 8.35972851,23.4162896 8.38235294,23.5180995 C8.39366516,23.5520362 8.39366516,23.5859729 8.40497738,23.6199095 C8.43891403,23.7556561 8.47285068,23.9027149 8.50678733,24.0384615 C8.50678733,24.0497738 8.50678733,24.0497738 8.50678733,24.061086 L2.26244344,20.3167421 L8.60859729,15.1357466 Z M48.0769231,43.1561086 C48.0769231,46.0520362 45.7126697,48.4162896 42.8167421,48.4162896 L6.94570136,48.4162896 C4.04977376,48.4162896 1.69683258,46.0520362 1.69683258,43.1561086 L1.69683258,21.821267 L6.1199095,24.479638 L9.54751131,26.5384615 C9.54751131,26.5384615 9.54751131,26.5384615 9.54751131,26.5384615 L24.479638,35.4977376 C24.6040724,35.5769231 24.7511312,35.6108597 24.8868778,35.6108597 C25.0226244,35.6108597 25.1696833,35.5769231 25.2941176,35.4977376 L46.6176471,22.7036199 L48.0882353,21.821267 L48.0882353,43.1561086 L48.0769231,43.1561086 Z" id="Shape" fill="#2C3944"></path>
                <path d="M18.6764706,26.2556561 C20.260181,27.3755656 22.0475113,28.0769231 24.0045249,28.280543 L24.0045249,29.8868778 C24.0045249,30.5090498 24.5248869,31.0067873 25.1470588,31.0067873 C25.7692308,31.0067873 26.2669683,30.5090498 26.2669683,29.8868778 L26.2669683,28.3257919 C29.5588235,28.0090498 31.7986425,26.1199095 31.7986425,23.2579186 C31.7986425,20.4751131 30.1131222,18.8914027 26.1651584,17.9072398 L26.1651584,12.918552 C27.0475113,13.1221719 27.9298643,13.5180995 28.8348416,14.061086 C29.0950226,14.219457 29.3552036,14.2986425 29.6153846,14.2986425 C30.418552,14.2986425 31.0746606,13.6764706 31.0746606,12.8733032 C31.0746606,12.2511312 30.7126697,11.8552036 30.2941176,11.6289593 C29.0950226,10.8710407 27.8054299,10.3846154 26.2669683,10.2036199 L26.2669683,9.62669683 C26.2669683,9.00452489 25.7692308,8.50678733 25.1470588,8.50678733 C24.5248869,8.50678733 24.0045249,9.00452489 24.0045249,9.62669683 L24.0045249,10.1696833 C20.7579186,10.4298643 18.5520362,12.3529412 18.5520362,15.1244344 C18.5520362,18.0542986 20.3167421,19.4909502 24.1063348,20.4751131 L24.1063348,25.5882353 C22.6809955,25.3280543 21.4819005,24.7285068 20.260181,23.8461538 C20.0226244,23.6651584 19.7171946,23.5633484 19.4004525,23.5633484 C18.5972851,23.5633484 17.9751131,24.1855204 17.9751131,24.9886878 C17.9751131,25.5542986 18.2352941,25.9728507 18.6764706,26.2556561 Z M26.1538462,20.9841629 C28.1561086,21.6063348 28.7217195,22.3076923 28.7217195,23.4502262 C28.7217195,24.6945701 27.8167421,25.5316742 26.1538462,25.7126697 L26.1538462,20.9841629 Z M21.6176471,14.9660633 C21.6176471,13.8235294 22.4434389,12.9411765 24.1063348,12.7828054 L24.1063348,17.3755656 C22.1040724,16.7307692 21.6176471,16.0520362 21.6176471,14.9660633 Z" id="Shape" fill="#2C3944"></path>
            </g>
        </g>
    </g>
</svg>