<?xml version="1.0" encoding="UTF-8"?>
<svg width="150px" height="22px" viewBox="0 0 150 22" version="1.1" xmlns="http://www.w3.org/2000/svg" xmlns:xlink="http://www.w3.org/1999/xlink">
    <!-- Generator: Sketch 56 (81588) - https://sketch.com -->
    <title>Group 20</title>
    <desc>Created with Sketch.</desc>
    <g id="Page-1" stroke="none" stroke-width="1" fill="none" fill-rule="evenodd">
        <g id="Update-Copy-16" transform="translate(-597.000000, -1124.000000)" fill="#000000" fill-rule="nonzero">
            <g id="Group-20" transform="translate(597.000000, 1124.000000)">
                <path d="M127.739023,14.8747334 C127.115973,17.0577147 125.505274,17.976136 123.308447,18.2945836 C120.419323,18.7268896 117.472586,18.5698977 114.64575,17.8330654 C108.95523,16.3192855 107.533753,10.845679 111.687418,6.4289493 C112.901211,7.16276332 113.395035,8.83807459 114.982658,9.10113999 C115.905695,10.4580037 117.101027,10.0241765 118.287129,9.56265825 C118.748647,9.19805883 118.670189,8.82422904 118.287129,8.45501444 C117.606538,7.8789513 117.091945,7.13175518 116.796425,6.29049382 C116.440633,5.39442078 116.475774,4.39038968 116.893344,3.52138429 C117.354862,2.59834778 120.613181,0.101534016 123.008461,0.789196217 C125.40374,1.47685842 125.440662,3.69214604 125.532965,5.69513527 C125.251439,6.4289493 124.923761,7.14891777 124.706848,7.90580771 C124.166871,9.05960335 125.066832,9.56265825 125.754494,10.1072498 C127.305196,11.3441187 128.325151,12.8117468 127.739023,14.8747334 Z" id="Path"></path>
                <path d="M124.757615,7.90580771 C124.480704,7.48121092 124.153026,7.07507485 124.393015,6.52125295 C124.62839,6.02742841 125.112984,5.87974257 125.583732,5.70436564 L127.106743,6.30433937 C127.185201,7.15814814 126.01756,7.29198843 126.220628,8.04887837 C125.732008,8.18332626 125.210931,8.13236924 124.757615,7.90580771 L124.757615,7.90580771 Z" id="Path"></path>
                <path d="M118.342511,9.54419752 C116.93488,10.7395298 116.496438,10.7533753 114.401145,9.69649854 L115.03804,9.10113999 L118.342511,9.54419752 Z" id="Path"></path>
                <path d="M112.527381,8.76884685 C113.12274,8.44578407 113.316577,8.92114788 113.621179,9.26728657 C113.00736,9.55804307 112.744295,9.23036511 112.527381,8.76884685 Z" id="Path"></path>
                <path d="M16.1992908,12.7286735 C15.5762411,16.2915944 12.968663,18.6499527 8.2796375,18.6499527 C2.69526661,18.6499527 9.9475983e-14,14.8839637 9.9475983e-14,9.93648804 C9.9475983e-14,5.10900709 2.66757552,0.969188336 8.52424218,0.969188336 C13.5317152,0.969188336 15.8116154,3.88136853 16.1531389,6.83508536 L11.1918177,6.83508536 C10.9656737,5.60283162 10.2687812,4.48134226 8.42270816,4.48134226 C5.99512214,4.48134226 5.16438928,6.78893354 5.16438928,9.7611111 C5.16438928,12.4656081 5.85666666,15.1331836 8.47809035,15.1331836 C10.4626188,15.1331836 11.0164408,13.6886315 11.2471999,12.7286735 L16.1992908,12.7286735 Z" id="Path"></path>
                <path d="M22.8220777,15.017804 L21.8344287,18.3361203 L16.9700262,18.3361203 L22.3559443,1.28763593 L28.8171999,1.28763593 L34.4246467,18.3361203 L29.2048752,18.3361203 L28.1526136,15.017804 L22.8220777,15.017804 Z M27.2941896,11.325658 C26.495763,8.6488521 25.8404071,6.24895718 25.4481166,4.60133701 L25.383504,4.60133701 C24.9912135,6.44741003 24.3358576,8.87499605 23.6481954,11.325658 L27.2941896,11.325658 Z" id="Combined-Shape"></path>
                <path d="M36.2153375,18.3361203 L36.2153375,1.28763593 L42.2150748,1.28763593 C44.0103808,5.12746782 46.6041134,10.314933 47.3194667,12.4148411 L47.4071552,12.4148411 C47.2179327,10.642611 47.1717809,7.63351194 47.1717809,4.91516942 L47.1717809,1.28763593 L51.6900446,1.28763593 L51.6900446,18.3361203 L46.0087549,18.3361203 C44.5595876,15.2301024 41.4766456,8.85192014 40.678219,6.59971105 L40.6136065,6.59971105 C40.7705227,8.20579458 40.7889834,11.5056501 40.7889834,14.5055188 L40.7889834,18.3361203 L36.2153375,18.3361203 Z" id="Path"></path>
                <path d="M59.5358549,15.017804 L58.5482059,18.3361203 L53.6791883,18.3361203 L59.0743367,1.28763593 L65.5355923,1.28763593 L71.1338087,18.3361203 L65.9186524,18.3361203 L64.8848515,15.017804 L59.5358549,15.017804 Z M64.012582,11.325658 C63.2095402,8.6488521 62.5541843,6.24895718 62.166509,4.60133701 L62.1018964,4.60133701 C61.7049907,6.44741003 61.05425,8.87499605 60.3619726,11.325658 L64.012582,11.325658 Z M77.7750564,11.8933254 L77.7750564,18.354581 L72.9198843,18.354581 L72.9198843,1.28763593 L81.3656684,1.28763593 C85.3808772,1.28763593 87.3238691,3.43369582 87.3238691,6.00896768 C87.4194615,7.76356345 86.3932836,9.38618414 84.767058,10.0518676 C85.8423955,10.4256974 86.9869608,11.5610323 86.9869608,14.4501366 L86.9869608,15.1608747 C86.9570147,16.2239829 87.0312114,17.2874696 87.2084895,18.3361203 L82.4548515,18.3361203 C82.164095,17.6023063 82.0902521,16.3654373 82.0902521,14.611668 L82.0902521,14.1732256 C82.0902521,12.7009824 81.7394982,11.8933254 79.5334409,11.8933254 L77.7750564,11.8933254 Z M77.7750564,8.41347779 L80.0826477,8.41347779 C81.7441134,8.41347779 82.3533175,7.72120041 82.3533175,6.56740477 C82.3533175,5.41360913 81.633349,4.76286839 80.1057236,4.76286839 L77.7704412,4.76286839 L77.7750564,8.41347779 Z" id="Combined-Shape"></path>
                <path d="M90.0791331,1.28763593 L97.4034278,1.28763593 C102.830882,1.28763593 105.978437,4.72133175 105.978437,9.62265562 C105.978437,14.5239795 102.918571,18.3361203 97.3249697,18.3361203 L90.0791331,18.3361203 L90.0791331,1.28763593 Z M95.0727606,14.7178172 L96.9834462,14.7178172 C99.6971735,14.7178172 100.809433,12.816362 100.809433,9.64111635 C100.809433,6.81662463 99.7710164,4.92439978 97.0434435,4.92439978 L95.0727606,4.92439978 L95.0727606,14.7178172 Z" id="Combined-Shape"></path>
                <path d="M134.647951,5.21515629 C134.500265,6.1381928 133.909522,7.06122931 132.174213,7.06122931 C130.438905,7.06122931 129.622017,5.8982033 129.622017,4.46749671 C129.622017,2.95371683 130.545054,1.78146047 132.238826,1.78146047 C134.135666,1.78146047 134.615645,3.05986603 134.647951,3.66907013 L132.866491,3.66907013 C132.815724,3.31831626 132.658807,3.03679012 132.248056,3.03679012 C131.837305,3.03679012 131.537318,3.49830838 131.537318,4.42134489 C131.537318,5.45976096 131.800383,5.83820593 132.238826,5.83820593 C132.677268,5.83820593 132.788032,5.55206461 132.866491,5.21515629 L134.647951,5.21515629 Z" id="Path"></path>
                <path d="M140.587691,4.43519043 C140.587691,6.0043525 139.609272,7.07969004 137.878579,7.07969004 C136.147885,7.07969004 135.224849,5.90743367 135.224849,4.45365116 C135.224849,2.99986866 136.147885,1.7999212 137.957037,1.7999212 C138.667664,1.75764646 139.362352,2.02185108 139.865288,2.52566969 C140.368225,3.0294883 140.631211,3.72463849 140.587691,4.43519043 Z M137.121689,4.43519043 C137.121689,5.3951484 137.40783,5.8197452 137.90627,5.8197452 C138.40471,5.8197452 138.667775,5.39053322 138.667775,4.45826635 C138.667775,3.41985027 138.409325,3.07371158 137.89704,3.07371158 C137.384754,3.07371158 137.121689,3.40138954 137.121689,4.4444208 L137.121689,4.43519043 Z M140.587691,15.8116154 C140.587691,17.3807775 139.609272,18.456115 137.878579,18.456115 C136.147885,18.456115 135.224849,17.2838587 135.224849,15.8300762 C135.224849,14.3762937 136.147885,13.1763462 137.957037,13.1763462 C138.667664,13.1340715 139.362352,13.3982761 139.865288,13.9020947 C140.368225,14.4059133 140.631211,15.1010635 140.587691,15.8116154 Z M137.121689,15.8116154 C137.121689,16.7715734 137.40783,17.1961702 137.90627,17.1961702 C138.40471,17.1961702 138.667775,16.7669582 138.667775,15.8116154 C138.667775,14.7731994 138.409325,14.4270607 137.89704,14.4270607 C137.384754,14.4270607 137.121689,14.7685842 137.121689,15.8208458 L137.121689,15.8116154 Z" id="Combined-Shape"></path>
                <polygon id="Shape-path" points="141.418424 4.69624339e-14 143.292188 4.69624339e-14 143.292188 1.30609666 141.418424 1.30609666"></polygon>
                <polygon id="Shape-path" points="141.418424 1.92453112 143.292188 1.92453112 143.292188 6.95969529 141.418424 6.95969529"></polygon>
                <path d="M144.381371,3.23062779 C144.381371,2.76910953 144.381371,2.30759128 144.381371,1.92453112 L146.227444,1.92453112 C146.256177,2.10796648 146.274666,2.29286037 146.282826,2.47835303 C146.603848,2.02732751 147.132968,1.77147055 147.685842,1.7999212 C148.696567,1.7999212 149.333462,2.48296821 149.333462,3.71522196 L149.333462,6.94584974 L147.464313,6.94584974 L147.464313,3.93213554 C147.464313,3.47061728 147.325857,3.1752456 146.89203,3.1752456 C146.458203,3.1752456 146.255135,3.37831363 146.255135,4.09828211 L146.255135,6.97354084 L144.381371,6.97354084 L144.381371,3.23062779 Z" id="Path"></path>
                <path d="M134.647951,16.6146572 C134.500265,17.5376937 133.909522,18.4607302 132.174213,18.4607302 C130.438905,18.4607302 129.622017,17.2977042 129.622017,15.8669976 C129.622017,14.3532177 130.545054,13.1809614 132.238826,13.1809614 C134.135666,13.1809614 134.615645,14.4593669 134.647951,15.068571 L132.866491,15.068571 C132.815724,14.713202 132.658807,14.436291 132.248056,14.436291 C131.837305,14.436291 131.537318,14.8978093 131.537318,15.8208458 C131.537318,16.8592619 131.800383,17.2377068 132.238826,17.2377068 C132.677268,17.2377068 132.788032,16.9515655 132.866491,16.6146572 L134.647951,16.6146572 Z" id="Path"></path>
                <polygon id="Shape-path" points="141.418424 11.376425 143.292188 11.376425 143.292188 12.6825217 141.418424 12.6825217"></polygon>
                <polygon id="Shape-path" points="141.418424 13.3009561 143.292188 13.3009561 143.292188 18.3361203 141.418424 18.3361203"></polygon>
                <path d="M144.381371,14.6070528 C144.381371,14.1686104 144.381371,13.6840163 144.381371,13.3009561 L146.227444,13.3009561 C146.25641,13.4843615 146.274901,13.6692686 146.282826,13.854778 C146.60798,13.393652 147.15072,13.1362882 147.713533,13.1763462 C148.724258,13.1763462 149.361153,13.8593932 149.361153,15.0916469 L149.361153,18.3222747 L147.492004,18.3222747 L147.492004,15.3085605 C147.492004,14.8239664 147.353549,14.5516706 146.919721,14.5516706 C146.485894,14.5516706 146.282826,14.7547386 146.282826,15.4747071 L146.282826,18.3499658 L144.409062,18.3499658 L144.381371,14.6070528 Z" id="Path"></path>
                <polygon id="Path" points="143.278342 21.5575177 143.278342 21.0129262 143.786012 21.0129262 143.786012 21.5575177"></polygon>
                <path d="M145.37825,21.0821539 C145.356509,21.2401882 145.272727,21.3830578 145.145421,21.4791867 C145.018115,21.5753155 144.857768,21.6167884 144.699819,21.5944392 C144.506487,21.6135497 144.314818,21.5446553 144.177894,21.4068365 C144.04097,21.2690176 143.973326,21.0769038 143.993696,20.8837011 C143.978874,20.6881668 144.048806,20.4956937 144.185689,20.3552785 C144.322571,20.2148633 144.513201,20.1400513 144.709049,20.149887 C144.867102,20.1249748 145.028436,20.1662869 145.155064,20.264096 C145.281692,20.3619051 145.362424,20.5075683 145.37825,20.6667875 L144.889041,20.6667875 C144.889041,20.5698686 144.833659,20.4914105 144.722895,20.4914105 C144.61213,20.4914105 144.529057,20.6160205 144.529057,20.8652403 C144.529057,21.1144602 144.598285,21.2529157 144.718279,21.2529157 C144.838274,21.2529157 144.865965,21.1744576 144.889041,21.0821539 L145.37825,21.0821539 Z" id="Path"></path>
                <path d="M146.988949,20.8698555 C146.996437,21.1713397 146.819841,21.4470818 146.542865,21.5663834 C146.265888,21.685685 145.944198,21.6245694 145.73027,21.4120045 C145.516343,21.1994396 145.453173,20.8781461 145.570702,20.6004131 C145.688232,20.3226801 145.96284,20.1443254 146.264365,20.149887 C146.459201,20.1377094 146.649937,20.2094792 146.788416,20.347076 C146.926895,20.4846728 146.999882,20.6749459 146.988949,20.8698555 Z" id="Shape-path"></path>
                <path d="M146.042837,20.8698555 C146.042837,21.1283057 146.11668,21.2436853 146.255135,21.2436853 C146.393591,21.2436853 146.462818,21.1283057 146.462818,20.8744707 C146.462818,20.6206356 146.388975,20.4914105 146.25052,20.4914105 C146.112064,20.4914105 146.042837,20.5883294 146.042837,20.8744707 L146.042837,20.8698555 Z" id="Shape-path"></path>
                <path d="M147.224323,20.5606383 C147.224323,20.4314132 147.224323,20.3021881 147.224323,20.1821933 L147.685842,20.1821933 C147.685842,20.2144996 147.685842,20.2791121 147.685842,20.3298791 C147.777823,20.2100523 147.922623,20.1428238 148.073517,20.149887 C148.217613,20.1378261 148.35522,20.2120614 148.424271,20.3391095 C148.526916,20.2111365 148.685075,20.1406526 148.848868,20.149887 C149.102703,20.149887 149.310386,20.3114184 149.310386,20.6667875 L149.310386,21.5621329 L148.811946,21.5621329 L148.811946,20.7083241 C148.811946,20.6067901 148.77964,20.5237168 148.668876,20.5237168 C148.558111,20.5237168 148.507344,20.5975597 148.507344,20.7544759 L148.507344,21.5621329 L148.008904,21.5621329 L148.008904,20.7129393 C148.008904,20.6114053 147.981213,20.5237168 147.865834,20.5237168 C147.750454,20.5237168 147.704302,20.5883294 147.704302,20.7683215 L147.704302,21.5621329 L147.224323,21.5621329 L147.224323,20.5606383 Z" id="Path"></path>
                <path d="M124.148411,11.6579511 C124.259175,10.896446 123.686892,10.4856948 122.883851,10.2087838 L123.142301,9.17498292 L122.510021,9.01806671 L122.260801,10.0241765 L121.753131,9.90879694 L122.006966,8.89345678 L121.379301,8.73654057 L121.120851,9.77034147 L120.71933,9.67803781 L120.71933,9.67803781 L119.851676,9.46112423 L119.690144,10.1534016 C119.690144,10.1534016 120.151663,10.2549356 120.151663,10.264166 C120.332589,10.2881668 120.461505,10.4518701 120.442419,10.6333806 L120.147047,11.8102522 C120.170976,11.8150984 120.194224,11.8228477 120.216275,11.8333281 L120.147047,11.8333281 L119.736296,13.4855634 C119.718374,13.5444332 119.677234,13.5934569 119.622369,13.6213251 C119.567503,13.6491934 119.50365,13.6534992 119.44554,13.6332493 C119.44554,13.6332493 118.984021,13.5224849 118.984021,13.5224849 L118.670189,14.2424534 L119.491691,14.4455214 L119.95321,14.560901 L119.69476,15.6085474 L120.322424,15.7654636 L120.580875,14.7316627 L121.083929,14.8608878 L120.825479,15.8900735 L121.457759,16.0469897 L121.716209,15.0039585 C122.791547,15.2070265 123.599204,15.1239532 123.940727,14.1547649 C124.081939,13.8772839 124.099305,13.5530477 123.98854,13.2620707 C123.877776,12.9710938 123.649198,12.7404799 123.359214,12.6271395 C123.814441,12.5249466 124.140567,12.1244411 124.148411,11.6579511 Z" id="Shape-path"></path>
                <path d="M122.708474,13.6747859 C122.510021,14.4593669 121.194694,14.0347701 120.765482,13.9286209 L121.116236,12.5440662 C121.550063,12.6502154 122.920772,12.8625138 122.717704,13.6747859 L122.708474,13.6747859 Z" id="Shape-path"></path>
                <path d="M122.902311,11.6487208 C122.722319,12.3594589 121.628521,11.9994746 121.273152,11.9117862 L121.586984,10.6518413 C121.951584,10.7395298 123.096149,10.9056764 122.911542,11.6487208 L122.902311,11.6487208 Z" id="Shape-path"></path>
                <circle id="Oval" cx="122.837699" cy="4.7351773" r="1"></circle>
            </g>
        </g>
    </g>
</svg>