<?xml version="1.0" encoding="UTF-8"?>
<svg width="173px" height="20px" viewBox="0 0 173 20" version="1.1" xmlns="http://www.w3.org/2000/svg" xmlns:xlink="http://www.w3.org/1999/xlink">
    <!-- Generator: Sketch 56 (81588) - https://sketch.com -->
    <title>Group 27</title>
    <desc>Created with Sketch.</desc>
    <g id="Page-1" stroke="none" stroke-width="1" fill="none" fill-rule="evenodd">
        <g id="Update-Copy-16" transform="translate(-766.000000, -1217.000000)" fill="#101111" fill-rule="nonzero">
            <g id="Group-27" transform="translate(766.000000, 1216.972025)">
                <path d="M14.4208696,9.39130435 L12.96,9.39130435 C12.2295652,9.39130435 11.4782609,9.51652174 11.2904348,9.72521739 C11.1652174,9.26608696 10.8104348,8.18086957 10.56,7.57565217 C10.9356522,7.47130435 11.2069565,6.94956522 11.52,6.21913043 C11.6452174,5.92695652 11.8747826,5.28 12.1252174,4.46608696 L10.4556522,4.46608696 L10.4556522,2.29565217 L12.6678261,2.29565217 C12.8347826,1.54434783 12.9808696,0.772173913 13.0852174,-1.29674049e-13 L15.5478261,0.43826087 C15.4017391,1.06434783 15.2556522,1.66956522 15.0678261,2.29565217 L19.3878261,2.29565217 L19.3878261,4.46608696 L14.3582609,4.46608696 C13.9826087,5.48869565 13.5652174,6.49043478 13.1895652,7.36695652 L14.4208696,7.36695652 L14.4208696,5.17565217 L16.7373913,5.17565217 L16.7373913,7.36695652 L19.0330435,7.36695652 L19.0330435,9.39130435 L16.7373913,9.39130435 L16.7373913,11.3530435 L19.5965217,11.3530435 L19.5965217,13.5234783 L16.7373913,13.5234783 L16.7373913,16.32 L14.4208696,16.32 L14.4208696,13.5234783 L10.56,13.5234783 L10.56,11.3530435 L14.4208696,11.3530435 L14.4208696,9.39130435 Z" id="Shape-path"></path>
                <path d="M9.95478261,4.7373913 L7.80521739,5.42608696 C7.59652174,4.27826087 7.07478261,2.50434783 6.59478261,1.18956522 L8.64,0.584347826 C9.14086957,1.89913043 9.70434783,3.58956522 9.95478261,4.7373913 Z" id="Shape-path"></path>
                <path d="M4.61217391,15.2765217 L6.13565217,14.1495652 C6.28173913,14.7547826 6.59478261,15.6313043 6.84521739,16.0486957 C3.54782609,18.4904348 2.96347826,19.0121739 2.62956522,19.4504348 L2.60869565,19.3252174 C2.58782609,19.3669565 2.58782609,19.4086957 2.58782609,19.4504348 C2.37913043,19.0121739 1.77391304,18.1773913 1.39826087,17.8643478 C2.05996,17.311523 2.44219223,16.4935461 2.44173913,15.6313043 L2.44173913,12.3547826 L0.584347826,12.3547826 L0.584347826,10.2469565 L2.44173913,10.2469565 L2.44173913,8.07652174 L1.48173913,8.07652174 L1.48173913,6.6573913 C1.3773913,6.84521739 1.23130435,7.01217391 1.10608696,7.1373913 C0.939130435,6.63652174 0.354782609,5.42608696 1.38555833e-13,4.90434783 C0.96,3.71478261 1.69043478,1.94086957 2.14956522,0.146086957 L4.19478261,0.730434783 C4.06476798,1.20140798 3.91859463,1.66777056 3.75652174,2.12869565 L6.51130435,2.12869565 L6.51130435,4.2573913 L2.92173913,4.2573913 C2.60869565,4.88347826 2.29565217,5.44695652 1.94086957,5.98956522 L6.01043478,5.98956522 L6.01043478,8.07652174 L4.61217391,8.07652174 L4.61217391,10.2469565 L6.59478261,10.2469565 L6.59478261,12.3547826 L4.61217391,12.3547826 L4.61217391,15.2765217 Z" id="Shape-path"></path>
                <path d="M9.97565217,6.84521739 L9.97565217,15.36 C10.3304348,15.5478261 10.706087,15.84 11.2069565,16.1321739 C12.2504348,16.7582609 13.5443478,16.946087 15.1513043,16.946087 C16.4034783,16.946087 18.5321739,16.8208696 19.8886957,16.6330435 C19.68,17.28 19.3669565,18.4904348 19.346087,19.1165217 C18.3026087,19.2 16.4243478,19.2626087 15.1304348,19.2626087 C13.3356522,19.2626087 12.0834783,18.9495652 10.9565217,18.2608696 C10.226087,17.8226087 9.6,17.3008696 9.20347826,17.3008696 C8.7026087,17.3008696 7.88869565,18.5321739 7.28347826,19.5756522 L5.76,17.2591304 C6.38608696,16.5913043 7.07478261,16.0069565 7.7426087,15.6313043 L7.7426087,9.07826087 L6.53217391,9.07826087 L6.53217391,6.84521739 L9.97565217,6.84521739 Z" id="Shape-path"></path>
                <polygon id="Shape-path" points="21.8504348 19.5547826 21.8504348 5.09217391 24.3756522 5.09217391 24.3756522 19.5547826"></polygon>
                <path d="M22.226087,1.41913043 L24.0208696,0.187826087 C25.0017391,1.04347826 26.1704348,2.25391304 26.7130435,3.13043478 L24.7721739,4.50782609 C24.2921739,3.65217391 23.1652174,2.31652174 22.226087,1.41913043 L22.226087,1.41913043 Z" id="Shape-path"></path>
                <path d="M28.7791304,12.48 L28.7791304,13.8782609 C30.0104348,13.7947826 31.346087,13.7113043 32.7026087,13.6069565 L32.7026087,12.48 L28.7791304,12.48 Z" id="Shape-path"></path>
                <polygon id="Shape-path" points="32.7026087 6.72 28.7791304 6.72 28.7791304 7.82608696 32.7026087 7.82608696"></polygon>
                <polygon id="Shape-path" points="28.7791304 9.55826087 28.7791304 10.7478261 32.7026087 10.7478261 32.7026087 9.55826087"></polygon>
                <path d="M36.5217391,15.2347826 L34.9147826,15.3808696 L34.9147826,17.7391304 L32.7026087,17.7391304 L32.7026087,15.5478261 C29.9269565,15.7773913 27.2765217,15.9652174 25.2104348,16.1321739 L25.0017391,14.1078261 C25.4817391,14.0869565 26.0034783,14.0452174 26.5669565,14.0243478 L26.5669565,6.72 L25.44,6.72 L25.44,4.82086957 L36.0834783,4.82086957 L36.0834783,6.72 L34.9147826,6.72 L34.9147826,13.44 L36.5008696,13.3356522 L36.5217391,15.2347826 Z" id="Shape-path"></path>
                <path d="M39.8817391,0.855652174 L39.8817391,16.9043478 C39.8817391,18.093913 39.6730435,18.6782609 38.9634783,19.0747826 C38.2747826,19.4504348 37.2521739,19.5130435 35.8330435,19.5130435 C35.7495652,18.8869565 35.4365217,17.8643478 35.1443478,17.2591304 C35.9165217,17.3008696 36.7721739,17.3008696 37.0434783,17.3008696 C37.3356522,17.28 37.4191304,17.1965217 37.4191304,16.9043478 L37.4191304,3.06782609 L27.5686957,3.06782609 L27.5686957,0.855652174 L39.8817391,0.855652174 Z" id="Shape-path"></path>
                <path d="M56.2052174,13.826087 C56.2886957,13.826087 56.3721739,13.8417391 56.4556522,13.8730435 C56.5391304,13.9043478 56.6191304,13.9582609 56.6956522,14.0347826 L58.093913,15.506087 C57.4817391,16.306087 56.7147826,16.9095652 55.7930435,17.3165217 C54.8713043,17.7234783 53.7808696,17.9269565 52.5217391,17.9269565 C51.3669565,17.9269565 50.3321739,17.7304348 49.4173913,17.3373913 C48.5026087,16.9443478 47.7269565,16.4017391 47.0904348,15.7095652 C46.453913,15.0173913 45.9652174,14.1965217 45.6243478,13.2469565 C45.2834783,12.2973913 45.1130435,11.266087 45.1130435,10.1530435 C45.1130435,9.01913043 45.3078261,7.9773913 45.6973913,7.02782609 C46.0869565,6.07826087 46.6313043,5.25913043 47.3304348,4.57043478 C48.0295652,3.88173913 48.866087,3.34608696 49.84,2.96347826 C50.813913,2.58086957 51.8886957,2.38956522 53.0643478,2.38956522 C53.6347826,2.38956522 54.1721739,2.44 54.6765217,2.54086957 C55.1808696,2.64173913 55.6521739,2.78086957 56.0904348,2.95826087 C56.5286957,3.13565217 56.9321739,3.34782609 57.3008696,3.59478261 C57.6695652,3.84173913 57.9965217,4.11478261 58.2817391,4.41391304 L57.0921739,6.01043478 C57.0156522,6.10782609 56.9252174,6.19652174 56.8208696,6.27652174 C56.7165217,6.35652174 56.5704348,6.39652174 56.3826087,6.39652174 C56.2573913,6.39652174 56.1391304,6.36869565 56.0278261,6.31304348 C55.9165217,6.2573913 55.7982609,6.18956522 55.6730435,6.10956522 C55.5478261,6.02956522 55.4104348,5.9426087 55.2608696,5.84869565 C55.1113043,5.75478261 54.933913,5.66782609 54.7286957,5.58782609 C54.5234783,5.50782609 54.2834783,5.44 54.0086957,5.38434783 C53.733913,5.32869565 53.4121739,5.30086957 53.0434783,5.30086957 C52.4034783,5.30086957 51.8191304,5.41391304 51.2904348,5.64 C50.7617391,5.86608696 50.3078261,6.18956522 49.9286957,6.61043478 C49.5495652,7.03130435 49.253913,7.54086957 49.0417391,8.13913043 C48.8295652,8.7373913 48.7234783,9.40869565 48.7234783,10.1530435 C48.7234783,10.9321739 48.8295652,11.6243478 49.0417391,12.2295652 C49.253913,12.8347826 49.5426087,13.3443478 49.9078261,13.7582609 C50.2730435,14.1721739 50.6991304,14.4869565 51.186087,14.7026087 C51.6730435,14.9182609 52.1947826,15.026087 52.7513043,15.026087 C53.0713043,15.026087 53.3634783,15.0104348 53.6278261,14.9791304 C53.8921739,14.9478261 54.1373913,14.893913 54.3634783,14.8173913 C54.5895652,14.7408696 54.8052174,14.6417391 55.0104348,14.52 C55.2156522,14.3982609 55.4226087,14.2469565 55.6313043,14.066087 C55.7147826,13.9965217 55.8052174,13.9391304 55.9026087,13.893913 C56,13.8486957 56.1008696,13.826087 56.2052174,13.826087 L56.2052174,13.826087 Z" id="Shape-path"></path>
                <polygon id="Shape-path" points="72.973913 17.76 69.426087 17.76 69.426087 11.3321739 63.2486957 11.3321739 63.2486957 17.76 59.7008696 17.76 59.7008696 2.55652174 63.2486957 2.55652174 63.2486957 8.91130435 69.426087 8.91130435 69.426087 2.55652174 72.973913 2.55652174"></polygon>
                <path d="M89.6278261,17.76 L86.893913,17.76 C86.5878261,17.76 86.3356522,17.6886957 86.1373913,17.546087 C85.9391304,17.4034783 85.8017391,17.2208696 85.7252174,16.9982609 L84.8278261,14.3478261 L79.0469565,14.3478261 L78.1495652,16.9982609 C78.08,17.1930435 77.9443478,17.3686957 77.7426087,17.5252174 C77.5408696,17.6817391 77.293913,17.76 77.0017391,17.76 L74.2469565,17.76 L80.1321739,2.55652174 L83.7426087,2.55652174 L89.6278261,17.76 Z M79.8608696,11.9478261 L84.013913,11.9478261 L82.6156522,7.78434783 L82.2973913,6.85043478 C82.1674635,6.46575041 82.0474241,6.07779675 81.9373913,5.68695652 C81.826087,6.11130435 81.7113043,6.50434783 81.5930435,6.86608696 C81.4747826,7.22782609 81.3634783,7.54086957 81.2591304,7.80521739 L79.8608696,11.9478261 Z" id="Combined-Shape"></path>
                <polygon id="Shape-path" points="94.72 17.76 91.1721739 17.76 91.1721739 2.55652174 94.72 2.55652174"></polygon>
                <path d="M99.3947826,2.55652174 C99.5478261,2.55652174 99.6765217,2.56347826 99.7808696,2.5773913 C99.8852174,2.59130435 99.9791304,2.6173913 100.062609,2.65565217 C100.146087,2.69391304 100.226087,2.74782609 100.302609,2.8173913 C100.37913,2.88695652 100.466087,2.98086957 100.563478,3.09913043 L107.784348,12.2295652 C107.756522,11.9373913 107.735652,11.653913 107.721739,11.3791304 C107.707826,11.1043478 107.70087,10.8452174 107.70087,10.6017391 L107.70087,2.55652174 L110.810435,2.55652174 L110.810435,17.76 L108.973913,17.76 C108.702609,17.76 108.473043,17.7182609 108.285217,17.6347826 C108.097391,17.5513043 107.916522,17.3982609 107.742609,17.1756522 L100.573913,8.11826087 C100.594783,8.3826087 100.612174,8.64173913 100.626087,8.89565217 C100.64,9.14956522 100.646957,9.38782609 100.646957,9.61043478 L100.646957,17.76 L97.5373913,17.76 L97.5373913,2.55652174 L99.3947826,2.55652174 Z" id="Shape-path"></path>
                <path d="M114.857391,2.16695652 C115.010435,2.16695652 115.13913,2.17391304 115.243478,2.18782609 C115.347826,2.20173913 115.441739,2.22782609 115.525217,2.26608696 C115.608696,2.30434783 115.688696,2.35826087 115.765217,2.42782609 C115.841739,2.4973913 115.928696,2.59130435 116.026087,2.70956522 L123.246957,11.84 C123.21913,11.5478261 123.198261,11.2643478 123.184348,10.9895652 C123.170435,10.7147826 123.163478,10.4556522 123.163478,10.2121739 L123.163478,2.16695652 L126.273043,2.16695652 L126.273043,17.3704348 L124.436522,17.3704348 C124.165217,17.3704348 123.935652,17.3286957 123.747826,17.2452174 C123.56,17.1617391 123.37913,17.0086957 123.205217,16.786087 L116.036522,7.72869565 C116.057391,7.99304348 116.074783,8.25217391 116.088696,8.50608696 C116.102609,8.76 116.109565,8.99826087 116.109565,9.22086957 L116.109565,17.3704348 L113,17.3704348 L113,2.16695652 L114.857391,2.16695652 Z" id="Shape-path"></path>
                <polygon id="Shape-path" points="138.565217 2.16695652 138.565217 4.88 132.325217 4.88 132.325217 8.42782609 137.104348 8.42782609 137.104348 11.0365217 132.325217 11.0365217 132.325217 14.6573913 138.565217 14.6573913 138.565217 17.3704348 128.777391 17.3704348 128.777391 2.16695652"></polygon>
                <path d="M139.42087,2.16695652 L142.384348,2.16695652 C142.690435,2.16695652 142.946087,2.23652174 143.151304,2.37565217 C143.356522,2.51478261 143.490435,2.69913043 143.553043,2.92869565 L145.64,10.8591304 C145.709565,11.1165217 145.77913,11.3913043 145.848696,11.6834783 C145.918261,11.9756522 145.970435,12.2817391 146.005217,12.6017391 C146.074783,12.2747826 146.151304,11.9669565 146.234783,11.6782609 C146.318261,11.3895652 146.398261,11.1165217 146.474783,10.8591304 L148.937391,2.92869565 C149,2.73391304 149.133913,2.55826087 149.33913,2.40173913 C149.544348,2.24521739 149.793043,2.16695652 150.085217,2.16695652 L151.128696,2.16695652 C151.434783,2.16695652 151.686957,2.23478261 151.885217,2.37043478 C152.083478,2.50608696 152.22087,2.69217391 152.297391,2.92869565 L154.73913,10.8591304 C154.815652,11.1026087 154.895652,11.3617391 154.97913,11.6365217 C155.062609,11.9113043 155.135652,12.2052174 155.198261,12.5182609 C155.253913,12.2121739 155.311304,11.92 155.370435,11.6417391 C155.429565,11.3634783 155.490435,11.1026087 155.553043,10.8591304 L157.64,2.92869565 C157.695652,2.72695652 157.827826,2.54956522 158.036522,2.39652174 C158.245217,2.24347826 158.495652,2.16695652 158.787826,2.16695652 L161.563478,2.16695652 L156.867826,17.3704348 L153.674783,17.3704348 L150.815652,7.94782609 C150.766957,7.80173913 150.716522,7.64173913 150.664348,7.46782609 C150.612174,7.29391304 150.561739,7.10956522 150.513043,6.91478261 C150.464348,7.10956522 150.413913,7.29391304 150.361739,7.46782609 C150.309565,7.64173913 150.25913,7.80173913 150.210435,7.94782609 L147.309565,17.3704348 L144.116522,17.3704348 L139.42087,2.16695652 Z" id="Shape-path"></path>
                <path d="M171.393043,5.25565217 C171.288696,5.4226087 171.17913,5.54782609 171.064348,5.63130435 C170.949565,5.71478261 170.801739,5.75652174 170.62087,5.75652174 C170.46087,5.75652174 170.288696,5.70608696 170.104348,5.60521739 C169.92,5.50434783 169.711304,5.39130435 169.478261,5.26608696 C169.245217,5.14086957 168.97913,5.02782609 168.68,4.92695652 C168.38087,4.82608696 168.04,4.77565217 167.657391,4.77565217 C166.996522,4.77565217 166.504348,4.91652174 166.18087,5.19826087 C165.857391,5.48 165.695652,5.86086957 165.695652,6.34086957 C165.695652,6.64695652 165.793043,6.90086957 165.987826,7.1026087 C166.182609,7.30434783 166.438261,7.47826087 166.754783,7.62434783 C167.071304,7.77043478 167.433043,7.90434783 167.84,8.02608696 C168.246957,8.14782609 168.662609,8.28347826 169.086957,8.43304348 C169.511304,8.5826087 169.926957,8.75826087 170.333913,8.96 C170.74087,9.16173913 171.102609,9.41913043 171.41913,9.73217391 C171.735652,10.0452174 171.991304,10.426087 172.186087,10.8747826 C172.38087,11.3234783 172.478261,11.8643478 172.478261,12.4973913 C172.478261,13.2 172.356522,13.8573913 172.113043,14.4695652 C171.869565,15.0817391 171.516522,15.6156522 171.053913,16.0713043 C170.591304,16.5269565 170.02087,16.8852174 169.342609,17.146087 C168.664348,17.4069565 167.893913,17.5373913 167.031304,17.5373913 C166.558261,17.5373913 166.076522,17.4886957 165.586087,17.3913043 C165.095652,17.293913 164.62087,17.1565217 164.161739,16.9791304 C163.702609,16.8017391 163.271304,16.5913043 162.867826,16.3478261 C162.464348,16.1043478 162.113043,15.8330435 161.813913,15.533913 L162.857391,13.8852174 C162.933913,13.76 163.041739,13.6591304 163.18087,13.5826087 C163.32,13.506087 163.469565,13.4678261 163.629565,13.4678261 C163.838261,13.4678261 164.048696,13.533913 164.26087,13.666087 C164.473043,13.7982609 164.713043,13.9443478 164.98087,14.1043478 C165.248696,14.2643478 165.556522,14.4104348 165.904348,14.5426087 C166.252174,14.6747826 166.662609,14.7408696 167.135652,14.7408696 C167.775652,14.7408696 168.273043,14.6 168.627826,14.3182609 C168.982609,14.0365217 169.16,13.5895652 169.16,12.9773913 C169.16,12.6226087 169.062609,12.333913 168.867826,12.1113043 C168.673043,11.8886957 168.417391,11.7043478 168.10087,11.5582609 C167.784348,11.4121739 167.424348,11.2834783 167.02087,11.1721739 C166.617391,11.0608696 166.203478,10.9373913 165.77913,10.8017391 C165.354783,10.666087 164.94087,10.4991304 164.537391,10.3008696 C164.133913,10.1026087 163.773913,9.84173913 163.457391,9.51826087 C163.14087,9.19478261 162.885217,8.79130435 162.690435,8.30782609 C162.495652,7.82434783 162.398261,7.22782609 162.398261,6.51826087 C162.398261,5.94782609 162.513043,5.39130435 162.742609,4.84869565 C162.972174,4.30608696 163.309565,3.8226087 163.754783,3.39826087 C164.2,2.97391304 164.746087,2.63478261 165.393043,2.38086957 C166.04,2.12695652 166.78087,2 167.615652,2 C168.081739,2 168.535652,2.03652174 168.977391,2.10956522 C169.41913,2.1826087 169.838261,2.29043478 170.234783,2.43304348 C170.631304,2.57565217 171.001739,2.74608696 171.346087,2.94434783 C171.690435,3.1426087 171.998261,3.36695652 172.269565,3.6173913 L171.393043,5.25565217 Z" id="Shape-path"></path>
            </g>
        </g>
    </g>
</svg>