<?xml version="1.0" encoding="UTF-8"?>
<svg width="166px" height="24px" viewBox="0 0 166 24" version="1.1" xmlns="http://www.w3.org/2000/svg" xmlns:xlink="http://www.w3.org/1999/xlink">
    <!-- Generator: Sketch 56 (81588) - https://sketch.com -->
    <title>Group 22</title>
    <desc>Created with Sketch.</desc>
    <g id="Page-1" stroke="none" stroke-width="1" fill="none" fill-rule="evenodd">
        <g id="Update-Copy-16" transform="translate(-831.000000, -1124.000000)" fill="#000000" fill-rule="nonzero">
            <g id="Group-22" transform="translate(831.000000, 1124.000000)">
                <path d="M40.0664446,9.93688889 L40.0664446,9.89177779 L43.9428891,9.89177779 L41.4913335,23.1731112 L37.5713335,23.1731112 L37.8388891,21.7466668 L37.7922224,21.7466668 C36.9024446,23.040889 35.1182224,23.6631112 33.5580002,23.6631112 C29.368889,23.6631112 27.4975557,20.3202223 28.2100001,16.5324445 C29.0111113,12.2095556 32.6215557,9.44688889 36.1868891,9.44688889 C38.3708891,9.44688889 39.3944446,10.5155556 39.7522224,11.3182223 L39.7988891,11.3182223 L40.0664446,9.93688889 Z M38.8188891,16.5324445 L38.815778,16.5324445 C39.0833335,14.9706667 38.325778,13.1880001 36.0966668,13.1880001 C33.8255557,13.1880001 32.4442224,15.1044445 32.1766668,16.6195556 C31.9557779,17.8251112 32.4457779,19.9640001 34.8522224,19.9640001 C37.3488891,19.9640001 38.5513335,17.8235556 38.8188891,16.5324445 Z" id="Combined-Shape"></path>
                <path d="M46.2171113,9.93688889 L49.9162225,9.93688889 L49.6486669,11.3182223 L49.6953336,11.3182223 C50.1853336,10.6960001 51.0766669,9.44688889 53.3944447,9.44688889 L52.6820003,13.4602223 C50.8106669,13.506889 49.4153336,13.8615556 49.1166669,15.9117779 L47.7353336,23.222889 L43.6908891,23.222889 L46.2171113,9.93688889 Z" id="Shape-path"></path>
                <polygon id="Shape-path" points="56.0668892 4.72266669 60.0802225 4.72266669 58.2088892 14.7497779 58.2975558 14.7497779 62.8864447 9.93688889 67.5655559 9.93688889 61.4600003 15.774889 64.9802225 23.2182223 60.4784447 23.2182223 57.8931114 16.8000001 57.8620003 16.8000001 56.6580003 23.2182223 52.6913336 23.2182223"></polygon>
                <path d="M73.9557781,9.44688889 L73.9573337,9.44688889 C78.0173337,9.44688889 80.3771115,12.6995556 79.6195559,16.8000001 C79.5308893,17.2915556 79.4857781,17.5155556 79.3520004,17.8266668 L69.3964448,17.8266668 C69.3653337,19.3853334 70.480667,20.3217779 72.0408892,20.3217779 C73.2900003,20.3217779 74.0475559,19.7866668 74.7164448,19.0742223 L78.7717781,19.0742223 C77.8337781,20.5442223 76.6748892,21.7031112 75.4273337,22.4606668 C74.2333807,23.2400364 72.8397976,23.6581114 71.4140003,23.6646668 C67.5811114,23.6646668 64.9522225,20.5426668 65.664667,16.6226668 C66.3335559,12.9235556 69.9424448,9.44688889 73.9557781,9.44688889 Z M69.9424448,15.1091112 L76.0044448,15.1091112 C76.0044448,14.3080001 75.4693337,12.8380001 73.4191115,12.8380001 C71.3237781,12.8380001 70.2535559,14.3064445 69.9424448,15.1091112 Z" id="Combined-Shape"></path>
                <polygon id="Shape-path" points="22.3300001 23.2182223 26.2966668 23.2182223 26.2966668 4.70711114 22.9086668 4.70711114 15.8666668 15.2226667 15.8200001 15.2226667 15.8200001 4.70711114 12.4335556 4.70711114 5.68434189e-14 23.2182223 4.81288891 23.2182223 11.8097778 12.7026667 11.8564445 12.7026667 11.8564445 23.2182223 15.2880001 23.2182223 22.2413334 12.7026667 22.3300001 12.7026667"></polygon>
                <path d="M89.7166671,9.93688889 L87.221556,9.93688889 L87.9340004,6.01688892 L84.4573337,6.01688892 L84.1897782,7.53200004 C83.8786671,9.2695556 82.8084448,9.80311119 81.3368893,9.93844449 L81.2902226,9.93844449 L80.6680004,12.9251112 L82.6280004,12.9251112 L80.7115559,23.1917779 L84.6782226,23.1917779 L86.5946671,12.9251112 L89.1348893,12.9251112 L89.7166671,9.93688889 Z" id="Shape-path"></path>
                <path d="M151.217112,18.1844445 C149.926001,21.2146668 146.805556,23.6662223 143.240223,23.6662223 C139.22689,23.6662223 136.688223,20.5022223 137.445779,16.5355556 C138.158223,12.6155556 141.770223,9.45000009 145.780445,9.45000009 C149.300667,9.45000009 151.691556,11.8113334 151.753779,15.0500001 L147.740445,15.0500001 C147.47289,14.1135556 146.894223,13.1786667 145.200223,13.1786667 C143.32889,13.0900001 141.768667,14.6486667 141.412445,16.5231112 C141.054667,18.4395557 142.034667,19.9095557 143.952667,19.9095557 C145.601556,19.9095557 146.597112,18.9731112 147.161779,18.126889 L151.217112,18.126889 L151.217112,18.1844445 Z" id="Shape-path"></path>
                <polygon id="Shape-path" points="118.239334 -2.48689958e-14 110.530001 4.72422225 112.714001 4.72422225 105.717112 15.2397779 105.628445 15.2397779 105.628445 4.72422225 102.195334 4.72422225 95.1953338 15.2413334 95.1486671 15.2413334 95.1486671 4.7257778 91.1353338 4.7257778 91.1353338 23.236889 94.6120004 23.236889 101.608889 12.7213334 101.655556 12.7213334 101.655556 23.236889 105.087112 23.236889 117.477112 4.7257778 119.437112 4.7257778"></polygon>
                <path d="M125.81489,23.2197779 L121.89489,23.2197779 L122.162445,21.7933334 L122.115778,21.7933334 C121.179334,23.0844446 119.440223,23.7097779 117.881556,23.7097779 C113.647334,23.7097779 111.821112,20.3653334 112.533556,16.5791112 C113.336223,12.2546667 116.990223,9.49355559 120.510445,9.49355559 C122.694445,9.49355559 123.719556,10.5637778 124.075778,11.364889 L124.122445,11.364889 L124.390001,9.98355559 L128.310001,9.98355559 L125.81489,23.2197779 Z M119.129112,19.9686668 C121.580667,19.9686668 122.828223,17.8297779 123.095778,16.5371112 C123.363334,14.934889 122.605778,13.1926667 120.376667,13.1926667 C118.105556,13.1926667 116.721112,15.1091112 116.456667,16.6242223 C116.189112,17.8717779 116.724223,19.9686668 119.132223,19.9686668 L119.129112,19.9686668 Z" id="Combined-Shape"></path>
                <path d="M138.24689,9.94155559 L135.751779,9.94155559 L136.464223,6.02155559 L132.987556,6.02155559 L132.720001,7.5366667 C132.40889,9.27422227 131.338667,9.80777779 129.867112,9.94311119 L129.820445,9.94311119 L129.241778,12.9297778 L131.201778,12.9297778 L129.285334,23.1964446 L133.252001,23.1964446 L135.168445,12.9297778 L137.708667,12.9297778 L138.24689,9.94155559 Z" id="Shape-path"></path>
                <path d="M154.959779,4.72733336 L158.926445,4.72733336 L157.722445,11.322889 L157.769112,11.322889 C158.615334,10.0753334 159.775779,9.45155559 161.513334,9.45155559 C162.76089,9.45155559 164.18889,9.94155559 164.857779,10.9215556 C165.704001,12.2126667 165.615334,13.3731112 165.16889,15.7795556 L163.787556,23.1777779 L159.82089,23.1777779 L161.158668,15.9600001 C161.292445,15.3377779 161.648668,13.1522223 159.556445,13.1522223 C157.327334,13.1522223 156.971112,15.158889 156.837334,15.8277779 L155.456001,23.180889 L151.536001,23.180889 L154.959779,4.72733336 Z" id="Shape-path"></path>
            </g>
        </g>
    </g>
</svg>