<?xml version="1.0" encoding="UTF-8"?>
<svg width="206px" height="31px" viewBox="0 0 206 31" version="1.1" xmlns="http://www.w3.org/2000/svg" xmlns:xlink="http://www.w3.org/1999/xlink">
    <!-- Generator: Sketch 58 (84663) - https://sketch.com -->
    <title>marketwatch-ar21</title>
    <desc>Created with Sketch.</desc>
    <g id="DM" stroke="none" stroke-width="1" fill="none" fill-rule="evenodd">
        <g id="Update-Copy-10" transform="translate(-660.000000, -921.000000)" fill-rule="nonzero">
            <g id="marketwatch-ar21" transform="translate(659.000000, 921.000000)">
                <path d="M51.2755557,13.066 L50.9435002,14.7803334 L50.8855835,14.7803334 C50.4415557,13.7841667 49.1712502,12.457875 46.4607502,12.457875 C42.0359168,12.457875 37.5550974,15.8865417 36.5608612,21.2515556 C35.6766668,25.9524584 37.9991251,30.1012223 43.1981113,30.1012223 C45.1344585,30.1012223 47.3488057,29.3290001 48.4530835,27.7227779 L48.5110002,27.7227779 L48.1789446,29.4930973 L53.0439446,29.4930973 L56.0865002,13.0100139 L51.2755557,13.0100139 L51.2755557,13.066 Z M49.7272502,21.2515556 C49.3951946,22.8539167 47.9028752,25.5103612 44.8043335,25.5103612 C41.817764,25.5103612 41.209639,22.8558473 41.4837779,21.3596667 C41.8158335,19.4793056 43.5301668,17.1008612 46.3487779,17.1008612 C49.1152641,17.1008612 50.0554446,19.3132778 49.7233891,21.2515556 L49.7272502,21.2515556 Z M58.9089724,13.066 L63.4998336,13.066 L63.167778,14.7803334 L63.2256947,14.7803334 C63.8338197,14.0081112 64.940028,12.457875 67.8165558,12.457875 L66.9323614,17.4387084 C64.609903,17.4966251 62.8781947,17.9367917 62.507528,20.481264 L60.7931947,29.5548751 L55.7737502,29.5548751 L58.9089724,13.066 Z M71.1332503,6.5947778 L76.1140836,6.5947778 L73.7916253,19.039139 L73.9016669,19.039139 L79.5968058,13.066 L85.403917,13.066 L77.8264864,20.3113751 L82.1953336,29.5490834 L76.6083058,29.5490834 L73.3997225,21.5836112 L73.3611114,21.5836112 L71.8668614,29.5490834 L66.9439447,29.5490834 L71.1332503,6.5947778 Z M93.3346392,12.457875 C88.3538059,12.457875 83.874917,16.7726667 83.0447781,21.3635279 C82.1605836,26.2285279 85.4232225,30.1031529 90.1801114,30.1031529 C91.9496276,30.0950171 93.6791639,29.5761563 95.1609448,28.6089029 C96.7092503,27.6687223 98.1475142,26.2304584 99.3116392,24.4060834 L94.2786809,24.4060834 C93.448542,25.2902779 92.5083614,25.954389 90.9581253,25.954389 C89.0217781,25.954389 87.6375698,24.7921945 87.6761809,22.8577779 L100.031736,22.8577779 C100.197764,22.4716667 100.25375,22.1936667 100.363792,21.5836112 C101.303973,16.4946667 98.3753198,12.457875 93.3365698,12.457875 L93.3346392,12.457875 Z M88.3538059,19.4850973 C88.739917,18.4889306 90.0681392,16.6664862 92.6685976,16.6664862 C95.2130698,16.6664862 95.8771809,18.4908612 95.8771809,19.4850973 L88.3538059,19.4850973 Z M29.2633612,29.5490834 L34.1862779,29.5490834 L34.1862779,6.57547225 L29.9815279,6.57547225 L21.2419029,19.6260278 L21.1839862,19.6260278 L21.1839862,6.57547225 L16.9811667,6.57547225 L1.55023612,29.5490834 L7.52337503,29.5490834 L16.2070139,16.4985278 L16.2649306,16.4985278 L16.2649306,29.5490834 L20.5237362,29.5490834 L29.1533195,16.4985278 L29.2633612,16.4985278 L29.2633612,29.5490834 Z M112.895028,13.066 L109.798417,13.066 L110.682612,8.20100003 L106.36782,8.20100003 L106.035764,10.0813611 C105.649653,12.2377917 104.321431,12.8999723 102.495125,13.0679306 L102.437209,13.0679306 L101.664986,16.7745973 L104.097486,16.7745973 L101.719042,29.516264 L106.641959,29.516264 L109.020403,16.7745973 L112.173,16.7745973 L112.895028,13.066 Z" id="Shape" fill="#000000"></path>
                <path d="M189.221473,23.3018056 C187.619112,27.0625279 183.746417,30.1050834 179.321584,30.1050834 C174.340751,30.1050834 171.190084,26.1783334 172.130265,21.2554167 C173.014459,16.3904167 177.497209,12.4617362 182.474181,12.4617362 C186.843028,12.4617362 189.810292,15.3923195 189.887515,19.4117362 L184.906681,19.4117362 C184.574626,18.2495417 183.856459,17.0892778 181.754084,17.0892778 C179.431626,16.9792362 177.495278,18.9136528 177.053181,21.2399723 C176.609153,23.6184168 177.825403,25.4427918 180.205778,25.4427918 C182.252167,25.4427918 183.487723,24.2805973 184.188515,23.2303751 L189.221473,23.2303751 L189.221473,23.3018056 Z M148.293695,0.733611114 L138.725862,6.59670836 L141.436362,6.59670836 L132.752723,19.647264 L132.642681,19.647264 L132.642681,6.59670836 L128.381945,6.59670836 L119.694445,19.6491945 L119.636528,19.6491945 L119.636528,6.59863891 L114.655695,6.59863891 L114.655695,29.5722501 L118.970487,29.5722501 L127.654125,16.5216945 L127.712042,16.5216945 L127.712042,29.5722501 L131.970848,29.5722501 L147.347723,6.59863891 L149.780223,6.59863891 L148.293695,0.733611114 Z M157.695501,29.551014 L152.830501,29.551014 L153.162556,27.7806945 L153.104639,27.7806945 C151.942445,29.3830557 149.784084,30.159139 147.849667,30.159139 C142.594695,30.159139 140.328223,26.0084445 141.212417,21.3094723 C142.208584,15.9425278 146.743459,12.5157917 151.112306,12.5157917 C153.822806,12.5157917 155.095042,13.8440139 155.537139,14.8382501 L155.595056,14.8382501 L155.927112,13.1239167 L160.792112,13.1239167 L157.695501,29.551014 Z M149.397973,25.5161529 C152.440528,25.5161529 153.988834,22.861639 154.320889,21.2573473 C154.652945,19.2688751 153.712764,17.1066528 150.946278,17.1066528 C148.127667,17.1066528 146.409473,19.4850973 146.081278,21.3654584 C145.749223,22.913764 146.413334,25.5161529 149.401834,25.5161529 L149.397973,25.5161529 Z M173.124501,13.0717917 L170.02789,13.0717917 L170.912084,8.2067917 L166.597292,8.2067917 L166.265237,10.0871528 C165.879126,12.2435834 164.550903,12.9057639 162.724598,13.0737223 L162.666681,13.0737223 L161.948514,16.7803889 L164.381014,16.7803889 L162.00257,29.5220557 L166.925487,29.5220557 L169.303931,16.7803889 L172.456528,16.7803889 L173.124501,13.0717917 Z M193.86639,6.60056947 L198.789306,6.60056947 L197.295056,14.7861251 L197.352973,14.7861251 C198.403195,13.2378195 199.84339,12.4636667 201.99982,12.4636667 C203.548126,12.4636667 205.320376,13.0717917 206.150515,14.2880417 C207.200737,15.8904028 207.090695,17.3305973 206.536626,20.3171667 L204.822292,29.498889 L199.899376,29.498889 L201.559654,20.5411112 C201.725681,19.768889 202.167779,17.0564584 199.571181,17.0564584 C196.804695,17.0564584 196.362598,19.5468751 196.19657,20.377014 L194.482237,29.5027501 L189.617237,29.5027501 L193.86639,6.60056947 Z" id="Shape" fill="#00B742"></path>
            </g>
        </g>
    </g>
</svg>