<?xml version="1.0" encoding="UTF-8"?>
<svg width="202px" height="15px" viewBox="0 0 202 15" version="1.1" xmlns="http://www.w3.org/2000/svg" xmlns:xlink="http://www.w3.org/1999/xlink">
    <!-- Generator: Sketch 56 (81588) - https://sketch.com -->
    <title>MONEYINCRYPTO</title>
    <desc>Created with Sketch.</desc>
    <g id="Page-1" stroke="none" stroke-width="1" fill="none" fill-rule="evenodd">
        <g id="Update-Copy-16" transform="translate(-311.000000, -1128.000000)" fill="#000000" fill-rule="nonzero">
            <path d="M314.310547,1142.47266 L314.310547,1133.57617 L314.486328,1133.57617 L317.630859,1141.41797 L319.847656,1141.41797 L322.982422,1133.57617 L323.158203,1133.57617 L323.158203,1142.47266 L326.46875,1142.47266 L326.46875,1128.38086 L322.240234,1128.38086 L318.832031,1137.02344 L318.646484,1137.02344 L315.228516,1128.38086 L311,1128.38086 L311,1142.47266 L314.310547,1142.47266 Z M336.078125,1142.85352 C340.316406,1142.85352 343.021484,1140.01172 343.021484,1135.42188 C343.021484,1130.8418 340.306641,1128 336.078125,1128 C331.839844,1128 329.125,1130.8418 329.125,1135.42188 C329.125,1140.01172 331.820312,1142.85352 336.078125,1142.85352 Z M336.078125,1139.88477 C334.076172,1139.88477 332.777344,1138.14648 332.777344,1135.42188 C332.777344,1132.70703 334.095703,1130.96875 336.078125,1130.96875 C338.050781,1130.96875 339.369141,1132.70703 339.369141,1135.42188 C339.369141,1138.14648 338.050781,1139.88477 336.078125,1139.88477 Z M349.076172,1142.47266 L349.076172,1134.46484 L349.261719,1134.46484 L355.150391,1142.47266 L357.992188,1142.47266 L357.992188,1128.38086 L354.59375,1128.38086 L354.59375,1136.31055 L354.408203,1136.31055 L348.539062,1128.38086 L345.677734,1128.38086 L345.677734,1142.47266 L349.076172,1142.47266 Z M370.970703,1142.47266 L370.970703,1139.5918 L364.896484,1139.5918 L364.896484,1136.71094 L370.609375,1136.71094 L370.609375,1134.07422 L364.896484,1134.07422 L364.896484,1131.26172 L370.970703,1131.26172 L370.970703,1128.38086 L361.3125,1128.38086 L361.3125,1142.47266 L370.970703,1142.47266 Z M381.517578,1142.47266 L381.517578,1137.62891 L386.371094,1128.38086 L382.552734,1128.38086 L379.828125,1134.13281 L379.642578,1134.13281 L376.898438,1128.38086 L373.080078,1128.38086 L377.943359,1137.62891 L377.943359,1142.47266 L381.517578,1142.47266 Z M397.230469,1142.47266 L397.230469,1128.38086 L393.646484,1128.38086 L393.646484,1142.47266 L397.230469,1142.47266 Z M403.949219,1142.47266 L403.949219,1134.46484 L404.134766,1134.46484 L410.023438,1142.47266 L412.865234,1142.47266 L412.865234,1128.38086 L409.466797,1128.38086 L409.466797,1136.31055 L409.28125,1136.31055 L403.412109,1128.38086 L400.550781,1128.38086 L400.550781,1142.47266 L403.949219,1142.47266 Z M427.240234,1142.85352 C430.853516,1142.85352 433.470703,1140.57812 433.587891,1137.35547 L430.150391,1137.35547 C429.945312,1138.86914 428.792969,1139.86523 427.25,1139.86523 C425.277344,1139.86523 424.076172,1138.16602 424.076172,1135.41211 C424.076172,1132.66797 425.277344,1130.98828 427.240234,1130.98828 C428.783203,1130.98828 429.945312,1132.02344 430.130859,1133.55664 L433.578125,1133.55664 C433.470703,1130.36328 430.785156,1128 427.240234,1128 C423.011719,1128 420.423828,1130.82227 420.423828,1135.42188 C420.423828,1140.02148 423.021484,1142.85352 427.240234,1142.85352 Z M439.759766,1142.47266 L439.759766,1137.54102 L441.615234,1137.54102 L444.027344,1142.47266 L448.050781,1142.47266 L445.238281,1137.01367 C446.78125,1136.33984 447.640625,1134.75781 447.640625,1133.0293 C447.640625,1130.11914 445.667969,1128.38086 442.376953,1128.38086 L436.175781,1128.38086 L436.175781,1142.47266 L439.759766,1142.47266 Z M441.878906,1135.01172 L439.759766,1135.01172 L439.759766,1131.08594 L441.869141,1131.08594 C443.148438,1131.08594 443.978516,1131.85742 443.978516,1133.05859 C443.978516,1134.2793 443.197266,1135.01172 441.878906,1135.01172 Z M457.982422,1142.47266 L457.982422,1137.62891 L462.835938,1128.38086 L459.017578,1128.38086 L456.292969,1134.13281 L456.107422,1134.13281 L453.363281,1128.38086 L449.544922,1128.38086 L454.408203,1137.62891 L454.408203,1142.47266 L457.982422,1142.47266 Z M468.792969,1142.47266 L468.792969,1138.3418 L471.166016,1138.3418 C474.300781,1138.3418 476.458984,1136.37891 476.458984,1133.38086 C476.458984,1130.35352 474.408203,1128.38086 471.380859,1128.38086 L465.208984,1128.38086 L465.208984,1142.47266 L468.792969,1142.47266 Z M470.414062,1135.63672 L468.792969,1135.63672 L468.792969,1131.13477 L470.433594,1131.13477 C471.947266,1131.13477 472.835938,1131.90625 472.835938,1133.39062 C472.835938,1134.85547 471.9375,1135.63672 470.414062,1135.63672 Z M485.951172,1142.47266 L485.951172,1131.26172 L490.023438,1131.26172 L490.023438,1128.38086 L478.314453,1128.38086 L478.314453,1131.26172 L482.376953,1131.26172 L482.376953,1142.47266 L485.951172,1142.47266 Z M498.861328,1142.85352 C503.099609,1142.85352 505.804688,1140.01172 505.804688,1135.42188 C505.804688,1130.8418 503.089844,1128 498.861328,1128 C494.623047,1128 491.908203,1130.8418 491.908203,1135.42188 C491.908203,1140.01172 494.603516,1142.85352 498.861328,1142.85352 Z M498.861328,1139.88477 C496.859375,1139.88477 495.560547,1138.14648 495.560547,1135.42188 C495.560547,1132.70703 496.878906,1130.96875 498.861328,1130.96875 C500.833984,1130.96875 502.152344,1132.70703 502.152344,1135.42188 C502.152344,1138.14648 500.833984,1139.88477 498.861328,1139.88477 Z M510.541016,1142.79492 C511.78125,1142.79492 512.513672,1142.0332 512.513672,1140.93945 C512.513672,1139.83594 511.78125,1139.07422 510.541016,1139.07422 C509.310547,1139.07422 508.578125,1139.83594 508.578125,1140.93945 C508.578125,1142.0332 509.310547,1142.79492 510.541016,1142.79492 Z" id="MONEYINCRYPTO."></path>
        </g>
    </g>
</svg>