<?xml version="1.0" encoding="UTF-8"?>
<svg width="107px" height="45px" viewBox="0 0 107 45" version="1.1" xmlns="http://www.w3.org/2000/svg" xmlns:xlink="http://www.w3.org/1999/xlink">
    <!-- Generator: Sketch 56 (81588) - https://sketch.com -->
    <title>Group 29</title>
    <desc>Created with Sketch.</desc>
    <g id="Page-1" stroke="none" stroke-width="1" fill="none" fill-rule="evenodd">
        <g id="Update-Copy-16" transform="translate(-553.000000, -1205.000000)" fill="#101111" fill-rule="nonzero">
            <g id="Group-29" transform="translate(553.009292, 1205.000000)">
                <polygon id="Path" points="51.8624338 11.3194446 49.02423 11.3194446 49.02423 8.0241535 58.6636938 8.0241535 58.6636938 11.3175829 55.82549 11.3175829 55.82549 20.0063533 51.8642961 20.0063533 51.8642961 11.3194446"></polygon>
                <polygon id="Path" points="60.1517023 8.0241535 64.0942728 8.0241535 64.0942728 12.2987232 67.4949028 12.2987232 67.4949028 8.0241535 71.4560967 8.0241535 71.4560967 20.0082151 67.4949028 20.0082151 67.4949028 15.5753969 64.0942728 15.5753969 64.0942728 20.0082151 60.1517023 20.0082151"></polygon>
                <polygon id="Path" points="73.8398899 8.0241535 82.5854313 8.0241535 82.5854313 11.3175829 77.6614084 11.3175829 77.6614084 12.402981 82.3936105 12.402981 82.3936105 15.5567794 77.6614084 15.5567794 77.6614084 16.712924 82.7604911 16.712924 82.7604911 20.0063533 73.8398899 20.0063533"></polygon>
                <path d="M49.02423,23.3239856 L54.2648504,23.3239856 C56.2445162,23.3239856 58.5407795,24.0072465 58.5407795,26.4424108 C58.5407795,27.6506842 57.7865324,28.5796957 56.7361735,28.9650772 L56.7361735,29.0525793 C58.2260443,29.4379608 59.0324369,30.2794701 59.0324369,31.8563693 C59.0324369,34.5540399 56.2463785,35.3080472 53.8793463,35.3080472 L49.02423,35.3080472 L49.02423,23.3239856 Z M53.7210475,28.01931 C54.5088167,28.01931 54.719261,27.5110532 54.719261,27.1610449 C54.719261,26.7756634 54.5088167,26.3027798 53.7545696,26.3027798 L52.7377328,26.3027798 L52.7377328,28.01931 L53.7210475,28.01931 Z M53.8961074,32.2417508 C54.7024999,32.2417508 55.1233884,31.9084982 55.1233884,31.3481126 C55.1233884,30.6480959 54.6671155,30.4544743 53.7396709,30.4544743 L52.7414575,30.4544743 L52.7414575,32.2417508 L53.8961074,32.2417508 Z M60.8351805,23.3239856 L64.777751,23.3239856 L64.777751,31.925254 L69.036919,31.925254 L69.036919,35.3061854 L60.8351805,35.3061854 L60.8351805,23.3239856 Z M69.3535166,29.2983298 C69.3535166,25.3737684 72.1917204,23.0614793 75.94247,23.0614793 C79.6745963,23.0614793 82.5314235,25.3737684 82.5314235,29.2983298 C82.5314235,33.1167717 79.9558094,35.5873091 75.94247,35.5873091 C72.1917204,35.5873091 69.3535166,33.1186334 69.3535166,29.2983298 Z M78.3951698,29.2983298 C78.3951698,27.6693017 77.4844863,26.5299129 75.94247,26.5299129 C74.4712227,26.5299129 73.5065313,27.5985553 73.5065313,29.2983298 C73.5065313,30.9627311 74.4172148,32.1188756 75.94247,32.1188756 C77.4491019,32.1188756 78.3951698,31.0334774 78.3951698,29.2983298 Z M83.7587045,29.3504587 C83.7587045,25.7237767 86.2989342,23.0614793 90.330897,23.0614793 C91.8021443,23.0614793 92.9772799,23.4114877 93.379545,23.6404825 L93.379545,27.108916 C92.6085369,26.7756634 91.8729132,26.5299129 90.6456322,26.5299129 C88.5784365,26.5299129 87.9117193,27.9839368 87.9117193,29.333703 C87.9117193,31.2959837 89.1036159,32.0835024 90.9436063,32.0835024 C92.2062718,32.0835024 92.9418955,31.8898808 93.379545,31.6273745 L93.379545,35.0790524 C92.152264,35.4811896 91.189435,35.5873091 90.0329228,35.5873091 C86.1760199,35.5873091 83.7587045,33.2228912 83.7587045,29.3504587 Z" id="Combined-Shape"></path>
                <polygon id="Path" points="95.3424497 23.3239856 99.2850203 23.3239856 99.2850203 28.7193266 102.002172 23.3239856 106.471784 23.3239856 103.106539 28.5964514 106.874049 35.3061854 102.387676 35.3061854 99.5494723 29.6650938 99.2868826 29.6650938 99.2868826 35.3061854 95.3443121 35.3061854 95.3443121 23.3239856"></polygon>
                <path d="M21.1786266,-7.10542736e-15 L42.3572532,8.4000803 L42.3572532,35.7376418 L21.1786266,44.1377221 L-2.43360887e-12,35.7376418 L-2.43360887e-12,8.4000803 L21.1786266,-7.10542736e-15 Z M21.1786266,27.2536353 L26.1369081,25.2300813 L26.1369081,18.9057757 L21.1786266,16.8859518 L16.2203451,18.9057757 L16.2203451,25.2300813 L21.1786266,27.2536353 Z" id="Combined-Shape"></path>
                <polygon id="Path" points="21.1786266 2.19557705e-12 42.3572532 8.4000803 21.1786266 16.8878168 -1.21502808e-12 8.4000803"></polygon>
                <polygon id="Path" points="21.1786266 27.2536353 42.3572532 35.7376418 21.1786266 44.1358571 -1.21502808e-12 35.7376418"></polygon>
            </g>
        </g>
    </g>
</svg>