<?xml version="1.0" encoding="UTF-8"?>
<svg width="118px" height="49px" viewBox="0 0 118 49" version="1.1" xmlns="http://www.w3.org/2000/svg" xmlns:xlink="http://www.w3.org/1999/xlink">
    <!-- Generator: Sketch 58 (84663) - https://sketch.com -->
    <title>theblock-main-white.55866561</title>
    <desc>Created with Sketch.</desc>
    <defs>
        <linearGradient x1="50%" y1="0%" x2="50%" y2="100%" id="linearGradient-1">
            <stop stop-color="#0F9ECA" offset="0%"></stop>
            <stop stop-color="#07B2C0" offset="100%"></stop>
        </linearGradient>
        <linearGradient x1="50%" y1="0%" x2="50%" y2="100%" id="linearGradient-2">
            <stop stop-color="#1293CC" offset="0%"></stop>
            <stop stop-color="#07B2C0" offset="100%"></stop>
        </linearGradient>
        <linearGradient x1="50%" y1="0%" x2="50%" y2="100%" id="linearGradient-3">
            <stop stop-color="#0F9ECA" offset="0%"></stop>
            <stop stop-color="#07B2C0" offset="100%"></stop>
        </linearGradient>
        <linearGradient x1="61.4062842%" y1="89.7611764%" x2="42.2298737%" y2="22.9162934%" id="linearGradient-4">
            <stop stop-color="#40CECC" offset="0%"></stop>
            <stop stop-color="#237CDA" offset="100%"></stop>
        </linearGradient>
    </defs>
    <g id="DM" stroke="none" stroke-width="1" fill="none" fill-rule="evenodd">
        <g id="Update-Copy-10" transform="translate(-497.000000, -912.000000)" fill-rule="nonzero">
            <g id="theblock-main-white.55866561" transform="translate(497.000000, 912.000000)">
                <g id="Group" transform="translate(54.184722, 9.307805)">
                    <polygon id="Path" fill="url(#linearGradient-1)" points="3.13160394 3.65034621 0.036555688 3.65034621 0.036555688 0.0568463258 10.5483468 0.0568463258 10.5483468 3.64831598 7.4532986 3.64831598 7.4532986 13.1233804 3.13363481 13.1233804 3.13363481 3.65034621"></polygon>
                    <polygon id="Path" fill="url(#linearGradient-2)" points="12.1710132 0.0568463258 16.4703683 0.0568463258 16.4703683 4.71824504 20.1787398 4.71824504 20.1787398 0.0568463258 24.4984035 0.0568463258 24.4984035 13.1254106 20.1787398 13.1254106 20.1787398 8.29144266 16.4703683 8.29144266 16.4703683 13.1254106 12.1710132 13.1254106"></polygon>
                    <polygon id="Path" fill="url(#linearGradient-3)" points="27.0979191 0.0568463258 36.634892 0.0568463258 36.634892 3.64831598 31.2652676 3.64831598 31.2652676 4.83193769 36.4257122 4.83193769 36.4257122 8.2711404 31.2652676 8.2711404 31.2652676 9.5319107 36.8257939 9.5319107 36.8257939 13.1233804 27.0979191 13.1233804"></polygon>
                    <g transform="translate(0.000000, 16.444830)" fill="#02BDBB">
                        <path d="M0.036555688,0.296412985 L5.75142824,0.296412985 C7.9102447,0.296412985 10.4143093,1.0415059 10.4143093,3.6970414 C10.4143093,5.01465803 9.59180635,6.02774076 8.44639479,6.44799753 L8.44639479,6.54341814 C10.071092,6.96367491 10.9504594,7.88133703 10.9504594,9.60093838 C10.9504594,12.5427357 7.91227557,13.3649772 5.33103783,13.3649772 L0.036555688,13.3649772 L0.036555688,0.296412985 L0.036555688,0.296412985 Z M5.15841375,5.41664276 C6.01747241,5.41664276 6.2469609,4.86239108 6.2469609,4.48070861 C6.2469609,4.06045184 6.01747241,3.54477446 5.19496943,3.54477446 L4.08611357,3.54477446 L4.08611357,5.41664276 L5.15841375,5.41664276 L5.15841375,5.41664276 Z M5.34931567,10.0211951 C6.22868305,10.0211951 6.68766003,9.65778471 6.68766003,9.04668671 C6.68766003,8.28332176 6.19009649,8.07217826 5.17872246,8.07217826 L4.09017531,8.07217826 L4.09017531,10.0211951 L5.34931567,10.0211951 L5.34931567,10.0211951 Z" id="Shape"></path>
                        <polygon id="Path" points="12.9163431 0.296412985 17.2156982 0.296412985 17.2156982 9.67605674 21.8603014 9.67605674 21.8603014 13.362947 12.9163431 13.362947"></polygon>
                        <path d="M22.2055496,6.81140797 C22.2055496,2.53169172 25.3005978,0.0101511296 29.3907731,0.0101511296 C33.4606397,0.0101511296 36.5759967,2.53169172 36.5759967,6.81140797 C36.5759967,10.9754013 33.7673013,13.6695111 29.3907731,13.6695111 C25.3005978,13.6695111 22.2055496,10.9774316 22.2055496,6.81140797 Z M32.065431,6.81140797 C32.065431,5.03496028 31.0723348,3.79246202 29.3907731,3.79246202 C27.7863846,3.79246202 26.7343931,4.9578117 26.7343931,6.81140797 C26.7343931,8.62642994 27.7274893,9.88720024 29.3907731,9.88720024 C31.0337482,9.88720024 32.065431,8.70357852 32.065431,6.81140797 Z" id="Shape"></path>
                        <path d="M37.914341,6.86825429 C37.914341,2.9133742 40.6844498,0.0101511296 45.0812867,0.0101511296 C46.6856753,0.0101511296 47.9671552,0.391833603 48.4058235,0.641551391 L48.4058235,4.42386228 C47.5650427,4.06045184 46.7628484,3.79246202 45.424504,3.79246202 C43.1702366,3.79246202 42.4431846,5.37806847 42.4431846,6.84998226 C42.4431846,8.98984038 43.7429424,9.84862594 45.7494435,9.84862594 C47.1263744,9.84862594 47.9285687,9.63748245 48.4058235,9.35122059 L48.4058235,13.1152595 C47.0674791,13.5537883 46.0175185,13.6695111 44.7563473,13.6695111 C40.5504123,13.6695111 37.914341,11.0911242 37.914341,6.86825429 Z" id="Path"></path>
                        <polygon id="Path" points="50.5463621 0.296412985 54.8457172 0.296412985 54.8457172 6.1800077 57.8087588 0.296412985 62.6828505 0.296412985 59.0130656 6.04601279 63.1215188 13.362947 58.2291492 13.362947 55.1341009 7.21136247 54.847748 7.21136247 54.847748 13.362947 50.548393 13.362947 50.548393 0.296412985"></polygon>
                    </g>
                </g>
                <g id="Group">
                    <path d="M23.1053283,0.0305070462 L0.0101330271,9.19075612 L0.0101330271,39.0022417 L23.1053283,48.1624907 L46.2005235,39.0022417 L46.2005235,9.19075612 L23.1053283,0.0305070462 Z M23.1053283,29.7504715 L17.698345,27.5437951 L17.698345,20.6471689 L23.1053283,18.4445601 L28.5123115,20.6471689 L28.5123115,27.5437951 L23.1053283,29.7504715 Z" id="Shape" fill="url(#linearGradient-4)"></path>
                    <polygon id="Path" fill="#1F5FB6" points="23.1053283 0.0305070462 46.2005235 9.19075612 23.1053283 18.4465939 0.0101330271 9.19075612"></polygon>
                    <polygon id="Path" fill="#42CBCD" points="23.1053283 29.7504715 46.2005235 39.0022417 23.1053283 48.1604569 0.0101330271 39.0022417"></polygon>
                </g>
            </g>
        </g>
    </g>
</svg>