<?xml version="1.0" encoding="UTF-8"?>
<svg width="143px" height="40px" viewBox="0 0 143 40" version="1.1" xmlns="http://www.w3.org/2000/svg" xmlns:xlink="http://www.w3.org/1999/xlink">
    <!-- Generator: Sketch 56 (81588) - https://sketch.com -->
    <title>Group 28</title>
    <desc>Created with Sketch.</desc>
    <g id="Page-1" stroke="none" stroke-width="1" fill="none" fill-rule="evenodd">
        <g id="Update-Copy-16" transform="translate(-1031.000000, -1207.000000)" fill="#101111" fill-rule="nonzero">
            <g id="Group-28" transform="translate(1031.000000, 1207.836025)">
                <g id="Group-25">
                    <path d="M31,38.8 L22.264,34.336 L22.264,24.24 L31,20.416 L38.84,24.416 L38.84,34.336 L31,38.8 Z M23.32,33.664 L31,37.536 L37.784,33.664 L37.784,25.072 L31,21.616 L23.352,24.96 L23.32,33.664 Z" id="Combined-Shape"></path>
                    <path d="M8.736,38.8 L9.18376486e-13,34.336 L9.18376486e-13,24.24 L8.736,20.416 L16.576,24.416 L16.576,34.336 L8.736,38.8 Z M1.056,33.664 L8.736,37.536 L15.52,33.664 L15.52,25.072 L8.736,21.616 L1.088,24.96 L1.056,33.664 Z" id="Combined-Shape-Copy"></path>
                    <path d="M19.736,18.52 L11,14.056 L11,3.96 L19.736,0.136 L27.576,4.136 L27.576,14.056 L19.736,18.52 Z M12.056,13.384 L19.736,17.256 L26.52,13.384 L26.52,4.792 L19.736,1.336 L12.088,4.68 L12.056,13.384 Z" id="Combined-Shape-Copy-2"></path>
                    <polygon id="Shape-path" points="22.776 34 31 38.176 35.528 35.584 31 38.176"></polygon>
                    <polygon id="Shape-path-Copy-4" points="0.512 34 8.736 38.176 13.264 35.584 8.736 38.176"></polygon>
                    <polygon id="Shape-path-Copy-12" points="11.512 13.72 19.736 17.896 24.264 15.304 19.736 17.896"></polygon>
                    <polygon id="Shape-path" points="31.192 21.12 38.328 24.736 38.328 24.736"></polygon>
                    <polygon id="Rectangle" transform="translate(26.904996, 26.459716) rotate(-65.560000) translate(-26.904996, -26.459716) " points="26.6329958 21.9557165 27.1769958 21.9557165 27.1769958 30.9637165 26.6329958 30.9637165"></polygon>
                    <polygon id="Rectangle-Copy" transform="translate(4.640996, 26.459716) rotate(-65.560000) translate(-4.640996, -26.459716) " points="4.3689958 21.9557165 4.9129958 21.9557165 4.9129958 30.9637165 4.3689958 30.9637165"></polygon>
                    <polygon id="Rectangle-Copy-8" transform="translate(15.640996, 6.179716) rotate(-65.560000) translate(-15.640996, -6.179716) " points="15.3689958 1.67571647 15.9129958 1.67571647 15.9129958 10.6837165 15.3689958 10.6837165"></polygon>
                    <polygon id="Shape-path" points="31 28.944 22.296 24.976 22.76 23.984 31.496 27.936"></polygon>
                    <polygon id="Shape-path-Copy-5" points="8.736 28.944 0.032 24.976 0.496 23.984 9.232 27.936"></polygon>
                    <polygon id="Shape-path-Copy-13" points="19.736 8.664 11.032 4.696 11.496 3.704 20.232 7.656"></polygon>
                    <path d="M23,24.736 L29.768,27.824 L23,24.736 Z" id="Shape-path"></path>
                    <path d="M0.736,24.736 L7.504,27.824 L0.736,24.736 Z" id="Shape-path-Copy-6"></path>
                    <path d="M11.736,4.456 L18.504,7.544 L11.736,4.456 Z" id="Shape-path-Copy-14"></path>
                    <polygon id="Rectangle" transform="translate(34.667699, 26.528955) rotate(-26.090000) translate(-34.667699, -26.528955) " points="30.5956987 26.2569552 38.7396987 26.2569552 38.7396987 26.8009552 30.5956987 26.8009552"></polygon>
                    <polygon id="Rectangle-Copy-3" transform="translate(12.403699, 26.528955) rotate(-26.090000) translate(-12.403699, -26.528955) " points="8.33169867 26.2569552 16.4756987 26.2569552 16.4756987 26.8009552 8.33169867 26.8009552"></polygon>
                    <polygon id="Rectangle-Copy-9" transform="translate(23.403699, 6.248955) rotate(-26.090000) translate(-23.403699, -6.248955) " points="19.3316987 5.97695523 27.4756987 5.97695523 27.4756987 6.52095523 19.3316987 6.52095523"></polygon>
                    <polygon id="Shape-path" points="31 28.944 30.52 27.952 38.312 24.128 38.792 25.12"></polygon>
                    <polygon id="Shape-path-Copy-7" points="8.736 28.944 8.256 27.952 16.048 24.128 16.528 25.12"></polygon>
                    <polygon id="Shape-path-Copy-15" points="19.736 8.664 19.256 7.672 27.048 3.848 27.528 4.84"></polygon>
                    <path d="M31.24,28.208 L38.072,24.864 L31.24,28.208 Z" id="Shape-path"></path>
                    <path d="M8.976,28.208 L15.808,24.864 L8.976,28.208 Z" id="Shape-path-Copy-8"></path>
                    <path d="M19.976,7.928 L26.808,4.584 L19.976,7.928 Z" id="Shape-path-Copy-16"></path>
                    <rect id="Rectangle" x="30.472" y="28.048" width="1.088" height="10.384"></rect>
                    <rect id="Rectangle-Copy-16" x="19" y="7.5479754" width="1.088" height="10"></rect>
                    <rect id="Rectangle-Copy-7" x="8.208" y="28.048" width="1.088" height="10.384"></rect>
                    <polygon id="Path" stroke="#101111" stroke-width="0.5" points="8.424 23.216 7.88 23.216 7.88 9.648 15.048 9.648 15.048 10.192 8.424 10.192"></polygon>
                    <polygon id="Path" stroke="#101111" stroke-width="0.5" points="31.288 23.216 30.744 23.216 30.744 10.192 24.12 10.192 24.12 9.648 31.288 9.648"></polygon>
                    <path d="M46.648,1.152 L46.648,5.856 L45.608,5.856 L45.608,1.152 L42.84,1.152 L42.84,-1.16351373e-13 L49.416,-1.16351373e-13 L49.416,1.152 L46.648,1.152 Z M55.624,5.856 L55.624,2.992 L51.128,2.992 L51.128,5.856 L50.088,5.856 L50.088,-1.16351373e-13 L51.128,-1.16351373e-13 L51.128,1.84 L55.624,1.84 L55.624,-1.16351373e-13 L56.6,-1.16351373e-13 L56.6,5.856 L55.624,5.856 Z M57.352,5.856 L57.352,-1.16351373e-13 L63.912,-1.16351373e-13 L63.912,1.152 L58.392,1.152 L58.392,1.84 L62.904,1.84 L62.904,2.992 L58.392,2.992 L58.392,4.704 L63.912,4.704 L63.912,5.856 L57.352,5.856 Z M52.92,18.704 C52.9094433,19.5423428 52.3604629,20.2786224 51.56,20.528 C50.8744405,20.8059697 50.1396362,20.9420446 49.4,20.928 L43.224,20.928 L43.224,10.848 L49.448,10.848 C50.1828307,10.8292422 50.9133674,10.9655364 51.592,11.248 C52.382314,11.5146208 52.9159052,12.2539339 52.92,13.088 L52.92,14.544 C52.9859286,15.1361569 52.6240804,15.6923309 52.056,15.872 C52.3152756,15.9223645 52.5415938,16.0790463 52.68,16.304 C52.8422081,16.5447545 52.926034,16.8297625 52.92,17.12 L52.92,18.704 Z M51.336,13.536 C51.336,13.28 51.08,13.072 50.552,12.944 C50.1940027,12.8360697 49.8219085,12.782143 49.448,12.784 L44.76,12.784 L44.76,14.864 L50.616,14.864 C50.7721425,14.8630408 50.9257758,14.8246325 51.064,14.752 C51.2228093,14.6984314 51.3313833,14.5515371 51.336,14.384 L51.336,13.536 Z M51.336,17.408 C51.336,17.008 50.888,16.816 50.008,16.816 L44.76,16.816 L44.76,18.928 L49.4,18.928 C50.696,18.928 51.336,18.672 51.336,18.192 L51.336,17.408 Z M53.976,20.928 L53.976,10.864 L55.576,10.864 L55.576,18.96 L61.064,18.96 L61.064,20.928 L53.976,20.928 Z M71.752,18.704 C71.7479052,19.5380661 71.214314,20.2773792 70.424,20.544 C69.741129,20.810292 69.0128452,20.9407309 68.28,20.928 L65.512,20.928 C64.7803523,20.9334552 64.055602,20.7863255 63.384,20.496 C62.594848,20.2532519 62.0520756,19.5295554 62.04,18.704 L62.04,13.104 C62.0248346,12.2651234 62.5561188,11.5135506 63.352,11.248 C64.0391741,10.9771883 64.7735927,10.846625 65.512,10.864 L68.28,10.864 C70.6,10.864 71.752,11.6 71.752,13.104 L71.752,18.704 Z M70.152,13.616 C70.152,13.104 69.544,12.832 68.312,12.832 L65.448,12.832 C64.232,12.832 63.64,13.104 63.64,13.616 L63.64,18.192 C63.64,18.704 64.232,18.96 65.448,18.96 L68.36,18.96 C69.592,18.96 70.2,18.704 70.2,18.192 L70.152,13.616 Z M76.92,20.928 C76.1811577,20.9512252 75.4455661,20.8204534 74.76,20.544 C73.9633579,20.2890163 73.4294539,19.5402484 73.448,18.704 L73.448,13.104 C73.4588756,12.2758346 73.9911982,11.5446928 74.776,11.28 C75.4515158,10.9857951 76.183475,10.8437732 76.92,10.864 L83.144,10.864 L83.144,12.832 L76.92,12.832 C75.656,12.832 75.032,13.184 75.032,13.904 L75.032,18.08 C75.032,18.656 75.656,18.96 76.92,18.96 L83.144,18.96 L83.144,20.928 L76.92,20.928 Z M92.648,20.928 L86.376,16.416 L86.376,20.928 L84.776,20.928 L84.776,10.864 L86.376,10.864 L86.376,14.4 L91.944,10.864 L95.368,10.864 L88.12,15.504 L95.736,20.928 L92.648,20.928 Z M52.92,34.416 C52.8848739,35.2262678 52.348425,35.9287605 51.576,36.176 C50.9103259,36.4879599 50.183118,36.646524 49.448,36.64 L43.224,36.64 L43.224,26.576 L49.448,26.576 C50.1864073,26.558625 50.9208259,26.6891883 51.608,26.96 C52.4006918,27.229832 52.9300653,27.9787018 52.92,28.816 L52.92,34.416 Z M51.32,29.28 C51.32,28.784 50.696,28.544 49.48,28.544 L44.68,28.544 L44.68,34.672 L49.368,34.672 C49.7607072,34.6696752 50.1482541,34.5823407 50.504,34.416 C51.032,34.208 51.304,33.936 51.304,33.584 L51.32,29.28 Z M64.072,34.416 C64.0679052,35.2500661 63.534314,35.9893792 62.744,36.256 C62.061129,36.522292 61.3328452,36.6527309 60.6,36.64 L57.832,36.64 C57.1003523,36.6454552 56.375602,36.4983255 55.704,36.208 C54.914848,35.9652519 54.3720756,35.2415554 54.36,34.416 L54.36,28.816 C54.3499347,27.9787018 54.8793082,27.229832 55.672,26.96 C56.3591741,26.6891883 57.0935927,26.558625 57.832,26.576 L60.6,26.576 C62.904,26.576 64.072,27.328 64.072,28.816 L64.072,34.416 Z M62.472,29.344 C62.472,28.816 61.864,28.544 60.616,28.544 L57.768,28.544 C56.552,28.544 55.944,28.816 55.944,29.344 L55.944,33.904 C55.944,34.416 56.552,34.672 57.768,34.672 L60.664,34.672 C61.912,34.672 62.52,34.416 62.52,33.904 L62.472,29.344 Z M78.216,36.64 L78.216,29.936 L73.144,36.336 C73.0117417,36.5025652 72.8126071,36.6021325 72.6,36.608 C72.3820875,36.6083128 72.1782435,36.5003954 72.056,36.32 L67.064,29.92 L67.064,36.592 L65.4639606,36.592 L65.4639606,27.568 C65.4626589,27.2999588 65.5286797,27.0358759 65.656,26.8 C65.7496266,26.6025851 65.949521,26.4776511 66.168,26.4799357 C66.4250037,26.5021735 66.6563885,26.6445642 66.792,26.864 L72.6,34.336 L78.44,26.896 C78.5737165,26.6746752 78.806164,26.5316306 79.064,26.512 C79.2813773,26.5135063 79.4793907,26.6372647 79.576,26.832 C79.6941425,27.0706341 79.7544361,27.3337333 79.752138,27.6 L79.752138,36.672 L78.216,36.64 Z M89.368,36.64 L89.368,33.44 L82.76,33.44 L82.76,36.64 L81.16,36.64 L81.16,29.76 C81.1199589,28.8016786 81.5649852,27.8875705 82.344,27.328 C83.0050573,26.8243701 83.8171199,26.5593219 84.648,26.576 L87.288,26.576 C88.1243329,26.5725249 88.9389351,26.8421863 89.608,27.344 C90.4125188,27.8822098 90.8886043,28.792196 90.872,29.76 L90.872,36.64 L89.368,36.64 Z M89.3680131,30.24 C89.3695781,29.72477 89.0864322,29.2508083 88.632,29.008 C88.247445,28.7528318 87.7974737,28.6139517 87.336,28.608 L84.696,28.608 C84.2579312,28.6361725 83.839067,28.7981333 83.496,29.072 C83.0719853,29.3150138 82.7962285,29.7526278 82.76,30.24 L82.76,31.584 L89.3680131,31.584 L89.3680131,30.24 Z M99.544,20.928 C98.8104467,20.9499325 98.0803413,20.8191674 97.4,20.544 C96.6002792,20.2902547 96.0609115,19.542938 96.072,18.704 L96.072,13.104 C96.0828756,12.2758346 96.6151982,11.5446928 97.4,11.28 C98.0759783,10.9872865 98.8076039,10.8453293 99.544,10.864 L105.784,10.864 L105.784,12.832 L99.544,12.832 C98.296,12.832 97.656,13.184 97.656,13.904 L97.656,18.08 C97.656,18.656 98.296,18.96 99.544,18.96 L105.784,18.96 L105.784,20.928 L99.544,20.928 Z M115.8,20.928 L115.8,16 L109.112,16 L109.112,20.928 L107.512,20.928 L107.512,10.864 L109.112,10.864 L109.112,14.064 L115.8,14.064 L115.8,10.864 L117.4,10.864 L117.4,20.928 L115.8,20.928 Z M126.616,20.928 L126.616,17.728 L119.992,17.728 L119.992,20.928 L118.392,20.928 L118.392,14.048 C118.351519,13.0888461 118.788983,12.1719684 119.56,11.6 C120.226527,11.1086799 121.036075,10.8500742 121.864,10.864 L124.504,10.864 C125.345248,10.8605357 126.164926,11.130019 126.84,11.632 C127.638433,12.1739041 128.10816,13.0832464 128.088,14.048 L128.088,20.928 L126.616,20.928 Z M126.616,14.528 C126.610896,14.0103112 126.322103,13.5371825 125.864,13.296 C125.480242,13.0391535 125.029761,12.900116 124.568,12.896 L121.928,12.896 C121.489931,12.9241725 121.071067,13.0861333 120.728,13.36 C120.303985,13.6030138 120.028229,14.0406278 119.992,14.528 L119.992,15.872 L126.616,15.872 L126.616,14.528 Z M129.768,20.928 L129.768,10.864 L131.368,10.864 L131.368,20.928 L129.768,20.928 Z M142.552026,19.936 C142.55303,20.1918772 142.492675,20.4442695 142.376,20.672 C142.279391,20.8667353 142.081377,20.9904937 141.864,20.992 C141.644748,20.9804595 141.440919,20.875633 141.304,20.704 L134.392,13.872 L134.392,20.928 L132.792,20.928 L132.792,11.936 C132.785137,11.6723911 132.851606,11.4120541 132.984,11.184 C133.076715,10.9953496 133.269819,10.8769953 133.48,10.88 C133.695277,10.8930976 133.896614,10.9908898 134.04,11.152 L140.952,18.016 L140.952,10.864 L142.552026,10.864 L142.552026,19.936 Z M92.52,36.64 L92.52,26.576 L94.12,26.576 L94.12,36.64 L92.52,36.64 Z M105.32,35.664 C105.327305,35.9226013 105.2607,36.1779217 105.128,36.4 C105.036866,36.592216 104.844692,36.7161987 104.632,36.72 C104.416723,36.7069024 104.215386,36.6091102 104.072,36.448 L97.144,29.536 L97.144,36.592 L95.544,36.592 L95.544,27.568 C95.5403804,27.3067224 95.6008074,27.0485343 95.72,26.816 C95.8235774,26.6299642 96.0190821,26.5138833 96.232,26.512 C96.4468327,26.5267799 96.6475671,26.6242794 96.792,26.784 L103.704,33.648 L103.704,26.576 L105.304,26.576 L105.32,35.664 Z" id="Combined-Shape"></path>
                </g>
            </g>
        </g>
    </g>
</svg>