<?xml version="1.0" encoding="UTF-8"?>
<svg width="125px" height="20px" viewBox="0 0 125 20" version="1.1" xmlns="http://www.w3.org/2000/svg" xmlns:xlink="http://www.w3.org/1999/xlink">
    <!-- Generator: Sketch 56 (81588) - https://sketch.com -->
    <title>Group 31</title>
    <desc>Created with Sketch.</desc>
    <defs>
        <polygon id="path-1" points="90.1005352 0.0206617492 106.874223 0.0206617492 106.874223 19.2776353 90.1005352 19.2776353"></polygon>
    </defs>
    <g id="Page-1" stroke="none" stroke-width="1" fill="none" fill-rule="evenodd">
        <g id="Update-Copy-16" transform="translate(-313.000000, -1217.000000)">
            <g id="Group-31" transform="translate(313.000000, 1217.164190)">
                <mask id="mask-2" fill="white">
                    <use xlink:href="#path-1"></use>
                </mask>
                <g id="path-5"></g>
                <path d="M106.082677,17.1160102 C106.082677,17.1160102 107.087709,16.3628127 106.280533,15.3671935 C105.834109,14.8162701 105.586308,14.8393213 105.035193,15.2724915 C103.139041,16.7623666 100.977031,17.3353807 98.5637642,16.9135439 C94.8711561,16.2683028 92.082923,12.7695168 92.3603056,9.0849766 C92.6503663,5.23120231 95.8719618,2.20515773 99.7003798,2.1008511 C102.044493,2.03688406 103.98694,2.88785705 105.700604,4.46263731 C105.994891,4.08210063 106.23251,3.69426441 106.547735,3.3853785 C107.10154,2.84271514 106.894463,2.53459761 106.347574,2.13946184 C103.771027,0.277502204 100.932274,-0.367931034 97.8201713,0.245422635 C93.6465618,1.06777374 90.5459851,4.50144014 90.1445102,8.70347945 C89.7416907,12.9189653 92.1370932,16.8405485 96.0648234,18.485827 C96.0648234,18.485827 101.50913,20.9795813 106.082677,17.1160102" id="Fill-1" fill="#101111" fill-rule="nonzero"></path>
                <path d="M62.563611,9.52467818 C62.563611,6.61792349 62.5826283,3.71078462 62.5484357,0.80441411 C62.5411361,0.181839966 62.7013419,0.00953234322 63.3312156,0.0191370042 C65.8255461,0.0571714632 68.3242948,-0.0515533028 70.8149755,0.0523691322 C76.5435797,0.291333105 80.2117919,4.80878949 80.0644564,9.86391486 C79.9209628,14.799174 75.7759752,18.9695179 70.712974,19.0173491 C68.2503389,19.0405924 65.7867433,18.9969873 63.3244923,19.0379031 C62.6811721,19.0486603 62.542865,18.8544541 62.5493961,18.2449423 C62.5810915,15.3383797 62.563611,12.4314329 62.563611,9.52467818 Z M64.7083511,9.48443465 C64.7083511,11.751711 64.720453,14.0191795 64.6985543,16.2862637 C64.6939441,16.7666889 64.7984428,16.9649291 65.3266992,16.9539798 C67.1485113,16.9159453 68.973397,16.9776072 70.7930961,16.9024988 C74.4674553,16.7507451 77.483319,13.8845221 77.7543625,10.3630691 C78.0645931,6.32795877 75.6899366,3.05718742 71.845767,2.31954943 C69.7271708,1.91288807 67.5718848,2.2467461 65.4371528,2.13360319 C64.8437768,2.1020999 64.6829948,2.27901776 64.6933678,2.87431467 C64.7310181,5.07704768 64.7083511,7.28093326 64.7083511,9.48443465 Z M53.5389945,12.5935596 C54.9990951,14.7071613 56.4401784,16.7931017 57.9792294,19.0209989 C57.1724378,19.0209989 56.4880097,18.9952584 55.8064629,19.0306036 C55.3905811,19.052118 55.2634153,18.7716619 55.0911077,18.5094547 C54.0232615,16.8845381 52.9423529,15.2680736 51.8973658,13.6285579 C51.6332376,13.2140207 51.3735275,13.0138596 50.8441186,13.0282666 C49.1827043,13.0726401 47.5189849,13.0689903 45.8571864,13.03134 C45.2736072,13.0182777 45.0870846,13.1729128 45.1051414,13.7743566 C45.1498991,15.2738364 45.0970735,16.7758133 45.1318424,18.2756772 C45.1445205,18.8246796 45.056926,19.1333735 44.4205211,19.0281064 C44.1715683,18.9868063 43.9037904,18.9852696 43.6556059,19.0282985 C42.988274,19.1437465 42.9609968,18.7766563 42.9657991,18.2605018 C42.9875057,15.9938018 42.9752117,13.7267175 42.9752117,11.4598254 C42.9752117,7.9475928 42.9917317,4.43536026 42.9606126,0.923511906 C42.9548498,0.261366561 43.0366815,-0.0238918778 43.8156196,0.0152951402 C46.7166115,0.160517618 49.6396941,-0.231544655 52.5247422,0.245038637 C55.0021686,0.654197208 56.9244455,1.91836273 57.5270419,4.48876218 C58.1405877,7.10564819 57.8305492,9.57769591 55.6280083,11.4771138 C55.0421239,11.9823189 54.3400232,12.2950467 53.5389945,12.5935596 Z M45.1199902,6.57376126 C45.1199902,7.85098911 45.1219111,9.12821697 45.1184535,10.4052528 C45.1176851,10.7035736 45.086566,10.9849901 45.5372167,10.9696227 C47.7374525,10.8945142 49.9534399,11.1676708 52.1369636,10.7506364 C54.3615953,10.3255341 55.6313315,8.75209843 55.6495804,6.50307095 C55.667445,4.31032678 54.4317093,2.77242842 52.1968967,2.33983447 C49.9818697,1.91127449 47.7326502,2.23110971 45.5003348,2.14582032 C45.0339324,2.12795565 45.1224874,2.47045787 45.1215269,2.74207769 C45.1178772,4.01930554 45.1199902,5.2965334 45.1199902,6.57376126 Z" id="Combined-Shape" fill="#101111" fill-rule="nonzero"></path>
                <path d="M115.727294,10.581652 C115.727294,8.0250832 115.704243,5.46813028 115.743622,2.91213782 C115.75361,2.26574412 115.554794,2.11379838 114.939711,2.13031839 C113.372807,2.1725789 111.803213,2.11341419 110.236501,2.15990075 C109.621995,2.17814961 109.494829,1.97568335 109.502321,1.40305344 C109.520185,0.0351575792 109.48945,0.0347733932 110.855809,0.0347733932 C114.983893,0.0347733932 119.112361,0.0716552922 123.239483,0.00749615522 C124.210323,-0.00748711678 124.110626,0.470056642 124.128299,1.09954615 C124.147316,1.77225662 124.157689,2.2294385 123.217777,2.16931332 C121.751721,2.07537973 120.27414,2.1812231 118.803859,2.12858955 C118.090809,2.10304116 117.844353,2.25191341 117.850884,3.03872726 C117.892376,8.0877056 117.834172,13.1376444 117.901021,18.1858544 C117.916196,19.3228542 117.250785,18.9682501 116.690641,19.0241492 C116.037716,19.0894609 115.678118,19.0074371 115.702129,18.1549274 C115.77282,15.6321671 115.727486,13.1063332 115.727294,10.581652" id="Fill-10" fill="#101111" fill-rule="nonzero"></path>
                <path d="M86.217164,9.52757879 C86.217164,12.4011014 86.192384,15.2750081 86.2348366,18.1479544 C86.2452096,18.8481342 86.0988346,19.0794145 85.3581231,19.04138 C84.0753246,18.9758762 84.0724432,19.0281256 84.0724432,17.7180498 C84.0724432,12.1625216 84.1004888,6.60680129 84.045358,1.0518494 C84.0359454,0.103677233 84.3747979,0.0316422732 85.1652615,0.00263619622 C86.0552294,-0.0298275588 86.2551985,0.245634126 86.2381022,1.09910433 C86.182011,3.90750729 86.217164,6.71802327 86.217164,9.52757879" id="Fill-12" fill="#101111" fill-rule="nonzero"></path>
                <path d="M8.91005217,16.2305759 C10.9178106,11.1904338 12.9457388,6.17507177 14.8958692,1.12993529 C15.2245407,0.279922767 15.5920151,0.0866769822 16.5161756,0.0257834302 C16.9796965,-0.00495148578 17.1819707,-0.00725660478 17.6082256,0.0346197182 C17.5580892,0.6249222 17.2664917,1.08633013 17.0680594,1.57443902 C14.8032803,7.1437979 12.5235179,12.7070098 10.2714169,18.2815553 C10.0505097,18.8278684 9.78004239,19.1776701 9.17053058,19.0126621 C8.57484949,18.85188 7.803211,19.476183 7.39040266,18.4427215 C4.98289827,12.4144519 2.52218405,6.40731248 0.0806791547,0.39268149 C0.0466786538,0.308928844 0.0267009584,0.219413401 -1.7408297e-12,0.131050517 C0.0680010018,0.0951290842 0.116216401,0.0480662442 0.165776453,0.0467215912 C2.29013543,-0.0166691728 2.2939773,-0.0176296388 3.09327721,1.98859201 C4.91873913,6.56982335 6.74016709,11.1525915 8.56197924,15.7351675 C8.63151699,15.9099723 8.63708769,16.119546 8.91005217,16.2305759" id="Fill-8" fill="#101111" fill-rule="nonzero"></path>
                <path d="M29.8178246,8.64103013 C32.0566712,8.64103013 34.2968624,8.68233018 36.5339801,8.61893941 C37.335393,8.59627241 37.4329764,8.92417555 37.3732354,9.56461436 C37.3234832,10.0978652 37.5776226,10.6797156 36.5871899,10.6689584 C32.0779935,10.6184378 27.5674525,10.6178616 23.0582561,10.6693425 C22.070897,10.680676 22.314087,10.105741 22.2676004,9.56941669 C22.2128539,8.93800626 22.2912279,8.59531194 23.1016692,8.61855522 C25.3387869,8.68329064 27.5789781,8.64103013 29.8178246,8.64103013" id="Fill-14" fill="#101111" fill-rule="nonzero"></path>
                <path d="M29.7240255,18.7677432 C27.5157218,18.7677432 25.3062655,18.7270194 23.0996906,18.7888735 C22.282334,18.8117326 22.2540963,18.4448345 22.2558711,17.8220683 C22.257746,17.2323421 22.2952042,16.9092412 23.0516673,16.9155803 C27.5639372,16.9530385 32.0769754,16.9532306 36.5894374,16.9155803 C37.3464768,16.9092412 37.3823982,17.2334946 37.3847364,17.8226445 C37.3870085,18.4459871 37.357234,18.8109642 36.5404536,18.7888735 C34.2699117,18.7277878 31.9964884,18.7677432 29.7240255,18.7677432" id="Fill-16" fill="#101111" fill-rule="nonzero"></path>
                <path d="M29.8801973,0.0827390712 C32.0829303,0.0827390712 34.2862396,0.111937241 36.4882043,0.0666032402 C37.2302604,0.0512357822 37.3916187,0.314787687 37.3991104,1.00555493 C37.4069862,1.73147523 37.1705194,1.92356845 36.4640005,1.91895822 C32.0268391,1.89052842 27.5891014,1.88841539 23.1517479,1.92049496 C22.4110364,1.92587357 22.2491018,1.67231052 22.2416102,0.981735366 C22.2335423,0.255815067 22.4686644,0.0552697402 23.1763358,0.0679478932 C25.4103801,0.107903284 27.6455768,0.0827390712 29.8801973,0.0827390712" id="Fill-18" fill="#101111" fill-rule="nonzero"></path>
            </g>
        </g>
    </g>
</svg>