<?xml version="1.0" encoding="UTF-8"?>
<svg width="95px" height="27px" viewBox="0 0 95 27" version="1.1" xmlns="http://www.w3.org/2000/svg" xmlns:xlink="http://www.w3.org/1999/xlink">
    <!-- Generator: Sketch 56 (81588) - https://sketch.com -->
    <title>Group 23</title>
    <desc>Created with Sketch.</desc>
    <defs>
        <polygon id="path-1" points="33.7422552 3.7631598e-05 47.5284763 3.7631598e-05 47.5284763 20.7352614 33.7422552 20.7352614"></polygon>
        <polygon id="path-3" points="82.5803285 3.76315991e-05 94.0788153 3.76315991e-05 94.0788153 13.0140406 82.5803285 13.0140406"></polygon>
    </defs>
    <g id="Page-1" stroke="none" stroke-width="1" fill="none" fill-rule="evenodd">
        <g id="Update-Copy-16" transform="translate(-1081.000000, -1122.000000)">
            <g id="Group-23" transform="translate(1081.000000, 1122.000000)">
                <polygon id="Fill-1" fill="#000000" fill-rule="nonzero" points="12.157528 6.351357 8.85611283 14.6894716 5.59703321 6.351357 -1.24344979e-14 6.351357 6.16329382 20.8598214 3.91706713 26.0903234 9.40129979 26.0903234 17.6072337 6.351357"></polygon>
                <path d="M23.2843464,6.01948489 C25.9651233,6.01948489 27.179305,7.65909114 27.179305,7.65909114 L27.179305,6.35148916 L32.0609626,6.35148916 L32.0609626,20.7353931 L27.179305,20.7353931 L27.179305,19.365511 C27.179305,19.365511 26.0909067,21.1240329 23.2045675,21.1240329 C19.3351983,21.1240329 16.4204473,17.7732264 16.4204473,13.546828 C16.4204473,9.79101203 19.0790216,6.01948489 23.2843464,6.01948489 Z M24.3226947,10.6418611 C22.4999169,10.6418611 21.3739812,11.9766519 21.3739812,13.6261364 C21.3739812,15.2525717 22.7737804,16.5184026 24.3226947,16.5184026 C26.1916651,16.5184026 27.2644463,15.0544416 27.2644463,13.5626332 C27.2644463,12.177228 26.263071,10.6418611 24.3226947,10.6418611 Z" id="Combined-Shape" fill="#000000" fill-rule="nonzero"></path>
                <mask id="mask-2" fill="white">
                    <use xlink:href="#path-1"></use>
                </mask>
                <g id="path-7"></g>
                <path d="M33.7422552,20.7352614 L33.7422552,-1.0125234e-13 L38.8481968,-1.0125234e-13 L38.8481968,7.7089153 C38.8481968,7.7089153 40.0610613,6.02123476 42.6010963,6.02123476 C45.7080505,6.02123476 47.5284763,8.33623309 47.5284763,11.6441396 L47.5284763,20.7352614 L42.4597899,20.7352614 L42.4597899,12.8894614 C42.4597899,11.7700171 41.9265509,10.6884866 40.7185785,10.6884866 C39.4889678,10.6884866 38.8481968,11.7863868 38.8481968,12.8894614 L38.8481968,20.7352614 L33.7422552,20.7352614 Z" id="Fill-4" fill="#000000" fill-rule="nonzero"></path>
                <path d="M56.2339688,6.02119712 C60.1830227,6.02119712 63.939121,8.72643454 63.939121,13.6815677 C63.939121,18.2102415 60.3518002,21.1240517 56.252126,21.1240517 C52.0224349,21.1240517 48.5503607,18.0716633 48.5503607,13.6066809 C48.5503607,9.6831224 51.4179782,6.02119712 56.2339688,6.02119712 Z M56.2798793,10.6842154 C54.4411081,10.6842154 53.4226104,12.0730075 53.4226104,13.5979316 C53.4226104,15.1808083 54.6476112,16.4901978 56.2798793,16.4901978 C58.0613565,16.4901978 59.1581277,14.9007356 59.1581277,13.6120434 C59.1581277,12.101043 57.9810131,10.6842154 56.2798793,10.6842154 Z" id="Combined-Shape" fill="#000000" fill-rule="nonzero"></path>
                <path d="M72.4454862,6.02119712 C76.3945402,6.02119712 80.1506384,8.72643454 80.1506384,13.6815677 C80.1506384,18.2102415 76.5633176,21.1240517 72.4636435,21.1240517 C68.2339523,21.1240517 64.7618782,18.0716633 64.7618782,13.6066809 C64.7618782,9.6831224 67.6294957,6.02119712 72.4454862,6.02119712 Z M72.4913967,10.6842154 C70.6526255,10.6842154 69.6341279,12.0730075 69.6341279,13.5979316 C69.6341279,15.1808083 70.8590345,16.4901978 72.4913967,16.4901978 C74.2728739,16.4901978 75.3696452,14.9007356 75.3696452,13.6120434 C75.3696452,12.101043 74.1925305,10.6842154 72.4913967,10.6842154 Z" id="Combined-Shape" fill="#000000" fill-rule="nonzero"></path>
                <path d="M84.1795841,14.2595317 C86.0521296,14.2595317 87.5701859,15.7775881 87.5701859,17.6501336 C87.5701859,19.5226791 86.0521296,21.0406414 84.1795841,21.0406414 C82.3070386,21.0406414 80.7890763,19.5226791 80.7890763,17.6501336 C80.7890763,15.7775881 82.3070386,14.2595317 84.1795841,14.2595317" id="Fill-11" fill="#000000" fill-rule="nonzero"></path>
                <mask id="mask-4" fill="white">
                    <use xlink:href="#path-3"></use>
                </mask>
                <g id="path-9"></g>
                <polygon id="Fill-13" fill="#000000" fill-rule="nonzero" points="88.6842586 13.0140406 82.5803285 13.0140406 87.9976711 1.88157981e-05 94.0788341 1.88157981e-05"></polygon>
            </g>
        </g>
    </g>
</svg>