<?xml version="1.0" encoding="UTF-8"?>
<svg width="112px" height="32px" viewBox="0 0 112 32" version="1.1" xmlns="http://www.w3.org/2000/svg" xmlns:xlink="http://www.w3.org/1999/xlink">
    <!-- Generator: Sketch 58 (84663) - https://sketch.com -->
    <title>Group 17</title>
    <desc>Created with Sketch.</desc>
    <defs>
        <polygon id="path-1" points="0.0738864 0.075712 16.4862544 0.075712 16.4862544 24.7608032 0.0738864 24.7608032"></polygon>
        <polygon id="path-3" points="0.0871584 0.075712 13.776 0.075712 13.776 15.5687616 0.0871584 15.5687616"></polygon>
    </defs>
    <g id="DM" stroke="none" stroke-width="1" fill="none" fill-rule="evenodd">
        <g id="Update-Copy-10" transform="translate(-899.000000, -920.000000)">
            <g id="Group-17" transform="translate(899.000000, 920.000000)">
                <polygon id="Fill-1" fill="#5F01D1" points="14.4734688 7.6731872 10.5431648 17.5996352 6.6632608 7.6731872 4.48e-05 7.6731872 7.3373888 24.9453792 4.6632768 31.1722432 11.1922048 31.1722432 20.9612928 7.6731872"></polygon>
                <g id="Group-16" transform="translate(19.488000, 0.036288)">
                    <path d="M9.4679872,12.744704 C11.7779872,12.744704 12.9701152,14.572544 12.9701152,16.221856 C12.9701152,17.99784 11.6929792,19.740672 9.4679872,19.740672 C7.6240192,19.740672 5.9575712,18.233712 5.9575712,16.297456 C5.9575712,14.33376 7.2979872,12.744704 9.4679872,12.744704 M8.2318432,7.241808 C3.2254432,7.241808 0.0604352,11.731776 0.0604352,16.20304 C0.0604352,21.234528 3.5304192,25.223632 8.1368672,25.223632 C11.5730272,25.223632 12.8687552,23.130128 12.8687552,23.130128 L12.8687552,24.76096 L18.6803232,24.76096 L18.6803232,7.637056 L12.8687552,7.637056 L12.8687552,9.193744 C12.8687552,9.193744 11.4232832,7.241808 8.2318432,7.241808" id="Fill-2" fill="#5F01D1"></path>
                    <g id="Group-6" transform="translate(20.608000, 0.000000)">
                        <mask id="mask-2" fill="white">
                            <use xlink:href="#path-1"></use>
                        </mask>
                        <g id="Clip-5"></g>
                        <path d="M0.0738864,24.7608032 L0.0738864,0.0756672 L6.1524624,0.0756672 L6.1524624,9.2530592 C6.1524624,9.2530592 7.5963664,7.2438912 10.6202544,7.2438912 C14.3190544,7.2438912 16.4862544,9.9998752 16.4862544,13.9379072 L16.4862544,24.7608032 L10.4520304,24.7608032 L10.4520304,15.4204512 C10.4520304,14.0877632 9.8172144,12.8002112 8.3791344,12.8002112 C6.9152944,12.8002112 6.1524624,14.1072512 6.1524624,15.4204512 L6.1524624,24.7608032 L0.0738864,24.7608032 Z" id="Fill-4" fill="#5F01D1" mask="url(#mask-2)"></path>
                    </g>
                    <path d="M47.5127184,12.7951264 C49.5379024,12.7951264 50.9392464,14.4818464 50.9392464,16.2806784 C50.9392464,17.8148544 49.6335504,19.7070944 47.5127184,19.7070944 C45.5695184,19.7070944 44.1111664,18.1482784 44.1111664,16.2638784 C44.1111664,14.4484704 45.3236784,12.7951264 47.5127184,12.7951264 M47.4580624,7.2438464 C41.7246704,7.2438464 38.3107984,11.6033344 38.3107984,16.2742944 C38.3107984,21.5898144 42.4442704,25.2236544 47.4796784,25.2236544 C52.3603024,25.2236544 56.6309744,21.7547904 56.6309744,16.3634464 C56.6309744,10.4644064 52.1593744,7.2438464 47.4580624,7.2438464" id="Fill-7" fill="#5F01D1"></path>
                    <path d="M66.8123792,12.7951264 C68.8375632,12.7951264 70.2389072,14.4818464 70.2389072,16.2806784 C70.2389072,17.8148544 68.9332112,19.7070944 66.8123792,19.7070944 C64.8690672,19.7070944 63.4108272,18.1482784 63.4108272,16.2638784 C63.4108272,14.4484704 64.6233392,12.7951264 66.8123792,12.7951264 M66.7577232,7.2438464 C61.0243312,7.2438464 57.6104592,11.6033344 57.6104592,16.2742944 C57.6104592,21.5898144 61.7439312,25.2236544 66.7793392,25.2236544 C71.6599632,25.2236544 75.9306352,21.7547904 75.9306352,16.3634464 C75.9306352,10.4644064 71.4590352,7.2438464 66.7577232,7.2438464" id="Fill-9" fill="#5F01D1"></path>
                    <path d="M80.7270576,17.0515072 C82.9563056,17.0515072 84.7635376,18.8587392 84.7635376,21.0879872 C84.7635376,23.3172352 82.9563056,25.1243552 80.7270576,25.1243552 C78.4978096,25.1243552 76.6906896,23.3172352 76.6906896,21.0879872 C76.6906896,18.8587392 78.4978096,17.0515072 80.7270576,17.0515072" id="Fill-11" fill="#5F01D1"></path>
                    <g id="Group-15" transform="translate(78.736000, 0.000000)">
                        <mask id="mask-4" fill="white">
                            <use xlink:href="#path-3"></use>
                        </mask>
                        <g id="Clip-14"></g>
                        <polygon id="Fill-13" fill="#5F01D1" mask="url(#mask-4)" points="7.3538304 15.5687616 0.0871584 15.5687616 6.5364544 0.0756896 13.7760224 0.0756896"></polygon>
                    </g>
                </g>
            </g>
        </g>
    </g>
</svg>