<?xml version="1.0" encoding="UTF-8"?>
<svg width="60px" height="66px" viewBox="0 0 60 66" version="1.1" xmlns="http://www.w3.org/2000/svg" xmlns:xlink="http://www.w3.org/1999/xlink">
    <!-- Generator: Sketch 55.2 (78181) - https://sketchapp.com -->
    <title>30 day</title>
    <desc>Created with Sketch.</desc>
    <g id="Page-1" stroke="none" stroke-width="1" fill="none" fill-rule="evenodd">
        <g id="Home-Copy-6" transform="translate(-1033.000000, -708.000000)" fill="#717171" fill-rule="nonzero">
            <g id="30-day" transform="translate(1033.000000, 708.000000)">
                <path d="M34.0298507,0 L23.2748364,7.1641791 L34.0298507,14.3283582 L34.0298507,8.41651119 C37.313469,8.95189218 40.5072036,10.0801701 43.4730645,11.7974579 C49.8885869,15.5147713 54.4754248,21.5064878 56.3846785,28.6724579 C60.3258725,43.4629057 51.499911,58.700709 36.7076722,62.6445896 C29.5425976,64.5538433 22.0627191,63.5590021 15.6454057,59.8425842 C9.22988328,56.1252707 4.64479433,50.1335543 2.73554149,42.9675842 C0.0901679104,33.0425096 3.19361463,22.9133955 9.9924206,16.1333955 C10.1921221,15.9345896 10.4064734,15.7478875 10.6133391,15.5544546 L9.3400191,14.2776349 C1.68151119,21.4892767 -1.89121737,32.57292 1.00221546,43.4293379 C3.03505164,51.0565021 7.91798507,57.4358391 14.7481343,61.3922579 C21.5791791,65.3495704 29.5422618,66.4090021 37.169426,64.3761663 C42.3482319,62.9961663 46.8399627,60.3146785 50.3871269,56.7764696 C57.6247388,49.5585591 60.9300278,38.7769728 58.1145054,28.2107042 C56.0816696,20.58354 51.2004851,14.2024531 44.3703358,10.2460352 C41.1267036,8.36777588 37.626317,7.15611609 34.0298507,6.60622666 L34.0298507,0 Z M38.8100516,12.5862878 C38.3154683,12.5862878 37.9145293,12.9872268 37.9145293,13.4818101 C37.9145293,13.9763935 38.3154683,14.3773325 38.8100516,14.3773325 C39.304635,14.3773325 39.705574,13.9763935 39.705574,13.4818101 C39.705574,12.9872268 39.304635,12.5862878 38.8100516,12.5862878 Z M42.9903215,14.8215949 C42.4957381,14.8215949 42.0947991,15.222534 42.0947991,15.7171173 C42.0947991,16.2117007 42.4957381,16.6126397 42.9903215,16.6126397 C43.4849049,16.6126397 43.8858439,16.2117007 43.8858439,15.7171173 C43.8858439,15.222534 43.4849049,14.8215949 42.9903215,14.8215949 Z M12.460354,17.8282415 C11.9657707,17.8282415 11.5648316,18.2291805 11.5648316,18.7237639 C11.5648316,19.2183472 11.9657707,19.6192863 12.460354,19.6192863 C12.9549374,19.6192863 13.3558764,19.2183472 13.3558764,18.7237639 C13.3558764,18.2291805 12.9549374,17.8282415 12.460354,17.8282415 Z M46.6563663,17.8282415 C46.1617829,17.8282415 45.7608439,18.2291805 45.7608439,18.7237639 C45.7608439,19.2183472 46.1617829,19.6192863 46.6563663,19.6192863 C47.1509496,19.6192863 47.5518887,19.2183472 47.5518887,18.7237639 C47.5518887,18.2291805 47.1509496,17.8282415 46.6563663,17.8282415 Z M9.45545731,21.4925373 C8.96087396,21.4925373 8.55993493,21.8934763 8.55993493,22.3880597 C8.55993493,22.8826431 8.96087396,23.2835821 9.45545731,23.2835821 C9.95004067,23.2835821 10.3509797,22.8826431 10.3509797,22.3880597 C10.3509797,21.8934763 9.95004067,21.4925373 9.45545731,21.4925373 Z M49.6612639,21.4925373 C49.1666805,21.4925373 48.7657415,21.8934763 48.7657415,22.3880597 C48.7657415,22.8826431 49.1666805,23.2835821 49.6612639,23.2835821 C50.1558472,23.2835821 50.5567863,22.8826431 50.5567863,22.3880597 C50.5567863,21.8934763 50.1558472,21.4925373 49.6612639,21.4925373 Z M7.22189821,25.6728081 C6.72731485,25.6728081 6.32637582,26.0737471 6.32637582,26.5683304 C6.32637582,27.0629138 6.72731485,27.4638528 7.22189821,27.4638528 C7.71648157,27.4638528 8.1174206,27.0629138 8.1174206,26.5683304 C8.1174206,26.0737471 7.71648157,25.6728081 7.22189821,25.6728081 Z M51.894823,25.6728081 C51.4002396,25.6728081 50.9993006,26.0737471 50.9993006,26.5683304 C50.9993006,27.0629138 51.4002396,27.4638528 51.894823,27.4638528 C52.3894063,27.4638528 52.7903454,27.0629138 52.7903454,26.5683304 C52.7903454,26.0737471 52.3894063,25.6728081 51.894823,25.6728081 Z M36.441814,27.761194 C32.9259931,27.761194 30.8378033,30.6784979 30.8378033,35.6844681 C30.8378033,40.7217815 32.9045006,43.6401215 36.441814,43.6392262 C39.9674857,43.6392262 42.0248364,40.7320245 42.0248364,35.7054573 C42.0248364,30.6896364 39.9361424,27.761194 36.441814,27.761194 Z M21.4942863,27.762943 C18.4611519,27.762943 16.486903,29.4504296 16.329291,32.1898316 L18.5645991,32.1898316 C18.6908678,30.6996833 19.7730645,29.786614 21.4208257,29.786614 C23.0685869,29.786614 24.1493704,30.7104009 24.1493704,32.116371 C24.1493704,33.5429382 23.0261051,34.5300842 21.3998364,34.5300842 L19.5633161,34.5300842 L19.5633161,36.4715481 L21.4732979,36.4715481 C23.45688,36.471549 24.6845848,37.4476119 24.6845848,39.011194 C24.6845848,40.5013433 23.382831,41.5613337 21.5362639,41.5613337 C19.6995475,41.5613337 18.4403588,40.6276675 18.2934931,39.1581152 L16.0371967,39.1581152 C16.1742116,41.8661758 18.3562639,43.639226 21.5362639,43.639226 C24.6947713,43.639226 27.0878033,41.7081716 27.0878033,39.1371269 C27.0878033,37.1123507 25.8288385,35.6971316 23.7610773,35.4553406 L23.7610773,35.2769355 C25.4294355,34.8990251 26.4686337,33.555686 26.4686337,31.7718054 C26.4686337,29.4944919 24.3071221,27.762943 21.4942863,27.762943 Z M36.441814,29.818097 C38.4782319,29.818097 39.6531018,31.8856621 39.6531018,35.6844681 C39.6531018,39.5253636 38.498829,41.582323 36.441814,41.582323 C34.3847991,41.582323 33.2095379,39.5146173 33.2095379,35.6844681 C33.2095379,31.8955128 34.4053961,29.818097 36.441814,29.818097 Z M5.84538269,30.2081391 C5.35079933,30.2081391 4.9498603,30.6090781 4.9498603,31.1036615 C4.9498603,31.5982449 5.35079933,31.9991839 5.84538269,31.9991839 C6.33996604,31.9991839 6.74090507,31.5982449 6.74090507,31.1036615 C6.74090507,30.6090781 6.33996604,30.2081391 5.84538269,30.2081391 Z M53.2713385,30.2081391 C52.7767551,30.2081391 52.3758161,30.6090781 52.3758161,31.1036615 C52.3758161,31.5982449 52.7767551,31.9991839 53.2713385,31.9991839 C53.7659219,31.9991839 54.1668609,31.5982449 54.1668609,31.1036615 C54.1668609,30.6090781 53.7659219,30.2081391 53.2713385,30.2081391 Z M5.38013015,34.9253731 C4.88554679,34.9253731 4.48460776,35.3263122 4.48460776,35.8208955 C4.48460776,36.3154789 4.88554679,36.7164179 5.38013015,36.7164179 C5.87471351,36.7164179 6.27565254,36.3154789 6.27565254,35.8208955 C6.27565254,35.3263122 5.87471351,34.9253731 5.38013015,34.9253731 Z M53.7383391,34.9253731 C53.2437557,34.9253731 52.8428167,35.3263122 52.8428167,35.8208955 C52.8428167,36.3154789 53.2437557,36.7164179 53.7383391,36.7164179 C54.2329225,36.7164179 54.6338615,36.3154789 54.6338615,35.8208955 C54.6338615,35.3263122 54.2329225,34.9253731 53.7383391,34.9253731 Z M5.84363373,39.6426072 C5.34905037,39.6426072 4.94811134,40.0435462 4.94811134,40.5381296 C4.94811134,41.0327129 5.34905037,41.4336519 5.84363373,41.4336519 C6.33821709,41.4336519 6.73915612,41.0327129 6.73915612,40.5381296 C6.73915612,40.0435462 6.33821709,39.6426072 5.84363373,39.6426072 Z M53.2713385,39.6426072 C52.7767551,39.6426072 52.3758161,40.0435462 52.3758161,40.5381296 C52.3758161,41.0327129 52.7767551,41.4336519 53.2713385,41.4336519 C53.7659219,41.4336519 54.1668609,41.0327129 54.1668609,40.5381296 C54.1668609,40.0435462 53.7659219,39.6426072 53.2713385,39.6426072 Z M7.2184003,44.1779382 C6.72381694,44.1779382 6.32287791,44.5788772 6.32287791,45.0734606 C6.32287791,45.568044 6.72381694,45.968983 7.2184003,45.968983 C7.71298366,45.968983 8.11392269,45.568044 8.11392269,45.0734606 C8.11392269,44.5788772 7.71298366,44.1779382 7.2184003,44.1779382 Z M51.8965719,44.1779382 C51.4019886,44.1779382 51.0010496,44.5788772 51.0010496,45.0734606 C51.0010496,45.568044 51.4019886,45.968983 51.8965719,45.968983 C52.3911553,45.968983 52.7920943,45.568044 52.7920943,45.0734606 C52.7920943,44.5788772 52.3911553,44.1779382 51.8965719,44.1779382 Z M9.4519594,48.358209 C8.95737604,48.358209 8.55643701,48.759148 8.55643701,49.2537313 C8.55643701,49.7483147 8.95737604,50.1492537 9.4519594,50.1492537 C9.94654276,50.1492537 10.3474818,49.7483147 10.3474818,49.2537313 C10.3474818,48.759148 9.94654276,48.358209 9.4519594,48.358209 Z M49.6612639,48.3599579 C49.1666805,48.3599579 48.7657415,48.7608969 48.7657415,49.2554803 C48.7657415,49.7500637 49.1666805,50.1510027 49.6612639,50.1510027 C50.1558472,50.1510027 50.5567863,49.7500637 50.5567863,49.2554803 C50.5567863,48.7608969 50.1558472,48.3599579 49.6612639,48.3599579 Z M12.460354,52.0225048 C11.9657707,52.0225048 11.5648316,52.4234438 11.5648316,52.9180272 C11.5648316,53.4126105 11.9657707,53.8135496 12.460354,53.8135496 C12.9549374,53.8135496 13.3558764,53.4126105 13.3558764,52.9180272 C13.3558764,52.4234438 12.9549374,52.0225048 12.460354,52.0225048 Z M46.6563663,52.0225048 C46.1617829,52.0225048 45.7608439,52.4234438 45.7608439,52.9180272 C45.7608439,53.4126105 46.1617829,53.8135496 46.6563663,53.8135496 C47.1509496,53.8135496 47.5518887,53.4126105 47.5518887,52.9180272 C47.5518887,52.4234438 47.1509496,52.0225048 46.6563663,52.0225048 Z M16.1229009,55.0291513 C15.6283175,55.0291513 15.2273785,55.4300904 15.2273785,55.9246737 C15.2273785,56.4192571 15.6283175,56.8201961 16.1229009,56.8201961 C16.6174843,56.8201961 17.0184233,56.4192571 17.0184233,55.9246737 C17.0184233,55.4300904 16.6174843,55.0291513 16.1229009,55.0291513 Z M42.9885725,55.0309003 C42.4939892,55.0309003 42.0930501,55.4318393 42.0930501,55.9264227 C42.0930501,56.421006 42.4939892,56.8219451 42.9885725,56.8219451 C43.4831559,56.8219451 43.8840949,56.421006 43.8840949,55.9264227 C43.8840949,55.4318393 43.4831559,55.0309003 42.9885725,55.0309003 Z M20.3031716,57.2644585 C19.8085883,57.2644585 19.4076493,57.6653975 19.4076493,58.1599809 C19.4076493,58.6545643 19.8085883,59.0555033 20.3031716,59.0555033 C20.797755,59.0555033 21.198694,58.6545643 21.198694,58.1599809 C21.198694,57.6653975 20.797755,57.2644585 20.3031716,57.2644585 Z M38.8100516,57.2644585 C38.3154683,57.2644585 37.9145293,57.6653975 37.9145293,58.1599809 C37.9145293,58.6545643 38.3154683,59.0555033 38.8100516,59.0555033 C39.304635,59.0555033 39.705574,58.6545643 39.705574,58.1599809 C39.705574,57.6653975 39.304635,57.2644585 38.8100516,57.2644585 Z M34.2747206,58.639226 C33.7801372,58.639226 33.3791982,59.040165 33.3791982,59.5347484 C33.3791982,60.0293317 33.7801372,60.4302707 34.2747206,60.4302707 C34.769304,60.4302707 35.170243,60.0293317 35.170243,59.5347484 C35.170243,59.040165 34.769304,58.639226 34.2747206,58.639226 Z M24.8402516,58.6409749 C24.3456683,58.6409749 23.9447293,59.041914 23.9447293,59.5364973 C23.9447293,60.0310807 24.3456683,60.4320197 24.8402516,60.4320197 C25.334835,60.4320197 25.735774,60.0310807 25.735774,59.5364973 C25.735774,59.041914 25.334835,58.6409749 24.8402516,58.6409749 Z M29.5592346,59.1044776 C29.0646513,59.1044776 28.6637122,59.5054166 28.6637122,60 C28.6637122,60.4945834 29.0646513,60.8955224 29.5592346,60.8955224 C30.053818,60.8955224 30.454757,60.4945834 30.454757,60 C30.454757,59.5054166 30.053818,59.1044776 29.5592346,59.1044776 Z" id="Shape"></path>
            </g>
        </g>
    </g>
</svg>