<?xml version="1.0" encoding="UTF-8"?>
<svg width="35px" height="32px" viewBox="0 0 35 32" version="1.1" xmlns="http://www.w3.org/2000/svg" xmlns:xlink="http://www.w3.org/1999/xlink">
    <!-- Generator: Sketch 58 (84663) - https://sketch.com -->
    <title>amazon-icon</title>
    <desc>Created with Sketch.</desc>
    <g id="Page-1" stroke="none" stroke-width="1" fill="none" fill-rule="evenodd">
        <g id="Update-Copy-10" transform="translate(-993.000000, -316.000000)" fill="#000000" fill-rule="nonzero">
            <g id="Group-20" transform="translate(993.000000, 316.000000)">
                <g id="amazon-icon" transform="translate(0.000000, 0.000000)">
                    <path d="M0.0636363636,24.6909091 C0.169686364,24.5212227 0.339372727,24.5105955 0.572727273,24.6590909 C5.87573636,27.7348591 11.6454545,29.2727273 17.8818182,29.2727273 C22.0393727,29.2727273 26.1439182,28.4984955 30.1954545,26.95 C30.3015045,26.9075864 30.4552818,26.84395 30.6568182,26.7590909 C30.8583227,26.6742318 31.0015045,26.6105955 31.0863636,26.5681818 C31.4045455,26.4409091 31.6537773,26.5045455 31.8340909,26.7590909 C32.0143727,27.0136364 31.95605,27.2469591 31.6590909,27.4590909 C31.2772727,27.7348591 30.7893727,28.0530409 30.1954545,28.4136364 C28.3711909,29.4954545 26.3348273,30.3333227 24.0863636,30.9272727 C21.8378682,31.5212227 19.6424136,31.8181818 17.5,31.8181818 C14.1909091,31.8181818 11.0621,31.2401409 8.11363636,30.0840909 C5.16514091,28.9280409 2.52423182,27.3 0.190909091,25.2 C0.0636363636,25.09395 0,24.9878682 0,24.8818182 C0,24.8181818 0.0211909091,24.7545455 0.0636363636,24.6909091 Z M9.64090909,15.6227273 C9.64090909,14.1590909 10.0015045,12.9075864 10.7227273,11.8681818 C11.4439182,10.8287773 12.4302818,10.04395 13.6818182,9.51363636 C14.8272727,9.02576818 16.2378682,8.67576818 17.9136364,8.46363636 C18.4863636,8.4 19.4196864,8.31514091 20.7136364,8.20909091 L20.7136364,7.66818182 C20.7136364,6.31059545 20.5651409,5.39849545 20.2681818,4.93181818 C19.8227273,4.29545455 19.1227273,3.97727273 18.1681818,3.97727273 L17.9136364,3.97727273 C17.2136364,4.04090909 16.6090909,4.26363636 16.1,4.64545455 C15.5909091,5.02727273 15.2621,5.55758636 15.1136364,6.23636364 C15.0287773,6.66059545 14.8166455,6.90454545 14.4772727,6.96818182 L10.8181818,6.52272727 C10.4575545,6.43786818 10.2772727,6.24695909 10.2772727,5.95 C10.2772727,5.88636364 10.2878682,5.81213182 10.3090909,5.72727273 C10.6696864,3.83940455 11.5552818,2.43940455 12.9659091,1.52727273 C14.3765045,0.615140909 16.0257364,0.10605 17.9136364,0 L18.7090909,0 C21.1272727,0 23.0151409,0.625768182 24.3727273,1.87727273 C24.5856644,2.09036042 24.7824217,2.31902424 24.9613636,2.56136364 C25.1416455,2.80531364 25.2848273,3.02272727 25.3909091,3.21363636 C25.4969591,3.40454545 25.5924136,3.68031364 25.6772727,4.04090909 C25.7621,4.40150455 25.8257364,4.65076818 25.8681818,4.78863636 C25.9105955,4.92650455 25.9424136,5.22349545 25.9636364,5.67954545 C25.9848273,6.13559545 25.9954545,6.40605 25.9954545,6.49090909 L25.9954545,14.1909091 C25.9954545,14.7424136 26.075,15.2462227 26.2340909,15.7022727 C26.3931818,16.1583227 26.5469591,16.4871318 26.6954545,16.6886364 C26.8439182,16.8901409 27.0878682,17.2136364 27.4272727,17.6590909 C27.5545455,17.85 27.6181818,18.0196864 27.6181818,18.1681818 C27.6181818,18.3378682 27.5333227,18.4863636 27.3636364,18.6136364 C25.6030091,20.1409091 24.6484636,20.9681818 24.5,21.0954545 C24.2454545,21.2863636 23.9378682,21.3075864 23.5772727,21.1590909 C23.2802818,20.9045455 23.0204545,20.6605955 22.7977273,20.4272727 C22.575,20.19395 22.4159091,20.0242318 22.3204545,19.9181818 C22.225,19.8121318 22.0711909,19.6053136 21.8590909,19.2977273 C21.6469591,18.9901409 21.4984636,18.7833227 21.4136364,18.6772727 C20.2257364,19.9712227 19.0590909,20.7772727 17.9136364,21.0954545 C17.1924136,21.3075864 16.3015045,21.4136364 15.2409091,21.4136364 C13.6075545,21.4136364 12.2659091,20.9098591 11.2159091,19.9022727 C10.1659091,18.8946864 9.64090909,17.4681818 9.64090909,15.6227273 Z M15.1136364,14.9863636 C15.1136364,15.8136364 15.3204545,16.4765045 15.7340909,16.975 C16.1477273,17.4734955 16.7045455,17.7227273 17.4045455,17.7227273 C17.4681818,17.7227273 17.5583227,17.7121318 17.675,17.6909091 C17.7916455,17.6696864 17.8711909,17.6590909 17.9136364,17.6590909 C18.8045455,17.4257682 19.4939182,16.8530409 19.9818182,15.9409091 C20.2151409,15.5378682 20.3901409,15.0977273 20.5068182,14.6204545 C20.6234636,14.1431818 20.6871,13.75605 20.6977273,13.4590909 C20.7083227,13.1621318 20.7136364,12.6742318 20.7136364,11.9954545 L20.7136364,11.2 C19.4833227,11.2 18.55,11.2848591 17.9136364,11.4545455 C16.0469591,11.9848591 15.1136364,13.1621318 15.1136364,14.9863636 Z M28.4772727,25.2318182 C28.5196864,25.1469591 28.5833227,25.0621318 28.6681818,24.9772727 C29.1984636,24.6166773 29.7075545,24.3727273 30.1954545,24.2454545 C31.0015045,24.0333227 31.7863636,23.9166773 32.55,23.8954545 C32.7621,23.8742318 32.9636364,23.8848461 33.1545455,23.9272727 C34.1090909,24.0121318 34.6818182,24.1712227 34.8727273,24.4045455 C34.9575545,24.5318182 35,24.7227273 35,24.9772727 L35,25.2 C35,25.9424136 34.7984636,26.8174136 34.3954545,27.825 C33.9924136,28.8325864 33.4302818,29.64395 32.7090909,30.2590909 C32.6030091,30.34395 32.5075545,30.3863636 32.4227273,30.3863636 C32.3802818,30.3863636 32.3378682,30.3757682 32.2954545,30.3545455 C32.1681818,30.2909091 32.1363636,30.1742318 32.2,30.0045455 C32.9848273,28.1590909 33.3772727,26.8757682 33.3772727,26.1545455 C33.3772727,25.9212227 33.3348273,25.7515045 33.25,25.6454545 C33.0378682,25.3909091 32.4439182,25.2636364 31.4681818,25.2636364 C31.1075545,25.2636364 30.6833227,25.2848591 30.1954545,25.3272727 C29.6651409,25.3909091 29.1772727,25.4545455 28.7318182,25.5181818 C28.6045455,25.5181818 28.5196864,25.4969591 28.4772727,25.4545455 C28.4348391,25.4121318 28.4242318,25.3696864 28.4454545,25.3272727 C28.4454545,25.30605 28.45605,25.2742318 28.4772727,25.2318182 Z" id="Shape"></path>
                </g>
            </g>
        </g>
    </g>
</svg>