<?xml version="1.0" encoding="UTF-8"?>
<svg width="10px" height="15px" viewBox="0 0 10 15" version="1.1" xmlns="http://www.w3.org/2000/svg" xmlns:xlink="http://www.w3.org/1999/xlink">
    <!-- Generator: Sketch 55.1 (78136) - https://sketchapp.com -->
    <title>icons8-down</title>
    <desc>Created with Sketch.</desc>
    <g id="Page-1" stroke="none" stroke-width="1" fill="none" fill-rule="evenodd">
        <g id="Home" transform="translate(-693.000000, -766.000000)" fill="#BBBFC4" fill-rule="nonzero">
            <g id="icons8-down" transform="translate(693.000000, 766.000000)">
                <path d="M4.91867814,0.00188220074 C4.90077439,0.00513761741 4.88287106,0.0100201174 4.86659481,0.0149030341 C4.67290981,0.0588484507 4.53619106,0.233002201 4.54107397,0.431569701 L4.54107397,12.7362572 L0.712948974,8.9081322 C0.634823974,8.82512428 0.527402307,8.77955137 0.413469807,8.77792387 C0.244198974,8.77955137 0.0928318903,8.88209053 0.0293552236,9.03996803 C-0.0324935264,9.19621803 0.00494105694,9.3768822 0.127011474,9.4940697 L4.65826147,14.0383405 L4.95774064,14.3247989 L5.25721981,14.0383405 L9.78846981,9.4940697 C9.91216772,9.39315845 9.96913397,9.23202553 9.93332647,9.07577553 C9.89751939,8.92115303 9.77544897,8.79908262 9.62082647,8.76327553 C9.46457647,8.72746803 9.30344397,8.78443428 9.20253231,8.9081322 L5.37440731,12.7362572 L5.37440731,0.431569701 C5.37929022,0.311127201 5.33046189,0.195567201 5.24419897,0.114186784 C5.15630856,0.0311792841 5.03749314,-0.00951113259 4.91867814,0.00188220074 Z" id="Path"></path>
            </g>
        </g>
    </g>
</svg>