<?xml version="1.0" encoding="UTF-8"?>
<svg width="20px" height="20px" viewBox="0 0 20 20" version="1.1" xmlns="http://www.w3.org/2000/svg" xmlns:xlink="http://www.w3.org/1999/xlink">
    <!-- Generator: Sketch 58 (84663) - https://sketch.com -->
    <title>binance-coin-bnb-logo</title>
    <desc>Created with Sketch.</desc>
    <g id="Page-1" stroke="none" stroke-width="1" fill="none" fill-rule="evenodd">
        <g id="fix-laji-trang-tren" transform="translate(-758.000000, -633.000000)" fill="#000000" fill-rule="nonzero">
            <g id="binance-coin-bnb-logo" transform="translate(758.000000, 633.000000)">
                <path d="M6.11345462,8.4042 L9.99590164,4.5203 L13.8803479,8.4062 L16.1394442,6.1462 L9.99590164,0 L3.85445822,6.1442 L6.11345462,8.4042 M5.99760096e-05,9.99969 L2.25922631,7.73962 L4.5182427,9.99955 L2.25909636,12.2596 L5.99760096e-05,9.99969 Z M6.11345462,11.5958 L9.99590164,15.4797 L13.8802479,11.5939 L16.1405438,13.8527 L16.1394442,13.8539 L9.99590164,20 L3.8542583,13.856 L3.85105958,13.8528 L6.11345462,11.5958 M15.4739404,10.00093 L17.7331068,7.74087 L19.9921232,10.00079 L17.7329668,12.26086 L15.4739404,10.00093 Z" id="Shape"></path>
                <polyline id="Path" points="12.2872851 9.9988 12.2882847 9.9988 9.99590164 7.7055 8.30177929 9.4003 8.30167933 9.4003 8.10705718 9.5951 7.70561775 9.9968 7.70241903 9.9999 7.70561775 10.0032 9.99590164 12.2945 12.2882847 10.0012 12.2893842 9.9999 12.2872851 9.9988"></polyline>
            </g>
        </g>
    </g>
</svg>