<?xml version="1.0" encoding="UTF-8"?>
<svg width="20px" height="20px" viewBox="0 0 20 20" version="1.1" xmlns="http://www.w3.org/2000/svg" xmlns:xlink="http://www.w3.org/1999/xlink">
    <!-- Generator: Sketch 58 (84663) - https://sketch.com -->
    <title>bitcoin-btc-logo copy</title>
    <desc>Created with Sketch.</desc>
    <g id="Page-1" stroke="none" stroke-width="1" fill="none" fill-rule="evenodd">
        <g id="fix-laji-trang-tren" transform="translate(-758.000000, -547.000000)" fill-rule="nonzero">
            <g id="bitcoin-btc-logo-copy" transform="translate(758.000000, 547.000000)">
                <circle id="Oval" fill="#101111" cx="10" cy="10" r="10"></circle>
                <path d="M14.493125,8.7625 C14.689375,7.4525 13.69125,6.748125 12.3275,6.278125 L12.77,4.503125 L11.69,4.234375 L11.25875,5.9625 C10.975,5.89125 10.68375,5.825 10.393125,5.75875 L10.8275,4.019375 L9.7475,3.75 L9.305,5.524375 C9.07,5.470625 8.83875,5.418125 8.615,5.361875 L8.61625,5.35625 L7.12625,4.984375 L6.83875,6.138125 C6.83875,6.138125 7.640625,6.321875 7.62375,6.333125 C8.06125,6.4425 8.14,6.731875 8.126875,6.961875 L7.623125,8.98375 C7.653125,8.99125 7.691875,9.0025 7.735625,9.019375 L7.62125,8.99125 L6.915,11.82375 C6.86125,11.95625 6.725625,12.155625 6.419375,12.08 C6.430625,12.095625 5.634375,11.884375 5.634375,11.884375 L5.098125,13.120625 L6.504375,13.47125 C6.765625,13.536875 7.021875,13.605625 7.27375,13.67 L6.826875,15.465 L7.90625,15.73375 L8.34875,13.95875 C8.64375,14.038125 8.93,14.111875 9.21,14.181875 L8.76875,15.949375 L9.84875,16.218125 L10.295625,14.426875 C12.138125,14.775625 13.523125,14.635 14.10625,12.96875 C14.57625,11.6275 14.083125,10.853125 13.11375,10.34875 C13.82,10.18625 14.35125,9.721875 14.493125,8.7625 L14.493125,8.7625 Z M12.024375,12.22375 C11.69125,13.565625 9.431875,12.84 8.699375,12.658125 L9.293125,10.28 C10.025625,10.463125 12.37375,10.825 12.024375,12.22375 Z M12.35875,8.743125 C12.054375,9.96375 10.174375,9.343125 9.565,9.19125 L10.1025,7.035 C10.711875,7.186875 12.67625,7.47 12.35875,8.743125 Z" id="Shape" fill="#FFFFFF"></path>
            </g>
        </g>
    </g>
</svg>