<?xml version="1.0" encoding="UTF-8"?>
<svg width="23px" height="32px" viewBox="0 0 23 32" version="1.1" xmlns="http://www.w3.org/2000/svg" xmlns:xlink="http://www.w3.org/1999/xlink">
    <!-- Generator: Sketch 57.1 (83088) - https://sketch.com -->
    <title>iconfinder_Basic_UI_Elements_-_2.2_-_line-43_4956920</title>
    <desc>Created with Sketch.</desc>
    <g id="Page-1" stroke="none" stroke-width="1" fill="none" fill-rule="evenodd">
        <g id="Update" transform="translate(-790.000000, -704.000000)" fill="#000000" fill-rule="nonzero" stroke="#FFFFFF">
            <g id="iconfinder_Basic_UI_Elements_-_2.2_-_line-43_4956920" transform="translate(791.000000, 705.000000)">
                <path d="M10.4200426,30 C9.97867804,30 9.53091684,29.9616205 9.08315565,29.8848614 C7.57995736,29.6289979 6.21108742,28.9509595 5.11727079,27.9211087 L2.24520256,25.2089552 C-0.0639658849,23.021322 -0.639658849,19.7014925 0.818763326,16.9509595 L1.07462687,16.4648188 C1.63113006,15.4093817 1.82942431,14.2260128 1.63752665,13.0554371 L1.53518124,12.4477612 C1.35607676,11.5138593 1.66950959,10.5671642 2.36673774,9.90831557 C3.14712154,9.17270789 4.24093817,8.91684435 5.28997868,9.2238806 C6.31982942,9.52452026 7.08102345,10.3049041 7.33049041,11.3091684 C7.33688699,11.3347548 7.34328358,11.3603412 7.34328358,11.3795309 L7.57356077,12.7036247 L15.8635394,4.80383795 C17.0021322,3.71641791 18.8123667,3.76119403 19.8997868,4.89339019 C20.4307036,5.4434968 20.7121535,6.17270789 20.6993603,6.94029851 C20.6865672,7.70788913 20.3667377,8.41791045 19.8166311,8.94882729 L15.4541578,13.1130064 C15.7036247,13.2537313 15.9339019,13.4392324 16.1385928,13.6503198 C16.803838,14.3667377 17.0021322,15.3326226 16.7462687,16.2089552 C17.3795309,16.4584222 17.9040512,16.9317697 18.2302772,17.5522388 C18.6332623,18.326226 18.6588486,19.2025586 18.3518124,19.9829424 C18.6460554,20.1108742 18.9275053,20.2899787 19.1705757,20.5202559 C19.1705757,20.5202559 19.1769723,20.5266525 19.1769723,20.5266525 C19.7590618,21.0767591 20.0788913,21.8059701 20.0788913,22.5863539 C20.0788913,23.3603412 19.7654584,24.0831557 19.1897655,24.6268657 L17.3923241,26.3219616 L15.9850746,24.8315565 L17.782516,23.1364606 C17.9424307,22.989339 18.0255864,22.7910448 18.0255864,22.5863539 C18.0255864,22.3752665 17.9360341,22.1769723 17.7697228,22.0170576 C17.7697228,22.0170576 17.7633262,22.010661 17.7633262,22.010661 C17.45629,21.7164179 16.9381663,21.7100213 16.6375267,21.9978678 C16.228145,22.3880597 15.575693,22.3688699 15.1918977,21.9594883 C14.8017058,21.5501066 14.8208955,20.8976546 15.2302772,20.5138593 L15.2302772,20.5138593 C15.2302772,20.5138593 15.2302772,20.5138593 15.2302772,20.5138593 L16.1705757,19.6247335 C16.5031983,19.3113006 16.5991471,18.8571429 16.4136461,18.4989339 C16.2473348,18.1791045 15.9658849,18.0895522 15.8187633,18.0639659 C15.5565032,18.0191898 15.2942431,18.0959488 15.1215352,18.2622601 L15.1215352,18.2622601 C14.7121535,18.652452 14.0597015,18.6332623 13.6759062,18.2238806 C13.2921109,17.8144989 13.3049041,17.1620469 13.7142857,16.7782516 C13.7142857,16.7782516 13.7142857,16.7782516 13.7206823,16.7782516 L14.5778252,15.9658849 C14.8528785,15.7036247 14.8848614,15.3134328 14.6481876,15.0575693 C14.5010661,14.8976546 14.2899787,14.8081023 14.0660981,14.8017058 C13.8422175,14.7953092 13.6311301,14.8720682 13.4840085,15.0127932 C13.0746269,15.4029851 12.4285714,15.3837953 12.0383795,14.9744136 C11.6481876,14.565032 11.6673774,13.9189765 12.0767591,13.5287846 L18.4157783,7.48400853 C18.575693,7.33049041 18.6652452,7.13219616 18.6652452,6.91471215 C18.6716418,6.69722814 18.5884861,6.49253731 18.4413646,6.3326226 C18.1343284,6.01279318 17.6162047,6 17.2963753,6.30703625 L8.25159915,14.891258 L7.59914712,15.5053305 C7.32409382,15.761194 6.93390192,15.8507463 6.57569296,15.7292111 C6.21748401,15.6076759 5.95522388,15.3070362 5.891258,14.9296375 L5.34115139,11.7633262 C5.22601279,11.3667377 4.86780384,11.2196162 4.7206823,11.1748401 C4.37526652,11.0724947 4.02345416,11.1492537 3.7803838,11.3795309 C3.58848614,11.5586354 3.50533049,11.8081023 3.5565032,12.0511727 C3.5565032,12.0639659 3.56289979,12.0767591 3.56289979,12.0831557 L3.6652452,12.7100213 C3.92750533,14.3283582 3.65884861,15.9530917 2.891258,17.4051173 L2.63539446,17.891258 C1.6119403,19.8230277 2.02771855,22.1577825 3.6652452,23.7057569 L6.53731343,26.4179104 C8.13006397,27.9211087 10.5735608,28.3560768 12.6204691,27.5053305 L13.4072495,29.3923241 C12.4541578,29.8017058 11.4434968,30 10.4200426,30 Z" id="Path"></path>
                <path d="M15.0255864,28.4712154 L13.7910448,26.8400853 C13.9445629,26.7249467 14.0916844,26.5970149 14.2324094,26.4690832 L14.9744136,25.771855 L16.3816631,27.2622601 L15.6396588,27.9594883 C15.4413646,28.1385928 15.2366738,28.3113006 15.0255864,28.4712154 Z" id="Path"></path>
                <g id="XMLID_118_" transform="translate(1.855011, 0.000000)">
                    <polygon id="Rectangle" transform="translate(6.473876, 2.555477) rotate(-89.604836) translate(-6.473876, -2.555477) " points="3.98874195 1.5319988 8.95900942 1.5319988 8.95900942 3.5789558 3.98874195 3.5789558"></polygon>
                    <polygon id="Rectangle" transform="translate(10.542890, 4.369330) rotate(-44.967588) translate(-10.542890, -4.369330) " points="8.27851879 3.34588534 12.8072607 3.34588534 12.8072607 5.39277436 8.27851879 5.39277436"></polygon>
                    <polygon id="Rectangle" transform="translate(2.363906, 4.469676) rotate(-45.162058) translate(-2.363906, -4.469676) " points="1.34045785 2.24047739 3.38735473 2.24047739 3.38735473 6.69887464 1.34045785 6.69887464"></polygon>
                </g>
            </g>
        </g>
    </g>
</svg>