<?xml version="1.0" encoding="UTF-8"?>
<svg width="32px" height="32px" viewBox="0 0 32 32" version="1.1" xmlns="http://www.w3.org/2000/svg" xmlns:xlink="http://www.w3.org/1999/xlink">
    <!-- Generator: Sketch 57.1 (83088) - https://sketch.com -->
    <title>iconfinder_iconset-doodle-eco_solar-energy-28_3815365</title>
    <desc>Created with Sketch.</desc>
    <g id="Page-1" stroke="none" stroke-width="1" fill="none" fill-rule="evenodd">
        <g id="Update" transform="translate(-785.000000, -535.000000)" fill="#000000" fill-rule="nonzero">
            <g id="iconfinder_iconset-doodle-eco_solar-energy-28_3815365" transform="translate(785.000000, 535.000000)">
                <path d="M24.3,23.2 C30.7,15.8 25.2,3.9 15.2,4.9 C9.7,5.4 5.1,10.1 4.9,15.6 C5,19.9 6.8,24.3 10.8,26.2 C15.4,28.3 21,27 24.3,23.2 Z M5.9,15.6 C6.1,9.3 12.3,4.9 18.4,6 C23.5,6.9 26.3,11.7 26.1,16.6 C25.8,22.5 20,26.8 14.4,26.1 C8.9,25.5 6,20.8 5.9,15.6 Z" id="Shape"></path>
                <path d="M21.8,14.5 C21.8,14.4 21.8,14.4 21.8,14.5 C21.9,14.4 21.9,14.4 21.9,14.4 C22.1,14.2 22,14 21.8,13.8 C21.7,13.7 21.6,13.6 21.4,13.6 C19.9,13.6 18.5,13.5 17,13.5 C17.5,11.7 18.1,9.9 18.6,8 C18.7,7.8 18.6,7.7 18.5,7.5 C18.3,7.3 17.9,7.2 17.7,7.5 C17.7,7.5 17.7,7.5 17.7,7.5 C15.2,10.8 12.7,14.2 10.1,17.5 C9.9,17.7 10,17.9 10.1,18.1 C10.2,18.2 10.3,18.3 10.5,18.3 C12,18.3 13.5,18.3 15,18.3 C14.4,20.2 13.8,22.1 13.2,23.9 C13.1,24 13.1,24.2 13.2,24.3 C13.4,24.6 13.8,24.7 14.1,24.4 C14.1,24.4 14.1,24.4 14.1,24.4 C15.1,23.1 16.1,21.8 17.1,20.5 C18.7,18.5 20.2,16.5 21.8,14.5 Z M16.3,18 C16.4,17.8 16.3,17.7 16.2,17.5 C16.2,17.5 16.2,17.5 16.2,17.5 C16.2,17.5 16.2,17.5 16.2,17.5 C16.1,17.4 16,17.4 15.9,17.4 C14.5,17.4 13.1,17.4 11.7,17.4 C13.5,15.1 15.2,12.7 17,10.4 C16.7,11.6 16.3,12.7 16,13.9 C15.9,14.1 16,14.3 16.1,14.4 C16.1,14.4 16.1,14.4 16.1,14.4 C16.1,14.4 16.1,14.4 16.2,14.5 C16.3,14.6 16.4,14.6 16.5,14.6 C17.9,14.6 19.2,14.7 20.6,14.7 C19.2,16.5 17.8,18.3 16.4,20.2 C16,20.7 15.6,21.2 15.2,21.7 C15.5,20.4 15.9,19.2 16.3,18 Z" id="Shape"></path>
                <path d="M17.5,3.5 C17.5,2.6 17.5,1.6 17.5,0.7 C17.5,0.1 16.5,0.1 16.5,0.7 C16.5,1.6 16.5,2.6 16.5,3.5 C16.5,4.1 17.5,4.1 17.5,3.5 Z" id="Path"></path>
                <path d="M23.3,5.7 C23.8,5 24.4,4.3 24.9,3.5 C25.2,3 24.4,2.5 24,3 C23.5,3.7 22.9,4.4 22.4,5.2 C22,5.7 22.9,6.2 23.3,5.7 Z" id="Path"></path>
                <path d="M27.4,10.3 C28.4,9.7 29.4,9.2 30.4,8.7 C31,8.4 30.5,7.6 29.9,7.8 C28.9,8.3 27.9,8.8 26.9,9.4 C26.3,9.7 26.8,10.6 27.4,10.3 Z" id="Path"></path>
                <path d="M31.2,15.4 C30.3,15.3 29.4,15.4 28.6,15.5 C28,15.6 28.2,16.6 28.9,16.5 C29.7,16.4 30.5,16.4 31.3,16.4 C31.8,16.5 31.8,15.5 31.2,15.4 Z" id="Path"></path>
                <path d="M29.8,23.4 C28.8,23 27.9,22.6 27,22 C26.5,21.6 26,22.5 26.5,22.9 C27.4,23.5 28.5,24 29.5,24.4 C30.1,24.6 30.4,23.7 29.8,23.4 Z" id="Path"></path>
                <path d="M23,26.3 C22.6,25.8 21.9,26.5 22.3,27 C23,27.9 23.6,28.8 24.2,29.8 C24.5,30.4 25.4,29.8 25.1,29.3 C24.4,28.3 23.7,27.3 23,26.3 Z" id="Path"></path>
                <path d="M15.2,28.4 C15.3,29.4 15.3,30.3 15.3,31.3 C15.3,31.9 16.3,31.9 16.3,31.3 C16.3,30.3 16.3,29.3 16.2,28.4 C16.1,27.8 15.1,27.8 15.2,28.4 Z" id="Path"></path>
                <path d="M7.9,26.3 C7.2,27.3 6.4,28.4 5.7,29.4 C5.3,29.9 6.2,30.4 6.6,29.9 C7.3,28.9 8.1,27.8 8.8,26.8 C9.1,26.3 8.3,25.8 7.9,26.3 Z" id="Path"></path>
                <path d="M4.5,21.3 C3.5,21.9 2.4,22.5 1.4,23.1 C0.8,23.4 1.3,24.3 1.9,24 C3,23.3 4,22.7 5,22.1 C5.6,21.8 5.1,21 4.5,21.3 Z" id="Path"></path>
                <path d="M4,16.4 C4.6,16.5 4.9,15.6 4.3,15.4 C3.3,15.2 2.3,15.1 1.2,15.1 C0.6,15.1 0.6,16.1 1.2,16.1 C2.2,16.1 3.1,16.2 4,16.4 Z" id="Path"></path>
                <path d="M5.5,9.2 C6.1,9.5 6.6,8.7 6,8.4 C4.9,7.9 3.9,7.2 2.9,6.5 C2.4,6.1 1.7,6.8 2.2,7.2 C3.3,8 4.3,8.7 5.5,9.2 Z" id="Path"></path>
                <path d="M9.9,5.6 C10.3,6.1 11,5.4 10.6,4.9 C9.8,3.9 9.1,3 8.3,2 C7.9,1.4 7.2,2.1 7.6,2.6 C8.4,3.6 9.1,4.6 9.9,5.6 Z" id="Path"></path>
            </g>
        </g>
    </g>
</svg>