<?xml version="1.0" encoding="iso-8859-1"?>
<!-- Generator: Adobe Illustrator 19.0.0, SVG Export Plug-In . SVG Version: 6.00 Build 0)  -->
<svg version="1.1" id="Capa_1" xmlns="http://www.w3.org/2000/svg" xmlns:xlink="http://www.w3.org/1999/xlink" x="0px" y="0px"
	 viewBox="0 0 389.519 389.519" style="enable-background:new 0 0 389.519 389.519;" xml:space="preserve">
<g>
	<g>
		<path d="M354.166,225.591c-0.016-0.004-0.031-0.008-0.047-0.011v0c-3.831-0.93-7.694,1.412-8.64,5.24
			c-19.939,83.25-103.59,134.573-186.839,114.634c-49.292-11.806-89.698-46.966-108.201-94.154l25.64-5.4
			c3.884-0.741,6.432-4.491,5.691-8.375c-0.243-1.273-0.827-2.457-1.691-3.424l-23-25.68l-22.8-25.2
			c-2.421-3.127-6.918-3.698-10.045-1.277c-1.145,0.886-1.994,2.099-2.435,3.477l-10.72,32.76l-10.72,32.64
			c-1.234,3.757,0.812,7.803,4.568,9.037c1.198,0.393,2.478,0.464,3.712,0.203l27.6-5.8c32.869,87.546,130.485,131.87,218.031,99
			c52.623-19.758,92.011-64.342,105.129-119C360.348,230.421,358.005,226.54,354.166,225.591z"/>
	</g>
</g>
<g>
	<g>
		<g>
			<path d="M250.799,89.459h-76.44c-0.579,0.003-1.093,0.372-1.28,0.92l-35.64,109.04c-0.265,0.703,0.089,1.487,0.792,1.753
				c0.143,0.054,0.295,0.084,0.448,0.087h32.48l-25,97.2c-0.235,0.713,0.152,1.482,0.866,1.717c0.501,0.165,1.052,0.026,1.414-0.357
				l99.04-115.04c0.486-0.572,0.416-1.431-0.156-1.917c-0.236-0.201-0.534-0.315-0.844-0.323h-42.2l47.68-91.12
				c0.114-0.181,0.183-0.387,0.2-0.6C252.159,90.068,251.551,89.459,250.799,89.459z"/>
			<polygon points="252.159,90.819 252.159,90.819 252.159,90.819 			"/>
		</g>
	</g>
</g>
<g>
	<g>
		<path d="M384.591,129.783c-1.198-0.393-2.478-0.464-3.712-0.203v-0.12l-27.6,5.8c-32.87-87.546-130.485-131.87-218.031-99
			c-52.623,19.758-92.011,64.342-105.129,119c-0.776,3.877,1.738,7.65,5.615,8.426c3.679,0.737,7.302-1.491,8.305-5.106
			c19.939-83.25,103.59-134.573,186.84-114.634c49.292,11.806,89.698,46.966,108.2,94.154l-25.64,5.4
			c-3.884,0.741-6.432,4.491-5.691,8.375c0.243,1.273,0.827,2.457,1.691,3.424l23,25.68l22.68,25.32
			c2.421,3.127,6.918,3.698,10.045,1.277c1.145-0.886,1.994-2.099,2.435-3.477l10.72-32.76l10.84-32.52
			C390.393,135.062,388.348,131.017,384.591,129.783z"/>
	</g>
</g>
<g>
</g>
<g>
</g>
<g>
</g>
<g>
</g>
<g>
</g>
<g>
</g>
<g>
</g>
<g>
</g>
<g>
</g>
<g>
</g>
<g>
</g>
<g>
</g>
<g>
</g>
<g>
</g>
<g>
</g>
</svg>
