<?xml version="1.0" encoding="UTF-8"?>
<svg width="10px" height="19px" viewBox="0 0 10 19" version="1.1" xmlns="http://www.w3.org/2000/svg" xmlns:xlink="http://www.w3.org/1999/xlink">
    <!-- Generator: Sketch 55.1 (78136) - https://sketchapp.com -->
    <title></title>
    <desc>Created with Sketch.</desc>
    <g id="Page-1" stroke="none" stroke-width="1" fill="none" fill-rule="evenodd">
        <g id="Home-Copy-2" transform="translate(-752.000000, -650.000000)" fill="#FFFFFF" fill-rule="nonzero">
            <g id="Group-9" transform="translate(193.000000, 203.000000)">
                <g id="Group" transform="translate(559.000000, 445.000000)">
                    <path d="M2.7070248,20.2499946 L2.7070248,12.1992326 L0,12.1992326 L0,9.00002146 L2.7070248,9.00002146 L2.7070248,6.46877749 C2.7070248,5.13284318 3.08202408,4.09573628 3.83202211,3.35745679 C4.58202015,2.6191773 5.57811188,2.25003755 6.82029624,2.25003755 C7.82810652,2.25003755 8.64841688,2.29691226 9.28122787,2.39066222 L9.28122787,5.23831168 L7.5937319,5.23831168 C6.9609209,5.23831168 6.52732837,5.37893634 6.29295375,5.66018567 C6.10545437,5.89456029 6.01170442,6.26955904 6.01170442,6.78518299 L6.01170442,9.00002146 L8.99997854,9.00002146 L8.57810455,12.1992326 L6.01170442,12.1992326 L6.01170442,20.2499946 L2.7070248,20.2499946 Z" id=""></path>
                </g>
            </g>
        </g>
    </g>
</svg>