<?xml version="1.0" encoding="UTF-8"?>
<svg width="62px" height="62px" viewBox="0 0 62 62" version="1.1" xmlns="http://www.w3.org/2000/svg" xmlns:xlink="http://www.w3.org/1999/xlink">
    <!-- Generator: Sketch 55.2 (78181) - https://sketchapp.com -->
    <title>fix</title>
    <desc>Created with Sketch.</desc>
    <g id="Page-1" stroke="none" stroke-width="1" fill="none" fill-rule="evenodd">
        <g id="Home-Copy-6" transform="translate(-1032.000000, -798.000000)" fill="#717171" fill-rule="nonzero" stroke="#FFFFFF">
            <g id="fix" transform="translate(1033.000000, 799.000000)">
                <path d="M57.4267969,45.0434766 C52.0567969,39.6734766 52.4089453,40.0136719 52.2577734,39.9021094 L38.0432812,29.4072656 L43.5575391,23.8934766 C47.9909766,25.4732812 53.0104688,24.3810937 56.3886328,21.0029297 C60.0690234,17.3225391 61.0351172,11.6957812 58.7926172,7.00160156 C58.2699609,5.90789062 56.8204687,5.66015625 55.9644141,6.51644531 L51.4185938,11.0622656 C50.7335156,11.7473437 49.6189453,11.7474609 48.9333984,11.0622656 C48.2465625,10.3754297 48.2465625,9.26402344 48.9333984,8.5771875 L53.4793359,4.03125 C54.3364453,3.17425781 54.0871875,1.72511719 52.9941797,1.20316406 C48.3,-1.03933594 42.6733594,-0.0732421875 38.9928516,3.60703125 C35.6138672,6.98601562 34.5229687,12.0057422 36.1023047,16.4380078 L29.7427734,22.7969531 C28.4479687,21.7898437 30.1565625,23.5100391 17.9614453,10.5788672 L19.2398437,9.30046875 C20.0484375,8.49199219 19.8799219,7.13824219 18.9014062,6.55113281 L9.48960938,0.903984375 C7.02246094,-0.576328125 3.87867187,-0.189375 1.84417969,1.84511719 C-0.190195313,3.87949219 -0.577265625,7.02351562 0.903046875,9.49054687 L6.55019531,18.9024609 C7.13824219,19.8828516 8.49257813,20.0478516 9.29953125,19.2408984 L10.5051563,18.0352734 C22.6371094,30.8995312 21.0403125,29.1521484 21.999375,30.3853125 C22.0221094,30.4144922 22.0474219,30.4402734 22.0715625,30.4676953 L16.4323828,36.1064062 C12.0003516,34.5270703 6.98027344,35.6179687 3.60152344,38.9969531 C-0.0788671875,42.6773437 -1.04496094,48.3039844 1.19765625,52.9982812 C1.72042969,54.0921094 3.16957031,54.3396094 4.02585938,53.4834375 L8.57167969,48.9375 C9.25710938,48.2523047 10.3716797,48.2525391 11.056875,48.9375 C11.7437109,49.6243359 11.7437109,50.7357422 11.056875,51.4225781 L6.51082031,55.9685156 C5.65371094,56.8255078 5.90308594,58.2746484 6.99597656,58.7967187 C8.68324219,59.6027344 10.4905078,59.9942578 12.2851172,59.9942578 C15.4831641,59.9942578 18.6397266,58.7503125 20.9973047,56.3928516 C24.3762891,53.0138672 25.4671875,47.9941406 23.8878516,43.5617578 L28.7037891,38.7461719 L39.9167578,52.3727344 C40.0020703,52.4760937 39.7205859,52.1880469 44.735625,57.2030859 C46.5612891,59.02875 48.9884766,59.9751562 51.3752344,59.9751562 C53.1264844,59.9751562 54.8560547,59.4651562 56.3088281,58.4190234 C60.7421484,55.2260156 61.2648047,48.8811328 57.4267969,45.0434766 Z M11.8205859,14.3076562 C11.139375,13.5854297 9.99738281,13.5727734 9.29953125,14.2707422 L8.40574219,15.1644141 L3.91664063,7.68234375 C3.26765625,6.60070312 3.43722656,5.22222656 4.32925781,4.33019531 C5.22128906,3.43804687 6.59976563,3.26859375 7.68128906,3.91757812 L15.1633594,8.40679687 L14.2695703,9.30035156 C13.5975,9.97242187 13.5815625,11.0571094 14.2337109,11.7485156 C28.2460547,26.6066016 26.041875,24.3707812 27.238125,25.30125 L24.5712891,27.9678516 C23.6496094,26.7826172 25.7896875,29.1199219 11.8205859,14.3076562 Z M20.5729688,41.90625 C20.0463281,42.4328906 19.9088672,43.2342187 20.2299609,43.9062891 C21.8317969,47.2592578 21.1413281,51.2784375 18.5122266,53.9075391 C16.8277734,55.5919922 14.5730859,56.4805079 12.2881641,56.4805079 C11.8771875,56.4805079 11.4653906,56.4517969 11.0555859,56.3936719 L13.5418359,53.9074219 C15.6021094,51.8472656 15.6024609,48.5124609 13.5418359,46.4520703 C11.4864844,44.3966016 8.14183594,44.3967187 6.08648438,46.4520703 L3.60023438,48.9383203 C3.21960938,46.250625 4.09921875,43.4691797 6.08648438,41.4819141 C8.71570313,38.8525781 12.7347656,38.1624609 16.0877344,39.7640625 C16.7596875,40.0850391 17.5608984,39.9478125 18.0877734,39.4210547 L39.4170703,18.0932812 C39.9437109,17.5666406 40.0811719,16.7653125 39.7601953,16.0932422 C38.1583594,12.7403906 38.8488281,8.72109375 41.4779297,6.09199219 C43.4655469,4.10449219 46.2467578,3.225 48.9343359,3.60574219 L46.4480859,6.09199219 C45.4523438,7.08761719 44.9039063,8.41160156 44.9039063,9.81972656 C44.9039063,11.2278516 45.4523438,12.5516016 46.4480859,13.5474609 C48.5034375,15.6029297 51.8480859,15.6028125 53.9034375,13.5474609 L56.3896875,11.0612109 C56.7703125,13.7489062 55.8907031,16.5303516 53.9034375,18.5176172 C51.2742188,21.1468359 47.2550391,21.8371875 43.9020703,20.2354687 C43.2303516,19.9144922 42.4289063,20.0518359 41.9021484,20.5784766 L20.5729688,41.90625 Z M31.1932031,36.256875 L35.5301953,31.9202344 L39.9503906,35.1836719 L34.6693359,40.4647266 C31.0787109,36.1013672 31.3027734,36.3643359 31.1932031,36.256875 Z M54.2547656,55.5672656 C52.2051562,57.0433594 49.1810156,56.6785547 47.2204688,54.7180078 L42.5762109,50.0738672 L36.9127734,43.1913281 L42.8094141,37.2946875 L50.0644922,42.6512109 L54.9416016,47.5284375 C57.1708594,49.7576953 57.0276562,53.5701562 54.2547656,55.5672656 Z" id="Shape"></path>
                <path d="M52.4262891,49.7109375 L45.3972656,42.6819141 C44.7111328,41.9956641 43.5984375,41.9956641 42.9121875,42.6819141 C42.2259375,43.3681641 42.2259375,44.4807422 42.9121875,45.1669922 L49.9412109,52.1960156 C50.6273437,52.8821484 51.7400391,52.8822656 52.4262891,52.1960156 C53.1125391,51.5097656 53.1125391,50.3971875 52.4262891,49.7109375 Z" id="Path"></path>
            </g>
        </g>
    </g>
</svg>