<?xml version="1.0" encoding="UTF-8"?>
<svg width="20px" height="14px" viewBox="0 0 20 14" version="1.1" xmlns="http://www.w3.org/2000/svg" xmlns:xlink="http://www.w3.org/1999/xlink">
    <!-- Generator: Sketch 58 (84663) - https://sketch.com -->
    <title>left icon</title>
    <desc>Created with Sketch.</desc>
    <g id="DM" stroke="none" stroke-width="1" fill="none" fill-rule="evenodd">
        <g id="Update" transform="translate(-1351.000000, -57.000000)" fill="#657576" stroke="#FFFFFF" stroke-width="0.5">
            <g id="left-icon" transform="translate(1351.000000, 57.000000)">
                <path d="M18.7369356,11.9383117 L8.8492713,11.9383117 C8.45438892,11.9383117 8.1317734,12.2627259 8.1313689,12.648122 L8.13665209,12.7481177 C8.17841896,13.112042 8.48332212,13.3863636 8.8492713,13.3863636 L18.7369356,13.3863636 C19.131818,13.3863636 19.4544335,13.0619494 19.454838,12.6765533 L19.4495548,12.5765576 C19.4077879,12.2126333 19.1028848,11.9383117 18.7369356,11.9383117 Z M18.8258101,6.09415584 L1.07566846,6.09415584 C0.669222502,6.09415584 0.348522543,6.41555923 0.34810996,6.80382489 L0.353433791,6.90368138 C0.395577693,7.26726513 0.704218535,7.54220779 1.07566846,7.54220779 L18.8258101,7.54220779 C19.2322561,7.54220779 19.552956,7.22080441 19.5533686,6.83253875 L19.5480448,6.73268226 C19.5059009,6.36909851 19.19726,6.09415584 18.8258101,6.09415584 Z M10.8551622,0.25 L0.967497896,0.25 C0.572615522,0.25 0.25,0.574414227 0.249595504,0.959810336 L0.254878692,1.05980604 C0.296645559,1.42373031 0.601548724,1.69805195 0.967497896,1.69805195 L10.8551622,1.69805195 C11.2500446,1.69805195 11.5726601,1.37363772 11.5730646,0.988241612 L11.5677814,0.888245906 C11.5260145,0.524321642 11.2211114,0.25 10.8551622,0.25 Z" id="Combined-Shape"></path>
            </g>
        </g>
    </g>
</svg>