<?xml version="1.0" encoding="UTF-8"?>
<svg width="35px" height="32px" viewBox="0 0 35 32" version="1.1" xmlns="http://www.w3.org/2000/svg" xmlns:xlink="http://www.w3.org/1999/xlink">
    <!-- Generator: Sketch 57.1 (83088) - https://sketch.com -->
    <title>iconfinder_passive-income-money-financial-20_3624720</title>
    <desc>Created with Sketch.</desc>
    <g id="Page-1" stroke="none" stroke-width="1" fill="none" fill-rule="evenodd" stroke-linecap="round" stroke-linejoin="round">
        <g id="Update" transform="translate(-784.000000, -619.000000)" stroke="#101111">
            <g id="iconfinder_passive-income-money-financial-20_3624720" transform="translate(784.000000, 620.000000)">
                <g id="Group" transform="translate(0.000000, 15.490654)">
                    <g transform="translate(3.995327, 0.000000)">
                        <circle id="Oval" cx="4.22264019" cy="2.00796729" r="1.9446729"></circle>
                        <path d="M2.27803738,2.00796729 L0.249182243,5.5607243 C-0.0554439252,6.09413551 0.00329439252,6.76065421 0.396588785,7.23252336 L0.396588785,7.23252336 C0.736121495,7.63997664 1.2686215,7.83315421 1.7903972,7.73824766 L5.12628505,7.01074766 L9.94044393,8.76623832 C10.8672897,9.26123832 11.939229,9.35158879 12.9791355,9.16079439 L17.6130841,7.73158879 L23.7304206,9.54021028 C24.1878505,9.67542056 24.6740888,9.44698598 24.8620093,9.0085514 L24.8620093,9.0085514 C25.0750935,8.5114486 24.8261215,7.93745327 24.3175935,7.75324766 L17.6130841,5.32485981 L12.6546028,6.20313084" id="Path"></path>
                        <path d="M5.59871495,0.633925234 L8.77044393,0.633925234 C9.45420561,0.633925234 9.85485981,1.40369159 9.46254673,1.96373832 L8.22371495,3.48574766 L11.5362617,4.5546729 L15.0895093,2.65829439 C15.7778271,2.28911215 16.6338785,2.50142523 17.0698598,3.14950935 L18.8295561,5.7653972" id="Path"></path>
                        <path d="M4.54696262,3.95264019 L2.27803738,5.32478972" id="Path"></path>
                    </g>
                    <polyline id="Path" points="7.47420561 7.40228972 13.4567523 10.583972 29.4292991 11.259743 32.193785 5.84523364 26.7781542 5.71205607"></polyline>
                    <polyline id="Path" points="4.80658879 1.03801402 0.0643457944 3.19969626 3.0921729 4.86911215"></polyline>
                </g>
                <path d="M27.2405607,7.45906542 C25.3497897,6.67675234 25.0307243,6.2539486 25.0307243,5.60228972 C25.0307243,4.99703271 25.4661449,4.35021028 26.6881542,4.35021028 C27.9054673,4.35021028 28.6711682,4.78773364 28.9980841,4.9746028 C29.1227103,5.04588785 29.2724299,5.05892523 29.4073598,5.01042056 C29.5425,4.96184579 29.6496729,4.85663551 29.7004907,4.72240654 L30.2071262,3.38488318 C30.2919393,3.16100467 30.1978037,2.90873832 29.9914486,2.78768692 C29.284486,2.3732243 28.4441355,2.12754673 27.5944626,2.04154206 L27.5944626,0.535934579 C27.5944626,0.264883178 27.3848131,0.0632943925 27.1137617,0.0632943925 L25.8572664,0.0632943925 C25.586215,0.0632943925 25.4095093,0.264883178 25.4095093,0.535934579 L25.4095093,2.18200935 C23.4672897,2.64049065 22.3279206,4.04200935 22.3279206,5.84551402 C22.3279206,8.06845794 24.0740187,9.06385514 25.9673832,9.80628505 C27.7107477,10.5130374 27.9456308,11.1644159 27.9456308,11.7630841 C27.9456308,12.6574766 27.171028,13.2583178 26.0221262,13.2583178 C25.0925467,13.2583178 24.126729,12.9707243 23.3746963,12.4693458 C23.2490187,12.385514 23.091028,12.3644159 22.9476869,12.411729 C22.8043458,12.4591822 22.6903738,12.57 22.6394159,12.7121495 L22.1528271,14.0699299 C22.0788084,14.2765654 22.121986,14.507243 22.3005841,14.634743 C23.0030607,15.1365421 24.0741589,15.4940888 25.1666355,15.5918692 L25.1666355,17.1738785 C25.1666355,17.4449299 25.4442757,17.6645327 25.7153271,17.6645327 L26.9920794,17.6645327 C27.2631308,17.6645327 27.4729907,17.4449299 27.4729907,17.1738785 L27.4729907,15.4659813 C29.4152103,14.9875234 30.6798364,13.4856308 30.6798364,11.6210748 C30.6798364,10.3373131 30.2930607,8.70385514 27.2405607,7.45906542 Z" id="Path"></path>
                <polyline id="Path" points="20.4398832 29.9814953 13.4567523 26.0746262 6.41271028 29.9814953"></polyline>
                <path d="M29.4292991,26.7503972 L31.5944159,29.9814953" id="Path"></path>
                <path d="M32.193785,21.4150935 L34.1465187,24.8681776" id="Path"></path>
            </g>
        </g>
    </g>
</svg>