<?xml version="1.0" encoding="UTF-8"?>
<svg width="63px" height="15px" viewBox="0 0 63 15" version="1.1" xmlns="http://www.w3.org/2000/svg" xmlns:xlink="http://www.w3.org/1999/xlink">
    <!-- Generator: Sketch 62 (91390) - https://sketch.com -->
    <title>Asset 23</title>
    <desc>Created with Sketch.</desc>
    <g id="Page-1" stroke="none" stroke-width="1" fill="none" fill-rule="evenodd">
        <g id="SHUTTERSTOCK_1595102038" transform="translate(-1418.000000, -1322.000000)" fill="#000000" fill-rule="nonzero">
            <g id="Asset-23" transform="translate(1418.000000, 1322.000000)">
                <path d="M0.16,1.85 L0.16,0 L1.91,0 L1.91,1.85 L0.16,1.85 Z M0.16,11.27 L0.16,3.27 L1.91,3.27 L1.91,11.27 L0.16,11.27 Z" id="Shape"></path>
                <path d="M5.79,11.27 L4,11.27 L4,3.27 L5.74,3.27 L5.74,3.77 C6.40958416,3.31316959 7.19078605,3.04700789 8,3 C8.85815198,2.92331808 9.69350973,3.30302615 10.2,4 C10.6580027,4.93018334 10.8582865,5.96613409 10.78,7 L10.78,11.32 L9,11.32 L9,7 C9.04228724,6.37031002 8.94673358,5.73897331 8.72,5.15 C8.47896218,4.75560114 8.02832193,4.54007754 7.57,4.6 C7.03044052,4.59968638 6.49639471,4.70853648 6,4.92 L5.75,5.02 L5.79,11.27 Z" id="Path"></path>
                <path d="M15.84,3 C16.5123895,3.01399492 17.1819862,3.09099854 17.84,3.23 L18.24,3.31 L18.18,4.69 C17.33,4.61 16.7,4.56 16.29,4.56 C15.6882216,4.48522635 15.0850167,4.68752067 14.65,5.11 C14.3075686,5.7393694 14.161295,6.45680667 14.23,7.17 C14.1668668,7.89138954 14.3090012,8.61592822 14.64,9.26 C14.9,9.65 15.46,9.84 16.31,9.84 L18.19,9.71 L18.19,11.11 C17.3830627,11.2761412 16.5634259,11.3731594 15.74,11.4 C14.7684473,11.5068563 13.805749,11.1337175 13.16,10.4 C12.5779137,9.42476984 12.3156548,8.29181154 12.41,7.16 C12.3407787,6.04212008 12.6393058,4.93230138 13.26,4 C13.9214524,3.28911265 14.8722321,2.92059337 15.84,3 Z" id="Path"></path>
                <path d="M20.3,4.09 C20.9973998,3.31285467 22.0197806,2.90908832 23.06,3 C24.0940103,2.89588409 25.1166566,3.2849343 25.82,4.05 C26.4383707,4.97514471 26.7304539,6.08013413 26.65,7.19 C26.725323,8.29837759 26.4450683,9.4018805 25.85,10.34 C25.1429801,11.1191058 24.1059896,11.5130879 23.06,11.4 C22.0167277,11.5147829 20.9820018,11.1202472 20.28,10.34 C19.6768206,9.40506475 19.3926432,8.29993028 19.47,7.19 C19.3985263,6.09353776 19.6902243,5.00406321 20.3,4.09 L20.3,4.09 Z M21.61,9.32 C21.9875879,9.71746163 22.5117771,9.94250227 23.06,9.94250227 C23.6082229,9.94250227 24.1324121,9.71746163 24.51,9.32 C24.8048803,8.65776725 24.9319628,7.93305357 24.88,7.21 C24.9352042,6.49443278 24.8006788,5.77696417 24.49,5.13 C24.1507941,4.69318711 23.6100568,4.46252297 23.06,4.52 C22.5127348,4.46216587 21.9748027,4.69324939 21.64,5.13 C21.3249726,5.77572713 21.1869419,6.4934872 21.24,7.21 C21.1932585,7.93277808 21.3201232,8.65624979 21.61,9.32 L21.61,9.32 Z" id="Shape"></path>
                <path d="M35.42,12.36 C35.42,14.12 34.15,15 31.61,15 C30.6762068,15.0562941 29.7427283,14.8846988 28.89,14.5 C28.2695182,14.1136127 27.9239713,13.4069886 28,12.68 C27.9960432,12.3253766 28.0969315,11.9774861 28.29,11.68 C28.5573323,11.3296114 28.873944,11.0197361 29.23,10.76 C28.8562903,10.4887196 28.6545445,10.0395495 28.7,9.58 C28.761651,9.20186308 28.9087116,8.84276161 29.13,8.53 L29.28,8.29 C28.469255,7.77017626 28.0205394,6.83793097 28.12,5.88 C28.0475123,5.06306154 28.3755239,4.26166955 29,3.73 C29.6851957,3.24769575 30.5134818,3.01154609 31.35,3.06 C31.8212906,3.05889249 32.2911118,3.11258634 32.75,3.22 L32.99,3.22 L35.48,3.15 L35.48,4.62 L34.15,4.54 C34.4410048,4.91738517 34.5928845,5.3836206 34.58,5.86 C34.6739082,6.67238841 34.3770994,7.48119239 33.78,8.04 C33.0373843,8.49674849 32.1692746,8.70677504 31.3,8.64 C31.06192,8.64386174 30.8240555,8.62376052 30.59,8.58 C30.4631659,8.84378694 30.3852375,9.12839492 30.36,9.42 C30.3530785,9.60962118 30.477174,9.77921843 30.66,9.83 C31.1319256,9.93817141 31.6163316,9.98190251 32.1,9.96 C33.0048511,9.8835987 33.9129122,10.0638246 34.72,10.48 C35.2523058,10.9506806 35.5148515,11.6558033 35.42,12.36 L35.42,12.36 Z M29.73,12.52 C29.7040502,12.8557984 29.8811788,13.17463 30.18,13.33 C30.6689504,13.5240698 31.1951821,13.60608 31.72,13.57 C33.0533333,13.57 33.72,13.2 33.72,12.46 C33.72,12.04 33.6,11.77 33.37,11.66 C32.927974,11.5176549 32.4637939,11.4566677 32,11.48 L30.42,11.38 C30.221366,11.5275225 30.0518297,11.7106217 29.92,11.92 C29.8011248,12.0979714 29.7352356,12.3060427 29.73,12.52 L29.73,12.52 Z M30.21,6.94 C30.8955892,7.41561415 31.8044108,7.41561415 32.49,6.94 C32.742992,6.63983886 32.8654178,6.25095683 32.83,5.86 C32.8631376,5.46455564 32.7371612,5.07222918 32.48,4.77 C32.1578217,4.51436085 31.749575,4.39260305 31.34,4.43 C30.34,4.43 29.85,4.9 29.85,5.86 C29.816563,6.25416598 29.9467508,6.64472943 30.21,6.94 L30.21,6.94 Z" id="Shape"></path>
                <path d="M38.59,11.27 L36.84,11.27 L36.84,3.27 L38.58,3.27 L38.58,3.77 C39.2380902,3.31994791 40.0045736,3.05409557 40.8,3 C41.658152,2.92331808 42.4935097,3.30302615 43,4 C43.4580027,4.93018334 43.6582865,5.96613409 43.58,7 L43.58,11.32 L41.84,11.32 L41.84,7 C41.8822872,6.37031002 41.7867336,5.73897331 41.56,5.15 C41.3189622,4.75560114 40.8683219,4.54007754 40.41,4.6 C39.8704405,4.59968638 39.3363947,4.70853648 38.84,4.92 L38.59,5.02 L38.59,11.27 Z" id="Path"></path>
                <path d="M45.63,1.85 L45.63,0 L47.38,0 L47.38,1.85 L45.63,1.85 Z M45.63,11.27 L45.63,3.27 L47.38,3.27 L47.38,11.27 L45.63,11.27 Z" id="Shape"></path>
                <path d="M53.83,4.72 L51.61,4.72 L51.61,8.26 C51.5806097,8.69884754 51.6314401,9.13937749 51.76,9.56 C51.85,9.77 52.1,9.88 52.5,9.88 L53.82,9.83 L53.9,11.23 C53.3605538,11.3479837 52.8117694,11.4182548 52.26,11.44 C51.572753,11.518851 50.8855146,11.2922086 50.38,10.82 C49.9724013,10.1006601 49.7977239,9.27268901 49.88,8.45 L49.88,4.72 L48.88,4.72 L48.88,3.22 L49.88,3.22 L49.88,0.89 L51.61,0.89 L51.61,3.22 L53.83,3.22 L53.83,4.72 Z" id="Path"></path>
                <path d="M55.71,4.09 C57.2832782,2.68890308 59.6567218,2.68890308 61.23,4.09 C61.8483707,5.01514471 62.1404539,6.12013413 62.06,7.23 C62.1373568,8.33993028 61.8531794,9.44506475 61.25,10.38 C59.6653337,11.7912826 57.2746663,11.7912826 55.69,10.38 C55.0868206,9.44506475 54.8026432,8.33993028 54.88,7.23 C54.7995461,6.12013413 55.0916293,5.01514471 55.71,4.09 L55.71,4.09 Z M57,9.32 C57.3775879,9.71746163 57.9017771,9.94250227 58.45,9.94250227 C58.9982229,9.94250227 59.5224121,9.71746163 59.9,9.32 C60.1898768,8.65624979 60.3167415,7.93277808 60.27,7.21 C60.3259938,6.49331962 60.1878157,5.77479394 59.87,5.13 C59.4944668,4.7513747 58.9832751,4.53840335 58.45,4.53840335 C57.9167249,4.53840335 57.4055332,4.7513747 57.03,5.13 C56.7121843,5.77479394 56.5740062,6.49331962 56.63,7.21 C56.5780372,7.93305357 56.7051197,8.65776725 57,9.32 L57,9.32 Z" id="Shape"></path>
            </g>
        </g>
    </g>
</svg>