<svg width="142" height="29" viewBox="0 0 142 29" fill="none" xmlns="http://www.w3.org/2000/svg">
    <path d="M105.047 9.81211C103.783 9.69074 102.515 9.98901 101.439 10.6605V9.78689H98.7129V23.274H101.439V15.6345C101.432 14.8772 101.703 14.1436 102.201 13.5716C102.699 12.9995 103.389 12.6285 104.142 12.5282C104.569 12.4799 105.002 12.522 105.412 12.6517C105.822 12.7815 106.2 12.9959 106.521 13.2812C106.843 13.5664 107.1 13.916 107.277 14.3071C107.454 14.6982 107.546 15.122 107.547 15.551V23.274H110.273V15.6694C110.273 12.6777 108.036 10.0897 105.047 9.81211Z" fill="white"/>
    <path d="M47.6544 9.81211C46.3908 9.69074 45.1224 9.98901 44.0463 10.6605V9.78689H41.3203V23.274H44.0463V15.6345C44.0396 14.8772 44.3106 14.1436 44.8083 13.5716C45.306 12.9995 45.9962 12.6285 46.749 12.5282C47.1772 12.479 47.6111 12.5205 48.0222 12.6501C48.4332 12.7796 48.8122 12.9943 49.1342 13.2801C49.4563 13.5658 49.7142 13.9162 49.891 14.3082C50.0679 14.7002 50.1597 15.125 50.1604 15.5549V23.274H52.8864V15.6694C52.8864 12.6777 50.6452 10.0897 47.6544 9.81211Z" fill="white"/>
    <path d="M60.7568 20.5424C59.9862 20.5446 59.2299 20.3349 58.571 19.9364C57.9121 19.538 57.3761 18.9662 57.0219 18.2838C56.6677 17.6014 56.509 16.8349 56.5633 16.0684C56.6175 15.302 56.8825 14.5653 57.3293 13.9392C57.7761 13.3132 58.3873 12.822 59.0957 12.5197C59.8042 12.2174 60.5825 12.1157 61.3452 12.2257C62.1078 12.3357 62.8254 12.6531 63.4189 13.1432C64.0124 13.6332 64.459 14.2769 64.7095 15.0035H67.5329C67.1948 13.3259 66.2433 11.8334 64.8633 10.816C63.4833 9.79868 61.7732 9.3291 60.0654 9.4985C58.3576 9.6679 56.7739 10.4642 55.6219 11.7327C54.47 13.0012 53.832 14.6513 53.832 16.3625C53.832 18.0738 54.47 19.7239 55.6219 20.9924C56.7739 22.2609 58.3576 23.0572 60.0654 23.2266C61.7732 23.396 63.4833 22.9264 64.8633 21.909C66.2433 20.8917 67.1948 19.3992 67.5329 17.7215H64.7095C64.4258 18.5426 63.8928 19.2553 63.1846 19.7608C62.4763 20.2662 61.6278 20.5394 60.7568 20.5424Z" fill="white"/>
    <path d="M82.1959 15.0035C81.846 13.2511 80.8336 11.7 79.3683 10.6714C77.9031 9.64281 76.0972 9.21544 74.3246 9.47782C72.552 9.74021 70.9486 10.6722 69.8462 12.0809C68.7438 13.4896 68.227 15.267 68.4028 17.0452C68.5786 18.8233 69.4335 20.4659 70.7905 21.6329C72.1475 22.7998 73.9026 23.4018 75.6925 23.314C77.4823 23.2263 79.1698 22.4556 80.4054 21.1616C81.6411 19.8675 82.3302 18.1492 82.3302 16.3625C82.3301 15.9062 82.2851 15.451 82.1959 15.0035ZM75.4198 20.5424C74.5934 20.5404 73.7861 20.2945 73.0998 19.8355C72.4135 19.3765 71.8789 18.7251 71.5636 17.9635C71.2482 17.2019 71.1662 16.3643 71.3279 15.5562C71.4896 14.7482 71.8878 14.006 72.4721 13.4234C73.0564 12.8408 73.8008 12.4438 74.6112 12.2826C75.4216 12.1214 76.2618 12.2031 77.0256 12.5176C77.7895 12.832 78.4428 13.365 78.9031 14.0493C79.3634 14.7336 79.6101 15.5385 79.612 16.3625C79.6084 17.4699 79.1656 18.531 78.3802 19.3141C77.5948 20.0972 76.5305 20.5388 75.4198 20.5424Z" fill="white"/>
    <path d="M39.416 23.2777V4.20117H36.69V23.2777H39.416Z" fill="white"/>
    <path d="M114.912 9.78687H112.186V23.2779H114.912V9.78687Z" fill="white"/>
    <path d="M114.912 4.20508H112.186V6.92308H114.912V4.20508Z" fill="white"/>
    <path d="M94.0814 9.78687V11.1226C93.0758 10.3752 91.8817 9.92138 90.6323 9.81182C89.3829 9.70226 88.1276 9.94127 87.0067 10.5022C85.8857 11.063 84.9433 11.9237 84.2847 12.9879C83.6261 14.0521 83.2773 15.278 83.2773 16.5285C83.2773 17.779 83.6261 19.0048 84.2847 20.0691C84.9433 21.1333 85.8857 21.9939 87.0067 22.5548C88.1276 23.1157 89.3829 23.3547 90.6323 23.2451C91.8817 23.1356 93.0758 22.6818 94.0814 21.9344V22.1091C94.0814 22.9618 93.8096 23.7924 93.3052 24.481C92.8008 25.1695 92.0899 25.6803 91.2752 25.9396C90.4605 26.199 89.5842 26.1933 88.773 25.9235C87.9617 25.6538 87.2575 25.1338 86.762 24.4388L84.8149 26.3803C85.6978 27.4568 86.8932 28.2347 88.237 28.6071C89.5808 28.9795 91.0072 28.9282 92.3207 28.4604C93.6341 27.9925 94.7703 27.1309 95.5732 25.9938C96.3761 24.8567 96.8066 23.4998 96.8054 22.1091V9.78687H94.0814ZM90.4597 20.5327C89.6304 20.6177 88.7951 20.4447 88.0685 20.0374C87.3419 19.6301 86.7595 19.0084 86.4015 18.2578C86.0434 17.5072 85.9273 16.6645 86.0689 15.8455C86.2105 15.0264 86.603 14.2711 87.1924 13.6834C87.7819 13.0957 88.5394 12.7044 89.3609 12.5631C90.1824 12.4219 91.0276 12.5378 91.7804 12.8948C92.5332 13.2518 93.1566 13.8324 93.5652 14.5569C93.9737 15.2814 94.1472 16.1142 94.0619 16.941C93.9659 17.8609 93.5555 18.7199 92.8997 19.3738C92.2438 20.0278 91.3823 20.437 90.4597 20.5327Z" fill="white"/>
    <path d="M123.971 20.5286C123.249 20.4 122.595 20.0199 122.128 19.4561C121.66 18.8923 121.408 18.1812 121.417 17.4495V12.5047H124.143V9.7867H121.417V4.20508H118.691V9.7867H115.863V12.5047H118.691V17.4495C118.691 20.6179 121.29 23.2738 124.468 23.2835C125.874 23.2835 126.869 23.0059 127.766 22.274C127.072 21.6576 126.538 20.883 126.209 20.0161C125.559 20.4725 124.756 20.6566 123.971 20.5286Z" fill="white"/>
    <path d="M141.372 15.0035C141.022 13.2511 140.009 11.7 138.544 10.6714C137.079 9.64281 135.273 9.21544 133.5 9.47782C131.728 9.74021 130.124 10.6722 129.022 12.0809C127.92 13.4896 127.403 15.267 127.579 17.0452C127.754 18.8233 128.609 20.4659 129.966 21.6329C131.323 22.7998 133.078 23.4018 134.868 23.314C136.658 23.2263 138.346 22.4556 139.581 21.1616C140.817 19.8675 141.506 18.1492 141.506 16.3625C141.506 15.9062 141.461 15.451 141.372 15.0035ZM134.588 20.5424C133.761 20.5404 132.954 20.2945 132.268 19.8355C131.581 19.3765 131.047 18.7251 130.732 17.9635C130.416 17.2019 130.334 16.3643 130.496 15.5562C130.658 14.7482 131.056 14.006 131.64 13.4234C132.224 12.8408 132.969 12.4438 133.779 12.2826C134.59 12.1214 135.43 12.2031 136.194 12.5176C136.957 12.832 137.611 13.365 138.071 14.0493C138.531 14.7336 138.778 15.5385 138.78 16.3625C138.776 17.4699 138.334 18.531 137.548 19.3141C136.763 20.0972 135.699 20.5388 134.588 20.5424Z" fill="white"/>
    <path fill-rule="evenodd" clip-rule="evenodd" d="M13.1022 24.8853C19.1323 24.8853 24.0206 20.0113 24.0206 13.999C24.0206 7.98658 19.1323 3.11258 13.1022 3.11258C7.07205 3.11258 2.18369 7.98658 2.18369 13.999C2.18369 20.0113 7.07205 24.8853 13.1022 24.8853ZM13.1022 27.0626C20.3383 27.0626 26.2043 21.2138 26.2043 13.999C26.2043 6.7841 20.3383 0.935303 13.1022 0.935303C5.86603 0.935303 0 6.7841 0 13.999C0 21.2138 5.86603 27.0626 13.1022 27.0626Z" fill="white"/>
</svg>
