<?xml version="1.0" encoding="UTF-8"?>
<svg width="18px" height="14px" viewBox="0 0 18 14" version="1.1" xmlns="http://www.w3.org/2000/svg" xmlns:xlink="http://www.w3.org/1999/xlink">
    <!-- Generator: Sketch 55.1 (78136) - https://sketchapp.com -->
    <title></title>
    <desc>Created with Sketch.</desc>
    <g id="Page-1" stroke="none" stroke-width="1" fill="none" fill-rule="evenodd">
        <g id="Home-Copy-2" transform="translate(-1062.000000, -650.000000)" fill="#FFFFFF" fill-rule="nonzero">
            <path d="M1079.6484,654.464833 C1079.71871,654.394521 1079.79488,654.382802 1079.87691,654.429677 C1079.95894,654.476552 1079.99996,654.546864 1079.99996,654.640614 L1079.99996,661.812472 C1079.99996,662.281221 1079.83589,662.679657 1079.50777,663.007781 C1079.17965,663.335906 1078.78121,663.499968 1078.31246,663.499968 L1063.6875,663.499968 C1063.21875,663.499968 1062.82031,663.335906 1062.49219,663.007781 C1062.16406,662.679657 1062,662.281221 1062,661.812472 L1062,654.640614 C1062,654.546864 1062.04102,654.482411 1062.12305,654.447255 C1062.20508,654.412099 1062.28125,654.417958 1062.35156,654.464833 C1063.125,655.050769 1064.92968,656.374985 1067.76561,658.43748 L1068.11717,658.753885 C1068.67967,659.175759 1069.12498,659.480446 1069.45311,659.667946 C1070.01561,659.972633 1070.53123,660.124976 1070.99998,660.124976 C1071.46873,660.124976 1071.98435,659.960914 1072.54685,659.63279 C1072.89841,659.44529 1073.34372,659.140603 1073.88278,658.718729 L1074.23435,658.43748 C1076.99996,656.445297 1078.80465,655.121082 1079.6484,654.464833 Z M1070.99998,658.999979 C1070.69529,658.999979 1070.32029,658.859354 1069.87498,658.578105 C1069.61717,658.43748 1069.25389,658.179668 1068.78514,657.804669 L1068.43358,657.558576 C1065.55077,655.449206 1063.59375,653.996084 1062.5625,653.199211 L1062.31641,653.02343 C1062.10547,652.859368 1062,652.636712 1062,652.355463 L1062,651.687496 C1062,651.218747 1062.16406,650.82031 1062.49219,650.492186 C1062.82031,650.164062 1063.21875,650 1063.6875,650 L1078.31246,650 C1078.78121,650 1079.17965,650.164062 1079.50777,650.492186 C1079.83589,650.82031 1079.99996,651.218747 1079.99996,651.687496 L1079.99996,652.355463 C1079.99996,652.636712 1079.89449,652.859368 1079.68355,653.02343 L1079.50777,653.164055 C1078.49996,653.960928 1076.5195,655.425768 1073.56638,657.558576 L1073.21482,657.804669 C1072.74607,658.179668 1072.38279,658.43748 1072.12498,658.578105 C1071.67966,658.859354 1071.30467,658.999979 1070.99998,658.999979 Z" id=""></path>
        </g>
    </g>
</svg>