<?xml version="1.0" ?><svg height="32px" version="1.1" viewBox="0 0 32 32" width="32px" xmlns="http://www.w3.org/2000/svg" xmlns:xlink="http://www.w3.org/1999/xlink"><title/><desc/><defs><circle cx="16" cy="16" id="path-1" r="16"/></defs><g fill="none" fill-rule="evenodd" id="Circle" stroke="none" stroke-width="1"><g id="master"><mask fill="white" id="mask-2"><use xlink:href="#path-1"/></mask><use fill="#227FBB" id="Oval-3" xlink:href="#path-1"/><g id="Group" transform="translate(2.880000, 8.000000)"><path d="M26.2399997,8.00004515 C26.2412384,12.4172744 22.7319992,15.9988263 18.4019908,15.9999998 C14.071894,16.0010829 10.5611506,12.4213364 10.5600003,8.0041071 L10.5600003,8.00004515 C10.55885,3.58290615 14.0680892,0.00117373904 18.3979206,2.88398218e-07 C22.7280175,-0.00117316224 26.2388494,3.57875394 26.2399997,7.99598321 L26.2399997,8.00004515 C26.2399997,8.00004515 26.2399997,7.99860091 26.2399997,8.00004515 L26.2399997,8.00004515 L26.2399997,8.00004515 Z" fill="#F2C500" id="path2268"/><path d="M7.78947644,3.93257194e-05 C3.48515231,0.0273805321 0,3.52926703 0,7.8400639 C0,12.1676725 3.51231646,15.68 7.84,15.68 C9.87111788,15.68 11.7225276,14.9059519 13.115686,13.6372845 C13.1155975,13.6372845 13.1154206,13.6371075 13.1150666,13.6369306 L13.1167478,13.6369306 C13.4020157,13.3769679 13.6680828,13.0964772 13.9126487,12.7974051 L12.3064242,12.7974051 C12.0919424,12.5383273 11.8970153,12.268366 11.7219082,11.989822 L14.4921212,11.989822 C14.6605921,11.7202147 14.8131361,11.4402549 14.9485144,11.1502965 L11.2645417,11.1502965 C11.1389849,10.8811316 11.0299744,10.6058614 10.9368907,10.3266095 L15.2765194,10.3266095 C15.5380739,9.54512878 15.68,8.70905416 15.68,7.83997542 C15.68,7.26377498 15.6175313,6.70199725 15.4993185,6.16110147 L10.7067475,6.16110147 C10.7661193,5.88273437 10.841064,5.60772961 10.9304315,5.33750293 L15.2716528,5.33750293 C15.1745874,5.04993361 15.0618606,4.76970836 14.9336493,4.49806595 L11.2640993,4.49806595 C11.3964693,4.21527471 11.5464473,3.94018147 11.7139448,3.6745559 L14.4821227,3.6745559 C14.2979019,3.38105822 14.094038,3.10065601 13.8736279,2.83503044 L12.3302261,2.83503044 C12.5688636,2.55418581 12.8315684,2.28971052 13.1167478,2.04310876 C11.7235009,0.774264427 9.8715603,3.93257194e-05 7.84,3.93257194e-05 C7.82309983,3.93257194e-05 7.80637662,-4.91571493e-05 7.78947644,3.93257194e-05 C7.78947644,3.93257194e-05 7.80637662,-4.91571493e-05 7.78947644,3.93257194e-05 L7.78947644,3.93257194e-05 L7.78947644,3.93257194e-05 Z" fill="#E94B35" id="path1350"/><path d="M10.8448616,10.1289716 L10.9456349,9.40891228 C10.8905978,9.40891228 10.8096208,9.43369546 10.7382006,9.43369546 C10.4579809,9.43369546 10.4270919,9.27691487 10.4449256,9.16099062 L10.6713029,7.69177869 L11.0971788,7.69177869 L11.2,6.89530455 L10.7984427,6.89530455 L10.8801877,6.4 L10.075196,6.4 C10.0574476,6.41867718 9.6,9.18568401 9.6,9.52259168 C9.6,10.0213982 9.86614047,10.2435489 10.2414165,10.2399572 C10.5352888,10.2373531 10.7641406,10.1517793 10.8448616,10.1289716 C10.8448616,10.1289716 10.7641406,10.1517793 10.8448616,10.1289716 L10.8448616,10.1289716 L10.8448616,10.1289716 Z" fill="#FFFFFF" id="path4157"/><path d="M11.2,8.72252077 C11.2,9.94864399 11.9519359,10.24 12.592534,10.24 C13.1838291,10.24 13.444016,10.0977248 13.444016,10.0977248 L13.5860294,9.26090401 C13.5860294,9.26090401 13.136235,9.47417882 12.7300187,9.47417882 C11.8644379,9.47417882 12.0160214,8.7795412 12.0160214,8.7795412 L13.6542163,8.7795412 C13.6542163,8.7795412 13.76,8.21733814 13.76,7.98824476 C13.76,7.41656895 13.4956262,6.72 12.6105634,6.72 C11.8000107,6.72018394 11.2,7.66019334 11.2,8.72252077 C11.2,8.72252077 11.2,7.66019334 11.2,8.72252077 L11.2,8.72252077 L11.2,8.72252077 Z M12.7182309,7.36 C13.2029049,7.36 13.1135078,7.95210144 13.1135078,8 L12.16,8 C12.16,7.93884027 12.2501253,7.36 12.7182309,7.36 C12.7182309,7.36 12.2501253,7.36 12.7182309,7.36 L12.7182309,7.36 L12.7182309,7.36 Z" fill="#FFFFFF" id="path4155"/><path d="M17.9430301,10.124981 L18.094425,9.20936973 C18.094425,9.20936973 17.6792551,9.41599431 17.3943135,9.41599431 C16.7941154,9.41599431 16.5533904,8.96108195 16.5533904,8.47234049 C16.5533904,7.48088081 17.0698191,6.93543109 17.6447249,6.93543109 C18.0758594,6.93543109 18.4218791,7.17570672 18.4218791,7.17570672 L18.56,6.28609043 C18.56,6.28609043 18.0468899,6.08 17.6070555,6.08 C16.6302538,6.08 15.68,6.92109824 15.68,8.50073913 C15.68,9.54819487 16.1931101,10.2399999 17.2028277,10.2399999 C17.4883074,10.240089 17.9430301,10.124981 17.9430301,10.124981 L17.9430301,10.124981 L17.9430301,10.124981 L17.9430301,10.124981 Z" fill="#FFFFFF" id="path4151"/><path d="M5.95220152,6.72 C5.40901601,6.72 4.99262136,6.91215124 4.99262136,6.91215124 L4.8776699,7.66328791 C4.8776699,7.66328791 5.22134873,7.5095854 5.74085542,7.5095854 C6.03583311,7.5095854 6.25162949,7.54609321 6.25162949,7.80996613 C6.25162949,7.9702308 6.22517974,8.0293827 6.22517974,8.0293827 C6.22517974,8.0293827 5.9925059,8.00794013 5.88477565,8.00794013 C5.19968512,8.00794013 4.48,8.32976342 4.48,9.30003939 C4.48,10.0645777 4.95214904,10.24 5.24477565,10.24 C5.80366308,10.24 6.04456573,9.84081712 6.05741275,9.8396156 L6.03129887,10.1728071 L6.72881658,10.1728071 L7.04,7.7715174 C7.04,6.75281082 6.23265285,6.72 5.95220152,6.72 L5.95220152,6.72 L5.95220152,6.72 L5.95220152,6.72 Z M6.07841881,8.66263955 C6.09505963,8.82745132 5.98643205,9.6 5.46132172,9.6 C5.19044614,9.6 5.12,9.36758113 5.12,9.23008222 C5.12,8.96193855 5.24970595,8.64 5.8888059,8.64 C6.0374639,8.6402077 6.05336513,8.6580701 6.07841881,8.66263955 C6.07841881,8.66263955 6.05336513,8.6580701 6.07841881,8.66263955 L6.07841881,8.66263955 L6.07841881,8.66263955 Z" fill="#FFFFFF" id="path4149"/><path d="M7.93705077,10.2396839 C8.11712189,10.2396839 9.14653552,10.289916 9.14653552,9.1238817 C9.14653552,8.03375363 8.19364152,8.2491002 8.19364152,7.81115132 C8.19364152,7.5931071 8.34896875,7.52445666 8.63284558,7.52445666 C8.74554891,7.52445666 9.17916017,7.56380508 9.17916017,7.56380508 L9.28,6.78892951 C9.28,6.78902253 8.99934327,6.72 8.54242869,6.72 C7.95103276,6.72 7.3507392,6.97916007 7.3507392,7.86584842 C7.3507392,8.87058204 8.35168041,8.76974589 8.35168041,9.19299725 C8.35168041,9.47550591 8.07204055,9.49848241 7.85654838,9.49848241 C7.4836105,9.49848241 7.14778845,9.35801877 7.1466021,9.36471638 L7.04,10.1317781 C7.05932057,10.1382896 7.26642355,10.2396839 7.93705077,10.2396839 C7.93705077,10.2396839 7.26642355,10.2396839 7.93705077,10.2396839 L7.93705077,10.2396839 L7.93705077,10.2396839 Z" fill="#FFFFFF" id="path4145"/><path d="M24.7697786,6.0813733 L24.5911278,7.23741714 C24.5911278,7.23741714 24.2793888,6.78834808 23.7913692,6.78834808 C23.0325204,6.78834808 22.4,7.74251684 22.4,8.83886791 C22.4,9.54657511 22.7373735,10.24 23.4270445,10.24 C23.9231407,10.24 24.1981839,9.8792799 24.1981839,9.8792799 L24.1617514,10.1873568 L24.9673041,10.1873568 L25.6,6.08 L24.7697786,6.0813733 L24.7697786,6.0813733 L24.7697786,6.0813733 L24.7697786,6.0813733 Z M24.32,8.45182759 C24.32,8.94339414 24.1315595,9.6 23.740853,9.6 C23.4815277,9.6 23.36,9.31885116 23.36,8.87759545 C23.36,8.15607874 23.610923,7.68000003 23.9275366,7.68000003 C24.1869383,7.67990138 24.32,7.91004884 24.32,8.45182759 C24.32,8.45182759 24.32,7.91004884 24.32,8.45182759 L24.32,8.45182759 L24.32,8.45182759 Z" fill="#FFFFFF" id="path4139"/><polygon fill="#FFFFFF" id="path4133" points="1.78202294 10.24 2.30102885 7.10353983 2.37721237 10.24 2.96462982 10.24 4.06038929 7.10353983 3.57500174 10.24 4.44781369 10.24 5.12 6.08 3.77029545 6.08 2.92974626 8.63241369 2.88600626 6.08 1.6418561 6.08 0.96 10.24 1.78202294 10.24 1.78202294 10.24"/><path d="M14.5686671,9.92 C14.7978784,8.57081268 14.8403652,7.47528916 15.3873507,7.67581835 C15.4830919,7.15363033 15.5754943,6.95163238 15.68,6.73062692 C15.68,6.73062692 15.6310025,6.72 15.5281662,6.72 C15.1755013,6.72 14.914237,7.21868783 14.914237,7.21868783 L14.9844361,6.76069334 L14.2512268,6.76069334 L13.76,9.92 L14.5686671,9.92 L14.5686671,9.92 L14.5686671,9.92 L14.5686671,9.92 Z" fill="#FFFFFF" id="path4131"/><path d="M19.7121658,6.72 C19.1689625,6.72 18.7525542,6.91215124 18.7525542,6.91215124 L18.6376829,7.66328791 C18.6376829,7.66328791 18.981373,7.5095854 19.5008968,7.5095854 C19.7958841,7.5095854 20.0115197,7.54609321 20.0115197,7.80996613 C20.0115197,7.9702308 19.985237,8.0293827 19.985237,8.0293827 C19.985237,8.0293827 19.7525555,8.00794013 19.6447378,8.00794013 C18.9597087,8.00794013 18.24,8.32976342 18.24,9.30003939 C18.24,10.0645777 18.7120806,10.24 19.0047168,10.24 C19.5636225,10.24 19.8045331,9.84081712 19.8172966,9.8396156 L19.7913498,10.1728071 L20.4888903,10.1728071 L20.8,7.7715174 C20.800084,6.75281082 19.9926264,6.72 19.7121658,6.72 L19.7121658,6.72 L19.7121658,6.72 L19.7121658,6.72 Z M19.83842,8.66263955 C19.8550593,8.82745132 19.7463496,9.6 19.2211043,9.6 C18.9502546,9.6 18.88,9.36758113 18.88,9.23008222 C18.88,8.96193855 19.0096936,8.64 19.6486403,8.64 C19.7972841,8.6402077 19.8130914,8.6580701 19.83842,8.66263955 C19.83842,8.66263955 19.8130914,8.6580701 19.83842,8.66263955 L19.83842,8.66263955 L19.83842,8.66263955 Z" fill="#FFFFFF" id="path4149_1_"/><path d="M21.6085836,9.92 C21.8378784,8.57081268 21.8803652,7.47528916 22.4271837,7.67581835 C22.5230919,7.15363033 22.6155778,6.95163238 22.72,6.73062692 C22.72,6.73062692 22.6710025,6.72 22.5681662,6.72 C22.2155013,6.72 21.954237,7.21868783 21.954237,7.21868783 L22.0244361,6.76069334 L21.2912268,6.76069334 L20.8,9.92 L21.6085836,9.92 L21.6085836,9.92 L21.6085836,9.92 L21.6085836,9.92 Z" fill="#FFFFFF" id="path4131_1_"/></g></g></g></svg>