<?xml version="1.0" encoding="UTF-8"?>
<svg width="38px" height="29px" viewBox="0 0 38 29" version="1.1" xmlns="http://www.w3.org/2000/svg" xmlns:xlink="http://www.w3.org/1999/xlink">
    <!-- Generator: Sketch 55 (78076) - https://sketchapp.com -->
    <title>Group 13</title>
    <desc>Created with Sketch.</desc>
    <defs>
        <polygon id="path-1" points="0.0970797546 0.11790184 17.9937423 0.11790184 17.9937423 26.5030552 0.0970797546 26.5030552"></polygon>
        <polygon id="path-3" points="5.33351793e-05 0.109693252 10.8493129 0.109693252 10.8493129 26.5030675 5.33351793e-05 26.5030675"></polygon>
    </defs>
    <g id="Page-1" stroke="none" stroke-width="1" fill="none" fill-rule="evenodd">
        <g id="Group-13">
            <g id="Group-11" transform="translate(0.860465, 0.181395)">
                <ellipse id="Oval" fill="#C2EAF1" cx="18.1395349" cy="26.5116279" rx="18.1395349" ry="1.39534884"></ellipse>
                <g id="Group-9" transform="translate(8.372093, 0.000000)">
                    <g id="Group-3" transform="translate(1.963190, 0.013006)">
                        <mask id="mask-2" fill="white">
                            <use xlink:href="#path-1"></use>
                        </mask>
                        <g id="Clip-2"></g>
                        <path d="M8.01339877,26.5030552 C8.01339877,26.5030552 16.6149939,25.2036687 16.9300859,25.0855092 C17.2453006,24.967227 17.9937669,24.9278405 17.9937669,23.9824417 C17.9937669,23.0369202 10.8633374,2.39385276 10.6662822,2.07876074 C10.4693497,1.76354601 0.0970797546,0.11790184 0.0970797546,0.11790184" id="Fill-1" fill="#FFFFFF" mask="url(#mask-2)"></path>
                    </g>
                    <g id="Group-6" transform="translate(0.000000, 0.013006)">
                        <mask id="mask-4" fill="white">
                            <use xlink:href="#path-3"></use>
                        </mask>
                        <g id="Clip-5"></g>
                        <path d="M0.203177914,24.1354601 C0.203177914,24.1354601 -0.144552147,2.52294479 0.0699263804,1.55766871 C0.284404908,0.592392638 1.23998773,0.109570552 1.70072393,0.109570552 C2.16133742,0.109570552 2.32231902,0.109570552 2.64415951,0.377791411 C2.9658773,0.64601227 3.23397546,0.967730061 3.34121472,1.34319018 C3.44857669,1.71852761 10.8493129,22.6484663 10.8493129,24.9934969 C10.8493129,25.5858896 10.5439141,26.3287117 9.97655215,26.5030675 C9.97655215,26.5030675 7.87557055,26.4006135 6.43998773,26.3131288 C5.00428221,26.2256442 1.0650184,26.0855215 0.609803681,25.8754601 C0.154588957,25.6653988 0.202932515,24.9166871 0.203177914,24.1354601" id="Fill-4" fill="#119BAE" mask="url(#mask-4)"></path>
                    </g>
                    <path d="M0.783006135,23.8042086 C0.783006135,23.8042086 0.435276074,3.09169325 0.627055215,2.21316564 C0.818957055,1.33476074 1.32595092,0.895374233 1.73809816,0.895374233 C2.1502454,0.895374233 2.29404908,0.895374233 2.58202454,1.13942331 C2.8697546,1.38347239 3.1096319,1.67635583 3.20558282,2.01795092 C3.30153374,2.35966871 10.2695092,22.4509571 10.2695092,24.5850675 C10.2695092,25.1242086 9.99638037,25.8002822 9.48877301,25.9589325 C9.48877301,25.9589325 7.6095092,25.865681 6.32521472,25.7860491 C5.04104294,25.7064172 1.51723926,25.5789325 1.1101227,25.3877669 C0.702883436,25.1964785 0.782760736,24.5151288 0.783006135,23.8042086" id="Fill-7" fill="#0DB8D8"></path>
                </g>
            </g>
        </g>
    </g>
</svg>