<?xml version="1.0" encoding="UTF-8"?>
<svg width="27px" height="24px" viewBox="0 0 27 24" version="1.1" xmlns="http://www.w3.org/2000/svg" xmlns:xlink="http://www.w3.org/1999/xlink">
    <!-- Generator: Sketch 55 (78076) - https://sketchapp.com -->
    <title></title>
    <desc>Created with Sketch.</desc>
    <g id="Page-1" stroke="none" stroke-width="1" fill="none" fill-rule="evenodd">
        <path d="M24.749941,5.00679016e-05 C25.3749393,5.00679016e-05 25.9061885,0.218799785 26.3436872,0.656298503 C26.7811859,1.09379722 26.9999356,1.62504643 26.9999356,2.2500447 L26.9999356,17.2500089 C26.9999356,17.8750072 26.7811859,18.4062564 26.3436872,18.8437551 C25.9061885,19.2812539 25.3749393,19.5000036 24.749941,19.5000036 L15.7499624,19.5000036 L16.4999607,21.7499982 L19.8749526,21.7499982 C20.1874521,21.7499982 20.453076,21.8593727 20.6718257,22.0781224 C20.8905754,22.2968721 20.9999499,22.562496 20.9999499,22.8749955 C20.9999499,23.187495 20.8905754,23.4531189 20.6718257,23.6718686 C20.453076,23.8906183 20.1874521,23.9999928 19.8749526,23.9999928 L7.12498301,23.9999928 C6.81248352,23.9999928 6.54685963,23.8906183 6.32810991,23.6718686 C6.1093602,23.4531189 5.99998569,23.187495 5.99998569,22.8749955 C5.99998569,22.562496 6.1093602,22.2968721 6.32810991,22.0781224 C6.54685963,21.8593727 6.81248352,21.7499982 7.12498301,21.7499982 L10.499975,21.7499982 L11.2499732,19.5000036 L2.24999464,19.5000036 C1.62499636,19.5000036 1.09374715,19.2812539 0.656248435,18.8437551 C0.218749717,18.4062564 0,17.8750072 0,17.2500089 L0,2.2500447 C0,1.62504643 0.218749717,1.09379722 0.656248435,0.656298503 C1.09374715,0.218799785 1.62499636,5.00679016e-05 2.24999464,5.00679016e-05 L24.749941,5.00679016e-05 Z M23.9999428,13.5000179 L23.9999428,3.00004292 L2.99999285,3.00004292 L2.99999285,13.5000179 L23.9999428,13.5000179 Z" id="" fill="#FFFFFF" fill-rule="nonzero"></path>
    </g>
</svg>