<?xml version="1.0" encoding="UTF-8"?>
<svg width="33px" height="44px" viewBox="0 0 33 44" version="1.1" xmlns="http://www.w3.org/2000/svg" xmlns:xlink="http://www.w3.org/1999/xlink">
    <!-- Generator: Sketch 57.1 (83088) - https://sketch.com -->
    <title>Group 30</title>
    <desc>Created with Sketch.</desc>
    <defs>
        <polygon id="path-1" points="0.157835525 0.193077821 29.2548306 0.193077821 29.2548306 43.4018004 0.157835525 43.4018004"></polygon>
        <polygon id="path-3" points="8.67141257e-05 0.179635313 17.6391773 0.179635313 17.6391773 43.4018205 8.67141257e-05 43.4018205"></polygon>
    </defs>
    <g id="Page-1" stroke="none" stroke-width="1" fill="none" fill-rule="evenodd">
        <g id="Update" transform="translate(-798.000000, -491.000000)">
            <g id="Group-30" transform="translate(815.507523, 513.801990) rotate(1.000000) translate(-815.507523, -513.801990) translate(798.007523, 491.301990)">
                <g id="Group-9" transform="translate(0.328833, 0.212043)">
                    <g id="Group-3" transform="translate(3.191821, 0.021299)">
                        <mask id="mask-2" fill="white">
                            <use xlink:href="#path-1"></use>
                        </mask>
                        <g id="Clip-2"></g>
                        <path d="M13.0284529,43.4018004 C13.0284529,43.4018004 27.013215,41.2739056 27.5255022,41.0804058 C28.0379889,40.8867051 29.2548705,40.8222052 29.2548705,39.274006 C29.2548705,37.7256059 19.6592189,5.28969756 17.3415998,3.40420974 C15.0239807,1.51872192 0.157835525,0.193077821 0.157835525,0.193077821" id="Fill-1" fill="#EAF3F4" mask="url(#mask-2)"></path>
                    </g>
                    <g id="Group-6" transform="translate(0.000000, 0.021299)">
                        <mask id="mask-4" fill="white">
                            <use xlink:href="#path-3"></use>
                        </mask>
                        <g id="Clip-5"></g>
                        <path d="M0.330333476,39.5245912 C0.330333476,39.5245912 -0.235017736,4.13161219 0.113688658,2.55086163 C0.462395051,0.970111063 2.0160137,0.179434378 2.76509408,0.179434378 C3.51397497,0.179434378 3.77570425,0.179434378 4.29896333,0.618676877 C4.82202292,1.05791938 5.25790592,1.58476925 5.43225911,2.19962838 C5.6068118,2.81428657 17.6391773,37.0894678 17.6391773,40.9297252 C17.6391773,41.8998362 17.1426497,43.1162928 16.2202135,43.4018205 C16.2202135,43.4018205 12.8043671,43.2340403 10.4703483,43.0907741 C8.13613008,42.947508 1.73154269,42.7180409 0.991439305,42.3740413 C0.251335918,42.0300417 0.329934499,40.8039403 0.330333476,39.5245912" id="Fill-4" fill="#11A6AE" mask="url(#mask-4)"></path>
                    </g>
                    <path d="M1.27303767,38.9821288 C1.27303767,38.9821288 0.707686459,5.06300321 1.01948743,3.62431323 C1.33148788,2.18582419 2.15577554,1.46627826 2.82585836,1.46627826 C3.49594118,1.46627826 3.72974204,1.46627826 4.19794221,1.86593669 C4.66574341,2.26559512 5.05574398,2.74522543 5.21174421,3.30462667 C5.36774444,3.86422885 16.696513,36.7660238 16.696513,40.260875 C16.696513,41.1437805 16.2524509,42.2509288 15.4271658,42.5107369 C15.4271658,42.5107369 12.3717956,42.3580268 10.2837465,42.2276204 C8.19589692,42.097214 2.46677855,41.8884433 1.80487477,41.5753875 C1.1427715,41.2621309 1.27263869,40.1463424 1.27303767,38.9821288" id="Fill-7" fill="#0DCED8"></path>
                </g>
                <path d="M7.20914365,39.4482919 L10.0206149,39.4497365 C10.3488031,39.4499052 10.6147883,39.7159534 10.6148793,40.0441416 C10.6149701,40.3719944 10.3492666,40.6378453 10.0214138,40.6379362 C10.0212572,40.6379362 10.0211007,40.6379362 10.0209442,40.6379361 L7.20947295,40.6364915 C6.88128475,40.6363228 6.61529953,40.3702747 6.61520858,40.0420864 C6.61511772,39.7142336 6.88082129,39.4483827 7.20867411,39.4482919 C7.20883063,39.4482918 7.20898714,39.4482918 7.20914365,39.4482919 Z" id="Rectangle" fill="#90F9FF" transform="translate(8.615044, 40.043114) rotate(3.000000) translate(-8.615044, -40.043114) "></path>
            </g>
        </g>
    </g>
</svg>