<?xml version="1.0" encoding="utf-8"?>
<!-- Generator: Adobe Illustrator 21.0.0, SVG Export Plug-In . SVG Version: 6.00 Build 0)  -->
<svg version="1.1" id="Layer_1" xmlns="http://www.w3.org/2000/svg" xmlns:xlink="http://www.w3.org/1999/xlink" x="0px" y="0px"
	 viewBox="0 0 1582 1584" style="enable-background:new 0 0 1582 1584;" xml:space="preserve">
<style type="text/css">
	.st0{fill:#00845D;}
</style>
<g>
	<g>
		<g>
			<path id="SVGID_1_" class="st0" d="M792,1582C356.8,1582,4,1229.2,4,794S356.8,6,792,6s788,352.8,788,788S1227.2,1582,792,1582
				L792,1582z M1220,374c-280.5-47.4-188-61.8-364-128s-232.3,65.5-260,64c-285.6-39.8-288.1,225.3-308,340
				c-19.9,114.7-72.2,178.4-88,256c-66.4,320.5,268,328,268,328c282.5,271.4,434.2,92.5,500,36s100.4-96.2,172-140
				c174.5-87.3,222.8-114.4,240-152c88.4-171.3-25-272-20-296C1460.1,384.8,1274.2,382.7,1220,374L1220,374z M776,1122
				c-176.7,0-320-146-320-326s143.3-326,320-326s320,146,320,326S952.7,1122,776,1122L776,1122z"/>
		</g>
	</g>
</g>
</svg>
