<?xml version="1.0" encoding="UTF-8"?>
<svg width="30px" height="30px" viewBox="0 0 30 30" version="1.1" xmlns="http://www.w3.org/2000/svg" xmlns:xlink="http://www.w3.org/1999/xlink">
    <!-- Generator: Sketch 58 (84663) - https://sketch.com -->
    <title>Shape</title>
    <desc>Created with Sketch.</desc>
    <g id="Page-1" stroke="none" stroke-width="1" fill="none" fill-rule="evenodd" fill-opacity="0.8">
        <g id="Update-Copy-6" transform="translate(-560.000000, -581.000000)" fill="#FFFFFF" fill-rule="nonzero">
            <g id="iconfinder_play-circle_1608432" transform="translate(560.000000, 581.000000)">
                <path d="M15,0 C17.7213542,0 20.2311198,0.670572917 22.5292969,2.01171875 C24.827474,3.35286458 26.6471354,5.17252604 27.9882813,7.47070313 C29.3294271,9.76888021 30,12.2786458 30,15 C30,17.7213542 29.3294271,20.2311198 27.9882813,22.5292969 C26.6471354,24.827474 24.827474,26.6471354 22.5292969,27.9882813 C20.2311198,29.3294271 17.7213542,30 15,30 C12.2786458,30 9.76888021,29.3294271 7.47070313,27.9882813 C5.17252604,26.6471354 3.35286458,24.827474 2.01171875,22.5292969 C0.670572917,20.2311198 0,17.7213542 0,15 C0,12.2786458 0.670572917,9.76888021 2.01171875,7.47070313 C3.35286458,5.17252604 5.17252604,3.35286458 7.47070313,2.01171875 C9.76888021,0.670572917 12.2786458,0 15,0 Z M22.5,16.0742188 C22.9166667,15.8398438 23.125,15.4817708 23.125,15 C23.125,14.5182292 22.9166667,14.1601563 22.5,13.9257813 L11.875,7.67578125 C11.4713542,7.42838542 11.0546875,7.421875 10.625,7.65625 C10.2083333,7.90364583 10,8.26822917 10,8.75 L10,21.25 C10,21.7317708 10.2083333,22.0963542 10.625,22.34375 C10.8333333,22.4479167 11.0416667,22.5 11.25,22.5 C11.4713542,22.5 11.6796875,22.4414063 11.875,22.3242188 L22.5,16.0742188 Z" id="Shape"></path>
            </g>
        </g>
    </g>
</svg>