<?xml version="1.0" encoding="UTF-8"?>
<svg width="36px" height="36px" viewBox="0 0 36 36" version="1.1" xmlns="http://www.w3.org/2000/svg" xmlns:xlink="http://www.w3.org/1999/xlink">
    <!-- Generator: Sketch 57.1 (83088) - https://sketch.com -->
    <title>iconfinder_45_3251538</title>
    <desc>Created with Sketch.</desc>
    <g id="Page-1" stroke="none" stroke-width="1" fill="none" fill-rule="evenodd">
        <g id="Update" transform="translate(-1060.000000, -345.000000)" fill-rule="nonzero">
            <g id="iconfinder_45_3251538" transform="translate(1060.000000, 345.000000)">
                <path d="M23.86425,11.8965 C18.918,6.95025 11.49825,6.35475 7.296,10.557 C5.0895,12.7635 4.20375,15.85575 4.5795,19.01175 C4.62525,19.3935 4.90425,19.70475 5.28,19.78875 C7.7205,20.33625 10.13175,21.62775 12.13275,23.62875 C14.13975,25.6365 15.432,28.04775 15.9795,30.48825 C16.0635,30.86325 16.37475,31.143 16.7565,31.188 C19.91175,31.56375 23.00475,30.678 25.21125,28.4715 C29.41275,24.27 28.8165,16.8495 23.86425,11.8965 Z" id="XMLID_4123_" fill="#1B73E8"></path>
                <g id="XMLID_8944_" transform="translate(0.000000, 22.500000)">
                    <path d="M13.026,5.5185 C12.94575,4.65225 12.6435,3.85725 12.225,3.09675 C12.18,3.021 12.13425,2.946 12.084,2.865 C9.591,0.82575 9.55425,0.59625 8.2275,0.3075 C7.37625,0.1215 6.561,0.20175 5.78025,0.57975 C2.5365,2.18925 3.32025,5.631 0.31275,7.44825 C0.255,7.4835 0.222,7.5495 0.23175,7.61625 L0.23175,7.6185 C0.24225,7.69275 0.30075,7.74975 0.375,7.76025 C1.64925,7.94175 2.78625,7.65825 3.7455,6.67125 C3.7455,6.71175 3.74025,6.747 3.74025,6.78675 C3.615,9.07875 2.83125,11.22825 0.92775,12.56175 C0.69675,12.72375 0.639,13.044 0.8025,13.275 C0.804,13.27725 0.8055,13.2795 0.807,13.28175 C0.91425,13.43325 1.09275,13.515 1.27725,13.49775 C5.42475,13.11975 5.93625,8.46 8.30775,8.28225 C8.30775,8.28225 6.912,9.42375 6.48525,10.62825 C6.366,10.96875 6.31575,11.31675 6.36675,11.66925 C6.3945,11.8635 6.6645,11.91675 6.762,11.742 C6.81225,11.65125 6.87,11.5635 6.93375,11.4795 C7.5765,10.659 8.57325,10.27125 9.39075,9.99975 C11.61825,9.29025 13.272,7.84275 13.026,5.5185 Z" id="XMLID_8947_" fill="#FF8833"></path>
                    <path d="M8.35125,7.3935 C8.34825,7.3965 8.34,7.39875 8.33475,7.39875 C8.028,6.552 8.604,5.805 9.3045,5.238 C9.3105,5.23275 9.31575,5.22675 9.321,5.20425 C9.285,5.20725 9.24525,5.20125 9.21225,5.20725 C7.974,5.403 7.257,8.8005 4.44075,8.00475 C4.43475,8.00475 4.4265,8.00175 4.413,7.9935 C6.0015,7.35825 6.693,6.081 6.786,4.374 C6.786,4.3515 6.789,4.332 6.789,4.3095 C6.1935,4.923 5.475,5.04825 4.665,4.86975 C4.6815,4.8585 4.6845,4.85025 4.68975,4.85025 C6.54225,3.9135 6.06675,1.84725 7.91775,0.9285 C8.63625,0.58125 9.32775,0.7065 10.0335,1.06575 L11.41725,2.1975 C11.445,2.2425 11.4705,2.2845 11.49525,2.3265 C11.727,2.74875 11.895,3.18975 11.94,3.6705 C11.98725,4.1205 11.91225,4.548 11.6745,4.9425 C10.74075,6.49875 9.1905,5.72475 8.35125,7.3935 Z" id="XMLID_3971_" fill="#FFCC66"></path>
                </g>
                <path d="M34.3545,0.0015 C26.4075,0.3675 19.257,3.7365 13.98825,9.0045 C10.9065,12.08625 8.4705,15.83175 6.89625,19.99275 C6.7065,20.49525 6.83925,21.069 7.2195,21.4485 L14.3235,28.5525 C14.70225,28.93125 15.27225,29.06475 15.77325,28.87575 C27.04125,24.62475 35.187,14.02275 35.76825,1.4145 C35.80425,0.63 35.139,-0.0345 34.3545,0.0015 Z" id="Path" fill="#C4FCFF"></path>
                <path d="M34.44975,8.9655 C35.18325,6.55875 35.6475,4.0335 35.76825,1.4145 C35.80425,0.63075 35.139,-0.0345 34.3545,0.00225 C31.734,0.123 29.20275,0.576 26.7945,1.31025 L34.44975,8.9655 Z" id="XMLID_8961_" fill="#1B73E8"></path>
                <g id="XMLID_8943_" transform="translate(21.000000, 6.000000)">
                    <circle id="Oval" fill="#F0F5F5" cx="4.47225" cy="4.29525" r="4.15275"></circle>
                    <circle id="Oval" fill="#1B73E8" cx="4.47225" cy="4.29525" r="3.66975"></circle>
                    <path d="M3.26475,0.843 L3.2655,7.74675 C3.50025,7.8285 3.74025,7.88475 3.984,7.917 L3.984,0.672 C3.7395,0.705 3.4995,0.76125 3.26475,0.843 Z" id="XMLID_8953_" fill="#FFFFFF"></path>
                    <path d="M5.6805,7.74675 L5.67975,0.843 C5.316,0.71625 4.93875,0.64275 4.5585,0.63375 L4.55925,7.956 C4.9395,7.947 5.31675,7.8735 5.6805,7.74675 Z" id="XMLID_8956_" fill="#FFFFFF"></path>
                </g>
                <path d="M20.49975,15.2685 C19.98975,14.7585 12.84075,21.08175 11.19675,22.72575 C9.55275,24.36975 8.63325,26.11575 9.14325,26.625 C9.65325,27.135 11.3985,26.2155 13.0425,24.5715 C14.68575,22.92675 21.009,15.77775 20.49975,15.2685 Z" id="Path" fill="#1B73E8"></path>
            </g>
        </g>
    </g>
</svg>