<?xml version="1.0" encoding="UTF-8"?>
<svg width="32px" height="17px" viewBox="0 0 32 17" version="1.1" xmlns="http://www.w3.org/2000/svg" xmlns:xlink="http://www.w3.org/1999/xlink">
    <!-- Generator: Sketch 58 (84663) - https://sketch.com -->
    <title>iconfinder_fast_delivery_truck_shipping_2749168</title>
    <desc>Created with Sketch.</desc>
    <g id="Page-1" stroke="none" stroke-width="1" fill="none" fill-rule="evenodd">
        <g id="Update-Copy-10" transform="translate(-909.000000, -266.000000)" stroke="#394553">
            <g id="iconfinder_fast_delivery_truck_shipping_2749168" transform="translate(910.000000, 267.000000)">
                <path d="M9.59746988,12.6072289 L8.06457831,12.6072289 C7.26903614,12.6072289 6.61879518,11.9566265 6.61879518,11.1614458 L6.61879518,9.54939759" id="Path" stroke-linecap="round" stroke-linejoin="round"></path>
                <path d="M21.0748193,12.6072289 L15.4771084,12.6072289" id="Path" stroke-linejoin="round"></path>
                <path d="M6.41168675,0.0303614458 L20.8807229,0.0303614458 C20.8807229,0.0303614458 25.5046988,-0.178915663 29.7516867,8.14626506 L29.7516867,11.1614458 C29.7516867,11.9566265 29.1014458,12.6072289 28.3059036,12.6072289 L26.9613253,12.6072289" id="Path" stroke-linecap="round" stroke-linejoin="round"></path>
                <circle id="Oval" cx="24.7460241" cy="12.6195181" r="2.17120482"></circle>
                <path d="M13.9915663,12.6195181 C13.9915663,13.8180723 13.0196386,14.7896386 11.8207229,14.7896386 C10.6214458,14.7896386 9.64915663,13.8180723 9.64915663,12.6195181 C9.64915663,11.420241 10.6210843,10.4472289 11.8207229,10.4472289 C13.0196386,10.4472289 13.9915663,11.420241 13.9915663,12.6195181 Z" id="Path"></path>
                <path d="M21.1792771,2.13650602 L21.1792771,4.75445783 C21.1792771,4.75445783 21.1792771,6.54975904 22.8903614,6.54975904 L26.5760241,6.54975904" id="Path" stroke-linecap="round" stroke-linejoin="round"></path>
                <path d="M10.7154217,2.39855422 L2.25036145,2.39855422" id="Path" stroke-linecap="round" stroke-linejoin="round"></path>
                <path d="M8.30710843,9.44783133 L3.50060241,9.44783133" id="Path" stroke-linecap="round" stroke-linejoin="round"></path>
                <path d="M10.7154217,7.09771084 L0.248674699,7.09771084" id="Path" stroke-linecap="round" stroke-linejoin="round"></path>
                <path d="M13.1248193,4.74795181 L3.97481928,4.74795181" id="Path" stroke-linecap="round" stroke-linejoin="round"></path>
            </g>
        </g>
    </g>
</svg>