<svg width="16" height="16" viewBox="0 0 16 16" fill="none" xmlns="http://www.w3.org/2000/svg">
    <g clip-path="url(#clip0_8801_103257)">
        <path d="M6.77344 15.5999C7.32572 15.5999 7.77344 15.1521 7.77344 14.5999C7.77344 14.0476 7.32572 13.5999 6.77344 13.5999C6.22115 13.5999 5.77344 14.0476 5.77344 14.5999C5.77344 15.1521 6.22115 15.5999 6.77344 15.5999Z" fill="white"/>
        <path d="M14.7341 8.9066C14.6567 8.63042 14.4923 8.38656 14.2654 8.21122C14.0384 8.03588 13.7609 7.9384 13.4741 7.93327H11.8141C11.7726 7.93194 11.7329 7.91573 11.7023 7.88758C11.6717 7.85944 11.6522 7.82123 11.6475 7.77994C11.5974 7.49621 11.449 7.23918 11.2284 7.0539C11.0077 6.86862 10.7289 6.76691 10.4408 6.7666H8.8408C8.8103 6.76787 8.78067 6.77716 8.75492 6.79355C8.72917 6.80994 8.7082 6.83284 8.69413 6.85994C8.27682 7.69071 7.637 8.38928 6.84598 8.87778C6.05497 9.36628 5.14383 9.62552 4.21413 9.6266C4.06747 9.6266 3.92747 9.6266 3.79413 9.6266C3.74559 9.62601 3.69838 9.64253 3.6608 9.67327C3.64358 9.68807 3.62986 9.70652 3.62064 9.72727C3.61141 9.74802 3.60692 9.77057 3.60747 9.79327V13.2666C3.60747 13.576 3.73038 13.8728 3.94918 14.0916C4.16797 14.3104 4.46471 14.4333 4.77413 14.4333H4.9808C5.01979 14.4341 5.05782 14.4211 5.08828 14.3968C5.11873 14.3724 5.13968 14.3381 5.14747 14.2999C5.21284 13.9149 5.41238 13.5655 5.71072 13.3136C6.00907 13.0616 6.38697 12.9234 6.77747 12.9234C7.16797 12.9234 7.54587 13.0616 7.84421 13.3136C8.14256 13.5655 8.34209 13.9149 8.40747 14.2999C8.41366 14.3383 8.43304 14.3732 8.46225 14.3988C8.49146 14.4243 8.52867 14.4389 8.56747 14.4399H11.3341C11.3737 14.4391 11.4119 14.4248 11.4422 14.3994C11.4725 14.3739 11.4932 14.3388 11.5008 14.2999C11.5662 13.9149 11.7657 13.5655 12.0641 13.3136C12.3624 13.0616 12.7403 12.9234 13.1308 12.9234C13.5213 12.9234 13.8992 13.0616 14.1975 13.3136C14.4959 13.5655 14.6954 13.9149 14.7608 14.2999C14.767 14.3305 14.7838 14.3579 14.8082 14.3774C14.8325 14.3969 14.8629 14.4072 14.8941 14.4066C15.0828 14.3968 15.2661 14.3406 15.4277 14.2429C15.5894 14.1452 15.7244 14.009 15.8208 13.8466C15.9216 13.6827 15.9856 13.4989 16.0087 13.3079C16.0317 13.1168 16.0131 12.9231 15.9541 12.7399L14.7341 8.9066ZM13.3341 9.25994C13.3694 9.25949 13.4038 9.27022 13.4326 9.29058C13.4613 9.31095 13.4829 9.33989 13.4941 9.37327C13.5408 9.5066 13.6341 9.79327 13.8208 10.3866C13.832 10.4094 13.8378 10.4345 13.8378 10.4599C13.8378 10.4854 13.832 10.5104 13.8208 10.5333C13.8066 10.5553 13.7867 10.5731 13.7632 10.5848C13.7398 10.5965 13.7136 10.6018 13.6875 10.5999H11.7808C11.7366 10.5999 11.6942 10.5824 11.6629 10.5511C11.6317 10.5199 11.6141 10.4775 11.6141 10.4333V9.43327C11.6141 9.3902 11.6307 9.34878 11.6606 9.31771C11.6904 9.28664 11.7311 9.26832 11.7741 9.2666L13.3341 9.25994Z" fill="white"/>
        <path d="M13.1074 15.5999C13.6597 15.5999 14.1074 15.1521 14.1074 14.5999C14.1074 14.0476 13.6597 13.5999 13.1074 13.5999C12.5551 13.5999 12.1074 14.0476 12.1074 14.5999C12.1074 15.1521 12.5551 15.5999 13.1074 15.5999Z" fill="white"/>
        <path d="M4.21333 8.80664C5.04505 8.80532 5.85771 8.55749 6.54861 8.09445C7.23952 7.63142 7.77766 6.97396 8.09503 6.20518C8.4124 5.4364 8.49476 4.59079 8.33169 3.77521C8.16862 2.95964 7.76745 2.21071 7.17887 1.62306C6.5903 1.03542 5.84073 0.635432 5.0249 0.473656C4.20907 0.31188 3.36359 0.395575 2.59531 0.714162C1.82703 1.03275 1.17043 1.57193 0.708491 2.26357C0.24655 2.95521 1.04445e-06 3.76826 0 4.59997C-6.94426e-07 5.15296 0.109028 5.70053 0.32085 6.21134C0.532672 6.72215 0.843129 7.18618 1.23446 7.5769C1.62579 7.96761 2.09032 8.27733 2.60146 8.48834C3.11261 8.69936 3.66035 8.80752 4.21333 8.80664ZM7.08 4.59997C7.08132 5.16883 6.91375 5.72528 6.59853 6.19882C6.28332 6.67235 5.83463 7.04167 5.30933 7.25997C4.78402 7.47827 4.20574 7.53574 3.64775 7.42508C3.08976 7.31442 2.57716 7.04063 2.17492 6.63839C1.77268 6.23614 1.49888 5.72355 1.38823 5.16556C1.27757 4.60757 1.33503 4.02928 1.55334 3.50398C1.77164 2.97868 2.14095 2.52999 2.61449 2.21477C3.08803 1.89955 3.64448 1.73199 4.21333 1.73331C4.97308 1.73507 5.7012 2.03766 6.23843 2.57488C6.77565 3.1121 7.07824 3.84023 7.08 4.59997Z" fill="white"/>
        <path d="M4.21354 5.26657H5.44021C5.61702 5.26657 5.78659 5.19633 5.91161 5.07131C6.03664 4.94628 6.10687 4.77671 6.10687 4.5999C6.10687 4.42309 6.03664 4.25352 5.91161 4.1285C5.78659 4.00347 5.61702 3.93324 5.44021 3.93324H5.04687C5.00267 3.93324 4.96028 3.91568 4.92902 3.88442C4.89777 3.85316 4.88021 3.81077 4.88021 3.76657V3.06657C4.88021 2.88976 4.80997 2.72019 4.68495 2.59516C4.55992 2.47014 4.39035 2.3999 4.21354 2.3999C4.03673 2.3999 3.86716 2.47014 3.74214 2.59516C3.61711 2.72019 3.54688 2.88976 3.54688 3.06657V4.5999C3.54688 4.77671 3.61711 4.94628 3.74214 5.07131C3.86716 5.19633 4.03673 5.26657 4.21354 5.26657Z" fill="white"/>
    </g>
    <defs>
        <clipPath id="clip0_8801_103257">
            <rect width="16" height="16" fill="white"/>
        </clipPath>
    </defs>
</svg>
