<?xml version="1.0" encoding="UTF-8"?>
<svg width="217px" height="137px" viewBox="0 0 217 137" version="1.1" xmlns="http://www.w3.org/2000/svg" xmlns:xlink="http://www.w3.org/1999/xlink">
    <!-- Generator: Sketch 58 (84663) - https://sketch.com -->
    <title>Image</title>
    <desc>Created with Sketch.</desc>
    <defs>
        <path d="M61.0689186,-3.26849658e-13 C66.627793,-3.26849658e-13 72.0131941,0.742727101 77.131299,2.13435825 C77.0385956,3.1267183 76.9918119,4.13090835 76.9918119,5.14602531 C76.9918119,23.0017248 91.4667164,37.4766293 109.322416,37.4766293 C111.974291,37.4766293 114.551596,37.1573518 117.017986,36.55514 C120.31064,44.0577519 122.137837,52.3499528 122.137837,61.0689186 C122.137837,94.7963511 94.7963511,122.137837 61.0689186,122.137837 C27.3414862,122.137837 -3.26849658e-13,94.7963511 -3.26849658e-13,61.0689186 C-3.26849658e-13,27.3414862 27.3414862,-3.26849658e-13 61.0689186,-3.26849658e-13 Z" id="path-1"></path>
        <polygon id="path-3" points="5.15366376e-16 0.547169811 97 0.547169811 97 95.5471698 5.15366376e-16 95.5471698"></polygon>
    </defs>
    <g id="Page-1" stroke="none" stroke-width="1" fill="none" fill-rule="evenodd">
        <g id="Thank-you-page" transform="translate(-663.000000, -192.000000)">
            <g id="Image" transform="translate(663.000000, 192.000000)">
                <g id="Group-2">
                    <g id="MINER" transform="translate(0.000000, 14.000000)">
                        <mask id="mask-2" fill="white">
                            <use xlink:href="#path-1"></use>
                        </mask>
                        <use id="Combined-Shape" fill="#DBF9FA" xlink:href="#path-1"></use>
                        <g mask="url(#mask-2)" id="Artboard-Copy-43">
                            <g transform="translate(26.942170, 25.479331)">
                                <g>
                                    <g id="Group-24">
                                        <g id="Group-17">
                                            <g id="Group-13">
                                                <g id="Group-11">
                                                    <g id="Group-9">
                                                        <g id="Group-3" transform="translate(14.537269, 0.000000)" fill="#FFFFFF">
                                                            <path d="M33.3982041,127.248002 L31.5224274,114.253558 C46.1441067,112.133931 62.5102584,109.686042 66.7588926,108.931042 C65.4411594,103.819551 61.3988607,89.9903869 53.2345426,63.7717182 C47.1382683,44.2401933 41.731342,27.2972404 39.5882671,20.849258 C33.1262164,19.2642267 15.7377665,15.9065864 0.0750310678,13.1304369 L2.38692584,0.182888228 C2.494783,0.182888228 13.2289151,2.12431711 23.9208423,4.18298203 C30.2281414,5.40223688 35.3021174,6.43391406 39.0020869,7.24987693 C45.839293,8.75987716 48.6717158,9.38357292 50.3927409,12.3426107 C50.8335484,13.1023002 51.0539522,13.4868344 55.8465616,28.450843 C58.8290466,37.7687638 62.4633639,49.2860327 65.8210042,60.0576803 C80.3582736,106.759831 80.3348264,109.001384 80.3160686,110.487937 C80.2691742,114.309832 78.7451056,119.275951 71.7625269,121.217379 L71.5374337,121.278342 C70.6745764,121.597224 68.4330233,122.169336 33.3982041,127.248002 Z" id="Path"></path>
                                                            <path d="M32.4556263,120.753125 C32.4556263,120.753125 68.0015946,115.594739 69.3052594,115.102347 C70.6089242,114.609956 73.6992663,114.478652 73.7509207,110.412906 C73.8024341,106.34716 45.5110321,17.0086052 44.713827,15.6439776 C43.9166219,14.2793501 1.23332318,6.64493894 1.23332318,6.64493894" id="Fill-1"></path>
                                                        </g>
                                                        <g id="Group-6" fill="#11A6AE">
                                                            <path d="M47.771343,127.379306 L46.5755353,127.304275 C46.4864359,127.304275 37.8062793,126.746231 31.9163405,126.296045 C30.6079862,126.197567 28.7697251,126.075641 26.6407185,125.939647 C10.4011818,124.893902 7.53593287,124.467163 5.46788907,123.440175 C0.0515838591,120.743746 0.159441019,114.764708 0.234472087,110.811508 L0.234472087,110.000235 C0.234472087,108.659054 0.173509344,85.8965043 0.234472087,62.9369976 C0.337639805,14.6029216 0.787826212,12.6145983 1.08326104,11.3015546 C2.66360291,4.30959696 9.12565362,0.0468944174 14.2605923,0.0468944174 L14.3731389,0.0468944174 C16.7178598,0.0750310678 19.395531,0.10785716 22.5421464,2.9215222 C24.9947245,5.11149149 26.5985135,7.58282729 27.3206876,10.2698774 C27.4613708,10.7388216 28.1976132,13.0507164 29.0464021,15.7190087 C54.1442943,94.5672821 57.3002886,109.86893 57.2393258,114.394242 C57.1783631,119.275951 54.5522757,125.315952 48.9249456,127.055734 L47.771343,127.379306 Z M13.3508406,111.772844 C17.261835,112.180825 23.8458112,112.602875 27.484818,112.837347 C29.6560295,112.97803 31.5318062,113.099956 32.9151916,113.203124 C36.4604095,113.475111 41.0419941,113.784614 44.0995101,113.98626 C43.8791063,110.342564 39.8790125,92.9869402 16.5302821,19.681587 C14.8889775,14.5232011 14.7295365,14.0167414 14.6310582,13.6509649 L14.6310582,13.6509649 C14.5778658,13.5527448 14.5150302,13.4600624 14.4434806,13.3742878 C14.2098127,13.5526436 14.0310529,13.7931569 13.927642,14.0683252 C13.3461512,20.0520529 13.280499,75.8282729 13.3742878,110.03775 L13.3742878,110.140918 L13.3742878,111.078806 C13.3555301,111.266384 13.3508406,111.514925 13.3508406,111.772844 Z" id="Shape"></path>
                                                            <path d="M6.8090694,110.04244 C6.8090694,110.04244 6.56521843,16.8819903 7.50310678,12.7459026 C8.44099513,8.60981503 12.3848156,6.56521843 14.2840395,6.59306863 C16.1832634,6.62149173 16.8491642,6.62618117 18.1622078,7.79854161 C19.4904026,8.89031095 20.4687637,10.348069 20.9758729,11.9909025 C21.3979226,13.6134494 50.7913435,104.185327 50.6651364,114.291074 C50.6319024,116.84213 49.3329271,120.030951 46.9835168,120.753125 C46.9835168,120.753125 38.3221179,120.199771 32.4087318,119.749584 C26.4953458,119.299398 10.2511196,118.492814 8.38472183,117.564304 C6.51832401,116.635795 6.75748554,113.409459 6.79969052,110.061198" id="Fill-4"></path>
                                                        </g>
                                                        <path d="M45.8064669,124.954865 L44.587212,124.875144 C44.5074915,124.875144 36.7370866,124.368684 31.4567752,123.937256 C30.2703464,123.848156 28.610284,123.740299 26.7345073,123.618374 C11.9674553,122.652349 9.49611952,122.267814 7.50779622,121.273653 C2.34941031,118.666323 2.52291965,113.048372 2.62139793,109.695421 C2.62139793,109.315576 2.62139793,108.931042 2.62139793,108.541818 C2.62139793,107.27098 2.54636686,85.4463179 2.56981407,63.462215 C2.62608737,17.1680462 3.03875825,15.3250956 3.30136698,14.1058407 C4.95673992,6.65900727 10.021337,3.34357196 14.3403128,3.34357196 L14.44817,3.34357196 C16.5771765,3.37170861 19.2314006,3.4045347 22.2467116,6.157237 C24.3945743,7.98995912 25.9540313,10.4155999 26.7298179,13.1304369 C26.8658117,13.599381 27.5551596,15.7893503 28.3523647,18.3404066 C51.8183312,93.4793316 54.9227416,108.119769 54.8664683,112.546602 C54.810195,117.18446 52.315412,122.938405 46.9694484,124.607846 L45.8064669,124.954865 Z M15.7659031,109.648527 C19.278295,109.995545 24.586743,110.342564 27.6020541,110.539521 C29.5387935,110.666136 31.2504397,110.773993 32.4790735,110.872471 C35.3443224,111.092875 38.9692608,111.341415 41.656311,111.524303 C41.0232363,106.834862 36.497925,88.5460389 15.9909963,22.8188235 C15.6814932,38.8895403 15.6908721,81.0288638 15.7846609,108.565266 L15.7846609,108.673123 C15.7799714,109.001384 15.775282,109.329645 15.7659031,109.648527 Z" id="Shape" fill="#0DCED8"></path>
                                                        <path d="M9.21944246,108.588713 C9.21944246,108.588713 8.9099393,19.3205 9.74465993,15.5454994 C10.5793806,11.7704988 12.6990082,9.91816927 14.3965861,9.91816927 C16.094164,9.91816927 16.6897231,9.94630592 17.866773,11.0154986 C19.0626754,12.0140395 19.9397823,13.341112 20.3896927,14.8327042 C20.7695375,16.3098784 48.4184859,103.242749 48.306282,112.438745 C48.2731132,114.783465 47.1101317,117.662783 45.0233301,118.319304 C45.0233301,118.319304 37.2763724,117.822224 31.9866821,117.414242 C26.6969918,117.006261 12.1691013,116.270018 10.49966,115.425919 C8.83021879,114.581819 9.19599525,111.650918 9.23351078,108.584023" id="Fill-7" fill="#0DCED8"></path>
                                                    </g>
                                                </g>
                                            </g>
                                        </g>
                                    </g>
                                </g>
                            </g>
                        </g>
                    </g>
                    <g id="iconfinder_ok_check_done_1491001" transform="translate(85.000000, 0.000000)" fill-rule="nonzero">
                        <circle id="Oval" fill="#0DCED8" cx="22.5232558" cy="22.5232558" r="21.7051034"></circle>
                        <path d="M19.3661499,30.6710917 C19.3661499,30.6710917 19.3661499,30.6710917 19.3661499,30.6710917 C18.7741925,30.6710917 18.1822351,30.4737726 17.984916,30.0791344 L12.2626615,23.5676034 C11.473385,22.7783269 11.6707041,21.5944121 12.4599806,20.8051357 C13.2492571,20.0158592 14.4331718,20.2131783 15.2224483,21.0024548 L19.563469,25.9354328 L31.9945736,13.7016473 C32.7838501,12.9123708 33.9677649,12.9123708 34.7570413,13.7016473 C35.5463178,14.4909238 35.5463178,15.6748385 34.7570413,16.464115 L20.7473837,30.0791344 C20.3527455,30.4737726 19.7607881,30.6710917 19.3661499,30.6710917 Z" id="Path" fill="#FFFFFF"></path>
                    </g>
                </g>
                <path d="M43,125 C49.4130911,128.567057 55.4549314,128.567057 61.1255208,125" id="Path-6" stroke="#FFFFFF" stroke-width="3" stroke-linecap="round"></path>
                <g id="Group-9" transform="translate(120.000000, 41.452830)">
                    <mask id="mask-4" fill="white">
                        <use xlink:href="#path-3"></use>
                    </mask>
                    <g id="Clip-4"></g>
                    <path d="M50.6595242,52.8914127 C52.3010411,52.1745773 52.4736877,53.6307406 51.1891418,59.8397904 C48.0430346,59.1764871 49.0983772,53.572935 50.6595242,52.8914127 Z M71,47.0058048 C67.1678858,45.2900783 65.1460425,48.6131176 64.2525847,53.2335234 C64.2521268,53.2353228 64.2516688,53.2368973 64.2512109,53.2386967 C63.1122926,57.7095274 60.2801092,63.6878043 59.0933353,62.863005 C57.607292,61.8301502 61.7647787,54.7283738 61.8410272,49.2177156 C61.8758313,46.6992323 59.2460612,47.0058048 57.0325664,47.9055041 C57.9759406,48.6335858 57.2901625,54.4940021 56.1588004,56.5381189 C55.3924234,57.9220814 54.4117263,59.0986631 53.2366301,59.6175647 C54.352422,55.3408441 54.6931358,50.8077092 51.5754214,50.2672148 C47.682858,49.5924403 45.2403889,58.3645085 48.5987553,60.9174053 C49.2916316,61.4439543 49.9815312,61.7390556 50.6473885,61.8728859 C49.0306008,65.9318793 43.7170227,70.265056 42.9506457,65.3371781 C42.3255458,61.3179964 44.7824403,55.7461586 47.4538837,53.1539 C44.133527,50.8670893 41.3098157,54.1284993 39.9359698,57.5777215 C38.5621239,61.0269436 38.1041752,68.0738384 42.8361585,69.3484874 C47.2519283,70.5378899 50.9690974,66.1779471 52.5625297,61.8458949 C53.781818,61.5807086 54.8064781,60.9084083 55.4528726,60.3879322 C54.9681339,64.2989251 55.8038902,67.5738305 58.6736254,66.0870774 C61.3100357,64.721109 63.0213898,60.5273856 63.6936584,58.5853847 C63.6767143,59.1011373 63.6684712,59.6164401 63.6691581,60.1272443 C63.6783171,66.6696327 69.5499056,65.4872029 70.2368286,63.2379547 C69.091957,63.2379547 67.3364109,62.4507178 67.8325982,56.1152602 C68.3285566,49.7800276 71,47.0058048 71,47.0058048 L71,47.0058048 Z" id="Fill-3" fill="#0DCED8" mask="url(#mask-4)"></path>
                    <path d="M33.4233881,60.7972281 C31.7034181,65.7928755 29.1331979,70.4943285 28.1164252,70.1996815 C27.0746854,69.898019 29.196417,63.6746758 30.1886809,59.488063 C31.181403,55.3014503 32.4031795,48.7008592 29.5015175,47.757853 C26.6003136,46.8150731 24.9206572,49.3419767 24.9206572,49.3419767 C27.7838381,50.1718313 27.0203995,53.8680446 26.1041817,58.9976636 C25.1879638,64.1272825 22.5499435,71.4522707 26.294984,72.6512261 C28.6702789,73.4118318 30.7665853,69.9161233 32.1170905,66.8157668 C28.6966201,81.391742 24.6563284,88.0799125 18.5451552,92.980965 C12.0553549,98.185943 4.34400722,91.4722003 8.16142898,83.0236158 C11.9788507,74.5748049 17.7817166,74.4994459 17.7817166,74.4994459 C17.7817166,74.4994459 16.3789871,70.6479885 11.0628619,73.1416256 C3.50406448,76.6871208 -0.466136606,92.8300207 12.1318591,96.2245715 C22.888486,99.1230654 34.3286114,82.1138761 38.2055873,60.3176912 C38.7782235,57.0985255 40,54.6225401 40,54.6225401 C35.1225142,53.9056109 34.6827296,54.8155769 33.4233881,60.7972281" id="Fill-5" fill="#0DCED8" mask="url(#mask-4)"></path>
                    <path d="M2.2935526,26.5471698 C2.2935526,26.5471698 5.73444323,18.9114232 15.5494428,16.1964911 C25.3644423,13.481559 36.6862134,14.1281653 44.4867689,10.3706992 C50.2403893,7.59920601 47.194355,1.54716981 47.194355,1.54716981 C47.194355,1.54716981 45.5585217,5.67612909 33.5436085,8.95667207 C21.5286953,12.2372151 6.82018525,15.5078033 3.13967325,18.119568 C-0.526849564,20.721378 -1.20374608,24.2847264 2.2935526,26.5471698" id="Fill-6" fill="#0DCED8" mask="url(#mask-4)"></path>
                    <path d="M11.5554748,53.5536521 C18.1988919,47.4065724 20.9243963,33.7025321 22.9685247,25.4124337 C25.012653,17.1223353 27,15.7124546 27,15.7124546 C21.4922098,14.7537358 19.7887695,18.0810542 18.5963613,22.7054628 C17.4039531,27.3298715 16.1547636,36.8042696 12.8614457,46.0530869 C9.56812783,55.3019042 3.83321223,55.3019042 3.2653988,50.9594717 C2.69758537,46.6170392 6.44515398,41.8798401 9.62490917,40.9775165 C7.86468755,37.5938028 1.27805181,39.0036835 0.142424957,45.8220921 C-1.1033577,53.302355 6.08334327,58.6168156 11.5554748,53.5536521" id="Fill-7" fill="#0DCED8" mask="url(#mask-4)"></path>
                    <path d="M46.3158671,36.5920958 C44.2592562,36.8243786 45.293319,28.9128639 47.7768759,25.7739078 C49.3995417,23.7232726 50.395448,24.7826703 50.8910305,25.7635941 C50.1193216,27.5395706 49.6944076,30.5256147 49.5113017,31.6791811 C48.5980301,34.0089591 47.3878606,36.4710218 46.3158671,36.5920958 Z M96.9964583,33.8455092 C94.8515683,36.4799902 83.4497843,28.0720721 82.4337837,24.6528521 C85.5946743,22.9152156 92.085789,13.9467696 88.1911202,12.4893972 C84.2964514,11.0320247 80.2324492,18.0946759 77.8053367,24.148377 C80.684005,9.29438826 84.8608961,5.37069314 84.8608961,5.37069314 C82.828895,4.24963738 81.0791163,3.52095115 78.3697815,8.39754366 C75.6604467,13.2741362 74.4751127,21.6820543 73.9558235,25.4553038 C72.5277783,29.0339379 70.6495319,33.0748955 69.5644433,32.7284893 C67.6453312,32.1161686 73.4026677,19.1036261 71.2013331,17.4220425 C69,15.7404588 65.1053298,19.0475733 62.3395505,26.1662773 C62.9039953,22.4107405 64.5973295,18.7673094 64.5973295,18.7673094 C64.5973295,18.7673094 61.2671055,17.3659897 60.0817715,20.0004707 C59.1034759,22.1748704 58.3945332,26.333763 58.0497704,29.1899889 C54.8263393,37.2925314 51.8648106,37.7212232 52.6875452,32.2199784 C53.5342124,26.5586468 57.0337698,21.5699487 57.0337698,21.5699487 C54.4621595,20.1695259 52.8970671,20.8000076 51.6202931,23.7443485 C49.6720556,18.8150663 44.1675904,23.0156622 42.0759839,28.1281249 C41.0599833,30.6114876 40.6226515,33.2011264 40.7608276,35.3318049 C38.3678077,40.7586116 36.1387024,40.8303592 36.9395367,36.536043 C37.7862038,31.9957672 40.2697607,25.2694327 37.334648,24.2044298 C34.3995353,23.1394268 31.1822002,29.4664412 28.9244212,34.7423538 C30.448422,24.933116 35.076869,15.5763363 35.076869,15.5763363 C35.076869,15.5763363 31.0128667,14.2830864 29.1501991,18.4309926 C27.2875314,22.5788989 24.9733079,31.9397144 24.2853626,36.8163069 C23.5974174,41.6928995 23.9573073,43.654747 27.5697538,43.5426415 C28.5857543,38.4418378 31.5773115,30.2581308 34.4218873,28.1281249 C33.2557444,32.0973349 31.2950891,42.0292162 34.8510911,42.5897441 C37.5719406,43.01866 40.1257144,39.3151402 41.1760332,37.5505985 C41.6312014,38.876359 42.4379059,39.7886742 43.5999847,40.0113158 C45.9487522,40.4615318 48.2054024,36.8214638 49.2539149,34.8217246 C49.3096821,37.0131643 50.0445891,38.3122437 51.7279892,38.4978906 C54.0415353,38.7532671 56.6461092,34.6510999 57.7677738,32.6583112 C57.7483569,34.6102934 58.2191038,36.2956887 60.7591052,36.4239374 C60.9284386,33.5652453 62.5653284,27.2312803 64.7102185,23.9241658 C66.8551085,20.6170513 68.5484428,18.8794149 66.911553,23.6999547 C65.2746632,28.5204944 64.653774,34.7423538 68.0404425,34.966565 C70.5657683,35.1338265 72.9018923,31.4684226 73.9273755,29.5928963 C74.2400779,31.2202209 75.0650703,32.289708 76.6200028,32.3881367 C79.7244489,19.6081012 85.6734708,12.6371523 85.5946743,16.5251979 C85.5158778,20.4132434 81.2484497,24.4286409 79.3293376,25.6057494 C81.4742276,29.9218141 86.9493417,36.0876207 90.7311216,37.8252571 C94.5129014,39.5628935 97.1093473,36.7602542 96.9964583,33.8455092 L96.9964583,33.8455092 Z" id="Fill-8" fill="#0DCED8" mask="url(#mask-4)"></path>
                </g>
            </g>
        </g>
    </g>
</svg>