<?xml version="1.0" encoding="UTF-8"?>
<svg width="30px" height="30px" viewBox="0 0 30 30" version="1.1" xmlns="http://www.w3.org/2000/svg" xmlns:xlink="http://www.w3.org/1999/xlink">
    <!-- Generator: Sketch 57.1 (83088) - https://sketch.com -->
    <title>iconfinder_refund_735874</title>
    <desc>Created with Sketch.</desc>
    <g id="Page-1" stroke="none" stroke-width="1" fill="none" fill-rule="evenodd">
        <g id="Update" transform="translate(-1071.000000, -620.000000)" fill="#232323" fill-rule="nonzero">
            <g id="iconfinder_refund_735874" transform="translate(1071.000000, 620.000000)">
                <path d="M14.8529412,0.176470588 C10.0294118,0.176470588 5.52941176,2.5 2.73529412,6.41176471 L3.26470588,0.764705882 C3.29411765,0.470588235 3.08823529,0.205882353 2.76470588,0.176470588 C2.47058824,0.147058824 2.20588235,0.352941176 2.17647059,0.676470588 L1.47058824,8.32352941 C1.44117647,8.5 1.52941176,8.67647059 1.64705882,8.79411765 C1.73529412,8.88235294 1.88235294,8.91176471 2,8.91176471 C2.02941176,8.91176471 2.08823529,8.91176471 2.11764706,8.88235294 L9.23529412,7.14705882 C9.52941176,7.08823529 9.70588235,6.79411765 9.64705882,6.5 C9.58823529,6.20588235 9.29411765,6.02941176 9,6.08823529 L3.29411765,7.47058824 C5.88235294,3.58823529 10.2058824,1.26470588 14.8529412,1.26470588 C22.4705882,1.26470588 28.6764706,7.47058824 28.6764706,15.0882353 C28.6764706,22.7058824 22.4705882,28.9117647 14.8529412,28.9117647 C8.08823529,28.9117647 2.38235294,24.0882353 1.23529412,17.4411765 C1.17647059,17.1470588 0.911764706,16.9411765 0.617647059,17 C0.323529412,17.0588235 0.117647059,17.3235294 0.176470588,17.6176471 C1.41176471,24.7941176 7.58823529,29.9705882 14.8529412,29.9705882 C23.0588235,29.9705882 29.7647059,23.2941176 29.7647059,15.0588235 C29.7647059,6.88235294 23.0882353,0.176470588 14.8529412,0.176470588 Z" id="Path"></path>
                <path d="M22.9705882,11.2058824 C22.8823529,11.1470588 22.5,11 22.3823529,11.0294118 L12.6470588,8.61764706 C12.5294118,8.58823529 12.4117647,8.58823529 12.2941176,8.64705882 L6.79411765,11.1764706 C6.76470588,11.1764706 6.76470588,11.2058824 6.73529412,11.2058824 C6.70588235,11.2058824 6.70588235,11.2058824 6.67647059,11.2352941 C6.67647059,11.2352941 6.64705882,11.2647059 6.64705882,11.2647059 C6.61764706,11.2941176 6.58823529,11.3235294 6.55882353,11.3823529 C6.55882353,11.4117647 6.52941176,11.4117647 6.52941176,11.4411765 C6.5,11.5 6.5,11.5588235 6.47058824,11.6176471 C6.47058824,11.6176471 6.47058824,11.6470588 6.47058824,11.6470588 L6.47058824,19.6764706 C6.47058824,19.9117647 6.61764706,20.1176471 6.85294118,20.1764706 L17.1764706,23.7058824 C17.2352941,23.7352941 17.2941176,23.7352941 17.3529412,23.7352941 C17.4411765,23.7352941 17.5588235,23.7058824 17.6176471,23.6470588 L23,20.4705882 C23.1764706,20.3823529 23.2647059,20.2058824 23.2647059,20 L23.2647059,11.6764706 C23.2352941,11.4705882 23.1470588,11.2941176 22.9705882,11.2058824 Z M12.5882353,9.5 L21.5,11.7647059 C21.5,11.7647059 17.5,13.7647059 17.4411765,13.7647059 L8.26470588,11.5 L12.5882353,9.5 Z M7.35294118,12.3529412 L16.7647059,14.7647059 L16.7647059,22.4117647 L7.35294118,19.2941176 L7.35294118,12.3529412 Z M22.3529412,19.7352941 L17.9411765,22.2941176 L17.9411765,14.8235294 L22.3529412,12.5588235 L22.3529412,19.7352941 Z" id="Shape"></path>
            </g>
        </g>
    </g>
</svg>