<?xml version="1.0" encoding="UTF-8"?>
<svg width="56px" height="40px" viewBox="0 0 56 40" version="1.1" xmlns="http://www.w3.org/2000/svg" xmlns:xlink="http://www.w3.org/1999/xlink">
    <!-- Generator: Sketch 57.1 (83088) - https://sketch.com -->
    <title>iconfinder_online_payment_money_dollar_3045543</title>
    <desc>Created with Sketch.</desc>
    <g id="Page-1" stroke="none" stroke-width="1" fill="none" fill-rule="evenodd">
        <g id="Update-Copy-2" transform="translate(-1054.000000, -728.000000)" fill-rule="nonzero">
            <g id="iconfinder_online_payment_money_dollar_3045543" transform="translate(1054.000000, 728.000000)">
                <path d="M54.4301075,39.344086 L54.4301075,12.5053763 C54.4301075,10.2962373 52.6392465,8.50537634 50.4301075,8.50537634 L4.62365591,8.50537634 C2.41451691,8.50537634 0.623655914,10.2962373 0.623655914,12.5053763 L0.623655914,35.3333333 C0.623655914,37.5424723 2.41451691,39.3333333 4.62365591,39.3333333 L54.4193548,39.3333333 C54.4252934,39.3333333 54.4301075,39.3381475 54.4301075,39.344086 L54.4301075,39.344086 L54.4301075,39.344086 Z M27.5268817,12.5698925 C33.7956989,12.5698925 38.8709677,17.655914 38.8709677,23.9139785 C38.8709677,30.1827957 33.7849462,35.2580645 27.5268817,35.2580645 C21.2688172,35.2580645 16.1827957,30.172043 16.1827957,23.9139785 C16.1827957,17.655914 21.2580645,12.5698925 27.5268817,12.5698925 Z" id="Shape" fill="#25CDD6"></path>
                <path d="M28.6989247,16.8817204 C29.1290323,16.9032258 29.5053763,17 29.8172043,17.0752688 C30.1290323,17.1612903 30.4408602,17.2365591 30.7526882,17.3870968 L30.7419355,19.1182796 C30.2043011,18.9139785 29.9784946,18.8494624 29.4301075,18.7204301 C28.8172043,18.5806452 28.3870968,18.5376344 27.9677419,18.5376344 C27.2365591,18.5376344 26.655914,18.7419355 26.2150538,19.1397849 C25.7741935,19.5376344 25.5483871,20.0430108 25.5483871,20.6666667 C25.5483871,21.0537634 25.6129032,21.3978495 25.7419355,21.6989247 C25.8709677,22 26.0430108,22.2365591 26.2688172,22.4193548 C26.4946237,22.6021505 26.9892473,22.8817204 27.7741935,23.2473118 L28.8817204,23.7634409 C29.8172043,24.2043011 30.4731183,24.7204301 30.8387097,25.311828 C31.2043011,25.9139785 31.3978495,26.6344086 31.3978495,27.4731183 C31.3978495,28.344086 31.1290323,29.0967742 30.5806452,29.7311828 C30.0322581,30.3763441 29.483871,30.6451613 28.7204301,30.8709677 L28.7096774,32.4408602 L26.9247312,32.4408602 L26.9354839,30.9677419 C26.0860215,30.9462366 25.4193548,30.6774194 24.9354839,30.3978495 L24.9354839,28.655914 C25.1827957,28.8387097 25.5698925,29.0107527 26.0752688,29.1827957 C26.5913978,29.3548387 27.0645161,29.4301075 27.4946237,29.4301075 C28.1290323,29.4301075 28.6344086,29.2473118 29,28.8924731 C29.3655914,28.5268817 29.5483871,28.0645161 29.5483871,27.5053763 C29.5483871,27.1612903 29.483871,26.8387097 29.3548387,26.5483871 C29.2258065,26.2580645 29.0322581,26.0215054 28.7956989,25.8172043 C28.5483871,25.6129032 28.0752688,25.3548387 27.3763441,25.0107527 L26.516129,24.6129032 C25.5483871,24.1612903 24.8387097,23.6021505 24.3870968,22.9462366 C23.9354839,22.2903226 23.7096774,21.4516129 23.7096774,20.4193548 C23.7096774,19.5698925 24.0107527,18.827957 24.6129032,18.1935484 C25.2150538,17.5591398 25.8602151,17.2043011 26.9247312,17.0215054 L26.9247312,15.4301075 L28.7311828,15.4301075 L28.6989247,16.8817204 Z" id="Path" fill="#4A5656"></path>
                <path d="M51.0537634,39.9569892 L4,39.9569892 C1.790861,39.9569892 2.23265109e-15,38.1661282 0,35.9569892 L0,11.8817204 C-2.705415e-16,9.67258143 1.790861,7.88172043 4,7.88172043 L51.0537634,7.88172043 C53.2629024,7.88172043 55.0537634,9.67258143 55.0537634,11.8817204 L55.0537634,35.9569892 C55.0537634,38.1661282 53.2629024,39.9569892 51.0537634,39.9569892 Z M4.24731183,38.7204301 L50.8172043,38.7204301 C52.4740586,38.7204301 53.8172043,37.3772844 53.8172043,35.7204301 L53.8172043,12.1290323 C53.8172043,10.472178 52.4740586,9.12903226 50.8172043,9.12903226 L4.24731183,9.12903226 C2.59045758,9.12903226 1.24731183,10.472178 1.24731183,12.1290323 L1.24731183,35.7204301 C1.24731183,37.3772844 2.59045758,38.7204301 4.24731183,38.7204301 Z" id="Shape" fill="#4A5656"></path>
                <g id="Group" transform="translate(7.741935, 23.118280)" fill="#4A5656">
                    <path d="M1.47311828,0.0967741935 C0.655913978,0.0967741935 0,0.76344086 0,1.56989247 C0,2.37634409 0.666666667,3.04301075 1.47311828,3.04301075 C2.27956989,3.04301075 2.94623656,2.37634409 2.94623656,1.56989247 C2.94623656,0.76344086 2.29032258,0.0967741935 1.47311828,0.0967741935 Z" id="Path"></path>
                    <path d="M38.0967742,0.0967741935 C37.2795699,0.0967741935 36.6236559,0.76344086 36.6236559,1.56989247 C36.6236559,2.37634409 37.2903226,3.04301075 38.0967742,3.04301075 C38.9139785,3.04301075 39.5698925,2.37634409 39.5698925,1.56989247 C39.5698925,0.76344086 38.9032258,0.0967741935 38.0967742,0.0967741935 Z" id="Path"></path>
                </g>
                <polygon id="Path" fill="#4A5656" points="50.2580645 8.50537634 49.0107527 8.50537634 49.0107527 4.79569892 6.04301075 4.79569892 6.04301075 8.50537634 4.79569892 8.50537634 4.79569892 3.5483871 50.2580645 3.5483871"></polygon>
                <polygon id="Path" fill="#4A5656" points="46.5591398 4.17204301 45.311828 4.17204301 45.311828 1.27956989 9.74193548 1.27956989 9.74193548 4.17204301 8.49462366 4.17204301 8.49462366 0.0430107527 46.5591398 0.0430107527"></polygon>
            </g>
        </g>
    </g>
</svg>