<?xml version="1.0" encoding="UTF-8"?>
<svg width="27px" height="26px" viewBox="0 0 27 26" version="1.1" xmlns="http://www.w3.org/2000/svg" xmlns:xlink="http://www.w3.org/1999/xlink">
    <!-- Generator: Sketch 58 (84663) - https://sketch.com -->
    <title>gift-exchange</title>
    <desc>Created with Sketch.</desc>
    <g id="Page-1" stroke="none" stroke-width="1" fill="none" fill-rule="evenodd">
        <g id="Update-Copy-6" transform="translate(-770.000000, -586.000000)" stroke="#101111">
            <g id="gift-exchange" transform="translate(771.000000, 587.000000)">
                <path d="M13.3064516,15.8551124 L13.3064516,6.85483871" id="Path"></path>
                <path d="M16.5322581,6.85483871 L16.5322581,17.3387097" id="Path"></path>
                <path d="M10.0806452,2.01612903 C10.0806452,1.12903226 10.8064513,0.403225806 11.6935484,0.403225806 C14.1129032,0.403225806 14.9193548,3.62903226 14.9193548,3.62903226 C14.9193548,3.62903226 12.5806452,3.62903226 11.6935484,3.62903226 C10.8064513,3.62903226 10.0806452,2.90322581 10.0806452,2.01612903 Z" id="Path" stroke-linecap="square"></path>
                <path d="M19.7580645,2.01612903 C19.7580645,1.12903226 19.0322584,0.403225806 18.1451613,0.403225806 C15.7258065,0.403225806 14.9193548,3.62903226 14.9193548,3.62903226 C14.9193548,3.62903226 17.2580642,3.62903226 18.1451613,3.62903226 C19.0322584,3.62903226 19.7580645,2.90322581 19.7580645,2.01612903 Z" id="Path" stroke-linecap="square"></path>
                <polyline id="Path" points="22.1774194 6.85483871 22.1774194 17.3387097 19.7580645 17.3387097"></polyline>
                <path d="M7.66129032,14.2314188 L7.66129032,6.85483871" id="Path"></path>
                <rect id="Rectangle" stroke-linecap="square" x="5.24193548" y="3.62903226" width="19.3548387" height="3.22580645"></rect>
                <path d="M15.2007472,17.3387097 L20.5645161,17.3387097 C23.4677423,17.3387097 23.7903226,18.9516129 23.7903226,18.9516129 L12.2580644,23.6290316 C11.3709673,24.0322574 10.32258,23.9516119 9.43548371,23.5483861 L0.403225806,18.9516129 L0.403225806,13.3064516 L4.43548387,13.3064516 C6.29032274,13.3064516 8.30645177,14.2741942 9.27419355,15.7258065 L12.5,15.7258065 C14.1129032,15.7258065 15.7258065,17.3387097 15.7258065,18.9516129 L8.46774194,18.9516129" id="Path"></path>
            </g>
        </g>
    </g>
</svg>