<?xml version="1.0" encoding="UTF-8"?>
<svg width="60px" height="60px" viewBox="0 0 60 60" version="1.1" xmlns="http://www.w3.org/2000/svg" xmlns:xlink="http://www.w3.org/1999/xlink">
    <!-- Generator: Sketch 56 (81588) - https://sketch.com -->
    <title>3</title>
    <desc>Created with Sketch.</desc>
    <g id="Page-1" stroke="none" stroke-width="1" fill="none" fill-rule="evenodd">
        <g id="Update-Copy-16" transform="translate(-869.000000, -824.000000)">
            <g id="3" transform="translate(869.000000, 824.000000)">
                <g id="Multicolor">
                    <g id="Background" fill="#BBF9FA" fill-rule="nonzero">
                        <g id="New_Symbol_2_2_-link" transform="translate(30.000000, 30.000000) scale(-1, 1) rotate(-180.000000) translate(-30.000000, -30.000000) ">
                            <g id="New_Symbol_2_2_">
                                <circle id="Oval" cx="30" cy="30" r="30"></circle>
                            </g>
                        </g>
                    </g>
                    <g id="Scene" transform="translate(9.000000, 4.500000)">
                        <g id="Group">
                            <path d="M5.1,8.85 L7.5,8.025 C7.575,8.025 7.65,7.875 7.65,7.8 C7.65,7.725 7.575,7.65 7.5,7.575 L5.55,6.9 C5.25,6.825 5.1,6.6 4.95,6.3 L4.275,4.35 C4.275,4.275 4.125,4.2 4.05,4.2 C3.975,4.2 3.9,4.275 3.825,4.35 L3.15,6.3 C3.075,6.6 2.85,6.75 2.55,6.9 L0.6,7.575 C0.525,7.575 0.45,7.725 0.45,7.8 C0.45,7.875 0.525,7.95 0.6,8.025 L2.55,8.7 C2.85,8.775 3,9 3.15,9.3 L3.825,11.25 C3.825,11.325 3.975,11.4 4.05,11.4 C4.125,11.4 4.2,11.325 4.275,11.25 L5.1,8.85 Z" id="Path" stroke="#101111" fill="#FFFFFF" fill-rule="nonzero" stroke-linecap="round" stroke-linejoin="round"></path>
                            <path d="M37.95,7.35 C38.1,6.675 38.625,6.15 39.3,6 L42,5.4 C42.075,5.4 42.15,5.25 42.15,5.175 C42.15,5.1 42.075,4.95 42,4.95 L39.3,4.35 C38.625,4.2 38.1,3.675 37.95,3 L37.35,0.3 C37.35,0.225 37.2,0.15 37.125,0.15 C37.05,0.15 36.9,0.225 36.9,0.3 L36.3,3 C36.15,3.675 35.625,4.2 34.95,4.35 L32.25,4.875 C32.175,4.875 32.1,5.025 32.1,5.1 C32.1,5.175 32.175,5.325 32.25,5.325 L34.95,5.925 C35.625,6.075 36.15,6.6 36.3,7.275 L36.9,9.975 C36.9,10.05 37.05,10.125 37.125,10.125 C37.2,10.125 37.35,10.05 37.35,9.975 L37.95,7.35 Z" id="Path" stroke="#101111" fill="#FFFFFF" fill-rule="nonzero" stroke-linecap="round" stroke-linejoin="round"></path>
                            <g transform="translate(11.250000, 6.000000)" id="Path">
                                <path d="M2.55,21.45 C1.65,21.45 0.9,20.85 0.75,19.95 C-0.15,15.525 -0.15,11.025 0.75,6.6 L0.9,5.85 C1.125,4.8 2.1,4.2 3.075,4.35 C4.125,4.575 4.725,5.55 4.575,6.525 L4.425,7.275 C3.6,11.175 3.675,15.15 4.425,19.05 C4.65,20.1 3.975,21.075 3,21.3 C2.775,21.45 2.625,21.45 2.55,21.45 Z" stroke="#45413C" fill="#FCF8D2" fill-rule="nonzero"></path>
                                <path d="M21.525,17.55 C20.475,17.475 19.575,18.15 19.425,19.2 C19.2,21.15 17.55,22.65 15.6,22.65 C13.5,22.65 11.7,20.925 11.7,18.75 C11.7,16.65 13.425,14.85 15.6,14.85 C16.725,14.85 17.775,15.375 18.525,16.2 C19.2,16.95 20.4,17.1 21.15,16.425 C21.9,15.75 22.05,14.55 21.375,13.8 C19.95,12.075 17.85,11.175 15.6,11.175 C12.375,11.175 9.6,13.2 8.55,16.05 L8.4,16.05 C9.3,11.85 11.1,7.8 13.65,4.35 L14.1,3.675 C14.7,2.85 14.55,1.65 13.725,1.05 C12.9,0.45 11.7,0.6 11.1,1.425 L10.65,2.1 C10.2,2.7 9.75,3.375 9.375,3.975 C9.9,3.15 9.675,2.025 8.85,1.425 C8.025,0.825 6.825,1.05 6.225,1.95 C-4.275,17.625 3.3,26.4 3.3,32.775 C3.3,35.625 3.3,36.075 3.3,36.075 L14.1,36.075 L14.1,34.35 C14.1,29.25 14.775,27.45 18.45,25.95 C21,24.9 22.875,22.575 23.25,19.725 C23.25,18.6 22.5,17.625 21.525,17.55 Z" fill-opacity="0.98" fill="#FFF9D2" fill-rule="nonzero"></path>
                                <path d="M5.4,36 C5.4,35.55 5.4,34.725 5.4,33.225 C5.4,26.85 -2.175,18.075 8.325,2.4 C8.55,2.1 8.85,1.875 9.15,1.725 C9.075,1.65 8.925,1.5 8.775,1.425 C7.95,0.825 6.75,1.05 6.15,1.95 C-4.35,17.625 3.225,26.4 3.225,32.775 C3.225,35.625 3.225,36.075 3.225,36.075 L5.4,36.075 L5.4,36 Z" fill="#FCF8D2" fill-rule="nonzero"></path>
                                <path d="M4.575,15.75 C5.475,10.8 7.575,6.075 10.65,2.025" stroke="#101111" stroke-linecap="round"></path>
                                <path d="M21.525,17.55 C20.475,17.475 19.575,18.15 19.425,19.2 C19.2,21.15 17.55,22.65 15.6,22.65 C13.5,22.65 11.7,20.925 11.7,18.75 C11.7,16.65 13.425,14.85 15.6,14.85 C16.725,14.85 17.775,15.375 18.525,16.2 C19.2,16.95 20.4,17.1 21.15,16.425 C21.9,15.75 22.05,14.55 21.375,13.8 C19.95,12.075 17.85,11.175 15.6,11.175 C12.375,11.175 9.6,13.2 8.55,16.05 L8.4,16.05 C9.3,11.85 11.1,7.8 13.65,4.35 L14.1,3.675 C14.7,2.85 14.55,1.65 13.725,1.05 C12.9,0.45 11.7,0.6 11.1,1.425 L10.65,2.1 C10.2,2.7 9.75,3.375 9.375,3.975 C9.9,3.15 9.675,2.025 8.85,1.425 C8.025,0.825 6.825,1.05 6.225,1.95 C-4.275,17.625 3.3,26.4 3.3,32.775 C3.3,35.625 3.3,36.075 3.3,36.075 L14.1,36.075 L14.1,34.35 C14.1,29.25 14.775,27.45 18.45,25.95 C21,24.9 22.875,22.575 23.25,19.725 C23.25,18.6 22.5,17.625 21.525,17.55 Z" stroke="#101111" stroke-linecap="round" stroke-linejoin="round"></path>
                                <g transform="translate(0.750000, 33.000000)">
                                    <path d="M15.15,3.975 L15.15,13.35 C15.15,13.875 14.7,14.25 14.25,14.25 L1.575,14.25 C1.05,14.25 0.675,13.8 0.675,13.35 L0.675,3.975 C0.675,3.45 1.125,3.075 1.575,3.075 L14.25,3.075 C14.775,3 15.15,3.45 15.15,3.975 Z" stroke="#45413C" fill="#00CED9" fill-rule="nonzero" stroke-linejoin="round"></path>
                                    <path d="M1.575,3 C1.05,3 0.675,3.45 0.675,3.9 L0.675,13.275 C0.675,13.8 1.125,14.175 1.575,14.175 L3,14.175 L3,3 L1.575,3 Z" fill="#00E4F0" fill-rule="nonzero"></path>
                                    <path d="M15.15,3.975 L15.15,13.35 C15.15,13.875 14.7,14.25 14.25,14.25 L1.575,14.25 C1.05,14.25 0.675,13.8 0.675,13.35 L0.675,3.975 C0.675,3.45 1.125,3.075 1.575,3.075 L14.25,3.075 C14.775,3 15.15,3.45 15.15,3.975 Z" stroke="#101111" stroke-linejoin="round"></path>
                                    <path d="M14.25,3 L14.25,1.125 C14.25,0.6 13.8,0.225 13.35,0.225 L2.475,0.225 C1.95,0.225 1.575,0.675 1.575,1.125 L1.575,3 L14.25,3 Z" stroke="#101111" fill="#FFFFFF" fill-rule="nonzero" stroke-linecap="round" stroke-linejoin="round"></path>
                                </g>
                            </g>
                        </g>
                    </g>
                </g>
            </g>
        </g>
    </g>
</svg>