<?xml version="1.0" encoding="UTF-8"?>
<svg width="18px" height="16px" viewBox="0 0 18 16" version="1.1" xmlns="http://www.w3.org/2000/svg" xmlns:xlink="http://www.w3.org/1999/xlink">
    <!-- Generator: Sketch 55.1 (78136) - https://sketchapp.com -->
    <title></title>
    <desc>Created with Sketch.</desc>
    <g id="Page-1" stroke="none" stroke-width="1" fill="none" fill-rule="evenodd">
        <g id="Home-Copy-2" transform="translate(-965.000000, -651.000000)" fill="#FFFFFF" fill-rule="nonzero">
            <g id="Group-9" transform="translate(193.000000, 203.000000)">
                <g id="twitter" transform="translate(772.000000, 445.000000)">
                    <path d="M16.1366803,7.59377481 C16.1601179,7.68752477 16.1718364,7.83986797 16.1718364,8.05080497 C16.1718364,9.73830095 15.761681,11.3672031 14.9413706,12.9375121 C14.0976226,14.6015704 12.9140315,15.9257862 11.3905978,16.9101588 C9.72653949,18.0117185 7.81638744,18.5624987 5.66014276,18.5624987 C3.59764749,18.5624987 1.7109336,18.0117185 0,16.9101588 C0.257811707,16.9335965 0.550780116,16.945315 0.878904155,16.945315 C2.58983775,16.945315 4.12498999,16.4179725 5.48436192,15.3632875 C4.66405156,15.3632875 3.94335015,15.1230539 3.3222577,14.6425861 C2.70116526,14.1621183 2.27343226,13.5586045 2.03905764,12.8320436 C2.27343226,12.8554812 2.4960878,12.8671997 2.7070248,12.8671997 C3.03514883,12.8671997 3.36327341,12.8320436 3.69139745,12.7617312 C2.84764946,12.5742319 2.14452614,12.1406388 1.58202748,11.4609531 C1.01952882,10.7812674 0.73827949,10.0078317 0.73827949,9.14064612 L0.73827949,9.07033379 C1.25390344,9.37502074 1.80468302,9.53908249 2.3906193,9.56252012 C1.89843297,9.21095845 1.5,8.76564684 1.19530965,8.2265858 C0.890622698,7.68752477 0.73827949,7.09572894 0.73827949,6.45119941 C0.73827949,5.80666988 0.914060321,5.19143697 1.26562198,4.60550069 C2.1796823,5.75393563 3.29882008,6.66799595 4.62303585,7.34768165 C5.94725162,8.02736735 7.35935728,8.40236663 8.85935388,8.47267896 C8.81247917,8.19142964 8.78904155,7.91018031 8.78904155,7.62893098 C8.78904155,6.97268236 8.95310383,6.35744945 9.28122787,5.78323225 C9.60935191,5.20901505 10.0546635,4.75784389 10.6171622,4.42971985 C11.1796608,4.10159582 11.7890342,3.93753353 12.4452828,3.93753353 C12.9843439,3.93753353 13.4823897,4.04300203 13.9394199,4.25393902 C14.3964501,4.46487602 14.800746,4.74612535 15.1523076,5.09768701 C15.9960556,4.93362472 16.7812098,4.64065685 17.5077708,4.21878286 C17.2265214,5.08596847 16.6874604,5.76565417 15.8905871,6.2578405 C16.5937104,6.16409054 17.2968338,5.96487262 17.9999571,5.66018567 C17.4843331,6.4101837 16.8632412,7.05471377 16.1366803,7.59377481 Z" id=""></path>
                </g>
            </g>
        </g>
    </g>
</svg>