<?xml version="1.0" encoding="UTF-8"?>
<svg width="27px" height="27px" viewBox="0 0 27 27" version="1.1" xmlns="http://www.w3.org/2000/svg" xmlns:xlink="http://www.w3.org/1999/xlink">
    <!-- Generator: Sketch 55.2 (78181) - https://sketchapp.com -->
    <title>iconfinder_ui_-16_2813682</title>
    <desc>Created with Sketch.</desc>
    <g id="Page-1" stroke="none" stroke-width="1" fill="none" fill-rule="evenodd">
        <g id="iconfinder_ui_-16_2813682" fill-rule="nonzero">
            <path d="M20.6808511,16.0851064 L0,16.0851064 L0,7.1693617 C0,6.66440426 0.329744681,6.21804255 0.813446809,6.07040426 L19.1964255,0.453255319 C19.934617,0.22806383 20.6808511,0.78012766 20.6808511,1.55221277 L20.6808511,16.0851064 Z" id="Path" fill="#25C7D6"></path>
            <path d="M1.43617021,27 L25.2765957,27 C25.911383,27 26.4255319,26.4858511 26.4255319,25.8510638 L26.4255319,9.76595745 C26.4255319,9.13117021 25.911383,8.61702128 25.2765957,8.61702128 L1.44765957,8.61702128 C0.648,8.61702128 0,7.96902128 0,7.1693617 L0,7.1693617 L0,25.5638298 C0,26.3571702 0.642829787,27 1.43617021,27 Z" id="Path" fill="#FFFFFF"></path>
            <path d="M22.9787234,19.8191489 L26.4255319,19.8191489 L26.4255319,16.3723404 L22.9787234,16.3723404 C22.0268298,16.3723404 21.2553191,17.1438511 21.2553191,18.0957447 L21.2553191,18.0957447 C21.2553191,19.0476383 22.0268298,19.8191489 22.9787234,19.8191489 Z" id="Path" fill="#25C7D6"></path>
        </g>
    </g>
</svg>