<?xml version="1.0" encoding="UTF-8"?>
<svg width="27px" height="28px" viewBox="0 0 27 28" version="1.1" xmlns="http://www.w3.org/2000/svg" xmlns:xlink="http://www.w3.org/1999/xlink">
    <!-- Generator: Sketch 58 (84663) - https://sketch.com -->
    <title>wrench</title>
    <desc>Created with Sketch.</desc>
    <g id="Page-1" stroke="none" stroke-width="1" fill="none" fill-rule="evenodd" stroke-linecap="square">
        <g id="Update-Copy-6" transform="translate(-770.000000, -524.000000)" stroke="#101111">
            <g id="wrench" transform="translate(771.000000, 525.000000)">
                <path d="M12.4383333,9.17321429 L1.72083333,19.1383929 C0.92178292,19.8850707 0.449585783,20.9549729 0.417950337,22.0904595 C0.38631489,23.2259461 0.79810789,24.3241209 1.55416667,25.1205357 L1.55416667,25.1205357 C2.29748717,25.9305987 3.32245035,26.3718055 4.3822378,26.3379104 C5.44202525,26.3040152 6.44060066,25.7980897 7.1375,24.9419643 L16.4383333,13.4589286 C17.4288699,13.8339809 18.4991688,13.8959674 19.5216667,13.6375 C22.0224763,13.1457227 23.9793412,11.0490818 24.4383333,8.36964286 C24.6795695,7.27410939 24.6217155,6.12736058 24.2716667,5.06607143 L20.9383333,8.6375 L16.9383333,4.35178571 L20.2716667,0.780357143 C19.2811301,0.40530477 18.2108312,0.343318348 17.1883333,0.601785714 C14.7165366,1.15194396 12.7851477,3.22128923 12.2716667,5.86964286 C12.1166168,6.97150094 12.1733323,8.09568348 12.4383333,9.17321429 Z" id="Path"></path>
            </g>
        </g>
    </g>
</svg>