<?xml version="1.0" encoding="UTF-8"?>
<svg width="30px" height="34px" viewBox="0 0 30 34" version="1.1" xmlns="http://www.w3.org/2000/svg" xmlns:xlink="http://www.w3.org/1999/xlink">
    <!-- Generator: Sketch 57.1 (83088) - https://sketch.com -->
    <title>iconfinder_wrench_2963198 copy</title>
    <desc>Created with Sketch.</desc>
    <g id="Page-1" stroke="none" stroke-width="1" fill="none" fill-rule="evenodd">
        <g id="Update" transform="translate(-1071.000000, -534.000000)" fill="#414042" fill-rule="nonzero">
            <g id="iconfinder_wrench_2963198-copy" transform="translate(1071.000000, 534.000000)">
                <path d="M28.0013793,22.7668966 L26.7662069,21.6051724 C27.2782759,20.6917241 27.1572414,19.5155172 26.3813793,18.7386207 C26.0213793,18.3786207 25.5693103,18.1510345 25.0758621,18.0682759 L25.0965517,18.0496552 C26.0317241,17.1144828 26.0337931,15.5927586 25.0986207,14.6575862 C24.7210345,14.28 24.24,14.0431034 23.7206897,13.9748276 C24.3031034,13.0489655 24.1893103,11.8086207 23.3855172,11.0006897 C22.6055172,10.2268966 21.3206897,10.0975862 20.4113793,10.6696552 C20.3451724,10.1648276 20.1186207,9.67758621 19.7327586,9.29172414 C18.8255172,8.38448276 17.2458621,8.38448276 16.3406897,9.29172414 L15.0382759,10.5951724 L12.8203448,8.5137931 C13.4803448,6.30310345 12.897931,3.95793103 11.2655172,2.32551724 C9.67551724,0.737586207 7.32931034,0.137586207 5.13931034,0.76137931 L4.31689655,0.994137931 L5.9637931,2.64103448 L3.42931034,3.32172414 L2.74862069,5.85517241 L1.10172414,4.20827586 L0.868965517,5.02862069 C0.244137931,7.21862069 0.843103448,9.56689655 2.43103448,11.1548276 C4.06344828,12.7872414 6.41172414,13.3717241 8.61931034,12.7127586 L10.0117241,14.1941379 C9.84310345,14.1517241 9.67862069,14.1113793 9.51310345,14.0668966 C9.36827586,14.0286207 9.23482759,13.9882759 9.10965517,13.952069 C8.77965517,13.8527586 8.4662069,13.7575862 8.14551724,13.7575862 C6.94137931,13.7575862 6.21517241,14.8427586 4.05517241,19.8651724 C2.66275862,23.1 3.80275862,26.2582759 3.85241379,26.3917241 L10.8527586,33.4551724 L10.9717241,33.572069 L11.1310345,33.5958621 C11.1310345,33.5958621 11.2706897,33.6196552 11.5313793,33.6196552 C12.3682759,33.6196552 14.6027586,33.3693103 17.3555172,31.0551724 C17.55,30.93 17.8944828,30.6103448 18.7231034,29.787931 L21.782069,26.7289655 L22.8734483,27.8906897 C23.6834483,28.7575862 24.6982759,29.2448276 25.7306897,29.2624138 C25.7493103,29.2644828 25.7689655,29.2644828 25.7896552,29.2644828 C26.7186207,29.2644828 27.6103448,28.8848276 28.3034483,28.1917241 C29.0131034,27.482069 29.3906897,26.5675862 29.3741379,25.617931 C29.3555172,24.5896552 28.8682759,23.5748276 28.0013793,22.7668966 Z M4.24862069,4.14 L6.78103448,3.45931034 L8.63586207,5.3162069 L7.95724138,7.84965517 L5.42275862,8.52827586 L3.56896552,6.67137931 L4.24862069,4.14 Z M8.60172414,11.6637931 C6.66724138,12.3486207 4.57551724,11.88 3.14068966,10.4451724 C2.02137931,9.32586207 1.48862069,7.75137931 1.66137931,6.18413793 L5.12172414,9.64758621 L5.12275862,9.64758621 L5.1237931,9.64758621 L8.77448276,8.66793103 L9.75517241,5.01724138 L9.75517241,5.01517241 L9.75517241,5.01310345 L6.29482759,1.55172414 C7.86413793,1.38413793 9.43344828,1.9137931 10.5548276,3.03310345 C11.9896552,4.46793103 12.4541379,6.55862069 11.7713793,8.49206897 L11.6606897,8.80137931 L14.3275862,11.3027586 L11.4113793,14.217931 L8.91,11.5551724 L8.60172414,11.6637931 Z M18.0144828,29.0782759 C17.8789655,29.2137931 17.4103448,29.667931 17.0948276,29.9627586 L16.7637931,30.2431034 C14.1051724,32.4962069 12.032069,32.6337931 11.4310345,32.6131034 L4.76068966,25.9448276 C4.59103448,25.4172414 3.87,22.8351724 4.97689655,20.2613793 C6.76655172,16.0996552 7.53724138,14.762069 8.14551724,14.762069 C8.31827586,14.762069 8.54068966,14.8282759 8.82206897,14.9131034 C8.95655172,14.9513793 9.10034483,14.9958621 9.25758621,15.0362069 C9.66724138,15.1437931 10.0810345,15.2503448 10.4875862,15.3537931 L9.65793103,16.6024138 L10.4937931,17.1558621 L11.6855172,15.362069 L17.0472414,9.99931034 C17.5768966,9.47172414 18.4934483,9.4737931 19.0210345,9.99931034 C19.5641379,10.5444828 19.5641379,11.427931 19.0210345,11.9731034 L19.0210345,11.9731034 L19.0148276,11.9772414 L16.5475862,14.5427586 L17.2706897,15.237931 L19.7296552,12.6817241 L20.697931,11.7103448 C21.2275862,11.1868966 22.1482759,11.1868966 22.6737931,11.7082759 C23.2168966,12.2555172 23.2168966,13.1410345 22.6737931,13.6841379 L21.7055172,14.6524138 C21.7055172,14.6544828 21.7055172,14.6544828 21.7034483,14.6544828 L19.3251724,17.0182759 L20.0327586,17.73 L22.4110345,15.3662069 L22.4131034,15.3662069 C22.9386207,14.8386207 23.8593103,14.8386207 24.3868966,15.3662069 C24.93,15.9093103 24.93,16.7948276 24.3848276,17.34 L22.9986207,18.7262069 L22.0593103,19.6013793 L22.7441379,20.3368966 L23.6834483,19.4617241 L23.6958621,19.4472414 C24.2255172,18.9217241 25.142069,18.9237931 25.6696552,19.4472414 C26.2127586,19.9924138 26.2127586,20.877931 25.6696552,21.4210345 L18.0144828,29.0782759 Z M27.5937931,27.4841379 C27.0806897,27.9972414 26.46,28.29 25.7472414,28.262069 C24.9796552,28.2475862 24.24,27.8844828 23.6058621,27.2058621 L22.4927586,26.0203448 L26.13,22.3831034 L27.3175862,23.4982759 C27.992069,24.1324138 28.3582759,24.87 28.3706897,25.6355172 C28.3841379,26.3131034 28.1068966,26.9710345 27.5937931,27.4841379 Z" id="Shape"></path>
                <path d="M24.4655172,24.3651724 C23.8065517,25.0262069 23.8065517,26.0989655 24.4655172,26.7589655 C24.7851724,27.0786207 25.2093103,27.2544828 25.6613793,27.2544828 C26.1134483,27.2544828 26.5386207,27.0786207 26.8551724,26.7589655 C27.1768966,26.4372414 27.3517241,26.0131034 27.3517241,25.5610345 C27.3517241,25.11 27.1758621,24.6858621 26.8562069,24.3672414 C26.222069,23.7268966 25.1048276,23.7268966 24.4655172,24.3651724 Z M26.1465517,26.0503448 C25.887931,26.3089655 25.4348276,26.3110345 25.1751724,26.0503448 C24.9062069,25.7813793 24.9062069,25.3427586 25.1751724,25.0748276 C25.3065517,24.9455172 25.4782759,24.8751724 25.6624138,24.8751724 C25.8444828,24.8751724 26.0182759,24.9455172 26.1475862,25.0768966 C26.2789655,25.2062069 26.3513793,25.38 26.3513793,25.562069 C26.3513793,25.7472414 26.277931,25.9189655 26.1465517,26.0503448 Z" id="Shape"></path>
            </g>
        </g>
    </g>
</svg>