<?xml version="1.0" encoding="UTF-8"?>
<svg width="35px" height="40px" viewBox="0 0 35 40" version="1.1" xmlns="http://www.w3.org/2000/svg" xmlns:xlink="http://www.w3.org/1999/xlink">
    <!-- Generator: Sketch 57.1 (83088) - https://sketch.com -->
    <title>iconfinder_auto_service_men_worker_3096576</title>
    <desc>Created with Sketch.</desc>
    <g id="Page-1" stroke="none" stroke-width="1" fill="none" fill-rule="evenodd">
        <g id="Update-Copy-2" transform="translate(-835.000000, -728.000000)" fill-rule="nonzero">
            <g id="iconfinder_auto_service_men_worker_3096576" transform="translate(835.000000, 728.000000)">
                <g id="Group">
                    <rect id="Rectangle" fill="#4A5656" x="27.2272283" y="21.8671875" width="1" height="17.6796875"></rect>
                    <rect id="Rectangle" fill="#4A5656" x="6.16787997" y="21.8671875" width="1" height="17.6796875"></rect>
                    <path d="M18.1773793,29.1953125 L16.1188299,29.1953125 C12.9494407,29.1953125 10.378196,26.6015625 10.378196,23.421875 L10.378196,19.046875 L11.2792969,19.046875 L11.2792969,23.421875 C11.2792969,26.109375 13.4543679,28.296875 16.126598,28.296875 L18.1773793,28.296875 C20.8496094,28.296875 23.0246804,26.109375 23.0246804,23.421875 L23.0246804,19.046875 L23.9257813,19.046875 L23.9257813,23.421875 C23.9180131,26.6015625 21.3467685,29.1953125 18.1773793,29.1953125 Z" id="Path" fill="#4A5656"></path>
                    <path d="M17.1675249,18.265625 C15.2488015,18.265625 13.4310636,17.3515625 12.0483398,15.6953125 C10.6733842,14.0546875 9.91987749,11.890625 9.91987749,9.6015625 L9.91987749,8.515625 L10.8209783,8.515625 L10.8209783,9.6015625 C10.8209783,13.8046875 13.7262518,17.359375 17.1675249,17.359375 C20.6087979,17.359375 23.5140714,13.8125 23.5140714,9.609375 L23.5140714,8.546875 L24.4151722,8.546875 L24.4151722,9.609375 C24.4151722,11.8984375 23.6616655,14.0546875 22.2867099,15.703125 C20.9039862,17.3515625 19.0862482,18.265625 17.1675249,18.265625 Z" id="Path" fill="#4A5656"></path>
                    <path d="M33.8223544,40 C33.5737749,40 33.371804,39.796875 33.371804,39.546875 C33.371804,39.1015625 33.092152,34.7265625 32.5949929,27.5390625 C32.5017756,26.140625 31.7405007,24.859375 30.5597479,24.109375 L23.4829989,19.609375 C21.7507102,21.25 19.5756392,22.1171875 17.1597567,22.1171875 C14.7438743,22.1171875 12.5688033,21.25 10.8365146,19.609375 L3.75976562,24.109375 C2.57901278,24.859375 1.81773793,26.140625 1.7245206,27.5390625 C1.22736151,34.7265625 0.947709517,39.1015625 0.947709517,39.546875 C0.947709517,39.796875 0.745738636,40 0.497159091,40 C0.248579545,40 0.0466086648,39.796875 0.0466086648,39.546875 C0.0466086648,38.90625 0.535999645,31.7109375 0.823419744,27.4765625 C0.939941406,25.7890625 1.85657848,24.25 3.27037464,23.34375 L10.9530362,18.4609375 L11.2093839,18.71875 C12.8096147,20.3515625 14.860396,21.2109375 17.1519886,21.2109375 C19.4358132,21.2109375 21.4943626,20.3515625 23.0945934,18.71875 L23.3509411,18.4609375 L31.0336026,23.34375 C32.4551669,24.2421875 33.371804,25.7890625 33.4805575,27.4765625 C33.7679776,31.7109375 34.2573686,38.90625 34.2573686,39.546875 C34.2729048,39.796875 34.0709339,40 33.8223544,40 Z" id="Path" fill="#4A5656"></path>
                    <path d="M13.1747159,12.0390625 C12.2503107,12.0390625 11.356978,11.625 10.7666016,10.875 C9.88103693,9.734375 9.91987749,8.265625 9.9276456,8.078125 L9.9276456,7.390625 C9.9276456,5.359375 10.7044567,3.4296875 12.0638761,2.09375 C13.4310636,0.7421875 15.2488015,0 17.1675249,0 C19.0862482,0 20.9039862,0.7421875 22.2789418,2.09375 C23.6383612,3.421875 24.4151722,5.3515625 24.4151722,7.390625 L24.4151722,8.3984375 C24.4229403,8.578125 24.4462447,9.75 23.5762163,10.8671875 C22.7294922,11.9609375 21.2302468,12.3359375 19.9407404,11.78125 C19.210538,11.46875 18.1385387,11.1015625 17.175293,11.1015625 C16.2120472,11.1015625 15.1400479,11.4765625 14.4098455,11.78125 C14.0059038,11.953125 13.5864258,12.0390625 13.1747159,12.0390625 Z M10.8209783,8.1171875 C10.8209783,8.1328125 10.7588335,9.3984375 11.4734996,10.3125 C12.0716442,11.078125 13.1281072,11.34375 14.0525124,10.953125 C14.860396,10.609375 16.0489169,10.1953125 17.1675249,10.1953125 L17.1675249,10.1953125 L17.1675249,10.1953125 L17.1675249,10.1953125 C17.1675249,10.1953125 17.1675249,10.1953125 17.1675249,10.1953125 C18.2861328,10.1953125 19.4746538,10.609375 20.2825373,10.953125 C21.1991744,11.34375 22.2634055,11.0859375 22.8615501,10.3125 C23.5684482,9.40625 23.5140714,8.453125 23.5140714,8.4453125 L23.5140714,8.4140625 L23.5140714,7.390625 C23.5140714,5.6015625 22.8382457,3.90625 21.6497248,2.7421875 C20.4456676,1.5546875 18.8532049,0.90625 17.1675249,0.90625 C15.4818448,0.90625 13.8893821,1.5546875 12.6853249,2.7421875 C11.5045721,3.90625 10.8209783,5.6015625 10.8209783,7.390625 L10.8209783,8.1171875 Z" id="Shape" fill="#4A5656"></path>
                    <path d="M17.1675249,4.6640625 C18.8454368,4.6640625 20.4301314,5.3125 21.6341886,6.4921875 C21.7817827,6.6328125 21.9138406,6.78125 22.0458984,6.9375 C21.9526811,5.7109375 21.4477539,4.5703125 20.6398704,3.7734375 C19.7076971,2.859375 18.4725675,2.3515625 17.1675249,2.3515625 C15.8624822,2.3515625 14.6273526,2.859375 13.6951793,3.7734375 C12.8872958,4.5703125 12.3901367,5.703125 12.2891513,6.9375 C12.4212092,6.78125 12.553267,6.6328125 12.7008612,6.4921875 C13.9049183,5.3125 15.4896129,4.6640625 17.1675249,4.6640625 Z" id="Path" fill="#25CDD6"></path>
                </g>
                <path d="M8.51384943,39.546875 C8.51384943,38.1953125 8.51384943,36.84375 8.51384943,35.4921875 C14.1224254,37.328125 20.1660156,37.328125 25.7823597,35.4921875 C25.7823597,36.84375 25.7823597,38.1953125 25.7823597,39.546875 C20.0261896,39.546875 14.2700195,39.546875 8.51384943,39.546875 Z" id="Path" fill="#08CDD7"></path>
                <path d="M10.9996449,33.8828125 C10.9763406,33.8828125 10.9452681,33.8828125 10.9219638,33.875 C9.42271839,33.609375 7.92347301,33.2421875 6.4786044,32.765625 C6.24556108,32.6875 6.1135032,32.4296875 6.1911843,32.1953125 C6.26886541,31.9609375 6.52521307,31.828125 6.75825639,31.90625 C8.16428445,32.3671875 9.62468928,32.7265625 11.077326,32.984375 C11.3181374,33.0234375 11.4890359,33.2578125 11.4424272,33.5078125 C11.4035866,33.7265625 11.217152,33.8828125 10.9996449,33.8828125 Z" id="Path" fill="#4A5656"></path>
                <path d="M10.9996449,31.390625 C10.9763406,31.390625 10.9452681,31.390625 10.9219638,31.3828125 C9.42271839,31.1171875 7.92347301,30.75 6.4786044,30.2734375 C6.24556108,30.1953125 6.1135032,29.9375 6.1911843,29.703125 C6.26886541,29.46875 6.52521307,29.3359375 6.75825639,29.4140625 C8.16428445,29.875 9.62468928,30.234375 11.077326,30.4921875 C11.3181374,30.53125 11.4890359,30.765625 11.4424272,31.015625 C11.4035866,31.234375 11.217152,31.390625 10.9996449,31.390625 Z" id="Path" fill="#4A5656"></path>
                <path d="M22.0614347,33.8828125 C21.8439276,33.8828125 21.6574929,33.7265625 21.6186523,33.5078125 C21.5798118,33.265625 21.7429421,33.03125 21.9837536,32.984375 C23.4441584,32.7265625 24.8967951,32.3671875 26.3028232,31.90625 C26.5358665,31.828125 26.7922141,31.9609375 26.8698952,32.1953125 C26.9475763,32.4296875 26.8155185,32.6875 26.5824751,32.765625 C25.1298384,33.2421875 23.6383612,33.609375 22.1391158,33.875 C22.1158114,33.8828125 22.0925071,33.8828125 22.0614347,33.8828125 Z" id="Path" fill="#4A5656"></path>
                <path d="M22.0614347,31.390625 C21.8439276,31.390625 21.6574929,31.234375 21.6186523,31.015625 C21.5798118,30.7734375 21.7429421,30.5390625 21.9837536,30.4921875 C23.4441584,30.234375 24.8967951,29.875 26.3028232,29.4140625 C26.5358665,29.3359375 26.7922141,29.46875 26.8698952,29.703125 C26.9475763,29.9375 26.8155185,30.1953125 26.5824751,30.2734375 C25.1298384,30.75 23.6383612,31.1171875 22.1391158,31.3828125 C22.1158114,31.3828125 22.0925071,31.390625 22.0614347,31.390625 Z" id="Path" fill="#4A5656"></path>
            </g>
        </g>
    </g>
</svg>