<?xml version="1.0" encoding="UTF-8"?>
<svg width="60px" height="60px" viewBox="0 0 60 60" version="1.1" xmlns="http://www.w3.org/2000/svg" xmlns:xlink="http://www.w3.org/1999/xlink">
    <!-- Generator: Sketch 56 (81588) - https://sketch.com -->
    <title>2</title>
    <desc>Created with Sketch.</desc>
    <g id="Page-1" stroke="none" stroke-width="1" fill="none" fill-rule="evenodd">
        <g id="Update-Copy-16" transform="translate(-559.000000, -826.000000)" fill-rule="nonzero">
            <g id="2" transform="translate(559.000000, 826.000000)">
                <g id="iconfinder_101_3575776">
                    <circle id="Oval" fill="#BCF9FA" cx="30" cy="30" r="29.5384615"></circle>
                    <g id="Group" transform="translate(8.307692, 25.846154)">
                        <path d="M21.1384615,10.9846154 L10.0615385,22.0615385 C8.12307692,24 4.89230769,24 2.86153846,22.0615385 C0.923076923,20.1230769 0.923076923,16.8923077 2.86153846,14.8615385 L11.6307692,6.09230769 L16.7076923,1.01538462 L20.3076923,4.61538462 L24.3692308,8.67692308 L21.1384615,10.9846154 Z" id="Path" fill-opacity="0.98" fill="#FFF9D2"></path>
                        <path d="M6.46153846,24.4615385 C4.89230769,24.4615385 3.41538462,23.9076923 2.21538462,22.7076923 C-0.0923076923,20.4 -0.0923076923,16.5230769 2.21538462,14.2153846 L15.9692308,0.461538462 C16.3384615,0.0923076923 16.8923077,0.0923076923 17.2615385,0.461538462 L24.8307692,8.03076923 C25.0153846,8.21538462 25.1076923,8.49230769 25.1076923,8.76923077 C25.1076923,9.04615385 24.9230769,9.32307692 24.7384615,9.41538462 L21.6923077,11.6307692 L10.6153846,22.7076923 C9.50769231,23.9076923 8.03076923,24.4615385 6.46153846,24.4615385 Z M16.7076923,2.4 L3.50769231,15.5076923 C1.84615385,17.1692308 1.84615385,19.7538462 3.50769231,21.4153846 C5.16923077,23.0769231 7.75384615,23.0769231 9.41538462,21.4153846 L20.4923077,10.3384615 C20.4923077,10.3384615 20.5846154,10.2461538 20.5846154,10.2461538 L22.8923077,8.58461538 L16.7076923,2.4 Z" id="Shape" fill="#000000"></path>
                    </g>
                    <g id="Group" transform="translate(8.307692, 9.230769)">
                        <path d="M8.95384615,1.75384615 L15.5076923,8.30769231 L14.0307692,13.9384615 L8.30769231,15.5076923 L1.75384615,8.95384615 C0.738461538,12.4615385 1.66153846,16.3384615 4.43076923,19.1076923 C6.46153846,21.1384615 9.04615385,22.1538462 11.6307692,22.1538462 C13.0153846,22.1538462 14.3076923,21.8769231 15.6,21.4153846 L33.2307692,38.9538462 C34.8,40.5230769 37.3846154,40.5230769 38.9538462,38.9538462 C40.5230769,37.3846154 40.5230769,34.8 38.9538462,33.2307692 L21.3230769,15.6 C22.8,11.9076923 22.0615385,7.47692308 19.0153846,4.43076923 C16.3384615,1.66153846 12.4615385,0.830769231 8.95384615,1.75384615 Z" id="Path" fill="#FFFFFF"></path>
                        <path d="M36.0923077,41.0769231 C34.8,41.0769231 33.5076923,40.6153846 32.5846154,39.6 L15.3230769,22.4307692 C14.1230769,22.8 12.8307692,23.0769231 11.5384615,22.9846154 C8.58461538,22.9846154 5.81538462,21.7846154 3.69230769,19.6615385 C0.923076923,16.8 -0.184615385,12.6461538 0.923076923,8.67692308 C1.01538462,8.4 1.29230769,8.12307692 1.56923077,8.03076923 C1.84615385,7.93846154 2.21538462,8.03076923 2.49230769,8.30769231 L8.67692308,14.4923077 L13.2923077,13.2923077 L14.4923077,8.67692308 L8.30769231,2.4 C8.03076923,2.12307692 7.93846154,1.84615385 8.03076923,1.47692308 C8.12307692,1.10769231 8.4,0.923076923 8.67692308,0.830769231 C12.5538462,-0.276923077 16.8,0.830769231 19.6615385,3.69230769 C22.7076923,6.73846154 23.7230769,11.2615385 22.3384615,15.3230769 L39.5076923,32.4923077 C41.4461538,34.4307692 41.4461538,37.5692308 39.5076923,39.5076923 C38.6769231,40.6153846 37.3846154,41.0769231 36.0923077,41.0769231 Z M15.6,20.4 C15.8769231,20.4 16.0615385,20.4923077 16.2461538,20.6769231 L33.8769231,38.3076923 C35.0769231,39.5076923 37.1076923,39.5076923 38.3076923,38.3076923 C39.5076923,37.1076923 39.5076923,35.0769231 38.3076923,33.8769231 L20.6769231,16.2461538 C20.4,15.9692308 20.3076923,15.6 20.4923077,15.2307692 C21.8769231,11.7230769 21.0461538,7.75384615 18.3692308,5.07692308 C16.3384615,3.04615385 13.5692308,2.12307692 10.8,2.4 L16.0615385,7.66153846 C16.3384615,7.93846154 16.4307692,8.21538462 16.3384615,8.58461538 L14.8615385,14.2153846 C14.7692308,14.4923077 14.4923077,14.7692308 14.2153846,14.8615385 L8.58461538,16.3384615 C8.30769231,16.4307692 7.93846154,16.3384615 7.66153846,16.0615385 L2.4,10.8 C2.12307692,13.5692308 3.13846154,16.3384615 5.07692308,18.3692308 C6.83076923,20.1230769 9.13846154,21.1384615 11.6307692,21.1384615 C12.9230769,21.1384615 14.1230769,20.9538462 15.2307692,20.4923077 C15.3230769,20.4 15.5076923,20.4 15.6,20.4 Z" id="Shape" fill="#000000"></path>
                    </g>
                    <path d="M31.9384615,28.0615385 C31.6615385,28.0615385 31.4769231,27.9692308 31.2923077,27.7846154 C30.9230769,27.4153846 30.9230769,26.8615385 31.2923077,26.4923077 L47.8153846,9.96923077 C48.1846154,9.6 48.7384615,9.6 49.1076923,9.96923077 C49.4769231,10.3384615 49.4769231,10.8923077 49.1076923,11.2615385 L32.5846154,27.7846154 C32.4,27.9692308 32.2153846,28.0615385 31.9384615,28.0615385 Z" id="Path" fill="#000000"></path>
                </g>
            </g>
        </g>
    </g>
</svg>