<?xml version="1.0" encoding="UTF-8"?>
<svg width="39px" height="40px" viewBox="0 0 39 40" version="1.1" xmlns="http://www.w3.org/2000/svg" xmlns:xlink="http://www.w3.org/1999/xlink">
    <!-- Generator: Sketch 57.1 (83088) - https://sketch.com -->
    <title>iconfinder_38_5100444</title>
    <desc>Created with Sketch.</desc>
    <g id="Page-1" stroke="none" stroke-width="1" fill="none" fill-rule="evenodd">
        <g id="Update-Copy-2" transform="translate(-602.000000, -728.000000)" fill-rule="nonzero">
            <g id="iconfinder_38_5100444" transform="translate(602.000000, 728.000000)">
                <g id="Group" transform="translate(2.543478, 4.271548)" fill="#25CDD6">
                    <path d="M5.35690435,32.3632159 C5.35690435,33.7857269 4.21064348,34.9410953 2.79053478,34.9410953 C2.38849565,34.9410953 2.01206087,34.846267 1.6784413,34.6737818 C1.51591304,34.3375256 1.43036739,33.9668406 1.43036739,33.5701846 C1.43036739,32.1476735 2.57662826,31.0009336 3.99673696,31.0009336 C4.39021304,31.0009336 4.76664783,31.0871335 5.10026739,31.2595332 C5.2713587,31.5958749 5.35690435,31.9665599 5.35690435,32.3632159 Z" id="Path"></path>
                    <path d="M19.3691804,32.3632159 C19.3691804,33.7857269 18.2229196,34.9410953 16.8028109,34.9410953 C16.4007717,34.9410953 16.024337,34.846267 15.6907174,34.6737818 C15.5281891,34.3375256 15.4426435,33.9668406 15.4426435,33.5701846 C15.4426435,31.63654 17.5033696,30.4278627 19.1125435,31.2596186 C19.2836348,31.5958749 19.3691804,31.9665599 19.3691804,32.3632159 Z" id="Path"></path>
                    <polygon id="Path" points="5.03261087 25.092955 5.03261087 20.7353776 3.67507174 20.7353776 0.778728261 24.1023829 0.778728261 25.092955"></polygon>
                    <path d="M35.5200978,9.95552708 C35.5200978,16.8357101 30.2816348,22.6552677 23.3470109,23.2069809 L23.3470109,16.1975408 C23.3470109,15.2452418 22.581,14.4732021 21.6360978,14.4732021 L12.8249804,14.4732021 C12.8235391,14.4718352 12.8226065,14.4708955 12.8211652,14.4695286 C12.6135326,10.7891625 13.900787,7.40789016 16.1184457,4.89459649 C18.53085,2.13568879 22.0723891,0.419978642 25.9989261,0.411350114 L26.0160522,0.411350114 C28.7106978,0.411350114 31.2256891,1.22174828 33.3216,2.62708772 C34.7159348,4.7221968 35.5200978,7.24830511 35.5200978,9.95552708 Z" id="Path"></path>
                </g>
                <path d="M38.4874043,14.2266484 C38.4874043,6.67745538 32.3920435,0.514294432 24.8468152,0.514294432 C24.839863,0.514379863 24.8343522,0.513525553 24.828587,0.513525553 C17.2503783,0.531551487 11.2062261,6.70872311 11.2062261,14.2267338 C11.2062261,15.6136201 11.4279326,16.9852143 11.8412478,18.3181083 L10.996813,18.3181083 C9.81943696,18.3181083 8.86232609,19.2825385 8.86232609,20.4689184 L8.86232609,22.8557742 L6.21863478,22.8557742 C5.59929783,22.8557742 5.0115,23.1260778 4.60496739,23.5982548 L1.70879348,26.965431 C1.37263043,27.3567048 1.18721087,27.856476 1.18721087,28.3736751 L1.18721087,32.1394722 C0.520565217,32.1475027 -8.47826087e-05,32.6754661 -8.47826087e-05,33.3501998 L-8.47826087e-05,35.1864531 C-8.47826087e-05,35.8546941 0.538878261,36.3978642 1.20213261,36.3978642 L2.37433696,36.3978642 C2.36806304,36.4774005 2.35051304,36.5536903 2.35051304,36.6347643 C2.35051304,38.2916979 3.69016304,39.6390297 5.33698043,39.6390297 C6.98295,39.6390297 8.3226,38.2916979 8.3226,36.6347643 C8.3226,36.5536049 8.30513478,36.477315 8.29877609,36.3978642 L16.3850022,36.3978642 C16.3787283,36.4774005 16.3611783,36.5536903 16.3611783,36.6347643 C16.3611783,38.2916979 17.7008283,39.6390297 19.3476457,39.6390297 C20.9936152,39.6390297 22.3332652,38.2916979 22.3332652,36.6347643 C22.3332652,36.5536049 22.3158,36.477315 22.3094413,36.3978642 L25.1036217,36.3978642 C25.7717935,36.3978642 26.3149109,35.8547796 26.3149109,35.1864531 C26.3149109,34.9678352 26.3149109,27.7657483 26.3149109,27.8542548 C33.3533935,27.0977635 38.4874043,21.1355362 38.4874043,14.2266484 Z M28.2485478,26.6227674 C29.6927348,25.4262212 30.906737,23.4705355 31.7066609,20.9966255 C32.6064587,21.5767872 33.4302913,22.2563905 34.1544196,23.0374005 C32.5181152,24.7914691 30.5090217,25.9996339 28.2485478,26.6227674 Z M18.1801043,18.3180229 C17.9600935,17.1467643 17.8526739,15.9152769 17.8298674,14.6538032 L24.4229022,14.6538032 L24.4229022,18.1510053 C23.8078043,18.1696293 23.1998283,18.2161037 22.6197457,18.3180229 C21.4023522,18.3180229 17.958737,18.3180229 18.1801043,18.3180229 Z M17.4664043,12.2226941 C17.2395261,12.2043265 17.0308761,12.3853547 17.0151913,12.6206316 C16.9898413,13.0049001 16.9839065,13.4023249 16.9771239,13.7994935 L12.0734674,13.7994935 C12.1671522,10.9614767 13.1872565,8.24767658 14.98185,6.0612418 C15.7997478,6.93058734 16.7295587,7.68186728 17.7431348,8.30440275 C17.5034543,9.1768238 17.3094717,10.0687231 17.1817043,10.9671152 C17.1485543,11.2006834 17.3092174,11.4175927 17.541013,11.4509962 C17.7653478,11.4777361 17.9873087,11.322508 18.0212217,11.0889397 C18.1327109,10.3037437 18.3017674,9.5260656 18.502363,8.76077498 C18.962987,9.00339893 19.4361587,9.2226148 19.9222174,9.40953776 C20.1432457,9.49377269 20.3858935,9.38450648 20.4694891,9.16341114 C20.5530848,8.94231579 20.4438,8.69533486 20.2252304,8.61195423 C19.7126348,8.4146087 19.2186913,8.17420595 18.7367022,7.911164 C19.9151804,4.1006865 22.0449196,1.66231579 24.4230717,1.39628375 L24.4230717,9.45473074 C23.5200522,9.42517162 22.6320391,9.32051869 21.7851457,9.10574523 C21.5549609,9.04568726 21.3273196,9.18664836 21.2710239,9.41526163 C21.2130326,9.6438749 21.351313,9.87581998 21.5781913,9.93331503 C22.4929109,10.1657727 23.4486652,10.2919542 24.4230717,10.3217696 L24.4230717,13.7994935 L17.82495,13.7994935 C17.8318174,13.4226575 17.8374978,13.0452235 17.8615761,12.6772723 C17.8770913,12.4421663 17.6998957,12.2385843 17.4664043,12.2226941 Z M21.4264304,1.85556064 C19.9936043,3.04381998 18.7884196,4.9762685 17.9885804,7.46367658 C17.0918348,6.89069108 16.2595239,6.21612815 15.5321739,5.43434935 C17.1040435,3.74230359 19.0398,2.52021358 21.4264304,1.85556064 Z M34.1523848,5.43434935 C33.4185065,6.22039969 32.5867891,6.88983677 31.6959783,7.45966133 C30.8935109,4.96763997 29.6829848,3.03322654 28.2403239,1.8463341 C30.6072,2.50107704 32.5500783,3.70941266 34.1523848,5.43434935 Z M37.620163,13.7994935 L32.7070109,13.7994935 C32.6728435,11.8866087 32.4131543,10.0086651 31.9454087,8.31499619 C32.9535587,7.6954508 33.8793848,6.93827613 34.7058457,6.06312128 C36.5039152,8.24554081 37.5263935,10.9587429 37.620163,13.7994935 Z M34.7102543,22.4008543 C33.8950696,21.5333028 32.9716174,20.7762136 31.9527,20.1447079 C32.4159522,18.4424104 32.6733522,16.5651503 32.7070957,14.6538032 L37.620163,14.6538032 C37.526563,17.4952372 36.5060348,20.2114294 34.7102543,22.4008543 Z M25.2707283,1.39654005 C27.6395543,1.6642807 29.7703957,4.10222426 30.9492978,7.91278719 C29.2186304,8.85910603 27.2769391,9.3911701 25.2707283,9.45840427 L25.2707283,1.39654005 Z M28.1163717,18.5291228 C27.2128435,18.2972632 26.2414891,18.1689458 25.2707283,18.1385324 L25.2707283,14.6538032 L28.995737,14.6538032 C29.2300761,14.6538032 29.41965,14.4627796 29.41965,14.2266484 C29.41965,13.9905172 29.2300761,13.7994935 28.995737,13.7994935 L25.2707283,13.7994935 L25.2707283,10.3119451 C27.3545152,10.2464195 29.3686109,9.70154081 31.1790587,8.7445431 C31.592713,10.3117742 31.8258652,12.0348314 31.8590152,13.7995789 L30.604487,13.7995789 C30.3701478,13.7995789 30.1805739,13.9906026 30.1805739,14.2267338 C30.1805739,14.462865 30.3701478,14.6538886 30.604487,14.6538886 L31.8596935,14.6538886 C31.8280696,16.4080427 31.5978848,18.1323814 31.1883,19.7089245 C30.7164848,19.4597223 30.2394978,19.2320488 29.7598826,19.0513623 C29.541313,18.9687506 29.2962065,19.0805797 29.2142217,19.3024439 C29.132237,19.5235393 29.2440652,19.7696659 29.4633978,19.8522777 C29.9638696,20.0400549 30.462137,20.2802014 30.9527739,20.5484546 C29.9531022,23.7574981 28.2614348,26.04346 26.3147413,26.809434 L26.3147413,20.468833 C26.3147413,19.9138734 26.099563,19.412479 25.7558543,19.0306026 C26.491937,19.0824592 27.2228478,19.1813883 27.9077217,19.3566926 C28.1284957,19.4149565 28.363937,19.2808299 28.4226913,19.0480305 C28.4806826,18.8194172 28.34325,18.5866178 28.1163717,18.5291228 Z M12.0713478,14.6538032 L16.9732239,14.6538032 C16.9948435,15.9110908 17.1134543,17.1387338 17.3260043,18.3180229 C17.2024761,18.3180229 12.615313,18.3180229 12.7189174,18.3180229 C12.3230674,17.1257483 12.1125522,15.8958841 12.0713478,14.6538032 Z M2.03495217,28.3736751 C2.03495217,28.0616812 2.14669565,27.7604516 2.34958043,27.5244058 L5.24575435,24.1580839 C5.49086087,23.8735988 5.84516739,23.7100839 6.21863478,23.7100839 L8.86232609,23.7100839 L8.86232609,32.1380198 L2.03495217,32.1380198 L2.03495217,28.3736751 Z M5.33689565,38.7847201 C4.1579087,38.7847201 3.19825435,37.8202899 3.19825435,36.6347643 C3.19825435,34.5247048 5.59938261,34.3923722 5.34842609,34.4851503 C6.52944783,34.4917285 7.47460435,35.4839237 7.47460435,36.6347643 C7.47468913,37.8202899 6.51588261,38.7847201 5.33689565,38.7847201 Z M19.3475609,38.7847201 C18.1685739,38.7847201 17.2089196,37.8202899 17.2089196,36.6347643 C17.2089196,35.5007536 18.1491587,34.4844668 19.3467978,34.4840397 C19.3496804,34.4840397 19.3523087,34.4848085 19.3551913,34.4848085 C20.5265478,34.4889092 21.4853543,35.4682899 21.4853543,36.6348497 C21.4853543,37.8202899 20.5265478,38.7847201 19.3475609,38.7847201 Z M25.1034522,35.5435545 L22.1269891,35.5435545 C21.6869674,34.3816934 20.5413848,33.6328909 19.3526478,33.6302426 C19.3508674,33.6302426 19.3492565,33.62973 19.3475609,33.62973 C18.0970174,33.62973 16.9905196,34.4500381 16.5672848,35.5435545 L8.11547609,35.5435545 C7.6698587,34.3734066 6.52291957,33.6345141 5.34461087,33.6304989 C5.34198261,33.6304989 5.33952391,33.62973 5.33689565,33.62973 C4.0755,33.62973 2.97264783,34.4567872 2.5550087,35.5435545 L1.20204783,35.5435545 C1.00331739,35.5435545 0.847656522,35.3867033 0.847656522,35.1864531 L0.847656522,33.3501998 C0.847656522,33.1457635 1.00001087,32.9923295 1.20204783,32.9923295 C3.43785,32.9923295 -4.37588478,32.9923295 11.6301391,32.9923295 C11.8644783,32.9923295 12.0540522,32.8013059 12.0540522,32.5651747 C12.0540522,32.3290435 11.8644783,32.1380198 11.6301391,32.1380198 L9.71015217,32.1380198 L9.71015217,23.2828436 L9.71015217,20.468833 C9.71015217,19.7538612 10.2872674,19.1723326 10.996813,19.1723326 C11.2163152,19.1723326 14.7787957,19.1723326 14.6796,19.1723326 L15.5274261,19.1723326 C15.6963978,19.1723326 19.8235304,19.1723326 19.6498109,19.1723326 L20.4977217,19.1723326 L24.1796609,19.1723326 C24.8892065,19.1723326 25.4671696,19.7539466 25.4671696,20.4689184 C25.4671696,22.1402286 25.4671696,23.7238636 25.4671696,25.5208333 C25.4671696,27.3849883 25.4671696,29.4787287 25.4671696,32.1381053 L17.2074783,32.1381053 C16.9731391,32.1381053 16.7835652,32.3291289 16.7835652,32.5652601 C16.7835652,32.8013913 16.9731391,32.992415 17.2074783,32.992415 L25.4671696,32.992415 L25.4671696,35.186624 C25.4669152,35.3833715 25.3038783,35.5435545 25.1034522,35.5435545 Z" id="Shape" fill="#014E52"></path>
                <path d="M7.57566522,24.5801983 L6.21863478,24.5801983 C6.09612391,24.5801983 5.97853043,24.6335927 5.8982413,24.7279085 L3.00206739,28.0942304 C2.93500435,28.1718017 2.89854783,28.2710725 2.89854783,28.3736751 L2.89854783,29.3648452 C2.89854783,29.6009764 3.08812174,29.792 3.32246087,29.792 L7.57566522,29.792 C7.81000435,29.792 7.99957826,29.6009764 7.99957826,29.3648452 L7.99957826,25.0073532 C7.99957826,24.771222 7.81000435,24.5801983 7.57566522,24.5801983 Z M7.15175217,28.9376903 L3.74637391,28.9376903 L3.74637391,28.5330892 L6.41236304,25.434508 L7.15175217,25.434508 L7.15175217,28.9376903 Z" id="Shape" fill="#014E52"></path>
                <path d="M15.3426848,32.1380198 L13.4946783,32.1380198 C13.2603391,32.1380198 13.0707652,32.3290435 13.0707652,32.5651747 C13.0707652,32.8013059 13.2603391,32.9923295 13.4946783,32.9923295 L15.3426848,32.9923295 C15.5770239,32.9923295 15.7665978,32.8013059 15.7665978,32.5651747 C15.7665978,32.3290435 15.5770239,32.1380198 15.3426848,32.1380198 Z" id="Path" fill="#014E52"></path>
            </g>
        </g>
    </g>
</svg>