<?xml version="1.0" encoding="UTF-8"?>
<svg width="30px" height="24px" viewBox="0 0 30 24" version="1.1" xmlns="http://www.w3.org/2000/svg" xmlns:xlink="http://www.w3.org/1999/xlink">
    <!-- Generator: Sketch 57.1 (83088) - https://sketch.com -->
    <title>iconfinder_worldwide_shipping_delivery_around_world_global_globe_2958335</title>
    <desc>Created with Sketch.</desc>
    <g id="Page-1" stroke="none" stroke-width="1" fill="none" fill-rule="evenodd">
        <g id="Update" transform="translate(-1071.000000, -708.000000)" fill="#414042" fill-rule="nonzero">
            <g id="iconfinder_worldwide_shipping_delivery_around_world_global_globe_2958335" transform="translate(1071.000000, 708.000000)">
                <path d="M25.2144282,6.39106752 C23.1363712,2.35179359 19.0338359,0.0267791786 14.7759625,0.00536239286 C14.7545181,0.00536239286 14.7277451,0 14.7063344,0 C14.6795614,0 14.6527893,0.00536239286 14.6313449,0.00536239286 C12.8478517,0.0214168393 11.0376181,0.439289679 9.35052498,1.3071442 C3.57694693,4.28571429 1.29539995,11.4053454 4.26786761,17.1803611 C4.48744087,17.6035636 4.73918127,18.0053493 5.00161066,18.3964102 C6.7261658,18.2624817 9.03451779,17.7321298 11.7606394,16.6928427 C11.701733,16.6982051 11.6374663,16.7035675 11.5785272,16.7089299 C11.3428698,15.4071481 11.1929246,13.9339338 11.1661516,12.3214286 L18.2411548,12.3214286 C18.2357945,12.7714102 18.2197442,13.2160623 18.1929711,13.6499896 C18.5785737,13.4303611 18.9374359,13.2160623 19.3016277,13.0017635 C19.3069554,12.7714102 19.3176781,12.5464194 19.3176781,12.3214286 L20.3942013,12.3214286 C20.9565537,11.9571468 21.4921352,11.603557 21.9902209,11.25 L19.3176781,11.25 C19.290905,9.72319468 19.1516488,8.1856973 18.8999421,6.75534932 C20.5120121,6.57855445 22.1134267,6.29464286 23.6880357,5.90891159 C23.8968883,6.21963504 24.0897213,6.54105054 24.2664406,6.87855316 C24.587809,7.50536239 24.8395157,8.14819339 25.032316,8.81250659 C25.3429638,8.52856232 25.6214762,8.24998045 25.8839056,7.9821233 C25.6964636,7.44107925 25.48222,6.90536496 25.2144282,6.39106752 Z M14.6902503,1.07679096 C14.700973,1.07679096 14.7063344,1.07142857 14.7170561,1.07142857 C15.7828576,1.08212062 16.9236476,2.87678309 17.6145335,5.80179487 C15.6757348,5.95714023 13.7315726,5.95714023 11.7981332,5.80179487 C12.4836598,2.88214548 13.6244498,1.09284536 14.6902503,1.07679096 Z M5.7782093,17.6464299 C5.5800472,17.3357064 5.39257409,17.0196206 5.22118446,16.6874803 C4.50352446,15.2892739 4.12861093,13.8000052 4.0589828,12.3214286 L10.0896294,12.3214286 C10.1164014,13.8482012 10.2610189,15.3856986 10.5127266,16.8107169 C8.92206632,16.9874791 7.34209607,17.266061 5.7782093,17.6464299 Z M10.0896294,11.25 L4.0589828,11.25 C4.16074479,9.35355048 4.75523164,7.51605445 5.78889879,5.92499871 C7.34745739,6.30533491 8.92206632,6.57855445 10.5127266,6.75534932 C10.261019,8.1856973 10.1164014,9.72319468 10.0896294,11.25 Z M10.721611,5.70000782 C9.29161854,5.54462973 7.87231618,5.30891416 6.46909682,4.98749866 C7.36886914,3.88929091 8.49893743,2.95179091 9.83788902,2.26069854 C10.7001993,1.8160792 11.5946103,1.5053558 12.4943825,1.31250648 C11.7177834,2.3410688 11.1286579,3.89998302 10.721611,5.70000782 Z M11.1661516,11.25 C11.1929246,9.63749475 11.3428698,8.15891812 11.5785272,6.86249871 C12.6175557,6.94819859 13.6619446,6.99106489 14.7063344,6.99106489 C15.7507243,6.99106489 16.7897518,6.94819859 17.8341089,6.86249871 C18.0697652,8.15891812 18.2143818,9.63749475 18.2411548,11.25 L11.1661516,11.25 Z M18.6910568,5.70000782 C18.2840109,3.88929091 17.6841627,2.32498168 16.9022022,1.29641941 C19.2534113,1.78393773 21.4278684,3.05357796 23.0078377,4.97141159 C21.583175,5.30355182 20.1424926,5.54462979 18.6910568,5.70000782 Z" id="Shape"></path>
                <path d="M26.4998368,11.1053467 C26.0392121,11.5124948 25.5518471,11.9196429 25.0376783,12.3214286 L25.4340015,12.3214286 C25.3858178,13.2374791 25.2305112,14.1535623 24.9412761,15.048196 C24.6413531,15.985696 24.2182568,16.8589129 23.6933654,17.6624843 C22.1134268,17.2714233 20.5120121,16.9928414 18.8999421,16.8107169 C18.9320755,16.633922 18.9588485,16.4517648 18.9909819,16.2696402 C18.6482007,16.4571272 18.3107839,16.6392844 17.9733651,16.8160793 C17.3895999,17.1214076 16.8111624,17.4053519 16.2380872,17.6839338 C16.6986792,17.6999882 17.1539436,17.7267674 17.6145336,17.7642713 C16.9236476,20.7000078 15.7774953,22.4946376 14.7063344,22.4946376 C13.8440568,22.4946376 12.9389232,21.3375092 12.2587252,19.3714142 C11.9159461,19.4946507 11.5731986,19.6124921 11.2411084,19.7250039 C11.5838885,20.7374791 12.0070175,21.6053663 12.4997429,22.258922 C12.1569638,22.1839142 11.8141835,22.0928519 11.4767658,21.9857025 C10.4109642,21.6428375 9.42551448,21.1446272 8.53643116,20.5124882 C8.06511745,20.625 7.60452643,20.726787 7.15998477,20.8071245 C8.31685779,21.7821284 9.66649939,22.5321415 11.1500686,23.0035727 C12.3337146,23.383909 13.5494614,23.5714286 14.7545181,23.5714286 C16.6076395,23.5714286 18.4446777,23.1321389 20.1371322,22.258922 C22.9328482,20.8178493 25.0055449,18.3749935 25.9642553,15.3750065 C26.4087643,13.9767674 26.5801539,12.530365 26.4998368,11.1053467 Z M19.6443741,21.3053349 C18.7660462,21.7607117 17.8448296,22.0767648 16.9022022,22.2696468 C17.6841627,21.2410518 18.2840109,19.6767752 18.6910568,17.8660584 C20.1371322,18.0214364 21.583175,18.2678441 23.0078377,18.594622 C22.0919834,19.7035544 20.9619141,20.6303624 19.6443741,21.3053349 Z" id="Shape"></path>
                <path d="M29.7347321,3.28929354 C29.4274541,2.68406459 28.7056099,1.96279248 27.0125341,1.73901145 L27.8818723,1.39817368 C28.1572478,1.29014143 28.2929727,0.979123714 28.184967,0.703680804 C28.0766998,0.428761018 27.7673292,0.291693482 27.4906478,0.400510446 L25.0381687,1.36233734 C24.8443855,1.43845688 24.7044753,1.60874496 24.6642024,1.81774682 C24.6236678,2.02701021 24.689831,2.2375815 24.8420333,2.3811885 L26.7686073,4.19628686 C26.8719046,4.29359432 27.0039694,4.34198652 27.1357726,4.34198652 C27.278037,4.34198652 27.4202993,4.28548538 27.5256912,4.1735295 C27.7283641,3.95824977 27.7184261,3.61924307 27.5029379,3.41625761 L26.8504286,2.80144827 C27.8443786,2.92932782 28.5256556,3.26509746 28.781384,3.77677918 C29.8043612,5.79107014 25.3590468,10.8428519 17.1057251,15.1553454 C10.1056797,18.8142831 4.530297,19.7089168 2.30762341,19.00177 C1.76135325,18.8250078 1.38643993,18.5571507 1.20968925,18.1981986 C0.872270679,17.5392805 1.16150529,16.4892687 2.02378259,15.241078 C2.10946104,15.1232038 2.13623357,14.9785505 2.11482214,14.8392923 C2.08804961,14.7000013 2.00769959,14.5767648 1.88988723,14.4964273 C1.79884768,14.4321442 1.69708596,14.4000026 1.5846023,14.4000026 C1.55246866,14.4000026 1.52033529,14.4000026 1.48820164,14.405365 C1.34894545,14.4321442 1.22577225,14.5124817 1.14542196,14.6303559 C-0.263158339,16.6660636 -0.118541036,17.9571206 0.251011018,18.6803546 C0.566985482,19.3017687 1.15078307,19.7517831 1.980927,20.0196403 C2.57541413,20.2124896 3.29846764,20.3089142 4.13933357,20.3089142 C4.13933357,20.3089142 4.13933357,20.3089142 4.14466221,20.3089142 C7.53489777,20.3089142 12.5640111,18.7339129 17.5984836,16.1035701 C24.7431155,12.3749869 31.4271538,6.61069596 29.7347321,3.28929354 Z" id="Path"></path>
            </g>
        </g>
    </g>
</svg>