<?xml version="1.0" encoding="UTF-8"?>
<svg width="39px" height="39px" viewBox="0 0 39 39" version="1.1" xmlns="http://www.w3.org/2000/svg" xmlns:xlink="http://www.w3.org/1999/xlink">
    <!-- Generator: Sketch 59.1 (86144) - https://sketch.com -->
    <title>Privacy</title>
    <desc>Created with Sketch.</desc>
    <defs>
        <linearGradient x1="100%" y1="27.5332544%" x2="0%" y2="62.20865%" id="linearGradient-1">
            <stop stop-color="#25C7D6" offset="0%"></stop>
            <stop stop-color="#00F2FF" offset="100%"></stop>
        </linearGradient>
    </defs>
    <g id="MOST-UPDATED-UI" stroke="none" stroke-width="1" fill="none" fill-rule="evenodd">
        <g id="LANDING-PAGE-MỚI" transform="translate(-701.000000, -51.000000)">
            <g id="Privacy" transform="translate(702.000000, 52.000000)">
                <g id="Group-7" transform="translate(0.500000, 0.500000)">
                    <path d="M17.9086422,35.8172843 C8.01802062,35.8172843 -1.11910481e-13,27.7993613 -1.11910481e-13,17.9086422 C-1.11910481e-13,8.01792309 8.01802062,-8.8817842e-15 17.9086422,-8.8817842e-15 C21.6637292,-8.8817842e-15 25.1488944,1.15572561 28.0278269,3.13088203 C32.7317897,6.35814152 35.8172843,11.7730472 35.8172843,17.9086422 C35.8172843,27.7993613 27.7992637,35.8172843 17.9086422,35.8172843 Z" id="Fill-725" stroke="url(#linearGradient-1)" stroke-width="2" fill="#101111"></path>
                    <g id="Group-10" transform="translate(8.518798, 9.338021)" stroke="#00E9FF">
                        <path d="M18.6798801,8.24159922 C16.6543799,9.079501 13.1857602,9.57973211 9.40128017,9.57973211 C5.62212171,9.57973211 2.153544,9.07952195 0.122805988,8.24166208 C0.0425838016,8.20855916 0.00438974425,8.11668811 0.0374926574,8.03646592 C0.0705955705,7.95624373 0.162508532,7.91807063 0.242667865,7.95115259 C2.23734884,8.7741371 5.66113287,9.26546395 9.40128017,9.26546395 C13.1466443,9.26546395 16.5703655,8.77415805 18.5597458,7.95119449 C18.6399261,7.91800777 18.7318181,7.95613898 18.7650048,8.03631926 C18.7981706,8.1165205 18.7600603,8.20843346 18.6798801,8.24159922 M3.36628389,8.55322753 L5.07171245,0.172743199 C5.09128088,0.0766399948 5.19318757,0.0218106761 5.28407392,0.0581819781 L9.41594602,1.7109392 L13.5478391,0.0581819781 C13.6389349,0.0217478224 13.7409883,0.0769123606 13.7602843,0.173246028 L15.4363812,8.55373036 C15.4533936,8.63883418 15.3981872,8.72161242 15.3131043,8.73864575 C15.2280005,8.75574194 15.1452222,8.70045169 15.1282098,8.61536883 L13.4891547,0.420114145 L9.47429514,2.02606636 C9.43683438,2.04106743 9.39503671,2.04104647 9.35757594,2.02606636 L5.34215068,0.419883682 L3.67424574,8.61589261 C3.65698194,8.70070311 3.57422466,8.7558886 3.48893228,8.73854099 C3.40389131,8.72123529 3.34897819,8.6382685 3.36628389,8.55322753 M13.5915223,16.8078998 C12.2918768,16.8078998 11.2345111,15.7505341 11.2345111,14.4508886 C11.2345111,13.1512431 12.2918768,12.0938774 13.5915223,12.0938774 C14.8911678,12.0938774 15.9485336,13.1512431 15.9485336,14.4508886 C15.9485336,15.7505341 14.8911678,16.8078998 13.5915223,16.8078998 M5.211038,16.8078998 C3.91137154,16.8078998 2.85402678,15.7505341 2.85402678,14.4508886 C2.85402678,13.1512431 3.91137154,12.0938774 5.211038,12.0938774 C6.51070447,12.0938774 7.56804922,13.1512431 7.56804922,14.4508886 C7.56804922,15.7505341 6.51070447,16.8078998 5.211038,16.8078998 M13.5915223,11.7796092 C12.2492411,11.7796092 11.1352024,12.7748127 10.9480662,14.0660777 C10.0597767,13.3083772 8.74238554,13.3088591 7.85470369,14.0676491 C7.66825886,12.7756298 6.55386396,11.7796092 5.211038,11.7796092 C3.73808408,11.7796092 2.53975862,12.9779347 2.53975862,14.4508886 C2.53975862,15.9238426 3.73808408,17.122168 5.211038,17.122168 C6.68309103,17.122168 7.88082985,15.9252882 7.88227548,14.4535913 C7.90293338,14.4459651 7.92235515,14.4340229 7.93894851,14.4174295 C8.32979335,14.0265847 8.84948813,13.8113529 9.40232773,13.8113529 C9.95514638,13.8113529 10.4748621,14.0265847 10.865686,14.4174295 C10.8817137,14.4334572 10.9004022,14.4452109 10.9202639,14.452858 C10.9213324,15.9249111 12.1192179,17.122168 13.5915223,17.122168 C15.0644763,17.122168 16.2628017,15.9238426 16.2628017,14.4508886 C16.2628017,12.9779347 15.0644763,11.7796092 13.5915223,11.7796092" id="Fill-8"></path>
                    </g>
                </g>
            </g>
        </g>
    </g>
</svg>