<?xml version="1.0" encoding="UTF-8"?>
<svg width="108px" height="104px" viewBox="0 0 108 104" version="1.1" xmlns="http://www.w3.org/2000/svg" xmlns:xlink="http://www.w3.org/1999/xlink">
    <!-- Generator: Sketch 56 (81588) - https://sketch.com -->
    <title>Group 25</title>
    <desc>Created with Sketch.</desc>
    <g id="Page-1" stroke="none" stroke-width="1" fill="none" fill-rule="evenodd">
        <g id="Update-Copy-19" transform="translate(-308.000000, -1220.000000)">
            <g id="Group-25" transform="translate(291.000000, 1205.000000)">
                <path d="M117,65.6382688 C117,42.4542691 80.1115375,19 59.4617539,19 C38.8119703,19 22,33.4003524 22,57.3221457 C22,81.2439389 25.3612359,122.365503 67.6009022,118.780186 C109.840569,115.19487 117,88.8222686 117,65.6382688 Z" id="Path-13" fill="#1B73E8" transform="translate(69.500000, 69.000000) rotate(-315.000000) translate(-69.500000, -69.000000) "></path>
                <g id="Group-9" transform="translate(38.000000, 29.000000)" fill-rule="nonzero">
                    <path d="M43.2953968,78.961039 C31.1563492,78.961039 19.0171284,78.961039 6.87808076,78.961039 C3.4013708,78.961039 1.12898985,76.7845887 1.07080803,73.3255411 C1.03202015,70.8574892 1.01262621,68.4090043 1.10959591,65.9411255 C1.22613271,63.0261472 2.6439682,60.791342 5.16898985,59.4116017 C13.4624963,54.8838095 21.7947907,50.452987 30.088124,45.9445887 C30.690202,45.6141991 31.0592063,45.9251948 31.5059595,46.1582684 C38.595137,49.8699567 45.8204184,50.1809524 53.2010245,47.0910823 C53.4147041,47.0133333 53.6477777,46.9549784 53.8224963,46.7996537 C55.3568686,45.4976623 56.7359163,46.0223377 58.3284704,46.8967965 C65.7672582,50.9970563 73.2644011,55.0197403 80.761544,59.0228571 C84.0051803,60.752381 85.5977344,63.3563636 85.5395526,67.0292641 C85.5007647,69.1085714 85.5395526,71.1684848 85.5395526,73.2477922 C85.5201587,76.6874459 83.2282106,78.961039 79.8098556,78.961039 C67.6320202,78.961039 55.4540115,78.961039 43.2953968,78.961039 Z" id="Path" fill="#FFFFFF"></path>
                    <path d="M79.8098556,80 L6.87825392,80 C2.85037513,80 0.0992062988,77.3246753 0.0320201516,73.3430303 C-0.0114430518,70.5840693 -0.0214863419,68.2632035 0.0716738313,65.9002597 C0.202236602,62.6315152 1.79253963,60.0727273 4.67098119,58.4999134 C9.19271279,56.0311688 13.7999855,53.5516883 18.2552236,51.1537662 C21.9740115,49.152381 25.8193795,47.0827706 29.5921933,45.0318615 C30.6131457,44.4720346 31.4077777,44.9154978 31.8346176,45.1539394 C31.8846608,45.1819913 31.9352236,45.2103896 31.9869985,45.2374026 C38.8496825,48.830303 45.6573015,49.1229437 52.7998124,46.1328139 C52.8150505,46.1264069 52.8304617,46.1205195 52.845873,46.1148052 C52.8912409,46.098355 52.9373015,46.0824242 52.9837085,46.0666667 C53.0418903,46.0467532 53.119466,46.0202597 53.155137,46.0036364 C55.2256132,44.2502165 57.1693362,45.0751515 58.8289033,45.9861472 C66.352886,50.1335065 74.0519336,54.2623377 81.2512409,58.1064935 C84.8495093,60.0252814 86.6422366,63.0329004 86.5786868,67.0458874 C86.5530591,68.4212987 86.5617171,69.8161039 86.570202,71.1650216 C86.5743578,71.8581818 86.57886,72.5520346 86.57886,73.2479654 C86.5556565,77.2888312 83.8354834,80 79.8098556,80 Z M30.5977344,46.8502165 C30.5946176,46.8517749 30.5913275,46.8535065 30.5876911,46.8554113 C26.8077777,48.910303 22.9603318,50.9809524 19.2398124,52.9833766 C14.7869985,55.3797403 10.1826695,57.8578355 5.66665219,60.3234632 C3.43305911,61.5440693 2.24898985,63.4481385 2.14769115,65.9825108 C2.05678206,68.297316 2.06647903,70.5856277 2.10942275,73.3090909 C2.15825392,76.1972294 3.9409379,77.9220779 6.87825392,77.9220779 L79.8100288,77.9220779 C82.6434487,77.9220779 84.4846608,76.0850216 84.5007647,73.2419048 C84.5007647,72.5561905 84.4964357,71.8666667 84.4921067,71.1778355 C84.4836219,69.8162771 84.4746176,68.4083117 84.5009379,67.0098701 C84.5525396,63.7527273 83.2089898,61.5052814 80.272886,59.9397403 C73.0668253,56.0919481 65.3603318,51.9591342 57.8271717,47.8067532 C56.1229292,46.8711688 55.4055266,46.8225108 54.5014574,47.5864935 C54.2053535,47.845368 53.8879509,47.9537662 53.6552236,48.0332468 C53.6292496,48.0420779 53.6031024,48.0510823 53.5774747,48.0600866 C45.9444011,51.2477922 38.3566955,50.9177489 31.0242279,47.0787879 C30.9558297,47.0431169 30.888124,47.005368 30.8209379,46.9677922 C30.7487301,46.927619 30.6555699,46.8754978 30.5977344,46.8502165 Z" id="Shape" fill="#055054"></path>
                    <g id="XMLID_63_" transform="translate(20.606046, 61.991342)" fill="#055054">
                        <path d="M2.33593074,0.134891775 C3.45264069,0.134891775 4.30995671,0.331255411 4.90822511,0.724155844 C5.50597403,1.11722944 5.80536797,1.76051948 5.80536797,2.65437229 C5.80536797,3.55549784 5.50268398,4.20606061 4.89731602,4.60623377 C4.29229437,5.00623377 3.42770563,5.20623377 2.30337662,5.20623377 L1.77402597,5.20623377 L1.77402597,7.71515152 L0.0877922078,7.71515152 L0.0877922078,0.32952381 C0.455584416,0.257489177 0.844329004,0.207099567 1.25506494,0.178008658 C1.66597403,0.149264069 2.02614719,0.134891775 2.33593074,0.134891775 Z M2.44398268,1.57298701 C2.32155844,1.57298701 2.2008658,1.57679654 2.08190476,1.58372294 C1.96311688,1.59116883 1.8604329,1.5982684 1.77385281,1.60554113 L1.77385281,3.76831169 L2.30320346,3.76831169 C2.88709957,3.76831169 3.32640693,3.68917749 3.62181818,3.53021645 C3.91705628,3.37177489 4.06493506,3.07619048 4.06493506,2.64363636 C4.06493506,2.43463203 4.02718615,2.26164502 3.95134199,2.12450216 C3.87584416,1.98770563 3.76761905,1.87774892 3.62718615,1.79480519 C3.48675325,1.71203463 3.315671,1.65419913 3.11376623,1.62181818 C2.91220779,1.58926407 2.68883117,1.57298701 2.44398268,1.57298701 Z" id="Shape"></path>
                    </g>
                    <g id="XMLID_66_" transform="translate(27.532453, 61.991342)" fill="#055054">
                        <path d="M2.31549784,0.134891775 C3.43982684,0.134891775 4.30060606,0.334891775 4.89887446,0.734891775 C5.49662338,1.13506494 5.79584416,1.75688312 5.79584416,2.60017316 C5.79584416,3.12640693 5.67515152,3.55376623 5.43376623,3.88155844 C5.19220779,4.20969697 4.84484848,4.46735931 4.39082251,4.65471861 C4.5421645,4.84225108 4.7004329,5.05662338 4.86632035,5.29818182 C5.03186147,5.53974026 5.19601732,5.79203463 5.35809524,6.05506494 C5.52017316,6.3182684 5.67688312,6.59220779 5.82805195,6.87688312 C5.9795671,7.1617316 6.12,7.44103896 6.24987013,7.71497835 L4.36484848,7.71497835 C4.22770563,7.46995671 4.08831169,7.22112554 3.94735931,6.96883117 C3.80640693,6.71670996 3.66147186,6.47151515 3.51341991,6.23341991 C3.36519481,5.995671 3.2187013,5.77038961 3.07393939,5.55757576 C2.92935065,5.34510823 2.7847619,5.15203463 2.64,4.97904762 L1.80796537,4.97904762 L1.80796537,7.71497835 L0.122077922,7.71497835 L0.122077922,0.329350649 C0.48952381,0.257316017 0.86961039,0.206926407 1.2621645,0.177835498 C1.65437229,0.149264069 2.00571429,0.134891775 2.31549784,0.134891775 Z M2.41298701,1.57298701 C2.29021645,1.57298701 2.1804329,1.57679654 2.08329004,1.58372294 C1.98597403,1.59116883 1.89419913,1.5982684 1.80761905,1.60554113 L1.80761905,3.6382684 L2.28311688,3.6382684 C2.91705628,3.6382684 3.37090909,3.5591342 3.64484848,3.40051948 C3.91861472,3.24207792 4.05558442,2.97177489 4.05558442,2.58943723 C4.05558442,2.22181818 3.91670996,1.96051948 3.63930736,1.80554113 C3.36207792,1.65056277 2.95341991,1.57298701 2.41298701,1.57298701 Z" id="Shape"></path>
                    </g>
                    <g id="XMLID_69_" transform="translate(34.805180, 62.164502)" fill="#055054">
                        <polygon id="Path" points="0.0576623377 0.0481385281 1.74354978 0.0481385281 1.74354978 7.54199134 0.0576623377 7.54199134"></polygon>
                    </g>
                    <g id="XMLID_71_" transform="translate(37.402583, 62.164502)" fill="#055054">
                        <path d="M3.11428571,7.54199134 C2.81627706,6.91255411 2.52225108,6.25939394 2.23220779,5.58233766 C1.9421645,4.90562771 1.66666667,4.235671 1.40571429,3.57316017 C1.14458874,2.91064935 0.904761905,2.27636364 0.685887446,1.67047619 C0.467186147,1.06458874 0.278095238,0.523809524 0.118961039,0.0483116883 L1.9778355,0.0483116883 C2.11792208,0.482251082 2.27393939,0.949437229 2.44554113,1.44969697 C2.6169697,1.94978355 2.79186147,2.44848485 2.96987013,2.94528139 C3.14805195,3.44225108 3.31861472,3.9182684 3.48155844,4.37333333 C3.64467532,4.82839827 3.8008658,5.22147186 3.95012987,5.55238095 C4.09090909,5.22354978 4.24484848,4.83151515 4.41160173,4.37645022 C4.57835498,3.92155844 4.75099567,3.44554113 4.92900433,2.94857143 C5.10701299,2.45177489 5.2817316,1.95324675 5.45316017,1.45298701 C5.6247619,0.952900433 5.78095238,0.484675325 5.9217316,0.0483116883 L7.71688312,0.0483116883 C7.54891775,0.526233766 7.35584416,1.06770563 7.13766234,1.67220779 C6.9191342,2.27688312 6.68051948,2.91082251 6.42095238,3.57402597 C6.16155844,4.2374026 5.88796537,4.90770563 5.6,5.58545455 C5.31186147,6.26320346 5.01904762,6.91532468 4.72225108,7.54199134 L3.11428571,7.54199134 Z" id="Path"></path>
                    </g>
                    <g id="XMLID_73_" transform="translate(44.502150, 62.164502)" fill="#055054">
                        <path d="M5.90112554,7.54199134 C5.81766234,7.28155844 5.72831169,7.01419913 5.63220779,6.7395671 C5.53645022,6.46528139 5.44069264,6.19186147 5.34580087,5.91982684 L2.42060606,5.91982684 C2.32606061,6.19307359 2.23134199,6.46701299 2.13627706,6.74181818 C2.04121212,7.01662338 1.95255411,7.28329004 1.87064935,7.54181818 L0.11982684,7.54181818 C0.401558442,6.73437229 0.669090909,5.98839827 0.921904762,5.30337662 C1.17471861,4.6187013 1.4221645,3.97350649 1.66458874,3.36796537 C1.90666667,2.76225108 2.14510823,2.18753247 2.37991342,1.64311688 C2.61489177,1.09887446 2.85887446,0.567272727 3.11168831,0.0481385281 L4.71012987,0.0481385281 C4.95601732,0.567272727 5.19861472,1.09887446 5.43757576,1.64311688 C5.67636364,2.18753247 5.91722944,2.76225108 6.15965368,3.36796537 C6.40225108,3.97350649 6.65004329,4.6187013 6.90337662,5.30337662 C7.15670996,5.98857143 7.42458874,6.73454545 7.70683983,7.54181818 L5.90112554,7.54181818 L5.90112554,7.54199134 Z M3.875671,1.74597403 C3.83809524,1.85471861 3.7830303,2.00277056 3.71064935,2.19012987 C3.63809524,2.37748918 3.555671,2.59393939 3.46320346,2.83930736 C3.37056277,3.08484848 3.26701299,3.35532468 3.15272727,3.65038961 C3.03861472,3.94562771 2.92225108,4.25506494 2.80415584,4.57904762 L4.94580087,4.57904762 C4.83116883,4.25419913 4.72034632,3.94354978 4.61298701,3.64761905 C4.50562771,3.35151515 4.40329004,3.08069264 4.30666667,2.83497835 C4.21004329,2.58961039 4.12519481,2.37333333 4.05229437,2.18614719 C3.97922078,1.9991342 3.92034632,1.85246753 3.875671,1.74597403 Z" id="Shape"></path>
                    </g>
                    <g id="XMLID_76_" transform="translate(52.467518, 61.991342)" fill="#055054">
                        <path d="M3.84848485,7.86666667 C2.63099567,7.86666667 1.70337662,7.52796537 1.06545455,6.85021645 C0.428051948,6.17264069 0.109264069,5.21021645 0.109264069,3.96294372 C0.109264069,3.3430303 0.206406926,2.78978355 0.401038961,2.30320346 C0.595670996,1.81662338 0.861991342,1.40588745 1.20069264,1.07047619 C1.53922078,0.735238095 1.94285714,0.481212121 2.41125541,0.308225108 C2.87965368,0.135238095 3.38753247,0.0486580087 3.93506494,0.0486580087 C4.25212121,0.0486580087 4.5404329,0.072034632 4.79965368,0.118961039 C5.05904762,0.165887446 5.28606061,0.21991342 5.48069264,0.281212121 C5.67532468,0.342510823 5.8374026,0.405541126 5.96709957,0.47047619 C6.09662338,0.535238095 6.19047619,0.585800866 6.24813853,0.621991342 L5.7617316,1.98441558 C5.53108225,1.86199134 5.26268398,1.7574026 4.95636364,1.67082251 C4.65021645,1.58424242 4.30268398,1.54112554 3.91359307,1.54112554 C3.65419913,1.54112554 3.40017316,1.58424242 3.15151515,1.67082251 C2.90285714,1.7574026 2.68311688,1.8961039 2.49229437,2.08709957 C2.3012987,2.2782684 2.14805195,2.52519481 2.03290043,2.82770563 C1.9174026,3.13056277 1.86008658,3.49818182 1.86008658,3.93073593 C1.86008658,4.27670996 1.8978355,4.59948052 1.97367965,4.89852814 C2.04917749,5.19774892 2.17160173,5.45541126 2.34095238,5.67168831 C2.51030303,5.88796537 2.73194805,6.05922078 3.00571429,6.18528139 C3.27948052,6.31151515 3.61090909,6.37454545 4.00017316,6.37454545 C4.24502165,6.37454545 4.4647619,6.36017316 4.65922078,6.33125541 C4.85385281,6.30251082 5.02701299,6.26839827 5.17800866,6.22857143 C5.32935065,6.18909091 5.46251082,6.1438961 5.5778355,6.09333333 C5.69316017,6.04277056 5.79774892,5.99601732 5.89142857,5.95272727 L6.35601732,7.30441558 C6.11809524,7.44865801 5.78337662,7.57852814 5.35099567,7.69367965 C4.91861472,7.80865801 4.41748918,7.86666667 3.84848485,7.86666667 Z" id="Path"></path>
                    </g>
                    <g id="XMLID_78_" transform="translate(59.220765, 62.164502)" fill="#055054">
                        <path d="M3.68571429,3.1217316 C3.98891775,2.61125541 4.27722944,2.10077922 4.55134199,1.59047619 C4.82562771,1.08 5.07792208,0.565714286 5.30891775,0.0481385281 L7.16779221,0.0481385281 C6.75705628,0.855584416 6.33194805,1.63792208 5.89246753,2.39480519 C5.45298701,3.15168831 4.98822511,3.91220779 4.49835498,4.67636364 L4.49835498,7.54199134 L2.81212121,7.54199134 L2.81212121,4.69800866 C2.32225108,3.93402597 1.85593074,3.16969697 1.41264069,2.40571429 C0.96952381,1.64155844 0.542510823,0.855757576 0.131948052,0.0483116883 L2.08813853,0.0483116883 C2.3182684,0.565887446 2.56640693,1.08017316 2.83290043,1.59064935 C3.09922078,2.10077922 3.38354978,2.61125541 3.68571429,3.1217316 Z" id="Path"></path>
                    </g>
                    <g id="XMLID_80_" transform="translate(26.493492, 11.948052)">
                        <g id="XMLID_81_">
                            <g id="Group">
                                <path d="M28.4654545,1.164329 L5.20831169,1.164329 L4.81177489,1.164329 C2.73471861,1.164329 1.04969697,2.85471861 1.05419013,4.93281385 L1.05419013,21.454026 C1.05419013,23.5321212 2.74372294,25.2180087 4.82077922,25.2180087 L28.24,25.2045022 C30.3170563,25.2045022 32.0020779,23.5186147 31.9975848,21.4405195 L31.9975848,4.91480519 C31.9975848,2.91774892 30.4342857,1.28606061 28.4654545,1.164329 Z" id="Path" fill="#FFF9D2"></path>
                                <path d="M4.82164502,26.2569697 C2.17108225,26.2569697 0.015398284,24.1023377 0.015398284,21.454026 L0.015398284,4.93281385 C0.0124675325,3.65160173 0.510649351,2.44363636 1.41818182,1.53437229 C2.32484848,0.625627706 3.53004329,0.125367965 4.81212121,0.125367965 L28.4656277,0.125367965 C28.4870996,0.125367965 28.5083983,0.126060606 28.529697,0.127272727 C31.0571429,0.283636364 33.0368946,2.38649351 33.0368946,4.91480519 L33.0368946,21.4405195 C33.0396537,22.7205195 32.5421645,23.9267532 31.6360173,24.8348052 C30.7295238,25.7433766 29.5236364,26.2436364 28.2403463,26.2436364 L4.82164502,26.2569697 Z M4.81194805,2.20329004 C4.08606061,2.20329004 3.40294372,2.48692641 2.88917749,3.00207792 C2.37437229,3.51792208 2.09194805,4.20277056 2.09332826,4.93056277 L2.09332826,21.454026 C2.09332826,22.95671 3.31688312,24.1790476 4.82095238,24.1790476 L28.2394805,24.1655411 C28.9674459,24.1655411 29.6510823,23.8819048 30.1650216,23.3669264 C30.6784416,22.8524675 30.9603463,22.1691775 30.9587943,21.4427706 L30.9587943,4.91480519 C30.9587943,3.49160173 29.8509091,2.30632035 28.4306494,2.20329004 L4.81194805,2.20329004 Z" id="Shape" fill="#055054"></path>
                            </g>
                        </g>
                    </g>
                    <g id="XMLID_82_" transform="translate(32.727258, 0.000000)" fill="#055054">
                        <path d="M19.4221645,11.2126407 C18.8484848,11.2126407 18.3832035,10.7473593 18.3832035,10.1736797 C18.3832035,5.70961039 14.7535931,2.07792208 10.2921212,2.07792208 C5.83082251,2.07792208 2.20121212,5.70978355 2.20121212,10.1736797 C2.20121212,10.7473593 1.73593074,11.2126407 1.16225108,11.2126407 C0.588571429,11.2126407 0.123290043,10.7473593 0.123290043,10.1736797 C0.123290043,4.56380952 4.68502165,0 10.2921212,0 C15.8993939,0 20.4611255,4.56380952 20.4611255,10.1736797 C20.4611255,10.7475325 19.9960173,11.2126407 19.4221645,11.2126407 Z" id="Path"></path>
                    </g>
                </g>
            </g>
        </g>
    </g>
</svg>