<?xml version="1.0" encoding="UTF-8"?>
<svg width="119px" height="98px" viewBox="0 0 119 98" version="1.1" xmlns="http://www.w3.org/2000/svg" xmlns:xlink="http://www.w3.org/1999/xlink">
    <!-- Generator: Sketch 56 (81588) - https://sketch.com -->
    <title>Group 23</title>
    <desc>Created with Sketch.</desc>
    <g id="Page-1" stroke="none" stroke-width="1" fill="none" fill-rule="evenodd">
        <g id="Update-Copy-19" transform="translate(-668.000000, -1219.000000)">
            <g id="Group-23" transform="translate(657.000000, 1199.000000)">
                <path d="M115.382815,63.7715248 C115.382815,40.5212832 78.3457055,17 57.6127109,17 C36.8797163,17 20,31.4414975 20,55.4316406 C20,79.4217838 23.3747804,120.660841 65.784657,117.065281 C108.194534,113.469721 115.382815,87.0217664 115.382815,63.7715248 Z" id="Path-13-Copy-2" fill="#1B73E8" transform="translate(67.691407, 67.142861) rotate(-60.000000) translate(-67.691407, -67.142861) "></path>
                <g id="XMLID_254_" transform="translate(11.000000, 23.000000)" fill-rule="nonzero">
                    <ellipse id="Oval" fill="#FFFFFF" cx="36.9854884" cy="13.9168372" rx="35.7497674" ry="12.8005581"></ellipse>
                    <path d="M36.9854884,27.8334884 C27.3114419,27.8334884 18.200186,26.4788837 11.3304186,24.0189767 C4.10102326,21.4303256 0.119627907,17.8426047 0.119627907,13.9166512 C0.119627907,9.99069767 4.10102326,6.40297674 11.3304186,3.81432558 C18.2003721,1.35460465 27.3114419,0 36.9854884,0 C46.6597209,0 55.7707907,1.35460465 62.6407442,3.81451163 C69.8699535,6.40316279 73.8515349,9.99088372 73.8515349,13.9168372 C73.8515349,17.8427907 69.8701395,21.4305116 62.6407442,24.0191628 C55.7709767,26.4788837 46.6597209,27.8334884 36.9854884,27.8334884 Z M36.9854884,2.23255814 C27.5614884,2.23255814 18.7175814,3.54083721 12.0829767,5.91646512 C5.8987907,8.1307907 2.352,11.0466977 2.352,13.9168372 C2.352,16.7869767 5.8987907,19.7028837 12.0829767,21.9172093 C18.7175814,24.2928372 27.5614884,25.6011163 36.9854884,25.6011163 C46.4096744,25.6011163 55.2535814,24.2928372 61.888,21.9172093 C68.072186,19.7028837 71.6189767,16.7869767 71.6189767,13.9168372 C71.6189767,11.0466977 68.0723721,8.1307907 61.888,5.91646512 C55.2535814,3.54083721 46.4096744,2.23255814 36.9854884,2.23255814 Z" id="Shape" fill="#053A54"></path>
                    <path d="M37.0842791,26.6422326 C17.3402791,26.6422326 1.34046512,20.9112558 1.34046512,13.8416744 L1.34046512,29.9051163 C1.34046512,36.9955349 17.327814,42.7056744 37.0842791,42.7056744 C56.8407442,42.7056744 72.827907,36.9955349 72.827907,29.9051163 L72.827907,13.8416744 C72.827907,20.9112558 56.8282791,26.6422326 37.0842791,26.6422326 Z" id="Path" fill="#FFFFFF"></path>
                    <path d="M37.0842791,43.8217674 C27.3994419,43.8217674 18.287814,42.4699535 11.4277209,40.0152558 C4.20297674,37.4301395 0.224372093,33.8396279 0.224372093,29.9051163 L0.224372093,13.8418605 C0.224372093,13.2254884 0.72427907,12.7255814 1.34065116,12.7255814 C1.95702326,12.7255814 2.45693023,13.2254884 2.45693023,13.8418605 C2.45693023,16.712 6.00260465,19.628093 12.1849302,21.8422326 C18.8178605,24.2178605 27.6608372,25.5259535 37.0844651,25.5259535 C46.5082791,25.5259535 55.3510698,24.2176744 61.983814,21.8422326 C68.1659535,19.628093 71.711814,16.712186 71.711814,13.8418605 C71.711814,13.2254884 72.2117209,12.7255814 72.828093,12.7255814 C73.4444651,12.7255814 73.9443721,13.2254884 73.9443721,13.8418605 L73.9443721,29.9051163 C73.9443721,33.8396279 69.9655814,37.4301395 62.7410233,40.0152558 C55.8805581,42.4699535 46.7691163,43.8217674 37.0842791,43.8217674 Z M2.45674419,18.7538605 L2.45674419,29.9051163 C2.45674419,35.547907 16.3709767,41.5893953 37.0842791,41.5893953 C57.7973953,41.5893953 71.711814,35.547907 71.711814,29.9051163 L71.711814,18.7538605 C69.8310698,20.7209302 66.795907,22.4902326 62.7367442,23.944 C55.8682791,26.403907 46.7581395,27.7585116 37.0844651,27.7585116 C27.4107907,27.7585116 18.3006512,26.403907 11.432186,23.944 C7.37265116,22.4902326 4.33748837,20.7209302 2.45674419,18.7538605 Z" id="Shape" fill="#101111"></path>
                    <path d="M73.5341395,40.6632558 L73.5341395,30.3426977 L73.428093,30.3426977 C72.6941395,37.2230698 57.0016744,42.6411163 37.7140465,42.6411163 C18.4264186,42.6411163 2.73376744,37.2230698 2,30.3426977 L2.04669767,30.3426977 L2.04669767,47.1607442 C2.04669767,54.2511628 17.9877209,59.9613023 37.744186,59.9613023 C51.0295814,59.9613023 62.6334884,57.3817674 68.7964651,53.5341395" id="Path" fill="#FFFFFF"></path>
                    <path d="M37.0379535,61.0773953 C27.3557209,61.0773953 18.252093,59.7253953 11.403907,57.2706977 C4.19460465,54.6863256 0.224372093,51.096 0.224372093,47.1607442 L0.224372093,30.764093 C0.208372093,30.6634419 0.194790698,30.5624186 0.184,30.4612093 C0.150511628,30.1464186 0.252093023,29.832 0.463813953,29.5966512 C0.675534884,29.3611163 0.977302326,29.2266047 1.29395349,29.2266047 L1.34065116,29.2266047 C1.95702326,29.2266047 2.45693023,29.7265116 2.45693023,30.3428837 L2.45693023,30.5668837 C3.00818605,33.2848372 6.65451163,35.9826977 12.5570233,38.0169302 C19.1213023,40.2792558 27.8048372,41.5250233 37.008,41.5250233 C46.2113488,41.5250233 54.8948837,40.2790698 61.4589767,38.0169302 C67.6094884,35.8973023 71.3099535,33.0571163 71.612093,30.2245581 C71.6725581,29.6571163 72.1512558,29.2266047 72.7220465,29.2266047 L72.828093,29.2266047 C73.4444651,29.2266047 73.9443721,29.7265116 73.9443721,30.3428837 L73.9443721,40.6636279 C73.9443721,41.28 73.4444651,41.779907 72.828093,41.779907 C72.2117209,41.779907 71.711814,41.28 71.711814,40.6636279 L71.711814,34.6805581 C69.7616744,36.7674419 66.5285581,38.6312558 62.1864186,40.1276279 C55.3942326,42.4684651 46.4524651,43.7575814 37.008,43.7575814 C27.5637209,43.7575814 18.6217674,42.4684651 11.8295814,40.1276279 C7.59906977,38.6695814 4.4212093,36.8628837 2.45693023,34.8407442 L2.45693023,47.1607442 C2.45693023,52.8035349 16.3523721,58.8450233 37.0381395,58.8450233 C49.6444651,58.8450233 61.3166512,56.4472558 67.4993488,52.5873488 C68.0225116,52.2608372 68.7110698,52.4202791 69.0375814,52.9430698 C69.364093,53.4658605 69.2046512,54.1546047 68.6818605,54.4811163 C62.163907,58.5497674 50.0388837,61.0773953 37.0379535,61.0773953 Z" id="Path" fill="#101111"></path>
                    <path d="M68.0176744,53.5490233 C61.8546977,57.3966512 50.3233488,59.9698605 37.0377674,59.9698605 C17.2813023,59.9698605 1.34027907,54.2509767 1.34027907,47.1605581 L1.34027907,63.5376744 C1.34027907,70.628093 17.3276279,76.3382326 37.084093,76.3382326 C56.8405581,76.3382326 72.827907,70.6282791 72.827907,63.5376744 L72.827907,53.5186977 L70.4902326,53.5186977 L68.0176744,53.5490233 Z" id="Path" fill="#FFFFFF"></path>
                    <path d="M37.0842791,77.4545116 C27.3994419,77.4545116 18.287814,76.1026977 11.4277209,73.648 C4.20297674,71.0628837 0.224372093,67.4723721 0.224372093,63.5378605 L0.224372093,47.1607442 C0.224372093,46.5443721 0.72427907,46.0444651 1.34065116,46.0444651 C1.95702326,46.0444651 2.45693023,46.5443721 2.45693023,47.1607442 C2.45693023,52.8076279 16.3523721,58.8537674 37.0381395,58.8537674 C49.6061395,58.8537674 61.2504186,56.4584186 67.4267907,52.6022326 C67.600186,52.4939535 67.8,52.4353488 68.0042791,52.4329302 L70.4768372,52.4026047 L72.828093,52.4026047 C73.4444651,52.4026047 73.9443721,52.9025116 73.9443721,53.5188837 L73.9443721,63.5378605 C73.9443721,67.4723721 69.9655814,71.0628837 62.7410233,73.648 C55.8805581,76.1026977 46.7689302,77.4545116 37.0842791,77.4545116 Z M2.45674419,52.088186 L2.45674419,63.5378605 C2.45674419,69.1804651 16.3709767,75.2219535 37.0842791,75.2219535 C57.7973953,75.2219535 71.711814,69.1804651 71.711814,63.5378605 L71.711814,54.6351628 L70.4906047,54.6351628 L68.3397209,54.6615814 C61.6818605,58.6887442 50.0202791,61.0863256 37.0379535,61.0863256 C27.3572093,61.0863256 18.2533953,59.7328372 11.4035349,57.2749767 C7.35851163,55.8234419 4.3332093,54.0556279 2.45674419,52.088186 Z" id="Shape" fill="#101111"></path>
                </g>
                <g id="Group-12" transform="translate(77.000000, 58.000000)" fill-rule="nonzero">
                    <path d="M41.1305071,0.5 C36.6236707,0.5 32.7016567,3.04494413 30.6916733,6.7857247 L6.65217391,6.7857247 L1,11.9285506 L7.4784779,18.2142753 L11.7390581,14.7857247 L15.1303624,18.2142753 L18.5216668,14.7857247 L22.782247,18.2142753 L30.6915286,18.2142753 C32.701512,21.95491 36.6236707,24.5 41.1303624,24.5 C47.6856688,24.5 53,19.1273402 53,12.5000729 C53,5.87280566 47.6859582,0.5 41.1305071,0.5 Z" id="Path" fill="#FFF9D2"></path>
                    <path d="M40.4369917,25.5 C35.9982125,25.5 31.908913,23.1747446 29.6430735,19.3973903 L22.3403862,19.3973903 C22.14631,19.3973903 21.9577992,19.3319779 21.8061058,19.2116304 L18.2031385,16.3575539 L15.3995938,19.1476338 C15.2390528,19.3074836 15.0208598,19.3973903 14.7932484,19.3973903 C14.565637,19.3973903 14.347444,19.3074836 14.186903,19.1476338 L11.3833583,16.3575539 L7.780391,19.2116304 C7.44475336,19.4778108 6.96213154,19.4557234 6.65232316,19.1598102 L0.262507386,13.0570589 C0.0914063938,12.893811 -0.0036338569,12.667133 0.000106369703,12.431535 C0.00392940629,12.1959371 0.106247514,11.9723739 0.28262852,11.8145063 L5.8573243,6.82150058 C6.0147258,6.6806232 6.21907661,6.6026097 6.43113339,6.6026097 L29.6429308,6.6026097 C31.9086276,2.82525542 35.9980698,0.5 40.436849,0.5 C47.3640846,0.5 53,6.10734431 53,12.9998584 C53,19.8923725 47.36437,25.5 40.4369917,25.5 Z M22.6402053,17.6985083 L30.1411073,17.6985083 C30.4553395,17.6985083 30.7443132,17.8692601 30.8940087,18.1435109 C32.7990948,21.6331638 36.4557185,23.801118 40.4369917,23.801118 C46.4201037,23.801118 51.2877058,18.9557857 51.2877058,13.0002832 C51.2877058,7.0447806 46.4201037,2.19944838 40.4369917,2.19944838 C36.4557185,2.19944838 32.7990948,4.36740253 30.8940087,7.85705548 C30.7443132,8.13130621 30.4553395,8.30205808 30.1411073,8.30205808 L6.7606348,8.30205808 L2.11208199,12.4653739 L7.29905351,17.419302 L10.9142933,14.5554561 C11.2553537,14.2850282 11.7466804,14.3129205 12.054919,14.6194527 L14.7933911,17.3448282 L17.5318632,14.6194527 C17.8401019,14.3127789 18.3314286,14.2851698 18.6724889,14.5554561 L22.6402053,17.6985083 Z" id="Shape" fill="#101111"></path>
                    <circle id="Oval" fill="#FFFFFF" cx="40.5" cy="13" r="3.5"></circle>
                    <path d="M41,16.5 C38.7943544,16.5 37,14.7056252 37,12.5 C37,10.2943748 38.7943544,8.5 41,8.5 C43.2056456,8.5 45,10.2943748 45,12.5 C45,14.7056252 43.2055097,16.5 41,16.5 Z M41,10.1267028 C39.6934339,10.1267028 38.6304902,11.1912911 38.6304902,12.5001355 C38.6304902,13.80898 39.6934339,14.8735683 41,14.8735683 C42.3065661,14.8735683 43.3695098,13.80898 43.3695098,12.5001355 C43.3695098,11.1912911 42.3064302,10.1267028 41,10.1267028 Z" id="Shape" fill="#101111"></path>
                </g>
            </g>
        </g>
    </g>
</svg>