<?xml version="1.0" encoding="UTF-8"?>
<svg width="62px" height="61px" viewBox="0 0 62 61" version="1.1" xmlns="http://www.w3.org/2000/svg" xmlns:xlink="http://www.w3.org/1999/xlink">
    <!-- Generator: Sketch 56 (81588) - https://sketch.com -->
    <title>iconfinder_Money-Wallet-Cash-Purse_2400831 (1) 2</title>
    <desc>Created with Sketch.</desc>
    <g id="Page-1" stroke="none" stroke-width="1" fill="none" fill-rule="evenodd">
        <g id="Update-Copy-19" transform="translate(-233.000000, -2018.000000)">
            <g id="iconfinder_Money-Wallet-Cash-Purse_2400831-(1)-2" transform="translate(234.000000, 2019.000000)">
                <g id="iconfinder_Money-Wallet-Cash-Purse_2400831-(1)">
                    <path d="M51,23 L52.2,21.4 C53.6,19.8 53.4,17.2 51.8,15.8 L35,1.6 C33.2,0.2 30.8,0.4 29.4,2 L11.8,23" id="XMLID_949_" fill="#D2FDFF" fill-rule="nonzero"></path>
                    <path d="M0,18 L0,52 C0,55.8 3.2,59 7,59 L52,59 L53,59 C56.8,59 60,55.8 60,52 L60,32 C60,28.2 56.8,25 53,25 L48,25 L7,25 C3.2,25 0,21.8 0,18 L0,18 C0,14.2 3.2,11 7,11 L20,11" id="XMLID_215_" stroke="#000000" stroke-width="2" stroke-linecap="round"></path>
                    <path d="M60,47 L46,47 C42.6,47 40,44.4 40,41 L40,41 C40,37.6 42.6,35 46,35 L60,35 L60,47 Z" id="XMLID_214_" stroke="#000000" stroke-width="2"></path>
                    <path d="M48,41 L52,41" id="XMLID_213_" stroke="#231F20" stroke-width="2" stroke-linecap="round"></path>
                    <path d="M51,23 L52.2,21.4 C53.6,19.8 53.4,17.2 51.8,15.8 L35,1.6 C33.2,0.2 30.8,0.4 29.4,2 L11.8,23" id="XMLID_212_" stroke="#000000" stroke-width="2" stroke-linecap="round"></path>
                </g>
            </g>
        </g>
    </g>
</svg>