<?xml version="1.0" encoding="UTF-8"?>
<svg width="71px" height="60px" viewBox="0 0 71 60" version="1.1" xmlns="http://www.w3.org/2000/svg" xmlns:xlink="http://www.w3.org/1999/xlink">
    <!-- Generator: Sketch 56 (81588) - https://sketch.com -->
    <title>Group 28</title>
    <desc>Created with Sketch.</desc>
    <g id="Page-1" stroke="none" stroke-width="1" fill="none" fill-rule="evenodd">
        <g id="Update-Copy-19" transform="translate(-830.000000, -2018.000000)" fill-rule="nonzero">
            <g id="Group-28" transform="translate(830.164706, 2018.000000)">
                <path d="M49.0117647,53.3529412 C49.0117647,54.1529412 26.0941176,54.1411765 26.1411765,53.3529412 C26.6352941,45.6235294 26.6941176,37.6352941 26.6941176,37.6352941 L27.0117647,37.1529412 C22.7176471,34.3294118 19.9529412,29.0117647 19.9529412,20.6823529 C19.9529412,9.15294118 27.0823529,1.15294118 39.9529412,1.15294118 C56.1294118,1.15294118 60.7294118,6.63529412 62.7411765,12.5176471 C63.5837123,14.2585158 64.0411567,16.1605216 64.0823529,18.0941176 C64.1882353,20.3176471 63.5529412,22.6705882 64.0823529,23.7764706 C66.3176471,28.5882353 69.0823529,33.6235294 69.0117647,34.2823529 C68.7058824,36.9764706 65.7764706,36.0823529 63.6235294,36.4705882 C63.2098995,38.5378505 63.1819795,40.6637646 63.5411765,42.7411765 C63.6470588,44.2941176 62.1058824,47.4470588 62.6117647,48.6235294 C65.1764706,54.5176471 61.9411765,57.3294118 49.0117647,53.3529412 Z" id="Path" fill="#D2FDFF"></path>
                <path d="M39.6,53.3529412 C39.6,54.1529412 16.6823529,54.1411765 16.7294118,53.3529412 C17.2235294,45.6235294 17.2823529,37.6352941 17.2823529,37.6352941 L17.6,37.1529412 C13.3058824,34.3294118 10.5411765,29.0117647 10.5411765,20.6823529 C10.5882353,9.12941176 17.7176471,1.17647059 30.6470588,1.17647059 C46.8235294,1.17647059 51.4235294,6.65882353 53.4352941,12.5411765 C54.2778299,14.2820453 54.7352744,16.184051 54.7764706,18.1176471 C54.8823529,20.3411765 54.2470588,22.6941176 54.7764706,23.8 C57.0117647,28.6117647 59.7764706,33.6470588 59.7058824,34.3058824 C59.4,37 56.4705882,36.1058824 54.3176471,36.4941176 C53.9040172,38.5613799 53.8760971,40.687294 54.2352941,42.7647059 C54.3411765,44.3176471 52.8,47.4705882 53.3058824,48.6470588 C55.7647059,54.5176471 52.5294118,57.3294118 39.6,53.3529412 Z" id="Path" fill="#D2FDFF"></path>
                <path d="M49.1647059,56.3764706 L48.6117647,56.3764706 C47.9620179,56.3537295 47.4537295,55.8085703 47.4764706,55.1588235 C47.4992117,54.5090768 48.0443709,54.0007883 48.6941176,54.0235294 C50.7058824,54.0941176 52.0470588,53.7294118 52.5647059,52.9764706 C53.2235294,52.0352941 52.7294118,50.3294118 52.2,49.0588235 C51.9295085,47.8138119 52.065589,46.5148622 52.5882353,45.3529412 C52.8733021,44.5993208 53.0361385,43.8049969 53.0705882,43 C52.5739076,40.7364103 52.6101554,38.3883563 53.1764706,36.1411765 C53.3136643,35.7065746 53.6895207,35.3903051 54.1411765,35.3294118 C54.6880603,35.266377 55.2377819,35.2310378 55.7882353,35.2235294 C57.9411765,35.1647059 58.3764706,34.9647059 58.4823529,34.3058824 C58.2941176,33.6823529 57.3058824,31.6 56.3294118,29.7411765 C55.3529412,27.8823529 54.5529412,26.2117647 53.6705882,24.2823529 C53.3160077,23.1399927 53.2473307,21.9280456 53.4705882,20.7529412 C53.5650024,19.9054028 53.6043008,19.0526296 53.5882353,18.2 C53.5679413,16.3775788 53.1461695,14.5820359 52.3529412,12.9411765 C52.1289905,12.3501656 52.4120157,11.6878106 52.9939096,11.4411381 C53.5758035,11.1944657 54.2486231,11.4516257 54.5176471,12.0235294 C55.4137251,13.8916315 55.9029436,15.9287053 55.9529412,18 C55.976338,18.954489 55.9370378,19.9094844 55.8352941,20.8588235 C55.7100057,21.6381338 55.7100057,22.4324545 55.8352941,23.2117647 C56.6941176,25.0705882 57.6352941,26.9529412 58.4588235,28.6117647 C60.5411765,32.7764706 60.9411765,33.6588235 60.8117647,34.3529412 C60.4823529,37.3529412 57.5647059,37.4470588 55.8235294,37.4941176 L55.2,37.4941176 C54.949535,39.1279346 54.9933626,40.7933823 55.3294118,42.4117647 C55.4259443,43.6132675 55.2448033,44.8208741 54.8,45.9411765 C54.5460663,46.6294663 54.3915703,47.3504474 54.3411765,48.0823529 C55.4235294,50.6823529 55.5176471,52.7882353 54.4588235,54.2235294 C53.4,55.6588235 51.7529412,56.3764706 49.1647059,56.3764706 Z" id="Path" fill="#101111"></path>
                <path d="M53.4352941,13.6823569 C52.9295107,13.6836585 52.4794966,13.3615432 52.3176471,12.8823529 C51.1411765,9.55294118 49.2470588,6.17647059 42.8352941,3.98823529 C42.4232056,3.86324354 42.1123347,3.5230934 42.0248397,3.10144838 C41.9373446,2.67980336 42.087208,2.24404681 42.4155403,1.9654112 C42.7438726,1.68677559 43.1982029,1.60978986 43.6,1.76470588 C51,4.28235294 53.2823529,8.41176471 54.5529412,12.1176471 C54.7636355,12.7316285 54.4372259,13.4002417 53.8235294,13.6117647 C53.6990147,13.6569841 53.5677571,13.6808491 53.4352941,13.6823569 L53.4352941,13.6823569 Z" id="Path" fill="#101111"></path>
                <path d="M58.5764706,56.3764706 L58.0235294,56.3764706 C57.3737826,56.3537295 56.8654942,55.8085703 56.8882353,55.1588235 C56.9109764,54.5090768 57.4561356,54.0007883 58.1058824,54.0235294 C60.1176471,54.0941176 61.4588235,53.7294118 61.9764706,52.9764706 C62.6352941,52.0352941 62.1411765,50.3294118 61.6117647,49.0588235 C61.3412732,47.8138119 61.4773537,46.5148622 62,45.3529412 C62.2850668,44.5993208 62.4479032,43.8049969 62.4823529,43 C61.9856723,40.7364103 62.0219201,38.3883563 62.5882353,36.1411765 C62.725429,35.7065746 63.1012854,35.3903051 63.5529412,35.3294118 C64.099825,35.266377 64.6495466,35.2310378 65.2,35.2235294 C67.3529412,35.1647059 67.7882353,34.9647059 67.8941176,34.3058824 C67.7058824,33.6823529 66.7176471,31.6 65.7411765,29.7411765 C64.7647059,27.8823529 63.9647059,26.2117647 63.0823529,24.2823529 C62.7277724,23.1399927 62.6590954,21.9280456 62.8823529,20.7529412 C62.9767672,19.9054028 63.0160655,19.0526296 63,18.2 C62.979706,16.3775788 62.5579342,14.5820359 61.7647059,12.9411765 C61.5407552,12.3501656 61.8237804,11.6878106 62.4056743,11.4411381 C62.9875682,11.1944657 63.6603878,11.4516257 63.9294118,12.0235294 C64.8254898,13.8916315 65.3147083,15.9287053 65.3647059,18 C65.3881027,18.954489 65.3488025,19.9094844 65.2470588,20.8588235 C65.1217704,21.6381338 65.1217704,22.4324545 65.2470588,23.2117647 C66.1058824,25.0705882 67.0470588,26.9529412 67.8705882,28.6117647 C69.9529412,32.7764706 70.3529412,33.6588235 70.2235294,34.3529412 C69.8941176,37.3529412 66.9764706,37.4470588 65.2352941,37.4941176 L64.6117647,37.4941176 C64.3612997,39.1279346 64.4051273,40.7933823 64.7411765,42.4117647 C64.837709,43.6132675 64.656568,44.8208741 64.2117647,45.9411765 C63.957831,46.6294663 63.803335,47.3504474 63.7529412,48.0823529 C64.8352941,50.6823529 64.9294118,52.7882353 63.8705882,54.2235294 C62.8117647,55.6588235 61.1647059,56.3764706 58.5764706,56.3764706 Z" id="Path" fill="#101111"></path>
                <path d="M62.8470588,13.6823569 C62.3412754,13.6836585 61.8912613,13.3615432 61.7294118,12.8823529 C60.5529412,9.55294118 58.6588235,6.17647059 52.2470588,3.98823529 C51.8349703,3.86324354 51.5240994,3.5230934 51.4366044,3.10144838 C51.3491093,2.67980336 51.4989727,2.24404681 51.827305,1.9654112 C52.1556373,1.68677559 52.6099676,1.60978986 53.0117647,1.76470588 C60.4117647,4.28235294 62.6941176,8.41176471 63.9647059,12.1176471 C64.1754002,12.7316285 63.8489906,13.4002417 63.2352941,13.6117647 C63.1107794,13.6569841 62.9795218,13.6808491 62.8470588,13.6823569 L62.8470588,13.6823569 Z" id="Path" fill="#101111"></path>
                <path d="M30.1882353,53.3529412 C30.1126063,55.1820748 30.2150492,57.0142283 30.4941176,58.8235294 L5.71764706,58.8235294 C9.24705882,50.5882353 7.87058824,37.6470588 7.87058824,37.6470588 L8.18823529,37.1647059 C3.89411765,34.3411765 1.12941176,29.0235294 1.12941176,20.6941176 C1.17647059,9.12941176 8.30588235,1.17647059 21.2352941,1.17647059 C37.4117647,1.17647059 42.0117647,6.65882353 44.0235294,12.5411765 C44.8660652,14.2820453 45.3235097,16.184051 45.3647059,18.1176471 C45.4705882,20.3411765 44.8352941,22.6941176 45.3647059,23.8 C47.6,28.6117647 50.3647059,33.6470588 50.2941176,34.3058824 C49.9882353,37 47.0588235,36.1058824 44.9058824,36.4941176 C44.4922525,38.5613799 44.4643324,40.687294 44.8235294,42.7647059 C44.9294118,44.3176471 43.3882353,47.4705882 43.8941176,48.6470588 C46.3529412,54.5176471 43.1176471,57.3294118 30.1882353,53.3529412 Z" id="Path" fill="#FFFFFF"></path>
                <path d="M40.4235294,44.7058824 C39.8340995,44.719106 39.2444602,44.6915895 38.6588235,44.6235294 C38.0090768,44.5325648 37.5560943,43.9320997 37.6470589,43.282353 C37.7380234,42.6326062 38.3384885,42.1796237 38.9882353,42.2705882 C40.5437854,42.604781 42.1668373,42.3972296 43.5882353,41.6823529 C43.9349931,41.4427748 44.3832239,41.4063886 44.7640835,41.5869006 C45.1449431,41.7674126 45.4005699,42.1373988 45.4346717,42.5574888 C45.4687735,42.9775789 45.2761695,43.3839513 44.9294118,43.6235294 C43.5647784,44.4151024 41.9988143,44.7912609 40.4235294,44.7058824 L40.4235294,44.7058824 Z" id="Path" fill="#101111"></path>
                <path d="M42.1882353,38.2352941 C41.5384886,38.3295074 40.9353898,37.8791585 40.8411765,37.2294118 C40.7469633,36.579665 41.1973121,35.9765663 41.8470588,35.8823529 C42.7932647,35.6206074 43.7563089,35.4240678 44.7294118,35.2941176 C45.3791585,35.2031531 45.9796237,35.6561356 46.0705882,36.3058824 C46.1615528,36.9556291 45.7085703,37.5560943 45.0588235,37.6470588 C44.203816,37.7775039 43.3587132,37.966178 42.5294118,38.2117647 C42.4174394,38.2361836 42.3024998,38.2441104 42.1882353,38.2352941 Z" id="Path" fill="#101111"></path>
                <path d="M39.7529412,56.3764706 C36.3738775,56.2193347 33.0344381,55.5815533 29.8352941,54.4823529 L28.9058824,54.1882353 L28.5294118,54.1176471 C28.1090993,53.9894518 27.789106,53.6467604 27.6899701,53.2186615 C27.5908343,52.7905626 27.727617,52.3420945 28.0487936,52.0421909 C28.3699703,51.7422873 28.8267464,51.6365106 29.2470588,51.7647059 L29.6352941,51.8941176 L30.5411765,52.1764706 C39.9529412,55.0705882 42.4235294,53.7647059 43.0470588,53.0823529 C43.8705882,52.1647059 43.3764706,50.3647059 42.8117647,49.0117647 C42.3764706,47.9764706 42.8117647,46.5529412 43.1882353,45.0588235 C43.4442252,44.2976345 43.6023569,43.5069761 43.6588235,42.7058824 C43.6588235,42.2941176 43.5882353,41.8941176 43.5529412,41.5294118 C43.2759262,39.7241294 43.3518389,37.8822465 43.7764706,36.1058824 C43.8928197,35.6631781 44.2553844,35.32815 44.7058824,35.2470588 C45.3600104,35.1484777 46.0208542,35.1012746 46.6823529,35.1058824 C48.6705882,35.1058824 49.0352941,34.8941176 49.1176471,34.2235294 C48.9294118,33.6117647 47.9411765,31.5294118 46.9764706,29.6941176 C46.0117647,27.8588235 45.1882353,26.0941176 44.3058824,24.2 C43.9469053,23.0587012 43.8741805,21.8466218 44.0941176,20.6705882 C44.1858174,19.8228848 44.2211891,18.9700325 44.2,18.1176471 C44.1607553,16.3212848 43.731217,14.5549588 42.9411765,12.9411765 C42.7576384,12.5510026 42.8022502,12.0916859 43.0574419,11.7441244 C43.3126337,11.3965629 43.7375123,11.2164513 44.164743,11.2747251 C44.5919736,11.3329989 44.9530949,11.62032 45.1058824,12.0235294 C46.004603,13.8948661 46.4939163,15.9363451 46.5411765,18.0117647 C46.5663436,18.9701828 46.5270392,19.9292085 46.4235294,20.8823529 C46.2976337,21.6616146 46.2976337,22.4560325 46.4235294,23.2352941 C47.2941176,25.0941176 48.2352941,27 49.0705882,28.6705882 C51.1294118,32.8117647 51.5294118,33.6823529 51.4235294,34.3647059 C51.0823529,37.3764706 48.3294118,37.4352941 46.7176471,37.4705882 L45.8588235,37.4705882 C45.6728961,38.7343747 45.6728961,40.0185665 45.8588235,41.2823529 C45.8588235,41.7294118 45.9529412,42.1529412 45.9764706,42.5882353 C45.9542031,43.6382523 45.7676289,44.6783044 45.4235294,45.6705882 C45.1509905,46.4511385 44.9963494,47.2679609 44.9647059,48.0941176 C46.1411765,50.9764706 46.1411765,53.1764706 44.7764706,54.6470588 C43.7647059,55.8235294 42.1058824,56.3764706 39.7529412,56.3764706 Z" id="Path" fill="#101111"></path>
                <path d="M11.6,40 C11.4791704,40.0189577 11.3561237,40.0189577 11.2352941,40 C9.92978682,39.5762871 8.68725729,38.9787649 7.54117647,38.2235294 C2.61176471,34.8941176 7.10542736e-15,28.8470588 7.10542736e-15,20.6588235 C7.10542736e-15,7.88235294 8.14117647,9.98312544e-13 21.2352941,9.98312544e-13 C38.7294118,9.98312544e-13 43.2,6.44705882 45.1411765,12.1176471 C45.2960925,12.5194442 45.2191068,12.9737745 44.9404712,13.3021068 C44.6618355,13.6304391 44.226079,13.7803025 43.804434,13.6928074 C43.3827889,13.6053123 43.0426388,13.2944415 42.9176471,12.8823529 C41.1294118,7.65882353 37.1529412,2.29411765 21.2470588,2.29411765 C9.48235294,2.29411765 2.42352941,9.15294118 2.42352941,20.6470588 C2.35294118,28.1176471 4.54117647,33.3411765 8.83529412,36.1647059 C9.8073159,36.7967816 10.8598733,37.2953614 11.9647059,37.6470588 C12.6144526,37.7477696 13.0595343,38.3561356 12.9588235,39.0058824 C12.8581128,39.6556291 12.2497468,40.1007107 11.6,40 Z" id="Path" fill="#101111"></path>
                <path d="M30.4941176,60 C29.9403563,60.0161337 29.4503712,59.643745 29.3176471,59.1058824 C29.0418363,57.6325859 28.9313483,56.1331051 28.9882353,54.6352941 C28.9882353,54.2117647 28.9882353,53.7882353 28.9882353,53.3647059 C28.9882353,52.7149591 29.5149591,52.1882353 30.1647059,52.1882353 C30.8144526,52.1882353 31.3411765,52.7149591 31.3411765,53.3647059 C31.3411765,53.7882353 31.3411765,54.2352941 31.3411765,54.6705882 C31.2929905,55.9662689 31.3797319,57.2634472 31.6,58.5411765 C31.6865153,58.8438895 31.6480904,59.1686489 31.4933201,59.4428135 C31.3385498,59.7169781 31.0803487,59.9176704 30.7764706,60 L30.4941176,60 Z" id="Path" fill="#101111"></path>
                <path d="M5.71764706,60.000107 C5.55994359,59.9996968 5.4039107,59.96769 5.25882353,59.9058824 C4.66600218,59.6475878 4.39277171,58.9592572 4.64705882,58.3647059 C8,50.4941176 6.71764706,37.8823529 6.70588235,37.7647059 C6.63765894,37.1149591 7.10907676,36.5329293 7.75882353,36.4647059 C8.40857029,36.3964825 8.99060012,36.8679003 9.05882353,37.5176471 C9.05882353,38.0588235 10.4235294,50.8705882 6.81176471,59.2941176 C6.62237528,59.7281801 6.19118483,60.0063675 5.71764706,60.000107 Z" id="Path" fill="#101111"></path>
            </g>
        </g>
    </g>
</svg>