<?xml version="1.0" encoding="UTF-8"?>
<svg width="89px" height="60px" viewBox="0 0 89 60" version="1.1" xmlns="http://www.w3.org/2000/svg" xmlns:xlink="http://www.w3.org/1999/xlink">
    <!-- Generator: Sketch 56 (81588) - https://sketch.com -->
    <title>Group 29</title>
    <desc>Created with Sketch.</desc>
    <g id="Page-1" stroke="none" stroke-width="1" fill="none" fill-rule="evenodd">
        <g id="Update-Copy-19" transform="translate(-549.000000, -2020.000000)" fill-rule="nonzero">
            <g id="Group-29" transform="translate(549.191816, 2020.290171)">
                <rect id="Rectangle" fill="#D2FDFF" x="0.959079284" y="15.3389854" width="13.2199488" height="26.4398977"></rect>
                <path d="M14.1790281,42.7417987 L0.959079284,42.7417987 C0.429394422,42.7417987 -6.52811138e-13,42.3124043 -6.52811138e-13,41.7827195 L-6.52811138e-13,15.3389854 C-6.52811138e-13,14.8093006 0.429394422,14.3799062 0.959079284,14.3799062 L14.1790281,14.3799062 C14.708713,14.3799062 15.1381074,14.8093006 15.1381074,15.3389854 L15.1381074,41.7827195 C15.1381074,42.3124043 14.708713,42.7417987 14.1790281,42.7417987 Z M1.9028133,40.8236402 L13.2352941,40.8236402 L13.2352941,16.2980647 L1.91815857,16.2980647 L1.9028133,40.8236402 Z" id="Shape" fill="#101111"></path>
                <path d="M86.8925831,41.7788831 C86.8920934,50.2205232 80.5298364,57.304969 72.1368085,58.2096068 C63.7437805,59.1142445 56.0180051,53.5482693 54.2186701,45.3006223 C55.8836317,45.4732565 57.4603581,45.5960187 58.7838875,45.3428218 L58.8951407,45.3428218 L58.9335038,45.3428218 C60.2408681,45.119306 61.3488889,44.2547905 61.8836317,43.0410315 C63.0345269,40.6088064 61.6649616,38.6024126 59.5127877,37.0985762 L59.3900256,37.0141773 L59.2710997,36.9221057 C58.0314331,36.1232037 56.702749,35.4717365 55.3120205,34.9809292 C57.4521518,30.2649938 61.6724258,26.8195246 66.7212276,25.6663512 C67.9188701,25.3981509 69.1422615,25.2617897 70.3695652,25.2597016 C79.4926012,25.2618183 86.888348,32.6558479 86.8925831,41.7788831 L86.8925831,41.7788831 Z" id="Path" fill="#FFFFFF"></path>
                <path d="M70.3657289,59.2648166 C62.156207,59.2310036 55.0638824,53.5179634 53.2826087,45.5039471 C53.216399,45.2031979 53.2992396,44.8889749 53.5051151,44.6599573 C53.7108411,44.4318423 54.0127329,44.3150729 54.3184143,44.3453793 C55.8184143,44.5026683 57.387468,44.6331031 58.6035806,44.3990877 L58.6803069,44.3990877 C58.6979903,44.3951235 58.716332,44.3951235 58.7340153,44.3990877 C59.7458175,44.2402009 60.6057772,43.5742388 61.0127877,42.6343819 C61.3043478,42.0167348 62.1867008,40.1369394 58.9641944,37.8850213 L58.8721228,37.8236402 L58.7531969,37.7430775 C57.5725643,36.9793699 56.3053695,36.3586504 54.9782609,35.8939727 C54.7276973,35.8018733 54.5263694,35.6102647 54.4219949,35.3645609 C54.3183974,35.1192974 54.3183974,34.842561 54.4219949,34.5972975 C56.6870994,29.6075802 61.1527199,25.9621468 66.4948849,24.7417987 C67.7619678,24.4591999 69.0560088,24.3151317 70.3542199,24.3121312 C80.0114344,24.3121312 87.8401535,32.1408503 87.8401535,41.7980647 C87.8401535,51.4552791 80.0114344,59.2839982 70.3542199,59.2839982 L70.3657289,59.2648166 Z M55.4923274,46.3824637 C57.8566513,54.0202435 65.6223098,58.625217 73.4581409,57.0360479 C81.293972,55.4468788 86.6519887,48.1803191 85.8538868,40.224897 C85.0557849,32.2694749 78.3610842,26.212065 70.3657289,26.2111082 C69.2043253,26.2133654 68.0466157,26.3419998 66.9130435,26.5947399 C63.7252093,27.3101586 60.8466438,29.0187611 58.6918159,31.4745353 C57.8866133,32.3855815 57.190117,33.3871972 56.6163683,34.4591901 C57.7256758,34.9062989 58.7883329,35.4613991 59.7890026,36.1164791 L59.92711,36.2085507 L60.0383632,36.285277 C62.9808184,38.341543 63.9360614,40.8888576 62.7237852,43.4284995 C62.0585697,44.9080794 60.7065236,45.9644551 59.1099744,46.2520289 L59.1099744,46.2520289 L59.0677749,46.2520289 L58.9066496,46.2788831 C57.7774036,46.4566092 56.6302702,46.4914099 55.4923274,46.3824637 L55.4923274,46.3824637 Z" id="Shape" fill="#101111"></path>
                <path d="M82.4808184,41.7788831 C82.4949215,47.7811705 78.111891,52.8888893 72.1770487,53.7862735 C66.2422063,54.6836578 60.5450066,51.1001312 58.7838875,45.3620034 L58.8951407,45.3620034 L58.9335038,45.3620034 C60.2408681,45.1384876 61.3488889,44.273972 61.8836317,43.0602131 C63.0345269,40.627988 61.6649616,38.6215941 59.5127877,37.1177578 L59.3900256,37.0333588 L59.2710997,36.9221057 C61.5710329,31.667652 67.2405107,28.7460973 72.8543402,29.9224873 C78.4681698,31.0988772 82.4877448,36.0507938 82.4846565,41.7865558 L82.4808184,41.7788831 Z" id="Path" fill="#FFFFFF"></path>
                <path d="M70.3657289,54.8530519 C64.619321,54.8746794 59.5390616,51.1245186 57.8670077,45.6267092 C57.782936,45.3532193 57.825361,45.0564756 57.9826991,44.8174997 C58.1400373,44.5785238 58.3958558,44.4222751 58.6803069,44.3914151 C58.6979903,44.3874509 58.716332,44.3874509 58.7340153,44.3914151 C59.7458175,44.2325282 60.6057772,43.5665662 61.0127877,42.6267092 C61.3043478,42.0090622 62.1867008,40.1292668 58.9641944,37.8773486 L58.8721228,37.8159675 L58.7531969,37.7354049 C58.3472308,37.4878018 58.183989,36.9801199 58.3695652,36.5423103 C60.9895539,30.5642466 67.6171358,27.4342551 73.8983261,29.2085811 C80.1795165,30.9829072 84.1898929,37.1179353 83.2948417,43.5832635 C82.3997905,50.0485917 76.8735362,54.8633817 70.3465473,54.8645609 L70.3657289,54.8530519 Z M60.0383632,45.9911594 C62.012788,50.8404733 67.093043,53.6651395 72.2540894,52.7832101 C77.4151357,51.9012807 81.2691362,47.5499119 81.5212255,42.320127 C81.7733148,37.0903421 78.3557046,32.3884627 73.3034114,31.0142236 C68.2511183,29.6399845 62.9227351,31.9629272 60.4910486,36.599855 C63.0920716,38.5985762 63.8938619,41.0039471 62.758312,43.4284995 C62.2322405,44.6130727 61.2521375,45.5364983 60.0383632,45.9911594 Z" id="Shape" fill="#101111"></path>
                <path d="M70.8069054,42.8952514 L67.0856777,42.8952514 C66.5559929,42.8952514 66.1265985,42.465857 66.1265985,41.9361721 L66.1265985,36.0781159 C66.1265985,35.548431 66.5559929,35.1190366 67.0856777,35.1190366 L70.8069054,35.1190366 C73.3887468,35.1190366 75.4872123,36.8645609 75.4872123,39.0090622 C75.4872123,41.1535635 73.3887468,42.8952514 70.8069054,42.8952514 Z M68.044757,40.9770929 L70.8069054,40.9770929 C72.3030691,40.9770929 73.5690537,40.0755583 73.5690537,39.0090622 C73.5690537,37.942566 72.3030691,37.0371952 70.8069054,37.0371952 L68.044757,37.0371952 L68.044757,40.9770929 Z" id="Shape" fill="#101111"></path>
                <path d="M71.5473146,48.757144 L67.0856777,48.757144 C66.5559929,48.757144 66.1265985,48.3277496 66.1265985,47.7980647 L66.1265985,41.9361721 C66.1265985,41.4064873 66.5559929,40.9770929 67.0856777,40.9770929 L71.5473146,40.9770929 C74.5856777,40.9770929 76.9680307,42.6880903 76.9680307,44.8671184 C76.9680307,47.0461466 74.5856777,48.757144 71.5473146,48.757144 Z M68.044757,46.8389854 L71.5473146,46.8389854 C73.6112532,46.8389854 75.0498721,45.7993435 75.0498721,44.8671184 C75.0498721,43.9348934 73.6112532,42.8952514 71.5473146,42.8952514 L68.044757,42.8952514 L68.044757,46.8389854 Z" id="Shape" fill="#101111"></path>
                <path d="M71.5473146,37.1024126 C71.0176297,37.1024126 70.5882353,36.6730181 70.5882353,36.1433333 L70.5882353,34.144612 C70.5882353,33.6149272 71.0176297,33.1855328 71.5473146,33.1855328 C72.0769994,33.1855328 72.5063939,33.6149272 72.5063939,34.144612 L72.5063939,36.1548422 C72.5000912,36.6800271 72.0725373,37.1024126 71.5473146,37.1024126 Z" id="Path" fill="#101111"></path>
                <path d="M68.5780051,37.0371952 C68.0483203,37.0371952 67.6189258,36.6078007 67.6189258,36.0781159 L67.6189258,34.1599573 C67.6189258,33.6302725 68.0483203,33.200878 68.5780051,33.200878 C69.10769,33.200878 69.5370844,33.6302725 69.5370844,34.1599573 L69.5370844,36.0781159 C69.5370844,36.6078007 69.10769,37.0371952 68.5780051,37.0371952 Z" id="Path" fill="#101111"></path>
                <path d="M71.5473146,50.6906479 C71.0176297,50.6906479 70.5882353,50.2612534 70.5882353,49.7315686 L70.5882353,47.81341 C70.5882353,47.2837251 71.0176297,46.8543307 71.5473146,46.8543307 C72.0769994,46.8543307 72.5063939,47.2837251 72.5063939,47.81341 L72.5063939,49.7315686 C72.5063939,50.2612534 72.0769994,50.6906479 71.5473146,50.6906479 Z" id="Path" fill="#101111"></path>
                <path d="M68.5780051,50.6906479 C68.0483203,50.6906479 67.6189258,50.2612534 67.6189258,49.7315686 L67.6189258,47.81341 C67.6189258,47.2837251 68.0483203,46.8543307 68.5780051,46.8543307 C69.10769,46.8543307 69.5370844,47.2837251 69.5370844,47.81341 L69.5370844,49.7315686 C69.5370844,50.2612534 69.10769,50.6906479 68.5780051,50.6906479 Z" id="Path" fill="#101111"></path>
                <path d="M61.8836317,43.0218499 C61.3488889,44.2356089 60.2408681,45.1001244 58.9335038,45.3236402 L58.8951407,45.3236402 L58.7838875,45.3236402 C57.4603581,45.5768371 55.8836317,45.454075 54.2186701,45.2814407 C52.3005115,45.0857885 50.2557545,44.8402642 48.3414322,45.0666069 C22.983376,48.0474253 23.1828645,40.555098 14.1982097,38.4067604 L14.1982097,18.6420545 C21.556266,18.6420545 39.1649616,14.1880903 45.1841432,14.1880903 C49.971867,14.1880903 60.2608696,19.700878 66.7365729,25.6586785 C63.3535535,26.4253095 60.2982873,28.2388704 58.0051151,30.841543 C57.8132992,30.6458908 53.1023018,29.6369394 49.6611253,25.6088064 C49.6611253,25.6088064 39.7212276,23.1804177 39.7212276,29.257144 C39.7212276,35.3338704 49.4769821,33.2699317 53.6585678,34.4361721 C54.1918159,34.5857885 54.7519182,34.7622591 55.3273657,34.9732565 C56.7131367,35.4675839 58.0366284,36.1216051 59.2710997,36.9221057 L59.3938619,37.0026683 L59.516624,37.0870673 C61.6649616,38.583231 63.0230179,40.5896248 61.8836317,43.0218499 Z" id="Path" fill="#FFFFFF"></path>
                <path d="M37.8759591,46.7354049 C27.870844,46.7354049 23.8350384,44.3338704 20.1751918,42.1586785 C18.2570332,41.0077834 16.4846547,39.9604688 13.9565217,39.358167 C13.5302091,39.2504561 13.232493,38.8656422 13.2352745,38.425942 L13.2352745,18.6420545 C13.2352745,18.1123696 13.6646885,17.6829752 14.1943734,17.6829752 C17.9693095,17.6829752 24.5524297,16.4745353 30.9283887,15.3044586 C36.7442455,14.2379624 42.2340153,13.229011 45.1803069,13.229011 C50.2212276,13.229011 60.5946292,18.7072719 67.3810742,24.9527962 C67.6466306,25.1928844 67.7556516,25.5613031 67.6635095,25.9072401 C67.5713674,26.2531771 67.2935316,26.5185544 66.943734,26.5947399 C63.7544171,27.3091576 60.8743357,29.0178626 58.7186701,31.4745353 C58.4163308,31.8213211 57.9091629,31.9020803 57.5140665,31.6663512 L57.1994885,31.5589343 C55.9296675,31.1215941 52.1163683,29.81341 49.1432225,26.4758141 C47.4168798,26.0921824 43.4386189,25.627988 41.6355499,27.043589 C40.9780183,27.5836315 40.6221582,28.4082551 40.6803069,29.257144 C40.6803069,32.425942 43.9987212,32.7980647 49.0588235,33.0013895 C50.8810742,33.0781159 52.6035806,33.1471696 53.915601,33.5116197 C54.5179028,33.6804177 55.1048593,33.8683972 55.657289,34.071722 C57.1198868,34.5883262 58.5168873,35.2745946 59.8196931,36.1164791 L59.9578005,36.2085507 L60.0690537,36.285277 C63.011509,38.341543 63.9667519,40.8888576 62.7736573,43.4284995 C62.1060796,44.9077996 60.753157,45.9637392 59.1560102,46.2520289 L59.1560102,46.2520289 L59.1138107,46.2520289 L58.9526854,46.2788831 C57.4795396,46.555098 55.7685422,46.4131542 54.1381074,46.2443563 L53.7007673,46.1983205 C51.9475703,46.0180136 50.1368286,45.8146888 48.471867,46.0256862 C44.9566861,46.4679205 41.4187174,46.7048953 37.8759591,46.7354049 L37.8759591,46.7354049 Z M15.1534527,37.6893691 C17.5741688,38.3722335 19.3273657,39.4157118 21.1726343,40.5128985 C25.6496164,43.1753026 30.7289003,46.1983205 48.2455243,44.1382182 C50.1176471,43.9157118 52.0358056,44.1152003 53.8925831,44.3070161 L54.3299233,44.3492156 C55.8337596,44.5065046 57.398977,44.6369394 58.6189258,44.4029241 L58.6956522,44.4029241 C58.7133355,44.3989598 58.7316773,44.3989598 58.7493606,44.4029241 C59.7611628,44.2440372 60.6211225,43.5780751 61.028133,42.6382182 L61.028133,42.6382182 C61.3158568,42.0205711 62.1790281,40.1407757 58.9757033,37.8888576 L58.8836317,37.8274765 L58.7647059,37.7469138 C57.5840733,36.9832062 56.3168784,36.3624867 54.9897698,35.897809 C54.483376,35.7098294 53.9462916,35.5371952 53.3900256,35.3837425 C52.2966752,35.0768371 50.6815857,35.0001108 48.9744246,34.942566 C44.6624041,34.7660954 38.7544757,34.5282438 38.7544757,29.2801619 C38.6861643,27.8396673 39.3159312,26.4544657 40.4462916,25.5589343 C43.4846547,23.172745 49.6227621,24.6382182 49.8797954,24.6995993 C50.0754383,24.7486694 50.2510326,24.8572429 50.3823529,25.0103409 C52.9910486,28.0793947 56.3631714,29.2648166 57.7327366,29.7366837 C59.6761357,27.6837623 62.0932488,26.138654 64.7723785,25.2366837 C58.4769821,19.9157118 49.3542199,15.1701875 45.1764706,15.1701875 C42.4066496,15.1701875 36.9974425,16.1637936 31.269821,17.2149445 C25.3120205,18.3082949 19.1662404,19.4361721 15.157289,19.6011338 L15.1534527,37.6893691 Z" id="Shape" fill="#101111"></path>
                <path d="M80.7544757,21.4770929 C80.3134863,21.4762584 79.9294228,21.1759618 79.8222506,20.7481926 C77.6547315,11.970699 71.516624,6.17018749 61.5805627,3.44640233 C56.8541751,2.20554078 51.9610478,1.72127785 47.0831202,2.01161972 C46.5534353,2.06035073 46.0845366,1.67046059 46.0358056,1.14077573 C45.9870746,0.611090867 46.3769648,0.142192158 46.9066496,0.093461151 C52.0145141,-0.227390217 57.1406674,0.279136435 62.0869565,1.59346115 C72.5946292,4.45151742 79.3734015,10.9157118 81.6867008,20.2839982 C81.8050517,20.794785 81.4929795,21.3063788 80.9846547,21.4348934 C80.9099763,21.4584551 80.8326557,21.4726305 80.7544757,21.4770929 Z" id="Path" fill="#101111"></path>
                <path d="M70.8069054,21.860726 C70.4180067,21.8613876 70.0675289,21.6262185 69.9207161,21.2660954 C64.5498721,8.15739977 47.2557545,9.56532816 47.0831202,9.58067343 C46.5534353,9.62940443 46.0845366,9.2395143 46.0358056,8.70982944 C45.9870746,8.18014458 46.3769648,7.71124587 46.9066496,7.66251486 C47.0946292,7.66251486 65.7659847,6.10113379 71.6930946,20.5295225 C71.790575,20.7644773 71.7903174,21.0286085 71.692379,21.2633727 C71.5944406,21.4981369 71.4069111,21.6841424 71.1713555,21.7801619 C71.0565122,21.8312098 70.9325652,21.8586086 70.8069054,21.860726 L70.8069054,21.860726 Z" id="Path" fill="#101111"></path>
            </g>
        </g>
    </g>
</svg>