<?xml version="1.0" encoding="UTF-8"?>
<svg width="34px" height="36px" viewBox="0 0 34 36" version="1.1" xmlns="http://www.w3.org/2000/svg" xmlns:xlink="http://www.w3.org/1999/xlink">
    <!-- Generator: Sketch 57.1 (83088) - https://sketch.com -->
    <title>iconfinder__-10_3139610</title>
    <desc>Created with Sketch.</desc>
    <g id="WEB" stroke="none" stroke-width="1" fill="none" fill-rule="evenodd">
        <g id="Home-Copy-9" transform="translate(-967.000000, -246.000000)">
            <g id="iconfinder__-10_3139610" transform="translate(968.000000, 246.000000)">
                <g id="Group" transform="translate(0.000000, 11.511628)" fill="#16929E" fill-rule="nonzero">
                    <path d="M13.5069767,0.76744186 L8.59534884,0.613953488 C7.75116279,0.613953488 6.90697674,0.844186047 6.21627907,1.45813953 L0.537209302,6.36976744 L6.98372093,8.28837209" id="Path"></path>
                    <path d="M21.1046512,8.36511628 L21.2581395,13.2767442 C21.2581395,14.1209302 21.027907,14.9651163 20.4139535,15.655814 L15.5023256,21.3348837 L13.5069767,14.8883721" id="Path"></path>
                </g>
                <path d="M13.5837209,26.4 C15.3488372,25.7860465 19.9534884,23.944186 24.0209302,19.8767442 C33.5372093,10.3604651 32.8465116,0.613953488 32.8465116,0.613953488 C32.8465116,0.613953488 23.1,-0.153488372 13.5837209,9.3627907 C8.36511628,14.5813953 7.75116279,18.0348837 7.06046512,19.8 L13.5837209,26.4 Z" id="Path" fill="#25C7D6" fill-rule="nonzero"></path>
                <circle id="Oval" fill="#FFFFFF" fill-rule="nonzero" cx="22.3325581" cy="11.0511628" r="3.06976744"></circle>
                <path d="M8.67209302,25.7860465 L7.59767442,24.7116279 L14.7348837,16.5 C15.3488372,15.8860465 16.3465116,15.8860465 16.9604651,16.5 L16.9604651,16.5 C17.5744186,17.1139535 17.5744186,18.1116279 16.9604651,18.7255814 L8.67209302,25.7860465 Z" id="Path" fill="#16929E" fill-rule="nonzero"></path>
                <path d="M6.90697674,29.1627907 L2.30232558,33.7674419" id="Path" stroke="#D9DCE1" stroke-width="3" stroke-linecap="round" stroke-linejoin="round"></path>
                <path d="M3.8372093,26.0930233 L1.15116279,28.7790698" id="Path" stroke="#D9DCE1" stroke-width="3" stroke-linecap="round" stroke-linejoin="round"></path>
            </g>
        </g>
    </g>
</svg>