<?xml version="1.0" encoding="UTF-8"?>
<svg width="120px" height="162px" viewBox="0 0 120 162" version="1.1" xmlns="http://www.w3.org/2000/svg" xmlns:xlink="http://www.w3.org/1999/xlink">
    <!-- Generator: Sketch 55.2 (78181) - https://sketchapp.com -->
    <title>10 PRV</title>
    <desc>Created with Sketch.</desc>
    <g id="Page-1" stroke="none" stroke-width="1" fill="none" fill-rule="evenodd">
        <g id="10-PRV">
            <rect id="Rectangle-Copy-34" fill="#FAFAFA" x="0" y="0" width="120" height="161.19"></rect>
            <g transform="translate(0.000000, 97.000000)" fill-rule="nonzero">
                <ellipse id="Oval" fill="#104E61" opacity="0.21" style="mix-blend-mode: multiply;" cx="60" cy="60.86" rx="60" ry="2.25"></ellipse>
                <path d="M68.47,23.86 C68.2806136,30.4864952 62.854201,35.7600357 56.225,35.7600357 C49.595799,35.7600357 44.1693864,30.4864952 43.98,23.86 C44.1693864,17.2335048 49.595799,11.9599643 56.225,11.9599643 C62.854201,11.9599643 68.2806136,17.2335048 68.47,23.86 L68.47,23.86 Z" id="Path" fill="#FFC30D"></path>
                <path d="M56.23,37.53 C51.9473531,37.6267578 47.8060051,35.9956869 44.7395521,33.0044843 C41.6730991,30.0132817 39.9396568,25.9137289 39.93,21.63 C39.783387,15.7121174 42.8567318,10.1799309 47.9587286,7.17785516 C53.0607254,4.17577945 59.3892746,4.17577945 64.4912714,7.17785516 C69.5932682,10.1799309 72.666613,15.7121174 72.52,21.63 C72.5130283,25.9128134 70.7818196,30.0124155 67.7169432,33.0039154 C64.6520669,35.9954154 60.5117252,37.6267925 56.23,37.53 L56.23,37.53 Z" id="Path" fill="#FFDD00"></path>
                <path d="M56.23,8.53 C48.6659846,8.53551514 42.5355151,14.6659846 42.53,22.23 C42.5475889,25.8199669 44.0103159,29.2515582 46.5880414,31.7502585 C49.1657669,34.2489588 52.6412251,35.6041632 56.23,35.51 C59.8178486,35.6041974 63.2922986,34.2486883 65.8684481,31.7496916 C68.4445975,29.2506949 69.9050935,25.819054 69.92,22.23 C69.9144937,14.6698841 63.7901099,8.54102661 56.23,8.53 Z" id="Path" fill="#FFFFFF" style="mix-blend-mode: overlay;"></path>
                <path d="M56.34,7.79 C48.7782662,7.80101492 42.6510149,13.9282662 42.64,21.49 C42.6575889,25.0799669 44.1203159,28.5115582 46.6980414,31.0102585 C49.2757669,33.5089588 52.7512251,34.8641632 56.34,34.77 C59.9227178,34.8559988 63.3893614,33.4968489 65.958944,30.9987481 C68.5285266,28.5006473 69.9849132,25.073718 70,21.49 C69.9945444,13.941562 63.8883898,7.81752699 56.34,7.79 Z" id="Path" fill="#F0A700"></path>
                <path d="M56.23,8.28 C52.5938816,8.2826512 49.1077425,9.72963671 46.5384939,12.302636 C43.9692453,14.8756354 42.5273469,18.3638816 42.5299963,22 C42.5475889,25.5899669 44.0103159,29.0215582 46.5880414,31.5202585 C49.1657669,34.0189588 52.6412251,35.3741632 56.23,35.28 C59.8178486,35.3741974 63.2922986,34.0186883 65.8684481,31.5196916 C68.4445975,29.0206949 69.9050935,25.589054 69.9200037,22 C69.9255281,14.4320759 63.797918,8.29103799 56.23,8.28 Z" id="Path" fill="#FFC000"></path>
                <rect id="Rectangle" fill="#D48200" x="7.54" y="54.01" width="32.16" height="6.68" rx="0.19"></rect>
                <rect id="Rectangle" fill="#FFC000" x="7.54" y="52.95" width="32.16" height="7.42" rx="0.19"></rect>
                <rect id="Rectangle" fill="#FFAF00" transform="translate(12.790000, 56.660000) rotate(180.000000) translate(-12.790000, -56.660000) " x="9.4" y="52.95" width="6.78" height="7.42"></rect>
                <rect id="Rectangle" fill="#FFDE00" transform="translate(34.445000, 56.660000) rotate(180.000000) translate(-34.445000, -56.660000) " x="33.26" y="52.95" width="2.37" height="7.42"></rect>
                <g id="Group" opacity="0.6" transform="translate(8.000000, 53.000000)" fill="#FFE600">
                    <path d="M1.07,6.88 C0.998391548,6.88 0.929715991,6.85155365 0.879081169,6.80091883 C0.828446347,6.75028401 0.8,6.68160845 0.8,6.61 L0.8,0.81 C0.779126241,0.703049049 0.824588702,0.594033967 0.915265632,0.533602899 C1.00594256,0.473171831 1.12405744,0.473171831 1.21473437,0.533602899 C1.3054113,0.594033967 1.35087376,0.703049049 1.33,0.81 L1.33,6.61 C1.33009969,6.75529736 1.2151977,6.87461865 1.07,6.88 L1.07,6.88 Z" id="Path"></path>
                    <path d="M3.15,6.88 C3.07839155,6.88 3.00971599,6.85155365 2.95908117,6.80091883 C2.90844635,6.75028401 2.88,6.68160845 2.88,6.61 L2.88,0.81 C2.85912624,0.703049049 2.9045887,0.594033967 2.99526563,0.533602899 C3.08594256,0.473171831 3.20405744,0.473171831 3.29473437,0.533602899 C3.3854113,0.594033967 3.43087376,0.703049049 3.41,0.81 L3.41,6.61 C3.41009969,6.75529736 3.2951977,6.87461865 3.15,6.88 L3.15,6.88 Z" id="Path"></path>
                    <path d="M5.22,6.88 C5.0748023,6.87461865 4.95990031,6.75529736 4.96,6.61 L4.96,0.81 C4.93912624,0.703049049 4.9845887,0.594033967 5.07526563,0.533602899 C5.16594256,0.473171831 5.28405744,0.473171831 5.37473437,0.533602899 C5.4654113,0.594033967 5.51087376,0.703049049 5.49,0.81 L5.49,6.61 C5.49,6.68160845 5.46155365,6.75028401 5.41091883,6.80091883 C5.36028401,6.85155365 5.29160845,6.88 5.22,6.88 Z" id="Path"></path>
                    <path d="M7.3,6.88 C7.1548023,6.87461865 7.03990031,6.75529736 7.04,6.61 L7.04,0.81 C7.01912624,0.703049049 7.0645887,0.594033967 7.15526563,0.533602899 C7.24594256,0.473171831 7.36405744,0.473171831 7.45473437,0.533602899 C7.5454113,0.594033967 7.59087376,0.703049049 7.57,0.81 L7.57,6.61 C7.57,6.68160845 7.54155365,6.75028401 7.49091883,6.80091883 C7.44028401,6.85155365 7.37160845,6.88 7.3,6.88 Z" id="Path"></path>
                    <path d="M9.38,6.88 C9.2348023,6.87461865 9.11990031,6.75529736 9.12,6.61 L9.12,0.81 C9.09912624,0.703049049 9.1445887,0.594033967 9.23526563,0.533602899 C9.32594256,0.473171831 9.44405744,0.473171831 9.53473437,0.533602899 C9.6254113,0.594033967 9.67087376,0.703049049 9.65,0.81 L9.65,6.61 C9.65,6.68160845 9.62155365,6.75028401 9.57091883,6.80091883 C9.52028401,6.85155365 9.45160845,6.88 9.38,6.88 L9.38,6.88 Z" id="Path"></path>
                    <path d="M11.46,6.88000007 C11.3892756,6.88000007 11.3215818,6.85129113 11.2725244,6.80034691 C11.223467,6.74940269 11.1972798,6.68067208 11.2,6.61 L11.2,0.81 C11.2,0.666405965 11.316406,0.55 11.46,0.55 C11.603594,0.55 11.72,0.666405965 11.72,0.81 L11.72,6.61 C11.7227202,6.68067208 11.696533,6.74940269 11.6474756,6.80034691 C11.5984182,6.85129113 11.5307244,6.88000007 11.46,6.88000007 L11.46,6.88000007 Z" id="Path"></path>
                    <path d="M13.54,6.88 C13.4683915,6.88 13.399716,6.85155365 13.3490812,6.80091883 C13.2984463,6.75028401 13.27,6.68160845 13.27,6.61 L13.27,0.81 C13.2491262,0.703049049 13.2945887,0.594033967 13.3852656,0.533602899 C13.4759426,0.473171831 13.5940574,0.473171831 13.6847344,0.533602899 C13.7754113,0.594033967 13.8208738,0.703049049 13.8,0.81 L13.8,6.61 C13.8000997,6.75529736 13.6851977,6.87461865 13.54,6.88 Z" id="Path"></path>
                    <path d="M15.62,6.88 C15.5483915,6.88 15.479716,6.85155365 15.4290812,6.80091883 C15.3784463,6.75028401 15.35,6.68160845 15.35,6.61 L15.35,0.81 C15.3291262,0.703049049 15.3745887,0.594033967 15.4652656,0.533602899 C15.5559426,0.473171831 15.6740574,0.473171831 15.7647344,0.533602899 C15.8554113,0.594033967 15.9008738,0.703049049 15.88,0.81 L15.88,6.61 C15.8800997,6.75529736 15.7651977,6.87461865 15.62,6.88 Z" id="Path"></path>
                    <path d="M17.7,6.88 C17.6283915,6.88 17.559716,6.85155365 17.5090812,6.80091883 C17.4584463,6.75028401 17.43,6.68160845 17.43,6.61 L17.43,0.81 C17.4091262,0.703049049 17.4545887,0.594033967 17.5452656,0.533602899 C17.6359426,0.473171831 17.7540574,0.473171831 17.8447344,0.533602899 C17.9354113,0.594033967 17.9808738,0.703049049 17.96,0.81 L17.96,6.61 C17.9600997,6.75529736 17.8451977,6.87461865 17.7,6.88 Z" id="Path"></path>
                    <path d="M19.78,6.88 C19.7083915,6.88 19.639716,6.85155365 19.5890812,6.80091883 C19.5384463,6.75028401 19.51,6.68160845 19.51,6.61 L19.51,0.81 C19.4891262,0.703049049 19.5345887,0.594033967 19.6252656,0.533602899 C19.7159426,0.473171831 19.8340574,0.473171831 19.9247344,0.533602899 C20.0154113,0.594033967 20.0608738,0.703049049 20.04,0.81 L20.04,6.61 C20.0400997,6.75529736 19.9251977,6.87461865 19.78,6.88 Z" id="Path"></path>
                    <path d="M21.85,6.88 C21.7048023,6.87461865 21.5899003,6.75529736 21.59,6.61 L21.59,0.81 C21.5691262,0.703049049 21.6145887,0.594033967 21.7052656,0.533602899 C21.7959426,0.473171831 21.9140574,0.473171831 22.0047344,0.533602899 C22.0954113,0.594033967 22.1408738,0.703049049 22.12,0.81 L22.12,6.61 C22.12,6.68160845 22.0915537,6.75028401 22.0409188,6.80091883 C21.990284,6.85155365 21.9216085,6.88 21.85,6.88 L21.85,6.88 Z" id="Path"></path>
                    <path d="M23.93,6.88 C23.7848023,6.87461865 23.6699003,6.75529736 23.67,6.61 L23.67,0.81 C23.6491262,0.703049049 23.6945887,0.594033967 23.7852656,0.533602899 C23.8759426,0.473171831 23.9940574,0.473171831 24.0847344,0.533602899 C24.1754113,0.594033967 24.2208738,0.703049049 24.2,0.81 L24.2,6.61 C24.2,6.68160845 24.1715537,6.75028401 24.1209188,6.80091883 C24.070284,6.85155365 24.0016085,6.88 23.93,6.88 L23.93,6.88 Z" id="Path"></path>
                    <path d="M26,6.88 C25.8548023,6.87461865 25.7399003,6.75529736 25.74,6.61 L25.74,0.81 C25.7191262,0.703049049 25.7645887,0.594033967 25.8552656,0.533602899 C25.9459426,0.473171831 26.0640574,0.473171831 26.1547344,0.533602899 C26.2454113,0.594033967 26.2908738,0.703049049 26.27,0.81 L26.27,6.61 C26.27,6.68160845 26.2415537,6.75028401 26.1909188,6.80091883 C26.140284,6.85155365 26.0716085,6.88 26,6.88 Z" id="Path"></path>
                    <path d="M28.09,6.88000007 C28.0192756,6.88000007 27.9515818,6.85129113 27.9025244,6.80034691 C27.853467,6.74940269 27.8272798,6.68067208 27.83,6.61 L27.83,0.81 C27.83,0.666405965 27.946406,0.55 28.09,0.55 C28.233594,0.55 28.35,0.666405965 28.35,0.81 L28.35,6.61 C28.3527202,6.68067208 28.326533,6.74940269 28.2774756,6.80034691 C28.2284182,6.85129113 28.1607244,6.88000007 28.09,6.88000007 L28.09,6.88000007 Z" id="Path"></path>
                    <path d="M30.17,6.88000007 C30.0992756,6.88000007 30.0315818,6.85129113 29.9825244,6.80034691 C29.933467,6.74940269 29.9072798,6.68067208 29.91,6.61 L29.91,0.81 C29.9072798,0.739327923 29.933467,0.670597311 29.9825244,0.61965309 C30.0315818,0.56870887 30.0992756,0.539999929 30.17,0.539999929 C30.3151977,0.545381351 30.4300997,0.664702644 30.43,0.81 L30.43,6.61 C30.4300997,6.75529736 30.3151977,6.87461865 30.17,6.88000007 L30.17,6.88000007 Z" id="Path"></path>
                </g>
                <rect id="Rectangle" fill="#D48200" x="41.86" y="54.01" width="32.16" height="6.68" rx="0.19"></rect>
                <rect id="Rectangle" fill="#FFC000" x="41.86" y="52.95" width="32.16" height="7.42" rx="0.19"></rect>
                <rect id="Rectangle" fill="#FFAF00" transform="translate(45.250000, 56.660000) rotate(180.000000) translate(-45.250000, -56.660000) " x="41.86" y="52.95" width="6.78" height="7.42"></rect>
                <rect id="Rectangle" fill="#A20012" opacity="0.21" style="mix-blend-mode: multiply;" transform="translate(42.895000, 56.660000) rotate(180.000000) translate(-42.895000, -56.660000) " x="41.87" y="52.95" width="2.05" height="7.42"></rect>
                <rect id="Rectangle" fill="#FFDE00" transform="translate(68.775000, 56.660000) rotate(180.000000) translate(-68.775000, -56.660000) " x="67.59" y="52.95" width="2.37" height="7.42"></rect>
                <g id="Group" opacity="0.6" transform="translate(42.000000, 53.000000)" fill="#FFE600">
                    <path d="M1.39,6.88 C1.2448023,6.87461865 1.12990031,6.75529736 1.13,6.61 L1.13,0.81 C1.10912624,0.703049049 1.1545887,0.594033967 1.24526563,0.533602899 C1.33594256,0.473171831 1.45405744,0.473171831 1.54473437,0.533602899 C1.6354113,0.594033967 1.68087376,0.703049049 1.66,0.81 L1.66,6.61 C1.66,6.68160845 1.63155365,6.75028401 1.58091883,6.80091883 C1.53028401,6.85155365 1.46160845,6.88 1.39,6.88 Z" id="Path"></path>
                    <path d="M3.47,6.88 C3.3248023,6.87461865 3.20990031,6.75529736 3.21,6.61 L3.21,0.81 C3.18912624,0.703049049 3.2345887,0.594033967 3.32526563,0.533602899 C3.41594256,0.473171831 3.53405744,0.473171831 3.62473437,0.533602899 C3.7154113,0.594033967 3.76087376,0.703049049 3.74,0.81 L3.74,6.61 C3.74,6.68160845 3.71155365,6.75028401 3.66091883,6.80091883 C3.61028401,6.85155365 3.54160845,6.88 3.47,6.88 Z" id="Path"></path>
                    <path d="M5.55,6.88 C5.4048023,6.87461865 5.28990031,6.75529736 5.29,6.61 L5.29,0.81 C5.26912624,0.703049049 5.3145887,0.594033967 5.40526563,0.533602899 C5.49594256,0.473171831 5.61405744,0.473171831 5.70473437,0.533602899 C5.7954113,0.594033967 5.84087376,0.703049049 5.82,0.81 L5.82,6.61 C5.82,6.68160845 5.79155365,6.75028401 5.74091883,6.80091883 C5.69028401,6.85155365 5.62160845,6.88 5.55,6.88 Z" id="Path"></path>
                    <path d="M7.63,6.88000007 C7.55927561,6.88000007 7.49158176,6.85129113 7.44252436,6.80034691 C7.39346697,6.74940269 7.36727981,6.68067208 7.37,6.61 L7.37,0.81 C7.37,0.666405965 7.48640597,0.55 7.63,0.55 C7.77359403,0.55 7.89,0.666405965 7.89,0.81 L7.89,6.61 C7.89272019,6.68067208 7.86653303,6.74940269 7.81747564,6.80034691 C7.76841824,6.85129113 7.70072439,6.88000007 7.63,6.88000007 L7.63,6.88000007 Z" id="Path"></path>
                    <path d="M9.71,6.88000007 C9.63927561,6.88000007 9.57158176,6.85129113 9.52252436,6.80034691 C9.47346697,6.74940269 9.44727981,6.68067208 9.45,6.61 L9.45,0.81 C9.44727981,0.739327923 9.47346697,0.670597311 9.52252436,0.61965309 C9.57158176,0.56870887 9.63927561,0.539999929 9.71,0.539999929 C9.8551977,0.545381351 9.97009969,0.664702644 9.97,0.81 L9.97,6.61 C9.97009969,6.75529736 9.8551977,6.87461865 9.71,6.88000007 L9.71,6.88000007 Z" id="Path"></path>
                    <path d="M11.79,6.88 C11.7183915,6.88 11.649716,6.85155365 11.5990812,6.80091883 C11.5484463,6.75028401 11.52,6.68160845 11.52,6.61 L11.52,0.81 C11.4991262,0.703049049 11.5445887,0.594033967 11.6352656,0.533602899 C11.7259426,0.473171831 11.8440574,0.473171831 11.9347344,0.533602899 C12.0254113,0.594033967 12.0708738,0.703049049 12.05,0.81 L12.05,6.61 C12.0500997,6.75529736 11.9351977,6.87461865 11.79,6.88 Z" id="Path"></path>
                    <path d="M13.87,6.88 C13.7983915,6.88 13.729716,6.85155365 13.6790812,6.80091883 C13.6284463,6.75028401 13.6,6.68160845 13.6,6.61 L13.6,0.81 C13.5791262,0.703049049 13.6245887,0.594033967 13.7152656,0.533602899 C13.8059426,0.473171831 13.9240574,0.473171831 14.0147344,0.533602899 C14.1054113,0.594033967 14.1508738,0.703049049 14.13,0.81 L14.13,6.61 C14.1300997,6.75529736 14.0151977,6.87461865 13.87,6.88 Z" id="Path"></path>
                    <path d="M16,6.88 C15.9283915,6.88 15.859716,6.85155365 15.8090812,6.80091883 C15.7584463,6.75028401 15.73,6.68160845 15.73,6.61 L15.73,0.81 C15.7091262,0.703049049 15.7545887,0.594033967 15.8452656,0.533602899 C15.9359426,0.473171831 16.0540574,0.473171831 16.1447344,0.533602899 C16.2354113,0.594033967 16.2808738,0.703049049 16.26,0.81 L16.26,6.61 C16.2600997,6.75529736 16.1451977,6.87461865 16,6.88 L16,6.88 Z" id="Path"></path>
                    <path d="M18,6.88 C17.8548023,6.87461865 17.7399003,6.75529736 17.74,6.61 L17.74,0.81 C17.7191262,0.703049049 17.7645887,0.594033967 17.8552656,0.533602899 C17.9459426,0.473171831 18.0640574,0.473171831 18.1547344,0.533602899 C18.2454113,0.594033967 18.2908738,0.703049049 18.27,0.81 L18.27,6.61 C18.27,6.68160845 18.2415537,6.75028401 18.1909188,6.80091883 C18.140284,6.85155365 18.0716085,6.88 18,6.88 Z" id="Path"></path>
                    <path d="M20.1,6.88 C19.9548023,6.87461865 19.8399003,6.75529736 19.84,6.61 L19.84,0.81 C19.8191262,0.703049049 19.8645887,0.594033967 19.9552656,0.533602899 C20.0459426,0.473171831 20.1640574,0.473171831 20.2547344,0.533602899 C20.3454113,0.594033967 20.3908738,0.703049049 20.37,0.81 L20.37,6.61 C20.37,6.68160845 20.3415537,6.75028401 20.2909188,6.80091883 C20.240284,6.85155365 20.1716085,6.88 20.1,6.88 L20.1,6.88 Z" id="Path"></path>
                    <path d="M22.18,6.88 C22.0348023,6.87461865 21.9199003,6.75529736 21.92,6.61 L21.92,0.81 C21.8991262,0.703049049 21.9445887,0.594033967 22.0352656,0.533602899 C22.1259426,0.473171831 22.2440574,0.473171831 22.3347344,0.533602899 C22.4254113,0.594033967 22.4708738,0.703049049 22.45,0.81 L22.45,6.61 C22.45,6.68160845 22.4215537,6.75028401 22.3709188,6.80091883 C22.320284,6.85155365 22.2516085,6.88 22.18,6.88 Z" id="Path"></path>
                    <path d="M24.26,6.88000007 C24.1148023,6.87461865 23.9999003,6.75529736 24,6.61 L24,0.81 C23.9999003,0.664702644 24.1148023,0.545381351 24.26,0.539999929 C24.3307244,0.539999929 24.3984182,0.56870887 24.4474756,0.61965309 C24.496533,0.670597311 24.5227202,0.739327923 24.52,0.81 L24.52,6.61 C24.5227202,6.68067208 24.496533,6.74940269 24.4474756,6.80034691 C24.3984182,6.85129113 24.3307244,6.88000007 24.26,6.88000007 L24.26,6.88000007 Z" id="Path"></path>
                    <path d="M26.34,6.88000007 C26.2692756,6.88000007 26.2015818,6.85129113 26.1525244,6.80034691 C26.103467,6.74940269 26.0772798,6.68067208 26.08,6.61 L26.08,0.81 C26.0772798,0.739327923 26.103467,0.670597311 26.1525244,0.61965309 C26.2015818,0.56870887 26.2692756,0.539999929 26.34,0.539999929 C26.4851977,0.545381351 26.6000997,0.664702644 26.6,0.81 L26.6,6.61 C26.6000997,6.75529736 26.4851977,6.87461865 26.34,6.88000007 Z" id="Path"></path>
                    <path d="M28.42,6.88 C28.3483915,6.88 28.279716,6.85155365 28.2290812,6.80091883 C28.1784463,6.75028401 28.15,6.68160845 28.15,6.61 L28.15,0.81 C28.1291262,0.703049049 28.1745887,0.594033967 28.2652656,0.533602899 C28.3559426,0.473171831 28.4740574,0.473171831 28.5647344,0.533602899 C28.6554113,0.594033967 28.7008738,0.703049049 28.68,0.81 L28.68,6.61 C28.6800997,6.75529736 28.5651977,6.87461865 28.42,6.88 Z" id="Path"></path>
                    <path d="M30.5,6.88 C30.4283915,6.88 30.359716,6.85155365 30.3090812,6.80091883 C30.2584463,6.75028401 30.23,6.68160845 30.23,6.61 L30.23,0.81 C30.2091262,0.703049049 30.2545887,0.594033967 30.3452656,0.533602899 C30.4359426,0.473171831 30.5540574,0.473171831 30.6447344,0.533602899 C30.7354113,0.594033967 30.7808738,0.703049049 30.76,0.81 L30.76,6.61 C30.7600997,6.75529736 30.6451977,6.87461865 30.5,6.88 Z" id="Path"></path>
                </g>
                <rect id="Rectangle" fill="#D48200" x="79.44" y="54.01" width="32.16" height="6.68" rx="0.19"></rect>
                <rect id="Rectangle" fill="#FFC000" x="79.44" y="52.95" width="32.16" height="7.42" rx="0.19"></rect>
                <rect id="Rectangle" fill="#FFAF00" transform="translate(82.840000, 56.660000) rotate(180.000000) translate(-82.840000, -56.660000) " x="79.45" y="52.95" width="6.78" height="7.42"></rect>
                <rect id="Rectangle" fill="#A20012" opacity="0.21" style="mix-blend-mode: multiply;" transform="translate(80.475000, 56.660000) rotate(180.000000) translate(-80.475000, -56.660000) " x="79.45" y="52.95" width="2.05" height="7.42"></rect>
                <rect id="Rectangle" fill="#FFDE00" transform="translate(106.355000, 56.660000) rotate(180.000000) translate(-106.355000, -56.660000) " x="105.17" y="52.95" width="2.37" height="7.42"></rect>
                <g id="Group" opacity="0.6" transform="translate(80.000000, 53.000000)" fill="#FFE600">
                    <path d="M1,6.88 C0.850883118,6.88 0.73,6.75911688 0.73,6.61 L0.73,0.81 C0.709126241,0.703049049 0.754588702,0.594033967 0.845265632,0.533602899 C0.935942563,0.473171831 1.05405744,0.473171831 1.14473437,0.533602899 C1.2354113,0.594033967 1.28087376,0.703049049 1.26,0.81 L1.26,6.61 C1.26009969,6.75529736 1.1451977,6.87461865 1,6.88 L1,6.88 Z" id="Path"></path>
                    <path d="M3.05,6.88 C2.9048023,6.87461865 2.78990031,6.75529736 2.79,6.61 L2.79,0.81 C2.76912624,0.703049049 2.8145887,0.594033967 2.90526563,0.533602899 C2.99594256,0.473171831 3.11405744,0.473171831 3.20473437,0.533602899 C3.2954113,0.594033967 3.34087376,0.703049049 3.32,0.81 L3.32,6.61 C3.32,6.68160845 3.29155365,6.75028401 3.24091883,6.80091883 C3.19028401,6.85155365 3.12160845,6.88 3.05,6.88 Z" id="Path"></path>
                    <path d="M5.13,6.88 C4.9848023,6.87461865 4.86990031,6.75529736 4.87,6.61 L4.87,0.81 C4.84912624,0.703049049 4.8945887,0.594033967 4.98526563,0.533602899 C5.07594256,0.473171831 5.19405744,0.473171831 5.28473437,0.533602899 C5.3754113,0.594033967 5.42087376,0.703049049 5.4,0.81 L5.4,6.61 C5.4,6.68160845 5.37155365,6.75028401 5.32091883,6.80091883 C5.27028401,6.85155365 5.20160845,6.88 5.13,6.88 Z" id="Path"></path>
                    <path d="M7.21,6.88 C7.0648023,6.87461865 6.94990031,6.75529736 6.95,6.61 L6.95,0.81 C6.92912624,0.703049049 6.9745887,0.594033967 7.06526563,0.533602899 C7.15594256,0.473171831 7.27405744,0.473171831 7.36473437,0.533602899 C7.4554113,0.594033967 7.50087376,0.703049049 7.48,0.81 L7.48,6.61 C7.48,6.68160845 7.45155365,6.75028401 7.40091883,6.80091883 C7.35028401,6.85155365 7.28160845,6.88 7.21,6.88 Z" id="Path"></path>
                    <path d="M9.29,6.88000007 C9.1448023,6.87461865 9.02990031,6.75529736 9.03,6.61 L9.03,0.81 C9.02990031,0.664702644 9.1448023,0.545381351 9.29,0.539999929 C9.36072439,0.539999929 9.42841824,0.56870887 9.47747564,0.61965309 C9.52653303,0.670597311 9.55272019,0.739327923 9.55,0.81 L9.55,6.61 C9.55272019,6.68067208 9.52653303,6.74940269 9.47747564,6.80034691 C9.42841824,6.85129113 9.36072439,6.88000007 9.29,6.88000007 L9.29,6.88000007 Z" id="Path"></path>
                    <path d="M11.37,6.88000007 C11.2992756,6.88000007 11.2315818,6.85129113 11.1825244,6.80034691 C11.133467,6.74940269 11.1072798,6.68067208 11.11,6.61 L11.11,0.81 C11.1072798,0.739327923 11.133467,0.670597311 11.1825244,0.61965309 C11.2315818,0.56870887 11.2992756,0.539999929 11.37,0.539999929 C11.5151977,0.545381351 11.6300997,0.664702644 11.63,0.81 L11.63,6.61 C11.6300997,6.75529736 11.5151977,6.87461865 11.37,6.88000007 Z" id="Path"></path>
                    <path d="M13.45,6.88 C13.3783915,6.88 13.309716,6.85155365 13.2590812,6.80091883 C13.2084463,6.75028401 13.18,6.68160845 13.18,6.61 L13.18,0.81 C13.1591262,0.703049049 13.2045887,0.594033967 13.2952656,0.533602899 C13.3859426,0.473171831 13.5040574,0.473171831 13.5947344,0.533602899 C13.6854113,0.594033967 13.7308738,0.703049049 13.71,0.81 L13.71,6.61 C13.7100997,6.75529736 13.5951977,6.87461865 13.45,6.88 L13.45,6.88 Z" id="Path"></path>
                    <path d="M15.53,6.88 C15.4583915,6.88 15.389716,6.85155365 15.3390812,6.80091883 C15.2884463,6.75028401 15.26,6.68160845 15.26,6.61 L15.26,0.81 C15.2391262,0.703049049 15.2845887,0.594033967 15.3752656,0.533602899 C15.4659426,0.473171831 15.5840574,0.473171831 15.6747344,0.533602899 C15.7654113,0.594033967 15.8108738,0.703049049 15.79,0.81 L15.79,6.61 C15.7900997,6.75529736 15.6751977,6.87461865 15.53,6.88 L15.53,6.88 Z" id="Path"></path>
                    <path d="M17.61,6.88 C17.5383915,6.88 17.469716,6.85155365 17.4190812,6.80091883 C17.3684463,6.75028401 17.34,6.68160845 17.34,6.61 L17.34,0.81 C17.3191262,0.703049049 17.3645887,0.594033967 17.4552656,0.533602899 C17.5459426,0.473171831 17.6640574,0.473171831 17.7547344,0.533602899 C17.8454113,0.594033967 17.8908738,0.703049049 17.87,0.81 L17.87,6.61 C17.8700997,6.75529736 17.7551977,6.87461865 17.61,6.88 L17.61,6.88 Z" id="Path"></path>
                    <path d="M19.68,6.88 C19.5348023,6.87461865 19.4199003,6.75529736 19.42,6.61 L19.42,0.81 C19.3991262,0.703049049 19.4445887,0.594033967 19.5352656,0.533602899 C19.6259426,0.473171831 19.7440574,0.473171831 19.8347344,0.533602899 C19.9254113,0.594033967 19.9708738,0.703049049 19.95,0.81 L19.95,6.61 C19.95,6.68160845 19.9215537,6.75028401 19.8709188,6.80091883 C19.820284,6.85155365 19.7516085,6.88 19.68,6.88 Z" id="Path"></path>
                    <path d="M21.76,6.88 C21.6148023,6.87461865 21.4999003,6.75529736 21.5,6.61 L21.5,0.81 C21.4791262,0.703049049 21.5245887,0.594033967 21.6152656,0.533602899 C21.7059426,0.473171831 21.8240574,0.473171831 21.9147344,0.533602899 C22.0054113,0.594033967 22.0508738,0.703049049 22.03,0.81 L22.03,6.61 C22.03,6.68160845 22.0015537,6.75028401 21.9509188,6.80091883 C21.900284,6.85155365 21.8316085,6.88 21.76,6.88 Z" id="Path"></path>
                    <path d="M23.84,6.88 C23.6948023,6.87461865 23.5799003,6.75529736 23.58,6.61 L23.58,0.81 C23.5591262,0.703049049 23.6045887,0.594033967 23.6952656,0.533602899 C23.7859426,0.473171831 23.9040574,0.473171831 23.9947344,0.533602899 C24.0854113,0.594033967 24.1308738,0.703049049 24.11,0.81 L24.11,6.61 C24.11,6.68160845 24.0815537,6.75028401 24.0309188,6.80091883 C23.980284,6.85155365 23.9116085,6.88 23.84,6.88 L23.84,6.88 Z" id="Path"></path>
                    <path d="M25.92,6.88000007 C25.7748023,6.87461865 25.6599003,6.75529736 25.66,6.61 L25.66,0.81 C25.6599003,0.664702644 25.7748023,0.545381351 25.92,0.539999929 C25.9907244,0.539999929 26.0584182,0.56870887 26.1074756,0.61965309 C26.156533,0.670597311 26.1827202,0.739327923 26.18,0.81 L26.18,6.61 C26.1827202,6.68067208 26.156533,6.74940269 26.1074756,6.80034691 C26.0584182,6.85129113 25.9907244,6.88000007 25.92,6.88000007 L25.92,6.88000007 Z" id="Path"></path>
                    <path d="M28,6.88000007 C27.9292756,6.88000007 27.8615818,6.85129113 27.8125244,6.80034691 C27.763467,6.74940269 27.7372798,6.68067208 27.74,6.61 L27.74,0.81 C27.7372798,0.739327923 27.763467,0.670597311 27.8125244,0.61965309 C27.8615818,0.56870887 27.9292756,0.539999929 28,0.539999929 C28.1451977,0.545381351 28.2600997,0.664702644 28.26,0.81 L28.26,6.61 C28.2600997,6.75529736 28.1451977,6.87461865 28,6.88000007 L28,6.88000007 Z" id="Path"></path>
                    <path d="M30.08,6.88 C30.0083915,6.88 29.939716,6.85155365 29.8890812,6.80091883 C29.8384463,6.75028401 29.81,6.68160845 29.81,6.61 L29.81,0.81 C29.7891262,0.703049049 29.8345887,0.594033967 29.9252656,0.533602899 C30.0159426,0.473171831 30.1340574,0.473171831 30.2247344,0.533602899 C30.3154113,0.594033967 30.3608738,0.703049049 30.34,0.81 L30.34,6.61 C30.3400997,6.75529736 30.2251977,6.87461865 30.08,6.88 L30.08,6.88 Z" id="Path"></path>
                </g>
                <rect id="Rectangle" fill="#D48200" x="68.89" y="46.27" width="32.16" height="6.68" rx="0.19"></rect>
                <rect id="Rectangle" fill="#FFC000" x="68.89" y="45.21" width="32.16" height="7.42" rx="0.19"></rect>
                <rect id="Rectangle" fill="#A20012" opacity="0.15" style="mix-blend-mode: multiply;" transform="translate(84.970000, 48.920000) rotate(180.000000) translate(-84.970000, -48.920000) " x="68.89" y="45.21" width="32.16" height="7.42"></rect>
                <rect id="Rectangle" fill="#A20012" opacity="0.21" style="mix-blend-mode: multiply;" transform="translate(70.380000, 48.920000) rotate(180.000000) translate(-70.380000, -48.920000) " x="68.9" y="45.21" width="2.96" height="7.42"></rect>
                <rect id="Rectangle" fill="#FFDE00" opacity="0.25" transform="translate(95.795000, 48.920000) rotate(180.000000) translate(-95.795000, -48.920000) " x="94.61" y="45.21" width="2.37" height="7.42"></rect>
                <g id="Group" opacity="0.6" transform="translate(69.000000, 45.000000)" fill="#FFE600">
                    <path d="M1.42,7.14 C1.27088312,7.14 1.15,7.01911688 1.15,6.87 L1.15,1.06 C1.17474453,0.933216363 1.28582422,0.841720402 1.41500003,0.841720402 C1.54417578,0.841720402 1.65525547,0.933216363 1.68,1.06 L1.68,6.87 C1.68009969,7.01529736 1.5651977,7.13461865 1.42,7.14 L1.42,7.14 Z" id="Path"></path>
                    <path d="M3.5,7.14 C3.35088312,7.14 3.23,7.01911688 3.23,6.87 L3.23,1.06 C3.25474453,0.933216363 3.36582422,0.841720402 3.49500003,0.841720402 C3.62417578,0.841720402 3.73525547,0.933216363 3.76,1.06 L3.76,6.87 C3.76009969,7.01529736 3.6451977,7.13461865 3.5,7.14 L3.5,7.14 Z" id="Path"></path>
                    <path d="M5.57,7.14 C5.4248023,7.13461865 5.30990031,7.01529736 5.31,6.87 L5.31,1.06 C5.33474453,0.933216363 5.44582422,0.841720402 5.57499997,0.841720402 C5.70417578,0.841720402 5.81525547,0.933216363 5.84,1.06 L5.84,6.87 C5.84,7.01911688 5.71911688,7.14 5.57,7.14 L5.57,7.14 Z" id="Path"></path>
                    <path d="M7.65,7.14 C7.5048023,7.13461865 7.38990031,7.01529736 7.39,6.87 L7.39,1.06 C7.41474453,0.933216363 7.52582422,0.841720402 7.65499997,0.841720402 C7.78417578,0.841720402 7.89525547,0.933216363 7.92,1.06 L7.92,6.87 C7.92,7.01911688 7.79911688,7.14 7.65,7.14 L7.65,7.14 Z" id="Path"></path>
                    <path d="M9.73,7.14 C9.5848023,7.13461865 9.46990031,7.01529736 9.47,6.87 L9.47,1.06 C9.49474453,0.933216363 9.60582422,0.841720402 9.73499997,0.841720402 C9.86417578,0.841720402 9.97525547,0.933216363 10,1.06 L10,6.87 C10,7.01911688 9.87911688,7.14 9.73,7.14 L9.73,7.14 Z" id="Path"></path>
                    <path d="M11.81,7.14000007 C11.7392756,7.14000007 11.6715818,7.11129113 11.6225244,7.06034691 C11.573467,7.00940269 11.5472798,6.94067208 11.55,6.87 L11.55,1.06 C11.55,0.916405965 11.666406,0.8 11.81,0.8 C11.953594,0.8 12.07,0.916405965 12.07,1.06 L12.07,6.87 C12.0727202,6.94067208 12.046533,7.00940269 11.9974756,7.06034691 C11.9484182,7.11129113 11.8807244,7.14000007 11.81,7.14000007 L11.81,7.14000007 Z" id="Path"></path>
                    <path d="M13.89,7.14000007 C13.8192756,7.14000007 13.7515818,7.11129113 13.7025244,7.06034691 C13.653467,7.00940269 13.6272798,6.94067208 13.63,6.87 L13.63,1.06 C13.63,0.916405965 13.746406,0.8 13.89,0.8 C13.9589563,0.8 14.0250883,0.827392778 14.0738478,0.876152237 C14.1226072,0.924911695 14.15,0.991043713 14.15,1.06 L14.15,6.87 C14.1500997,7.01529736 14.0351977,7.13461865 13.89,7.14000007 L13.89,7.14000007 Z" id="Path"></path>
                    <path d="M16,7.14 C15.8508831,7.14 15.73,7.01911688 15.73,6.87 L15.73,1.06 C15.7547445,0.933216363 15.8658242,0.841720402 15.995,0.841720402 C16.1241758,0.841720402 16.2352555,0.933216363 16.26,1.06 L16.26,6.87 C16.2600997,7.01529736 16.1451977,7.13461865 16,7.14 L16,7.14 Z" id="Path"></path>
                    <path d="M18.05,7.14 C17.9008831,7.14 17.78,7.01911688 17.78,6.87 L17.78,1.06 C17.8047445,0.933216363 17.9158242,0.841720402 18.045,0.841720402 C18.1741758,0.841720402 18.2852555,0.933216363 18.31,1.06 L18.31,6.87 C18.3100997,7.01529736 18.1951977,7.13461865 18.05,7.14 L18.05,7.14 Z" id="Path"></path>
                    <path d="M20.13,7.14 C19.9808831,7.14 19.86,7.01911688 19.86,6.87 L19.86,1.06 C19.8847445,0.933216363 19.9958242,0.841720402 20.125,0.841720402 C20.2541758,0.841720402 20.3652555,0.933216363 20.39,1.06 L20.39,6.87 C20.3900997,7.01529736 20.2751977,7.13461865 20.13,7.14 L20.13,7.14 Z" id="Path"></path>
                    <path d="M22.2,7.14 C22.0548023,7.13461865 21.9399003,7.01529736 21.94,6.87 L21.94,1.06 C21.9647445,0.933216363 22.0758242,0.841720402 22.205,0.841720402 C22.3341758,0.841720402 22.4452555,0.933216363 22.47,1.06 L22.47,6.87 C22.47,7.01911688 22.3491169,7.14 22.2,7.14 L22.2,7.14 Z" id="Path"></path>
                    <path d="M24.28,7.14 C24.1348023,7.13461865 24.0199003,7.01529736 24.02,6.87 L24.02,1.06 C24.0447445,0.933216363 24.1558242,0.841720402 24.285,0.841720402 C24.4141758,0.841720402 24.5252555,0.933216363 24.55,1.06 L24.55,6.87 C24.55,7.01911688 24.4291169,7.14 24.28,7.14 L24.28,7.14 Z" id="Path"></path>
                    <path d="M26.36,7.14 C26.2148023,7.13461865 26.0999003,7.01529736 26.1,6.87 L26.1,1.06 C26.1247445,0.933216363 26.2358242,0.841720402 26.365,0.841720402 C26.4941758,0.841720402 26.6052555,0.933216363 26.63,1.06 L26.63,6.87 C26.63,7.01911688 26.5091169,7.14 26.36,7.14 L26.36,7.14 Z" id="Path"></path>
                    <path d="M28.44,7.14000007 C28.2948023,7.13461865 28.1799003,7.01529736 28.18,6.87 L28.18,1.06 C28.18,0.916405965 28.296406,0.8 28.44,0.8 C28.583594,0.8 28.7,0.916405965 28.7,1.06 L28.7,6.87 C28.7027202,6.94067208 28.676533,7.00940269 28.6274756,7.06034691 C28.5784182,7.11129113 28.5107244,7.14000007 28.44,7.14000007 L28.44,7.14000007 Z" id="Path"></path>
                    <path d="M30.52,7.14000007 C30.4492756,7.14000007 30.3815818,7.11129113 30.3325244,7.06034691 C30.283467,7.00940269 30.2572798,6.94067208 30.26,6.87 L30.26,1.06 C30.26,0.916405965 30.376406,0.8 30.52,0.8 C30.663594,0.8 30.78,0.916405965 30.78,1.06 L30.78,6.87 C30.7800997,7.01529736 30.6651977,7.13461865 30.52,7.14000007 L30.52,7.14000007 Z" id="Path"></path>
                </g>
                <rect id="Rectangle" fill="#D48200" x="35.1" y="46.27" width="32.16" height="6.68" rx="0.19"></rect>
                <rect id="Rectangle" fill="#FFC000" x="35.1" y="45.21" width="32.16" height="7.42" rx="0.19"></rect>
                <rect id="Rectangle" fill="#FFAF00" transform="translate(42.605000, 48.920000) rotate(180.000000) translate(-42.605000, -48.920000) " x="35.1" y="45.21" width="15.01" height="7.42"></rect>
                <rect id="Rectangle" fill="#A20012" opacity="0.21" style="mix-blend-mode: multiply;" transform="translate(36.125000, 48.920000) rotate(180.000000) translate(-36.125000, -48.920000) " x="35.1" y="45.21" width="2.05" height="7.42"></rect>
                <rect id="Rectangle" fill="#FFDE00" transform="translate(62.005000, 48.920000) rotate(180.000000) translate(-62.005000, -48.920000) " x="60.82" y="45.21" width="2.37" height="7.42"></rect>
                <g id="Group" opacity="0.6" transform="translate(36.000000, 45.000000)" fill="#FFE600">
                    <path d="M0.63,7.14000007 C0.559275612,7.14000007 0.49158176,7.11129113 0.442524363,7.06034691 C0.393466965,7.00940269 0.367279811,6.94067208 0.37,6.87 L0.37,1.06 C0.37,0.916405965 0.486405965,0.8 0.63,0.8 C0.773594035,0.8 0.89,0.916405965 0.89,1.06 L0.89,6.87 C0.892720189,6.94067208 0.866533035,7.00940269 0.817475637,7.06034691 C0.76841824,7.11129113 0.700724388,7.14000007 0.63,7.14000007 Z" id="Path"></path>
                    <path d="M2.71,7.14 C2.56088312,7.14 2.44,7.01911688 2.44,6.87 L2.44,1.06 C2.46474453,0.933216363 2.57582422,0.841720402 2.70500003,0.841720402 C2.83417578,0.841720402 2.94525547,0.933216363 2.97,1.06 L2.97,6.87 C2.97009969,7.01529736 2.8551977,7.13461865 2.71,7.14 L2.71,7.14 Z" id="Path"></path>
                    <path d="M4.79,7.14 C4.64088312,7.14 4.52,7.01911688 4.52,6.87 L4.52,1.06 C4.54474453,0.933216363 4.65582422,0.841720402 4.78500003,0.841720402 C4.91417578,0.841720402 5.02525547,0.933216363 5.05,1.06 L5.05,6.87 C5.05009969,7.01529736 4.9351977,7.13461865 4.79,7.14 L4.79,7.14 Z" id="Path"></path>
                    <path d="M6.87,7.14 C6.72088312,7.14 6.6,7.01911688 6.6,6.87 L6.6,1.06 C6.62474453,0.933216363 6.73582422,0.841720402 6.86500003,0.841720402 C6.99417578,0.841720402 7.10525547,0.933216363 7.13,1.06 L7.13,6.87 C7.13009969,7.01529736 7.0151977,7.13461865 6.87,7.14 L6.87,7.14 Z" id="Path"></path>
                    <path d="M8.94,7.14 C8.7948023,7.13461865 8.67990031,7.01529736 8.68,6.87 L8.68,1.06 C8.70474453,0.933216363 8.81582422,0.841720402 8.94499997,0.841720402 C9.07417578,0.841720402 9.18525547,0.933216363 9.21,1.06 L9.21,6.87 C9.21,7.01911688 9.08911688,7.14 8.94,7.14 L8.94,7.14 Z" id="Path"></path>
                    <path d="M11,7.14 C10.8548023,7.13461865 10.7399003,7.01529736 10.74,6.87 L10.74,1.06 C10.7647445,0.933216363 10.8758242,0.841720402 11.005,0.841720402 C11.1341758,0.841720402 11.2452555,0.933216363 11.27,1.06 L11.27,6.87 C11.27,7.01911688 11.1491169,7.14 11,7.14 L11,7.14 Z" id="Path"></path>
                    <path d="M13.1,7.14 C12.9548023,7.13461865 12.8399003,7.01529736 12.84,6.87 L12.84,1.06 C12.8647445,0.933216363 12.9758242,0.841720402 13.105,0.841720402 C13.2341758,0.841720402 13.3452555,0.933216363 13.37,1.06 L13.37,6.87 C13.37,7.01911688 13.2491169,7.14 13.1,7.14 L13.1,7.14 Z" id="Path"></path>
                    <path d="M15.18,7.14 C15.0348023,7.13461865 14.9199003,7.01529736 14.92,6.87 L14.92,1.06 C14.9447445,0.933216363 15.0558242,0.841720402 15.185,0.841720402 C15.3141758,0.841720402 15.4252555,0.933216363 15.45,1.06 L15.45,6.87 C15.45,7.01911688 15.3291169,7.14 15.18,7.14 L15.18,7.14 Z" id="Path"></path>
                    <path d="M17.26,7.14000007 C17.1892756,7.14000007 17.1215818,7.11129113 17.0725244,7.06034691 C17.023467,7.00940269 16.9972798,6.94067208 17,6.87 L17,1.06 C17,0.916405965 17.116406,0.8 17.26,0.8 C17.403594,0.8 17.52,0.916405965 17.52,1.06 L17.52,6.87 C17.5227202,6.94067208 17.496533,7.00940269 17.4474756,7.06034691 C17.3984182,7.11129113 17.3307244,7.14000007 17.26,7.14000007 L17.26,7.14000007 Z" id="Path"></path>
                    <path d="M19.34,7.14 C19.2683915,7.14 19.199716,7.11155365 19.1490812,7.06091883 C19.0984463,7.01028401 19.07,6.94160845 19.07,6.87 L19.07,1.06 C19.0947445,0.933216363 19.2058242,0.841720402 19.335,0.841720402 C19.4641758,0.841720402 19.5752555,0.933216363 19.6,1.06 L19.6,6.87 C19.6000997,7.01529736 19.4851977,7.13461865 19.34,7.14 L19.34,7.14 Z" id="Path"></path>
                    <path d="M21.42,7.14 C21.3483915,7.14 21.279716,7.11155365 21.2290812,7.06091883 C21.1784463,7.01028401 21.15,6.94160845 21.15,6.87 L21.15,1.06 C21.1747445,0.933216363 21.2858242,0.841720402 21.415,0.841720402 C21.5441758,0.841720402 21.6552555,0.933216363 21.68,1.06 L21.68,6.87 C21.6800997,7.01529736 21.5651977,7.13461865 21.42,7.14 L21.42,7.14 Z" id="Path"></path>
                    <path d="M23.5,7.14 C23.4283915,7.14 23.359716,7.11155365 23.3090812,7.06091883 C23.2584463,7.01028401 23.23,6.94160845 23.23,6.87 L23.23,1.06 C23.2547445,0.933216363 23.3658242,0.841720402 23.495,0.841720402 C23.6241758,0.841720402 23.7352555,0.933216363 23.76,1.06 L23.76,6.87 C23.7600997,7.01529736 23.6451977,7.13461865 23.5,7.14 L23.5,7.14 Z" id="Path"></path>
                    <path d="M25.57,7.14 C25.4248023,7.13461865 25.3099003,7.01529736 25.31,6.87 L25.31,1.06 C25.3347445,0.933216363 25.4458242,0.841720402 25.575,0.841720402 C25.7041758,0.841720402 25.8152555,0.933216363 25.84,1.06 L25.84,6.87 C25.84,7.01911688 25.7191169,7.14 25.57,7.14 L25.57,7.14 Z" id="Path"></path>
                    <path d="M27.65,7.14 C27.5048023,7.13461865 27.3899003,7.01529736 27.39,6.87 L27.39,1.06 C27.4147445,0.933216363 27.5258242,0.841720402 27.655,0.841720402 C27.7841758,0.841720402 27.8952555,0.933216363 27.92,1.06 L27.92,6.87 C27.92,7.01911688 27.7991169,7.14 27.65,7.14 L27.65,7.14 Z" id="Path"></path>
                    <path d="M29.73,7.14 C29.5848023,7.13461865 29.4699003,7.01529736 29.47,6.87 L29.47,1.06 C29.4947445,0.933216363 29.6058242,0.841720402 29.735,0.841720402 C29.8641758,0.841720402 29.9752555,0.933216363 30,1.06 L30,6.87 C30,7.01911688 29.8791169,7.14 29.73,7.14 L29.73,7.14 Z" id="Path"></path>
                </g>
                <rect id="Rectangle" fill="#D48200" x="31.68" y="38.48" width="32.16" height="6.68" rx="0.19"></rect>
                <rect id="Rectangle" fill="#FFC000" x="31.68" y="37.42" width="32.16" height="7.42" rx="0.19"></rect>
                <rect id="Rectangle" fill="#FFAF00" transform="translate(39.755000, 41.130000) rotate(180.000000) translate(-39.755000, -41.130000) " x="31.69" y="37.42" width="16.13" height="7.42"></rect>
                <rect id="Rectangle" fill="#A20012" opacity="0.21" style="mix-blend-mode: multiply;" transform="translate(32.715000, 41.130000) rotate(180.000000) translate(-32.715000, -41.130000) " x="31.69" y="37.42" width="2.05" height="7.42"></rect>
                <rect id="Rectangle" fill="#FFDE00" transform="translate(58.595000, 41.130000) rotate(180.000000) translate(-58.595000, -41.130000) " x="57.41" y="37.42" width="2.37" height="7.42"></rect>
                <g id="Group" opacity="0.6" transform="translate(32.000000, 37.000000)" fill="#FFE600">
                    <path d="M1.21,7.35 C1.0648023,7.34461865 0.949900312,7.22529736 0.95,7.08 L0.95,1.28 C0.929126241,1.17304905 0.974588702,1.06403397 1.06526563,1.0036029 C1.15594256,0.943171831 1.27405744,0.943171831 1.36473437,1.0036029 C1.4554113,1.06403397 1.50087376,1.17304905 1.48,1.28 L1.48,7.08 C1.48,7.15160845 1.45155365,7.22028401 1.40091883,7.27091883 C1.35028401,7.32155365 1.28160845,7.35 1.21,7.35 L1.21,7.35 Z" id="Path"></path>
                    <path d="M3.29,7.35 C3.1448023,7.34461865 3.02990031,7.22529736 3.03,7.08 L3.03,1.28 C3.00912624,1.17304905 3.0545887,1.06403397 3.14526563,1.0036029 C3.23594256,0.943171831 3.35405744,0.943171831 3.44473437,1.0036029 C3.5354113,1.06403397 3.58087376,1.17304905 3.56,1.28 L3.56,7.08 C3.56,7.22911688 3.43911688,7.35 3.29,7.35 L3.29,7.35 Z" id="Path"></path>
                    <path d="M5.37,7.35 C5.2248023,7.34461865 5.10990031,7.22529736 5.11,7.08 L5.11,1.28 C5.08912624,1.17304905 5.1345887,1.06403397 5.22526563,1.0036029 C5.31594256,0.943171831 5.43405744,0.943171831 5.52473437,1.0036029 C5.6154113,1.06403397 5.66087376,1.17304905 5.64,1.28 L5.64,7.08 C5.64,7.22911688 5.51911688,7.35 5.37,7.35 L5.37,7.35 Z" id="Path"></path>
                    <path d="M7.45,7.35000007 C7.3048023,7.34461865 7.18990031,7.22529736 7.19,7.08 L7.19,1.28 C7.18990031,1.13470264 7.3048023,1.01538135 7.45,1.00999993 C7.52072439,1.00999993 7.58841824,1.03870887 7.63747564,1.08965309 C7.68653303,1.14059731 7.71272019,1.20932792 7.71,1.28 L7.71,7.08 C7.71272019,7.15067208 7.68653303,7.21940269 7.63747564,7.27034691 C7.58841824,7.32129113 7.52072439,7.35000007 7.45,7.35000007 Z" id="Path"></path>
                    <path d="M9.53,7.35000007 C9.45927561,7.35000007 9.39158176,7.32129113 9.34252436,7.27034691 C9.29346697,7.21940269 9.26727981,7.15067208 9.27,7.08 L9.27,1.28 C9.26727981,1.20932792 9.29346697,1.14059731 9.34252436,1.08965309 C9.39158176,1.03870887 9.45927561,1.00999993 9.53,1.00999993 C9.6751977,1.01538135 9.79009969,1.13470264 9.79,1.28 L9.79,7.08 C9.79009969,7.22529736 9.6751977,7.34461865 9.53,7.35000007 L9.53,7.35000007 Z" id="Path"></path>
                    <path d="M11.61,7.35 C11.5383915,7.35 11.469716,7.32155365 11.4190812,7.27091883 C11.3684463,7.22028401 11.34,7.15160845 11.34,7.08 L11.34,1.28 C11.3191262,1.17304905 11.3645887,1.06403397 11.4552656,1.0036029 C11.5459426,0.943171831 11.6640574,0.943171831 11.7547344,1.0036029 C11.8454113,1.06403397 11.8908738,1.17304905 11.87,1.28 L11.87,7.08 C11.8700997,7.22529736 11.7551977,7.34461865 11.61,7.35 L11.61,7.35 Z" id="Path"></path>
                    <path d="M13.69,7.35 C13.6183915,7.35 13.549716,7.32155365 13.4990812,7.27091883 C13.4484463,7.22028401 13.42,7.15160845 13.42,7.08 L13.42,1.28 C13.3991262,1.17304905 13.4445887,1.06403397 13.5352656,1.0036029 C13.6259426,0.943171831 13.7440574,0.943171831 13.8347344,1.0036029 C13.9254113,1.06403397 13.9708738,1.17304905 13.95,1.28 L13.95,7.08 C13.9500997,7.22529736 13.8351977,7.34461865 13.69,7.35 L13.69,7.35 Z" id="Path"></path>
                    <path d="M15.77,7.35 C15.6208831,7.35 15.5,7.22911688 15.5,7.08 L15.5,1.28 C15.4791262,1.17304905 15.5245887,1.06403397 15.6152656,1.0036029 C15.7059426,0.943171831 15.8240574,0.943171831 15.9147344,1.0036029 C16.0054113,1.06403397 16.0508738,1.17304905 16.03,1.28 L16.03,7.08 C16.0300997,7.22529736 15.9151977,7.34461865 15.77,7.35 L15.77,7.35 Z" id="Path"></path>
                    <path d="M17.84,7.35 C17.6948023,7.34461865 17.5799003,7.22529736 17.58,7.08 L17.58,1.28 C17.5591262,1.17304905 17.6045887,1.06403397 17.6952656,1.0036029 C17.7859426,0.943171831 17.9040574,0.943171831 17.9947344,1.0036029 C18.0854113,1.06403397 18.1308738,1.17304905 18.11,1.28 L18.11,7.08 C18.11,7.22911688 17.9891169,7.35 17.84,7.35 L17.84,7.35 Z" id="Path"></path>
                    <path d="M19.92,7.35 C19.7748023,7.34461865 19.6599003,7.22529736 19.66,7.08 L19.66,1.28 C19.6391262,1.17304905 19.6845887,1.06403397 19.7752656,1.0036029 C19.8659426,0.943171831 19.9840574,0.943171831 20.0747344,1.0036029 C20.1654113,1.06403397 20.2108738,1.17304905 20.19,1.28 L20.19,7.08 C20.19,7.22911688 20.0691169,7.35 19.92,7.35 L19.92,7.35 Z" id="Path"></path>
                    <path d="M22,7.35 C21.8548023,7.34461865 21.7399003,7.22529736 21.74,7.08 L21.74,1.28 C21.7191262,1.17304905 21.7645887,1.06403397 21.8552656,1.0036029 C21.9459426,0.943171831 22.0640574,0.943171831 22.1547344,1.0036029 C22.2454113,1.06403397 22.2908738,1.17304905 22.27,1.28 L22.27,7.08 C22.27,7.22911688 22.1491169,7.35 22,7.35 L22,7.35 Z" id="Path"></path>
                    <path d="M24.08,7.35000007 C23.9348023,7.34461865 23.8199003,7.22529736 23.82,7.08 L23.82,1.28 C23.8199003,1.13470264 23.9348023,1.01538135 24.08,1.00999993 C24.1507244,1.00999993 24.2184182,1.03870887 24.2674756,1.08965309 C24.316533,1.14059731 24.3427202,1.20932792 24.34,1.28 L24.34,7.08 C24.3427202,7.15067208 24.316533,7.21940269 24.2674756,7.27034691 C24.2184182,7.32129113 24.1507244,7.35000007 24.08,7.35000007 Z" id="Path"></path>
                    <path d="M26.16,7.35000007 C26.0892756,7.35000007 26.0215818,7.32129113 25.9725244,7.27034691 C25.923467,7.21940269 25.8972798,7.15067208 25.9,7.08 L25.9,1.28 C25.8972798,1.20932792 25.923467,1.14059731 25.9725244,1.08965309 C26.0215818,1.03870887 26.0892756,1.00999993 26.16,1.00999993 C26.3051977,1.01538135 26.4200997,1.13470264 26.42,1.28 L26.42,7.08 C26.4200997,7.22529736 26.3051977,7.34461865 26.16,7.35000007 L26.16,7.35000007 Z" id="Path"></path>
                    <path d="M28.24,7.35 C28.0908831,7.35 27.97,7.22911688 27.97,7.08 L27.97,1.28 C27.9491262,1.17304905 27.9945887,1.06403397 28.0852656,1.0036029 C28.1759426,0.943171831 28.2940574,0.943171831 28.3847344,1.0036029 C28.4754113,1.06403397 28.5208738,1.17304905 28.5,1.28 L28.5,7.08 C28.5000997,7.22529736 28.3851977,7.34461865 28.24,7.35 L28.24,7.35 Z" id="Path"></path>
                    <path d="M30.32,7.35 C30.1708831,7.35 30.05,7.22911688 30.05,7.08 L30.05,1.28 C30.0291262,1.17304905 30.0745887,1.06403397 30.1652656,1.0036029 C30.2559426,0.943171831 30.3740574,0.943171831 30.4647344,1.0036029 C30.5554113,1.06403397 30.6008738,1.17304905 30.58,1.28 L30.58,7.08 C30.5800997,7.22529736 30.4651977,7.34461865 30.32,7.35 L30.32,7.35 Z" id="Path"></path>
                </g>
                <rect id="Rectangle" fill="#D48200" x="70.65" y="38.48" width="32.16" height="6.68" rx="0.19"></rect>
                <rect id="Rectangle" fill="#FFC000" x="70.65" y="37.42" width="32.16" height="7.42" rx="0.19"></rect>
                <rect id="Rectangle" fill="#FFAF00" transform="translate(78.720000, 41.130000) rotate(180.000000) translate(-78.720000, -41.130000) " x="70.65" y="37.42" width="16.14" height="7.42"></rect>
                <rect id="Rectangle" fill="#A20012" opacity="0.21" style="mix-blend-mode: multiply;" transform="translate(71.685000, 41.130000) rotate(180.000000) translate(-71.685000, -41.130000) " x="70.66" y="37.42" width="2.05" height="7.42"></rect>
                <rect id="Rectangle" fill="#FFDE00" transform="translate(97.555000, 41.130000) rotate(180.000000) translate(-97.555000, -41.130000) " x="96.37" y="37.42" width="2.37" height="7.42"></rect>
                <g id="Group" opacity="0.6" transform="translate(71.000000, 37.000000)" fill="#FFE600">
                    <path d="M1.18,7.35 C1.0348023,7.34461865 0.919900312,7.22529736 0.92,7.08 L0.92,1.28 C0.899126241,1.17304905 0.944588702,1.06403397 1.03526563,1.0036029 C1.12594256,0.943171831 1.24405744,0.943171831 1.33473437,1.0036029 C1.4254113,1.06403397 1.47087376,1.17304905 1.45,1.28 L1.45,7.08 C1.45,7.22911688 1.32911688,7.35 1.18,7.35 L1.18,7.35 Z" id="Path"></path>
                    <path d="M3.26,7.35 C3.1148023,7.34461865 2.99990031,7.22529736 3,7.08 L3,1.28 C2.97912624,1.17304905 3.0245887,1.06403397 3.11526563,1.0036029 C3.20594256,0.943171831 3.32405744,0.943171831 3.41473437,1.0036029 C3.5054113,1.06403397 3.55087376,1.17304905 3.53,1.28 L3.53,7.08 C3.53,7.22911688 3.40911688,7.35 3.26,7.35 L3.26,7.35 Z" id="Path"></path>
                    <path d="M5.34,7.35000007 C5.1948023,7.34461865 5.07990031,7.22529736 5.08,7.08 L5.08,1.28 C5.07990031,1.13470264 5.1948023,1.01538135 5.34,1.00999993 C5.41072439,1.00999993 5.47841824,1.03870887 5.52747564,1.08965309 C5.57653303,1.14059731 5.60272019,1.20932792 5.6,1.28 L5.6,7.08 C5.60272019,7.15067208 5.57653303,7.21940269 5.52747564,7.27034691 C5.47841824,7.32129113 5.41072439,7.35000007 5.34,7.35000007 L5.34,7.35000007 Z" id="Path"></path>
                    <path d="M7.42,7.35000007 C7.34927561,7.35000007 7.28158176,7.32129113 7.23252436,7.27034691 C7.18346697,7.21940269 7.15727981,7.15067208 7.16,7.08 L7.16,1.28 C7.15727981,1.20932792 7.18346697,1.14059731 7.23252436,1.08965309 C7.28158176,1.03870887 7.34927561,1.00999993 7.42,1.00999993 C7.5651977,1.01538135 7.68009969,1.13470264 7.68,1.28 L7.68,7.08 C7.68009969,7.22529736 7.5651977,7.34461865 7.42,7.35000007 L7.42,7.35000007 Z" id="Path"></path>
                    <path d="M9.5,7.35 C9.35088312,7.35 9.23,7.22911688 9.23,7.08 L9.23,1.28 C9.20912624,1.17304905 9.2545887,1.06403397 9.34526563,1.0036029 C9.43594256,0.943171831 9.55405744,0.943171831 9.64473437,1.0036029 C9.7354113,1.06403397 9.78087376,1.17304905 9.76,1.28 L9.76,7.08 C9.76009969,7.22529736 9.6451977,7.34461865 9.5,7.35 L9.5,7.35 Z" id="Path"></path>
                    <path d="M11.58,7.35 C11.4308831,7.35 11.31,7.22911688 11.31,7.08 L11.31,1.28 C11.2891262,1.17304905 11.3345887,1.06403397 11.4252656,1.0036029 C11.5159426,0.943171831 11.6340574,0.943171831 11.7247344,1.0036029 C11.8154113,1.06403397 11.8608738,1.17304905 11.84,1.28 L11.84,7.08 C11.8400997,7.22529736 11.7251977,7.34461865 11.58,7.35 L11.58,7.35 Z" id="Path"></path>
                    <path d="M13.66,7.35 C13.5108831,7.35 13.39,7.22911688 13.39,7.08 L13.39,1.28 C13.3691262,1.17304905 13.4145887,1.06403397 13.5052656,1.0036029 C13.5959426,0.943171831 13.7140574,0.943171831 13.8047344,1.0036029 C13.8954113,1.06403397 13.9408738,1.17304905 13.92,1.28 L13.92,7.08 C13.9200997,7.22529736 13.8051977,7.34461865 13.66,7.35 L13.66,7.35 Z" id="Path"></path>
                    <path d="M15.73,7.35 C15.5848023,7.34461865 15.4699003,7.22529736 15.47,7.08 L15.47,1.28 C15.4491262,1.17304905 15.4945887,1.06403397 15.5852656,1.0036029 C15.6759426,0.943171831 15.7940574,0.943171831 15.8847344,1.0036029 C15.9754113,1.06403397 16.0208738,1.17304905 16,1.28 L16,7.08 C16,7.22911688 15.8791169,7.35 15.73,7.35 L15.73,7.35 Z" id="Path"></path>
                    <path d="M17.81,7.35 C17.6648023,7.34461865 17.5499003,7.22529736 17.55,7.08 L17.55,1.28 C17.5291262,1.17304905 17.5745887,1.06403397 17.6652656,1.0036029 C17.7559426,0.943171831 17.8740574,0.943171831 17.9647344,1.0036029 C18.0554113,1.06403397 18.1008738,1.17304905 18.08,1.28 L18.08,7.08 C18.08,7.22911688 17.9591169,7.35 17.81,7.35 L17.81,7.35 Z" id="Path"></path>
                    <path d="M19.89,7.35 C19.7448023,7.34461865 19.6299003,7.22529736 19.63,7.08 L19.63,1.28 C19.6091262,1.17304905 19.6545887,1.06403397 19.7452656,1.0036029 C19.8359426,0.943171831 19.9540574,0.943171831 20.0447344,1.0036029 C20.1354113,1.06403397 20.1808738,1.17304905 20.16,1.28 L20.16,7.08 C20.16,7.22911688 20.0391169,7.35 19.89,7.35 L19.89,7.35 Z" id="Path"></path>
                    <path d="M22,7.35000114 C21.8548023,7.34461865 21.7399003,7.22529736 21.74,7.08 L21.74,1.28 C21.7372982,1.20837832 21.7631841,1.13862123 21.8119538,1.0861 C21.8607236,1.03357877 21.9283747,1.0026036 22,0.999999929 C22.0707244,0.999999929 22.1384182,1.02870887 22.1874756,1.07965309 C22.236533,1.13059731 22.2627202,1.19932792 22.26,1.27 L22.26,7.07 C22.2655823,7.14235089 22.2406743,7.21374259 22.1912968,7.26691843 C22.1419192,7.32009426 22.0725656,7.35021504 22,7.35000114 L22,7.35000114 Z" id="Path"></path>
                    <path d="M24.05,7.35000007 C23.9792756,7.35000007 23.9115818,7.32129113 23.8625244,7.27034691 C23.813467,7.21940269 23.7872798,7.15067208 23.79,7.08 L23.79,1.28 C23.7872798,1.20932792 23.813467,1.14059731 23.8625244,1.08965309 C23.9115818,1.03870887 23.9792756,1.00999993 24.05,1.00999993 C24.1951977,1.01538135 24.3100997,1.13470264 24.31,1.28 L24.31,7.08 C24.3100997,7.22529736 24.1951977,7.34461865 24.05,7.35000007 L24.05,7.35000007 Z" id="Path"></path>
                    <path d="M26.13,7.35 C25.9808831,7.35 25.86,7.22911688 25.86,7.08 L25.86,1.28 C25.8391262,1.17304905 25.8845887,1.06403397 25.9752656,1.0036029 C26.0659426,0.943171831 26.1840574,0.943171831 26.2747344,1.0036029 C26.3654113,1.06403397 26.4108738,1.17304905 26.39,1.28 L26.39,7.08 C26.3900997,7.22529736 26.2751977,7.34461865 26.13,7.35 L26.13,7.35 Z" id="Path"></path>
                    <path d="M28.21,7.35 C28.0608831,7.35 27.94,7.22911688 27.94,7.08 L27.94,1.28 C27.9191262,1.17304905 27.9645887,1.06403397 28.0552656,1.0036029 C28.1459426,0.943171831 28.2640574,0.943171831 28.3547344,1.0036029 C28.4454113,1.06403397 28.4908738,1.17304905 28.47,1.28 L28.47,7.08 C28.4700997,7.22529736 28.3551977,7.34461865 28.21,7.35 L28.21,7.35 Z" id="Path"></path>
                    <path d="M30.29,7.35 C30.1408831,7.35 30.02,7.22911688 30.02,7.08 L30.02,1.28 C29.9991262,1.17304905 30.0445887,1.06403397 30.1352656,1.0036029 C30.2259426,0.943171831 30.3440574,0.943171831 30.4347344,1.0036029 C30.5254113,1.06403397 30.5708738,1.17304905 30.55,1.28 L30.55,7.08 C30.5500997,7.22529736 30.4351977,7.34461865 30.29,7.35 L30.29,7.35 Z" id="Path"></path>
                </g>
                <rect id="Rectangle" fill="#D48200" x="70.65" y="30.82" width="32.16" height="6.68" rx="0.19"></rect>
                <rect id="Rectangle" fill="#FABC00" x="70.65" y="29.77" width="32.16" height="7.42" rx="0.19"></rect>
                <rect id="Rectangle" fill="#FFAF00" transform="translate(78.595000, 33.470000) rotate(180.000000) translate(-78.595000, -33.470000) " x="70.66" y="29.76" width="15.87" height="7.42"></rect>
                <rect id="Rectangle" fill="#A20012" opacity="0.11" style="mix-blend-mode: multiply;" transform="translate(86.740000, 33.470000) rotate(180.000000) translate(-86.740000, -33.470000) " x="70.66" y="29.76" width="32.16" height="7.42"></rect>
                <rect id="Rectangle" fill="#FFDE00" opacity="0.59" transform="translate(97.555000, 33.470000) rotate(180.000000) translate(-97.555000, -33.470000) " x="96.37" y="29.76" width="2.37" height="7.42"></rect>
                <g id="Group" opacity="0.6" transform="translate(71.000000, 30.000000)" fill="#FFE600">
                    <path d="M1.18,6.69000006 C1.03640597,6.69000006 0.92,6.57359403 0.92,6.43 L0.92,0.62 C0.944744531,0.493216363 1.05582422,0.401720402 1.185,0.401720402 C1.31417578,0.401720402 1.42525547,0.493216363 1.45,0.62 L1.45,6.43 C1.44461865,6.5751977 1.32529736,6.69009969 1.18,6.69000006 L1.18,6.69000006 Z" id="Path"></path>
                    <path d="M3.26,6.69000006 C3.11640597,6.69000006 3,6.57359403 3,6.43 L3,0.62 C3.02474453,0.493216363 3.13582422,0.401720402 3.265,0.401720402 C3.39417578,0.401720402 3.50525547,0.493216363 3.53,0.62 L3.53,6.43 C3.52461865,6.5751977 3.40529736,6.69009969 3.26,6.69000006 L3.26,6.69000006 Z" id="Path"></path>
                    <path d="M5.34,6.69 C5.19640597,6.69 5.08,6.57359403 5.08,6.43 L5.08,0.62 C5.08,0.476405965 5.19640597,0.36 5.34,0.36 C5.40979165,0.357147745 5.47759387,0.383623447 5.52698521,0.43301479 C5.57637655,0.482406133 5.60285226,0.550208352 5.6,0.62 L5.6,6.43 C5.6,6.57359403 5.48359403,6.69 5.34,6.69 L5.34,6.69 Z" id="Path"></path>
                    <path d="M7.42,6.69 C7.27640597,6.69 7.16,6.57359403 7.16,6.43 L7.16,0.62 C7.15714774,0.550208352 7.18362345,0.482406133 7.23301479,0.43301479 C7.28240613,0.383623447 7.35020835,0.357147745 7.42,0.36 C7.48895629,0.36 7.5550883,0.387392778 7.60384776,0.436152237 C7.65260722,0.484911695 7.68,0.551043713 7.68,0.62 L7.68,6.43 C7.68,6.49895629 7.65260722,6.5650883 7.60384776,6.61384776 C7.5550883,6.66260722 7.48895629,6.69 7.42,6.69 L7.42,6.69 Z" id="Path"></path>
                    <path d="M9.5,6.69000006 C9.35470264,6.69009969 9.23538135,6.5751977 9.23,6.43 L9.23,0.62 C9.25474453,0.493216363 9.36582422,0.401720402 9.495,0.401720402 C9.62417578,0.401720402 9.73525547,0.493216363 9.76,0.62 L9.76,6.43 C9.76,6.49895629 9.73260722,6.5650883 9.68384776,6.61384776 C9.6350883,6.66260722 9.56895629,6.69000006 9.5,6.69000006 L9.5,6.69000006 Z" id="Path"></path>
                    <path d="M11.58,6.69000006 C11.4347026,6.69009969 11.3153814,6.5751977 11.31,6.43 L11.31,0.62 C11.3347445,0.493216363 11.4458242,0.401720402 11.575,0.401720402 C11.7041758,0.401720402 11.8152555,0.493216363 11.84,0.62 L11.84,6.43 C11.84,6.49895629 11.8126072,6.5650883 11.7638478,6.61384776 C11.7150883,6.66260722 11.6489563,6.69000006 11.58,6.69000006 L11.58,6.69000006 Z" id="Path"></path>
                    <path d="M13.66,6.69000006 C13.5147026,6.69009969 13.3953814,6.5751977 13.39,6.43 L13.39,0.62 C13.4147445,0.493216363 13.5258242,0.401720402 13.655,0.401720402 C13.7841758,0.401720402 13.8952555,0.493216363 13.92,0.62 L13.92,6.43 C13.92,6.49895629 13.8926072,6.5650883 13.8438478,6.61384776 C13.7950883,6.66260722 13.7289563,6.69000006 13.66,6.69000006 L13.66,6.69000006 Z" id="Path"></path>
                    <path d="M15.73,6.69000006 C15.586406,6.69000006 15.47,6.57359403 15.47,6.43 L15.47,0.62 C15.4947445,0.493216363 15.6058242,0.401720402 15.735,0.401720402 C15.8641758,0.401720402 15.9752555,0.493216363 16,0.62 L16,6.43 C15.9946186,6.5751977 15.8752974,6.69009969 15.73,6.69000006 L15.73,6.69000006 Z" id="Path"></path>
                    <path d="M17.81,6.69000006 C17.666406,6.69000006 17.55,6.57359403 17.55,6.43 L17.55,0.62 C17.5747445,0.493216363 17.6858242,0.401720402 17.815,0.401720402 C17.9441758,0.401720402 18.0552555,0.493216363 18.08,0.62 L18.08,6.43 C18.0746186,6.5751977 17.9552974,6.69009969 17.81,6.69000006 L17.81,6.69000006 Z" id="Path"></path>
                    <path d="M19.89,6.69000006 C19.746406,6.69000006 19.63,6.57359403 19.63,6.43 L19.63,0.62 C19.6547445,0.493216363 19.7658242,0.401720402 19.895,0.401720402 C20.0241758,0.401720402 20.1352555,0.493216363 20.16,0.62 L20.16,6.43 C20.1546186,6.5751977 20.0352974,6.69009969 19.89,6.69000006 L19.89,6.69000006 Z" id="Path"></path>
                    <path d="M22,6.69 C21.9310437,6.69 21.8649117,6.66260722 21.8161522,6.61384776 C21.7673928,6.5650883 21.74,6.49895629 21.74,6.43 L21.74,0.62 C21.74,0.476405965 21.856406,0.36 22,0.36 C22.0697916,0.357147745 22.1375939,0.383623447 22.1869852,0.43301479 C22.2363766,0.482406133 22.2628523,0.550208352 22.26,0.62 L22.26,6.43 C22.26,6.57359403 22.143594,6.69 22,6.69 L22,6.69 Z" id="Path"></path>
                    <path d="M24.05,6.69 C23.906406,6.69 23.79,6.57359403 23.79,6.43 L23.79,0.62 C23.7871477,0.550208352 23.8136234,0.482406133 23.8630148,0.43301479 C23.9124061,0.383623447 23.9802084,0.357147745 24.05,0.36 C24.193594,0.36 24.31,0.476405965 24.31,0.62 L24.31,6.43 C24.31,6.57359403 24.193594,6.69 24.05,6.69 L24.05,6.69 Z" id="Path"></path>
                    <path d="M26.13,6.69000006 C25.9847026,6.69009969 25.8653814,6.5751977 25.86,6.43 L25.86,0.62 C25.8847445,0.493216363 25.9958242,0.401720402 26.125,0.401720402 C26.2541758,0.401720402 26.3652555,0.493216363 26.39,0.62 L26.39,6.43 C26.39,6.57359403 26.273594,6.69000006 26.13,6.69000006 L26.13,6.69000006 Z" id="Path"></path>
                    <path d="M28.21,6.69000006 C28.0647026,6.69009969 27.9453814,6.5751977 27.94,6.43 L27.94,0.62 C27.9647445,0.493216363 28.0758242,0.401720402 28.205,0.401720402 C28.3341758,0.401720402 28.4452555,0.493216363 28.47,0.62 L28.47,6.43 C28.47,6.57359403 28.353594,6.69000006 28.21,6.69000006 L28.21,6.69000006 Z" id="Path"></path>
                    <path d="M30.29,6.69000006 C30.1447026,6.69009969 30.0253814,6.5751977 30.02,6.43 L30.02,0.62 C30.0447445,0.493216363 30.1558242,0.401720402 30.285,0.401720402 C30.4141758,0.401720402 30.5252555,0.493216363 30.55,0.62 L30.55,6.43 C30.55,6.57359403 30.433594,6.69000006 30.29,6.69000006 L30.29,6.69000006 Z" id="Path"></path>
                </g>
                <rect id="Rectangle" fill="#D48200" x="72.52" y="23.08" width="32.16" height="6.68" rx="0.19"></rect>
                <rect id="Rectangle" fill="#FFC000" x="72.52" y="22.02" width="32.16" height="7.42" rx="0.19"></rect>
                <rect id="Rectangle" fill="#FFAF00" transform="translate(80.535000, 25.730000) rotate(180.000000) translate(-80.535000, -25.730000) " x="72.52" y="22.02" width="16.03" height="7.42"></rect>
                <rect id="Rectangle" fill="#A20012" opacity="0.21" style="mix-blend-mode: multiply;" transform="translate(73.555000, 25.730000) rotate(180.000000) translate(-73.555000, -25.730000) " x="72.53" y="22.02" width="2.05" height="7.42"></rect>
                <rect id="Rectangle" fill="#A20012" opacity="0.21" style="mix-blend-mode: multiply;" transform="translate(71.685000, 33.520000) rotate(180.000000) translate(-71.685000, -33.520000) " x="70.66" y="29.81" width="2.05" height="7.42"></rect>
                <rect id="Rectangle" fill="#FFE745" transform="translate(99.435000, 25.730000) rotate(180.000000) translate(-99.435000, -25.730000) " x="98.25" y="22.02" width="2.37" height="7.42"></rect>
                <g id="Group" opacity="0.6" transform="translate(73.000000, 22.000000)" fill="#FFE600">
                    <path d="M1.05,7 C0.904802298,6.99461865 0.789900312,6.87529736 0.79,6.73 L0.79,0.93 C0.769126241,0.823049049 0.814588702,0.714033967 0.905265632,0.653602899 C0.995942563,0.593171831 1.11405744,0.593171831 1.20473437,0.653602899 C1.2954113,0.714033967 1.34087376,0.823049049 1.32,0.93 L1.32,6.73 C1.32,6.87911688 1.19911688,7 1.05,7 L1.05,7 Z" id="Path"></path>
                    <path d="M3.13,7 C2.9848023,6.99461865 2.86990031,6.87529736 2.87,6.73 L2.87,0.93 C2.84912624,0.823049049 2.8945887,0.714033967 2.98526563,0.653602899 C3.07594256,0.593171831 3.19405744,0.593171831 3.28473437,0.653602899 C3.3754113,0.714033967 3.42087376,0.823049049 3.4,0.93 L3.4,6.73 C3.4,6.87911688 3.27911688,7 3.13,7 L3.13,7 Z" id="Path"></path>
                    <path d="M5.21,7 C5.0648023,6.99461865 4.94990031,6.87529736 4.95,6.73 L4.95,0.93 C4.92912624,0.823049049 4.9745887,0.714033967 5.06526563,0.653602899 C5.15594256,0.593171831 5.27405744,0.593171831 5.36473437,0.653602899 C5.4554113,0.714033967 5.50087376,0.823049049 5.48,0.93 L5.48,6.73 C5.48,6.87911688 5.35911688,7 5.21,7 L5.21,7 Z" id="Path"></path>
                    <path d="M7.29,7.00000007 C7.1448023,6.99461865 7.02990031,6.87529736 7.03,6.73 L7.03,0.93 C7.02990031,0.784702644 7.1448023,0.665381351 7.29,0.659999929 C7.36072439,0.659999929 7.42841824,0.68870887 7.47747564,0.73965309 C7.52653303,0.790597311 7.55272019,0.859327923 7.55,0.93 L7.55,6.73 C7.55272019,6.80067208 7.52653303,6.86940269 7.47747564,6.92034691 C7.42841824,6.97129113 7.36072439,7.00000007 7.29,7.00000007 L7.29,7.00000007 Z" id="Path"></path>
                    <path d="M9.37,7.00000007 C9.29927561,7.00000007 9.23158176,6.97129113 9.18252436,6.92034691 C9.13346697,6.86940269 9.10727981,6.80067208 9.11,6.73 L9.11,0.93 C9.10727981,0.859327923 9.13346697,0.790597311 9.18252436,0.73965309 C9.23158176,0.68870887 9.29927561,0.659999929 9.37,0.659999929 C9.5151977,0.665381351 9.63009969,0.784702644 9.63,0.93 L9.63,6.73 C9.63009969,6.87529736 9.5151977,6.99461865 9.37,7.00000007 L9.37,7.00000007 Z" id="Path"></path>
                    <path d="M11.45,7 C11.3008831,7 11.18,6.87911688 11.18,6.73 L11.18,0.93 C11.1591262,0.823049049 11.2045887,0.714033967 11.2952656,0.653602899 C11.3859426,0.593171831 11.5040574,0.593171831 11.5947344,0.653602899 C11.6854113,0.714033967 11.7308738,0.823049049 11.71,0.93 L11.71,6.73 C11.7100997,6.87529736 11.5951977,6.99461865 11.45,7 L11.45,7 Z" id="Path"></path>
                    <path d="M13.53,7 C13.3808831,7 13.26,6.87911688 13.26,6.73 L13.26,0.93 C13.2391262,0.823049049 13.2845887,0.714033967 13.3752656,0.653602899 C13.4659426,0.593171831 13.5840574,0.593171831 13.6747344,0.653602899 C13.7654113,0.714033967 13.8108738,0.823049049 13.79,0.93 L13.79,6.73 C13.7900997,6.87529736 13.6751977,6.99461865 13.53,7 L13.53,7 Z" id="Path"></path>
                    <path d="M15.61,7 C15.4608831,7 15.34,6.87911688 15.34,6.73 L15.34,0.93 C15.3191262,0.823049049 15.3645887,0.714033967 15.4552656,0.653602899 C15.5459426,0.593171831 15.6640574,0.593171831 15.7547344,0.653602899 C15.8454113,0.714033967 15.8908738,0.823049049 15.87,0.93 L15.87,6.73 C15.8700997,6.87529736 15.7551977,6.99461865 15.61,7 L15.61,7 Z" id="Path"></path>
                    <path d="M17.68,7 C17.5348023,6.99461865 17.4199003,6.87529736 17.42,6.73 L17.42,0.93 C17.3991262,0.823049049 17.4445887,0.714033967 17.5352656,0.653602899 C17.6259426,0.593171831 17.7440574,0.593171831 17.8347344,0.653602899 C17.9254113,0.714033967 17.9708738,0.823049049 17.95,0.93 L17.95,6.73 C17.95,6.80160845 17.9215537,6.87028401 17.8709188,6.92091883 C17.820284,6.97155365 17.7516085,7 17.68,7 L17.68,7 Z" id="Path"></path>
                    <path d="M19.76,7 C19.6148023,6.99461865 19.4999003,6.87529736 19.5,6.73 L19.5,0.93 C19.4791262,0.823049049 19.5245887,0.714033967 19.6152656,0.653602899 C19.7059426,0.593171831 19.8240574,0.593171831 19.9147344,0.653602899 C20.0054113,0.714033967 20.0508738,0.823049049 20.03,0.93 L20.03,6.73 C20.03,6.80160845 20.0015537,6.87028401 19.9509188,6.92091883 C19.900284,6.97155365 19.8316085,7 19.76,7 L19.76,7 Z" id="Path"></path>
                    <path d="M21.84,7 C21.6948023,6.99461865 21.5799003,6.87529736 21.58,6.73 L21.58,0.93 C21.5591262,0.823049049 21.6045887,0.714033967 21.6952656,0.653602899 C21.7859426,0.593171831 21.9040574,0.593171831 21.9947344,0.653602899 C22.0854113,0.714033967 22.1308738,0.823049049 22.11,0.93 L22.11,6.73 C22.11,6.80160845 22.0815537,6.87028401 22.0309188,6.92091883 C21.980284,6.97155365 21.9116085,7 21.84,7 L21.84,7 Z" id="Path"></path>
                    <path d="M23.92,7.00000007 C23.7748023,6.99461865 23.6599003,6.87529736 23.66,6.73 L23.66,0.93 C23.6599003,0.784702644 23.7748023,0.665381351 23.92,0.659999929 C23.9907244,0.659999929 24.0584182,0.68870887 24.1074756,0.73965309 C24.156533,0.790597311 24.1827202,0.859327923 24.18,0.93 L24.18,6.73 C24.1827202,6.80067208 24.156533,6.86940269 24.1074756,6.92034691 C24.0584182,6.97129113 23.9907244,7.00000007 23.92,7.00000007 L23.92,7.00000007 Z" id="Path"></path>
                    <path d="M26,7.00000007 C25.9292756,7.00000007 25.8615818,6.97129113 25.8125244,6.92034691 C25.763467,6.86940269 25.7372798,6.80067208 25.74,6.73 L25.74,0.93 C25.7372798,0.859327923 25.763467,0.790597311 25.8125244,0.73965309 C25.8615818,0.68870887 25.9292756,0.659999929 26,0.659999929 C26.1451977,0.665381351 26.2600997,0.784702644 26.26,0.93 L26.26,6.73 C26.2600997,6.87529736 26.1451977,6.99461865 26,7.00000007 L26,7.00000007 Z" id="Path"></path>
                    <path d="M28.08,7 C27.9308831,7 27.81,6.87911688 27.81,6.73 L27.81,0.93 C27.7891262,0.823049049 27.8345887,0.714033967 27.9252656,0.653602899 C28.0159426,0.593171831 28.1340574,0.593171831 28.2247344,0.653602899 C28.3154113,0.714033967 28.3608738,0.823049049 28.34,0.93 L28.34,6.73 C28.3400997,6.87529736 28.2251977,6.99461865 28.08,7 L28.08,7 Z" id="Path"></path>
                    <path d="M30.16,7 C30.0108831,7 29.89,6.87911688 29.89,6.73 L29.89,0.93 C29.8691262,0.823049049 29.9145887,0.714033967 30.0052656,0.653602899 C30.0959426,0.593171831 30.2140574,0.593171831 30.3047344,0.653602899 C30.3954113,0.714033967 30.4408738,0.823049049 30.42,0.93 L30.42,6.73 C30.4200997,6.87529736 30.3051977,6.99461865 30.16,7 L30.16,7 Z" id="Path"></path>
                </g>
                <polygon id="Path" fill="#A20012" opacity="0.21" style="mix-blend-mode: multiply;" points="63.91 44.84 63.91 37.53 60.82 37.53 55.64 44.84"></polygon>
                <path d="M67.2800002,52.57 L67.2800002,45.44 C67.2801477,45.3443666 67.2054859,45.2653129 67.11,45.26 L64.19,45.26 L66.19,52.57 L67.2800002,52.57 Z" id="Path" fill="#A20012" opacity="0.21" style="mix-blend-mode: multiply;"></path>
                <polygon id="Path" fill="#A20012" opacity="0.21" style="mix-blend-mode: multiply;" points="74.04 60.31 74.04 53.01 66.52 53.01 69.17 60.31"></polygon>
                <polygon id="Path" fill="#A20012" opacity="0.21" style="mix-blend-mode: multiply;" points="39.85 60.31 39.85 53.01 35.1 53.01 36.89 60.31"></polygon>
                <polygon id="Path" fill="#A20012" opacity="0.21" style="mix-blend-mode: multiply;" points="93.71 60.31 95.36 53.01 79.44 53.01 79.44 60.31"></polygon>
                <polygon id="Path" fill="#A20012" opacity="0.21" style="mix-blend-mode: multiply;" points="72.64 22.02 61.52 36.74 68.18 36.55 70.96 29.77 72.35 26.86"></polygon>
                <ellipse id="Oval" fill="#FFFFFF" style="mix-blend-mode: overlay;" cx="94.58" cy="37.58" rx="8.3" ry="1"></ellipse>
                <path d="M111.54,53.1 C111.54,53.02 108.3,52.95 104.32,52.95 C100.34,52.95 97.1,53.02 97.1,53.1 C97.1,53.18 100.33,53.26 104.32,53.26 C108.31,53.26 111.54,53.19 111.54,53.1 Z" id="Path" fill="#FFFFFF" style="mix-blend-mode: overlay;"></path>
                <path d="M104.75,22.1 C104.75,22.01 101.03,21.94 96.45,21.94 C91.87,21.94 88.15,22.01 88.15,22.1 C88.15,22.19 91.87,22.25 96.45,22.25 C101.03,22.25 104.75,22.18 104.75,22.1 Z" id="Path" fill="#FFFFFF" style="mix-blend-mode: overlay;"></path>
                <path d="M64.29,45.26 C64.29,45.18 61.29,45.11 57.63,45.11 C53.97,45.11 50.97,45.18 50.97,45.26 C50.97,45.34 53.97,45.42 57.63,45.42 C61.29,45.42 64.29,45.35 64.29,45.26 Z" id="Path" fill="#FFFFFF" style="mix-blend-mode: overlay;"></path>
                <path d="M32.57,53.05 C32.57,52.97 27.94,52.9 22.23,52.9 C16.52,52.9 11.89,52.97 11.89,53.05 C11.89,53.13 16.52,53.21 22.23,53.21 C27.94,53.21 32.57,53.14 32.57,53.05 Z" id="Path" fill="#FFFFFF" style="mix-blend-mode: overlay;"></path>
                <path d="M64.06,37.53 C64.06,37.44 61.06,37.37 57.4,37.37 C53.74,37.37 50.74,37.44 50.74,37.53 C50.74,37.62 53.74,37.69 57.4,37.69 C61.06,37.69 64.06,37.62 64.06,37.53 Z" id="Path" fill="#FFFFFF" style="mix-blend-mode: overlay;"></path>
                <path d="M66.91,53.05 C66.91,52.97 64.2,52.9 60.91,52.9 C57.62,52.9 54.91,52.97 54.91,53.05 C56.9057853,53.2089854 58.9085779,53.2623932 60.91,53.21 C62.9114221,53.2623932 64.9142147,53.2089854 66.91,53.05 L66.91,53.05 Z" id="Path" fill="#FFFFFF" style="mix-blend-mode: overlay;"></path>
                <path d="M49.2,2.39 L49.84,0 L50.49,2.39 C50.848996,3.74371715 51.9062828,4.80100404 53.26,5.16 L55.65,5.81 L53.26,6.45 C51.9094901,6.81455333 50.8545533,7.86949006 50.49,9.22 L49.84,11.62 L49.2,9.22 C48.8354467,7.86949006 47.7805099,6.81455333 46.43,6.45 L44,5.81 L46.39,5.16 C47.759113,4.8135508 48.8339585,3.75400549 49.2,2.39 L49.2,2.39 Z" id="Path" fill="#FFF0B0"></path>
                <path d="M98.78,19.14 L99.21,17.54 L99.64,19.14 C99.8813577,20.0452545 100.58606,20.7537657 101.49,21 L103.1,21.43 L101.49,21.86 C100.58606,22.1062343 99.8813577,22.8147455 99.64,23.72 L99.21,25.32 L98.78,23.72 C98.5313864,22.8153773 97.8246227,22.1086136 96.92,21.86 L95.32,21.43 L96.92,21 C97.8246227,20.7513864 98.5313864,20.0446227 98.78,19.14 L98.78,19.14 Z" id="Path" fill="#FFF0B0"></path>
                <path d="M18.06,51.49 L18.33,50.49 L18.61,51.49 C18.7650741,52.071072 19.218928,52.5249259 19.8,52.68 L20.8,52.96 L19.8,53.24 C19.218928,53.3950741 18.7650741,53.848928 18.61,54.43 L18.33,55.43 L18.06,54.43 C17.9049259,53.848928 17.451072,53.3950741 16.87,53.24 L15.87,52.96 L16.87,52.68 C17.451072,52.5249259 17.9049259,52.071072 18.06,51.49 Z" id="Path" fill="#FFFFFF"></path>
                <g id="Home-Copy-8" transform="translate(48.000000, 14.000000)" fill="#FFDD00">
                    <g id="Group-24">
                        <g id="Group-67">
                            <g id="Group-10">
                                <path d="M11.74,15.2 C10.4233112,15.1929118 9.33403148,14.173346 9.24,12.86 C8.72417087,12.4105447 7.95582913,12.4105447 7.44,12.86 C7.35625403,14.1286493 6.32666778,15.1284757 5.05610833,15.174986 C3.78554888,15.2214964 2.68561658,14.2996235 2.50933826,13.0404926 C2.33305994,11.7813618 3.13754133,10.592871 4.37202483,10.2886753 C5.60650833,9.98447962 6.87108046,10.6631238 7.3,11.86 C7.95759293,11.530022 8.73240707,11.530022 9.39,11.86 C9.82599868,10.6699162 11.0835854,9.99440236 12.3165465,10.2880028 C13.5495075,10.5816033 14.3676751,11.7514089 14.220515,13.0102727 C14.0733548,14.2691365 13.0074354,15.2186938 11.74,15.22 L11.74,15.2 Z M11.74,11.12 C11.1000552,11.1159496 10.5208679,11.4983256 10.27316,12.0883989 C10.0254521,12.6784722 10.1581507,13.3596921 10.6092302,13.8136447 C11.0603097,14.2675973 11.7406733,14.4046184 12.3323074,14.160662 C12.9239416,13.9167055 13.3099872,13.3399576 13.31,12.7 C13.3126632,12.2818802 13.1484295,11.8799707 12.8537082,11.5833722 C12.5589869,11.2867738 12.1581283,11.1199681 11.74,11.12 L11.74,11.12 Z M4.95,11.12 C4.31005522,11.1159496 3.73086789,11.4983256 3.48315998,12.0883989 C3.23545207,12.6784722 3.36815066,13.3596921 3.81923018,13.8136447 C4.27030969,14.2675973 4.95067326,14.4046184 5.54230741,14.160662 C6.13394157,13.9167055 6.51998718,13.3399576 6.52,12.7 C6.5258571,11.848193 5.85139565,11.1471081 5,11.12 L4.95,11.12 Z M8.34,9.12 C5.7474729,9.19562074 3.16173623,8.81655987 0.7,8 C0.58484525,7.95360857 0.493331313,7.86264081 0.4462514,7.74776582 C0.399171487,7.63289083 0.400523412,7.50386329 0.45,7.39 C0.494262873,7.27553924 0.583352642,7.18412118 0.69663365,7.13692076 C0.809914658,7.08972034 0.937558742,7.09083263 1.05,7.14 C1.73009975,7.40163271 2.43315441,7.59915759 3.15,7.73 L4.51,1.08 C4.53732676,0.945328182 4.62106235,0.828826489 4.74,0.76 C4.86414193,0.704807661 5.00585807,0.704807661 5.13,0.76 L8.36,2 L11.58,0.71 C11.7041419,0.654807661 11.8458581,0.654807661 11.97,0.71 C12.0902375,0.779534871 12.176913,0.895102191 12.21,1.03 L13.54,7.68 C14.2568456,7.54915759 14.9599003,7.35163271 15.64,7.09 C15.7524413,7.04083263 15.8800853,7.03972034 15.9933664,7.08692076 C16.1066474,7.13412118 16.1957371,7.22553924 16.24,7.34 C16.3071942,7.45743547 16.3192803,7.59849752 16.2730424,7.72565178 C16.2268045,7.85280604 16.1269322,7.95315595 16,8 L16,8 C13.5300121,8.80830068 10.9374184,9.17722067 8.34,9.09 L8.34,9.12 Z M4.07,7.9 C5.48441624,8.10009893 6.91151704,8.19702147 8.34,8.19 C9.77181395,8.19732997 11.2022617,8.10040711 12.62,7.9 L11.41,1.82 L8.53,2.97 C8.41768414,3.0150597 8.29231586,3.0150597 8.18,2.97 L5.3,1.79 L4.07,7.9 Z" id="Shape"></path>
                            </g>
                        </g>
                    </g>
                </g>
            </g>
        </g>
    </g>
</svg>