<?xml version="1.0" encoding="UTF-8"?>
<svg width="147px" height="247px" viewBox="0 0 147 247" version="1.1" xmlns="http://www.w3.org/2000/svg" xmlns:xlink="http://www.w3.org/1999/xlink">
    <!-- Generator: Sketch 57.1 (83088) - https://sketch.com -->
    <title>10$</title>
    <desc>Created with Sketch.</desc>
    <defs>
        <filter x="-36.8%" y="-19.3%" width="173.6%" height="139.0%" filterUnits="objectBoundingBox" id="filter-1">
            <feOffset dx="0" dy="2" in="SourceAlpha" result="shadowOffsetOuter1"></feOffset>
            <feGaussianBlur stdDeviation="9.5" in="shadowOffsetOuter1" result="shadowBlurOuter1"></feGaussianBlur>
            <feColorMatrix values="0 0 0 0 0.809669384   0 0 0 0 0.809669384   0 0 0 0 0.809669384  0 0 0 0.5 0" type="matrix" in="shadowBlurOuter1" result="shadowMatrixOuter1"></feColorMatrix>
            <feMerge>
                <feMergeNode in="shadowMatrixOuter1"></feMergeNode>
                <feMergeNode in="SourceGraphic"></feMergeNode>
            </feMerge>
        </filter>
        <polygon id="path-2" points="3.93891107e-05 0 103.790307 0 103.790307 204.429485 3.93891107e-05 204.429485"></polygon>
        <polygon id="path-4" points="0 0 82.9091544 0 82.9091544 66.9193025 0 66.9193025"></polygon>
    </defs>
    <g id="Page-1" stroke="none" stroke-width="1" fill="none" fill-rule="evenodd">
        <g id="Home-Copy-5" transform="translate(-412.000000, -952.000000)">
            <g id="10$" transform="translate(431.000000, 969.000000)">
                <g id="10%">
                    <polygon id="Fill-1" fill="#3F160A" points="82.9141174 3.93891107e-05 80.1568797 0.984767157 76.021023 5.12062378 88.9091401 5.12062378"></polygon>
                    <polygon id="Fill-2" fill="#3F160A" points="1.96943584 62.2348146 -1.96945554e-05 66.7645623 5.90834691 72.980164 8.86253021 68.9309634 9.45336687 61.2500868 6.10529246 59.0836857"></polygon>
                    <g id="Group-45" filter="url(#filter-1)">
                        <g id="Group-5" transform="translate(5.120584, 5.120584)">
                            <mask id="mask-3" fill="white">
                                <use xlink:href="#path-2"></use>
                            </mask>
                            <g id="Clip-4"></g>
                            <path d="M84.8323671,0 L18.9580184,0 C8.48780191,0 3.93891107e-05,8.48776252 3.93891107e-05,18.957979 L3.93891107e-05,185.471506 C3.93891107e-05,195.941525 8.48780191,204.429485 18.9580184,204.429485 L84.8323671,204.429485 C95.3025836,204.429485 103.790346,195.941525 103.790346,185.471506 L103.790346,18.957979 C103.790346,8.48776252 95.3025836,0 84.8323671,0" id="Fill-3" fill="#FDFDFF" mask="url(#mask-3)"></path>
                        </g>
                        <g id="Group-8">
                            <mask id="mask-5" fill="white">
                                <use xlink:href="#path-4"></use>
                            </mask>
                            <g id="Clip-7"></g>
                            <polygon id="Fill-6" fill="#A34A28" mask="url(#mask-5)" points="0 40.2522837 0 66.7312195 0.152041967 66.9193025 82.9091544 0.0338352461 82.881779 -3.93891107e-05 49.8039855 -3.93891107e-05"></polygon>
                        </g>
                        <path d="M46.6591678,151.449969 C46.9784166,151.130917 47.1438508,150.551503 47.1438508,149.723938 L47.1438508,142.583283 C47.1438508,142.181317 47.0375002,141.874082 46.8246021,141.673001 C46.6119009,141.472116 46.3399191,141.365569 46.0208673,141.365569 C45.3705531,141.365569 44.8976868,141.625734 44.5902548,142.157684 L44.5902548,149.712121 C44.5902548,150.196804 44.7677027,150.598967 45.1340214,150.929835 C45.5005371,151.260901 45.9379532,151.426335 46.4580864,151.426335 L46.6591678,151.449969 Z M46.3991997,140.206938 C45.9379532,140.206938 45.5359873,140.348936 45.1933021,140.620917 C44.8502229,140.892899 44.6375217,141.235781 44.5546076,141.649367 C44.9449537,141.259415 45.4060033,141.07015 45.9497699,141.07015 C46.3635525,141.07015 46.7064347,141.200134 46.9784166,141.460299 C47.2502014,141.720267 47.3921992,142.110417 47.3921992,142.630747 L47.3921992,149.771402 C47.3921992,150.468786 47.2974684,151.000933 47.1084006,151.367252 C47.4510859,151.237267 47.7230677,151.024566 47.9357689,150.728951 C48.148667,150.433336 48.2552146,150.114087 48.2552146,149.759388 L48.2552146,141.944785 C48.2552146,141.460299 48.0777666,141.046517 47.7114479,140.703831 C47.3447353,140.360752 46.9075162,140.183501 46.387186,140.183501 L46.3991997,140.206938 Z M40.7714805,145.751546 C40.7714805,143.871898 40.8898448,142.346751 41.1145596,141.164487 C41.3390776,139.98242 41.8001271,139.048307 42.4977083,138.350923 C41.9301112,138.741269 41.4690616,139.213938 41.1145596,139.781535 C40.7598607,140.348936 40.4998926,140.987236 40.3342614,141.708451 C40.1688271,142.429665 40.0622796,143.091796 40.0150126,143.694647 C39.9677457,144.297694 39.9441122,145.006895 39.9441122,145.810827 C39.9441122,146.567491 39.955929,147.194172 39.9677457,147.702489 C39.9795624,148.210805 40.0386461,148.825669 40.13318,149.546687 C40.2279108,150.267901 40.3578948,150.858935 40.523526,151.331604 C40.6889603,151.804668 40.9254919,152.313181 41.232727,152.844934 C41.540159,153.377081 41.9064777,153.790864 42.3440907,154.098099 C42.7815068,154.405728 43.3252735,154.665696 43.9874044,154.878397 C44.6493384,155.091295 45.4060033,155.197646 46.2451883,155.197646 C47.1202174,155.197646 47.9123324,155.020395 48.63335,154.665696 C49.3547616,154.310997 49.8867115,153.850144 50.2412135,153.282547 C49.3663814,154.074465 48.1132168,154.464811 46.4819168,154.464811 C45.5005371,154.464811 44.6611552,154.322813 43.963574,154.039015 C43.2659929,153.755413 42.7104095,153.377081 42.3084436,152.904215 C41.9064777,152.431348 41.5874259,151.792851 41.362711,150.988919 C41.1381931,150.184987 40.9961954,149.393069 40.9371117,148.612771 C40.878028,147.832473 40.8425778,146.874923 40.8425778,145.727913 L40.7714805,145.751546 Z M39.6603137,145.775573 C39.6603137,144.770363 39.6959608,143.907545 39.7668612,143.18633 C39.8375647,142.465116 40.0031959,141.684817 40.2751777,140.857449 C40.5469626,140.029687 40.9134782,139.355936 41.3745278,138.835606 C41.8357743,138.315473 42.4977083,137.878057 43.3607237,137.535174 C44.2237391,137.192292 45.240569,137.015041 46.4108195,137.015041 C47.486733,137.015041 48.4088321,137.216123 49.1654969,137.618089 C49.9219648,138.020054 50.5131954,138.611285 50.9387947,139.403203 C51.364394,140.195318 51.671826,141.1056 51.8608938,142.13405 C52.0501585,143.162697 52.1446923,144.356581 52.1446923,145.727913 C52.1446923,146.33096 52.1446923,146.803826 52.1328756,147.146708 C52.1208619,147.489787 52.0972284,147.962457 52.0619752,148.577124 C52.026525,149.191988 51.9792581,149.688685 51.9199774,150.067017 C51.8608938,150.445152 51.7663599,150.906202 51.6245591,151.449969 C51.4825614,151.993932 51.3171271,152.431348 51.1278624,152.774231 C50.9387947,153.117113 50.6906433,153.483432 50.395028,153.873778 C50.0994127,154.26373 49.7567275,154.571162 49.3783951,154.79568 C49.0000627,155.020395 48.5506329,155.197646 48.018683,155.339643 C47.486733,155.481444 46.9075162,155.552345 46.2808354,155.552345 C45.3941865,155.552345 44.6020715,155.445994 43.9163071,155.233096 C43.2307396,155.020395 42.6631425,154.748413 42.202093,154.417347 C41.7410435,154.086479 41.3508943,153.649063 41.0198288,153.105099 C40.6889603,152.561332 40.440612,152.041199 40.2751777,151.544503 C40.1095465,151.048003 39.9795624,150.433336 39.8968453,149.700304 C39.8139312,148.96747 39.7548475,148.328972 39.7312141,147.796826 C39.7075806,147.264876 39.6959608,146.614758 39.6959608,145.846277 L39.6603137,145.775573 Z" id="Fill-17" fill="#000000"></path>
                        <path d="M60.9861691,148.482708 C61.3881349,148.482708 61.7428339,148.329091 62.0502659,148.033475 C62.3576979,147.73786 62.5231322,147.383161 62.5585824,146.969379 C62.2393336,147.418611 61.7901008,147.643129 61.2108839,147.643129 L58.8229191,147.643129 L58.8229191,148.494525 L60.9861691,148.482708 Z M58.8229191,140.715569 L58.8229191,141.566571 L62.0620826,141.566571 C62.4640485,141.566571 62.8187474,141.413151 63.1259825,141.117535 C63.4334145,140.82192 63.5990457,140.467221 63.634299,140.053242 C63.3152472,140.502671 62.8660144,140.727189 62.2867975,140.727189 L58.8229191,140.715569 Z M56.4347573,137.677093 C55.878977,137.68891 55.394294,137.877978 54.9686946,138.232677 C54.5430953,138.587573 54.3303941,139.036609 54.3303941,139.592192 L54.3303941,152.596901 C54.3303941,153.400833 54.5076451,154.0155 54.8741607,154.441099 C55.2406764,154.866698 55.7489929,155.079399 56.4111238,155.079399 C57.0848746,155.079399 57.6286413,154.783981 58.0426208,154.180934 C57.6759082,154.405649 57.3332229,154.511999 57.0139742,154.500183 C56.5174744,154.500183 56.0916782,154.322735 55.7371762,153.968233 C55.3824772,153.613534 55.2050293,153.187934 55.2050293,152.691435 L55.2050293,139.131339 C55.217043,138.421942 55.6308256,137.925442 56.4463771,137.653657 L56.4347573,137.677093 Z M56.4229406,155.398648 C55.6662758,155.398648 55.0750452,155.162314 54.6494459,154.689447 C54.2238465,154.216384 54.0111453,153.507183 54.0111453,152.573267 L54.0111453,139.568559 C54.0111453,138.906625 54.2594937,138.362858 54.7557965,137.937062 C55.2524932,137.511659 55.83171,137.298761 56.493644,137.298761 L62.0857161,137.298761 C62.6533132,137.298761 63.1259825,137.511659 63.5043149,137.937062 C63.8826473,138.362858 64.071912,138.859358 64.071912,139.426758 C64.071912,140.077072 63.894661,140.644472 63.5515818,141.129155 C63.2088966,141.614035 62.7360303,141.862186 62.132983,141.862186 L58.8465526,141.862186 L58.8465526,144.214701 L61.0218162,144.214701 C61.5892163,144.214701 62.0620826,144.427599 62.440415,144.853199 C62.8187474,145.278798 63.0080121,145.775495 63.0080121,146.330881 C63.0080121,146.981195 62.8305642,147.548792 62.487682,148.045095 C62.1447997,148.541792 61.6719335,148.79014 61.0690831,148.79014 L58.8465526,148.79014 L58.8465526,152.904136 C58.8465526,153.566267 58.6218377,154.145681 58.1605912,154.641983 C57.6997386,155.138483 57.1203248,155.387028 56.4229406,155.387028 L56.4229406,155.398648 Z" id="Fill-19" fill="#000000"></path>
                        <path d="M72.4998031,148.482708 C72.9017689,148.482708 73.2564679,148.329091 73.5638999,148.033475 C73.8713319,147.73786 74.0367662,147.383161 74.0722164,146.969379 C73.7529676,147.418611 73.3037348,147.643129 72.7245179,147.643129 L70.3365531,147.643129 L70.3365531,148.494525 L72.4998031,148.482708 Z M70.3365531,140.715569 L70.3365531,141.566571 L73.5757166,141.566571 C73.9776825,141.566571 74.3323814,141.413151 74.6396165,141.117535 C74.9470485,140.82192 75.1126797,140.467221 75.147933,140.053242 C74.8288812,140.502671 74.3796484,140.727189 73.8004315,140.727189 L70.3365531,140.715569 Z M67.9483913,137.677093 C67.392611,137.68891 66.907928,137.877978 66.4823286,138.232677 C66.0567293,138.587573 65.8440281,139.036609 65.8440281,139.592192 L65.8440281,152.596901 C65.8440281,153.400833 66.0212791,154.0155 66.3877947,154.441099 C66.7543104,154.866698 67.2626269,155.079399 67.9247578,155.079399 C68.5985086,155.079399 69.1422753,154.783981 69.5562548,154.180934 C69.1895422,154.405649 68.8468569,154.511999 68.5276082,154.500183 C68.0311084,154.500183 67.6053122,154.322735 67.2508102,153.968233 C66.8961112,153.613534 66.7186633,153.187934 66.7186633,152.691435 L66.7186633,139.131339 C66.730677,138.421942 67.1444596,137.925442 67.9600111,137.653657 L67.9483913,137.677093 Z M67.9365746,155.398648 C67.1799098,155.398648 66.5886792,155.162314 66.1630799,154.689447 C65.7374805,154.216384 65.5247793,153.507183 65.5247793,152.573267 L65.5247793,139.568559 C65.5247793,138.906625 65.7731277,138.362858 66.2694305,137.937062 C66.7661272,137.511659 67.345344,137.298761 68.007278,137.298761 L73.5993501,137.298761 C74.1669472,137.298761 74.6396165,137.511659 75.0179489,137.937062 C75.3962813,138.362858 75.585546,138.859358 75.585546,139.426758 C75.585546,140.077072 75.408295,140.644472 75.0652158,141.129155 C74.7225306,141.614035 74.2496643,141.862186 73.646617,141.862186 L70.3601866,141.862186 L70.3601866,144.214701 L72.5354502,144.214701 C73.1028503,144.214701 73.5757166,144.427599 73.954049,144.853199 C74.3323814,145.278798 74.5216461,145.775495 74.5216461,146.330881 C74.5216461,146.981195 74.3441982,147.548792 74.001316,148.045095 C73.6584337,148.541792 73.1855675,148.79014 72.5827171,148.79014 L70.3601866,148.79014 L70.3601866,152.904136 C70.3601866,153.566267 70.1354717,154.145681 69.6742252,154.641983 C69.2133726,155.138483 68.6339588,155.387028 67.9365746,155.387028 L67.9365746,155.398648 Z" id="Fill-21" fill="#000000"></path>
                        <polygon id="Fill-23" fill="#A34A28" points="23.1550982 92.1447066 29.1520903 97.3759744 33.490407 94.3774784 33.490407 124.681294 43.7617084 124.681294 43.7617084 79.5126188 35.1490824 79.5126188"></polygon>
                        <polygon id="Fill-35" fill="#000000" points="57.0157377 178.581917 59.5766208 183.770644 65.3026158 184.602542 61.1592752 188.641502 62.1373069 194.344454 57.0157377 191.651815 51.8941686 194.344454 52.8722002 188.641502 48.7288597 184.602542 54.4548547 183.770644"></polygon>
                        <polygon id="Fill-37" fill="#000000" points="75.4793834 180.843915 77.3052656 184.543341 81.38775 185.136738 78.4335667 188.016278 79.1309509 192.082219 75.4793834 190.162591 71.8278159 192.082219 72.5252001 188.016278 69.5710168 185.136738 73.6535012 184.543341"></polygon>
                        <polygon id="Fill-39" fill="#000000" points="89.6102268 182.529671 90.8884035 185.119308 93.7460835 185.534666 91.6781552 187.550207 92.1663832 190.396464 89.6102268 189.052704 87.0540705 190.396464 87.5422985 187.550207 85.4743702 185.534666 88.3320502 185.119308"></polygon>
                        <polygon id="Fill-41" fill="#000000" points="38.5520921 180.843915 36.7262099 184.543341 32.6437255 185.136738 35.5979088 188.016278 34.9005246 192.082219 38.5520921 190.162591 42.2036596 192.082219 41.5062754 188.016278 44.4604587 185.136738 40.3779743 184.543341"></polygon>
                        <polygon id="Fill-43" fill="#000000" points="24.4212486 182.529671 23.143072 185.119308 20.285392 185.534666 22.3533203 187.550207 21.8650923 190.396464 24.4212486 189.052704 26.977405 190.396464 26.4891769 187.550207 28.5571053 185.534666 25.6994253 185.119308"></polygon>
                    </g>
                </g>
                <text id="0" font-family="AvenirNext-Bold, Avenir Next" font-size="62" font-weight="bold" fill="#A34A28">
                    <tspan x="46" y="124">0</tspan>
                </text>
                <text id="$" font-family="AvenirNext-Bold, Avenir Next" font-size="24" font-weight="bold" fill="#A34A28">
                    <tspan x="85" y="97">$</tspan>
                </text>
            </g>
        </g>
    </g>
</svg>