<?xml version="1.0" encoding="UTF-8"?>
<svg width="147px" height="247px" viewBox="0 0 147 247" version="1.1" xmlns="http://www.w3.org/2000/svg" xmlns:xlink="http://www.w3.org/1999/xlink">
    <!-- Generator: Sketch 57.1 (83088) - https://sketch.com -->
    <title>10%</title>
    <desc>Created with Sketch.</desc>
    <defs>
        <filter x="-36.8%" y="-19.3%" width="173.6%" height="138.9%" filterUnits="objectBoundingBox" id="filter-1">
            <feOffset dx="0" dy="2" in="SourceAlpha" result="shadowOffsetOuter1"></feOffset>
            <feGaussianBlur stdDeviation="9.5" in="shadowOffsetOuter1" result="shadowBlurOuter1"></feGaussianBlur>
            <feColorMatrix values="0 0 0 0 0.809669384   0 0 0 0 0.809669384   0 0 0 0 0.809669384  0 0 0 0.5 0" type="matrix" in="shadowBlurOuter1" result="shadowMatrixOuter1"></feColorMatrix>
            <feMerge>
                <feMergeNode in="shadowMatrixOuter1"></feMergeNode>
                <feMergeNode in="SourceGraphic"></feMergeNode>
            </feMerge>
        </filter>
        <polygon id="path-2" points="3.93891107e-05 0 103.790307 0 103.790307 204.429485 3.93891107e-05 204.429485"></polygon>
        <polygon id="path-4" points="0 0 82.9091544 0 82.9091544 66.9193025 0 66.9193025"></polygon>
    </defs>
    <g id="Page-1" stroke="none" stroke-width="1" fill="none" fill-rule="evenodd">
        <g id="Home-Copy-5" transform="translate(-412.000000, -952.000000)">
            <g id="10%" transform="translate(431.000000, 969.000000)">
                <polygon id="Fill-1" fill="#3F160A" points="82.9141174 3.93891107e-05 80.1568797 0.984767157 76.021023 5.12062378 88.9091401 5.12062378"></polygon>
                <polygon id="Fill-2" fill="#3F160A" points="1.96943584 62.2348146 -1.96945554e-05 66.7645623 5.90834691 72.980164 8.86253021 68.9309634 9.45336687 61.2500868 6.10529246 59.0836857"></polygon>
                <g id="Group-45" filter="url(#filter-1)">
                    <g id="Group-5" transform="translate(5.120584, 5.120584)">
                        <mask id="mask-3" fill="white">
                            <use xlink:href="#path-2"></use>
                        </mask>
                        <g id="Clip-4"></g>
                        <path d="M84.8323671,0 L18.9580184,0 C8.48780191,0 3.93891107e-05,8.48776252 3.93891107e-05,18.957979 L3.93891107e-05,185.471506 C3.93891107e-05,195.941525 8.48780191,204.429485 18.9580184,204.429485 L84.8323671,204.429485 C95.3025836,204.429485 103.790346,195.941525 103.790346,185.471506 L103.790346,18.957979 C103.790346,8.48776252 95.3025836,0 84.8323671,0" id="Fill-3" fill="#FDFDFF" mask="url(#mask-3)"></path>
                    </g>
                    <g id="Group-8">
                        <mask id="mask-5" fill="white">
                            <use xlink:href="#path-4"></use>
                        </mask>
                        <g id="Clip-7"></g>
                        <polygon id="Fill-6" fill="#A34A28" mask="url(#mask-5)" points="0 40.2522837 0 66.7312195 0.152041967 66.9193025 82.9091544 0.0338352461 82.881779 -3.93891107e-05 49.8039855 -3.93891107e-05"></polygon>
                    </g>
                    <path d="M33.1676401,77.8256155 C33.1676401,78.2462912 33.276354,78.5944909 33.4939788,78.8698208 C33.7116037,79.1455446 33.9835855,79.3523374 34.3099243,79.4900023 C34.636263,79.6278642 34.9876139,79.6967952 35.3651585,79.6967952 C35.7421123,79.6967952 36.0938571,79.6243192 36.4203928,79.4791703 C36.7467316,79.3342184 37.0220615,79.1274256 37.2471703,78.8589888 C37.4716882,78.5907489 37.584538,78.2462912 37.584538,77.8256155 L37.584538,67.5775536 L41.5226613,67.5775536 L41.5226613,77.8256155 C41.5226613,78.7250658 41.3448194,79.5154083 40.9895297,80.1970369 C40.633846,80.8790593 40.1661003,81.4448839 39.5860956,81.8941167 C39.005894,82.3439403 38.3494745,82.6811111 37.617034,82.906023 C36.8843965,83.1307378 36.133837,83.2431937 35.3651585,83.2431937 C34.5960862,83.2431937 33.8421786,83.1307378 33.1022541,82.906023 C32.3625266,82.6811111 31.7061071,82.3439403 31.1331925,81.8941167 C30.5600809,81.4448839 30.0998192,80.8790593 29.7516194,80.1970369 C29.4036166,79.5154083 29.2295168,78.7250658 29.2295168,77.8256155 L29.2295168,67.5775536 L33.1676401,67.5775536 L33.1676401,77.8256155 Z" id="Fill-9" fill="#000000"></path>
                    <path d="M49.9860813,75.0187474 C50.3776091,75.0187474 50.7041448,74.9244105 50.9652946,74.7359336 C51.2262475,74.5474567 51.4222083,74.3115159 51.5525863,74.0288991 C51.6831612,73.7458883 51.7483501,73.4412135 51.7483501,73.1148748 C51.7483501,72.788536 51.6831612,72.4838612 51.5525863,72.2010474 C51.4222083,71.9184305 51.2262475,71.6828836 50.9652946,71.4942098 C50.7041448,71.305536 50.3776091,71.2110021 49.9860813,71.2110021 L47.7233739,71.2110021 L47.7233739,75.0187474 L49.9860813,75.0187474 Z M43.8285786,67.5775536 L49.9860813,67.5775536 C50.9288597,67.5775536 51.7518952,67.7335345 52.4555816,68.0452993 C53.1588742,68.3576549 53.7465597,68.7673017 54.2178504,69.2746334 C54.6891411,69.782556 55.0410828,70.3623637 55.2732817,71.0154352 C55.5050866,71.6679158 55.6212844,72.3353643 55.6212844,73.0169928 C55.6212844,73.6990153 55.5017385,74.3696149 55.2624496,75.0295794 C55.0229639,75.6897409 54.6712191,76.2734875 54.2072154,76.7810162 C53.7426208,77.2889388 53.1588742,77.6985856 52.4555816,78.0103504 C51.7518952,78.3223121 50.9359497,78.4780961 50.0077453,78.4780961 L47.7233739,78.4780961 L47.7233739,82.9820439 L43.8285786,82.9820439 L43.8285786,67.5775536 Z" id="Fill-11" fill="#000000"></path>
                    <polygon id="Fill-13" fill="#000000" points="67.4142266 71.2546649 67.4142266 82.9819849 63.4761033 82.9819849 63.4761033 71.2546649 59.3855442 71.2546649 59.3855442 67.5560274 71.5047858 67.5560274 71.5047858 71.2546649"></polygon>
                    <path d="M76.4218072,77.9125472 C76.4218072,78.202845 76.4940863,78.4494208 76.6392351,78.6522747 C76.7841871,78.8555225 76.9728609,79.0296224 77.2050597,79.1743774 C77.4368646,79.3197232 77.7054984,79.4246952 78.0099762,79.4900811 C78.314651,79.5552701 78.6193257,79.5877661 78.9238036,79.5877661 C79.2284783,79.5877661 79.5294111,79.5517251 79.8267989,79.4790522 C80.1239898,79.4065762 80.3888815,79.3016042 80.6208834,79.1635454 C80.8528853,79.0258804 81.0415591,78.8519775 81.186708,78.6414427 C81.3316599,78.4313018 81.4043328,78.188271 81.4043328,77.9125472 L81.4043328,72.6472078 C81.4043328,72.34273 81.3316599,72.0815802 81.186708,71.8639554 C81.0415591,71.6463305 80.8493402,71.4686857 80.6102483,71.3308238 C80.3707625,71.1931588 80.0987807,71.0881868 79.794106,71.015317 C79.4896281,70.942841 79.1774694,70.906603 78.8586146,70.906603 C78.5539398,70.906603 78.256552,70.942841 77.9666482,71.015317 C77.6761535,71.0881868 77.4152006,71.2002489 77.1831988,71.3524878 C76.9511969,71.5049236 76.7660681,71.6896586 76.6284031,71.9074804 C76.4905412,72.1249082 76.4218072,72.371878 76.4218072,72.6472078 L76.4218072,77.9125472 Z M72.5272089,72.6472078 C72.5272089,71.7623315 72.7083988,70.9903049 73.0709756,70.3299465 C73.4333554,69.6699819 73.915872,69.1191252 74.5179346,68.6763916 C75.1198002,68.2338549 75.8018226,67.9039711 76.5632142,67.6863463 C77.3248026,67.4689184 78.1043131,67.3600075 78.9021395,67.3600075 C79.699769,67.3600075 80.4830215,67.4689184 81.2518969,67.6863463 C82.0207724,67.9039711 82.7024009,68.2338549 83.2971765,68.6763916 C83.8919521,69.1191252 84.3742717,69.6699819 84.7441355,70.3299465 C85.1139992,70.9903049 85.2989311,71.7623315 85.2989311,72.6472078 L85.2989311,77.9125472 C85.2989311,78.7974236 85.1173473,79.5698441 84.7551644,80.2298086 C84.3921938,80.8899701 83.9098741,81.4410238 83.3082055,81.8831665 C82.705946,82.3259001 82.0243174,82.6557839 81.2629259,82.8732118 C80.5013374,83.0908367 79.721433,83.1997476 78.9238036,83.1997476 C78.1259771,83.1997476 77.3427247,83.0908367 76.5740462,82.8732118 C75.8049738,82.6557839 75.1233452,82.3259001 74.5289635,81.8831665 C73.9337941,81.4410238 73.4518683,80.8899701 73.0820045,80.2298086 C72.7121408,79.5698441 72.5272089,78.7974236 72.5272089,77.9125472 L72.5272089,72.6472078 Z" id="Fill-15" fill="#000000"></path>
                    <path d="M56.6591678,151.449969 C56.9784166,151.130917 57.1438508,150.551503 57.1438508,149.723938 L57.1438508,142.583283 C57.1438508,142.181317 57.0375002,141.874082 56.8246021,141.673001 C56.6119009,141.472116 56.3399191,141.365569 56.0208673,141.365569 C55.3705531,141.365569 54.8976868,141.625734 54.5902548,142.157684 L54.5902548,149.712121 C54.5902548,150.196804 54.7677027,150.598967 55.1340214,150.929835 C55.5005371,151.260901 55.9379532,151.426335 56.4580864,151.426335 L56.6591678,151.449969 Z M56.3991997,140.206938 C55.9379532,140.206938 55.5359873,140.348936 55.1933021,140.620917 C54.8502229,140.892899 54.6375217,141.235781 54.5546076,141.649367 C54.9449537,141.259415 55.4060033,141.07015 55.9497699,141.07015 C56.3635525,141.07015 56.7064347,141.200134 56.9784166,141.460299 C57.2502014,141.720267 57.3921992,142.110417 57.3921992,142.630747 L57.3921992,149.771402 C57.3921992,150.468786 57.2974684,151.000933 57.1084006,151.367252 C57.4510859,151.237267 57.7230677,151.024566 57.9357689,150.728951 C58.148667,150.433336 58.2552146,150.114087 58.2552146,149.759388 L58.2552146,141.944785 C58.2552146,141.460299 58.0777666,141.046517 57.7114479,140.703831 C57.3447353,140.360752 56.9075162,140.183501 56.387186,140.183501 L56.3991997,140.206938 Z M50.7714805,145.751546 C50.7714805,143.871898 50.8898448,142.346751 51.1145596,141.164487 C51.3390776,139.98242 51.8001271,139.048307 52.4977083,138.350923 C51.9301112,138.741269 51.4690616,139.213938 51.1145596,139.781535 C50.7598607,140.348936 50.4998926,140.987236 50.3342614,141.708451 C50.1688271,142.429665 50.0622796,143.091796 50.0150126,143.694647 C49.9677457,144.297694 49.9441122,145.006895 49.9441122,145.810827 C49.9441122,146.567491 49.955929,147.194172 49.9677457,147.702489 C49.9795624,148.210805 50.0386461,148.825669 50.13318,149.546687 C50.2279108,150.267901 50.3578948,150.858935 50.523526,151.331604 C50.6889603,151.804668 50.9254919,152.313181 51.232727,152.844934 C51.540159,153.377081 51.9064777,153.790864 52.3440907,154.098099 C52.7815068,154.405728 53.3252735,154.665696 53.9874044,154.878397 C54.6493384,155.091295 55.4060033,155.197646 56.2451883,155.197646 C57.1202174,155.197646 57.9123324,155.020395 58.63335,154.665696 C59.3547616,154.310997 59.8867115,153.850144 60.2412135,153.282547 C59.3663814,154.074465 58.1132168,154.464811 56.4819168,154.464811 C55.5005371,154.464811 54.6611552,154.322813 53.963574,154.039015 C53.2659929,153.755413 52.7104095,153.377081 52.3084436,152.904215 C51.9064777,152.431348 51.5874259,151.792851 51.362711,150.988919 C51.1381931,150.184987 50.9961954,149.393069 50.9371117,148.612771 C50.878028,147.832473 50.8425778,146.874923 50.8425778,145.727913 L50.7714805,145.751546 Z M49.6603137,145.775573 C49.6603137,144.770363 49.6959608,143.907545 49.7668612,143.18633 C49.8375647,142.465116 50.0031959,141.684817 50.2751777,140.857449 C50.5469626,140.029687 50.9134782,139.355936 51.3745278,138.835606 C51.8357743,138.315473 52.4977083,137.878057 53.3607237,137.535174 C54.2237391,137.192292 55.240569,137.015041 56.4108195,137.015041 C57.486733,137.015041 58.4088321,137.216123 59.1654969,137.618089 C59.9219648,138.020054 60.5131954,138.611285 60.9387947,139.403203 C61.364394,140.195318 61.671826,141.1056 61.8608938,142.13405 C62.0501585,143.162697 62.1446923,144.356581 62.1446923,145.727913 C62.1446923,146.33096 62.1446923,146.803826 62.1328756,147.146708 C62.1208619,147.489787 62.0972284,147.962457 62.0619752,148.577124 C62.026525,149.191988 61.9792581,149.688685 61.9199774,150.067017 C61.8608938,150.445152 61.7663599,150.906202 61.6245591,151.449969 C61.4825614,151.993932 61.3171271,152.431348 61.1278624,152.774231 C60.9387947,153.117113 60.6906433,153.483432 60.395028,153.873778 C60.0994127,154.26373 59.7567275,154.571162 59.3783951,154.79568 C59.0000627,155.020395 58.5506329,155.197646 58.018683,155.339643 C57.486733,155.481444 56.9075162,155.552345 56.2808354,155.552345 C55.3941865,155.552345 54.6020715,155.445994 53.9163071,155.233096 C53.2307396,155.020395 52.6631425,154.748413 52.202093,154.417347 C51.7410435,154.086479 51.3508943,153.649063 51.0198288,153.105099 C50.6889603,152.561332 50.440612,152.041199 50.2751777,151.544503 C50.1095465,151.048003 49.9795624,150.433336 49.8968453,149.700304 C49.8139312,148.96747 49.7548475,148.328972 49.7312141,147.796826 C49.7075806,147.264876 49.6959608,146.614758 49.6959608,145.846277 L49.6603137,145.775573 Z" id="Fill-17" fill="#000000"></path>
                    <path d="M70.9861691,148.482708 C71.3881349,148.482708 71.7428339,148.329091 72.0502659,148.033475 C72.3576979,147.73786 72.5231322,147.383161 72.5585824,146.969379 C72.2393336,147.418611 71.7901008,147.643129 71.2108839,147.643129 L68.8229191,147.643129 L68.8229191,148.494525 L70.9861691,148.482708 Z M68.8229191,140.715569 L68.8229191,141.566571 L72.0620826,141.566571 C72.4640485,141.566571 72.8187474,141.413151 73.1259825,141.117535 C73.4334145,140.82192 73.5990457,140.467221 73.634299,140.053242 C73.3152472,140.502671 72.8660144,140.727189 72.2867975,140.727189 L68.8229191,140.715569 Z M66.4347573,137.677093 C65.878977,137.68891 65.394294,137.877978 64.9686946,138.232677 C64.5430953,138.587573 64.3303941,139.036609 64.3303941,139.592192 L64.3303941,152.596901 C64.3303941,153.400833 64.5076451,154.0155 64.8741607,154.441099 C65.2406764,154.866698 65.7489929,155.079399 66.4111238,155.079399 C67.0848746,155.079399 67.6286413,154.783981 68.0426208,154.180934 C67.6759082,154.405649 67.3332229,154.511999 67.0139742,154.500183 C66.5174744,154.500183 66.0916782,154.322735 65.7371762,153.968233 C65.3824772,153.613534 65.2050293,153.187934 65.2050293,152.691435 L65.2050293,139.131339 C65.217043,138.421942 65.6308256,137.925442 66.4463771,137.653657 L66.4347573,137.677093 Z M66.4229406,155.398648 C65.6662758,155.398648 65.0750452,155.162314 64.6494459,154.689447 C64.2238465,154.216384 64.0111453,153.507183 64.0111453,152.573267 L64.0111453,139.568559 C64.0111453,138.906625 64.2594937,138.362858 64.7557965,137.937062 C65.2524932,137.511659 65.83171,137.298761 66.493644,137.298761 L72.0857161,137.298761 C72.6533132,137.298761 73.1259825,137.511659 73.5043149,137.937062 C73.8826473,138.362858 74.071912,138.859358 74.071912,139.426758 C74.071912,140.077072 73.894661,140.644472 73.5515818,141.129155 C73.2088966,141.614035 72.7360303,141.862186 72.132983,141.862186 L68.8465526,141.862186 L68.8465526,144.214701 L71.0218162,144.214701 C71.5892163,144.214701 72.0620826,144.427599 72.440415,144.853199 C72.8187474,145.278798 73.0080121,145.775495 73.0080121,146.330881 C73.0080121,146.981195 72.8305642,147.548792 72.487682,148.045095 C72.1447997,148.541792 71.6719335,148.79014 71.0690831,148.79014 L68.8465526,148.79014 L68.8465526,152.904136 C68.8465526,153.566267 68.6218377,154.145681 68.1605912,154.641983 C67.6997386,155.138483 67.1203248,155.387028 66.4229406,155.387028 L66.4229406,155.398648 Z" id="Fill-19" fill="#000000"></path>
                    <path d="M82.4998031,148.482708 C82.9017689,148.482708 83.2564679,148.329091 83.5638999,148.033475 C83.8713319,147.73786 84.0367662,147.383161 84.0722164,146.969379 C83.7529676,147.418611 83.3037348,147.643129 82.7245179,147.643129 L80.3365531,147.643129 L80.3365531,148.494525 L82.4998031,148.482708 Z M80.3365531,140.715569 L80.3365531,141.566571 L83.5757166,141.566571 C83.9776825,141.566571 84.3323814,141.413151 84.6396165,141.117535 C84.9470485,140.82192 85.1126797,140.467221 85.147933,140.053242 C84.8288812,140.502671 84.3796484,140.727189 83.8004315,140.727189 L80.3365531,140.715569 Z M77.9483913,137.677093 C77.392611,137.68891 76.907928,137.877978 76.4823286,138.232677 C76.0567293,138.587573 75.8440281,139.036609 75.8440281,139.592192 L75.8440281,152.596901 C75.8440281,153.400833 76.0212791,154.0155 76.3877947,154.441099 C76.7543104,154.866698 77.2626269,155.079399 77.9247578,155.079399 C78.5985086,155.079399 79.1422753,154.783981 79.5562548,154.180934 C79.1895422,154.405649 78.8468569,154.511999 78.5276082,154.500183 C78.0311084,154.500183 77.6053122,154.322735 77.2508102,153.968233 C76.8961112,153.613534 76.7186633,153.187934 76.7186633,152.691435 L76.7186633,139.131339 C76.730677,138.421942 77.1444596,137.925442 77.9600111,137.653657 L77.9483913,137.677093 Z M77.9365746,155.398648 C77.1799098,155.398648 76.5886792,155.162314 76.1630799,154.689447 C75.7374805,154.216384 75.5247793,153.507183 75.5247793,152.573267 L75.5247793,139.568559 C75.5247793,138.906625 75.7731277,138.362858 76.2694305,137.937062 C76.7661272,137.511659 77.345344,137.298761 78.007278,137.298761 L83.5993501,137.298761 C84.1669472,137.298761 84.6396165,137.511659 85.0179489,137.937062 C85.3962813,138.362858 85.585546,138.859358 85.585546,139.426758 C85.585546,140.077072 85.408295,140.644472 85.0652158,141.129155 C84.7225306,141.614035 84.2496643,141.862186 83.646617,141.862186 L80.3601866,141.862186 L80.3601866,144.214701 L82.5354502,144.214701 C83.1028503,144.214701 83.5757166,144.427599 83.954049,144.853199 C84.3323814,145.278798 84.5216461,145.775495 84.5216461,146.330881 C84.5216461,146.981195 84.3441982,147.548792 84.001316,148.045095 C83.6584337,148.541792 83.1855675,148.79014 82.5827171,148.79014 L80.3601866,148.79014 L80.3601866,152.904136 C80.3601866,153.566267 80.1354717,154.145681 79.6742252,154.641983 C79.2133726,155.138483 78.6339588,155.387028 77.9365746,155.387028 L77.9365746,155.398648 Z" id="Fill-21" fill="#000000"></path>
                    <polygon id="Fill-23" fill="#A34A28" points="26.1550982 100.144707 32.1520903 105.375974 36.490407 102.377478 36.490407 132.681294 46.7617084 132.681294 46.7617084 87.5126188 38.1490824 87.5126188"></polygon>
                    <path d="M83.890928,94.5303994 C82.9121086,92.7868405 81.6471273,91.3513043 80.0951963,90.2241849 C78.5420837,89.0976563 76.7876927,88.2572897 74.8318264,87.7040696 C72.8749754,87.1518343 70.9401823,86.8747319 69.0260684,86.8747319 C67.1123485,86.8747319 65.1874026,87.1518343 63.2526095,87.7040696 C61.3166347,88.2572897 59.5622437,89.0976563 57.9892396,90.2241849 C56.4152507,91.3513043 55.1394375,92.7868405 54.1614058,94.5303994 C53.1823895,96.2747462 52.6941615,98.3584302 52.6941615,100.782436 L52.6941615,119.475129 C52.6941615,121.857777 53.1823895,123.920191 54.1614058,125.663553 C55.1394375,127.407899 56.4152507,128.843632 57.9892396,129.969767 C59.5622437,131.09728 61.3166347,131.937647 63.2526095,132.489882 C65.1874026,133.042118 67.1123485,133.31922 69.0260684,133.31922 C70.9401823,133.31922 72.8749754,133.042118 74.8318264,132.489882 C76.7876927,131.937647 78.5420837,131.09728 80.0951963,129.969767 C81.6471273,128.843632 82.9121086,127.407899 83.890928,125.663553 C84.8689596,123.920191 85.3583693,121.857777 85.3583693,119.475129 L85.3583693,100.782436 C85.3583693,98.3584302 84.8689596,96.2747462 83.890928,94.5303994" id="Fill-25" fill="#A34A28"></path>
                    <path d="M76.6143215,115.447987 C76.6143215,114.766949 76.518606,114.277539 76.3271749,113.979167 C76.1353499,113.680991 75.8799116,113.531903 75.5606628,113.531903 C75.2414141,113.531903 74.9749467,113.680991 74.7624425,113.979167 C74.5493474,114.277539 74.4429968,114.756511 74.4429968,115.416278 C74.4429968,116.097513 74.5493474,116.581605 74.7624425,116.868949 C74.9749467,117.156489 75.2414141,117.299866 75.5606628,117.299866 C76.2631676,117.299866 76.6143215,116.682835 76.6143215,115.447987 M80.414386,115.447987 C80.414386,116.321243 80.2918858,117.108435 80.0470825,117.811136 C79.8022792,118.513444 79.4670779,119.109795 79.0414785,119.599402 C78.6152883,120.089009 78.1099261,120.461433 77.5246039,120.717068 C76.9388878,120.972309 76.2950728,121.09993 75.592568,121.09993 C74.080617,121.09993 72.9150932,120.616035 72.0959966,119.64726 C71.2763092,118.678682 70.8664655,117.257719 70.8664655,115.383979 C70.8664655,113.659918 71.3080175,112.297449 72.1917122,111.296768 C73.074816,110.296285 74.2084346,109.795846 75.592568,109.795846 C77.1462715,109.795846 78.3387768,110.285847 79.1689023,111.264863 C79.9994217,112.244076 80.414386,113.638648 80.414386,115.447987 M64.1604694,103.632829 C64.1604694,102.951791 64.0647539,102.462185 63.8729289,102.163812 C63.6814979,101.866227 63.4262564,101.716746 63.1068107,101.716746 C62.787562,101.716746 62.5210947,101.866227 62.3085904,102.163812 C62.0954953,102.462185 61.9891447,102.941353 61.9891447,103.600727 C61.9891447,104.282355 62.0954953,104.766448 62.3085904,105.053791 C62.5210947,105.341332 62.787562,105.484708 63.1068107,105.484708 C63.8093155,105.484708 64.1604694,104.867678 64.1604694,103.632829 M76.4313591,97.3370705 L77.8217947,98.2638963 C78.5684153,98.7615777 78.775602,99.7673787 78.2865862,100.519711 L64.346583,121.968066 C63.8552038,122.72414 62.8450701,122.940977 62.0868297,122.452946 L60.7202245,121.573781 C59.9578483,121.083387 59.7388448,120.066951 60.2314057,119.305953 L74.1473815,97.8097399 C74.6438813,97.0430308 75.6713462,96.8303296 76.4313591,97.3370705 M67.9605339,103.632829 C67.9605339,104.505692 67.8378368,105.29308 67.5932304,105.995782 C67.3482302,106.698287 67.0130288,107.294638 66.5872326,107.784047 C66.1612393,108.273851 65.655877,108.646275 65.0705548,108.90191 C64.4848388,109.157152 63.8412207,109.284773 63.1387159,109.284773 C61.6267649,109.284773 60.4612411,108.800877 59.6419476,107.831905 C58.8222602,106.863524 58.4126135,105.442562 58.4126135,103.568822 C58.4126135,101.844366 58.8541654,100.482488 59.7378601,99.4814137 C60.620964,98.4811272 61.7545826,97.9806886 63.1387159,97.9806886 C64.6924194,97.9806886 65.8849247,98.4704922 66.7150502,99.4497055 C67.5453727,100.428919 67.9605339,101.823687 67.9605339,103.632829" id="Fill-27" fill="#FDFDFF"></path>
                    <path d="M19.4322633,29.5785634 L21.1626269,28.2355916 C21.4206256,28.035298 21.798761,28.1383005 21.9196856,28.4415967 L26.4364349,39.7677385 L24.150094,41.542218 L21.1872451,39.5160421 L19.111242,37.5521011 L19.0698834,37.5840062 L20.4189605,40.0901384 L21.7536605,43.4019748 L19.4671226,45.1764543 L9.60389236,38.000743 C9.33959143,37.8083272 9.33348612,37.4162086 9.59168174,37.215718 L11.334059,35.8636868 C11.5122948,35.7252341 11.7618248,35.7262188 11.9390758,35.8660502 L16.4180116,39.3992534 L18.2692998,41.2729934 L18.3382307,41.2194242 L16.9797003,38.9856677 L15.4167404,34.7253415 L17.2898895,33.2714894 L20.9570157,35.920801 L22.8559648,37.7135964 L22.8973233,37.6814943 L21.5905896,35.429028 L19.2835694,30.1634917 C19.1933683,29.9574866 19.2546184,29.7164253 19.4322633,29.5785634" id="Fill-29" fill="#FFFFFF"></path>
                    <path d="M29.5652892,32.1971318 C29.7078778,32.380882 29.8746907,32.5016096 30.0665157,32.5587238 C30.2581437,32.6162319 30.4629671,32.63376 30.6809858,32.6113083 C30.8990045,32.5890534 31.1207652,32.5236675 31.345677,32.4153474 C31.5705889,32.3072243 31.7793512,32.178028 31.9723578,32.0285464 C32.1649705,31.8788677 32.3378887,31.7085098 32.4905215,31.516291 C32.6429574,31.3242691 32.7589583,31.1275205 32.8381304,30.9262421 C32.9173026,30.7249637 32.9509803,30.5221098 32.9397544,30.3176803 C32.9281346,30.1134478 32.8544769,29.9237892 32.7193723,29.7492955 L30.1324924,26.4161889 C29.9828138,26.2235762 29.808517,26.093986 29.6099959,26.0274184 C29.4112778,25.9610478 29.2021216,25.9429288 28.9829212,25.9730614 C28.7639178,26.003588 28.5399907,26.0707464 28.3115338,26.1743398 C28.083077,26.2779331 27.8678155,26.4083111 27.6657494,26.5650798 C27.4731366,26.7147584 27.3025818,26.8837377 27.1546757,27.0722146 C27.0065726,27.2608884 26.89648,27.4601973 26.824398,27.6705352 C26.7523159,27.8812669 26.7261221,28.0890445 26.7460136,28.2944587 C26.7653143,28.4998729 26.8431078,28.6895314 26.9784094,28.8642222 L29.5652892,32.1971318 Z M24.5132419,30.7775482 C24.0785831,30.2174351 23.8134944,29.6397937 23.7189605,29.0436396 C23.6242297,28.4476823 23.6588921,27.8615723 23.8223569,27.2859005 C23.9860187,26.7104256 24.2554402,26.166265 24.6306215,25.6544035 C25.0059997,25.142542 25.445976,24.6907489 25.9509444,24.2988273 C26.4561098,23.9067087 27.005194,23.591005 27.5989848,23.3509283 C28.1921848,23.1108517 28.7859757,22.9850035 29.3799635,22.9725959 C29.9737543,22.9607792 30.5498201,23.0726443 31.1083577,23.308782 C31.6666983,23.5447228 32.163198,23.9427497 32.5978569,24.5030598 L35.1847367,27.8359694 C35.6193956,28.3960826 35.8840904,28.9745117 35.9786242,29.570075 C36.073552,30.1662292 36.0386926,30.7519453 35.8752278,31.3276171 C35.7115661,31.9036829 35.4421446,32.4472526 35.0669633,32.959311 C34.6915851,33.4711725 34.2516087,33.9229656 33.7464433,34.3146903 C33.2414749,34.706612 32.6921938,35.0229066 32.0987968,35.2625893 C31.5052029,35.5026659 30.911609,35.628908 30.3176213,35.6407248 C29.7238304,35.6531323 29.1479616,35.5410703 28.589424,35.3049326 C28.0312803,35.0689918 27.5345836,34.6709649 27.0999248,34.1106548 L24.5132419,30.7775482 Z" id="Fill-31" fill="#FFFFFF"></path>
                    <path d="M40.9949654,12.8437649 L42.182744,11.9218627 C42.6120853,11.5888278 43.2411294,11.7599735 43.4424077,12.264745 L47.7984495,23.188527 L45.5121086,24.9630065 L42.5494566,22.9368306 L40.4734535,20.9728895 L40.431898,21.0049917 L41.781172,23.5109269 L43.1156751,26.8227633 L40.8293341,28.5974397 L31.316667,21.676773 C30.8768875,21.3567364 30.8666464,20.7042558 31.2963816,20.370827 L32.4945983,19.4408501 C32.7911983,19.2108177 33.2065565,19.2123932 33.501384,19.4449859 L37.7800261,22.8200419 L39.6315113,24.6939788 L39.7002453,24.6404096 L38.3417149,22.4064562 L36.7787549,18.14613 L38.6521011,16.6922779 L42.3192273,19.3417865 L44.2179793,21.1343849 L44.2593379,21.1022828 L42.9528011,18.8500134 L40.7476017,13.8168729 C40.5973323,13.4741876 40.6993501,13.0732065 40.9949654,12.8437649" id="Fill-33" fill="#FFFFFF"></path>
                    <polygon id="Fill-35" fill="#000000" points="57.0157377 178.581917 59.5766208 183.770644 65.3026158 184.602542 61.1592752 188.641502 62.1373069 194.344454 57.0157377 191.651815 51.8941686 194.344454 52.8722002 188.641502 48.7288597 184.602542 54.4548547 183.770644"></polygon>
                    <polygon id="Fill-37" fill="#000000" points="75.4793834 180.843915 77.3052656 184.543341 81.38775 185.136738 78.4335667 188.016278 79.1309509 192.082219 75.4793834 190.162591 71.8278159 192.082219 72.5252001 188.016278 69.5710168 185.136738 73.6535012 184.543341"></polygon>
                    <polygon id="Fill-39" fill="#000000" points="89.6102268 182.529671 90.8884035 185.119308 93.7460835 185.534666 91.6781552 187.550207 92.1663832 190.396464 89.6102268 189.052704 87.0540705 190.396464 87.5422985 187.550207 85.4743702 185.534666 88.3320502 185.119308"></polygon>
                    <polygon id="Fill-41" fill="#000000" points="38.5520921 180.843915 36.7262099 184.543341 32.6437255 185.136738 35.5979088 188.016278 34.9005246 192.082219 38.5520921 190.162591 42.2036596 192.082219 41.5062754 188.016278 44.4604587 185.136738 40.3779743 184.543341"></polygon>
                    <polygon id="Fill-43" fill="#000000" points="24.4212486 182.529671 23.143072 185.119308 20.285392 185.534666 22.3533203 187.550207 21.8650923 190.396464 24.4212486 189.052704 26.977405 190.396464 26.4891769 187.550207 28.5571053 185.534666 25.6994253 185.119308"></polygon>
                </g>
            </g>
        </g>
    </g>
</svg>