<?xml version="1.0" encoding="UTF-8"?>
<svg width="142px" height="242px" viewBox="0 0 142 242" version="1.1" xmlns="http://www.w3.org/2000/svg" xmlns:xlink="http://www.w3.org/1999/xlink">
    <!-- Generator: Sketch 57.1 (83088) - https://sketch.com -->
    <title>20$</title>
    <desc>Created with Sketch.</desc>
    <defs>
        <filter x="-38.9%" y="-19.8%" width="177.9%" height="139.5%" filterUnits="objectBoundingBox" id="filter-1">
            <feOffset dx="0" dy="2" in="SourceAlpha" result="shadowOffsetOuter1"></feOffset>
            <feGaussianBlur stdDeviation="9.5" in="shadowOffsetOuter1" result="shadowBlurOuter1"></feGaussianBlur>
            <feColorMatrix values="0 0 0 0 0.809669384   0 0 0 0 0.809669384   0 0 0 0 0.809669384  0 0 0 0.5 0" type="matrix" in="shadowBlurOuter1" result="shadowMatrixOuter1"></feColorMatrix>
            <feMerge>
                <feMergeNode in="shadowMatrixOuter1"></feMergeNode>
                <feMergeNode in="SourceGraphic"></feMergeNode>
            </feMerge>
        </filter>
        <polygon id="path-2" points="3.93891107e-05 0 103.790307 0 103.790307 204.429485 3.93891107e-05 204.429485"></polygon>
        <polygon id="path-4" points="0 0 82.9091544 0 82.9091544 66.9193025 0 66.9193025"></polygon>
    </defs>
    <g id="Page-1" stroke="none" stroke-width="1" fill="none" fill-rule="evenodd">
        <g id="Home-Copy-5" transform="translate(-606.000000, -957.000000)">
            <g id="20$" transform="translate(620.000000, 969.000000)">
                <g id="Group-2" transform="translate(40.568680, 139.015041)" fill="#000000">
                    <path d="M6.99885413,14.4349274 C7.31810288,14.1158756 7.48353714,13.5364618 7.48353714,12.7088966 L7.48353714,5.56824163 C7.48353714,5.16627576 7.37718654,4.8590407 7.1642884,4.65795929 C6.9515872,4.45707482 6.67960539,4.35052728 6.3605536,4.35052728 C5.71023938,4.35052728 5.2373731,4.61069235 4.9299411,5.14264229 L4.9299411,12.6970798 C4.9299411,13.1817628 5.10738904,13.5839257 5.47370777,13.9147942 C5.84022344,14.2458597 6.27763952,14.4112939 6.79777272,14.4112939 L6.99885413,14.4349274 Z M6.738886,3.19189659 C6.27763952,3.19189659 5.87567364,3.33389433 5.53298838,3.60587614 C5.18990923,3.87785795 4.97720803,4.22074016 4.89429395,4.63432582 C5.28464004,4.24437362 5.74568958,4.05510895 6.28945625,4.05510895 C6.70323886,4.05510895 7.04612107,4.18509301 7.31810288,4.44525809 C7.58988774,4.70522622 7.73188549,5.09537536 7.73188549,5.61570551 L7.73188549,12.7563604 C7.73188549,13.4537447 7.63715467,13.9858915 7.44808694,14.3522103 C7.79077221,14.2222262 8.06275402,14.009525 8.27545521,13.7139097 C8.48835336,13.4182945 8.5949009,13.0990457 8.5949009,12.7443468 L8.5949009,4.92974415 C8.5949009,4.44525809 8.41745296,4.03147548 8.05113423,3.68879022 C7.68442161,3.34571106 7.24720248,3.16846006 6.72687233,3.16846006 L6.738886,3.19189659 Z M1.11116681,8.73650475 C1.11116681,6.85685639 1.22953109,5.33171002 1.45424597,4.14944587 C1.6787639,2.96737865 2.13981344,2.03326589 2.83739459,1.33588169 C2.2697975,1.72622778 1.80874796,2.1988971 1.45424597,2.76649419 C1.09954703,3.33389433 0.839578895,3.97219487 0.673947684,4.69340949 C0.508513419,5.4146241 0.401965875,6.07675505 0.354698942,6.67960539 C0.307432009,7.28265268 0.283798543,7.99185362 0.283798543,8.79578537 C0.283798543,9.55245018 0.295615276,10.1791309 0.307432009,10.6874474 C0.319248742,11.1957639 0.378332408,11.8106279 0.472866274,12.5316456 C0.567597085,13.2528602 0.697581151,13.8438938 0.863212361,14.3165631 C1.02864663,14.7896263 1.26517824,15.2981398 1.5724133,15.8298928 C1.87984531,16.3620396 2.24616404,16.7758222 2.68377706,17.0830573 C3.12119313,17.3906863 3.66495981,17.6506544 4.32709076,17.8633556 C4.98902476,18.0762537 5.74568958,18.1826043 6.58487458,18.1826043 C7.45990368,18.1826043 8.25201869,18.0053533 8.97303636,17.6506544 C9.69444793,17.2959555 10.2263979,16.8351029 10.5808999,16.2675058 C9.70606771,17.0594238 8.45290316,17.4497699 6.82160314,17.4497699 C5.84022344,17.4497699 5.00084149,17.3077722 4.30326034,17.0239736 C3.60567919,16.740372 3.05009579,16.3620396 2.64812991,15.8891734 C2.24616404,15.4163071 1.92711224,14.7778096 1.70239736,13.9738779 C1.47787943,13.1699461 1.33588169,12.378028 1.27679802,11.5977298 C1.21771436,10.8174315 1.18226416,9.85988219 1.18226416,8.71287129 L1.11116681,8.73650475 Z M2.45137244e-13,8.76053211 C2.45137244e-13,7.75532201 0.0356471452,6.89250354 0.106547544,6.17128892 C0.177250998,5.4500743 0.342882209,4.66977602 0.614864018,3.84240775 C0.886648882,3.01464559 1.25316456,2.34089485 1.7142141,1.8205647 C2.17546058,1.30043149 2.83739459,0.863015415 3.70041,0.520133207 C4.56342542,0.177250998 5.58025531,4.26325641e-14 6.75050579,4.26325641e-14 C7.82641935,4.26325641e-14 8.74851843,0.20108141 9.50518325,0.603047285 C10.2616511,1.00501316 10.8528817,1.59624371 11.278481,2.38816178 C11.7040804,3.1802768 12.0115124,4.09055915 12.2005801,5.11900883 C12.3898448,6.14765545 12.4843786,7.3415394 12.4843786,8.71287129 C12.4843786,9.31591857 12.4843786,9.78878485 12.4725619,10.1316671 C12.4605482,10.4747462 12.4369148,10.9474155 12.4016615,11.5620826 C12.3662113,12.1769466 12.3189444,12.6736433 12.2596638,13.0519757 C12.2005801,13.4301112 12.1060462,13.8911607 11.9642454,14.4349274 C11.8222477,14.978891 11.6568134,15.4163071 11.4675487,15.7591893 C11.278481,16.1020715 11.0303296,16.4683902 10.7347143,16.8587363 C10.4390991,17.2486885 10.0964138,17.5561205 9.71808139,17.7806385 C9.33974898,18.0053533 8.89031923,18.1826043 8.35836929,18.3246021 C7.82641935,18.4664029 7.24720248,18.5373033 6.62052173,18.5373033 C5.73387284,18.5373033 4.94175783,18.4309527 4.25599341,18.2180545 C3.57042594,18.0053533 3.00282885,17.7333715 2.54177931,17.4023061 C2.08072977,17.0714375 1.69058063,16.6340214 1.35951516,16.0900578 C1.02864663,15.5462912 0.780298283,15.026158 0.614864018,14.5294613 C0.449232808,14.0329615 0.319248742,13.4182945 0.23653161,12.6852631 C0.153617532,11.9524287 0.0945338657,11.3139312 0.0709003993,10.7817843 C0.0472669328,10.2498344 0.0356471452,9.59971711 0.0356471452,8.83123556 L2.45137244e-13,8.76053211 Z" id="Fill-17"></path>
                    <path d="M21.3258554,11.4676669 C21.7278212,11.4676669 22.0825202,11.3140494 22.3899522,11.0184341 C22.6973842,10.7228188 22.8628185,10.3681199 22.8982687,9.95433728 C22.5790199,10.4035701 22.1297871,10.628088 21.5505702,10.628088 L19.1626054,10.628088 L19.1626054,11.4794836 L21.3258554,11.4676669 Z M19.1626054,3.70052817 L19.1626054,4.55152991 L22.4017689,4.55152991 C22.8037348,4.55152991 23.1584337,4.39810932 23.4656688,4.10249405 C23.7731008,3.80687877 23.938732,3.45217983 23.9739853,3.03820028 C23.6549335,3.48763003 23.2057007,3.71214796 22.6264838,3.71214796 L19.1626054,3.70052817 Z M16.7744436,0.662052173 C16.2186633,0.673868906 15.7339803,0.862936637 15.3083809,1.21763558 C14.8827816,1.57253147 14.6700804,2.02156733 14.6700804,2.57715073 L14.6700804,15.5818595 C14.6700804,16.3857913 14.8473314,17.0004583 15.2138471,17.4260577 C15.5803627,17.851657 16.0886792,18.0643582 16.7508102,18.0643582 C17.4245609,18.0643582 17.9683276,17.7689399 18.3823071,17.1658926 C18.0155945,17.3906075 17.6729092,17.4969581 17.3536605,17.4851414 C16.8571608,17.4851414 16.4313645,17.3076934 16.0768625,16.9531914 C15.7221635,16.5984925 15.5447156,16.1728931 15.5447156,15.6763934 L15.5447156,2.11629814 C15.5567293,1.40690026 15.9705119,0.910400516 16.7860634,0.638615652 L16.7744436,0.662052173 Z M16.7626269,18.383607 C16.0059621,18.383607 15.4147315,18.1472723 14.9891322,17.674406 C14.5635328,17.2013428 14.3508316,16.4921419 14.3508316,15.5582261 L14.3508316,2.55351727 C14.3508316,1.89158326 14.59918,1.34781659 15.0954828,0.922020303 C15.5921795,0.496617908 16.1713963,0.283719764 16.8333303,0.283719764 L22.4254024,0.283719764 C22.9929995,0.283719764 23.4656688,0.496617908 23.8440012,0.922020303 C24.2223336,1.34781659 24.4115983,1.84431633 24.4115983,2.41171647 C24.4115983,3.06203069 24.2343473,3.62943083 23.8912682,4.11411383 C23.5485829,4.59899379 23.0757166,4.84714518 22.4726693,4.84714518 L19.1862389,4.84714518 L19.1862389,7.19965982 L21.3615025,7.19965982 C21.9289027,7.19965982 22.4017689,7.41255796 22.7801013,7.83815731 C23.1584337,8.26375665 23.3476984,8.76045333 23.3476984,9.31583979 C23.3476984,9.96615401 23.1702505,10.5337511 22.8273683,11.0300539 C22.4844861,11.5267506 22.0116198,11.7750989 21.4087694,11.7750989 L19.1862389,11.7750989 L19.1862389,15.8890946 C19.1862389,16.5512255 18.961524,17.1306394 18.5002775,17.6269422 C18.0394249,18.1234419 17.4600111,18.3719872 16.7626269,18.3719872 L16.7626269,18.383607 Z" id="Fill-19"></path>
                    <path d="M32.8394894,11.4676669 C33.2414552,11.4676669 33.5961542,11.3140494 33.9035862,11.0184341 C34.2110182,10.7228188 34.3764525,10.3681199 34.4119027,9.95433728 C34.0926539,10.4035701 33.6434211,10.628088 33.0642043,10.628088 L30.6762394,10.628088 L30.6762394,11.4794836 L32.8394894,11.4676669 Z M30.6762394,3.70052817 L30.6762394,4.55152991 L33.9154029,4.55152991 C34.3173688,4.55152991 34.6720677,4.39810932 34.9793028,4.10249405 C35.2867348,3.80687877 35.452366,3.45217983 35.4876193,3.03820028 C35.1685675,3.48763003 34.7193347,3.71214796 34.1401178,3.71214796 L30.6762394,3.70052817 Z M28.2880776,0.662052173 C27.7322973,0.673868906 27.2476143,0.862936637 26.8220149,1.21763558 C26.3964156,1.57253147 26.1837144,2.02156733 26.1837144,2.57715073 L26.1837144,15.5818595 C26.1837144,16.3857913 26.3609654,17.0004583 26.7274811,17.4260577 C27.0939967,17.851657 27.6023132,18.0643582 28.2644442,18.0643582 C28.9381949,18.0643582 29.4819616,17.7689399 29.8959411,17.1658926 C29.5292285,17.3906075 29.1865432,17.4969581 28.8672945,17.4851414 C28.3707948,17.4851414 27.9449985,17.3076934 27.5904965,16.9531914 C27.2357975,16.5984925 27.0583496,16.1728931 27.0583496,15.6763934 L27.0583496,2.11629814 C27.0703633,1.40690026 27.4841459,0.910400516 28.2996974,0.638615652 L28.2880776,0.662052173 Z M28.2762609,18.383607 C27.5195961,18.383607 26.9283655,18.1472723 26.5027662,17.674406 C26.0771668,17.2013428 25.8644657,16.4921419 25.8644657,15.5582261 L25.8644657,2.55351727 C25.8644657,1.89158326 26.112814,1.34781659 26.6091168,0.922020303 C27.1058135,0.496617908 27.6850303,0.283719764 28.3469644,0.283719764 L33.9390364,0.283719764 C34.5066335,0.283719764 34.9793028,0.496617908 35.3576352,0.922020303 C35.7359676,1.34781659 35.9252323,1.84431633 35.9252323,2.41171647 C35.9252323,3.06203069 35.7479813,3.62943083 35.4049022,4.11411383 C35.0622169,4.59899379 34.5893506,4.84714518 33.9863033,4.84714518 L30.6998729,4.84714518 L30.6998729,7.19965982 L32.8751365,7.19965982 C33.4425367,7.19965982 33.9154029,7.41255796 34.2937353,7.83815731 C34.6720677,8.26375665 34.8613324,8.76045333 34.8613324,9.31583979 C34.8613324,9.96615401 34.6838845,10.5337511 34.3410023,11.0300539 C33.9981201,11.5267506 33.5252538,11.7750989 32.9224035,11.7750989 L30.6998729,11.7750989 L30.6998729,15.8890946 C30.6998729,16.5512255 30.475158,17.1306394 30.0139115,17.6269422 C29.5530589,18.1234419 28.9736451,18.3719872 28.2762609,18.3719872 L28.2762609,18.383607 Z" id="Fill-21"></path>
                </g>
                <g id="20%">
                    <polygon id="Fill-1" fill="#0A0A3F" points="82.9141174 3.93891107e-05 80.1568797 0.984767157 76.021023 5.12062378 88.9091401 5.12062378"></polygon>
                    <polygon id="Fill-2" fill="#0A0A3F" points="1.96943584 62.2348146 -1.96945554e-05 66.7645623 5.90834691 72.980164 8.86253021 68.9309634 9.45336687 61.2500868 6.10529246 59.0836857"></polygon>
                    <g id="Group-45">
                        <g id="Group-5" filter="url(#filter-1)" transform="translate(5.120584, 5.120584)">
                            <mask id="mask-3" fill="white">
                                <use xlink:href="#path-2"></use>
                            </mask>
                            <g id="Clip-4"></g>
                            <path d="M18.9580184,0 C8.48780191,0 3.93891107e-05,8.48776252 3.93891107e-05,18.957979 L3.93891107e-05,185.471506 C3.93891107e-05,195.941525 8.48780191,204.429485 18.9580184,204.429485 L84.8323671,204.429485 C95.3025836,204.429485 103.790346,195.941525 103.790346,185.471506 L103.790346,18.957979 C103.790346,8.48776252 95.3025836,0 84.8323671,0 L18.9580184,0 Z" id="Fill-3" fill="#FDFDFF" mask="url(#mask-3)"></path>
                        </g>
                        <g id="Group-8">
                            <mask id="mask-5" fill="white">
                                <use xlink:href="#path-4"></use>
                            </mask>
                            <g id="Clip-7"></g>
                            <polygon id="Fill-6" fill="#0900C3" mask="url(#mask-5)" points="0 40.2522837 0 66.7312195 0.152041967 66.9193025 82.9091544 0.0338352461 82.881779 -3.93891107e-05 49.8039855 -3.93891107e-05"></polygon>
                        </g>
                        <path d="M51.2786654,98.2580058 C52.1288794,96.0679713 52.5546757,93.9098419 52.5546757,91.782436 C52.5546757,89.9961399 52.2356239,88.2736541 51.5977172,86.6149786 C50.9598106,84.9563032 50.0026552,83.4788176 48.7268419,82.1811434 C47.4508316,80.8840599 45.8660108,79.8424149 43.9737579,79.0548296 C42.0809142,78.268426 39.9009239,77.8747319 37.4345747,77.8747319 C34.3293341,77.8747319 31.3519113,78.6942223 28.5028969,80.3308399 C25.6530947,81.9686391 23.2925053,84.573441 21.4213256,88.1460333 L29.9703382,92.8034018 C30.777618,91.2721501 31.7137002,90.1556658 32.7774032,89.4539488 C33.8399244,88.7520348 34.8608902,88.3803985 35.8397096,88.3374644 C35.9673303,88.295515 36.0947541,88.2736541 36.2225718,88.2736541 C37.0727857,88.2736541 37.8591893,88.4869461 38.5829642,88.9117576 C39.390441,89.3802911 39.9865952,90.0392709 40.3692604,90.8894849 C40.6245018,91.442705 40.7521225,92.0597354 40.7521225,92.7393945 C40.7521225,93.03757 40.7300646,93.3564249 40.6883122,93.6965499 C40.5177573,94.7600559 39.9227848,95.8657082 38.902016,97.0139008 L20.5281775,117.684321 L23.3990529,123.6177 L52.4908653,123.6177 L52.4908653,112.771908 L42.2831773,112.771908 L36.9879022,113.856488 L46.9405457,104.414524 C48.9820833,102.50041 50.4274667,100.449025 51.2786654,98.2580058" id="Fill-23" fill="#0900C3"></path>
                        <polygon id="Fill-35" fill="#000000" points="57.0157377 178.581917 59.5764238 183.770644 65.3026158 184.602542 61.1592752 188.641502 62.1373069 194.344454 57.0157377 191.651815 51.8941686 194.344454 52.8722002 188.641502 48.7288597 184.602542 54.4550517 183.770644"></polygon>
                        <polygon id="Fill-37" fill="#000000" points="75.4793834 180.843915 77.3052656 184.543341 81.38775 185.136738 78.4335667 188.016278 79.1309509 192.082219 75.4793834 190.162591 71.8278159 192.082219 72.5252001 188.016278 69.5710168 185.136738 73.6535012 184.543341"></polygon>
                        <polygon id="Fill-39" fill="#000000" points="89.6102268 182.529671 90.8882065 185.119308 93.7460835 185.534666 91.6781552 187.550207 92.1663832 190.396464 89.6102268 189.052704 87.0540705 190.396464 87.5422985 187.550207 85.4743702 185.534666 88.3322471 185.119308"></polygon>
                        <polygon id="Fill-41" fill="#000000" points="38.5520921 180.843915 36.7262099 184.543341 32.6437255 185.136738 35.5979088 188.016278 34.9005246 192.082219 38.5520921 190.162591 42.2036596 192.082219 41.5062754 188.016278 44.4604587 185.136738 40.3779743 184.543341"></polygon>
                        <polygon id="Fill-43" fill="#000000" points="24.4212486 182.529671 23.1432689 185.119308 20.285392 185.534666 22.3533203 187.550207 21.8650923 190.396464 24.4212486 189.052704 26.977405 190.396464 26.4891769 187.550207 28.5571053 185.534666 25.6992283 185.119308"></polygon>
                    </g>
                </g>
                <path d="M89.2,100.928 C89.2,104.028016 88.8900031,106.983319 88.27,109.794 C87.6499969,112.604681 86.6580068,115.074323 85.294,117.203 C83.9299932,119.331677 82.1630108,121.026327 79.993,122.287 C77.8229891,123.547673 75.1880155,124.178 72.088,124.178 C68.9879845,124.178 66.3426776,123.547673 64.152,122.287 C61.9613224,121.026327 60.1736736,119.331677 58.789,117.203 C57.4043264,115.074323 56.4020031,112.604681 55.782,109.794 C55.1619969,106.983319 54.852,104.028016 54.852,100.928 C54.852,97.8279845 55.1619969,94.883014 55.782,92.093 C56.4020031,89.3029861 57.4043264,86.8643438 58.789,84.777 C60.1736736,82.6896562 61.9613224,81.0260062 64.152,79.786 C66.3426776,78.5459938 68.9879845,77.926 72.088,77.926 C75.1880155,77.926 77.8229891,78.5459938 79.993,79.786 C82.1630108,81.0260062 83.9299932,82.6896562 85.294,84.777 C86.6580068,86.8643438 87.6499969,89.3029861 88.27,92.093 C88.8900031,94.883014 89.2,97.8279845 89.2,100.928 Z M78.536,100.928 C78.536,99.5639932 78.4533342,98.0553416 78.288,96.402 C78.1226658,94.7486584 77.8126689,93.2090071 77.358,91.783 C76.9033311,90.3569929 76.2523376,89.1583382 75.405,88.187 C74.5576624,87.2156618 73.4520068,86.73 72.088,86.73 C70.7239932,86.73 69.6080043,87.2156618 68.74,88.187 C67.8719957,89.1583382 67.2003357,90.3569929 66.725,91.783 C66.2496643,93.2090071 65.9293342,94.7486584 65.764,96.402 C65.5986658,98.0553416 65.516,99.5639932 65.516,100.928 C65.516,102.33334 65.5986658,103.872992 65.764,105.547 C65.9293342,107.221008 66.2496643,108.770993 66.725,110.197 C67.2003357,111.623007 67.8719957,112.821662 68.74,113.793 C69.6080043,114.764338 70.7239932,115.25 72.088,115.25 C73.4520068,115.25 74.5576624,114.764338 75.405,113.793 C76.2523376,112.821662 76.9033311,111.623007 77.358,110.197 C77.8126689,108.770993 78.1226658,107.221008 78.288,105.547 C78.4533342,103.872992 78.536,102.33334 78.536,100.928 Z" id="0" fill="#0900C3" fill-rule="nonzero"></path>
                <text id="$-copy" font-family="AvenirNext-Bold, Avenir Next" font-size="24" font-weight="bold" fill="#0900C3">
                    <tspan x="91" y="96">$</tspan>
                </text>
                <g id="Group-2" transform="translate(40.568680, 139.015041)" fill="#000000">
                    <path d="M6.99885413,14.4349274 C7.31810288,14.1158756 7.48353714,13.5364618 7.48353714,12.7088966 L7.48353714,5.56824163 C7.48353714,5.16627576 7.37718654,4.8590407 7.1642884,4.65795929 C6.9515872,4.45707482 6.67960539,4.35052728 6.3605536,4.35052728 C5.71023938,4.35052728 5.2373731,4.61069235 4.9299411,5.14264229 L4.9299411,12.6970798 C4.9299411,13.1817628 5.10738904,13.5839257 5.47370777,13.9147942 C5.84022344,14.2458597 6.27763952,14.4112939 6.79777272,14.4112939 L6.99885413,14.4349274 Z M6.738886,3.19189659 C6.27763952,3.19189659 5.87567364,3.33389433 5.53298838,3.60587614 C5.18990923,3.87785795 4.97720803,4.22074016 4.89429395,4.63432582 C5.28464004,4.24437362 5.74568958,4.05510895 6.28945625,4.05510895 C6.70323886,4.05510895 7.04612107,4.18509301 7.31810288,4.44525809 C7.58988774,4.70522622 7.73188549,5.09537536 7.73188549,5.61570551 L7.73188549,12.7563604 C7.73188549,13.4537447 7.63715467,13.9858915 7.44808694,14.3522103 C7.79077221,14.2222262 8.06275402,14.009525 8.27545521,13.7139097 C8.48835336,13.4182945 8.5949009,13.0990457 8.5949009,12.7443468 L8.5949009,4.92974415 C8.5949009,4.44525809 8.41745296,4.03147548 8.05113423,3.68879022 C7.68442161,3.34571106 7.24720248,3.16846006 6.72687233,3.16846006 L6.738886,3.19189659 Z M1.11116681,8.73650475 C1.11116681,6.85685639 1.22953109,5.33171002 1.45424597,4.14944587 C1.6787639,2.96737865 2.13981344,2.03326589 2.83739459,1.33588169 C2.2697975,1.72622778 1.80874796,2.1988971 1.45424597,2.76649419 C1.09954703,3.33389433 0.839578895,3.97219487 0.673947684,4.69340949 C0.508513419,5.4146241 0.401965875,6.07675505 0.354698942,6.67960539 C0.307432009,7.28265268 0.283798543,7.99185362 0.283798543,8.79578537 C0.283798543,9.55245018 0.295615276,10.1791309 0.307432009,10.6874474 C0.319248742,11.1957639 0.378332408,11.8106279 0.472866274,12.5316456 C0.567597085,13.2528602 0.697581151,13.8438938 0.863212361,14.3165631 C1.02864663,14.7896263 1.26517824,15.2981398 1.5724133,15.8298928 C1.87984531,16.3620396 2.24616404,16.7758222 2.68377706,17.0830573 C3.12119313,17.3906863 3.66495981,17.6506544 4.32709076,17.8633556 C4.98902476,18.0762537 5.74568958,18.1826043 6.58487458,18.1826043 C7.45990368,18.1826043 8.25201869,18.0053533 8.97303636,17.6506544 C9.69444793,17.2959555 10.2263979,16.8351029 10.5808999,16.2675058 C9.70606771,17.0594238 8.45290316,17.4497699 6.82160314,17.4497699 C5.84022344,17.4497699 5.00084149,17.3077722 4.30326034,17.0239736 C3.60567919,16.740372 3.05009579,16.3620396 2.64812991,15.8891734 C2.24616404,15.4163071 1.92711224,14.7778096 1.70239736,13.9738779 C1.47787943,13.1699461 1.33588169,12.378028 1.27679802,11.5977298 C1.21771436,10.8174315 1.18226416,9.85988219 1.18226416,8.71287129 L1.11116681,8.73650475 Z M2.45137244e-13,8.76053211 C2.45137244e-13,7.75532201 0.0356471452,6.89250354 0.106547544,6.17128892 C0.177250998,5.4500743 0.342882209,4.66977602 0.614864018,3.84240775 C0.886648882,3.01464559 1.25316456,2.34089485 1.7142141,1.8205647 C2.17546058,1.30043149 2.83739459,0.863015415 3.70041,0.520133207 C4.56342542,0.177250998 5.58025531,4.26325641e-14 6.75050579,4.26325641e-14 C7.82641935,4.26325641e-14 8.74851843,0.20108141 9.50518325,0.603047285 C10.2616511,1.00501316 10.8528817,1.59624371 11.278481,2.38816178 C11.7040804,3.1802768 12.0115124,4.09055915 12.2005801,5.11900883 C12.3898448,6.14765545 12.4843786,7.3415394 12.4843786,8.71287129 C12.4843786,9.31591857 12.4843786,9.78878485 12.4725619,10.1316671 C12.4605482,10.4747462 12.4369148,10.9474155 12.4016615,11.5620826 C12.3662113,12.1769466 12.3189444,12.6736433 12.2596638,13.0519757 C12.2005801,13.4301112 12.1060462,13.8911607 11.9642454,14.4349274 C11.8222477,14.978891 11.6568134,15.4163071 11.4675487,15.7591893 C11.278481,16.1020715 11.0303296,16.4683902 10.7347143,16.8587363 C10.4390991,17.2486885 10.0964138,17.5561205 9.71808139,17.7806385 C9.33974898,18.0053533 8.89031923,18.1826043 8.35836929,18.3246021 C7.82641935,18.4664029 7.24720248,18.5373033 6.62052173,18.5373033 C5.73387284,18.5373033 4.94175783,18.4309527 4.25599341,18.2180545 C3.57042594,18.0053533 3.00282885,17.7333715 2.54177931,17.4023061 C2.08072977,17.0714375 1.69058063,16.6340214 1.35951516,16.0900578 C1.02864663,15.5462912 0.780298283,15.026158 0.614864018,14.5294613 C0.449232808,14.0329615 0.319248742,13.4182945 0.23653161,12.6852631 C0.153617532,11.9524287 0.0945338657,11.3139312 0.0709003993,10.7817843 C0.0472669328,10.2498344 0.0356471452,9.59971711 0.0356471452,8.83123556 L2.45137244e-13,8.76053211 Z" id="Fill-17"></path>
                    <path d="M21.3258554,11.4676669 C21.7278212,11.4676669 22.0825202,11.3140494 22.3899522,11.0184341 C22.6973842,10.7228188 22.8628185,10.3681199 22.8982687,9.95433728 C22.5790199,10.4035701 22.1297871,10.628088 21.5505702,10.628088 L19.1626054,10.628088 L19.1626054,11.4794836 L21.3258554,11.4676669 Z M19.1626054,3.70052817 L19.1626054,4.55152991 L22.4017689,4.55152991 C22.8037348,4.55152991 23.1584337,4.39810932 23.4656688,4.10249405 C23.7731008,3.80687877 23.938732,3.45217983 23.9739853,3.03820028 C23.6549335,3.48763003 23.2057007,3.71214796 22.6264838,3.71214796 L19.1626054,3.70052817 Z M16.7744436,0.662052173 C16.2186633,0.673868906 15.7339803,0.862936637 15.3083809,1.21763558 C14.8827816,1.57253147 14.6700804,2.02156733 14.6700804,2.57715073 L14.6700804,15.5818595 C14.6700804,16.3857913 14.8473314,17.0004583 15.2138471,17.4260577 C15.5803627,17.851657 16.0886792,18.0643582 16.7508102,18.0643582 C17.4245609,18.0643582 17.9683276,17.7689399 18.3823071,17.1658926 C18.0155945,17.3906075 17.6729092,17.4969581 17.3536605,17.4851414 C16.8571608,17.4851414 16.4313645,17.3076934 16.0768625,16.9531914 C15.7221635,16.5984925 15.5447156,16.1728931 15.5447156,15.6763934 L15.5447156,2.11629814 C15.5567293,1.40690026 15.9705119,0.910400516 16.7860634,0.638615652 L16.7744436,0.662052173 Z M16.7626269,18.383607 C16.0059621,18.383607 15.4147315,18.1472723 14.9891322,17.674406 C14.5635328,17.2013428 14.3508316,16.4921419 14.3508316,15.5582261 L14.3508316,2.55351727 C14.3508316,1.89158326 14.59918,1.34781659 15.0954828,0.922020303 C15.5921795,0.496617908 16.1713963,0.283719764 16.8333303,0.283719764 L22.4254024,0.283719764 C22.9929995,0.283719764 23.4656688,0.496617908 23.8440012,0.922020303 C24.2223336,1.34781659 24.4115983,1.84431633 24.4115983,2.41171647 C24.4115983,3.06203069 24.2343473,3.62943083 23.8912682,4.11411383 C23.5485829,4.59899379 23.0757166,4.84714518 22.4726693,4.84714518 L19.1862389,4.84714518 L19.1862389,7.19965982 L21.3615025,7.19965982 C21.9289027,7.19965982 22.4017689,7.41255796 22.7801013,7.83815731 C23.1584337,8.26375665 23.3476984,8.76045333 23.3476984,9.31583979 C23.3476984,9.96615401 23.1702505,10.5337511 22.8273683,11.0300539 C22.4844861,11.5267506 22.0116198,11.7750989 21.4087694,11.7750989 L19.1862389,11.7750989 L19.1862389,15.8890946 C19.1862389,16.5512255 18.961524,17.1306394 18.5002775,17.6269422 C18.0394249,18.1234419 17.4600111,18.3719872 16.7626269,18.3719872 L16.7626269,18.383607 Z" id="Fill-19"></path>
                    <path d="M32.8394894,11.4676669 C33.2414552,11.4676669 33.5961542,11.3140494 33.9035862,11.0184341 C34.2110182,10.7228188 34.3764525,10.3681199 34.4119027,9.95433728 C34.0926539,10.4035701 33.6434211,10.628088 33.0642043,10.628088 L30.6762394,10.628088 L30.6762394,11.4794836 L32.8394894,11.4676669 Z M30.6762394,3.70052817 L30.6762394,4.55152991 L33.9154029,4.55152991 C34.3173688,4.55152991 34.6720677,4.39810932 34.9793028,4.10249405 C35.2867348,3.80687877 35.452366,3.45217983 35.4876193,3.03820028 C35.1685675,3.48763003 34.7193347,3.71214796 34.1401178,3.71214796 L30.6762394,3.70052817 Z M28.2880776,0.662052173 C27.7322973,0.673868906 27.2476143,0.862936637 26.8220149,1.21763558 C26.3964156,1.57253147 26.1837144,2.02156733 26.1837144,2.57715073 L26.1837144,15.5818595 C26.1837144,16.3857913 26.3609654,17.0004583 26.7274811,17.4260577 C27.0939967,17.851657 27.6023132,18.0643582 28.2644442,18.0643582 C28.9381949,18.0643582 29.4819616,17.7689399 29.8959411,17.1658926 C29.5292285,17.3906075 29.1865432,17.4969581 28.8672945,17.4851414 C28.3707948,17.4851414 27.9449985,17.3076934 27.5904965,16.9531914 C27.2357975,16.5984925 27.0583496,16.1728931 27.0583496,15.6763934 L27.0583496,2.11629814 C27.0703633,1.40690026 27.4841459,0.910400516 28.2996974,0.638615652 L28.2880776,0.662052173 Z M28.2762609,18.383607 C27.5195961,18.383607 26.9283655,18.1472723 26.5027662,17.674406 C26.0771668,17.2013428 25.8644657,16.4921419 25.8644657,15.5582261 L25.8644657,2.55351727 C25.8644657,1.89158326 26.112814,1.34781659 26.6091168,0.922020303 C27.1058135,0.496617908 27.6850303,0.283719764 28.3469644,0.283719764 L33.9390364,0.283719764 C34.5066335,0.283719764 34.9793028,0.496617908 35.3576352,0.922020303 C35.7359676,1.34781659 35.9252323,1.84431633 35.9252323,2.41171647 C35.9252323,3.06203069 35.7479813,3.62943083 35.4049022,4.11411383 C35.0622169,4.59899379 34.5893506,4.84714518 33.9863033,4.84714518 L30.6998729,4.84714518 L30.6998729,7.19965982 L32.8751365,7.19965982 C33.4425367,7.19965982 33.9154029,7.41255796 34.2937353,7.83815731 C34.6720677,8.26375665 34.8613324,8.76045333 34.8613324,9.31583979 C34.8613324,9.96615401 34.6838845,10.5337511 34.3410023,11.0300539 C33.9981201,11.5267506 33.5252538,11.7750989 32.9224035,11.7750989 L30.6998729,11.7750989 L30.6998729,15.8890946 C30.6998729,16.5512255 30.475158,17.1306394 30.0139115,17.6269422 C29.5530589,18.1234419 28.9736451,18.3719872 28.2762609,18.3719872 L28.2762609,18.383607 Z" id="Fill-21"></path>
                </g>
            </g>
        </g>
    </g>
</svg>