<?xml version="1.0" encoding="UTF-8"?>
<svg width="142px" height="242px" viewBox="0 0 142 242" version="1.1" xmlns="http://www.w3.org/2000/svg" xmlns:xlink="http://www.w3.org/1999/xlink">
    <!-- Generator: Sketch 57.1 (83088) - https://sketch.com -->
    <title>20%</title>
    <desc>Created with Sketch.</desc>
    <defs>
        <filter x="-38.7%" y="-19.8%" width="177.5%" height="139.7%" filterUnits="objectBoundingBox" id="filter-1">
            <feOffset dx="0" dy="2" in="SourceAlpha" result="shadowOffsetOuter1"></feOffset>
            <feGaussianBlur stdDeviation="9.5" in="shadowOffsetOuter1" result="shadowBlurOuter1"></feGaussianBlur>
            <feColorMatrix values="0 0 0 0 0.809669384   0 0 0 0 0.809669384   0 0 0 0 0.809669384  0 0 0 0.5 0" type="matrix" in="shadowBlurOuter1" result="shadowMatrixOuter1"></feColorMatrix>
            <feMerge>
                <feMergeNode in="shadowMatrixOuter1"></feMergeNode>
                <feMergeNode in="SourceGraphic"></feMergeNode>
            </feMerge>
        </filter>
        <polygon id="path-2" points="3.93891107e-05 0 103.790307 0 103.790307 204.429485 3.93891107e-05 204.429485"></polygon>
        <polygon id="path-4" points="0 0 82.9091544 0 82.9091544 66.9193025 0 66.9193025"></polygon>
    </defs>
    <g id="Page-1" stroke="none" stroke-width="1" fill="none" fill-rule="evenodd">
        <g id="Home-Copy-5" transform="translate(-606.000000, -957.000000)">
            <g id="20%" transform="translate(620.000000, 969.000000)">
                <polygon id="Fill-1" fill="#0A0A3F" points="82.9141174 3.93891107e-05 80.1568797 0.984767157 76.021023 5.12062378 88.9091401 5.12062378"></polygon>
                <polygon id="Fill-2" fill="#0A0A3F" points="1.96943584 62.2348146 -1.96945554e-05 66.7645623 5.90834691 72.980164 8.86253021 68.9309634 9.45336687 61.2500868 6.10529246 59.0836857"></polygon>
                <g id="Group-45">
                    <g id="Group-5" filter="url(#filter-1)" transform="translate(5.120584, 5.120584)">
                        <mask id="mask-3" fill="white">
                            <use xlink:href="#path-2"></use>
                        </mask>
                        <g id="Clip-4"></g>
                        <path d="M84.8323671,0 L18.9580184,0 C8.48780191,0 3.93891107e-05,8.48776252 3.93891107e-05,18.957979 L3.93891107e-05,185.471506 C3.93891107e-05,195.941525 8.48780191,204.429485 18.9580184,204.429485 L84.8323671,204.429485 C95.3025836,204.429485 103.790346,195.941525 103.790346,185.471506 L103.790346,18.957979 C103.790346,8.48776252 95.3025836,0 84.8323671,0" id="Fill-3" fill="#FDFDFF" mask="url(#mask-3)"></path>
                    </g>
                    <g id="Group-8">
                        <mask id="mask-5" fill="white">
                            <use xlink:href="#path-4"></use>
                        </mask>
                        <g id="Clip-7"></g>
                        <polygon id="Fill-6" fill="#0900C3" mask="url(#mask-5)" points="0 40.2522837 0 66.7312195 0.152041967 66.9193025 82.9091544 0.0338352461 82.881779 -3.93891107e-05 49.8039855 -3.93891107e-05"></polygon>
                    </g>
                    <path d="M27.456219,77.8256155 C27.456219,78.2462912 27.5649329,78.5944909 27.7825578,78.8698208 C28.0001826,79.1455446 28.2721644,79.3523374 28.5985032,79.4900023 C28.924842,79.6278642 29.2761929,79.6967952 29.6537375,79.6967952 C30.0306913,79.6967952 30.382436,79.6243192 30.7089718,79.4791703 C31.0353105,79.3342184 31.3106404,79.1274256 31.5357492,78.8589888 C31.7602671,78.5907489 31.8731169,78.2462912 31.8731169,77.8256155 L31.8731169,67.5775536 L35.8112402,67.5775536 L35.8112402,77.8256155 C35.8112402,78.7250658 35.6333984,79.5154083 35.2781086,80.1970369 C34.9224249,80.8790593 34.4546792,81.4448839 33.8746746,81.8941167 C33.294473,82.3439403 32.6380535,82.6811111 31.9056129,82.906023 C31.1729755,83.1307378 30.422416,83.2431937 29.6537375,83.2431937 C28.8846651,83.2431937 28.1307575,83.1307378 27.3908331,82.906023 C26.6511056,82.6811111 25.9946861,82.3439403 25.4217714,81.8941167 C24.8486599,81.4448839 24.3883981,80.8790593 24.0401984,80.1970369 C23.6921956,79.5154083 23.5180957,78.7250658 23.5180957,77.8256155 L23.5180957,67.5775536 L27.456219,67.5775536 L27.456219,77.8256155 Z" id="Fill-9" fill="#000000"></path>
                    <path d="M44.2746603,75.0187474 C44.666188,75.0187474 44.9927238,74.9244105 45.2538736,74.7359336 C45.5148264,74.5474567 45.7107872,74.3115159 45.8411652,74.0288991 C45.9717401,73.7458883 46.0369291,73.4412135 46.0369291,73.1148748 C46.0369291,72.788536 45.9717401,72.4838612 45.8411652,72.2010474 C45.7107872,71.9184305 45.5148264,71.6828836 45.2538736,71.4942098 C44.9927238,71.305536 44.666188,71.2110021 44.2746603,71.2110021 L42.0119528,71.2110021 L42.0119528,75.0187474 L44.2746603,75.0187474 Z M38.1171575,67.5775536 L44.2746603,67.5775536 C45.2174386,67.5775536 46.0404741,67.7335345 46.7441606,68.0452993 C47.4474531,68.3576549 48.0351387,68.7673017 48.5064294,69.2746334 C48.9777201,69.782556 49.3296618,70.3623637 49.5618606,71.0154352 C49.7936655,71.6679158 49.9098634,72.3353643 49.9098634,73.0169928 C49.9098634,73.6990153 49.7903174,74.3696149 49.5510286,75.0295794 C49.3115428,75.6897409 48.959798,76.2734875 48.4957943,76.7810162 C48.0311998,77.2889388 47.4474531,77.6985856 46.7441606,78.0103504 C46.0404741,78.3223121 45.2245287,78.4780961 44.2963243,78.4780961 L42.0119528,78.4780961 L42.0119528,82.9820439 L38.1171575,82.9820439 L38.1171575,67.5775536 Z" id="Fill-11" fill="#000000"></path>
                    <polygon id="Fill-13" fill="#000000" points="61.7028056 71.2546649 61.7028056 82.9819849 57.7646823 82.9819849 57.7646823 71.2546649 53.6741231 71.2546649 53.6741231 67.5560274 65.7933647 67.5560274 65.7933647 71.2546649"></polygon>
                    <path d="M70.7103862,77.9125472 C70.7103862,78.202845 70.7826652,78.4494208 70.9278141,78.6522747 C71.072766,78.8555225 71.2614399,79.0296224 71.4936387,79.1743774 C71.7254436,79.3197232 71.9940773,79.4246952 72.2985551,79.4900811 C72.6032299,79.5552701 72.9079047,79.5877661 73.2123825,79.5877661 C73.5170573,79.5877661 73.8179901,79.5517251 74.1153779,79.4790522 C74.4125687,79.4065762 74.6774605,79.3016042 74.9094623,79.1635454 C75.1414642,79.0258804 75.330138,78.8519775 75.4752869,78.6414427 C75.6202388,78.4313018 75.6929118,78.188271 75.6929118,77.9125472 L75.6929118,72.6472078 C75.6929118,72.34273 75.6202388,72.0815802 75.4752869,71.8639554 C75.330138,71.6463305 75.1379192,71.4686857 74.8988273,71.3308238 C74.6593415,71.1931588 74.3873597,71.0881868 74.0826849,71.015317 C73.7782071,70.942841 73.4660484,70.906603 73.1471935,70.906603 C72.8425188,70.906603 72.545131,70.942841 72.2552271,71.015317 C71.9647324,71.0881868 71.7037796,71.2002489 71.4717777,71.3524878 C71.2397758,71.5049236 71.054647,71.6896586 70.9169821,71.9074804 C70.7791202,72.1249082 70.7103862,72.371878 70.7103862,72.6472078 L70.7103862,77.9125472 Z M66.8157879,72.6472078 C66.8157879,71.7623315 66.9969778,70.9903049 67.3595545,70.3299465 C67.7219344,69.6699819 68.204451,69.1191252 68.8065135,68.6763916 C69.4083791,68.2338549 70.0904016,67.9039711 70.8517931,67.6863463 C71.6133816,67.4689184 72.3928921,67.3600075 73.1907185,67.3600075 C73.988348,67.3600075 74.7716005,67.4689184 75.5404759,67.6863463 C76.3093513,67.9039711 76.9909799,68.2338549 77.5857555,68.6763916 C78.180531,69.1191252 78.6628507,69.6699819 79.0327144,70.3299465 C79.4025782,70.9903049 79.5875101,71.7623315 79.5875101,72.6472078 L79.5875101,77.9125472 C79.5875101,78.7974236 79.4059263,79.5698441 79.0437434,80.2298086 C78.6807727,80.8899701 78.1984531,81.4410238 77.5967844,81.8831665 C76.9945249,82.3259001 76.3128964,82.6557839 75.5515048,82.8732118 C74.7899164,83.0908367 74.010012,83.1997476 73.2123825,83.1997476 C72.4145561,83.1997476 71.6313036,83.0908367 70.8626251,82.8732118 C70.0935527,82.6557839 69.4119242,82.3259001 68.8175425,81.8831665 C68.222373,81.4410238 67.7404472,80.8899701 67.3705835,80.2298086 C67.0007197,79.5698441 66.8157879,78.7974236 66.8157879,77.9125472 L66.8157879,72.6472078 Z" id="Fill-15" fill="#000000"></path>
                    <path d="M62.5675344,151.449969 C62.8867832,151.130917 63.0522174,150.551503 63.0522174,149.723938 L63.0522174,142.583283 C63.0522174,142.181317 62.9458668,141.874082 62.7329687,141.673001 C62.5202675,141.472116 62.2482857,141.365569 61.9292339,141.365569 C61.2789197,141.365569 60.8060534,141.625734 60.4986214,142.157684 L60.4986214,149.712121 C60.4986214,150.196804 60.6760693,150.598967 61.0423881,150.929835 C61.4089037,151.260901 61.8463198,151.426335 62.366453,151.426335 L62.5675344,151.449969 Z M62.3075663,140.206938 C61.8463198,140.206938 61.4443539,140.348936 61.1016687,140.620917 C60.7585895,140.892899 60.5458883,141.235781 60.4629742,141.649367 C60.8533203,141.259415 61.3143699,141.07015 61.8581365,141.07015 C62.2719191,141.07015 62.6148014,141.200134 62.8867832,141.460299 C63.158568,141.720267 63.3005658,142.110417 63.3005658,142.630747 L63.3005658,149.771402 C63.3005658,150.468786 63.205835,151.000933 63.0167672,151.367252 C63.3594525,151.237267 63.6314343,151.024566 63.8441355,150.728951 C64.0570336,150.433336 64.1635812,150.114087 64.1635812,149.759388 L64.1635812,141.944785 C64.1635812,141.460299 63.9861332,141.046517 63.6198145,140.703831 C63.2531019,140.360752 62.8158828,140.183501 62.2955526,140.183501 L62.3075663,140.206938 Z M56.6798471,145.751546 C56.6798471,143.871898 56.7982114,142.346751 57.0229263,141.164487 C57.2474442,139.98242 57.7084937,139.048307 58.4060749,138.350923 C57.8384778,138.741269 57.3774282,139.213938 57.0229263,139.781535 C56.6682273,140.348936 56.4082592,140.987236 56.242628,141.708451 C56.0771937,142.429665 55.9706462,143.091796 55.9233792,143.694647 C55.8761123,144.297694 55.8524788,145.006895 55.8524788,145.810827 C55.8524788,146.567491 55.8642956,147.194172 55.8761123,147.702489 C55.887929,148.210805 55.9470127,148.825669 56.0415466,149.546687 C56.1362774,150.267901 56.2662614,150.858935 56.4318926,151.331604 C56.5973269,151.804668 56.8338585,152.313181 57.1410936,152.844934 C57.4485256,153.377081 57.8148443,153.790864 58.2524573,154.098099 C58.6898734,154.405728 59.2336401,154.665696 59.895771,154.878397 C60.557705,155.091295 61.3143699,155.197646 62.1535549,155.197646 C63.028584,155.197646 63.820699,155.020395 64.5417166,154.665696 C65.2631282,154.310997 65.7950782,153.850144 66.1495801,153.282547 C65.274748,154.074465 64.0215834,154.464811 62.3902834,154.464811 C61.4089037,154.464811 60.5695218,154.322813 59.8719406,154.039015 C59.1743595,153.755413 58.6187761,153.377081 58.2168102,152.904215 C57.8148443,152.431348 57.4957925,151.792851 57.2710777,150.988919 C57.0465597,150.184987 56.904562,149.393069 56.8454783,148.612771 C56.7863946,147.832473 56.7509444,146.874923 56.7509444,145.727913 L56.6798471,145.751546 Z M55.5686803,145.775573 C55.5686803,144.770363 55.6043274,143.907545 55.6752278,143.18633 C55.7459313,142.465116 55.9115625,141.684817 56.1835443,140.857449 C56.4553292,140.029687 56.8218448,139.355936 57.2828944,138.835606 C57.7441409,138.315473 58.4060749,137.878057 59.2690903,137.535174 C60.1321057,137.192292 61.1489356,137.015041 62.3191861,137.015041 C63.3950996,137.015041 64.3171987,137.216123 65.0738635,137.618089 C65.8303314,138.020054 66.421562,138.611285 66.8471613,139.403203 C67.2727606,140.195318 67.5801926,141.1056 67.7692604,142.13405 C67.9585251,143.162697 68.0530589,144.356581 68.0530589,145.727913 C68.0530589,146.33096 68.0530589,146.803826 68.0412422,147.146708 C68.0292285,147.489787 68.005595,147.962457 67.9703418,148.577124 C67.9348916,149.191988 67.8876247,149.688685 67.828344,150.067017 C67.7692604,150.445152 67.6747265,150.906202 67.5329257,151.449969 C67.390928,151.993932 67.2254937,152.431348 67.036229,152.774231 C66.8471613,153.117113 66.5990099,153.483432 66.3033946,153.873778 C66.0077793,154.26373 65.6650941,154.571162 65.2867617,154.79568 C64.9084293,155.020395 64.4589995,155.197646 63.9270496,155.339643 C63.3950996,155.481444 62.8158828,155.552345 62.189202,155.552345 C61.3025531,155.552345 60.5104381,155.445994 59.8246737,155.233096 C59.1391062,155.020395 58.5715091,154.748413 58.1104596,154.417347 C57.6494101,154.086479 57.2592609,153.649063 56.9281954,153.105099 C56.5973269,152.561332 56.3489786,152.041199 56.1835443,151.544503 C56.0179131,151.048003 55.887929,150.433336 55.8052119,149.700304 C55.7222978,148.96747 55.6632142,148.328972 55.6395807,147.796826 C55.6159472,147.264876 55.6043274,146.614758 55.6043274,145.846277 L55.5686803,145.775573 Z" id="Fill-17" fill="#000000"></path>
                    <path d="M76.8945357,148.482708 C77.2965015,148.482708 77.6512005,148.329091 77.9586325,148.033475 C78.2660645,147.73786 78.4314988,147.383161 78.466949,146.969379 C78.1477002,147.418611 77.6984674,147.643129 77.1192505,147.643129 L74.7312857,147.643129 L74.7312857,148.494525 L76.8945357,148.482708 Z M74.7312857,140.715569 L74.7312857,141.566571 L77.9704492,141.566571 C78.3724151,141.566571 78.727114,141.413151 79.0343491,141.117535 C79.3417811,140.82192 79.5074123,140.467221 79.5426656,140.053242 C79.2236138,140.502671 78.774381,140.727189 78.1951641,140.727189 L74.7312857,140.715569 Z M72.3431239,137.677093 C71.7873436,137.68891 71.3026606,137.877978 70.8770612,138.232677 C70.4514619,138.587573 70.2387607,139.036609 70.2387607,139.592192 L70.2387607,152.596901 C70.2387607,153.400833 70.4160117,154.0155 70.7825273,154.441099 C71.149043,154.866698 71.6573595,155.079399 72.3194904,155.079399 C72.9932412,155.079399 73.5370079,154.783981 73.9509874,154.180934 C73.5842748,154.405649 73.2415895,154.511999 72.9223408,154.500183 C72.425841,154.500183 72.0000448,154.322735 71.6455428,153.968233 C71.2908438,153.613534 71.1133959,153.187934 71.1133959,152.691435 L71.1133959,139.131339 C71.1254096,138.421942 71.5391922,137.925442 72.3547437,137.653657 L72.3431239,137.677093 Z M72.3313072,155.398648 C71.5746424,155.398648 70.9834118,155.162314 70.5578125,154.689447 C70.1322131,154.216384 69.9195119,153.507183 69.9195119,152.573267 L69.9195119,139.568559 C69.9195119,138.906625 70.1678603,138.362858 70.6641631,137.937062 C71.1608598,137.511659 71.7400766,137.298761 72.4020106,137.298761 L77.9940827,137.298761 C78.5616798,137.298761 79.0343491,137.511659 79.4126815,137.937062 C79.7910139,138.362858 79.9802786,138.859358 79.9802786,139.426758 C79.9802786,140.077072 79.8030276,140.644472 79.4599484,141.129155 C79.1172632,141.614035 78.6443969,141.862186 78.0413496,141.862186 L74.7549192,141.862186 L74.7549192,144.214701 L76.9301828,144.214701 C77.4975829,144.214701 77.9704492,144.427599 78.3487816,144.853199 C78.727114,145.278798 78.9163787,145.775495 78.9163787,146.330881 C78.9163787,146.981195 78.7389308,147.548792 78.3960486,148.045095 C78.0531663,148.541792 77.5803001,148.79014 76.9774497,148.79014 L74.7549192,148.79014 L74.7549192,152.904136 C74.7549192,153.566267 74.5302043,154.145681 74.0689578,154.641983 C73.6081052,155.138483 73.0286914,155.387028 72.3313072,155.387028 L72.3313072,155.398648 Z" id="Fill-19" fill="#000000"></path>
                    <path d="M88.4081697,148.482708 C88.8101355,148.482708 89.1648345,148.329091 89.4722665,148.033475 C89.7796985,147.73786 89.9451328,147.383161 89.980583,146.969379 C89.6613342,147.418611 89.2121014,147.643129 88.6328845,147.643129 L86.2449197,147.643129 L86.2449197,148.494525 L88.4081697,148.482708 Z M86.2449197,140.715569 L86.2449197,141.566571 L89.4840832,141.566571 C89.8860491,141.566571 90.240748,141.413151 90.5479831,141.117535 C90.8554151,140.82192 91.0210463,140.467221 91.0562996,140.053242 C90.7372478,140.502671 90.288015,140.727189 89.7087981,140.727189 L86.2449197,140.715569 Z M83.8567579,137.677093 C83.3009776,137.68891 82.8162946,137.877978 82.3906952,138.232677 C81.9650959,138.587573 81.7523947,139.036609 81.7523947,139.592192 L81.7523947,152.596901 C81.7523947,153.400833 81.9296457,154.0155 82.2961614,154.441099 C82.662677,154.866698 83.1709935,155.079399 83.8331245,155.079399 C84.5068752,155.079399 85.0506419,154.783981 85.4646214,154.180934 C85.0979088,154.405649 84.7552235,154.511999 84.4359748,154.500183 C83.9394751,154.500183 83.5136788,154.322735 83.1591768,153.968233 C82.8044778,153.613534 82.6270299,153.187934 82.6270299,152.691435 L82.6270299,139.131339 C82.6390436,138.421942 83.0528262,137.925442 83.8683777,137.653657 L83.8567579,137.677093 Z M83.8449412,155.398648 C83.0882764,155.398648 82.4970458,155.162314 82.0714465,154.689447 C81.6458471,154.216384 81.4331459,153.507183 81.4331459,152.573267 L81.4331459,139.568559 C81.4331459,138.906625 81.6814943,138.362858 82.1777971,137.937062 C82.6744938,137.511659 83.2537106,137.298761 83.9156446,137.298761 L89.5077167,137.298761 C90.0753138,137.298761 90.5479831,137.511659 90.9263155,137.937062 C91.3046479,138.362858 91.4939126,138.859358 91.4939126,139.426758 C91.4939126,140.077072 91.3166616,140.644472 90.9735824,141.129155 C90.6308972,141.614035 90.1580309,141.862186 89.5549836,141.862186 L86.2685532,141.862186 L86.2685532,144.214701 L88.4438168,144.214701 C89.0112169,144.214701 89.4840832,144.427599 89.8624156,144.853199 C90.240748,145.278798 90.4300127,145.775495 90.4300127,146.330881 C90.4300127,146.981195 90.2525648,147.548792 89.9096826,148.045095 C89.5668004,148.541792 89.0939341,148.79014 88.4910837,148.79014 L86.2685532,148.79014 L86.2685532,152.904136 C86.2685532,153.566267 86.0438383,154.145681 85.5825918,154.641983 C85.1217392,155.138483 84.5423254,155.387028 83.8449412,155.387028 L83.8449412,155.398648 Z" id="Fill-21" fill="#000000"></path>
                    <path d="M52.2786654,107.258006 C53.1288794,105.067971 53.5546757,102.909842 53.5546757,100.782436 C53.5546757,98.9961399 53.2356239,97.2736541 52.5977172,95.6149786 C51.9598106,93.9563032 51.0026552,92.4788176 49.7268419,91.1811434 C48.4508316,89.8840599 46.8660108,88.8424149 44.9737579,88.0548296 C43.0809142,87.268426 40.9009239,86.8747319 38.4345747,86.8747319 C35.3293341,86.8747319 32.3519113,87.6942223 29.5028969,89.3308399 C26.6530947,90.9686391 24.2925053,93.573441 22.4213256,97.1460333 L30.9703382,101.803402 C31.777618,100.27215 32.7137002,99.1556658 33.7774032,98.4539488 C34.8399244,97.7520348 35.8608902,97.3803985 36.8397096,97.3374644 C36.9673303,97.295515 37.0947541,97.2736541 37.2225718,97.2736541 C38.0727857,97.2736541 38.8591893,97.4869461 39.5829642,97.9117576 C40.390441,98.3802911 40.9865952,99.0392709 41.3692604,99.8894849 C41.6245018,100.442705 41.7521225,101.059735 41.7521225,101.739394 C41.7521225,102.03757 41.7300646,102.356425 41.6883122,102.69655 C41.5177573,103.760056 40.9227848,104.865708 39.902016,106.013901 L21.5281775,126.684321 L24.3990529,132.6177 L53.4908653,132.6177 L53.4908653,121.771908 L43.2831773,121.771908 L37.9879022,122.856488 L47.9405457,113.414524 C49.9820833,111.50041 51.4274667,109.449025 52.2786654,107.258006" id="Fill-23" fill="#0900C3"></path>
                    <path d="M89.9185254,94.5303994 C88.939706,92.7868405 87.6747247,91.3513043 86.1227938,90.2241849 C84.5696811,89.0976563 82.8152901,88.2572897 80.8594238,87.7040696 C78.9025728,87.1518343 76.9677797,86.8747319 75.0536659,86.8747319 C73.1399459,86.8747319 71.2150001,87.1518343 69.280207,87.7040696 C67.3442322,88.2572897 65.5898412,89.0976563 64.0168371,90.2241849 C62.4428482,91.3513043 61.1670349,92.7868405 60.1890033,94.5303994 C59.2099869,96.2747462 58.7217589,98.3584302 58.7217589,100.782436 L58.7217589,119.475129 C58.7217589,121.857777 59.2099869,123.920191 60.1890033,125.663553 C61.1670349,127.407899 62.4428482,128.843632 64.0168371,129.969767 C65.5898412,131.09728 67.3442322,131.937647 69.280207,132.489882 C71.2150001,133.042118 73.1399459,133.31922 75.0536659,133.31922 C76.9677797,133.31922 78.9025728,133.042118 80.8594238,132.489882 C82.8152901,131.937647 84.5696811,131.09728 86.1227938,129.969767 C87.6747247,128.843632 88.939706,127.407899 89.9185254,125.663553 C90.896557,123.920191 91.3859667,121.857777 91.3859667,119.475129 L91.3859667,100.782436 C91.3859667,98.3584302 90.896557,96.2747462 89.9185254,94.5303994" id="Fill-25" fill="#0900C3"></path>
                    <path d="M82.7196337,116.038823 C82.7196337,115.357786 82.6241151,114.868376 82.4324871,114.570003 C82.2406621,114.271828 81.9852237,114.12274 81.665975,114.12274 C81.3467262,114.12274 81.0802589,114.271828 80.8677546,114.570003 C80.6546596,114.868376 80.548309,115.347348 80.548309,116.007115 C80.548309,116.68835 80.6546596,117.172442 80.8677546,117.459786 C81.0802589,117.747326 81.3467262,117.890702 81.665975,117.890702 C82.3684798,117.890702 82.7196337,117.273672 82.7196337,116.038823 M86.5196981,116.038823 C86.5196981,116.91208 86.3970011,117.699271 86.1523947,118.401973 C85.9075914,119.104281 85.57239,119.700632 85.1467907,120.190239 C84.7206005,120.679845 84.2152382,121.052269 83.629916,121.307905 C83.0442,121.563146 82.400188,121.690767 81.6978801,121.690767 C80.1859291,121.690767 79.0204053,121.206872 78.2013088,120.238096 C77.3816214,119.269518 76.9717777,117.848556 76.9717777,115.974816 C76.9717777,114.250755 77.4133296,112.888285 78.2970243,111.887605 C79.1801282,110.887122 80.3137468,110.386683 81.6978801,110.386683 C83.2515836,110.386683 84.4440889,110.876683 85.2742145,111.8557 C86.1047339,112.834913 86.5196981,114.229485 86.5196981,116.038823 M70.2657816,104.223666 C70.2657816,103.542628 70.1700661,103.053021 69.978438,102.754649 C69.78681,102.457064 69.5315686,102.307582 69.2121229,102.307582 C68.8928742,102.307582 68.6264068,102.457064 68.4139026,102.754649 C68.2008075,103.053021 68.0944569,103.53219 68.0944569,104.191564 C68.0944569,104.873192 68.2008075,105.357284 68.4139026,105.644628 C68.6264068,105.932168 68.8928742,106.075545 69.2121229,106.075545 C69.9146277,106.075545 70.2657816,105.458514 70.2657816,104.223666 M82.5366713,97.9279072 L83.9271069,98.854733 C84.6735305,99.3524144 84.8809142,100.358215 84.3918984,101.110547 L70.4518952,122.558903 C69.960516,123.314977 68.9503823,123.531814 68.1919449,123.043783 L66.8255367,122.164618 C66.0631604,121.674223 65.84396,120.657787 66.3367178,119.89679 L80.2528906,98.4005765 C80.7491934,97.6338675 81.7766584,97.4211663 82.5366713,97.9279072 M74.0658461,104.223666 C74.0658461,105.096528 73.943149,105.883917 73.6985426,106.586618 C73.4537393,107.289123 73.118341,107.885474 72.6925447,108.374884 C72.2665515,108.864688 71.7609922,109.237112 71.175867,109.492747 C70.5901509,109.747988 69.9465329,109.875609 69.2440281,109.875609 C67.7320771,109.875609 66.5665533,109.391714 65.7472598,108.422742 C64.9277693,107.454361 64.5179256,106.033398 64.5179256,104.159658 C64.5179256,102.435203 64.9594776,101.073325 65.8431723,100.07225 C66.7262761,99.0719639 67.8598947,98.5715253 69.2440281,98.5715253 C70.7977315,98.5715253 71.9902369,99.0613288 72.8203624,100.040542 C73.6506848,101.019755 74.0658461,102.414524 74.0658461,104.223666" id="Fill-27" fill="#FDFDFF"></path>
                    <path d="M19.4322239,29.5785634 L21.1625875,28.2355916 C21.4207831,28.035298 21.7987216,28.1383005 21.9196462,28.4415967 L26.4363955,39.7677385 L24.1500546,41.542218 L21.1872057,39.5160421 L19.1112026,37.5521011 L19.0698441,37.5840062 L20.4189211,40.0901384 L21.7536211,43.4019748 L19.4672802,45.1764543 L9.60385297,38.000743 C9.33955204,37.8083272 9.33344673,37.4162086 9.59183929,37.215718 L11.3340197,35.8636868 C11.5122554,35.7252341 11.7619823,35.7262188 11.9392333,35.8660502 L16.4179722,39.3992534 L18.2694573,41.2729934 L18.3381913,41.2194242 L16.9796609,38.9856677 L15.416701,34.7253415 L17.2898501,33.2714894 L20.9569763,35.920801 L22.8559254,37.7135964 L22.8972839,37.6814943 L21.5905502,35.429028 L19.28353,30.1634917 C19.1933289,29.9574866 19.254579,29.7164253 19.4322239,29.5785634" id="Fill-29" fill="#FFFFFF"></path>
                    <path d="M29.5652892,32.1971318 C29.7078778,32.380882 29.8746907,32.5016096 30.0665157,32.5587238 C30.2581437,32.6162319 30.4629671,32.63376 30.6809858,32.6113083 C30.8990045,32.5890534 31.1207652,32.5236675 31.345677,32.4153474 C31.5705889,32.3072243 31.7793512,32.178028 31.9723578,32.0285464 C32.1649705,31.8788677 32.3378887,31.7085098 32.4905215,31.516291 C32.6429574,31.3242691 32.7589583,31.1275205 32.8381304,30.9262421 C32.9173026,30.7249637 32.9509803,30.5221098 32.9397544,30.3176803 C32.9281346,30.1134478 32.8544769,29.9237892 32.7193723,29.7492955 L30.1324924,26.4161889 C29.9828138,26.2235762 29.808517,26.093986 29.6099959,26.0274184 C29.4112778,25.9610478 29.2021216,25.9429288 28.9829212,25.9730614 C28.7639178,26.003588 28.5399907,26.0707464 28.3115338,26.1743398 C28.083077,26.2779331 27.8678155,26.4083111 27.6657494,26.5650798 C27.4731366,26.7147584 27.3025818,26.8837377 27.1546757,27.0722146 C27.0065726,27.2608884 26.89648,27.4601973 26.824398,27.6705352 C26.7523159,27.8812669 26.7261221,28.0890445 26.7460136,28.2944587 C26.7653143,28.4998729 26.8431078,28.6895314 26.9784094,28.8642222 L29.5652892,32.1971318 Z M24.5132419,30.7775482 C24.0785831,30.2174351 23.8134944,29.6397937 23.7189605,29.0436396 C23.6242297,28.4476823 23.6588921,27.8615723 23.8223569,27.2859005 C23.9860187,26.7104256 24.2554402,26.166265 24.6306215,25.6544035 C25.0059997,25.142542 25.445976,24.6907489 25.9509444,24.2988273 C26.4561098,23.9067087 27.005194,23.591005 27.5989848,23.3509283 C28.1921848,23.1108517 28.7859757,22.9850035 29.3799635,22.9725959 C29.9737543,22.9607792 30.5498201,23.0726443 31.1083577,23.308782 C31.6666983,23.5447228 32.163198,23.9427497 32.5978569,24.5030598 L35.1847367,27.8359694 C35.6193956,28.3960826 35.8840904,28.9745117 35.9786242,29.570075 C36.073552,30.1662292 36.0386926,30.7519453 35.8752278,31.3276171 C35.7115661,31.9036829 35.4421446,32.4472526 35.0669633,32.959311 C34.6915851,33.4711725 34.2516087,33.9229656 33.7464433,34.3146903 C33.2414749,34.706612 32.6921938,35.0229066 32.0987968,35.2625893 C31.5052029,35.5026659 30.911609,35.628908 30.3176213,35.6407248 C29.7238304,35.6531323 29.1479616,35.5410703 28.589424,35.3049326 C28.0312803,35.0689918 27.5345836,34.6709649 27.0999248,34.1106548 L24.5132419,30.7775482 Z" id="Fill-31" fill="#FFFFFF"></path>
                    <path d="M40.9949654,12.8437649 L42.182744,11.9218627 C42.6120853,11.5888278 43.2411294,11.7599735 43.4424077,12.264745 L47.7984495,23.188527 L45.5121086,24.9630065 L42.5494566,22.9368306 L40.4734535,20.9728895 L40.431898,21.0049917 L41.781172,23.5109269 L43.1156751,26.8227633 L40.8293341,28.5974397 L31.316667,21.676773 C30.8768875,21.3567364 30.8666464,20.7042558 31.2963816,20.370827 L32.4945983,19.4408501 C32.7911983,19.2108177 33.2065565,19.2123932 33.501384,19.4449859 L37.7800261,22.8200419 L39.6315113,24.6939788 L39.7002453,24.6404096 L38.3417149,22.4064562 L36.7787549,18.14613 L38.6521011,16.6922779 L42.3192273,19.3417865 L44.2179793,21.1343849 L44.2593379,21.1022828 L42.9528011,18.8500134 L40.7476017,13.8168729 C40.5973323,13.4741876 40.6993501,13.0732065 40.9949654,12.8437649" id="Fill-33" fill="#FFFFFF"></path>
                    <polygon id="Fill-35" fill="#000000" points="57.0157377 178.581917 59.5764238 183.770644 65.3026158 184.602542 61.1592752 188.641502 62.1373069 194.344454 57.0157377 191.651815 51.8941686 194.344454 52.8722002 188.641502 48.7288597 184.602542 54.4550517 183.770644"></polygon>
                    <polygon id="Fill-37" fill="#000000" points="75.4793834 180.843915 77.3052656 184.543341 81.38775 185.136738 78.4335667 188.016278 79.1309509 192.082219 75.4793834 190.162591 71.8278159 192.082219 72.5252001 188.016278 69.5710168 185.136738 73.6535012 184.543341"></polygon>
                    <polygon id="Fill-39" fill="#000000" points="89.6102268 182.529671 90.8882065 185.119308 93.7460835 185.534666 91.6781552 187.550207 92.1663832 190.396464 89.6102268 189.052704 87.0540705 190.396464 87.5422985 187.550207 85.4743702 185.534666 88.3322471 185.119308"></polygon>
                    <polygon id="Fill-41" fill="#000000" points="38.5520921 180.843915 36.7262099 184.543341 32.6437255 185.136738 35.5979088 188.016278 34.9005246 192.082219 38.5520921 190.162591 42.2036596 192.082219 41.5062754 188.016278 44.4604587 185.136738 40.3779743 184.543341"></polygon>
                    <polygon id="Fill-43" fill="#000000" points="24.4212486 182.529671 23.1432689 185.119308 20.285392 185.534666 22.3533203 187.550207 21.8650923 190.396464 24.4212486 189.052704 26.977405 190.396464 26.4891769 187.550207 28.5571053 185.534666 25.6992283 185.119308"></polygon>
                </g>
            </g>
        </g>
    </g>
</svg>