<?xml version="1.0" encoding="UTF-8"?>
<svg width="148px" height="250px" viewBox="0 0 148 250" version="1.1" xmlns="http://www.w3.org/2000/svg" xmlns:xlink="http://www.w3.org/1999/xlink">
    <!-- Generator: Sketch 57.1 (83088) - https://sketch.com -->
    <title>30$</title>
    <desc>Created with Sketch.</desc>
    <defs>
        <filter x="-36.8%" y="-19.1%" width="174.5%" height="138.7%" filterUnits="objectBoundingBox" id="filter-1">
            <feOffset dx="0" dy="2" in="SourceAlpha" result="shadowOffsetOuter1"></feOffset>
            <feGaussianBlur stdDeviation="9.5" in="shadowOffsetOuter1" result="shadowBlurOuter1"></feGaussianBlur>
            <feColorMatrix values="0 0 0 0 0.809669384   0 0 0 0 0.809669384   0 0 0 0 0.809669384  0 0 0 0.5 0" type="matrix" in="shadowBlurOuter1" result="shadowMatrixOuter1"></feColorMatrix>
            <feMerge>
                <feMergeNode in="shadowMatrixOuter1"></feMergeNode>
                <feMergeNode in="SourceGraphic"></feMergeNode>
            </feMerge>
        </filter>
        <polygon id="path-2" points="3.97830018e-05 0 104.82821 0 104.82821 206.473779 3.97830018e-05 206.473779"></polygon>
        <polygon id="path-4" points="0 0 83.7382459 0 83.7382459 67.5884955 0 67.5884955"></polygon>
    </defs>
    <g id="Page-1" stroke="none" stroke-width="1" fill="none" fill-rule="evenodd">
        <g id="Home-Copy-5" transform="translate(-827.000000, -950.000000)">
            <g id="30$" transform="translate(846.000000, 967.000000)">
                <g id="30%">
                    <polygon id="Fill-1" fill="#38091A" points="83.7432586 3.97830018e-05 80.9584485 0.994614828 76.7812333 5.17183002 89.7982315 5.17183002"></polygon>
                    <polygon id="Fill-2" fill="#38091A" points="1.9891302 62.8571627 -1.98915009e-05 67.432208 5.96743038 73.7099656 8.95115552 69.6202731 9.54790054 61.8625877 6.16634539 59.6745226"></polygon>
                    <g id="Group-45" filter="url(#filter-1)">
                        <g id="Group-5" transform="translate(5.171790, 5.171790)">
                            <mask id="mask-3" fill="white">
                                <use xlink:href="#path-2"></use>
                            </mask>
                            <g id="Clip-4"></g>
                            <path d="M85.6806908,0 L19.1475986,0 C8.57267993,0 3.97830018e-05,8.57264014 3.97830018e-05,19.1475588 L3.97830018e-05,187.326221 C3.97830018e-05,197.90094 8.57267993,206.473779 19.1475986,206.473779 L85.6806908,206.473779 C96.2556094,206.473779 104.82825,197.90094 104.82825,187.326221 L104.82825,19.1475588 C104.82825,8.57264014 96.2556094,0 85.6806908,0" id="Fill-3" fill="#FDFDFF" mask="url(#mask-3)"></path>
                        </g>
                        <g id="Group-8">
                            <mask id="mask-5" fill="white">
                                <use xlink:href="#path-4"></use>
                            </mask>
                            <g id="Clip-7"></g>
                            <polygon id="Fill-6" fill="#25C7D6" mask="url(#mask-5)" points="0 40.6548065 0 67.3985316 0.153562387 67.5884955 83.7382459 0.0341735986 83.7105967 -3.97830018e-05 50.3020253 -3.97830018e-05"></polygon>
                        </g>
                        <path d="M47.2538391,106.837215 C46.7595353,105.870886 46.1261899,104.958861 45.3528083,104.098752 C44.5798246,103.240036 43.6130976,102.510018 42.4532242,101.908101 C43.6130976,101.178083 44.5151772,100.25472 45.1596618,99.1372152 C45.8039476,98.0209042 46.2550868,96.8397468 46.5126817,95.5933454 C46.6415787,94.8201627 46.7060271,94.0692586 46.7060271,93.3382459 C46.7060271,92.7802893 46.6626637,92.2215371 46.5773291,91.6629837 C46.4048698,90.3318445 46.1041103,89.1075226 45.6750506,87.9900181 C45.0729349,86.4868174 44.2786673,85.219132 43.2908553,84.1883544 C42.3022477,83.157179 41.2070217,82.3306872 40.0047794,81.7074864 C38.8017414,81.0852803 37.5127722,80.6442857 36.1386673,80.3864919 C34.7633689,80.128698 33.3677812,80 31.9503128,80 C29.3727722,80 26.805575,80.655425 24.2501139,81.9652803 C21.6940561,83.2761302 19.4709819,85.090434 17.5812893,87.4101808 L24.2825371,93.3382459 C24.9691917,92.5224955 25.8177631,91.8670705 26.8276546,91.3729656 C27.8365515,90.8794575 28.8353038,90.5894394 29.8239114,90.5029114 L30.4681971,90.5029114 C31.2415787,90.5029114 31.9715967,90.6107233 32.659047,90.8251537 C33.5611266,91.126311 34.2700597,91.6848644 34.7854485,92.5004159 C35.0854123,92.9736347 35.2576727,93.5313924 35.3010362,94.175877 C35.3432061,94.8201627 35.2467324,95.4322242 35.0110181,96.0120615 C34.7745081,96.5920976 34.4089024,97.0864014 33.9155931,97.4941772 C33.4212893,97.9029476 32.8092278,98.1062387 32.0792098,98.1062387 L25.2490651,98.1062387 L25.2490651,107.320778 L32.3370036,107.320778 C33.9689024,107.320778 35.2043635,107.761573 36.0419946,108.641374 C36.8796257,109.522369 37.2985407,110.542405 37.2985407,111.702278 C37.2985407,112.94868 36.7286492,113.915208 35.5908553,114.601863 C34.4522658,115.289313 33.1101863,115.632839 31.5636221,115.632839 C30.1883237,115.632839 28.8353038,115.332875 27.5043635,114.730759 C26.1724286,114.129638 25.0770036,113.141826 24.2180886,111.766727 L16.7434593,118.66132 C17.6023743,120.078788 18.6011266,121.314051 19.739915,122.366311 C20.8775099,123.419367 22.1127722,124.278282 23.444906,124.943653 C24.7758463,125.610217 26.1724286,126.103526 27.6330615,126.425967 C29.0928987,126.748011 30.5539295,126.908933 32.0147613,126.908933 C34.1190832,126.908933 36.1599512,126.57575 38.1361718,125.91038 C40.1115967,125.24481 41.873387,124.299367 43.4199512,123.075045 C44.9663165,121.850922 46.2117233,120.358861 47.1571664,118.596872 C48.1016148,116.835877 48.5748336,114.838373 48.5748336,112.604358 C48.5748336,111.702278 48.477962,110.75783 48.2848156,109.769222 C48.0914702,108.78141 47.7469494,107.803942 47.2538391,106.837215" id="Fill-23" fill="#25C7D6"></path>
                        <path d="M82.950085,116.602467 C82.950085,115.914618 82.8536112,115.420315 82.6600669,115.118958 C82.4663237,114.817801 82.2083309,114.667222 81.8858897,114.667222 C81.5634485,114.667222 81.2943165,114.817801 81.0796872,115.118958 C80.8644611,115.420315 80.757047,115.904076 80.757047,116.570441 C80.757047,117.258488 80.8644611,117.747421 81.0796872,118.037638 C81.2943165,118.328054 81.5634485,118.472864 81.8858897,118.472864 C82.5954195,118.472864 82.950085,117.849664 82.950085,116.602467 M86.7881501,116.602467 C86.7881501,117.484456 86.664226,118.279519 86.4171736,118.989248 C86.1699222,119.698579 85.8313689,120.300893 85.4015136,120.795396 C84.9710615,121.289899 84.4606456,121.666047 83.8694702,121.924239 C83.2778969,122.182033 82.6274448,122.310929 81.9181139,122.310929 C80.3910434,122.310929 79.2138644,121.822195 78.3865769,120.843732 C77.5586926,119.865468 77.1447505,118.430297 77.1447505,116.537819 C77.1447505,114.796517 77.5907179,113.420423 78.4832495,112.409736 C79.3751844,111.399248 80.5201392,110.893805 81.9181139,110.893805 C83.4873544,110.893805 84.6917848,111.388705 85.5302116,112.377512 C86.3690362,113.366517 86.7881501,114.775034 86.7881501,116.602467 M70.3716944,104.669157 C70.3716944,103.981309 70.2750217,103.486807 70.0814774,103.18545 C69.8879331,102.88489 69.6301392,102.733913 69.3074991,102.733913 C68.9850579,102.733913 68.7159259,102.88489 68.5012966,103.18545 C68.2860705,103.486807 68.1786564,103.970767 68.1786564,104.636734 C68.1786564,105.325179 68.2860705,105.814112 68.5012966,106.104329 C68.7159259,106.394745 68.9850579,106.539555 69.3074991,106.539555 C70.0170289,106.539555 70.3716944,105.916354 70.3716944,104.669157 M82.7652929,98.3104412 L84.1696329,99.2465353 C84.9235208,99.7491935 85.1329783,100.765052 84.6390723,101.524908 L70.5596691,123.187747 C70.0633761,123.951382 69.043141,124.170387 68.2771193,123.677476 L66.897047,122.789519 C66.127047,122.294221 65.9056546,121.26762 66.40334,120.499013 L80.4586745,98.7878373 C80.9599403,98.0134611 81.9976799,97.7986329 82.7652929,98.3104412 M74.2097595,104.669157 C74.2097595,105.550749 74.0858354,106.346011 73.838783,107.05574 C73.5915316,107.765269 73.2527794,108.367584 72.8227251,108.861888 C72.392472,109.35659 71.8818571,109.732738 71.2908807,109.990929 C70.6993074,110.248723 70.0492532,110.37762 69.3397233,110.37762 C67.8126528,110.37762 66.6354738,109.888886 65.8079873,108.910224 C64.980302,107.932159 64.5663599,106.496987 64.5663599,104.60451 C64.5663599,102.86281 65.0123273,101.487313 65.904859,100.476228 C66.7967939,99.4659385 67.9417486,98.9604955 69.3397233,98.9604955 C70.9089638,98.9604955 72.1133942,99.4551971 72.951821,100.444203 C73.7904467,101.433208 74.2097595,102.841924 74.2097595,104.669157" id="Fill-27" fill="#FDFDFF"></path>
                        <polygon id="Fill-35" fill="#000000" points="57.5858951 180.367736 60.1721881 185.608351 65.955642 186.448568 61.770868 190.527917 62.7586799 196.287899 57.5858951 193.568333 52.4131103 196.287899 53.4009222 190.527917 49.2161483 186.448568 54.9996022 185.608351"></polygon>
                        <polygon id="Fill-37" fill="#000000" points="76.2341772 182.652354 78.0783183 186.388774 82.2016275 186.988105 79.2179024 189.896441 79.9222604 194.003042 76.2341772 192.064217 72.546094 194.003042 73.2504521 189.896441 70.2667269 186.988105 74.3900362 186.388774"></polygon>
                        <polygon id="Fill-39" fill="#000000" points="90.5063291 184.354967 91.7970886 186.970501 94.6835443 187.390013 92.5949367 189.425709 93.088047 192.300429 90.5063291 190.943231 87.9246112 192.300429 88.4177215 189.425709 86.3291139 187.390013 89.2155696 186.970501"></polygon>
                        <polygon id="Fill-41" fill="#000000" points="38.937613 182.652354 37.093472 186.388774 32.9701627 186.988105 35.9538879 189.896441 35.2495298 194.003042 38.937613 192.064217 42.6256962 194.003042 41.9213382 189.896441 44.9050633 186.988105 40.7817541 186.388774"></polygon>
                        <polygon id="Fill-43" fill="#000000" points="24.6654611 184.354967 23.3747016 186.970501 20.4882459 187.390013 22.5768535 189.425709 22.0837432 192.300429 24.6654611 190.943231 27.247179 192.300429 26.7540687 189.425709 28.8426763 187.390013 25.9562206 186.970501"></polygon>
                    </g>
                </g>
                <text id="0" font-family="AvenirNext-Bold, Avenir Next" font-size="62" font-weight="bold" fill="#25C7D6">
                    <tspan x="50" y="125">0</tspan>
                </text>
                <path d="M87.2,102.928 C87.2,106.028016 86.8900031,108.983319 86.27,111.794 C85.6499969,114.604681 84.6580068,117.074323 83.294,119.203 C81.9299932,121.331677 80.1630108,123.026327 77.993,124.287 C75.8229891,125.547673 73.1880155,126.178 70.088,126.178 C66.9879845,126.178 64.3426776,125.547673 62.152,124.287 C59.9613224,123.026327 58.1736736,121.331677 56.789,119.203 C55.4043264,117.074323 54.4020031,114.604681 53.782,111.794 C53.1619969,108.983319 52.852,106.028016 52.852,102.928 C52.852,99.8279845 53.1619969,96.883014 53.782,94.093 C54.4020031,91.3029861 55.4043264,88.8643438 56.789,86.777 C58.1736736,84.6896562 59.9613224,83.0260062 62.152,81.786 C64.3426776,80.5459938 66.9879845,79.926 70.088,79.926 C73.1880155,79.926 75.8229891,80.5459938 77.993,81.786 C80.1630108,83.0260062 81.9299932,84.6896562 83.294,86.777 C84.6580068,88.8643438 85.6499969,91.3029861 86.27,94.093 C86.8900031,96.883014 87.2,99.8279845 87.2,102.928 Z M76.536,102.928 C76.536,101.563993 76.4533342,100.055342 76.288,98.402 C76.1226658,96.7486584 75.8126689,95.2090071 75.358,93.783 C74.9033311,92.3569929 74.2523376,91.1583382 73.405,90.187 C72.5576624,89.2156618 71.4520068,88.73 70.088,88.73 C68.7239932,88.73 67.6080043,89.2156618 66.74,90.187 C65.8719957,91.1583382 65.2003357,92.3569929 64.725,93.783 C64.2496643,95.2090071 63.9293342,96.7486584 63.764,98.402 C63.5986658,100.055342 63.516,101.563993 63.516,102.928 C63.516,104.33334 63.5986658,105.872992 63.764,107.547 C63.9293342,109.221008 64.2496643,110.770993 64.725,112.197 C65.2003357,113.623007 65.8719957,114.821662 66.74,115.793 C67.6080043,116.764338 68.7239932,117.25 70.088,117.25 C71.4520068,117.25 72.5576624,116.764338 73.405,115.793 C74.2523376,114.821662 74.9033311,113.623007 75.358,112.197 C75.8126689,110.770993 76.1226658,109.221008 76.288,107.547 C76.4533342,105.872992 76.536,104.33334 76.536,102.928 Z" id="0" fill="#25C7D6" fill-rule="nonzero"></path>
                <text id="$-copy-2" font-family="AvenirNext-Bold, Avenir Next" font-size="24" font-weight="bold" fill="#25C7D6">
                    <tspan x="88" y="98">$</tspan>
                </text>
                <g id="Group-2" transform="translate(39.568680, 141.015041)" fill="#000000">
                    <path d="M6.99885413,14.4349274 C7.31810288,14.1158756 7.48353714,13.5364618 7.48353714,12.7088966 L7.48353714,5.56824163 C7.48353714,5.16627576 7.37718654,4.8590407 7.1642884,4.65795929 C6.9515872,4.45707482 6.67960539,4.35052728 6.3605536,4.35052728 C5.71023938,4.35052728 5.2373731,4.61069235 4.9299411,5.14264229 L4.9299411,12.6970798 C4.9299411,13.1817628 5.10738904,13.5839257 5.47370777,13.9147942 C5.84022344,14.2458597 6.27763952,14.4112939 6.79777272,14.4112939 L6.99885413,14.4349274 Z M6.738886,3.19189659 C6.27763952,3.19189659 5.87567364,3.33389433 5.53298838,3.60587614 C5.18990923,3.87785795 4.97720803,4.22074016 4.89429395,4.63432582 C5.28464004,4.24437362 5.74568958,4.05510895 6.28945625,4.05510895 C6.70323886,4.05510895 7.04612107,4.18509301 7.31810288,4.44525809 C7.58988774,4.70522622 7.73188549,5.09537536 7.73188549,5.61570551 L7.73188549,12.7563604 C7.73188549,13.4537447 7.63715467,13.9858915 7.44808694,14.3522103 C7.79077221,14.2222262 8.06275402,14.009525 8.27545521,13.7139097 C8.48835336,13.4182945 8.5949009,13.0990457 8.5949009,12.7443468 L8.5949009,4.92974415 C8.5949009,4.44525809 8.41745296,4.03147548 8.05113423,3.68879022 C7.68442161,3.34571106 7.24720248,3.16846006 6.72687233,3.16846006 L6.738886,3.19189659 Z M1.11116681,8.73650475 C1.11116681,6.85685639 1.22953109,5.33171002 1.45424597,4.14944587 C1.6787639,2.96737865 2.13981344,2.03326589 2.83739459,1.33588169 C2.2697975,1.72622778 1.80874796,2.1988971 1.45424597,2.76649419 C1.09954703,3.33389433 0.839578895,3.97219487 0.673947684,4.69340949 C0.508513419,5.4146241 0.401965875,6.07675505 0.354698942,6.67960539 C0.307432009,7.28265268 0.283798543,7.99185362 0.283798543,8.79578537 C0.283798543,9.55245018 0.295615276,10.1791309 0.307432009,10.6874474 C0.319248742,11.1957639 0.378332408,11.8106279 0.472866274,12.5316456 C0.567597085,13.2528602 0.697581151,13.8438938 0.863212361,14.3165631 C1.02864663,14.7896263 1.26517824,15.2981398 1.5724133,15.8298928 C1.87984531,16.3620396 2.24616404,16.7758222 2.68377706,17.0830573 C3.12119313,17.3906863 3.66495981,17.6506544 4.32709076,17.8633556 C4.98902476,18.0762537 5.74568958,18.1826043 6.58487458,18.1826043 C7.45990368,18.1826043 8.25201869,18.0053533 8.97303636,17.6506544 C9.69444793,17.2959555 10.2263979,16.8351029 10.5808999,16.2675058 C9.70606771,17.0594238 8.45290316,17.4497699 6.82160314,17.4497699 C5.84022344,17.4497699 5.00084149,17.3077722 4.30326034,17.0239736 C3.60567919,16.740372 3.05009579,16.3620396 2.64812991,15.8891734 C2.24616404,15.4163071 1.92711224,14.7778096 1.70239736,13.9738779 C1.47787943,13.1699461 1.33588169,12.378028 1.27679802,11.5977298 C1.21771436,10.8174315 1.18226416,9.85988219 1.18226416,8.71287129 L1.11116681,8.73650475 Z M2.45137244e-13,8.76053211 C2.45137244e-13,7.75532201 0.0356471452,6.89250354 0.106547544,6.17128892 C0.177250998,5.4500743 0.342882209,4.66977602 0.614864018,3.84240775 C0.886648882,3.01464559 1.25316456,2.34089485 1.7142141,1.8205647 C2.17546058,1.30043149 2.83739459,0.863015415 3.70041,0.520133207 C4.56342542,0.177250998 5.58025531,4.26325641e-14 6.75050579,4.26325641e-14 C7.82641935,4.26325641e-14 8.74851843,0.20108141 9.50518325,0.603047285 C10.2616511,1.00501316 10.8528817,1.59624371 11.278481,2.38816178 C11.7040804,3.1802768 12.0115124,4.09055915 12.2005801,5.11900883 C12.3898448,6.14765545 12.4843786,7.3415394 12.4843786,8.71287129 C12.4843786,9.31591857 12.4843786,9.78878485 12.4725619,10.1316671 C12.4605482,10.4747462 12.4369148,10.9474155 12.4016615,11.5620826 C12.3662113,12.1769466 12.3189444,12.6736433 12.2596638,13.0519757 C12.2005801,13.4301112 12.1060462,13.8911607 11.9642454,14.4349274 C11.8222477,14.978891 11.6568134,15.4163071 11.4675487,15.7591893 C11.278481,16.1020715 11.0303296,16.4683902 10.7347143,16.8587363 C10.4390991,17.2486885 10.0964138,17.5561205 9.71808139,17.7806385 C9.33974898,18.0053533 8.89031923,18.1826043 8.35836929,18.3246021 C7.82641935,18.4664029 7.24720248,18.5373033 6.62052173,18.5373033 C5.73387284,18.5373033 4.94175783,18.4309527 4.25599341,18.2180545 C3.57042594,18.0053533 3.00282885,17.7333715 2.54177931,17.4023061 C2.08072977,17.0714375 1.69058063,16.6340214 1.35951516,16.0900578 C1.02864663,15.5462912 0.780298283,15.026158 0.614864018,14.5294613 C0.449232808,14.0329615 0.319248742,13.4182945 0.23653161,12.6852631 C0.153617532,11.9524287 0.0945338657,11.3139312 0.0709003993,10.7817843 C0.0472669328,10.2498344 0.0356471452,9.59971711 0.0356471452,8.83123556 L2.45137244e-13,8.76053211 Z" id="Fill-17"></path>
                    <path d="M21.3258554,11.4676669 C21.7278212,11.4676669 22.0825202,11.3140494 22.3899522,11.0184341 C22.6973842,10.7228188 22.8628185,10.3681199 22.8982687,9.95433728 C22.5790199,10.4035701 22.1297871,10.628088 21.5505702,10.628088 L19.1626054,10.628088 L19.1626054,11.4794836 L21.3258554,11.4676669 Z M19.1626054,3.70052817 L19.1626054,4.55152991 L22.4017689,4.55152991 C22.8037348,4.55152991 23.1584337,4.39810932 23.4656688,4.10249405 C23.7731008,3.80687877 23.938732,3.45217983 23.9739853,3.03820028 C23.6549335,3.48763003 23.2057007,3.71214796 22.6264838,3.71214796 L19.1626054,3.70052817 Z M16.7744436,0.662052173 C16.2186633,0.673868906 15.7339803,0.862936637 15.3083809,1.21763558 C14.8827816,1.57253147 14.6700804,2.02156733 14.6700804,2.57715073 L14.6700804,15.5818595 C14.6700804,16.3857913 14.8473314,17.0004583 15.2138471,17.4260577 C15.5803627,17.851657 16.0886792,18.0643582 16.7508102,18.0643582 C17.4245609,18.0643582 17.9683276,17.7689399 18.3823071,17.1658926 C18.0155945,17.3906075 17.6729092,17.4969581 17.3536605,17.4851414 C16.8571608,17.4851414 16.4313645,17.3076934 16.0768625,16.9531914 C15.7221635,16.5984925 15.5447156,16.1728931 15.5447156,15.6763934 L15.5447156,2.11629814 C15.5567293,1.40690026 15.9705119,0.910400516 16.7860634,0.638615652 L16.7744436,0.662052173 Z M16.7626269,18.383607 C16.0059621,18.383607 15.4147315,18.1472723 14.9891322,17.674406 C14.5635328,17.2013428 14.3508316,16.4921419 14.3508316,15.5582261 L14.3508316,2.55351727 C14.3508316,1.89158326 14.59918,1.34781659 15.0954828,0.922020303 C15.5921795,0.496617908 16.1713963,0.283719764 16.8333303,0.283719764 L22.4254024,0.283719764 C22.9929995,0.283719764 23.4656688,0.496617908 23.8440012,0.922020303 C24.2223336,1.34781659 24.4115983,1.84431633 24.4115983,2.41171647 C24.4115983,3.06203069 24.2343473,3.62943083 23.8912682,4.11411383 C23.5485829,4.59899379 23.0757166,4.84714518 22.4726693,4.84714518 L19.1862389,4.84714518 L19.1862389,7.19965982 L21.3615025,7.19965982 C21.9289027,7.19965982 22.4017689,7.41255796 22.7801013,7.83815731 C23.1584337,8.26375665 23.3476984,8.76045333 23.3476984,9.31583979 C23.3476984,9.96615401 23.1702505,10.5337511 22.8273683,11.0300539 C22.4844861,11.5267506 22.0116198,11.7750989 21.4087694,11.7750989 L19.1862389,11.7750989 L19.1862389,15.8890946 C19.1862389,16.5512255 18.961524,17.1306394 18.5002775,17.6269422 C18.0394249,18.1234419 17.4600111,18.3719872 16.7626269,18.3719872 L16.7626269,18.383607 Z" id="Fill-19"></path>
                    <path d="M32.8394894,11.4676669 C33.2414552,11.4676669 33.5961542,11.3140494 33.9035862,11.0184341 C34.2110182,10.7228188 34.3764525,10.3681199 34.4119027,9.95433728 C34.0926539,10.4035701 33.6434211,10.628088 33.0642043,10.628088 L30.6762394,10.628088 L30.6762394,11.4794836 L32.8394894,11.4676669 Z M30.6762394,3.70052817 L30.6762394,4.55152991 L33.9154029,4.55152991 C34.3173688,4.55152991 34.6720677,4.39810932 34.9793028,4.10249405 C35.2867348,3.80687877 35.452366,3.45217983 35.4876193,3.03820028 C35.1685675,3.48763003 34.7193347,3.71214796 34.1401178,3.71214796 L30.6762394,3.70052817 Z M28.2880776,0.662052173 C27.7322973,0.673868906 27.2476143,0.862936637 26.8220149,1.21763558 C26.3964156,1.57253147 26.1837144,2.02156733 26.1837144,2.57715073 L26.1837144,15.5818595 C26.1837144,16.3857913 26.3609654,17.0004583 26.7274811,17.4260577 C27.0939967,17.851657 27.6023132,18.0643582 28.2644442,18.0643582 C28.9381949,18.0643582 29.4819616,17.7689399 29.8959411,17.1658926 C29.5292285,17.3906075 29.1865432,17.4969581 28.8672945,17.4851414 C28.3707948,17.4851414 27.9449985,17.3076934 27.5904965,16.9531914 C27.2357975,16.5984925 27.0583496,16.1728931 27.0583496,15.6763934 L27.0583496,2.11629814 C27.0703633,1.40690026 27.4841459,0.910400516 28.2996974,0.638615652 L28.2880776,0.662052173 Z M28.2762609,18.383607 C27.5195961,18.383607 26.9283655,18.1472723 26.5027662,17.674406 C26.0771668,17.2013428 25.8644657,16.4921419 25.8644657,15.5582261 L25.8644657,2.55351727 C25.8644657,1.89158326 26.112814,1.34781659 26.6091168,0.922020303 C27.1058135,0.496617908 27.6850303,0.283719764 28.3469644,0.283719764 L33.9390364,0.283719764 C34.5066335,0.283719764 34.9793028,0.496617908 35.3576352,0.922020303 C35.7359676,1.34781659 35.9252323,1.84431633 35.9252323,2.41171647 C35.9252323,3.06203069 35.7479813,3.62943083 35.4049022,4.11411383 C35.0622169,4.59899379 34.5893506,4.84714518 33.9863033,4.84714518 L30.6998729,4.84714518 L30.6998729,7.19965982 L32.8751365,7.19965982 C33.4425367,7.19965982 33.9154029,7.41255796 34.2937353,7.83815731 C34.6720677,8.26375665 34.8613324,8.76045333 34.8613324,9.31583979 C34.8613324,9.96615401 34.6838845,10.5337511 34.3410023,11.0300539 C33.9981201,11.5267506 33.5252538,11.7750989 32.9224035,11.7750989 L30.6998729,11.7750989 L30.6998729,15.8890946 C30.6998729,16.5512255 30.475158,17.1306394 30.0139115,17.6269422 C29.5530589,18.1234419 28.9736451,18.3719872 28.2762609,18.3719872 L28.2762609,18.383607 Z" id="Fill-21"></path>
                </g>
                <g id="Group-2" transform="translate(39.568680, 141.015041)" fill="#000000">
                    <path d="M6.99885413,14.4349274 C7.31810288,14.1158756 7.48353714,13.5364618 7.48353714,12.7088966 L7.48353714,5.56824163 C7.48353714,5.16627576 7.37718654,4.8590407 7.1642884,4.65795929 C6.9515872,4.45707482 6.67960539,4.35052728 6.3605536,4.35052728 C5.71023938,4.35052728 5.2373731,4.61069235 4.9299411,5.14264229 L4.9299411,12.6970798 C4.9299411,13.1817628 5.10738904,13.5839257 5.47370777,13.9147942 C5.84022344,14.2458597 6.27763952,14.4112939 6.79777272,14.4112939 L6.99885413,14.4349274 Z M6.738886,3.19189659 C6.27763952,3.19189659 5.87567364,3.33389433 5.53298838,3.60587614 C5.18990923,3.87785795 4.97720803,4.22074016 4.89429395,4.63432582 C5.28464004,4.24437362 5.74568958,4.05510895 6.28945625,4.05510895 C6.70323886,4.05510895 7.04612107,4.18509301 7.31810288,4.44525809 C7.58988774,4.70522622 7.73188549,5.09537536 7.73188549,5.61570551 L7.73188549,12.7563604 C7.73188549,13.4537447 7.63715467,13.9858915 7.44808694,14.3522103 C7.79077221,14.2222262 8.06275402,14.009525 8.27545521,13.7139097 C8.48835336,13.4182945 8.5949009,13.0990457 8.5949009,12.7443468 L8.5949009,4.92974415 C8.5949009,4.44525809 8.41745296,4.03147548 8.05113423,3.68879022 C7.68442161,3.34571106 7.24720248,3.16846006 6.72687233,3.16846006 L6.738886,3.19189659 Z M1.11116681,8.73650475 C1.11116681,6.85685639 1.22953109,5.33171002 1.45424597,4.14944587 C1.6787639,2.96737865 2.13981344,2.03326589 2.83739459,1.33588169 C2.2697975,1.72622778 1.80874796,2.1988971 1.45424597,2.76649419 C1.09954703,3.33389433 0.839578895,3.97219487 0.673947684,4.69340949 C0.508513419,5.4146241 0.401965875,6.07675505 0.354698942,6.67960539 C0.307432009,7.28265268 0.283798543,7.99185362 0.283798543,8.79578537 C0.283798543,9.55245018 0.295615276,10.1791309 0.307432009,10.6874474 C0.319248742,11.1957639 0.378332408,11.8106279 0.472866274,12.5316456 C0.567597085,13.2528602 0.697581151,13.8438938 0.863212361,14.3165631 C1.02864663,14.7896263 1.26517824,15.2981398 1.5724133,15.8298928 C1.87984531,16.3620396 2.24616404,16.7758222 2.68377706,17.0830573 C3.12119313,17.3906863 3.66495981,17.6506544 4.32709076,17.8633556 C4.98902476,18.0762537 5.74568958,18.1826043 6.58487458,18.1826043 C7.45990368,18.1826043 8.25201869,18.0053533 8.97303636,17.6506544 C9.69444793,17.2959555 10.2263979,16.8351029 10.5808999,16.2675058 C9.70606771,17.0594238 8.45290316,17.4497699 6.82160314,17.4497699 C5.84022344,17.4497699 5.00084149,17.3077722 4.30326034,17.0239736 C3.60567919,16.740372 3.05009579,16.3620396 2.64812991,15.8891734 C2.24616404,15.4163071 1.92711224,14.7778096 1.70239736,13.9738779 C1.47787943,13.1699461 1.33588169,12.378028 1.27679802,11.5977298 C1.21771436,10.8174315 1.18226416,9.85988219 1.18226416,8.71287129 L1.11116681,8.73650475 Z M2.45137244e-13,8.76053211 C2.45137244e-13,7.75532201 0.0356471452,6.89250354 0.106547544,6.17128892 C0.177250998,5.4500743 0.342882209,4.66977602 0.614864018,3.84240775 C0.886648882,3.01464559 1.25316456,2.34089485 1.7142141,1.8205647 C2.17546058,1.30043149 2.83739459,0.863015415 3.70041,0.520133207 C4.56342542,0.177250998 5.58025531,4.26325641e-14 6.75050579,4.26325641e-14 C7.82641935,4.26325641e-14 8.74851843,0.20108141 9.50518325,0.603047285 C10.2616511,1.00501316 10.8528817,1.59624371 11.278481,2.38816178 C11.7040804,3.1802768 12.0115124,4.09055915 12.2005801,5.11900883 C12.3898448,6.14765545 12.4843786,7.3415394 12.4843786,8.71287129 C12.4843786,9.31591857 12.4843786,9.78878485 12.4725619,10.1316671 C12.4605482,10.4747462 12.4369148,10.9474155 12.4016615,11.5620826 C12.3662113,12.1769466 12.3189444,12.6736433 12.2596638,13.0519757 C12.2005801,13.4301112 12.1060462,13.8911607 11.9642454,14.4349274 C11.8222477,14.978891 11.6568134,15.4163071 11.4675487,15.7591893 C11.278481,16.1020715 11.0303296,16.4683902 10.7347143,16.8587363 C10.4390991,17.2486885 10.0964138,17.5561205 9.71808139,17.7806385 C9.33974898,18.0053533 8.89031923,18.1826043 8.35836929,18.3246021 C7.82641935,18.4664029 7.24720248,18.5373033 6.62052173,18.5373033 C5.73387284,18.5373033 4.94175783,18.4309527 4.25599341,18.2180545 C3.57042594,18.0053533 3.00282885,17.7333715 2.54177931,17.4023061 C2.08072977,17.0714375 1.69058063,16.6340214 1.35951516,16.0900578 C1.02864663,15.5462912 0.780298283,15.026158 0.614864018,14.5294613 C0.449232808,14.0329615 0.319248742,13.4182945 0.23653161,12.6852631 C0.153617532,11.9524287 0.0945338657,11.3139312 0.0709003993,10.7817843 C0.0472669328,10.2498344 0.0356471452,9.59971711 0.0356471452,8.83123556 L2.45137244e-13,8.76053211 Z" id="Fill-17"></path>
                    <path d="M21.3258554,11.4676669 C21.7278212,11.4676669 22.0825202,11.3140494 22.3899522,11.0184341 C22.6973842,10.7228188 22.8628185,10.3681199 22.8982687,9.95433728 C22.5790199,10.4035701 22.1297871,10.628088 21.5505702,10.628088 L19.1626054,10.628088 L19.1626054,11.4794836 L21.3258554,11.4676669 Z M19.1626054,3.70052817 L19.1626054,4.55152991 L22.4017689,4.55152991 C22.8037348,4.55152991 23.1584337,4.39810932 23.4656688,4.10249405 C23.7731008,3.80687877 23.938732,3.45217983 23.9739853,3.03820028 C23.6549335,3.48763003 23.2057007,3.71214796 22.6264838,3.71214796 L19.1626054,3.70052817 Z M16.7744436,0.662052173 C16.2186633,0.673868906 15.7339803,0.862936637 15.3083809,1.21763558 C14.8827816,1.57253147 14.6700804,2.02156733 14.6700804,2.57715073 L14.6700804,15.5818595 C14.6700804,16.3857913 14.8473314,17.0004583 15.2138471,17.4260577 C15.5803627,17.851657 16.0886792,18.0643582 16.7508102,18.0643582 C17.4245609,18.0643582 17.9683276,17.7689399 18.3823071,17.1658926 C18.0155945,17.3906075 17.6729092,17.4969581 17.3536605,17.4851414 C16.8571608,17.4851414 16.4313645,17.3076934 16.0768625,16.9531914 C15.7221635,16.5984925 15.5447156,16.1728931 15.5447156,15.6763934 L15.5447156,2.11629814 C15.5567293,1.40690026 15.9705119,0.910400516 16.7860634,0.638615652 L16.7744436,0.662052173 Z M16.7626269,18.383607 C16.0059621,18.383607 15.4147315,18.1472723 14.9891322,17.674406 C14.5635328,17.2013428 14.3508316,16.4921419 14.3508316,15.5582261 L14.3508316,2.55351727 C14.3508316,1.89158326 14.59918,1.34781659 15.0954828,0.922020303 C15.5921795,0.496617908 16.1713963,0.283719764 16.8333303,0.283719764 L22.4254024,0.283719764 C22.9929995,0.283719764 23.4656688,0.496617908 23.8440012,0.922020303 C24.2223336,1.34781659 24.4115983,1.84431633 24.4115983,2.41171647 C24.4115983,3.06203069 24.2343473,3.62943083 23.8912682,4.11411383 C23.5485829,4.59899379 23.0757166,4.84714518 22.4726693,4.84714518 L19.1862389,4.84714518 L19.1862389,7.19965982 L21.3615025,7.19965982 C21.9289027,7.19965982 22.4017689,7.41255796 22.7801013,7.83815731 C23.1584337,8.26375665 23.3476984,8.76045333 23.3476984,9.31583979 C23.3476984,9.96615401 23.1702505,10.5337511 22.8273683,11.0300539 C22.4844861,11.5267506 22.0116198,11.7750989 21.4087694,11.7750989 L19.1862389,11.7750989 L19.1862389,15.8890946 C19.1862389,16.5512255 18.961524,17.1306394 18.5002775,17.6269422 C18.0394249,18.1234419 17.4600111,18.3719872 16.7626269,18.3719872 L16.7626269,18.383607 Z" id="Fill-19"></path>
                    <path d="M32.8394894,11.4676669 C33.2414552,11.4676669 33.5961542,11.3140494 33.9035862,11.0184341 C34.2110182,10.7228188 34.3764525,10.3681199 34.4119027,9.95433728 C34.0926539,10.4035701 33.6434211,10.628088 33.0642043,10.628088 L30.6762394,10.628088 L30.6762394,11.4794836 L32.8394894,11.4676669 Z M30.6762394,3.70052817 L30.6762394,4.55152991 L33.9154029,4.55152991 C34.3173688,4.55152991 34.6720677,4.39810932 34.9793028,4.10249405 C35.2867348,3.80687877 35.452366,3.45217983 35.4876193,3.03820028 C35.1685675,3.48763003 34.7193347,3.71214796 34.1401178,3.71214796 L30.6762394,3.70052817 Z M28.2880776,0.662052173 C27.7322973,0.673868906 27.2476143,0.862936637 26.8220149,1.21763558 C26.3964156,1.57253147 26.1837144,2.02156733 26.1837144,2.57715073 L26.1837144,15.5818595 C26.1837144,16.3857913 26.3609654,17.0004583 26.7274811,17.4260577 C27.0939967,17.851657 27.6023132,18.0643582 28.2644442,18.0643582 C28.9381949,18.0643582 29.4819616,17.7689399 29.8959411,17.1658926 C29.5292285,17.3906075 29.1865432,17.4969581 28.8672945,17.4851414 C28.3707948,17.4851414 27.9449985,17.3076934 27.5904965,16.9531914 C27.2357975,16.5984925 27.0583496,16.1728931 27.0583496,15.6763934 L27.0583496,2.11629814 C27.0703633,1.40690026 27.4841459,0.910400516 28.2996974,0.638615652 L28.2880776,0.662052173 Z M28.2762609,18.383607 C27.5195961,18.383607 26.9283655,18.1472723 26.5027662,17.674406 C26.0771668,17.2013428 25.8644657,16.4921419 25.8644657,15.5582261 L25.8644657,2.55351727 C25.8644657,1.89158326 26.112814,1.34781659 26.6091168,0.922020303 C27.1058135,0.496617908 27.6850303,0.283719764 28.3469644,0.283719764 L33.9390364,0.283719764 C34.5066335,0.283719764 34.9793028,0.496617908 35.3576352,0.922020303 C35.7359676,1.34781659 35.9252323,1.84431633 35.9252323,2.41171647 C35.9252323,3.06203069 35.7479813,3.62943083 35.4049022,4.11411383 C35.0622169,4.59899379 34.5893506,4.84714518 33.9863033,4.84714518 L30.6998729,4.84714518 L30.6998729,7.19965982 L32.8751365,7.19965982 C33.4425367,7.19965982 33.9154029,7.41255796 34.2937353,7.83815731 C34.6720677,8.26375665 34.8613324,8.76045333 34.8613324,9.31583979 C34.8613324,9.96615401 34.6838845,10.5337511 34.3410023,11.0300539 C33.9981201,11.5267506 33.5252538,11.7750989 32.9224035,11.7750989 L30.6998729,11.7750989 L30.6998729,15.8890946 C30.6998729,16.5512255 30.475158,17.1306394 30.0139115,17.6269422 C29.5530589,18.1234419 28.9736451,18.3719872 28.2762609,18.3719872 L28.2762609,18.383607 Z" id="Fill-21"></path>
                </g>
            </g>
        </g>
    </g>
</svg>