<?xml version="1.0" encoding="UTF-8"?>
<svg width="148px" height="250px" viewBox="0 0 148 250" version="1.1" xmlns="http://www.w3.org/2000/svg" xmlns:xlink="http://www.w3.org/1999/xlink">
    <!-- Generator: Sketch 57.1 (83088) - https://sketch.com -->
    <title>50$</title>
    <desc>Created with Sketch.</desc>
    <defs>
        <filter x="-36.8%" y="-19.1%" width="174.5%" height="138.7%" filterUnits="objectBoundingBox" id="filter-1">
            <feOffset dx="0" dy="2" in="SourceAlpha" result="shadowOffsetOuter1"></feOffset>
            <feGaussianBlur stdDeviation="9.5" in="shadowOffsetOuter1" result="shadowBlurOuter1"></feGaussianBlur>
            <feColorMatrix values="0 0 0 0 0.809669384   0 0 0 0 0.809669384   0 0 0 0 0.809669384  0 0 0 0.5 0" type="matrix" in="shadowBlurOuter1" result="shadowMatrixOuter1"></feColorMatrix>
            <feMerge>
                <feMergeNode in="shadowMatrixOuter1"></feMergeNode>
                <feMergeNode in="SourceGraphic"></feMergeNode>
            </feMerge>
        </filter>
        <polygon id="path-2" points="3.97830018e-05 0 104.82821 0 104.82821 206.473779 3.97830018e-05 206.473779"></polygon>
        <polygon id="path-4" points="0 0 83.7382459 0 83.7382459 67.5884955 0 67.5884955"></polygon>
    </defs>
    <g id="Page-1" stroke="none" stroke-width="1" fill="none" fill-rule="evenodd">
        <g id="Home-Copy-5" transform="translate(-1044.000000, -951.000000)">
            <g id="50$" transform="translate(1063.000000, 968.000000)">
                <g id="50%">
                    <polygon id="Fill-1" fill="#B20404" points="83.7432586 3.97830018e-05 80.9584485 0.994614828 76.7812333 5.17183002 89.7982315 5.17183002"></polygon>
                    <polygon id="Fill-2" fill="#B20404" points="1.9891302 62.8571627 -1.98915009e-05 67.432208 5.96743038 73.7099656 8.95115552 69.6202731 9.54790054 61.8625877 6.16634539 59.6745226"></polygon>
                    <g id="Group-45" filter="url(#filter-1)">
                        <g id="Group-5" transform="translate(5.171790, 5.171790)">
                            <mask id="mask-3" fill="white">
                                <use xlink:href="#path-2"></use>
                            </mask>
                            <g id="Clip-4"></g>
                            <path d="M85.6806908,0 L19.1475986,0 C8.57267993,0 3.97830018e-05,8.57264014 3.97830018e-05,19.1475588 L3.97830018e-05,187.326221 C3.97830018e-05,197.90094 8.57267993,206.473779 19.1475986,206.473779 L85.6806908,206.473779 C96.2556094,206.473779 104.82825,197.90094 104.82825,187.326221 L104.82825,19.1475588 C104.82825,8.57264014 96.2556094,0 85.6806908,0" id="Fill-3" fill="#FDFDFF" mask="url(#mask-3)"></path>
                        </g>
                        <g id="Group-8">
                            <mask id="mask-5" fill="white">
                                <use xlink:href="#path-4"></use>
                            </mask>
                            <g id="Clip-7"></g>
                            <polygon id="Fill-6" fill="#FF0000" mask="url(#mask-5)" points="0 40.6548065 0 67.3985316 0.153562387 67.5884955 83.7382459 0.0341735986 83.7105967 -3.97830018e-05 50.3020253 -3.97830018e-05"></polygon>
                        </g>
                        <path d="M47.8077902,95.6565461 C45.8958192,94.3466908 43.69383,93.5201989 41.2030163,93.1756781 C40.6010995,93.1333092 39.9788933,93.1112297 39.3344087,93.1112297 C37.4015515,93.1112297 35.3817685,93.4979204 33.2774467,94.2711031 L33.2774467,89.1162206 L51.1262893,89.1162206 L51.1262893,79 L24.0633056,79 L24.0633056,105.611844 L29.3468861,105.611844 C30.3778626,104.237541 31.537736,103.259873 32.8265063,102.680036 C34.1150778,102.100199 35.4249331,101.810181 36.7570669,101.810181 C38.5180615,101.810181 39.9999783,102.368734 41.2030163,103.485244 C42.2339928,104.430687 42.7493816,105.912803 42.7493816,107.931591 L42.7493816,108.575678 C42.6630524,109.907812 42.2017685,111.003237 41.3641374,111.862152 C40.5267052,112.721863 39.4843906,113.258535 38.2391826,113.472966 C37.8946618,113.559494 37.50817,113.601863 37.0791103,113.601863 C36.2193996,113.601863 35.3173201,113.430597 34.3728716,113.086275 C32.9975732,112.614051 31.7734503,111.711971 30.7001049,110.380235 L22.5167414,116.82349 C24.3632694,119.830886 26.5652586,121.989512 29.1215154,123.299367 C31.6765787,124.610217 34.2441736,125.264647 36.8215154,125.264647 C39.7855479,125.264647 42.3517505,124.781483 44.5215154,123.814955 C46.6902857,122.848228 48.4843002,121.570597 49.9017685,119.980868 C51.3194358,118.392134 52.360557,116.577034 53.0269222,114.535967 C53.6924919,112.496293 54.0258734,110.423201 54.0258734,108.317884 C54.0258734,105.569476 53.4669222,103.098752 52.3504123,100.907902 C51.2329078,98.7172514 49.7185678,96.967396 47.8077902,95.6565461" id="Fill-23" fill="#FF0000"></path>
                        <polygon id="Fill-35" fill="#000000" points="57.5858951 180.367736 60.1721881 185.608351 65.955642 186.448568 61.770868 190.527917 62.7586799 196.287899 57.5858951 193.568333 52.4131103 196.287899 53.4009222 190.527917 49.2161483 186.448568 54.9996022 185.608351"></polygon>
                        <polygon id="Fill-37" fill="#000000" points="76.2341772 182.652354 78.0783183 186.388774 82.2016275 186.988105 79.2179024 189.896441 79.9222604 194.003042 76.2341772 192.064217 72.546094 194.003042 73.2504521 189.896441 70.2667269 186.988105 74.3900362 186.388774"></polygon>
                        <polygon id="Fill-39" fill="#000000" points="90.5063291 184.354967 91.7970886 186.970501 94.6835443 187.390013 92.5949367 189.425709 93.088047 192.300429 90.5063291 190.943231 87.9246112 192.300429 88.4177215 189.425709 86.3291139 187.390013 89.2155696 186.970501"></polygon>
                        <polygon id="Fill-41" fill="#000000" points="38.937613 182.652354 37.093472 186.388774 32.9701627 186.988105 35.9538879 189.896441 35.2495298 194.003042 38.937613 192.064217 42.6256962 194.003042 41.9213382 189.896441 44.9050633 186.988105 40.7817541 186.388774"></polygon>
                        <polygon id="Fill-43" fill="#000000" points="24.6654611 184.354967 23.3747016 186.970501 20.4882459 187.390013 22.5768535 189.425709 22.0837432 192.300429 24.6654611 190.943231 27.247179 192.300429 26.7540687 189.425709 28.8426763 187.390013 25.9562206 186.970501"></polygon>
                    </g>
                </g>
                <path d="M92.2,101.928 C92.2,105.028016 91.8900031,107.983319 91.27,110.794 C90.6499969,113.604681 89.6580068,116.074323 88.294,118.203 C86.9299932,120.331677 85.1630108,122.026327 82.993,123.287 C80.8229891,124.547673 78.1880155,125.178 75.088,125.178 C71.9879845,125.178 69.3426776,124.547673 67.152,123.287 C64.9613224,122.026327 63.1736736,120.331677 61.789,118.203 C60.4043264,116.074323 59.4020031,113.604681 58.782,110.794 C58.1619969,107.983319 57.852,105.028016 57.852,101.928 C57.852,98.8279845 58.1619969,95.883014 58.782,93.093 C59.4020031,90.3029861 60.4043264,87.8643438 61.789,85.777 C63.1736736,83.6896562 64.9613224,82.0260062 67.152,80.786 C69.3426776,79.5459938 71.9879845,78.926 75.088,78.926 C78.1880155,78.926 80.8229891,79.5459938 82.993,80.786 C85.1630108,82.0260062 86.9299932,83.6896562 88.294,85.777 C89.6580068,87.8643438 90.6499969,90.3029861 91.27,93.093 C91.8900031,95.883014 92.2,98.8279845 92.2,101.928 Z M81.536,101.928 C81.536,100.563993 81.4533342,99.0553416 81.288,97.402 C81.1226658,95.7486584 80.8126689,94.2090071 80.358,92.783 C79.9033311,91.3569929 79.2523376,90.1583382 78.405,89.187 C77.5576624,88.2156618 76.4520068,87.73 75.088,87.73 C73.7239932,87.73 72.6080043,88.2156618 71.74,89.187 C70.8719957,90.1583382 70.2003357,91.3569929 69.725,92.783 C69.2496643,94.2090071 68.9293342,95.7486584 68.764,97.402 C68.5986658,99.0553416 68.516,100.563993 68.516,101.928 C68.516,103.33334 68.5986658,104.872992 68.764,106.547 C68.9293342,108.221008 69.2496643,109.770993 69.725,111.197 C70.2003357,112.623007 70.8719957,113.821662 71.74,114.793 C72.6080043,115.764338 73.7239932,116.25 75.088,116.25 C76.4520068,116.25 77.5576624,115.764338 78.405,114.793 C79.2523376,113.821662 79.9033311,112.623007 80.358,111.197 C80.8126689,109.770993 81.1226658,108.221008 81.288,106.547 C81.4533342,104.872992 81.536,103.33334 81.536,101.928 Z" id="0" fill="#FF0000" fill-rule="nonzero"></path>
                <text id="$-copy-3" font-family="AvenirNext-Bold, Avenir Next" font-size="24" font-weight="bold" fill="#FF0000">
                    <tspan x="92" y="97">$</tspan>
                </text>
                <g id="Group-2-Copy" transform="translate(42.000000, 140.000000)" fill="#000000">
                    <path d="M6.99885413,14.4349274 C7.31810288,14.1158756 7.48353714,13.5364618 7.48353714,12.7088966 L7.48353714,5.56824163 C7.48353714,5.16627576 7.37718654,4.8590407 7.1642884,4.65795929 C6.9515872,4.45707482 6.67960539,4.35052728 6.3605536,4.35052728 C5.71023938,4.35052728 5.2373731,4.61069235 4.9299411,5.14264229 L4.9299411,12.6970798 C4.9299411,13.1817628 5.10738904,13.5839257 5.47370777,13.9147942 C5.84022344,14.2458597 6.27763952,14.4112939 6.79777272,14.4112939 L6.99885413,14.4349274 Z M6.738886,3.19189659 C6.27763952,3.19189659 5.87567364,3.33389433 5.53298838,3.60587614 C5.18990923,3.87785795 4.97720803,4.22074016 4.89429395,4.63432582 C5.28464004,4.24437362 5.74568958,4.05510895 6.28945625,4.05510895 C6.70323886,4.05510895 7.04612107,4.18509301 7.31810288,4.44525809 C7.58988774,4.70522622 7.73188549,5.09537536 7.73188549,5.61570551 L7.73188549,12.7563604 C7.73188549,13.4537447 7.63715467,13.9858915 7.44808694,14.3522103 C7.79077221,14.2222262 8.06275402,14.009525 8.27545521,13.7139097 C8.48835336,13.4182945 8.5949009,13.0990457 8.5949009,12.7443468 L8.5949009,4.92974415 C8.5949009,4.44525809 8.41745296,4.03147548 8.05113423,3.68879022 C7.68442161,3.34571106 7.24720248,3.16846006 6.72687233,3.16846006 L6.738886,3.19189659 Z M1.11116681,8.73650475 C1.11116681,6.85685639 1.22953109,5.33171002 1.45424597,4.14944587 C1.6787639,2.96737865 2.13981344,2.03326589 2.83739459,1.33588169 C2.2697975,1.72622778 1.80874796,2.1988971 1.45424597,2.76649419 C1.09954703,3.33389433 0.839578895,3.97219487 0.673947684,4.69340949 C0.508513419,5.4146241 0.401965875,6.07675505 0.354698942,6.67960539 C0.307432009,7.28265268 0.283798543,7.99185362 0.283798543,8.79578537 C0.283798543,9.55245018 0.295615276,10.1791309 0.307432009,10.6874474 C0.319248742,11.1957639 0.378332408,11.8106279 0.472866274,12.5316456 C0.567597085,13.2528602 0.697581151,13.8438938 0.863212361,14.3165631 C1.02864663,14.7896263 1.26517824,15.2981398 1.5724133,15.8298928 C1.87984531,16.3620396 2.24616404,16.7758222 2.68377706,17.0830573 C3.12119313,17.3906863 3.66495981,17.6506544 4.32709076,17.8633556 C4.98902476,18.0762537 5.74568958,18.1826043 6.58487458,18.1826043 C7.45990368,18.1826043 8.25201869,18.0053533 8.97303636,17.6506544 C9.69444793,17.2959555 10.2263979,16.8351029 10.5808999,16.2675058 C9.70606771,17.0594238 8.45290316,17.4497699 6.82160314,17.4497699 C5.84022344,17.4497699 5.00084149,17.3077722 4.30326034,17.0239736 C3.60567919,16.740372 3.05009579,16.3620396 2.64812991,15.8891734 C2.24616404,15.4163071 1.92711224,14.7778096 1.70239736,13.9738779 C1.47787943,13.1699461 1.33588169,12.378028 1.27679802,11.5977298 C1.21771436,10.8174315 1.18226416,9.85988219 1.18226416,8.71287129 L1.11116681,8.73650475 Z M2.45137244e-13,8.76053211 C2.45137244e-13,7.75532201 0.0356471452,6.89250354 0.106547544,6.17128892 C0.177250998,5.4500743 0.342882209,4.66977602 0.614864018,3.84240775 C0.886648882,3.01464559 1.25316456,2.34089485 1.7142141,1.8205647 C2.17546058,1.30043149 2.83739459,0.863015415 3.70041,0.520133207 C4.56342542,0.177250998 5.58025531,4.26325641e-14 6.75050579,4.26325641e-14 C7.82641935,4.26325641e-14 8.74851843,0.20108141 9.50518325,0.603047285 C10.2616511,1.00501316 10.8528817,1.59624371 11.278481,2.38816178 C11.7040804,3.1802768 12.0115124,4.09055915 12.2005801,5.11900883 C12.3898448,6.14765545 12.4843786,7.3415394 12.4843786,8.71287129 C12.4843786,9.31591857 12.4843786,9.78878485 12.4725619,10.1316671 C12.4605482,10.4747462 12.4369148,10.9474155 12.4016615,11.5620826 C12.3662113,12.1769466 12.3189444,12.6736433 12.2596638,13.0519757 C12.2005801,13.4301112 12.1060462,13.8911607 11.9642454,14.4349274 C11.8222477,14.978891 11.6568134,15.4163071 11.4675487,15.7591893 C11.278481,16.1020715 11.0303296,16.4683902 10.7347143,16.8587363 C10.4390991,17.2486885 10.0964138,17.5561205 9.71808139,17.7806385 C9.33974898,18.0053533 8.89031923,18.1826043 8.35836929,18.3246021 C7.82641935,18.4664029 7.24720248,18.5373033 6.62052173,18.5373033 C5.73387284,18.5373033 4.94175783,18.4309527 4.25599341,18.2180545 C3.57042594,18.0053533 3.00282885,17.7333715 2.54177931,17.4023061 C2.08072977,17.0714375 1.69058063,16.6340214 1.35951516,16.0900578 C1.02864663,15.5462912 0.780298283,15.026158 0.614864018,14.5294613 C0.449232808,14.0329615 0.319248742,13.4182945 0.23653161,12.6852631 C0.153617532,11.9524287 0.0945338657,11.3139312 0.0709003993,10.7817843 C0.0472669328,10.2498344 0.0356471452,9.59971711 0.0356471452,8.83123556 L2.45137244e-13,8.76053211 Z" id="Fill-17"></path>
                    <path d="M21.3258554,11.4676669 C21.7278212,11.4676669 22.0825202,11.3140494 22.3899522,11.0184341 C22.6973842,10.7228188 22.8628185,10.3681199 22.8982687,9.95433728 C22.5790199,10.4035701 22.1297871,10.628088 21.5505702,10.628088 L19.1626054,10.628088 L19.1626054,11.4794836 L21.3258554,11.4676669 Z M19.1626054,3.70052817 L19.1626054,4.55152991 L22.4017689,4.55152991 C22.8037348,4.55152991 23.1584337,4.39810932 23.4656688,4.10249405 C23.7731008,3.80687877 23.938732,3.45217983 23.9739853,3.03820028 C23.6549335,3.48763003 23.2057007,3.71214796 22.6264838,3.71214796 L19.1626054,3.70052817 Z M16.7744436,0.662052173 C16.2186633,0.673868906 15.7339803,0.862936637 15.3083809,1.21763558 C14.8827816,1.57253147 14.6700804,2.02156733 14.6700804,2.57715073 L14.6700804,15.5818595 C14.6700804,16.3857913 14.8473314,17.0004583 15.2138471,17.4260577 C15.5803627,17.851657 16.0886792,18.0643582 16.7508102,18.0643582 C17.4245609,18.0643582 17.9683276,17.7689399 18.3823071,17.1658926 C18.0155945,17.3906075 17.6729092,17.4969581 17.3536605,17.4851414 C16.8571608,17.4851414 16.4313645,17.3076934 16.0768625,16.9531914 C15.7221635,16.5984925 15.5447156,16.1728931 15.5447156,15.6763934 L15.5447156,2.11629814 C15.5567293,1.40690026 15.9705119,0.910400516 16.7860634,0.638615652 L16.7744436,0.662052173 Z M16.7626269,18.383607 C16.0059621,18.383607 15.4147315,18.1472723 14.9891322,17.674406 C14.5635328,17.2013428 14.3508316,16.4921419 14.3508316,15.5582261 L14.3508316,2.55351727 C14.3508316,1.89158326 14.59918,1.34781659 15.0954828,0.922020303 C15.5921795,0.496617908 16.1713963,0.283719764 16.8333303,0.283719764 L22.4254024,0.283719764 C22.9929995,0.283719764 23.4656688,0.496617908 23.8440012,0.922020303 C24.2223336,1.34781659 24.4115983,1.84431633 24.4115983,2.41171647 C24.4115983,3.06203069 24.2343473,3.62943083 23.8912682,4.11411383 C23.5485829,4.59899379 23.0757166,4.84714518 22.4726693,4.84714518 L19.1862389,4.84714518 L19.1862389,7.19965982 L21.3615025,7.19965982 C21.9289027,7.19965982 22.4017689,7.41255796 22.7801013,7.83815731 C23.1584337,8.26375665 23.3476984,8.76045333 23.3476984,9.31583979 C23.3476984,9.96615401 23.1702505,10.5337511 22.8273683,11.0300539 C22.4844861,11.5267506 22.0116198,11.7750989 21.4087694,11.7750989 L19.1862389,11.7750989 L19.1862389,15.8890946 C19.1862389,16.5512255 18.961524,17.1306394 18.5002775,17.6269422 C18.0394249,18.1234419 17.4600111,18.3719872 16.7626269,18.3719872 L16.7626269,18.383607 Z" id="Fill-19"></path>
                    <path d="M32.8394894,11.4676669 C33.2414552,11.4676669 33.5961542,11.3140494 33.9035862,11.0184341 C34.2110182,10.7228188 34.3764525,10.3681199 34.4119027,9.95433728 C34.0926539,10.4035701 33.6434211,10.628088 33.0642043,10.628088 L30.6762394,10.628088 L30.6762394,11.4794836 L32.8394894,11.4676669 Z M30.6762394,3.70052817 L30.6762394,4.55152991 L33.9154029,4.55152991 C34.3173688,4.55152991 34.6720677,4.39810932 34.9793028,4.10249405 C35.2867348,3.80687877 35.452366,3.45217983 35.4876193,3.03820028 C35.1685675,3.48763003 34.7193347,3.71214796 34.1401178,3.71214796 L30.6762394,3.70052817 Z M28.2880776,0.662052173 C27.7322973,0.673868906 27.2476143,0.862936637 26.8220149,1.21763558 C26.3964156,1.57253147 26.1837144,2.02156733 26.1837144,2.57715073 L26.1837144,15.5818595 C26.1837144,16.3857913 26.3609654,17.0004583 26.7274811,17.4260577 C27.0939967,17.851657 27.6023132,18.0643582 28.2644442,18.0643582 C28.9381949,18.0643582 29.4819616,17.7689399 29.8959411,17.1658926 C29.5292285,17.3906075 29.1865432,17.4969581 28.8672945,17.4851414 C28.3707948,17.4851414 27.9449985,17.3076934 27.5904965,16.9531914 C27.2357975,16.5984925 27.0583496,16.1728931 27.0583496,15.6763934 L27.0583496,2.11629814 C27.0703633,1.40690026 27.4841459,0.910400516 28.2996974,0.638615652 L28.2880776,0.662052173 Z M28.2762609,18.383607 C27.5195961,18.383607 26.9283655,18.1472723 26.5027662,17.674406 C26.0771668,17.2013428 25.8644657,16.4921419 25.8644657,15.5582261 L25.8644657,2.55351727 C25.8644657,1.89158326 26.112814,1.34781659 26.6091168,0.922020303 C27.1058135,0.496617908 27.6850303,0.283719764 28.3469644,0.283719764 L33.9390364,0.283719764 C34.5066335,0.283719764 34.9793028,0.496617908 35.3576352,0.922020303 C35.7359676,1.34781659 35.9252323,1.84431633 35.9252323,2.41171647 C35.9252323,3.06203069 35.7479813,3.62943083 35.4049022,4.11411383 C35.0622169,4.59899379 34.5893506,4.84714518 33.9863033,4.84714518 L30.6998729,4.84714518 L30.6998729,7.19965982 L32.8751365,7.19965982 C33.4425367,7.19965982 33.9154029,7.41255796 34.2937353,7.83815731 C34.6720677,8.26375665 34.8613324,8.76045333 34.8613324,9.31583979 C34.8613324,9.96615401 34.6838845,10.5337511 34.3410023,11.0300539 C33.9981201,11.5267506 33.5252538,11.7750989 32.9224035,11.7750989 L30.6998729,11.7750989 L30.6998729,15.8890946 C30.6998729,16.5512255 30.475158,17.1306394 30.0139115,17.6269422 C29.5530589,18.1234419 28.9736451,18.3719872 28.2762609,18.3719872 L28.2762609,18.383607 Z" id="Fill-21"></path>
                </g>
            </g>
        </g>
    </g>
</svg>