<?xml version="1.0" encoding="UTF-8"?>
<svg width="148px" height="250px" viewBox="0 0 148 250" version="1.1" xmlns="http://www.w3.org/2000/svg" xmlns:xlink="http://www.w3.org/1999/xlink">
    <!-- Generator: Sketch 57.1 (83088) - https://sketch.com -->
    <title>50%</title>
    <desc>Created with Sketch.</desc>
    <defs>
        <filter x="-36.8%" y="-19.1%" width="174.5%" height="138.9%" filterUnits="objectBoundingBox" id="filter-1">
            <feOffset dx="0" dy="2" in="SourceAlpha" result="shadowOffsetOuter1"></feOffset>
            <feGaussianBlur stdDeviation="9.5" in="shadowOffsetOuter1" result="shadowBlurOuter1"></feGaussianBlur>
            <feColorMatrix values="0 0 0 0 0.809669384   0 0 0 0 0.809669384   0 0 0 0 0.809669384  0 0 0 0.5 0" type="matrix" in="shadowBlurOuter1" result="shadowMatrixOuter1"></feColorMatrix>
            <feMerge>
                <feMergeNode in="shadowMatrixOuter1"></feMergeNode>
                <feMergeNode in="SourceGraphic"></feMergeNode>
            </feMerge>
        </filter>
        <polygon id="path-2" points="3.97830018e-05 0 104.82821 0 104.82821 206.473779 3.97830018e-05 206.473779"></polygon>
        <polygon id="path-4" points="0 0 83.7382459 0 83.7382459 67.5884955 0 67.5884955"></polygon>
    </defs>
    <g id="Page-1" stroke="none" stroke-width="1" fill="none" fill-rule="evenodd">
        <g id="Home-Copy-5" transform="translate(-1044.000000, -951.000000)">
            <g id="50%" transform="translate(1063.000000, 968.000000)">
                <polygon id="Fill-1" fill="#B20404" points="83.7432586 3.97830018e-05 80.9584485 0.994614828 76.7812333 5.17183002 89.7982315 5.17183002"></polygon>
                <polygon id="Fill-2" fill="#B20404" points="1.9891302 62.8571627 -1.98915009e-05 67.432208 5.96743038 73.7099656 8.95115552 69.6202731 9.54790054 61.8625877 6.16634539 59.6745226"></polygon>
                <g id="Group-45" filter="url(#filter-1)">
                    <g id="Group-5" transform="translate(5.171790, 5.171790)">
                        <mask id="mask-3" fill="white">
                            <use xlink:href="#path-2"></use>
                        </mask>
                        <g id="Clip-4"></g>
                        <path d="M85.6806908,0 L19.1475986,0 C8.57267993,0 3.97830018e-05,8.57264014 3.97830018e-05,19.1475588 L3.97830018e-05,187.326221 C3.97830018e-05,197.90094 8.57267993,206.473779 19.1475986,206.473779 L85.6806908,206.473779 C96.2556094,206.473779 104.82825,197.90094 104.82825,187.326221 L104.82825,19.1475588 C104.82825,8.57264014 96.2556094,0 85.6806908,0" id="Fill-3" fill="#FDFDFF" mask="url(#mask-3)"></path>
                    </g>
                    <g id="Group-8">
                        <mask id="mask-5" fill="white">
                            <use xlink:href="#path-4"></use>
                        </mask>
                        <g id="Clip-7"></g>
                        <polygon id="Fill-6" fill="#FF0000" mask="url(#mask-5)" points="0 40.6548065 0 67.3985316 0.153562387 67.5884955 83.7382459 0.0341735986 83.7105967 -3.97830018e-05 50.3020253 -3.97830018e-05"></polygon>
                    </g>
                    <path d="M27.7307812,78.6038716 C27.7307812,79.0287541 27.8405823,79.3804358 28.0603834,79.658519 C28.2801844,79.937 28.5548861,80.1458608 28.8844882,80.2849024 C29.2140904,80.4241429 29.5689548,80.4937631 29.9502749,80.4937631 C30.3309982,80.4937631 30.6862604,80.4205624 31.0160615,80.273962 C31.3456637,80.1275606 31.6237468,79.9186998 31.8511067,79.6475787 C32.0778698,79.3766564 32.1918481,79.0287541 32.1918481,78.6038716 L32.1918481,68.2533291 L36.1693526,68.2533291 L36.1693526,78.6038716 C36.1693526,79.5123165 35.9897324,80.3105624 35.6308897,80.9990072 C35.2716492,81.6878499 34.799226,82.2593327 34.2134213,82.7130579 C33.6274177,83.1673797 32.964434,83.5079222 32.2246691,83.7350832 C31.4847052,83.9620452 30.7266401,84.0756257 29.9502749,84.0756257 C29.1735118,84.0756257 28.4120651,83.9620452 27.6647414,83.7350832 C26.9176166,83.5079222 26.2546329,83.1673797 25.6759892,82.7130579 C25.0971465,82.2593327 24.6322821,81.6878499 24.2806004,80.9990072 C23.9291175,80.3105624 23.7532767,79.5123165 23.7532767,78.6038716 L23.7532767,68.2533291 L27.7307812,68.2533291 L27.7307812,78.6038716 Z" id="Fill-9" fill="#000000"></path>
                    <path d="M44.7174069,75.7689349 C45.1128499,75.7689349 45.442651,75.6736546 45.7064123,75.4832929 C45.9699747,75.2929313 46.1678951,75.0546311 46.2995769,74.7691881 C46.4314575,74.4833472 46.4972984,74.1756257 46.4972984,73.8460235 C46.4972984,73.5164213 46.4314575,73.2086998 46.2995769,72.9230579 C46.1678951,72.6376148 45.9699747,72.3997125 45.7064123,72.2091519 C45.442651,72.0185913 45.1128499,71.9231121 44.7174069,71.9231121 L42.4320723,71.9231121 L42.4320723,75.7689349 L44.7174069,75.7689349 Z M38.4983291,68.2533291 L44.7174069,68.2533291 C45.669613,68.2533291 46.5008788,68.4108698 47.2116022,68.7257523 C47.9219277,69.0412315 48.5154901,69.4549747 48.9914937,69.9673797 C49.4674973,70.4803816 49.8229584,71.0659873 50.0574792,71.7255895 C50.2916022,72.3845949 50.408962,73.0587179 50.408962,73.7471627 C50.408962,74.4360054 50.2882206,75.113311 50.0465389,75.7798752 C49.8046582,76.4466383 49.449396,77.0362224 48.9807523,77.5488264 C48.5115118,78.0618282 47.9219277,78.4755714 47.2116022,78.7904539 C46.5008788,79.1055353 45.676774,79.262877 44.7392875,79.262877 L42.4320723,79.262877 L42.4320723,83.8118644 L38.4983291,83.8118644 L38.4983291,68.2533291 Z" id="Fill-11" fill="#000000"></path>
                    <polygon id="Fill-13" fill="#000000" points="62.3198336 71.9672116 62.3198336 83.8118047 58.3423291 83.8118047 58.3423291 71.9672116 54.2108644 71.9672116 54.2108644 68.2315877 66.4512984 68.2315877 66.4512984 71.9672116"></polygon>
                    <path d="M71.4174901,78.6916727 C71.4174901,78.9848734 71.4904919,79.233915 71.6370922,79.4387975 C71.7834937,79.6440778 71.9740542,79.8199186 72.208575,79.9661212 C72.442698,80.1129204 72.7140181,80.2189421 73.0215407,80.2849819 C73.3292622,80.3508228 73.6369837,80.3836438 73.9445063,80.3836438 C74.2522278,80.3836438 74.55617,80.3472423 74.8565316,80.2738427 C75.1566944,80.200642 75.4242351,80.0946203 75.658557,79.9551808 C75.8928788,79.8161392 76.0834394,79.6404973 76.2300398,79.4278571 C76.3764412,79.2156148 76.4498409,78.9701537 76.4498409,78.6916727 L76.4498409,73.3736799 C76.4498409,73.0661573 76.3764412,72.802396 76.2300398,72.5825949 C76.0834394,72.3627939 75.8892984,72.1833725 75.6478156,72.044132 C75.4059349,71.9050904 75.1312333,71.7990687 74.8235118,71.7254702 C74.5159892,71.6522694 74.2007089,71.6156691 73.8786655,71.6156691 C73.5709439,71.6156691 73.2705823,71.6522694 72.9777794,71.7254702 C72.6843797,71.7990687 72.4208174,71.9122514 72.1864955,72.0660127 C71.9521736,72.2199729 71.7651935,72.4065552 71.6261519,72.6265552 C71.4869114,72.8461573 71.4174901,73.0955967 71.4174901,73.3736799 L71.4174901,78.6916727 Z M67.4839458,73.3736799 C67.4839458,72.4799548 67.6669476,71.700208 68.0331501,71.0332459 C68.3991537,70.3666817 68.8864955,69.8103165 69.4945787,69.3631555 C70.1024629,68.9161935 70.7913056,68.5830108 71.560311,68.3632098 C72.3295154,68.1436076 73.116821,68.0336076 73.9226257,68.0336076 C74.7282315,68.0336076 75.5193165,68.1436076 76.2958807,68.3632098 C77.0724448,68.5830108 77.7608897,68.9161935 78.361613,69.3631555 C78.9623363,69.8103165 79.4494792,70.3666817 79.8230416,71.0332459 C80.196604,71.700208 80.3833852,72.4799548 80.3833852,73.3736799 L80.3833852,78.6916727 C80.3833852,79.5853978 80.1999855,80.3655425 79.8341808,81.0321067 C79.4675805,81.6988698 78.9804376,82.255434 78.3727523,82.7019982 C77.7644702,83.1491591 77.0760253,83.4823418 76.3070199,83.7019439 C75.5378156,83.921745 74.7501121,84.031745 73.9445063,84.031745 C73.1387016,84.031745 72.3476166,83.921745 71.5712514,83.7019439 C70.7944882,83.4823418 70.1060434,83.1491591 69.5057179,82.7019982 C68.9045967,82.255434 68.4178517,81.6988698 68.0442893,81.0321067 C67.6707269,80.3655425 67.4839458,79.5853978 67.4839458,78.6916727 L67.4839458,73.3736799 Z" id="Fill-15" fill="#000000"></path>
                    <path d="M63.7899548,152.964468 C64.112396,152.642226 64.2794846,152.057018 64.2794846,151.221177 L64.2794846,144.009116 C64.2794846,143.60313 64.1720705,143.292823 63.9570434,143.089731 C63.7422152,142.886837 63.4675136,142.779224 63.1452712,142.779224 C62.4884539,142.779224 62.010859,143.041991 61.7003526,143.57926 L61.7003526,151.209242 C61.7003526,151.698772 61.879575,152.104957 62.249557,152.439134 C62.6197378,152.77351 63.061528,152.940599 63.5868626,152.940599 L63.7899548,152.964468 Z M63.527387,141.609007 C63.061528,141.609007 62.6555425,141.752425 62.3094304,142.027127 C61.9629204,142.301828 61.7480922,142.648139 61.664349,143.065861 C62.0585986,142.672009 62.5242586,142.480852 63.0734629,142.480852 C63.4913834,142.480852 63.8376944,142.612136 64.112396,142.874902 C64.3868987,143.13747 64.5303165,143.531521 64.5303165,144.057054 L64.5303165,151.269116 C64.5303165,151.973474 64.4346383,152.510942 64.2436799,152.880924 C64.589792,152.74964 64.8644937,152.534812 65.0793219,152.236241 C65.294349,151.937669 65.401962,151.615228 65.401962,151.256982 L65.401962,143.364233 C65.401962,142.874902 65.2227396,142.456982 64.8527577,142.11087 C64.4823779,141.76436 64.0407866,141.585336 63.5152532,141.585336 L63.527387,141.609007 Z M57.8433906,147.209061 C57.8433906,145.310617 57.9629385,143.770219 58.1899005,142.576132 C58.4166637,141.382244 58.8823237,140.43879 59.5868807,139.734432 C59.0136076,140.128682 58.5479476,140.606078 58.1899005,141.179351 C57.8316546,141.752425 57.5690868,142.397108 57.4017993,143.125535 C57.2347107,143.853962 57.1270976,144.522714 57.079358,145.131593 C57.0316184,145.740671 57.0077486,146.456964 57.0077486,147.268935 C57.0077486,148.033166 57.0196835,148.666114 57.0316184,149.179514 C57.0435533,149.692913 57.1032278,150.313926 57.1987071,151.042154 C57.2943852,151.77058 57.4256691,152.367524 57.5929566,152.84492 C57.7600452,153.322714 57.9989421,153.836313 58.3092495,154.373383 C58.6197559,154.910852 58.9897378,155.328772 59.4317269,155.63908 C59.8735172,155.949785 60.4227215,156.212353 61.0914738,156.427181 C61.7600271,156.642208 62.5242586,156.749622 63.3718354,156.749622 C64.2556148,156.749622 65.055651,156.570599 65.7838788,156.212353 C66.5125045,155.854107 67.049774,155.388646 67.407821,154.815373 C66.5242405,155.61521 65.2585443,156.009459 63.6109313,156.009459 C62.6197378,156.009459 61.771962,155.866042 61.0674051,155.579405 C60.3628481,155.292967 59.8017089,154.910852 59.3957233,154.433257 C58.9897378,153.955662 58.6674955,153.310779 58.4405335,152.498808 C58.2137703,151.686837 58.0703526,150.887 58.0106781,150.098899 C57.9510036,149.310797 57.9151989,148.343673 57.9151989,147.185192 L57.8433906,147.209061 Z M56.7211121,147.233329 C56.7211121,146.218067 56.7571157,145.34662 56.8287251,144.618193 C56.9001356,143.889767 57.0674231,143.101665 57.3421248,142.266024 C57.6166275,141.429984 57.9868083,140.749495 58.4524684,140.223962 C58.9183273,139.698627 59.5868807,139.256837 60.4585262,138.910526 C61.3301718,138.564215 62.35717,138.385192 63.539123,138.385192 C64.6257957,138.385192 65.5571157,138.588284 66.3213472,138.994269 C67.0853797,139.400255 67.6825226,139.997398 68.1123779,140.797235 C68.5422333,141.597271 68.8527396,142.516656 69.043698,143.555391 C69.2348553,144.594324 69.3303345,145.800146 69.3303345,147.185192 C69.3303345,147.794269 69.3303345,148.271864 69.3183996,148.618175 C69.3062658,148.964685 69.282396,149.442081 69.2467902,150.062895 C69.2109855,150.683908 69.1632459,151.185571 69.1033725,151.567687 C69.043698,151.949604 68.9482188,152.415264 68.805,152.964468 C68.6615823,153.513872 68.4944937,153.955662 68.3033363,154.301973 C68.1123779,154.648284 67.861745,155.018266 67.5631736,155.412515 C67.2646022,155.806367 66.9184901,156.116873 66.5363743,156.343637 C66.1542586,156.570599 65.7003345,156.749622 65.1630651,156.89304 C64.6257957,157.036259 64.0407866,157.107868 63.4078391,157.107868 C62.5123237,157.107868 61.7122875,157.000454 61.0196655,156.785427 C60.3272423,156.570599 59.7539693,156.295897 59.2883092,155.961521 C58.8226492,155.627344 58.4285986,155.185553 58.0942224,154.63615 C57.7600452,154.086946 57.5092134,153.561611 57.3421248,153.059948 C57.1748373,152.558483 57.0435533,151.937669 56.960009,151.197307 C56.8762658,150.457145 56.8165913,149.812262 56.7927215,149.274794 C56.7688517,148.737524 56.7571157,148.080906 56.7571157,147.30474 L56.7211121,147.233329 Z" id="Fill-17" fill="#000000"></path>
                    <path d="M78.260226,149.967535 C78.6662116,149.967535 79.0244575,149.812382 79.3349638,149.51381 C79.6454702,149.215239 79.8125588,148.856993 79.8483635,148.439072 C79.5259222,148.892797 79.0721971,149.119561 78.4871881,149.119561 L76.0753436,149.119561 L76.0753436,149.97947 L78.260226,149.967535 Z M76.0753436,142.122725 L76.0753436,142.982237 L79.3468987,142.982237 C79.7528843,142.982237 80.1111302,142.827282 80.4214376,142.528711 C80.7319439,142.230139 80.8992315,141.871893 80.9348373,141.453774 C80.6125949,141.907698 80.1588698,142.134461 79.5738608,142.134461 L76.0753436,142.122725 Z M73.6633002,139.053864 C73.101962,139.065799 72.6124322,139.256758 72.1825769,139.615004 C71.7527215,139.973448 71.5378933,140.426975 71.5378933,140.988114 L71.5378933,154.12287 C71.5378933,154.934841 71.7169168,155.555655 72.0870976,155.98551 C72.4572785,156.415365 72.9706781,156.630193 73.6394304,156.630193 C74.3199186,156.630193 74.869123,156.331821 75.2872423,155.722743 C74.9168626,155.949705 74.5707505,156.057119 74.2483092,156.045184 C73.7468445,156.045184 73.3167902,155.865962 72.9587432,155.507915 C72.6004973,155.149669 72.4212749,154.719814 72.4212749,154.218349 L72.4212749,140.522653 C72.4334087,139.806161 72.8513291,139.304696 73.6750362,139.030193 L73.6633002,139.053864 Z M73.6513653,156.952635 C72.8871338,156.952635 72.289991,156.713937 71.8601356,156.236342 C71.4302803,155.758548 71.2154521,155.042255 71.2154521,154.099 L71.2154521,140.964244 C71.2154521,140.295691 71.4662839,139.746486 71.9675497,139.316432 C72.4692134,138.886776 73.0542224,138.671749 73.7227758,138.671749 L79.3707685,138.671749 C79.9440416,138.671749 80.4214376,138.886776 80.8035533,139.316432 C81.1856691,139.746486 81.3768264,140.247951 81.3768264,140.821025 C81.3768264,141.477843 81.1978029,142.050917 80.8512929,142.540447 C80.5051808,143.030175 80.0275859,143.280808 79.4185081,143.280808 L76.0992134,143.280808 L76.0992134,145.656848 L78.2962297,145.656848 C78.8693038,145.656848 79.3468987,145.871875 79.7290145,146.301731 C80.1111302,146.731586 80.3022875,147.23325 80.3022875,147.79419 C80.3022875,148.451007 80.1230651,149.02428 79.7767541,149.525546 C79.430443,150.02721 78.9528481,150.278042 78.3439693,150.278042 L76.0992134,150.278042 L76.0992134,154.433177 C76.0992134,155.101929 75.8722514,155.687137 75.4063924,156.188403 C74.9409313,156.689868 74.3557233,156.940899 73.6513653,156.940899 L73.6513653,156.952635 Z" id="Fill-19" fill="#000000"></path>
                    <path d="M89.8889964,149.967535 C90.2949819,149.967535 90.6532278,149.812382 90.9637342,149.51381 C91.2742405,149.215239 91.4413291,148.856993 91.4771338,148.439072 C91.1546926,148.892797 90.7009675,149.119561 90.1159584,149.119561 L87.7041139,149.119561 L87.7041139,149.97947 L89.8889964,149.967535 Z M87.7041139,142.122725 L87.7041139,142.982237 L90.9756691,142.982237 C91.3816546,142.982237 91.7399005,142.827282 92.050208,142.528711 C92.3607143,142.230139 92.5280018,141.871893 92.5636076,141.453774 C92.2413653,141.907698 91.7876401,142.134461 91.2026311,142.134461 L87.7041139,142.122725 Z M85.2920705,139.053864 C84.7307324,139.065799 84.2412025,139.256758 83.8113472,139.615004 C83.3814919,139.973448 83.1666637,140.426975 83.1666637,140.988114 L83.1666637,154.12287 C83.1666637,154.934841 83.3456872,155.555655 83.715868,155.98551 C84.0860488,156.415365 84.5994485,156.630193 85.2682007,156.630193 C85.948689,156.630193 86.4978933,156.331821 86.9160127,155.722743 C86.5456329,155.949705 86.1995208,156.057119 85.8770796,156.045184 C85.3756148,156.045184 84.9455606,155.865962 84.5875136,155.507915 C84.2292676,155.149669 84.0500452,154.719814 84.0500452,154.218349 L84.0500452,140.522653 C84.062179,139.806161 84.4800995,139.304696 85.3038065,139.030193 L85.2920705,139.053864 Z M85.2801356,156.952635 C84.5159042,156.952635 83.9187613,156.713937 83.488906,156.236342 C83.0590506,155.758548 82.8442224,155.042255 82.8442224,154.099 L82.8442224,140.964244 C82.8442224,140.295691 83.0950542,139.746486 83.5963201,139.316432 C84.0979837,138.886776 84.6829928,138.671749 85.3515461,138.671749 L90.9995389,138.671749 C91.5728119,138.671749 92.050208,138.886776 92.4323237,139.316432 C92.8144394,139.746486 93.0055967,140.247951 93.0055967,140.821025 C93.0055967,141.477843 92.8265732,142.050917 92.4800633,142.540447 C92.1339512,143.030175 91.6563562,143.280808 91.0472785,143.280808 L87.7279837,143.280808 L87.7279837,145.656848 L89.925,145.656848 C90.4980741,145.656848 90.9756691,145.871875 91.3577848,146.301731 C91.7399005,146.731586 91.9310579,147.23325 91.9310579,147.79419 C91.9310579,148.451007 91.7518354,149.02428 91.4055244,149.525546 C91.0592134,150.02721 90.5816184,150.278042 89.9727396,150.278042 L87.7279837,150.278042 L87.7279837,154.433177 C87.7279837,155.101929 87.5010217,155.687137 87.0351627,156.188403 C86.5697016,156.689868 85.9844937,156.940899 85.2801356,156.940899 L85.2801356,156.952635 Z" id="Fill-21" fill="#000000"></path>
                    <path d="M47.8077902,105.04441 C45.8958192,103.734555 43.69383,102.908063 41.2030163,102.563542 C40.6010995,102.521174 39.9788933,102.499094 39.3344087,102.499094 C37.4015515,102.499094 35.3817685,102.885785 33.2774467,103.658967 L33.2774467,98.504085 L51.1262893,98.504085 L51.1262893,88.3878644 L24.0633056,88.3878644 L24.0633056,114.999709 L29.3468861,114.999709 C30.3778626,113.625405 31.537736,112.647738 32.8265063,112.067901 C34.1150778,111.488063 35.4249331,111.198045 36.7570669,111.198045 C38.5180615,111.198045 39.9999783,111.756599 41.2030163,112.873108 C42.2339928,113.818552 42.7493816,115.300667 42.7493816,117.319456 L42.7493816,117.963542 C42.6630524,119.295676 42.2017685,120.391101 41.3641374,121.250016 C40.5267052,122.109727 39.4843906,122.6464 38.2391826,122.86083 C37.8946618,122.947358 37.50817,122.989727 37.0791103,122.989727 C36.2193996,122.989727 35.3173201,122.818461 34.3728716,122.474139 C32.9975732,122.001915 31.7734503,121.099835 30.7001049,119.768099 L22.5167414,126.211354 C24.3632694,129.21875 26.5652586,131.377376 29.1215154,132.687231 C31.6765787,133.998081 34.2441736,134.652512 36.8215154,134.652512 C39.7855479,134.652512 42.3517505,134.169347 44.5215154,133.202819 C46.6902857,132.236092 48.4843002,130.958461 49.9017685,129.368732 C51.3194358,127.779998 52.360557,125.964899 53.0269222,123.923832 C53.6924919,121.884157 54.0258734,119.811065 54.0258734,117.705749 C54.0258734,114.95734 53.4669222,112.486617 52.3504123,110.295767 C51.2329078,108.105116 49.7185678,106.35526 47.8077902,105.04441" id="Fill-23" fill="#FF0000"></path>
                    <path d="M89.7864358,95.4757034 C88.7978282,93.7147089 87.5201971,92.2648174 85.9527468,91.1264268 C84.3841031,89.9886329 82.6121682,89.1398626 80.6367432,88.5811103 C78.6603237,88.0233526 76.7061826,87.7434792 74.7729277,87.7434792 C72.8400705,87.7434792 70.8958752,88.0233526 68.9417342,88.5811103 C66.9863996,89.1398626 65.2144647,89.9886329 63.6257306,91.1264268 C62.0360018,92.2648174 60.7474304,93.7147089 59.7596184,95.4757034 C58.7708119,97.2374937 58.2777016,99.3420145 58.2777016,101.79026 L58.2777016,120.669881 C58.2777016,123.076354 58.7708119,125.159392 59.7596184,126.920188 C60.7474304,128.681978 62.0360018,130.132069 63.6257306,131.269465 C65.2144647,132.408253 66.9863996,133.257024 68.9417342,133.814781 C70.8958752,134.372539 72.8400705,134.652412 74.7729277,134.652412 C76.7061826,134.652412 78.6603237,134.372539 80.6367432,133.814781 C82.6121682,133.257024 84.3841031,132.408253 85.9527468,131.269465 C87.5201971,130.132069 88.7978282,128.681978 89.7864358,126.920188 C90.7742477,125.159392 91.2685515,123.076354 91.2685515,120.669881 L91.2685515,101.79026 C91.2685515,99.3420145 90.7742477,97.2374937 89.7864358,95.4757034" id="Fill-25" fill="#FF0000"></path>
                    <path d="M82.552255,117.199212 C82.552255,116.511363 82.4557812,116.01706 82.2622369,115.715703 C82.0684937,115.414546 81.8105009,115.263967 81.4880597,115.263967 C81.1656184,115.263967 80.8964864,115.414546 80.6818571,115.715703 C80.4666311,116.01706 80.359217,116.500821 80.359217,117.167186 C80.359217,117.855233 80.4666311,118.344166 80.6818571,118.634383 C80.8964864,118.924799 81.1656184,119.069609 81.4880597,119.069609 C82.1975895,119.069609 82.552255,118.446409 82.552255,117.199212 M86.3903201,117.199212 C86.3903201,118.081201 86.266396,118.876264 86.0193436,119.585993 C85.7720922,120.295324 85.4335389,120.897638 85.0036835,121.392141 C84.5732315,121.886644 84.0628156,122.262792 83.4716401,122.520984 C82.8800669,122.778778 82.2296148,122.907675 81.5202839,122.907675 C79.9932134,122.907675 78.8160344,122.41894 77.9887468,121.440477 C77.1608626,120.462213 76.7469204,119.027042 76.7469204,117.134564 C76.7469204,115.393262 77.1928879,114.017168 78.0854195,113.006481 C78.9773544,111.995993 80.1223092,111.49055 81.5202839,111.49055 C83.0895244,111.49055 84.2939548,111.98545 85.1323816,112.974257 C85.9712061,113.963262 86.3903201,115.371779 86.3903201,117.199212 M69.9738644,105.265902 C69.9738644,104.578054 69.8771917,104.083552 69.6836474,103.782195 C69.4901031,103.481635 69.2323092,103.330658 68.9096691,103.330658 C68.5872278,103.330658 68.3180958,103.481635 68.1034665,103.782195 C67.8882405,104.083552 67.7808264,104.567512 67.7808264,105.233479 C67.7808264,105.921924 67.8882405,106.410857 68.1034665,106.701074 C68.3180958,106.99149 68.5872278,107.1363 68.9096691,107.1363 C69.6191989,107.1363 69.9738644,106.513099 69.9738644,105.265902 M82.3674629,98.9071863 L83.7718029,99.8432803 C84.5256908,100.345939 84.7351483,101.361797 84.2412423,102.121653 L70.1618391,123.784492 C69.6655461,124.548127 68.645311,124.767132 67.8792893,124.274221 L66.499217,123.386264 C65.729217,122.890966 65.5078246,121.864365 66.0055099,121.095758 L80.0608445,99.3845823 C80.5621103,98.6102061 81.5998499,98.3953779 82.3674629,98.9071863 M73.8119295,105.265902 C73.8119295,106.147494 73.6880054,106.942756 73.440953,107.652485 C73.1937016,108.362014 72.8549494,108.964329 72.4248951,109.458633 C71.994642,109.953335 71.4840271,110.329483 70.8930506,110.587675 C70.3014774,110.845468 69.6514231,110.974365 68.9418933,110.974365 C67.4148228,110.974365 66.2376438,110.485631 65.4101573,109.506969 C64.582472,108.528904 64.1685298,107.093732 64.1685298,105.201255 C64.1685298,103.459555 64.6144973,102.084058 65.5070289,101.072973 C66.3989638,100.062684 67.5439186,99.5572405 68.9418933,99.5572405 C70.5111338,99.5572405 71.7155642,100.051942 72.553991,101.040948 C73.3926166,102.029953 73.8119295,103.438669 73.8119295,105.265902" id="Fill-27" fill="#FDFDFF"></path>
                    <path d="M19.6265461,29.874349 L21.3742134,28.5179476 C21.634991,28.315651 22.0167089,28.4196835 22.1388427,28.7260127 L26.7007595,40.1654159 L24.3915552,41.9576401 L21.3990778,39.9112025 L19.3023146,37.9276221 L19.2605425,37.9598463 L20.6231103,40.4910398 L21.9711573,43.8359946 L19.661953,45.6282188 L9.6998915,38.3807505 C9.43294756,38.1864105 9.42678119,37.7903707 9.68775769,37.5878752 L11.4473599,36.2223237 C11.6273779,36.0824864 11.8796022,36.083481 12.0586257,36.2247107 L16.5821519,39.7932459 L18.4521519,41.6857233 L18.5215732,41.6316184 L17.1494575,39.3755244 L15.570868,35.0725949 L17.4627486,33.6042043 L21.1665461,36.280009 L23.0844846,38.0907324 L23.1262568,38.0583092 L21.8064557,35.7833183 L19.4763653,30.4651266 C19.3852622,30.2570615 19.4471248,30.0135895 19.6265461,29.874349" id="Fill-29" fill="#FFFFFF"></path>
                    <path d="M29.8609421,32.5191031 C30.0049566,32.7046908 30.1734376,32.8266257 30.3671808,32.884311 C30.5607251,32.9423942 30.7675967,32.9600976 30.9877957,32.9374213 C31.2079946,32.9149439 31.4319729,32.8489042 31.6591338,32.7395009 C31.8862948,32.6302966 32.0971447,32.4998083 32.2920814,32.3488318 C32.4866203,32.1976564 32.6612676,32.0255949 32.8154268,31.8314539 C32.969387,31.6375118 33.0865479,31.4387957 33.1665118,31.2355045 C33.2464756,31.0322134 33.2804901,30.8273309 33.2691519,30.6208571 C33.2574159,30.4145823 33.1830217,30.2230271 33.046566,30.0467884 L30.4338174,26.6803508 C30.282642,26.4858119 30.1066022,26.3549259 29.9060958,26.2876926 C29.7053906,26.2206582 29.4941429,26.202358 29.2727505,26.232792 C29.051557,26.2636239 28.8253906,26.3314539 28.5946492,26.4360832 C28.3639078,26.5407125 28.1464937,26.6723942 27.9424069,26.8307306 C27.747868,26.981906 27.5756076,27.152575 27.4262224,27.3429367 C27.2766383,27.5334973 27.1654448,27.7347993 27.092642,27.9472405 C27.0198391,28.1600796 26.9933834,28.3699349 27.0134738,28.5774033 C27.0329675,28.7848716 27.1115389,28.9764268 27.2481935,29.1528644 L29.8609421,32.5191031 Z M24.7583743,31.0853237 C24.3193689,30.5196094 24.0516293,29.9361917 23.9561501,29.3340759 C23.860472,28.7321591 23.895481,28.1401881 24.0605805,27.5587595 C24.2258788,26.9775298 24.4979946,26.4279277 24.8769277,25.9109476 C25.2560597,25.3939675 25.7004358,24.9376564 26.2104539,24.5418156 C26.7206709,24.1457758 27.2752459,23.826915 27.8749747,23.5844376 C28.4741067,23.3419602 29.0738354,23.2148535 29.6737631,23.2023219 C30.2734919,23.190387 30.8553183,23.3033707 31.4194412,23.5418698 C31.9833653,23.78017 32.48483,24.1821772 32.9238354,24.7480904 L35.5365841,28.1143291 C35.9755895,28.6800434 36.2429313,29.2642568 36.3384105,29.8657758 C36.4342875,30.4678915 36.3990796,31.0594647 36.2339801,31.6408933 C36.0686817,32.2227197 35.796566,32.7717251 35.4176329,33.2889042 C35.0385009,33.8058843 34.5941248,34.2621953 34.0839078,34.6578373 C33.5738897,35.0536781 33.0191157,35.3731356 32.4197848,35.6152152 C31.820255,35.8576926 31.2207251,35.9851971 30.6207975,35.997132 C30.0210687,36.0096637 29.4394412,35.896481 28.8753183,35.6579819 C28.3115931,35.4196817 27.8099295,35.0176745 27.3709241,34.4517613 L24.7583743,31.0853237 Z" id="Fill-31" fill="#FFFFFF"></path>
                    <path d="M41.404915,12.9722025 L42.6045714,12.0410814 C43.0382061,11.7047161 43.6735407,11.8775732 43.8768318,12.3873924 L48.276434,23.4204123 L45.9672297,25.2126365 L42.9749512,23.1661989 L40.8781881,21.1826184 L40.836217,21.2150416 L42.1989837,23.7460362 L43.5468318,27.090991 L41.2376275,28.8834141 L31.6298336,21.8935407 C31.1856564,21.5703038 31.1753128,20.9112984 31.6093454,20.5745353 L32.8195443,19.6352586 C33.1191103,19.4029259 33.5386221,19.4045172 33.8363978,19.6394358 L38.1578264,23.0482423 L40.0278264,24.9409186 L40.0972477,24.8868137 L38.725132,22.6305208 L37.1465425,18.3275913 L39.0386221,16.8592007 L42.7424195,19.5352043 L44.6601591,21.3457288 L44.7019313,21.3133056 L43.3823291,19.0385136 L41.1550778,13.9550416 C41.0033056,13.6089295 41.1063436,13.2039385 41.404915,12.9722025" id="Fill-33" fill="#FFFFFF"></path>
                    <polygon id="Fill-35" fill="#000000" points="57.5858951 180.367736 60.1721881 185.608351 65.955642 186.448568 61.770868 190.527917 62.7586799 196.287899 57.5858951 193.568333 52.4131103 196.287899 53.4009222 190.527917 49.2161483 186.448568 54.9996022 185.608351"></polygon>
                    <polygon id="Fill-37" fill="#000000" points="76.2341772 182.652354 78.0783183 186.388774 82.2016275 186.988105 79.2179024 189.896441 79.9222604 194.003042 76.2341772 192.064217 72.546094 194.003042 73.2504521 189.896441 70.2667269 186.988105 74.3900362 186.388774"></polygon>
                    <polygon id="Fill-39" fill="#000000" points="90.5063291 184.354967 91.7970886 186.970501 94.6835443 187.390013 92.5949367 189.425709 93.088047 192.300429 90.5063291 190.943231 87.9246112 192.300429 88.4177215 189.425709 86.3291139 187.390013 89.2155696 186.970501"></polygon>
                    <polygon id="Fill-41" fill="#000000" points="38.937613 182.652354 37.093472 186.388774 32.9701627 186.988105 35.9538879 189.896441 35.2495298 194.003042 38.937613 192.064217 42.6256962 194.003042 41.9213382 189.896441 44.9050633 186.988105 40.7817541 186.388774"></polygon>
                    <polygon id="Fill-43" fill="#000000" points="24.6654611 184.354967 23.3747016 186.970501 20.4882459 187.390013 22.5768535 189.425709 22.0837432 192.300429 24.6654611 190.943231 27.247179 192.300429 26.7540687 189.425709 28.8426763 187.390013 25.9562206 186.970501"></polygon>
                </g>
            </g>
        </g>
    </g>
</svg>