<?xml version="1.0" encoding="UTF-8"?>
<svg width="61px" height="60px" viewBox="0 0 61 60" version="1.1" xmlns="http://www.w3.org/2000/svg" xmlns:xlink="http://www.w3.org/1999/xlink">
    <!-- Generator: Sketch 57.1 (83088) - https://sketch.com -->
    <title>Group 12</title>
    <desc>Created with Sketch.</desc>
    <g id="Page-1" stroke="none" stroke-width="1" fill="none" fill-rule="evenodd">
        <g id="FIX" transform="translate(-487.000000, -979.000000)" fill="#101111" fill-rule="nonzero">
            <g id="Group-12" transform="translate(487.720000, 979.160000)">
                <path d="M15.556,33.84 L29.284,33.84 L29.284,32.352 L26.74,31.92 L26.502702,31.8735291 C25.4573587,31.6536871 25.2646755,31.3517371 25.25263,29.2699379 L25.252,0.384 L24.004,0.24 L23.5853125,0.695214844 C21.5096875,2.908125 19.645,4.185 15.46,5.04 L15.46,6.528 L19.972,6.528 L19.972,29.04 C19.972,31.2297931 19.5559239,31.7136742 18.5688192,31.8862156 L15.556,32.352 L15.556,33.84 Z M46.276,34.416 C52.228,34.416 59.908,29.376 59.908,16.848 C59.908,4.752 52.516,-1.30739863e-12 46.564,-1.30739863e-12 C40.612,-1.30739863e-12 32.932,5.136 32.932,17.76 C32.932,29.808 40.324,34.416 46.276,34.416 Z M46.42,32.16 C41.2649412,32.16 38.4864118,27.4069412 38.4058052,17.3039501 L38.404,16.848 C38.404,6.672 41.188,2.208 46.42,2.208 C51.748,2.208 54.436,7.152 54.436,17.76 C54.436,27.744 51.748,32.16 46.42,32.16 Z" id="10"></path>
                <path d="M4.2,22.64 L5.16,22.64 L5.16,20.08 C7.42,19.86 9.12,18.38 9.12,16.12 C9.12,14.18 7.98,13.1 5.16,11.82 L5.16,6.68 C6.28,6.74 6.54,6.94 6.62,7.64 C6.72,8.66 6.9,9.06 7.76,9.06 C8.4,9.06 8.84,8.64 8.84,8.02 C8.84,7.06 7.7,5.94 5.16,5.84 L5.16,4.16 L4.2,4.16 L4.2,5.86 C2.04,6.08 0.46,7.6 0.46,9.46 C0.46,11.4 1.54,12.46 4.2,13.64 L4.2,19.22 C2.56,19.16 2.3,18.78 2.24,18.04 C2.1,16.78 1.8,16.56 1.02,16.56 C0.48,16.56 1.33582034e-12,16.92 1.33582034e-12,17.54 C1.33582034e-12,18.84 1.28,19.98 4.2,20.08 L4.2,22.64 Z M7.3,16.76 C7.3,18.06 6.74,19.04 5.16,19.2 L5.16,14.06 C6.84,14.9 7.3,15.62 7.3,16.76 Z M2.16,8.82 C2.16,7.7 2.84,6.9 4.2,6.72 L4.2,11.38 L3.78783285,11.1562142 C2.56929705,10.4606349 2.16,9.86952381 2.16,8.82 Z" id="$"></path>
                <path d="M17.53,51.84 C17.53,56.34 20.15,59.1 24.05,59.1 C27.97,59.1 30.59,56.34 30.59,51.84 C30.59,47.34 27.97,44.58 24.05,44.58 C20.15,44.58 17.53,47.34 17.53,51.84 Z M19.97,51.84 C19.97,48.78 21.31,46.52 24.05,46.52 C26.83,46.52 28.15,48.78 28.15,51.84 C28.15,54.9 26.83,57.16 24.05,57.16 C21.31,57.16 19.97,54.9 19.97,51.84 Z M35.51,58.84 L35.51,52.6 L41.59,52.6 L41.59,50.66 L35.51,50.66 L35.51,46.78 L42.07,46.78 L42.07,44.84 L33.17,44.84 L33.17,58.84 L35.51,58.84 Z M46.73,58.84 L44.39,58.84 L44.39,44.84 L53.29,44.84 L53.29,46.78 L46.73,46.78 L46.73,50.66 L52.81,50.66 L52.81,52.6 L46.73,52.6 L46.73,58.84 Z" id="OFF"></path>
            </g>
        </g>
    </g>
</svg>