<?xml version="1.0" encoding="UTF-8"?>
<svg width="64px" height="61px" viewBox="0 0 64 61" version="1.1" xmlns="http://www.w3.org/2000/svg" xmlns:xlink="http://www.w3.org/1999/xlink">
    <!-- Generator: Sketch 57.1 (83088) - https://sketch.com -->
    <title>Group 22</title>
    <desc>Created with Sketch.</desc>
    <g id="Page-1" stroke="none" stroke-width="1" fill="none" fill-rule="evenodd">
        <g id="FIX" transform="translate(-789.000000, -977.000000)" fill="#101111" fill-rule="nonzero">
            <g id="Group-22" transform="translate(789.000000, 977.000000)">
                <path d="M20.356,36.336 C26.884,36.336 32.836,32.016 32.836,24.96 C32.836,17.616 27.268,14.448 21.124,14.448 C18.772,14.448 17.572,14.736 16.468,15.072 L17.572,6.72 L31.396,6.72 L32.26,-2.16004992e-12 L30.868,-2.16004992e-12 L30.4270437,0.833492711 C29.6386122,2.28440816 29.3388571,2.496 28.228,2.496 L15.556,2.496 L13.684,19.392 L14.02,19.68 C15.22,19.248 17.38,18.816 19.732,18.816 C24.58,18.816 28.42,20.832 28.42,26.4 C28.42,31.392 25.972,34.32 20.548,34.32 C18.1,34.32 17.764,33.792 17.38,31.632 C16.948,29.376 15.94,28.752 14.26,28.752 C12.388,28.752 11.524,30.288 11.524,31.488 C11.524,34.704 15.412,36.336 20.356,36.336 Z M50.26,36.336 C56.212,36.336 63.892,31.296 63.892,18.768 C63.892,6.672 56.5,1.92 50.548,1.92 C44.596,1.92 36.916,7.056 36.916,19.68 C36.916,31.728 44.308,36.336 50.26,36.336 Z M50.404,34.08 C45.2489412,34.08 42.4704118,29.3269412 42.3898052,19.2239501 L42.388,18.768 C42.388,8.592 45.172,4.128 50.404,4.128 C55.732,4.128 58.42,9.072 58.42,19.68 C58.42,29.664 55.732,34.08 50.404,34.08 Z" id="50"></path>
                <path d="M4.2,24.56 L5.16,24.56 L5.16,22 C7.42,21.78 9.12,20.3 9.12,18.04 C9.12,16.1 7.98,15.02 5.16,13.74 L5.16,8.6 C6.28,8.66 6.54,8.86 6.62,9.56 C6.72,10.58 6.9,10.98 7.76,10.98 C8.4,10.98 8.84,10.56 8.84,9.94 C8.84,8.98 7.7,7.86 5.16,7.76 L5.16,6.08 L4.2,6.08 L4.2,7.78 C2.04,8 0.46,9.52 0.46,11.38 C0.46,13.32 1.54,14.38 4.2,15.56 L4.2,21.14 C2.56,21.08 2.3,20.7 2.24,19.96 C2.1,18.7 1.8,18.48 1.02,18.48 C0.48,18.48 1.30739863e-12,18.84 1.30739863e-12,19.46 C1.30739863e-12,20.76 1.28,21.9 4.2,22 L4.2,24.56 Z M7.3,18.68 C7.3,19.98 6.74,20.96 5.16,21.12 L5.16,15.98 C6.84,16.82 7.3,17.54 7.3,18.68 Z M2.16,10.74 C2.16,9.62 2.84,8.82 4.2,8.64 L4.2,13.3 L3.78783285,13.0762142 C2.56929705,12.3806349 2.16,11.7895238 2.16,10.74 Z" id="$"></path>
                <path d="M17.53,53.76 C17.53,58.26 20.15,61.02 24.05,61.02 C27.97,61.02 30.59,58.26 30.59,53.76 C30.59,49.26 27.97,46.5 24.05,46.5 C20.15,46.5 17.53,49.26 17.53,53.76 Z M19.97,53.76 C19.97,50.7 21.31,48.44 24.05,48.44 C26.83,48.44 28.15,50.7 28.15,53.76 C28.15,56.82 26.83,59.08 24.05,59.08 C21.31,59.08 19.97,56.82 19.97,53.76 Z M35.51,60.76 L35.51,54.52 L41.59,54.52 L41.59,52.58 L35.51,52.58 L35.51,48.7 L42.07,48.7 L42.07,46.76 L33.17,46.76 L33.17,60.76 L35.51,60.76 Z M46.73,60.76 L44.39,60.76 L44.39,46.76 L53.29,46.76 L53.29,48.7 L46.73,48.7 L46.73,52.58 L52.81,52.58 L52.81,54.52 L46.73,54.52 L46.73,60.76 Z" id="OFF"></path>
            </g>
        </g>
    </g>
</svg>