<?xml version="1.0" encoding="UTF-8"?>
<svg width="64px" height="60px" viewBox="0 0 64 60" version="1.1" xmlns="http://www.w3.org/2000/svg" xmlns:xlink="http://www.w3.org/1999/xlink">
    <!-- Generator: Sketch 57.1 (83088) - https://sketch.com -->
    <title>Group 20</title>
    <desc>Created with Sketch.</desc>
    <g id="Page-1" stroke="none" stroke-width="1" fill="none" fill-rule="evenodd">
        <g id="FIX" transform="translate(-648.000000, -979.000000)" fill="#101111" fill-rule="nonzero">
            <g id="Group-20" transform="translate(648.000000, 979.000000)">
                <path d="M10.972,33.84 L32.524,33.84 L33.292,25.872 L31.948,25.872 L31.5717399,26.6134194 C30.1860277,29.2902382 29.6275789,29.616 27.196,29.616 L16.108,29.616 L16.108,29.424 L17.3062347,28.5512019 C25.5231915,22.5237359 32.86,16.1885538 32.86,9.504 C32.86,3.12 28.156,-1.30739863e-12 22.012,-1.30739863e-12 C15.484,-1.30739863e-12 12.124,2.4 12.124,4.896 C12.124,6.48 12.988,7.632 14.908,7.632 C16.78,7.632 17.644,6.384 17.884,4.272 C18.028,2.736 18.748,1.968 21.532,1.968 C24.556,1.968 27.484,3.936 27.484,9.168 C27.484,14.3184 25.47157,17.16888 22.1305255,20.910579 L21.292,21.84 C18.988,24.432 14.908,28.128 10.972,31.296 L10.972,33.84 Z M50.044,34.416 C55.996,34.416 63.676,29.376 63.676,16.848 C63.676,4.752 56.284,-1.30739863e-12 50.332,-1.30739863e-12 C44.38,-1.30739863e-12 36.7,5.136 36.7,17.76 C36.7,29.808 44.092,34.416 50.044,34.416 Z M50.188,32.16 C45.0329412,32.16 42.2544118,27.4069412 42.1738052,17.3039501 L42.172,16.848 C42.172,6.672 44.956,2.208 50.188,2.208 C55.516,2.208 58.204,7.152 58.204,17.76 C58.204,27.744 55.516,32.16 50.188,32.16 Z" id="20"></path>
                <path d="M4.2,22.64 L5.16,22.64 L5.16,20.08 C7.42,19.86 9.12,18.38 9.12,16.12 C9.12,14.18 7.98,13.1 5.16,11.82 L5.16,6.68 C6.28,6.74 6.54,6.94 6.62,7.64 C6.72,8.66 6.9,9.06 7.76,9.06 C8.4,9.06 8.84,8.64 8.84,8.02 C8.84,7.06 7.7,5.94 5.16,5.84 L5.16,4.16 L4.2,4.16 L4.2,5.86 C2.04,6.08 0.46,7.6 0.46,9.46 C0.46,11.4 1.54,12.46 4.2,13.64 L4.2,19.22 C2.56,19.16 2.3,18.78 2.24,18.04 C2.1,16.78 1.8,16.56 1.02,16.56 C0.48,16.56 1.30739863e-12,16.92 1.30739863e-12,17.54 C1.30739863e-12,18.84 1.28,19.98 4.2,20.08 L4.2,22.64 Z M7.3,16.76 C7.3,18.06 6.74,19.04 5.16,19.2 L5.16,14.06 C6.84,14.9 7.3,15.62 7.3,16.76 Z M2.16,8.82 C2.16,7.7 2.84,6.9 4.2,6.72 L4.2,11.38 L3.78783285,11.1562142 C2.56929705,10.4606349 2.16,9.86952381 2.16,8.82 Z" id="$"></path>
                <path d="M17.53,51.84 C17.53,56.34 20.15,59.1 24.05,59.1 C27.97,59.1 30.59,56.34 30.59,51.84 C30.59,47.34 27.97,44.58 24.05,44.58 C20.15,44.58 17.53,47.34 17.53,51.84 Z M19.97,51.84 C19.97,48.78 21.31,46.52 24.05,46.52 C26.83,46.52 28.15,48.78 28.15,51.84 C28.15,54.9 26.83,57.16 24.05,57.16 C21.31,57.16 19.97,54.9 19.97,51.84 Z M35.51,58.84 L35.51,52.6 L41.59,52.6 L41.59,50.66 L35.51,50.66 L35.51,46.78 L42.07,46.78 L42.07,44.84 L33.17,44.84 L33.17,58.84 L35.51,58.84 Z M46.73,58.84 L44.39,58.84 L44.39,44.84 L53.29,44.84 L53.29,46.78 L46.73,46.78 L46.73,50.66 L52.81,50.66 L52.81,52.6 L46.73,52.6 L46.73,58.84 Z" id="OFF"></path>
            </g>
        </g>
    </g>
</svg>