<?xml version="1.0" encoding="UTF-8"?>
<svg width="131px" height="24px" viewBox="0 0 131 24" version="1.1" xmlns="http://www.w3.org/2000/svg" xmlns:xlink="http://www.w3.org/1999/xlink">
    <!-- Generator: Sketch 55.1 (78136) - https://sketchapp.com -->
    <title>Incognito</title>
    <desc>Created with Sketch.</desc>
    <g id="Page-1" stroke="none" stroke-width="1" fill="none" fill-rule="evenodd">
        <g id="Home" transform="translate(-171.000000, -82.000000)" fill="#25F9AC" fill-rule="nonzero">
            <path d="M171.728,83.7859375 L182.96,83.7859375 L182.96,86.8099375 L178.928,86.8099375 L178.928,97.5619375 L182.96,97.5619375 L182.96,100.585938 L171.728,100.585938 L171.728,97.5619375 L175.76,97.5619375 L175.76,86.8099375 L171.728,86.8099375 L171.728,83.7859375 Z M189.584,100.585938 L186.56,100.585938 L186.56,88.6819375 L189.584,88.6819375 L189.584,90.4579375 L190.016,90.4579375 C190.288001,89.7859341 190.727997,89.2659393 191.336,88.8979375 C191.944003,88.5299357 192.655996,88.3459375 193.472,88.3459375 C194.048003,88.3459375 194.587997,88.4379366 195.092,88.6219375 C195.596003,88.8059384 196.039998,89.0899356 196.424,89.4739375 C196.808002,89.8579394 197.107999,90.3459375 197.324,90.9379375 C197.540001,91.5299405 197.648,92.2339334 197.648,93.0499375 L197.648,100.585938 L194.624,100.585938 L194.624,93.8179375 C194.624,92.9699333 194.420002,92.3019399 194.012,91.8139375 C193.603998,91.3259351 193.016004,91.0819375 192.248,91.0819375 C191.351996,91.0819375 190.684002,91.3819345 190.244,91.9819375 C189.803998,92.5819405 189.584,93.3859325 189.584,94.3939375 L189.584,100.585938 Z M212.864,96.2179375 C212.591999,97.6259445 211.948005,98.7619332 210.932,99.6259375 C209.915995,100.489942 208.560008,100.921937 206.864,100.921937 C205.983996,100.921937 205.164004,100.785939 204.404,100.513937 C203.643996,100.241936 202.984003,99.8499401 202.424,99.3379375 C201.863997,98.8259349 201.424002,98.1939413 201.104,97.4419375 C200.783998,96.6899337 200.624,95.8339423 200.624,94.8739375 L200.624,94.5859375 C200.624,93.6259327 200.783998,92.7619413 201.104,91.9939375 C201.424002,91.2259337 201.867997,90.5699402 202.436,90.0259375 C203.004003,89.4819348 203.667996,89.0659389 204.428,88.7779375 C205.188004,88.4899361 205.999996,88.3459375 206.864,88.3459375 C208.528008,88.3459375 209.875995,88.7779332 210.908,89.6419375 C211.940005,90.5059418 212.591999,91.6419305 212.864,93.0499375 L209.888,93.8179375 C209.792,93.113934 209.488003,92.5059401 208.976,91.9939375 C208.463997,91.4819349 207.744005,91.2259375 206.816,91.2259375 C206.383998,91.2259375 205.976002,91.3059367 205.592,91.4659375 C205.207998,91.6259383 204.872001,91.853936 204.584,92.1499375 C204.295999,92.445939 204.068001,92.8059354 203.9,93.2299375 C203.731999,93.6539396 203.648,94.1299349 203.648,94.6579375 L203.648,94.8019375 C203.648,95.3299401 203.731999,95.7979355 203.9,96.2059375 C204.068001,96.6139395 204.295999,96.9539361 204.584,97.2259375 C204.872001,97.4979389 205.207998,97.7019368 205.592,97.8379375 C205.976002,97.9739382 206.383998,98.0419375 206.816,98.0419375 C207.744005,98.0419375 208.451998,97.8099398 208.94,97.3459375 C209.428002,96.8819352 209.743999,96.2579414 209.888,95.4739375 L212.864,96.2179375 Z M227.6,94.7779375 C227.6,95.7699425 227.432002,96.6459337 227.096,97.4059375 C226.759998,98.1659413 226.304003,98.8059349 225.728,99.3259375 C225.151997,99.8459375 224.492004,100.241936 223.748,100.513937 C223.003996,100.785939 222.224004,100.921937 221.408,100.921937 C220.591996,100.921937 219.812004,100.785939 219.068,100.513937 C218.323996,100.241936 217.664003,99.8459375 217.088,99.3259375 C216.511997,98.8059349 216.056002,98.1659413 215.72,97.4059375 C215.383998,96.6459337 215.216,95.7699425 215.216,94.7779375 L215.216,94.4899375 C215.216,93.5139326 215.383998,92.6459413 215.72,91.8859375 C216.056002,91.1259337 216.511997,90.4819401 217.088,89.9539375 C217.664003,89.4259349 218.323996,89.0259389 219.068,88.7539375 C219.812004,88.4819361 220.591996,88.3459375 221.408,88.3459375 C222.224004,88.3459375 223.003996,88.4819361 223.748,88.7539375 C224.492004,89.0259389 225.151997,89.4259349 225.728,89.9539375 C226.304003,90.4819401 226.759998,91.1259337 227.096,91.8859375 C227.432002,92.6459413 227.6,93.5139326 227.6,94.4899375 L227.6,94.7779375 Z M221.408,98.0419375 C221.840002,98.0419375 222.247998,97.9699382 222.632,97.8259375 C223.016002,97.6819368 223.351999,97.4739389 223.64,97.2019375 C223.928001,96.9299361 224.155999,96.5979395 224.324,96.2059375 C224.492001,95.8139355 224.576,95.36994 224.576,94.8739375 L224.576,94.3939375 C224.576,93.897935 224.492001,93.4539395 224.324,93.0619375 C224.155999,92.6699355 223.928001,92.3379389 223.64,92.0659375 C223.351999,91.7939361 223.016002,91.5859382 222.632,91.4419375 C222.247998,91.2979368 221.840002,91.2259375 221.408,91.2259375 C220.975998,91.2259375 220.568002,91.2979368 220.184,91.4419375 C219.799998,91.5859382 219.464001,91.7939361 219.176,92.0659375 C218.887999,92.3379389 218.660001,92.6699355 218.492,93.0619375 C218.323999,93.4539395 218.24,93.897935 218.24,94.3939375 L218.24,94.8739375 C218.24,95.36994 218.323999,95.8139355 218.492,96.2059375 C218.660001,96.5979395 218.887999,96.9299361 219.176,97.2019375 C219.464001,97.4739389 219.799998,97.6819368 220.184,97.8259375 C220.568002,97.9699382 220.975998,98.0419375 221.408,98.0419375 Z M239.12,98.8579375 L238.688,98.8579375 C238.559999,99.1299389 238.404001,99.3899363 238.22,99.6379375 C238.035999,99.8859387 237.796001,100.105937 237.5,100.297938 C237.203999,100.489938 236.852002,100.641937 236.444,100.753938 C236.035998,100.865938 235.544003,100.921937 234.968,100.921937 C234.231996,100.921937 233.548003,100.789939 232.916,100.525937 C232.283997,100.261936 231.732002,99.8699401 231.26,99.3499375 C230.787998,98.8299349 230.420001,98.1939413 230.156,97.4419375 C229.891999,96.6899337 229.76,95.8259424 229.76,94.8499375 L229.76,94.4179375 C229.76,93.4579327 229.899999,92.6019413 230.18,91.8499375 C230.460001,91.0979337 230.843998,90.4619401 231.332,89.9419375 C231.820002,89.4219349 232.387997,89.0259389 233.036,88.7539375 C233.684003,88.4819361 234.367996,88.3459375 235.088,88.3459375 C236.048005,88.3459375 236.807997,88.5259357 237.368,88.8859375 C237.928003,89.2459393 238.367998,89.7539342 238.688,90.4099375 L239.12,90.4099375 L239.12,88.6819375 L242.144,88.6819375 L242.144,103.513937 C242.144,104.05794 241.972002,104.505936 241.628,104.857937 C241.283998,105.209939 240.840003,105.385937 240.296,105.385937 L232.28,105.385937 L232.28,102.505938 L238.472,102.505938 C238.904002,102.505938 239.12,102.26594 239.12,101.785938 L239.12,98.8579375 Z M235.952,98.0419375 C236.896005,98.0419375 237.659997,97.7419405 238.244,97.1419375 C238.828003,96.5419345 239.12,95.7539424 239.12,94.7779375 L239.12,94.4899375 C239.12,93.5139326 238.828003,92.7259375 238.244,92.1259375 C237.659997,91.5259345 236.896005,91.2259375 235.952,91.2259375 C235.007995,91.2259375 234.244003,91.5179346 233.66,92.1019375 C233.075997,92.6859404 232.784,93.4819325 232.784,94.4899375 L232.784,94.7779375 C232.784,95.7859425 233.075997,96.5819346 233.66,97.1659375 C234.244003,97.7499404 235.007995,98.0419375 235.952,98.0419375 Z M248.336,100.585938 L245.312,100.585938 L245.312,88.6819375 L248.336,88.6819375 L248.336,90.4579375 L248.768,90.4579375 C249.040001,89.7859341 249.479997,89.2659393 250.088,88.8979375 C250.696003,88.5299357 251.407996,88.3459375 252.224,88.3459375 C252.800003,88.3459375 253.339997,88.4379366 253.844,88.6219375 C254.348003,88.8059384 254.791998,89.0899356 255.176,89.4739375 C255.560002,89.8579394 255.859999,90.3459375 256.076,90.9379375 C256.292001,91.5299405 256.4,92.2339334 256.4,93.0499375 L256.4,100.585938 L253.376,100.585938 L253.376,93.8179375 C253.376,92.9699333 253.172002,92.3019399 252.764,91.8139375 C252.355998,91.3259351 251.768004,91.0819375 251,91.0819375 C250.103996,91.0819375 249.436002,91.3819345 248.996,91.9819375 C248.555998,92.5819405 248.336,93.3859325 248.336,94.3939375 L248.336,100.585938 Z M260.216,97.7059375 L264.248,97.7059375 L264.248,91.5619375 L260.504,91.5619375 L260.504,88.6819375 L267.272,88.6819375 L267.272,97.7059375 L270.728,97.7059375 L270.728,100.585938 L260.216,100.585938 L260.216,97.7059375 Z M268.016,85.1539375 C268.016,85.4739391 267.956,85.7739361 267.836,86.0539375 C267.715999,86.3339389 267.552001,86.5739365 267.344,86.7739375 C267.135999,86.9739385 266.892001,87.1339369 266.612,87.2539375 C266.331999,87.3739375 266.040002,87.4339375 265.736,87.4339375 C265.415998,87.4339375 265.120001,87.3739375 264.848,87.2539375 C264.575999,87.1339369 264.336001,86.9739385 264.128,86.7739375 C263.919999,86.5739365 263.756001,86.3339389 263.636,86.0539375 C263.515999,85.7739361 263.456,85.4739391 263.456,85.1539375 C263.456,84.8339359 263.515999,84.5339389 263.636,84.2539375 C263.756001,83.9739361 263.919999,83.7339385 264.128,83.5339375 C264.336001,83.3339365 264.575999,83.1739381 264.848,83.0539375 C265.120001,82.9339369 265.415998,82.8739375 265.736,82.8739375 C266.040002,82.8739375 266.331999,82.9339369 266.612,83.0539375 C266.892001,83.1739381 267.135999,83.3339365 267.344,83.5339375 C267.552001,83.7339385 267.715999,83.9739361 267.836,84.2539375 C267.956,84.5339389 268.016,84.8339359 268.016,85.1539375 Z M274.352,88.6819375 L277.88,88.6819375 L277.88,83.7859375 L280.904,83.7859375 L280.904,88.6819375 L285.2,88.6819375 L285.2,91.5619375 L280.904,91.5619375 L280.904,96.9859375 C280.904,97.4659399 281.119998,97.7059375 281.552,97.7059375 L284.768,97.7059375 L284.768,100.585938 L279.728,100.585938 C279.183997,100.585938 278.740002,100.409939 278.396,100.057938 C278.051998,99.7059357 277.88,99.2579402 277.88,98.7139375 L277.88,91.5619375 L274.352,91.5619375 L274.352,88.6819375 Z M301.04,94.7779375 C301.04,95.7699425 300.872002,96.6459337 300.536,97.4059375 C300.199998,98.1659413 299.744003,98.8059349 299.168,99.3259375 C298.591997,99.8459375 297.932004,100.241936 297.188,100.513937 C296.443996,100.785939 295.664004,100.921937 294.848,100.921937 C294.031996,100.921937 293.252004,100.785939 292.508,100.513937 C291.763996,100.241936 291.104003,99.8459375 290.528,99.3259375 C289.951997,98.8059349 289.496002,98.1659413 289.16,97.4059375 C288.823998,96.6459337 288.656,95.7699425 288.656,94.7779375 L288.656,94.4899375 C288.656,93.5139326 288.823998,92.6459413 289.16,91.8859375 C289.496002,91.1259337 289.951997,90.4819401 290.528,89.9539375 C291.104003,89.4259349 291.763996,89.0259389 292.508,88.7539375 C293.252004,88.4819361 294.031996,88.3459375 294.848,88.3459375 C295.664004,88.3459375 296.443996,88.4819361 297.188,88.7539375 C297.932004,89.0259389 298.591997,89.4259349 299.168,89.9539375 C299.744003,90.4819401 300.199998,91.1259337 300.536,91.8859375 C300.872002,92.6459413 301.04,93.5139326 301.04,94.4899375 L301.04,94.7779375 Z M294.848,98.0419375 C295.280002,98.0419375 295.687998,97.9699382 296.072,97.8259375 C296.456002,97.6819368 296.791999,97.4739389 297.08,97.2019375 C297.368001,96.9299361 297.595999,96.5979395 297.764,96.2059375 C297.932001,95.8139355 298.016,95.36994 298.016,94.8739375 L298.016,94.3939375 C298.016,93.897935 297.932001,93.4539395 297.764,93.0619375 C297.595999,92.6699355 297.368001,92.3379389 297.08,92.0659375 C296.791999,91.7939361 296.456002,91.5859382 296.072,91.4419375 C295.687998,91.2979368 295.280002,91.2259375 294.848,91.2259375 C294.415998,91.2259375 294.008002,91.2979368 293.624,91.4419375 C293.239998,91.5859382 292.904001,91.7939361 292.616,92.0659375 C292.327999,92.3379389 292.100001,92.6699355 291.932,93.0619375 C291.763999,93.4539395 291.68,93.897935 291.68,94.3939375 L291.68,94.8739375 C291.68,95.36994 291.763999,95.8139355 291.932,96.2059375 C292.100001,96.5979395 292.327999,96.9299361 292.616,97.2019375 C292.904001,97.4739389 293.239998,97.6819368 293.624,97.8259375 C294.008002,97.9699382 294.415998,98.0419375 294.848,98.0419375 Z" id="Incognito"></path>
        </g>
    </g>
</svg>