<?xml version="1.0" encoding="UTF-8"?>
<svg width="80px" height="80px" viewBox="0 0 80 80" version="1.1" xmlns="http://www.w3.org/2000/svg" xmlns:xlink="http://www.w3.org/1999/xlink">
    <!-- Generator: Sketch 55.2 (78181) - https://sketchapp.com -->
    <title>Blog</title>
    <desc>Created with Sketch.</desc>
    <g id="Page-1" stroke="none" stroke-width="1" fill="none" fill-rule="evenodd">
        <g id="Home-Copy-6" transform="translate(-1043.000000, -952.000000)" fill-rule="nonzero">
            <g id="Blog" transform="translate(1043.000000, 952.000000)">
                <circle id="Oval" fill="#D2FBFF" cx="40" cy="40" r="40"></circle>
                <g id="Group" transform="translate(32.888889, 18.666667)">
                    <path d="M0.888888889,41.7777778 L31.1111111,41.7777778 C32.0933333,41.7777778 32.8888889,40.9822222 32.8888889,40 L32.8888889,2.66666667 C32.8888889,1.68444444 32.0933333,0.888888889 31.1111111,0.888888889 L0.888888889,0.888888889 L0.888888889,41.7777778 Z" id="Path" fill="#FFFFFF"></path>
                    <path d="M31.1111111,42.6666667 L0.888888889,42.6666667 C0.397333333,42.6666667 0,42.2693333 0,41.7777778 L0,0.888888889 C0,0.397333333 0.397333333,0 0.888888889,0 L31.1111111,0 C32.5813333,0 33.7777778,1.19644444 33.7777778,2.66666667 L33.7777778,40 C33.7777778,41.4702222 32.5813333,42.6666667 31.1111111,42.6666667 Z M1.77777778,40.8888889 L31.1111111,40.8888889 C31.6017778,40.8888889 32,40.4906667 32,40 L32,2.66666667 C32,2.176 31.6017778,1.77777778 31.1111111,1.77777778 L1.77777778,1.77777778 L1.77777778,40.8888889 Z" id="Shape" fill="#313C42"></path>
                </g>
                <g id="Group" transform="translate(13.333333, 18.666667)">
                    <path d="M2.66666667,41.7777778 L20.4444444,41.7777778 L20.4444444,0.888888889 L2.66666667,0.888888889 C1.68444444,0.888888889 0.888888889,1.68444444 0.888888889,2.66666667 L0.888888889,40 C0.888888889,40.9822222 1.68444444,41.7777778 2.66666667,41.7777778 Z" id="Path" fill="#D2FBFF"></path>
                    <path d="M20.4444444,42.6666667 L2.66666667,42.6666667 C1.19644444,42.6666667 0,41.4702222 0,40 L0,2.66666667 C0,1.19644444 1.19644444,0 2.66666667,0 L20.4444444,0 C20.936,0 21.3333333,0.397333333 21.3333333,0.888888889 L21.3333333,41.7777778 C21.3333333,42.2693333 20.936,42.6666667 20.4444444,42.6666667 Z M2.66666667,1.77777778 C2.176,1.77777778 1.77777778,2.176 1.77777778,2.66666667 L1.77777778,40 C1.77777778,40.4906667 2.176,40.8888889 2.66666667,40.8888889 L19.5555556,40.8888889 L19.5555556,1.77777778 L2.66666667,1.77777778 Z" id="Shape" fill="#313C42"></path>
                </g>
                <g id="Group" transform="translate(18.666667, 25.777778)" fill="#313C42">
                    <path d="M32.8888889,1.77777778 L20.4444444,1.77777778 C19.9528889,1.77777778 19.5555556,1.38044444 19.5555556,0.888888889 C19.5555556,0.397333333 19.9528889,0 20.4444444,0 L32.8888889,0 C33.3804444,0 33.7777778,0.397333333 33.7777778,0.888888889 C33.7777778,1.38044444 33.3804444,1.77777778 32.8888889,1.77777778 Z" id="Path"></path>
                    <path d="M41.7777778,5.33333333 L20.4444444,5.33333333 C19.9528889,5.33333333 19.5555556,4.936 19.5555556,4.44444444 C19.5555556,3.95288889 19.9528889,3.55555556 20.4444444,3.55555556 L41.7777778,3.55555556 C42.2693333,3.55555556 42.6666667,3.95288889 42.6666667,4.44444444 C42.6666667,4.936 42.2693333,5.33333333 41.7777778,5.33333333 Z" id="Path"></path>
                    <path d="M9.77777778,24.8888889 L0.888888889,24.8888889 C0.397333333,24.8888889 0,24.4915556 0,24 C0,23.5084444 0.397333333,23.1111111 0.888888889,23.1111111 L9.77777778,23.1111111 C10.2693333,23.1111111 10.6666667,23.5084444 10.6666667,24 C10.6666667,24.4915556 10.2693333,24.8888889 9.77777778,24.8888889 Z" id="Path"></path>
                    <path d="M9.77777778,21.3333333 L0.888888889,21.3333333 C0.397333333,21.3333333 0,20.936 0,20.4444444 C0,19.9528889 0.397333333,19.5555556 0.888888889,19.5555556 L9.77777778,19.5555556 C10.2693333,19.5555556 10.6666667,19.9528889 10.6666667,20.4444444 C10.6666667,20.936 10.2693333,21.3333333 9.77777778,21.3333333 Z" id="Path"></path>
                    <path d="M9.77777778,28.4444444 L0.888888889,28.4444444 C0.397333333,28.4444444 0,28.0471111 0,27.5555556 C0,27.064 0.397333333,26.6666667 0.888888889,26.6666667 L9.77777778,26.6666667 C10.2693333,26.6666667 10.6666667,27.064 10.6666667,27.5555556 C10.6666667,28.0471111 10.2693333,28.4444444 9.77777778,28.4444444 Z" id="Path"></path>
                    <path d="M41.7777778,8.88888889 L20.4444444,8.88888889 C19.9528889,8.88888889 19.5555556,8.49155556 19.5555556,8 C19.5555556,7.50844444 19.9528889,7.11111111 20.4444444,7.11111111 L41.7777778,7.11111111 C42.2693333,7.11111111 42.6666667,7.50844444 42.6666667,8 C42.6666667,8.49155556 42.2693333,8.88888889 41.7777778,8.88888889 Z" id="Path"></path>
                    <path d="M41.7777778,12.4444444 L20.4444444,12.4444444 C19.9528889,12.4444444 19.5555556,12.0471111 19.5555556,11.5555556 C19.5555556,11.064 19.9528889,10.6666667 20.4444444,10.6666667 L41.7777778,10.6666667 C42.2693333,10.6666667 42.6666667,11.064 42.6666667,11.5555556 C42.6666667,12.0471111 42.2693333,12.4444444 41.7777778,12.4444444 Z" id="Path"></path>
                    <path d="M41.7777778,24.8888889 L20.4444444,24.8888889 C19.9528889,24.8888889 19.5555556,24.4915556 19.5555556,24 C19.5555556,23.5084444 19.9528889,23.1111111 20.4444444,23.1111111 L41.7777778,23.1111111 C42.2693333,23.1111111 42.6666667,23.5084444 42.6666667,24 C42.6666667,24.4915556 42.2693333,24.8888889 41.7777778,24.8888889 Z" id="Path"></path>
                    <path d="M41.7777778,28.4444444 L20.4444444,28.4444444 C19.9528889,28.4444444 19.5555556,28.0471111 19.5555556,27.5555556 C19.5555556,27.064 19.9528889,26.6666667 20.4444444,26.6666667 L41.7777778,26.6666667 C42.2693333,26.6666667 42.6666667,27.064 42.6666667,27.5555556 C42.6666667,28.0471111 42.2693333,28.4444444 41.7777778,28.4444444 Z" id="Path"></path>
                </g>
                <g id="Group" transform="translate(18.666667, 25.777778)">
                    <rect id="Rectangle" fill="#81E6EF" x="0.888888889" y="0.888888889" width="8.88888889" height="10.6666667"></rect>
                    <path d="M9.77777778,12.4444444 L0.888888889,12.4444444 C0.397333333,12.4444444 0,12.0471111 0,11.5555556 L0,0.888888889 C0,0.397333333 0.397333333,0 0.888888889,0 L9.77777778,0 C10.2693333,0 10.6666667,0.397333333 10.6666667,0.888888889 L10.6666667,11.5555556 C10.6666667,12.0471111 10.2693333,12.4444444 9.77777778,12.4444444 Z M1.77777778,10.6666667 L8.88888889,10.6666667 L8.88888889,1.77777778 L1.77777778,1.77777778 L1.77777778,10.6666667 Z" id="Shape" fill="#313C42"></path>
                </g>
                <path d="M27.5555556,36.4444444 C27.072,36.0177778 26.2737778,35.3697778 25.3057778,35.1973333 C25.1635556,35.1724444 25.0604444,35.0497778 25.0666667,34.9048889 C25.0737778,34.7475556 25.0728889,34.5813333 25.0728889,34.408 C25.0728889,34.0097778 25.5511111,33.5306667 25.5777778,32.9724444 C25.7368889,32.6417778 25.8284444,32.3128889 25.8284444,32.0586667 C25.8284444,31.8915556 25.7875556,31.7822222 25.7155556,31.7093333 C25.7546667,31.5013333 25.7875556,31.2817778 25.8284444,31.0551111 C25.992,30.1448889 25.6746667,29.488 24.8746667,29.2044444 C24.5857778,29.1022222 23.3893333,28.8951111 22.9431111,28.4622222 C22.7813333,28.3057778 22.8924444,29.1866667 22.7457778,29.2524444 C21.9617778,29.6044444 21.6515556,30.1528889 21.8133333,31.0551111 C21.8542222,31.2817778 21.8871111,31.5013333 21.9262222,31.7093333 C21.8542222,31.7822222 21.8133333,31.8915556 21.8133333,32.0586667 C21.8133333,32.3128889 21.9048889,32.6417778 22.064,32.9724444 C22.0897778,33.5306667 22.5688889,33.9822222 22.5688889,34.408 C22.568,34.5813333 22.568,34.7475556 22.5751111,34.9048889 C22.5813333,35.0488889 22.4782222,35.1715556 22.336,35.1973333 C21.368,35.3688889 20.5697778,36.0168889 20.0862222,36.4444444 L24,37.3333333 L27.5555556,36.4444444 Z" id="Path" fill="#313C42"></path>
            </g>
        </g>
    </g>
</svg>