<?xml version="1.0" encoding="UTF-8"?>
<svg width="80px" height="80px" viewBox="0 0 80 80" version="1.1" xmlns="http://www.w3.org/2000/svg" xmlns:xlink="http://www.w3.org/1999/xlink">
    <!-- Generator: Sketch 55.2 (78181) - https://sketchapp.com -->
    <title>Open source hardware</title>
    <desc>Created with Sketch.</desc>
    <g id="Page-1" stroke="none" stroke-width="1" fill="none" fill-rule="evenodd">
        <g id="Home-Copy-6" transform="translate(-433.000000, -912.000000)" fill-rule="nonzero">
            <g id="Open-source-hardware" transform="translate(433.000000, 912.000000)">
                <circle id="Oval" fill="#D2FBFF" cx="40" cy="40" r="40"></circle>
                <g id="Group" transform="translate(13.333333, 22.222222)">
                    <path d="M52.4444444,13.4231111 L52.4444444,2.66666667 C52.4444444,1.68444444 51.648,0.888888889 50.6666667,0.888888889 L2.66666667,0.888888889 C1.68444444,0.888888889 0.888888889,1.68444444 0.888888889,2.66666667 L0.888888889,13.4231111 C2.91733333,13.8346667 4.44444444,15.6275556 4.44444444,17.7777778 C4.44444444,19.928 2.91733333,21.7208889 0.888888889,22.1324444 L0.888888889,32.8888889 C0.888888889,33.8711111 1.68444444,34.6666667 2.66666667,34.6666667 L7.11111111,34.6666667 L7.11111111,31.1111111 C7.11111111,30.1288889 7.90666667,29.3333333 8.88888889,29.3333333 C9.87022222,29.3333333 10.6666667,30.1288889 10.6666667,31.1111111 L10.6666667,34.6666667 L16,34.6666667 L16,31.1111111 C16,30.1288889 16.7955556,29.3333333 17.7777778,29.3333333 C18.7591111,29.3333333 19.5555556,30.1288889 19.5555556,31.1111111 L19.5555556,34.6666667 L24.8888889,34.6666667 L24.8888889,31.1111111 C24.8888889,30.1288889 25.6844444,29.3333333 26.6666667,29.3333333 C27.648,29.3333333 28.4444444,30.1288889 28.4444444,31.1111111 L28.4444444,34.6666667 L33.7777778,34.6666667 L33.7777778,31.1111111 C33.7777778,30.1288889 34.5733333,29.3333333 35.5555556,29.3333333 C36.5368889,29.3333333 37.3333333,30.1288889 37.3333333,31.1111111 L37.3333333,34.6666667 L42.6666667,34.6666667 L42.6666667,31.1111111 C42.6666667,30.1288889 43.4622222,29.3333333 44.4444444,29.3333333 C45.4257778,29.3333333 46.2222222,30.1288889 46.2222222,31.1111111 L46.2222222,34.6666667 L50.6666667,34.6666667 C51.648,34.6666667 52.4444444,33.8711111 52.4444444,32.8888889 L52.4444444,22.1324444 C50.416,21.7208889 48.8888889,19.928 48.8888889,17.7777778 C48.8888889,15.6275556 50.416,13.8346667 52.4444444,13.4231111 Z" id="Path" fill="#5BE3F0"></path>
                    <path d="M50.6666667,35.5555556 L46.2222222,35.5555556 C45.7306667,35.5555556 45.3333333,35.1573333 45.3333333,34.6666667 L45.3333333,31.1111111 C45.3333333,30.6213333 44.9351111,30.2222222 44.4444444,30.2222222 C43.9537778,30.2222222 43.5555556,30.6213333 43.5555556,31.1111111 L43.5555556,34.6666667 C43.5555556,35.1573333 43.1582222,35.5555556 42.6666667,35.5555556 L37.3333333,35.5555556 C36.8417778,35.5555556 36.4444444,35.1573333 36.4444444,34.6666667 L36.4444444,31.1111111 C36.4444444,30.6213333 36.0462222,30.2222222 35.5555556,30.2222222 C35.0648889,30.2222222 34.6666667,30.6213333 34.6666667,31.1111111 L34.6666667,34.6666667 C34.6666667,35.1573333 34.2693333,35.5555556 33.7777778,35.5555556 L28.4444444,35.5555556 C27.9528889,35.5555556 27.5555556,35.1573333 27.5555556,34.6666667 L27.5555556,31.1111111 C27.5555556,30.6213333 27.1573333,30.2222222 26.6666667,30.2222222 C26.176,30.2222222 25.7777778,30.6213333 25.7777778,31.1111111 L25.7777778,34.6666667 C25.7777778,35.1573333 25.3804444,35.5555556 24.8888889,35.5555556 L19.5555556,35.5555556 C19.064,35.5555556 18.6666667,35.1573333 18.6666667,34.6666667 L18.6666667,31.1111111 C18.6666667,30.6213333 18.2684444,30.2222222 17.7777778,30.2222222 C17.2871111,30.2222222 16.8888889,30.6213333 16.8888889,31.1111111 L16.8888889,34.6666667 C16.8888889,35.1573333 16.4915556,35.5555556 16,35.5555556 L10.6666667,35.5555556 C10.1751111,35.5555556 9.77777778,35.1573333 9.77777778,34.6666667 L9.77777778,31.1111111 C9.77777778,30.6213333 9.37955556,30.2222222 8.88888889,30.2222222 C8.39822222,30.2222222 8,30.6213333 8,31.1111111 L8,34.6666667 C8,35.1573333 7.60266667,35.5555556 7.11111111,35.5555556 L2.66666667,35.5555556 C1.19644444,35.5555556 0,34.3591111 0,32.8888889 L0,22.1324444 C0,21.7093333 0.297777778,21.3457778 0.712,21.2613333 C2.35911111,20.9271111 3.55555556,19.4622222 3.55555556,17.7777778 C3.55555556,16.0933333 2.35911111,14.6284444 0.712,14.2942222 C0.297777778,14.2097778 0,13.8453333 0,13.4231111 L0,2.66666667 C0,1.19644444 1.19644444,0 2.66666667,0 L50.6666667,0 C52.1368889,0 53.3333333,1.19644444 53.3333333,2.66666667 L53.3333333,13.4231111 C53.3333333,13.8462222 53.0355556,14.2097778 52.6213333,14.2942222 C50.9742222,14.6284444 49.7777778,16.0933333 49.7777778,17.7777778 C49.7777778,19.4622222 50.9742222,20.9271111 52.6213333,21.2613333 C53.0355556,21.3457778 53.3333333,21.7102222 53.3333333,22.1324444 L53.3333333,32.8888889 C53.3333333,34.3591111 52.1368889,35.5555556 50.6666667,35.5555556 Z M47.1111111,33.7777778 L50.6666667,33.7777778 C51.1573333,33.7777778 51.5555556,33.3786667 51.5555556,32.8888889 L51.5555556,22.8071111 C49.4577778,22.0648889 48,20.0542222 48,17.7777778 C48,15.5013333 49.4577778,13.4915556 51.5555556,12.7484444 L51.5555556,2.66666667 C51.5555556,2.17688889 51.1573333,1.77777778 50.6666667,1.77777778 L2.66666667,1.77777778 C2.176,1.77777778 1.77777778,2.17688889 1.77777778,2.66666667 L1.77777778,12.7484444 C3.87555556,13.4906667 5.33333333,15.5013333 5.33333333,17.7777778 C5.33333333,20.0542222 3.87555556,22.064 1.77777778,22.8071111 L1.77777778,32.8888889 C1.77777778,33.3786667 2.176,33.7777778 2.66666667,33.7777778 L6.22222222,33.7777778 L6.22222222,31.1111111 C6.22222222,29.6408889 7.41866667,28.4444444 8.88888889,28.4444444 C10.3591111,28.4444444 11.5555556,29.6408889 11.5555556,31.1111111 L11.5555556,33.7777778 L15.1111111,33.7777778 L15.1111111,31.1111111 C15.1111111,29.6408889 16.3075556,28.4444444 17.7777778,28.4444444 C19.248,28.4444444 20.4444444,29.6408889 20.4444444,31.1111111 L20.4444444,33.7777778 L24,33.7777778 L24,31.1111111 C24,29.6408889 25.1964444,28.4444444 26.6666667,28.4444444 C28.1368889,28.4444444 29.3333333,29.6408889 29.3333333,31.1111111 L29.3333333,33.7777778 L32.8888889,33.7777778 L32.8888889,31.1111111 C32.8888889,29.6408889 34.0853333,28.4444444 35.5555556,28.4444444 C37.0257778,28.4444444 38.2222222,29.6408889 38.2222222,31.1111111 L38.2222222,33.7777778 L41.7777778,33.7777778 L41.7777778,31.1111111 C41.7777778,29.6408889 42.9742222,28.4444444 44.4444444,28.4444444 C45.9146667,28.4444444 47.1111111,29.6408889 47.1111111,31.1111111 L47.1111111,33.7777778 Z" id="Shape" fill="#313C42"></path>
                </g>
                <g id="Group" transform="translate(22.222222, 27.555556)">
                    <rect id="Rectangle" fill="#FFFFFF" x="0.888888889" y="0.888888889" width="8.88888889" height="16"></rect>
                    <path d="M9.77777778,17.7777778 L0.888888889,17.7777778 C0.397333333,17.7777778 0,17.3795556 0,16.8888889 L0,0.888888889 C0,0.398222222 0.397333333,0 0.888888889,0 L9.77777778,0 C10.2693333,0 10.6666667,0.398222222 10.6666667,0.888888889 L10.6666667,16.8888889 C10.6666667,17.3795556 10.2693333,17.7777778 9.77777778,17.7777778 Z M1.77777778,16 L8.88888889,16 L8.88888889,1.77777778 L1.77777778,1.77777778 L1.77777778,16 Z" id="Shape" fill="#313C42"></path>
                </g>
                <g id="Group" transform="translate(34.666667, 27.555556)">
                    <rect id="Rectangle" fill="#FFFFFF" x="0.888888889" y="0.888888889" width="8.88888889" height="16"></rect>
                    <path d="M9.77777778,17.7777778 L0.888888889,17.7777778 C0.397333333,17.7777778 0,17.3795556 0,16.8888889 L0,0.888888889 C0,0.398222222 0.397333333,0 0.888888889,0 L9.77777778,0 C10.2693333,0 10.6666667,0.398222222 10.6666667,0.888888889 L10.6666667,16.8888889 C10.6666667,17.3795556 10.2693333,17.7777778 9.77777778,17.7777778 Z M1.77777778,16 L8.88888889,16 L8.88888889,1.77777778 L1.77777778,1.77777778 L1.77777778,16 Z" id="Shape" fill="#313C42"></path>
                </g>
                <g id="Group" transform="translate(47.111111, 27.555556)">
                    <rect id="Rectangle" fill="#FFFFFF" x="0.888888889" y="0.888888889" width="8.88888889" height="16"></rect>
                    <path d="M9.77777778,17.7777778 L0.888888889,17.7777778 C0.397333333,17.7777778 0,17.3795556 0,16.8888889 L0,0.888888889 C0,0.398222222 0.397333333,0 0.888888889,0 L9.77777778,0 C10.2693333,0 10.6666667,0.398222222 10.6666667,0.888888889 L10.6666667,16.8888889 C10.6666667,17.3795556 10.2693333,17.7777778 9.77777778,17.7777778 Z M1.77777778,16 L8.88888889,16 L8.88888889,1.77777778 L1.77777778,1.77777778 L1.77777778,16 Z" id="Shape" fill="#313C42"></path>
                </g>
            </g>
        </g>
    </g>
</svg>