<?xml version="1.0" encoding="UTF-8"?>
<svg width="80px" height="80px" viewBox="0 0 80 80" version="1.1" xmlns="http://www.w3.org/2000/svg" xmlns:xlink="http://www.w3.org/1999/xlink">
    <!-- Generator: Sketch 55.2 (78181) - https://sketchapp.com -->
    <title>Open source software</title>
    <desc>Created with Sketch.</desc>
    <g id="Page-1" stroke="none" stroke-width="1" fill="none" fill-rule="evenodd">
        <g id="Home-Copy-6" transform="translate(-283.000000, -977.000000)">
            <g id="Open-source-software" transform="translate(283.000000, 977.000000)">
                <path d="M40,0 C62.0913386,0 80,17.9086614 80,40 C80,62.0913386 62.0913386,80 40,80 C17.9086614,80 0,62.0913386 0,40 C0,17.9086614 17.9086614,0 40,0" id="Fill-1" fill="#D2FBFF"></path>
                <path d="M21.2284724,68.7244724 C20.4725669,68.7244724 19.9056378,68.0945512 19.9056378,67.4016378 L19.9056378,60.2835276 C19.9056378,59.527622 20.5355591,58.9606929 21.2284724,58.9606929 C21.984378,58.9606929 22.5513071,59.5906142 22.5513071,60.2835276 L22.5513071,67.4016378 C22.5513071,68.1575433 21.984378,68.7244724 21.2284724,68.7244724" id="Fill-3" fill="#313C42"></path>
                <path d="M18.3938268,71.496378 L8.12611024,71.496378 C7.37020472,71.496378 6.80327559,70.8664567 6.80327559,70.1729134 C6.80327559,69.4806299 7.43319685,68.8507087 8.12611024,68.8507087 L18.3308346,68.8507087 C19.0867402,68.8507087 19.6536693,69.4806299 19.6536693,70.1729134 C19.6536693,70.8664567 19.0867402,71.496378 18.3938268,71.496378" id="Fill-5" stroke="#D2FBFF" stroke-width="0.5" fill="#313C42"></path>
                <path d="M12.9133228,60.2832756 C11.1495433,60.2832756 9.76371654,58.8980787 9.76371654,57.1336693 L9.76371654,37.3541417 C9.76371654,35.5903622 11.1495433,34.2045354 12.9133228,34.2045354 L29.5432441,34.2045354 C31.3070236,34.2045354 32.6928504,35.5903622 32.6928504,37.3541417 L32.6928504,57.1336693 C32.6928504,58.8980787 31.2440315,60.2832756 29.5432441,60.2832756 L12.9133228,60.2832756 Z" id="Fill-7" fill="#AEF8FF"></path>
                <path d="M13.1022362,35.5274961 C11.968378,35.5274961 11.0864882,36.4093858 11.0864882,37.5432441 L11.0864882,56.9448189 C11.0864882,58.0786772 11.968378,58.9605669 13.1022362,58.9605669 L29.2912126,58.9605669 C30.4250709,58.9605669 31.3069606,58.0786772 31.3069606,56.9448189 L31.3069606,37.5432441 C31.3069606,36.4093858 30.4250709,35.5274961 29.2912126,35.5274961 L13.1022362,35.5274961 Z M29.3542047,61.6692283 L13.1022362,61.6692283 C10.5195591,61.6692283 8.4408189,59.5904882 8.4408189,57.0084409 L8.4408189,37.5432441 C8.4408189,34.9605669 10.5195591,32.8818268 13.1022362,32.8818268 L29.2912126,32.8818268 C31.8738898,32.8818268 33.9526299,34.9605669 33.9526299,37.5432441 L33.9526299,56.9448189 C34.015622,59.528126 31.9368819,61.6692283 29.3542047,61.6692283 L29.3542047,61.6692283 Z" id="Fill-9" stroke="#D2FBFF" stroke-width="0.5" fill="#313C42"></path>
                <path d="M21.2284724,38.488252 C23.2114646,38.488252 24.8190236,40.095811 24.8190236,42.0788031 C24.8190236,44.0617953 23.2114646,45.6693543 21.2284724,45.6693543 C19.2454803,45.6693543 17.6379213,44.0617953 17.6379213,42.0788031 C17.6379213,40.095811 19.2454803,38.488252 21.2284724,38.488252" id="Fill-11" fill="#FFFFFF"></path>
                <path d="M21.2284724,39.8111496 C19.9686299,39.8111496 18.9607559,40.8190236 18.9607559,42.0788661 C18.9607559,43.3387087 19.9686299,44.3465827 21.2284724,44.3465827 C22.488315,44.3465827 23.496189,43.3387087 23.496189,42.0788661 C23.496189,40.8190236 22.488315,39.8111496 21.2284724,39.8111496 M21.2284724,46.992252 C18.519811,46.992252 16.3150866,44.7875276 16.3150866,42.0788661 C16.3150866,39.3702047 18.519811,37.1654803 21.2284724,37.1654803 C23.9371339,37.1654803 26.1418583,39.3702047 26.1418583,42.0788661 C26.1418583,44.7875276 23.9371339,46.992252 21.2284724,46.992252" id="Fill-13" stroke="#D2FBFF" stroke-width="0.5" fill="#313C42"></path>
                <path d="M27.9684409,56.0633071 C27.9054488,52.4091339 24.8818268,49.4491339 21.2282835,49.4491339 C17.5747402,49.4491339 14.5511181,52.4091339 14.488126,56.0633071 L27.9684409,56.0633071 Z" id="Fill-15" fill="#FFFFFF"></path>
                <path d="M15.999937,54.6773543 L26.3936378,54.6773543 C25.7637165,52.4090079 23.6219843,50.7718425 21.1652913,50.7718425 C18.7715906,50.7718425 16.6928504,52.4726299 15.999937,54.6773543 M27.9684409,57.3860157 L14.488126,57.3860157 C14.1101732,57.3860157 13.7952126,57.2600315 13.5432441,57.008063 C13.2912756,56.7560945 13.1652913,56.3781417 13.1652913,56.0631811 C13.2912756,51.7167244 16.8818268,48.1261732 21.2282835,48.1261732 C25.5747402,48.1261732 29.2282835,51.6537323 29.2912756,56.0631811 C29.2912756,56.4411339 29.1652913,56.7560945 28.9133228,57.008063 C28.6613543,57.2600315 28.3463937,57.3860157 27.9684409,57.3860157" id="Fill-17" stroke="#D2FBFF" stroke-width="0.5" fill="#313C42"></path>
                <path d="M58.7715276,68.7244724 C58.015622,68.7244724 57.4486929,68.0945512 57.4486929,67.4016378 L57.4486929,60.2835276 C57.4486929,59.527622 58.0786142,58.9606929 58.7715276,58.9606929 C59.4650709,58.9606929 60.0949921,59.5906142 60.0949921,60.2835276 L60.0949921,67.4016378 C60.0949921,68.1575433 59.5274331,68.7244724 58.7715276,68.7244724" id="Fill-19" fill="#313C42"></path>
                <path d="M37.1653543,71.496378 L24.0629921,71.496378 C23.3070866,71.496378 22.7401575,70.8664567 22.7401575,70.1729134 C22.7401575,69.4806299 23.3700787,68.8507087 24.0629921,68.8507087 L37.1023622,68.8507087 C37.8582677,68.8507087 38.4251969,69.4806299 38.4251969,70.1729134 C38.4251969,70.8664567 37.8582677,71.496378 37.1653543,71.496378" id="Fill-21" stroke="#D2FBFF" stroke-width="0.5" fill="#313C42"></path>
                <path d="M55.9368819,71.496378 L42.8345197,71.496378 C42.0786142,71.496378 41.512315,70.8664567 41.512315,70.1729134 C41.512315,69.4806299 42.1422362,68.8507087 42.8345197,68.8507087 L55.8738898,68.8507087 C56.6304252,68.8507087 57.1967244,69.4806299 57.1967244,70.1729134 C57.1967244,70.8664567 56.6304252,71.496378 55.9368819,71.496378" id="Fill-23" stroke="#D2FBFF" stroke-width="0.5" fill="#313C42"></path>
                <path d="M71.8737638,71.496378 L61.6060472,71.496378 C60.8501417,71.496378 60.2838425,70.8664567 60.2838425,70.1729134 C60.2838425,69.4806299 60.9137638,68.8507087 61.6060472,68.8507087 L71.8107717,68.8507087 C72.5673071,68.8507087 73.1336063,69.4806299 73.1336063,70.1729134 C73.1336063,70.8664567 72.5673071,71.496378 71.8737638,71.496378" id="Fill-25" stroke="#D2FBFF" stroke-width="0.5" fill="#313C42"></path>
                <path d="M50.6459213,35.5274961 C49.5114331,35.5274961 48.6301732,36.4093858 48.6301732,37.5432441 L48.6301732,56.9448189 C48.6301732,58.0786772 49.5114331,58.9605669 50.6459213,58.9605669 L66.8342677,58.9605669 C67.9687559,58.9605669 68.8500157,58.0786772 68.8500157,56.9448189 L68.8500157,37.5432441 C68.8500157,36.4093858 67.9687559,35.5274961 66.8342677,35.5274961 L50.6459213,35.5274961 Z M66.8978898,61.6692283 L50.6459213,61.6692283 C48.0626142,61.6692283 45.9845039,59.5904882 45.9845039,57.0084409 L45.9845039,37.5432441 C45.9845039,34.9605669 48.0626142,32.8818268 50.6459213,32.8818268 L66.8342677,32.8818268 C69.4175748,32.8818268 71.496315,34.9605669 71.496315,37.5432441 L71.496315,56.9448189 C71.5586772,59.528126 69.479937,61.6692283 66.8978898,61.6692283 L66.8978898,61.6692283 Z" id="Fill-29" stroke="#D2FBFF" stroke-width="0.5" fill="#313C42"></path>
                <path d="M58.7715276,38.488252 C60.7545197,38.488252 62.3620787,40.095811 62.3620787,42.0788031 C62.3620787,44.0617953 60.7545197,45.6693543 58.7715276,45.6693543 C56.7891654,45.6693543 55.1809764,44.0617953 55.1809764,42.0788031 C55.1809764,40.095811 56.7891654,38.488252 58.7715276,38.488252" id="Fill-31" fill="#AEF8FF"></path>
                <path d="M58.7715276,39.8111496 C57.511685,39.8111496 56.503811,40.8190236 56.503811,42.0788661 C56.503811,43.3387087 57.511685,44.3465827 58.7715276,44.3465827 C60.0313701,44.3465827 61.039874,43.3387087 61.039874,42.0788661 C61.039874,40.8190236 60.0313701,39.8111496 58.7715276,39.8111496 M58.7715276,46.992252 C56.0628661,46.992252 53.8581417,44.7875276 53.8581417,42.0788661 C53.8581417,39.3702047 56.0628661,37.1654803 58.7715276,37.1654803 C61.480189,37.1654803 63.6849134,39.3702047 63.6849134,42.0788661 C63.6849134,44.7875276 61.480189,46.992252 58.7715276,46.992252" id="Fill-33" stroke="#D2FBFF" stroke-width="0.5" fill="#313C42"></path>
                <path d="M52.0312441,56.0633071 C52.0948661,52.4091339 55.1178583,49.4491339 58.7714016,49.4491339 C62.4249449,49.4491339 65.4491969,52.4091339 65.5115591,56.0633071 L52.0312441,56.0633071 Z" id="Fill-35" fill="#AEF8FF"></path>
                <path d="M53.5433071,54.6773543 L63.9370079,54.6773543 C63.3070866,52.4090079 61.1653543,50.7718425 58.7086614,50.7718425 C56.3149606,50.7718425 54.2362205,52.4726299 53.5433071,54.6773543 M65.511811,57.3860157 L65.511811,57.3860157 L52.0314961,57.3860157 C51.6535433,57.3860157 51.3385827,57.2600315 51.0866142,57.008063 C50.8346457,56.7560945 50.7086614,56.3781417 50.7086614,56.0631811 C50.8346457,51.7167244 54.4251969,48.1261732 58.7716535,48.1261732 C63.0551181,48.1261732 66.6456693,51.5907402 66.8346457,55.8112126 L66.8346457,56.0631811 C66.8976378,56.7560945 66.2677165,57.3860157 65.511811,57.3860157" id="Fill-37" stroke="#D2FBFF" stroke-width="0.5" fill="#313C42"></path>
                <path d="M40,68.7244724 C39.2440945,68.7244724 38.6771654,68.0945512 38.6771654,67.4016378 L38.6771654,29.2284094 C38.6771654,28.4725039 39.3070866,27.9055748 40,27.9055748 C40.6929134,27.9055748 41.3228346,28.5354961 41.3228346,29.2284094 L41.3228346,67.4016378 C41.3228346,68.1575433 40.7559055,68.7244724 40,68.7244724" id="Fill-39" stroke="#D2FBFF" stroke-width="0.5" fill="#313C42"></path>
                <path d="M31.6849134,29.2282835 L48.3148346,29.2282835 C50.0786142,29.2282835 51.4644409,27.8424567 51.4644409,26.0786772 L51.4644409,6.29914961 C51.4644409,4.53537008 50.0786142,3.14954331 48.3148346,3.14954331 L31.6849134,3.14954331 C29.9211339,3.14954331 28.5353071,4.53537008 28.5353071,6.29914961 L28.5353071,26.0786772 C28.5353071,27.8424567 29.984126,29.2282835 31.6849134,29.2282835" id="Fill-41" fill="#FFFFFF"></path>
                <path d="M31.8740787,4.47250394 C30.7402205,4.47250394 29.8583307,5.3543937 29.8583307,6.48825197 L29.8583307,25.8898268 C29.8583307,27.023685 30.7402205,27.9055748 31.8740787,27.9055748 L48.0630551,27.9055748 C49.1969134,27.9055748 50.0788031,27.023685 50.0788031,25.8898268 L50.0788031,6.48825197 C50.0788031,5.3543937 49.1969134,4.47250394 48.0630551,4.47250394 L31.8740787,4.47250394 Z M48.1260472,30.5512441 L31.8740787,30.5512441 C29.2914016,30.5512441 27.2126614,28.4725039 27.2126614,25.8898268 L27.2126614,6.48825197 C27.2126614,3.9055748 29.2914016,1.82683465 31.8740787,1.82683465 L48.0630551,1.82683465 C50.6457323,1.82683465 52.7244724,3.9055748 52.7244724,6.48825197 L52.7244724,25.8898268 C52.7874646,28.4725039 50.7087244,30.5512441 48.1260472,30.5512441 L48.1260472,30.5512441 Z" id="Fill-43" stroke="#D2FBFF" stroke-width="0.5" fill="#313C42"></path>
                <path d="M40,7.37020472 C41.9829921,7.37020472 43.5905512,8.97776378 43.5905512,10.9607559 C43.5905512,12.943748 41.9829921,14.5513071 40,14.5513071 C38.0170079,14.5513071 36.4094488,12.943748 36.4094488,10.9607559 C36.4094488,8.97776378 38.0170079,7.37020472 40,7.37020472" id="Fill-45" fill="#E8E8E8"></path>
                <path d="M40,8.75584252 C38.7401575,8.75584252 37.7322835,9.76371654 37.7322835,11.0235591 C37.7322835,12.2834016 38.7401575,13.2912756 40,13.2912756 C41.2598425,13.2912756 42.2677165,12.2834016 42.2677165,11.0235591 C42.2677165,9.76371654 41.2598425,8.75584252 40,8.75584252 M40,15.9369449 C37.2913386,15.9369449 35.0866142,13.7322205 35.0866142,11.0235591 C35.0866142,8.31489764 37.2913386,6.11017323 40,6.11017323 C42.7086614,6.11017323 44.9133858,8.31489764 44.9133858,11.0235591 C44.9133858,13.7322205 42.7086614,15.9369449 40,15.9369449" id="Fill-47" stroke="#D2FBFF" stroke-width="0.5" fill="#313C42"></path>
                <path d="M33.2597165,25.008 C33.3227087,21.3544567 36.3463307,18.3938268 39.999874,18.3938268 C43.6534173,18.3938268 46.6770394,21.3544567 46.7400315,25.008 L33.2597165,25.008 Z" id="Fill-49" fill="#AEF8FF"></path>
                <path d="M34.7717795,23.6220472 L45.1654803,23.6220472 C44.5355591,21.3543307 42.3938268,19.7165354 39.9371339,19.7165354 C37.4804409,19.7165354 35.4646929,21.3543307 34.7717795,23.6220472 M46.7402835,26.3307087 L46.7402835,26.3307087 L33.2599685,26.3307087 C32.8820157,26.3307087 32.5670551,26.2047244 32.3150866,25.9527559 C32.0631181,25.7007874 31.9371339,25.3228346 31.9371339,25.007874 C32.0631181,20.6614173 35.6536693,17.0708661 40.000126,17.0708661 C44.2835906,17.0708661 47.8741417,20.5354331 48.0631181,24.7559055 L48.0631181,25.007874 C48.1261102,25.7007874 47.496189,26.3307087 46.7402835,26.3307087" id="Fill-51" stroke="#D2FBFF" stroke-width="0.5" fill="#313C42"></path>
                <path d="M63.4331969,70.1731654 L63.4331969,70.1731654 C63.4331969,67.7171024 61.4174488,65.7007244 58.960126,65.7007244 L58.519811,65.7007244 C56.0631181,65.7007244 54.0473701,67.7171024 54.0473701,70.1731654 C54.0473701,72.6298583 56.0631181,74.6462362 58.519811,74.6462362 L58.960126,74.6462362 C61.479811,74.6462362 63.4331969,72.6298583 63.4331969,70.1731654" id="Fill-53" fill="#FFFFFF"></path>
                <path d="M58.519937,67.0869291 C56.8191496,67.0869291 55.3703307,68.472126 55.3703307,70.2365354 C55.3703307,71.9366929 56.7555276,73.3861417 58.519937,73.3861417 L58.960252,73.3861417 C60.6610394,73.3861417 62.1098583,72.000315 62.1098583,70.2365354 C62.1098583,68.535748 60.7246614,67.0869291 58.960252,67.0869291 L58.519937,67.0869291 Z M58.960252,75.9688189 L58.519937,75.9688189 C55.3067087,75.9688189 52.7246614,73.3861417 52.7246614,70.1729134 C52.7246614,66.9609449 55.3067087,64.3776378 58.519937,64.3776378 L58.960252,64.3776378 C62.1734803,64.3776378 64.7555276,66.9609449 64.7555276,70.1729134 C64.8191496,73.3861417 62.1734803,75.9688189 58.960252,75.9688189 L58.960252,75.9688189 Z" id="Fill-55" stroke="#D2FBFF" stroke-width="0.5" fill="#313C42"></path>
                <path d="M44.6616693,70.1731654 L44.6616693,70.1731654 C44.6616693,67.7171024 42.6459213,65.7007244 40.1885984,65.7007244 L39.7482835,65.7007244 C37.2915906,65.7007244 35.2758425,67.7171024 35.2758425,70.1731654 C35.2758425,72.6298583 37.2915906,74.6462362 39.7482835,74.6462362 L40.1885984,74.6462362 C42.7082835,74.6462362 44.6616693,72.6298583 44.6616693,70.1731654" id="Fill-57" fill="#FFFFFF"></path>
                <path d="M39.7480945,67.0869291 C38.0473071,67.0869291 36.5984882,68.472126 36.5984882,70.2365354 C36.5984882,71.9366929 37.984315,73.3861417 39.7480945,73.3861417 L40.1890394,73.3861417 C41.8898268,73.3861417 43.3386457,72.000315 43.3386457,70.2365354 C43.3386457,68.535748 41.9528189,67.0869291 40.1890394,67.0869291 L39.7480945,67.0869291 Z M40.2520315,75.9688189 L39.8110866,75.9688189 C36.5984882,75.9688189 34.015811,73.3861417 34.015811,70.1729134 C34.015811,66.9609449 36.5984882,64.3776378 39.8110866,64.3776378 L40.2520315,64.3776378 C43.4646299,64.3776378 46.0473071,66.9609449 46.0473071,70.1729134 C46.0473071,73.3861417 43.4016378,75.9688189 40.2520315,75.9688189 L40.2520315,75.9688189 Z" id="Fill-59" stroke="#D2FBFF" stroke-width="0.5" fill="#313C42"></path>
                <path d="M25.8898268,70.1731654 L25.8898268,70.1731654 C25.8898268,67.7171024 23.8740787,65.7007244 21.4173858,65.7007244 L20.9764409,65.7007244 C18.519748,65.7007244 16.504,67.7171024 16.504,70.1731654 C16.504,72.6298583 18.519748,74.6462362 20.9764409,74.6462362 L21.4173858,74.6462362 C23.9370709,74.6462362 25.8898268,72.6298583 25.8898268,70.1731654" id="Fill-61" fill="#FFFFFF"></path>
                <path d="M21.0393071,67.0869291 C19.3385197,67.0869291 17.8897008,68.472126 17.8897008,70.2365354 C17.8897008,71.9366929 19.2755276,73.3861417 21.0393071,73.3861417 L21.480252,73.3861417 C23.1810394,73.3861417 24.6298583,72.000315 24.6298583,70.2365354 C24.6298583,68.535748 23.2440315,67.0869291 21.480252,67.0869291 L21.0393071,67.0869291 Z M21.480252,75.9688189 L21.0393071,75.9688189 C17.8267087,75.9688189 15.2440315,73.3861417 15.2440315,70.1729134 C15.2440315,66.9609449 17.8267087,64.3776378 21.0393071,64.3776378 L21.480252,64.3776378 C24.6928504,64.3776378 27.2755276,66.9609449 27.2755276,70.1729134 C27.2755276,73.3861417 24.6298583,75.9688189 21.480252,75.9688189 L21.480252,75.9688189 Z" id="Fill-63" stroke="#D2FBFF" stroke-width="0.5" fill="#313C42"></path>
            </g>
        </g>
    </g>
</svg>