<?xml version="1.0" encoding="UTF-8"?>
<svg width="24px" height="24px" viewBox="0 0 24 24" version="1.1" xmlns="http://www.w3.org/2000/svg" xmlns:xlink="http://www.w3.org/1999/xlink">
    <!-- Generator: Sketch 55.2 (78181) - https://sketchapp.com -->
    <title>binance-coin-bnb-logo (3)</title>
    <desc>Created with Sketch.</desc>
    <g id="Page-1" stroke="none" stroke-width="1" fill="none" fill-rule="evenodd">
        <g id="Update-Copy-22" transform="translate(-150.000000, -501.000000)" fill="#F3BA2F" fill-rule="nonzero">
            <g id="binance-coin-bnb-logo-(3)" transform="translate(150.000000, 501.000000)">
                <path d="M7.33614554,10.08504 L11.995082,5.42436 L16.6564174,10.08744 L19.3673331,7.37544 L11.995082,0 L4.62534986,7.37304 L7.33614554,10.08504 M7.19712115e-05,11.999628 L2.71107157,9.287544 L5.42189124,11.99946 L2.71091563,14.71152 L7.19712115e-05,11.999628 Z M7.33614554,13.91496 L11.995082,18.57564 L16.6562975,13.91268 L19.3686525,16.62324 L19.3673331,16.62468 L11.995082,24 L4.62510996,16.6272 L4.62127149,16.62336 L7.33614554,13.91496 M18.5687285,12.001116 L21.2797281,9.289044 L23.9905478,12.000948 L21.2795602,14.713032 L18.5687285,12.001116 Z" id="Shape"></path>
                <polyline id="Path" points="14.7447421 11.99856 14.7459416 11.99856 11.995082 9.2466 9.96213515 11.28036 9.96201519 11.28036 9.72846861 11.51412 9.2467413 11.99616 9.24290284 11.99988 9.2467413 12.00384 11.995082 14.7534 14.7459416 12.00144 14.7472611 11.99988 14.7447421 11.99856"></polyline>
            </g>
        </g>
    </g>
</svg>