<?xml version="1.0" encoding="UTF-8"?>
<svg width="24px" height="24px" viewBox="0 0 24 24" version="1.1" xmlns="http://www.w3.org/2000/svg" xmlns:xlink="http://www.w3.org/1999/xlink">
    <!-- Generator: Sketch 55.2 (78181) - https://sketchapp.com -->
    <title>harmony-one-logo (1)</title>
    <desc>Created with Sketch.</desc>
    <defs>
        <linearGradient x1="6.33333333%" y1="92.316856%" x2="93.3333333%" y2="5.79140193%" id="linearGradient-1">
            <stop stop-color="#00AEE9" offset="0%"></stop>
            <stop stop-color="#69FABD" offset="100%"></stop>
        </linearGradient>
    </defs>
    <g id="Page-1" stroke="none" stroke-width="1" fill="none" fill-rule="evenodd">
        <g id="Update-Copy-22" transform="translate(-150.000000, -543.000000)" fill="url(#linearGradient-1)" fill-rule="nonzero">
            <g id="harmony-one-logo-(1)" transform="translate(150.000000, 543.000000)">
                <path d="M18.8226667,-1.59322669e-06 C15.9684149,-0.00221580039 13.6513536,2.30709023 13.644,5.16133333 L13.644,10.884 C13.1106667,10.92 12.5653333,10.9426667 12,10.9426667 C11.4346667,10.9426667 10.892,10.9653333 10.356,10.9973333 L10.356,5.16133333 C10.3106288,2.33399629 8.00570106,0.0657596534 5.178,0.0657596534 C2.35029894,0.0657596534 0.0453711625,2.33399629 -3.78956126e-15,5.16133333 L-3.78956126e-15,18.8386667 C0.0453711625,21.6660037 2.35029894,23.9342403 5.178,23.9342403 C8.00570106,23.9342403 10.3106288,21.6660037 10.356,18.8386667 L10.356,13.116 C10.8893333,13.08 11.4346667,13.0573333 12,13.0573333 C12.5653333,13.0573333 13.108,13.0346667 13.644,13.0026667 L13.644,18.8386667 C13.6893712,21.6660037 15.9942989,23.9342403 18.822,23.9342403 C21.6497011,23.9342403 23.9546288,21.6660037 24,18.8386667 L24,5.16133333 C23.9926473,2.30761105 21.676398,-0.00148008893 18.8226667,-1.59322669e-06 Z M5.17733333,2.11466636 C6.86178028,2.11392565 8.22892202,3.476892 8.23333333,5.16133333 L8.23333333,11.2213333 C6.71837594,11.4408591 5.23896604,11.8591286 3.83333333,12.4653333 C3.22431178,12.7326252 2.65099937,13.0748211 2.12666667,13.484 L2.12666667,5.16133333 C2.13107126,3.47897257 3.49496824,2.11686391 5.17733333,2.11466636 Z M8.23333333,18.8386667 C8.23333333,20.5264489 6.86511553,21.8946667 5.17733333,21.8946667 C3.48955114,21.8946667 2.12133333,20.5264489 2.12133333,18.8386667 L2.12133333,17.4666667 C2.12133333,16.2546667 3.08133333,15.1066667 4.69066667,14.392 C5.82463268,13.9027777 7.01444762,13.5548341 8.23333333,13.356 L8.23333333,18.8386667 L8.23333333,18.8386667 Z M18.8226667,21.8853336 C17.1382197,21.8860744 15.771078,20.523108 15.7666667,18.8386667 L15.7666667,12.7786667 C17.2816241,12.5591409 18.761034,12.1408714 20.1666667,11.5346667 C20.7756882,11.2673748 21.3490006,10.9251789 21.8733333,10.516 L21.8733333,18.8386667 C21.8689287,20.5210274 20.5050318,21.8831361 18.8226667,21.8853336 L18.8226667,21.8853336 Z M19.3093333,9.6 C18.1753673,10.0892223 16.9855524,10.4371659 15.7666667,10.636 L15.7666667,5.16133333 C15.7666667,3.47355114 17.1348845,2.10533333 18.8226667,2.10533333 C20.5104489,2.10533333 21.8786667,3.47355114 21.8786667,5.16133333 L21.8786667,6.53333333 C21.8786667,7.74 20.9186667,8.888 19.3093333,9.6 Z" id="Shape"></path>
            </g>
        </g>
    </g>
</svg>