<?xml version="1.0" ?><svg height="32px" version="1.1" viewBox="0 0 32 32" width="32px" xmlns="http://www.w3.org/2000/svg" xmlns:xlink="http://www.w3.org/1999/xlink"><title/><desc/><defs/><g fill="none" fill-rule="evenodd" id="Circle" stroke="none" stroke-width="1"><g id="american_express"><circle cx="16" cy="16" fill="#2C97DE" id="Oval-3" r="16"/><path d="M30.981849,21.6287602 C30.9165619,21.6335031 30.8489653,21.6358784 30.7791598,21.6358784 L29.041784,21.6358784 L29.041784,20.8286072 L30.7721213,20.8286072 C30.94377,20.8286072 31.0638787,20.8060159 31.1361937,20.7354038 C31.1988591,20.6771658 31.2425659,20.5925902 31.2425659,20.4898507 C31.2425659,20.3801863 31.1988591,20.2931131 31.1326744,20.2408919 C31.067398,20.1834487 30.9723781,20.1573381 30.8157146,20.1573381 C29.9709804,20.1286164 28.9171344,20.1834487 28.9171344,18.9921247 C28.9171344,18.4460729 29.2638375,17.8712994 30.2079055,17.8712994 L31.8917327,17.8712994 C31.9206211,17.6233082 31.9438387,17.3735861 31.9612525,17.1222662 L30.3349392,17.1222662 C29.8324807,17.1222662 29.4675001,17.2426019 29.2090053,17.4296899 L29.2090053,17.1222662 L26.7463229,17.1222662 C26.3525071,17.1222662 25.8902362,17.219897 25.6715884,17.4296899 L25.6715884,17.1222662 L21.2738844,17.1222662 L21.2738844,17.4296899 C20.9238891,17.1772119 20.3333357,17.1222662 20.0607639,17.1222662 L17.1599912,17.1222662 L17.1599912,17.4296899 C16.8831055,17.1615456 16.2673497,17.1222662 15.8920384,17.1222662 L12.6455843,17.1222662 L11.9026813,17.9262452 L11.2068909,17.1222662 L6.35736028,17.1222662 L6.35736028,22.3752621 L11.1156174,22.3752621 L11.8811117,21.5585684 L12.602218,22.3752621 L15.5352316,22.3778732 L15.5352316,21.1421613 L15.8235833,21.1421613 C16.2127445,21.1481781 16.6717232,21.1325117 17.0766644,20.9574573 L17.0766644,22.3751486 L19.495867,22.3751486 L19.495867,21.0060457 L19.61257,21.0060457 C19.7615138,21.0060457 19.7761585,21.012176 19.7761585,21.1610063 L19.7761585,22.3750351 L27.125267,22.3750351 C27.5918518,22.3750351 28.0795521,22.2556075 28.3496264,22.0388897 L28.3496264,22.3750351 L30.6795425,22.3750351 C30.7863566,22.1294186 30.8871867,21.8805989 30.981849,21.6287602 Z M0.000301400606,15.9007448 L1.53723242,15.9007448 L1.88382208,15.0647519 L2.65976061,15.0647519 L3.00544207,15.9007448 L6.0298427,15.9007448 L6.0298427,15.261603 L6.29980346,15.9034694 L7.8698444,15.9034694 L8.13980516,15.252067 L8.13980516,15.9007448 L15.6560214,15.9007448 L15.6525021,14.5284632 L15.7979268,14.5284632 C15.8997581,14.5319824 15.9295014,14.5414049 15.9295014,14.7095344 L15.9295014,15.9007448 L19.8169137,15.9007448 L19.8169137,15.5812874 C20.1304678,15.7493034 20.6181681,15.9007448 21.259921,15.9007448 L22.8953519,15.9007448 L23.2453473,15.0647519 L24.0212858,15.0647519 L24.3635615,15.9007448 L27.5151094,15.9007448 L27.5151094,15.1066424 L27.9923655,15.9007448 L30.5178269,15.9007448 L30.5178269,10.6513816 L28.0184761,10.6513816 L28.0184761,11.2713377 L27.6684807,10.6513816 L25.1038534,10.6513816 L25.1038534,11.2713377 L24.7824662,10.6513816 L21.3182724,10.6513816 C20.7383904,10.6513816 20.2286663,10.7323244 19.8169137,10.9578972 L19.8169137,10.6513816 L17.4263192,10.6513816 L17.4263192,10.9578972 C17.1643051,10.7253994 16.8072712,10.6513816 16.4102768,10.6513816 L7.67651253,10.6513816 L7.09050015,12.0072022 L6.48870788,10.6513816 L3.73778727,10.6513816 L3.73778727,11.2713377 L3.43558561,10.6513816 L1.08949262,10.6513816 L0.508814963,11.9816096 C0.246379231,12.9962161 0.0809894852,14.0498708 0.0231395528,15.1320801 L1.62158097,11.3976903 L2.95821597,11.3976903 L4.48829636,14.9612178 L4.48829636,11.3976903 L5.95661953,11.3976903 L7.13397995,13.9509651 L8.21552587,11.3976903 L9.71336536,11.3976903 L9.71336536,15.1614746 L9.71347888,15.1614746 L8.79120754,15.1614746 L8.78780181,12.2137029 L7.48329419,15.1614746 L6.69339218,15.1614746 L5.38547882,12.2110918 L5.38547882,15.1614746 L3.55569431,15.1614746 L3.21001284,14.3219625 L1.33686205,14.3219625 L0.987661329,15.1614746 L0.0215950758,15.1614746 C0.00894512798,15.4064812 0.00180670487,15.6529452 0.000301400606,15.9007448 Z M31.7778269,18.6723268 L30.3603687,18.6723268 C30.1966666,18.6723268 30.0879104,18.6784571 29.9962963,18.7403279 C29.90139,18.8012904 29.8648351,18.8917693 29.8648351,19.0111968 C29.8648351,19.1532157 29.9449833,19.2498249 30.0615727,19.2916018 C30.156479,19.3246374 30.2584239,19.334287 30.4082759,19.334287 L30.8958627,19.3473423 C31.1974119,19.3547871 31.4375123,19.3894382 31.624318,19.4626385 C31.6819229,19.2015383 31.7331497,18.9380438 31.7778269,18.6723268 Z M13.3892819,15.1614746 L10.3839533,15.1614746 L10.3839533,11.3976903 L13.3892819,11.3976903 L13.3892819,12.181462 L11.2836333,12.181462 L11.2836333,12.8598831 L13.3387636,12.8598831 L13.3387636,13.6313942 L11.2836333,13.6313942 L11.2836333,14.3830385 L13.3892819,14.3830385 L13.3892819,15.1614746 L13.3892819,15.1614746 Z M17.6266896,12.4113487 C17.6266896,13.0114381 17.2261759,13.3214729 16.9927699,13.4145628 C17.189621,13.4894889 17.3577505,13.6218582 17.4377851,13.7315226 C17.5648188,13.9187242 17.586729,14.0859455 17.586729,14.4220909 L17.586729,15.1614746 L16.6793294,15.1614746 L16.6759236,14.6868296 C16.6759236,14.4603486 16.6976068,14.1346474 16.5339047,13.9535762 C16.4024436,13.8212068 16.2020732,13.7924852 15.8781884,13.7924852 L14.9124373,13.7924852 L14.9124373,15.1614746 L14.0128708,15.1614746 L14.0128708,11.3976903 L16.0820781,11.3976903 C16.5418514,11.3976903 16.8806079,11.4098374 17.1714572,11.5779669 C17.4560626,11.7460963 17.6266896,11.9915358 17.6266896,12.4113487 C17.6266896,12.4113487 17.6266896,11.9915358 17.6266896,12.4113487 Z M19.0664046,15.1614746 L18.1484472,15.1614746 L18.1484472,11.3976903 L19.0664046,11.3976903 L19.0664046,15.1614746 Z M29.7158913,15.1614746 L28.4410135,15.1614746 L26.7357651,12.3365362 L26.7357651,15.1614746 L24.9035966,15.1614746 L24.5534877,14.3219625 L22.6846508,14.3219625 L22.3449861,15.1614746 L21.2922754,15.1614746 C20.8549798,15.1614746 20.3013218,15.0647519 19.9877678,14.745181 C19.6716026,14.4256102 19.5071059,13.992742 19.5071059,13.3083041 C19.5071059,12.7501052 19.6054179,12.2398135 19.9920817,11.8365752 C20.2829309,11.5361899 20.7383904,11.3976903 21.3583465,11.3976903 L22.2293049,11.3976903 L22.2293049,12.2041668 L21.3766239,12.2041668 C21.0483117,12.2041668 20.8629265,12.2529823 20.6843528,12.4271285 C20.5309815,12.5856085 20.4257445,12.8851991 20.4257445,13.279696 C20.4257445,13.6829342 20.5058926,13.97367 20.6731139,14.1635961 C20.8116135,14.31254 21.0632969,14.3577226 21.3001086,14.3577226 L21.7041415,14.3577226 L22.9720943,11.3978038 L24.3200817,11.3978038 L25.8432371,14.957812 L25.8432371,11.3978038 L27.2130212,11.3978038 L28.7944146,14.0190797 L28.7944146,11.3978038 L29.7158913,11.3978038 L29.7158913,15.1614746 Z M28.4113836,19.6503386 C28.5865516,19.8316369 28.6804362,20.0605018 28.6804362,20.4479603 C28.6804362,21.2578425 28.1744585,21.6358784 27.2671723,21.6358784 L25.5149249,21.6358784 L25.5149249,20.8286072 L27.2601338,20.8286072 C27.4307608,20.8286072 27.5517777,20.8060159 27.6276119,20.7354038 C27.6894827,20.6771658 27.7338707,20.5925902 27.7338707,20.4898507 C27.7338707,20.3801863 27.6858499,20.2931131 27.6240927,20.2408919 C27.555297,20.1834487 27.4603907,20.1573381 27.3037271,20.1573381 C26.4623986,20.1286164 25.4087797,20.1834487 25.4087797,18.9921247 C25.4087797,18.4460729 25.7518501,17.8712994 26.6950099,17.8712994 L28.4985703,17.8712994 L28.4985703,18.6725539 L26.8482677,18.6725539 C26.6846792,18.6725539 26.5783069,18.6786842 26.4878281,18.7405549 C26.389289,18.8015175 26.3527342,18.8919963 26.3527342,19.0114239 C26.3527342,19.1534428 26.4364016,19.2500519 26.5495853,19.2918289 C26.6444916,19.3248644 26.7464364,19.334514 26.8996942,19.334514 L27.3839888,19.3475693 C27.8723703,19.3594894 28.2076075,19.4439514 28.4113836,19.6503386 C28.4113836,19.6503386 28.2076075,19.4439514 28.4113836,19.6503386 Z M20.8368159,19.8863556 C21.0370728,19.9602599 21.2007748,20.0927427 21.2775172,20.2024072 C21.4045509,20.386203 21.4229418,20.5577382 21.4265746,20.8895697 L21.4265746,21.6358784 L20.5233754,21.6358784 L20.5233754,21.1648661 C20.5233754,20.9383852 20.545172,20.6030344 20.3779507,20.42798 C20.2464896,20.2931131 20.0461192,20.2608722 19.7179205,20.2608722 L18.7564833,20.2608722 L18.7564833,21.6358784 L17.8524894,21.6358784 L17.8524894,17.8711859 L19.9295298,17.8711859 C20.3849893,17.8711859 20.7167072,17.8912797 21.0119839,18.0488514 C21.2959082,18.2203866 21.4744819,18.4553819 21.4744819,18.8848443 C21.4743683,19.4857284 21.0736276,19.7923575 20.8368159,19.8863556 C20.8368159,19.8863556 21.0736276,19.7923575 20.8368159,19.8863556 Z M21.9733076,17.8711859 L24.9759116,17.8711859 L24.9759116,18.6497355 L22.8692413,18.6497355 L22.8692413,19.3341734 L24.9244851,19.3341734 L24.9244851,20.1022788 L22.8692413,20.1022788 L22.8692413,20.8513121 L24.9759116,20.8547178 L24.9759116,21.6358784 L21.9733076,21.6358784 L21.9733076,17.8711859 L21.9733076,17.8711859 Z M17.4300655,19.1114388 C17.4300655,20.1572245 16.649813,20.3731477 15.8634303,20.3731477 L14.7409021,20.3731477 L14.7409021,21.6358784 L12.9922874,21.6358784 L11.8845174,20.3896088 L10.7332676,21.6358784 L7.1697401,21.6358784 L7.1697401,17.8711859 L10.7880998,17.8711859 L11.8949617,19.1051949 L13.0392865,17.8711859 L15.9139486,17.8711859 C16.6279029,17.8711859 17.4300655,18.0688317 17.4300655,19.1114388 C17.4300655,19.1114388 17.4300655,18.0688317 17.4300655,19.1114388 Z M20.2934887,19.4178408 C20.1731529,19.4892476 20.0243226,19.4953779 19.8492681,19.4953779 L18.7563698,19.4953779 L18.7563698,18.649849 L19.8641398,18.649849 C20.0243226,18.649849 20.1846189,18.6532547 20.2934887,18.7178501 C20.4100781,18.7788126 20.479782,18.8954021 20.479782,19.056493 C20.479782,19.217584 20.4100781,19.3473423 20.2934887,19.4178408 C20.2934887,19.4178408 20.4100781,19.3473423 20.2934887,19.4178408 Z M15.9035044,19.6085616 L14.7409021,19.6085616 L14.7409021,18.649849 L15.9139486,18.649849 C16.2387416,18.649849 16.4642008,18.7822183 16.4642008,19.1114388 C16.4642008,19.4370264 16.2491858,19.6085616 15.9035044,19.6085616 Z M13.8448549,21.2934892 L12.4636048,19.7600031 L13.8448549,18.2752189 L13.8448549,21.2934892 Z M24.2468586,13.5373961 L23.6242914,12.0369456 L23.0051299,13.5373961 L24.2468586,13.5373961 Z M10.2778081,20.8513121 L8.06590085,20.8513121 L8.06590085,20.1022788 L10.0409965,20.1022788 L10.0409965,19.3341734 L8.06590085,19.3341734 L8.06590085,18.6497355 L10.3214015,18.6497355 L11.30543,19.7468342 L10.2778081,20.8513121 Z M2.88521985,13.5373961 L2.26946409,12.0369456 L1.65722759,13.5373961 L2.88521985,13.5373961 Z M16.4502373,12.9399178 C16.3266094,13.0149573 16.1803901,13.0174549 16.0052221,13.0174549 L14.9123238,13.0174549 L14.9123238,12.181462 L16.0200938,12.181462 C16.1768708,12.181462 16.3404593,12.1885005 16.4467181,12.2493495 C16.5634211,12.3041817 16.6356225,12.4208847 16.6356225,12.5820892 C16.6356225,12.7465859 16.5669403,12.8789552 16.4502373,12.9399178 C16.4502373,12.9399178 16.5669403,12.8789552 16.4502373,12.9399178 Z" fill="#FFFFFF" id="Shape"/></g></g></svg>