<?xml version="1.0" encoding="UTF-8"?>
<svg width="1026px" height="550px" viewBox="0 0 1026 550" version="1.1" xmlns="http://www.w3.org/2000/svg" xmlns:xlink="http://www.w3.org/1999/xlink">
    <!-- Generator: Sketch 55.2 (78181) - https://sketchapp.com -->
    <title>Group 23</title>
    <desc>Created with Sketch.</desc>
    <defs>
        <rect id="path-1" x="0" y="0" width="296" height="216" rx="10"></rect>
        <filter x="-23.6%" y="-30.1%" width="147.3%" height="164.8%" filterUnits="objectBoundingBox" id="filter-2">
            <feMorphology radius="0.5" operator="dilate" in="SourceAlpha" result="shadowSpreadOuter1"></feMorphology>
            <feOffset dx="0" dy="5" in="shadowSpreadOuter1" result="shadowOffsetOuter1"></feOffset>
            <feGaussianBlur stdDeviation="22" in="shadowOffsetOuter1" result="shadowBlurOuter1"></feGaussianBlur>
            <feColorMatrix values="0 0 0 0 0.926970109   0 0 0 0 0.926970109   0 0 0 0 0.926970109  0 0 0 1 0" type="matrix" in="shadowBlurOuter1"></feColorMatrix>
        </filter>
        <rect id="path-3" x="0" y="244" width="296" height="216" rx="4"></rect>
        <filter x="-23.6%" y="-30.1%" width="147.3%" height="164.8%" filterUnits="objectBoundingBox" id="filter-4">
            <feMorphology radius="0.5" operator="dilate" in="SourceAlpha" result="shadowSpreadOuter1"></feMorphology>
            <feOffset dx="0" dy="5" in="shadowSpreadOuter1" result="shadowOffsetOuter1"></feOffset>
            <feGaussianBlur stdDeviation="22" in="shadowOffsetOuter1" result="shadowBlurOuter1"></feGaussianBlur>
            <feColorMatrix values="0 0 0 0 0.926970109   0 0 0 0 0.926970109   0 0 0 0 0.926970109  0 0 0 1 0" type="matrix" in="shadowBlurOuter1"></feColorMatrix>
        </filter>
        <linearGradient x1="6.31666667%" y1="93.9407358%" x2="93.6833333%" y2="6.33402222%" id="linearGradient-5">
            <stop stop-color="#00AEE9" offset="0%"></stop>
            <stop stop-color="#69FABD" offset="100%"></stop>
        </linearGradient>
        <rect id="path-6" x="320" y="0" width="296" height="216" rx="4"></rect>
        <filter x="-23.6%" y="-30.1%" width="147.3%" height="164.8%" filterUnits="objectBoundingBox" id="filter-7">
            <feMorphology radius="0.5" operator="dilate" in="SourceAlpha" result="shadowSpreadOuter1"></feMorphology>
            <feOffset dx="0" dy="5" in="shadowSpreadOuter1" result="shadowOffsetOuter1"></feOffset>
            <feGaussianBlur stdDeviation="22" in="shadowOffsetOuter1" result="shadowBlurOuter1"></feGaussianBlur>
            <feColorMatrix values="0 0 0 0 0.926970109   0 0 0 0 0.926970109   0 0 0 0 0.926970109  0 0 0 1 0" type="matrix" in="shadowBlurOuter1"></feColorMatrix>
        </filter>
        <rect id="path-8" x="320" y="244" width="296" height="216" rx="4"></rect>
        <filter x="-23.6%" y="-30.1%" width="147.3%" height="164.8%" filterUnits="objectBoundingBox" id="filter-9">
            <feMorphology radius="0.5" operator="dilate" in="SourceAlpha" result="shadowSpreadOuter1"></feMorphology>
            <feOffset dx="0" dy="5" in="shadowSpreadOuter1" result="shadowOffsetOuter1"></feOffset>
            <feGaussianBlur stdDeviation="22" in="shadowOffsetOuter1" result="shadowBlurOuter1"></feGaussianBlur>
            <feColorMatrix values="0 0 0 0 0.926970109   0 0 0 0 0.926970109   0 0 0 0 0.926970109  0 0 0 1 0" type="matrix" in="shadowBlurOuter1"></feColorMatrix>
        </filter>
        <rect id="path-10" x="640" y="0" width="296" height="216" rx="4"></rect>
        <filter x="-23.6%" y="-30.1%" width="147.3%" height="164.8%" filterUnits="objectBoundingBox" id="filter-11">
            <feMorphology radius="0.5" operator="dilate" in="SourceAlpha" result="shadowSpreadOuter1"></feMorphology>
            <feOffset dx="0" dy="5" in="shadowSpreadOuter1" result="shadowOffsetOuter1"></feOffset>
            <feGaussianBlur stdDeviation="22" in="shadowOffsetOuter1" result="shadowBlurOuter1"></feGaussianBlur>
            <feColorMatrix values="0 0 0 0 0.926970109   0 0 0 0 0.926970109   0 0 0 0 0.926970109  0 0 0 1 0" type="matrix" in="shadowBlurOuter1"></feColorMatrix>
        </filter>
        <rect id="path-12" x="640" y="244" width="296" height="216" rx="4"></rect>
        <filter x="-23.6%" y="-30.1%" width="147.3%" height="164.8%" filterUnits="objectBoundingBox" id="filter-13">
            <feMorphology radius="0.5" operator="dilate" in="SourceAlpha" result="shadowSpreadOuter1"></feMorphology>
            <feOffset dx="0" dy="5" in="shadowSpreadOuter1" result="shadowOffsetOuter1"></feOffset>
            <feGaussianBlur stdDeviation="22" in="shadowOffsetOuter1" result="shadowBlurOuter1"></feGaussianBlur>
            <feColorMatrix values="0 0 0 0 0.926970109   0 0 0 0 0.926970109   0 0 0 0 0.926970109  0 0 0 1 0" type="matrix" in="shadowBlurOuter1"></feColorMatrix>
        </filter>
        <polygon id="path-14" points="0 -0.000156521739 35.9017518 -0.000156521739 35.9017518 53.8878522 0 53.8878522"></polygon>
    </defs>
    <g id="Page-1" stroke="none" stroke-width="1" fill="none" fill-rule="evenodd">
        <g id="Home-Copy-8" transform="translate(-207.000000, -2382.000000)">
            <g id="Group-23" transform="translate(252.000000, 2422.000000)">
                <g id="Rectangle-Copy-3">
                    <use fill="black" fill-opacity="1" filter="url(#filter-2)" xlink:href="#path-1"></use>
                    <use fill="#FFFFFF" fill-rule="evenodd" xlink:href="#path-1"></use>
                </g>
                <g id="Group-2" transform="translate(114.000000, 68.000000)">
                    <g id="Group" transform="translate(14.000000, 0.000000)">
                        <circle id="Oval-Copy" fill="#FF8E00" cx="20" cy="20" r="20"></circle>
                        <g id="flaticon1558425073-svg" transform="translate(20.500000, 20.500000) rotate(17.000000) translate(-20.500000, -20.500000) translate(13.000000, 10.000000)" fill="#FFFFFF" fill-rule="nonzero">
                            <path d="M14.3763043,10.8363478 C13.8964348,10.2158261 13.1723043,9.7896087 12.2039565,9.55795652 C13.437087,8.92895652 13.979,7.8613913 13.8302174,6.35508696 C13.7804783,5.80886957 13.6295217,5.33547826 13.377,4.93421739 C13.1243043,4.53286957 12.7833043,4.21021739 12.3526957,3.96613043 C11.9224348,3.72173913 11.4544783,3.53569565 10.949913,3.40743478 C10.4452174,3.27917391 9.86578261,3.18604348 9.212,3.12817391 L9.212,0 L7.30052174,0 L7.30052174,3.04126087 C6.96952174,3.04126087 6.46473913,3.04952174 5.78621739,3.06608696 L5.78621739,0 L3.87447826,0 L3.87447826,3.12817391 C3.60130435,3.13647826 3.2,3.14069565 2.6703913,3.14069565 L0.038826087,3.12817391 L0.038826087,5.164 L1.4166087,5.164 C2.04556522,5.164 2.41382609,5.44543478 2.5213913,6.00808696 L2.5213913,9.57078261 C2.60426087,9.57078261 2.6703913,9.57504348 2.72008696,9.58330435 L2.5213913,9.58330435 L2.5213913,14.5732609 C2.45526087,14.9952174 2.21530435,15.2063913 1.80147826,15.2063913 L0.423782609,15.2063913 L0.038826087,17.478087 L2.5216087,17.478087 C2.67886957,17.478087 2.90630435,17.4801739 3.20434783,17.483913 C3.50221739,17.488087 3.72556522,17.4901739 3.87456522,17.4901739 L3.87456522,20.6555217 L5.7866087,20.6555217 L5.7866087,17.5273913 C6.13408696,17.5358696 6.63886957,17.539913 7.30091304,17.539913 L7.30091304,20.6555217 L9.21243478,20.6555217 L9.21243478,17.4901739 C9.89117391,17.4571304 10.4931739,17.3953913 11.0184348,17.3040435 C11.5439565,17.2126957 12.0468261,17.0701739 12.5266957,16.8755652 C13.0065217,16.6812174 13.4078261,16.439 13.7305217,16.1493478 C14.0533913,15.8599565 14.3200435,15.4915217 14.5314348,15.0445652 C14.7421304,14.5976087 14.8767826,14.0803913 14.9345217,13.4926957 C15.0425652,12.3426957 14.8562609,11.4571304 14.3763043,10.8363478 Z M5.8233913,5.30017391 C5.88134783,5.30017391 6.04478261,5.29808696 6.31373913,5.29391304 C6.58282609,5.28965217 6.80617391,5.28556522 6.98408696,5.2813913 C7.16204348,5.27730435 7.40204348,5.28765217 7.70421739,5.31247826 C8.00626087,5.33730435 8.26069565,5.37047826 8.46752174,5.41178261 C8.67434783,5.45308696 8.90213043,5.5213913 9.15017391,5.61656522 C9.39865217,5.71165217 9.59713043,5.82756522 9.74591304,5.96408696 C9.895,6.1006087 10.0211739,6.27447826 10.1244348,6.48552174 C10.228,6.69652174 10.2797391,6.93856522 10.2797391,7.2116087 C10.2797391,7.44334783 10.2425652,7.65443478 10.1681739,7.84486957 C10.093913,8.03517391 9.98191304,8.19452174 9.83313043,8.32278261 C9.68430435,8.45108696 9.53091304,8.56291304 9.37365217,8.658 C9.21656522,8.75308696 9.01569565,8.82969565 8.77165217,8.88756522 C8.52765217,8.94552174 8.31456522,8.99104348 8.1326087,9.02408696 C7.95052174,9.05721739 7.723,9.08004348 7.44986957,9.0923913 C7.17669565,9.10473913 6.96973913,9.11317391 6.82913043,9.11726087 C6.6883913,9.12134783 6.49604348,9.12134783 6.25182609,9.11726087 C6.00756522,9.11317391 5.865,9.111 5.82352174,9.111 L5.82352174,5.30013043 L5.8233913,5.30013043 L5.8233913,5.30017391 Z M11.0433913,13.7535217 C10.9645652,13.9439565 10.8633478,14.1095652 10.7393043,14.2503478 C10.6150435,14.3907826 10.4515217,14.5150435 10.2488696,14.6224783 C10.0462609,14.7302174 9.84952174,14.8169565 9.65934783,14.8831739 C9.46891304,14.9496522 9.23917391,15.0072609 8.97047826,15.057087 C8.70117391,15.1067826 8.46547826,15.1417391 8.26252174,15.1625652 C8.05986957,15.1833043 7.81791304,15.1997826 7.53643478,15.2123043 C7.25517391,15.2244783 7.03573913,15.2307826 6.87856522,15.2307826 C6.72130435,15.2307826 6.52265217,15.2285217 6.28265217,15.2244783 C6.04252174,15.2206087 5.88956522,15.2185217 5.82330435,15.2185217 L5.82330435,11.0226522 C5.88943478,11.0226522 6.086,11.0186087 6.41295652,11.0101739 C6.73995652,11.0018261 7.00669565,10.9979565 7.2136087,10.9979565 C7.42047826,10.9979565 7.70608696,11.0101739 8.07034783,11.0351739 C8.43426087,11.0598261 8.74047826,11.096913 8.98895652,11.1465652 C9.23713043,11.1963043 9.50795652,11.2727391 9.80195652,11.3763043 C10.0956522,11.4796957 10.3336957,11.6058696 10.5158261,11.7548261 C10.697913,11.9040435 10.850913,12.094087 10.975,12.3258696 C11.0993913,12.5575217 11.1614348,12.8223913 11.1614348,13.1203913 C11.1614348,13.3523478 11.1221304,13.5630435 11.0433913,13.7535217 Z" id="Shape"></path>
                        </g>
                    </g>
                    <path d="M8.52651283e-13,78.8 L8.52651283e-13,62 L5.856,62 C9.24,62 10.92,63.56 10.92,66.152 C10.92,68.6 9.432,69.608 8.184,70.064 C9.96,70.328 11.616,71.576 11.616,74 C11.616,76.832 9.384,78.8 6.168,78.8 L8.52651283e-13,78.8 Z M5.472,63.632 L2.064,63.632 L2.064,69.32 L5.208,69.32 C7.536,69.32 8.832,68.336 8.832,66.32 C8.832,64.52 7.704,63.632 5.472,63.632 Z M2.064,70.952 L2.064,77.168 L5.448,77.168 C8.616,77.168 9.528,75.656 9.528,74.024 C9.528,71.792 7.824,70.952 5.376,70.952 L2.064,70.952 Z M14.448,63.488 C14.448,62.744 15,62.168 15.768,62.168 C16.536,62.168 17.088,62.744 17.088,63.488 C17.088,64.184 16.536,64.784 15.768,64.784 C15,64.784 14.448,64.184 14.448,63.488 Z M14.76,78.8 L14.76,67.472 L16.776,67.472 L16.776,78.8 L14.76,78.8 Z M25.416,77.048 L26.064,78.632 C25.608,78.896 24.864,79.088 24.024,79.088 C22.032,79.088 21.096,77.768 21.096,76.304 L21.096,69.008 L19.176,69.008 L19.176,67.472 L21.096,67.472 L21.096,64.232 L23.112,63.32 L23.112,67.472 L25.752,67.472 L25.752,69.008 L23.112,69.008 L23.112,76.112 C23.112,76.952 23.544,77.408 24.288,77.408 C24.696,77.408 25.104,77.264 25.416,77.048 Z M27.72,73.136 C27.72,69.68 29.664,67.184 33.096,67.184 C35.52,67.184 36.912,68.48 37.608,70.184 L35.736,70.904 C35.376,69.632 34.536,68.816 33.024,68.816 C30.888,68.816 29.808,70.736 29.808,73.112 C29.808,75.512 30.888,77.432 33.048,77.432 C34.656,77.432 35.304,76.496 35.76,75.416 L37.632,76.136 C36.768,77.84 35.448,79.088 33.072,79.088 C29.688,79.088 27.72,76.592 27.72,73.136 Z M44.76,67.184 C48.216,67.184 50.208,69.68 50.208,73.136 C50.208,76.592 48.216,79.088 44.76,79.088 C41.304,79.088 39.312,76.592 39.312,73.136 C39.312,69.68 41.304,67.184 44.76,67.184 Z M44.76,77.48 C47.016,77.48 48.12,75.512 48.12,73.136 C48.12,70.76 47.016,68.792 44.76,68.792 C42.504,68.792 41.4,70.76 41.4,73.136 C41.4,75.512 42.504,77.48 44.76,77.48 Z M52.872,63.488 C52.872,62.744 53.424,62.168 54.192,62.168 C54.96,62.168 55.512,62.744 55.512,63.488 C55.512,64.184 54.96,64.784 54.192,64.784 C53.424,64.784 52.872,64.184 52.872,63.488 Z M53.184,78.8 L53.184,67.472 L55.2,67.472 L55.2,78.8 L53.184,78.8 Z M59.04,78.8 L59.04,67.472 L60.936,67.472 L60.936,69.176 C61.728,67.952 62.808,67.184 64.512,67.184 C66.72,67.184 68.544,68.456 68.544,70.952 L68.544,78.8 L66.528,78.8 L66.528,71.264 C66.528,69.536 65.256,68.84 64.104,68.84 C62.496,68.84 61.056,70.256 61.056,72.632 L61.056,78.8 L59.04,78.8 Z" id="Bitcoin" fill="#2A3036" fill-rule="nonzero"></path>
                </g>
                <g id="Rectangle-Copy-10">
                    <use fill="black" fill-opacity="1" filter="url(#filter-4)" xlink:href="#path-3"></use>
                    <use fill="#FFFFFF" fill-rule="evenodd" xlink:href="#path-3"></use>
                </g>
                <g id="Group-22" transform="translate(126.000000, 310.000000)" fill-rule="nonzero">
                    <g id="harmony-logo-horizontal-full-color" transform="translate(2.000000, 0.000000)" fill="url(#linearGradient-5)">
                        <path d="M30.3037433,0.106949316 C25.7247298,0.103397112 22.0075191,3.80816614 21.9957219,8.38716578 L21.9957219,17.5679144 C21.140107,17.6256684 20.2652406,17.6620321 19.3582888,17.6620321 C18.4513369,17.6620321 17.5807487,17.6983957 16.7208556,17.7497326 L16.7208556,8.38716578 C16.6480676,3.85133095 12.9503226,0.212448642 8.41390374,0.212448642 C3.87748492,0.212448642 0.179739829,3.85133095 0.106951872,8.38716578 L0.106951872,30.3294118 C0.179739829,34.8652466 3.87748492,38.504129 8.41390374,38.504129 C12.9503226,38.504129 16.6480676,34.8652466 16.7208556,30.3294118 L16.7208556,21.1486631 C17.5764706,21.0909091 18.4513369,21.0545455 19.3582888,21.0545455 C20.2652406,21.0545455 21.1358289,21.0181818 21.9957219,20.9668449 L21.9957219,30.3294118 C22.0685099,34.8652466 25.766255,38.504129 30.3026738,38.504129 C34.8390926,38.504129 38.5368376,34.8652466 38.6096257,30.3294118 L38.6096257,8.38716578 C38.5978299,3.80900169 34.8819219,0.10457739 30.3037433,0.106949316 Z M8.41283422,3.49946476 C11.1151555,3.49827643 13.308431,5.68485348 13.315508,8.38716578 L13.315508,18.1090909 C10.8850952,18.4612712 8.51171022,19.132292 6.25668449,20.1048128 C5.27964458,20.5336233 4.35989204,21.0826006 3.51871658,21.7390374 L3.51871658,8.38716578 C3.52578276,5.68819129 5.71385279,3.50299022 8.41283422,3.49946476 Z M13.315508,30.3294118 C13.315508,33.0370836 11.1205061,35.2320856 8.41283422,35.2320856 C5.70516225,35.2320856 3.51016043,33.0370836 3.51016043,30.3294118 L3.51016043,28.1283422 C3.51016043,26.1839572 5.05026738,24.342246 7.63208556,23.1957219 C9.45128235,22.4108734 11.3600764,21.8526751 13.315508,21.5336898 L13.315508,30.3294118 Z M30.3037433,35.2171128 C27.601422,35.2183012 25.4081465,33.0317241 25.4010695,30.3294118 L25.4010695,20.6074866 C27.8314824,20.2553063 30.2048674,19.5842856 32.459893,18.6117647 C33.436933,18.1829542 34.3566856,17.6339769 35.197861,16.9775401 L35.197861,30.3294118 C35.1907949,33.0283863 33.0027247,35.2135874 30.3037433,35.2171128 Z M31.084492,15.5080214 C29.2652952,16.2928699 27.3565012,16.8510682 25.4010695,17.1700535 L25.4010695,8.38716578 C25.4010695,5.6794938 27.5960714,3.48449198 30.3037433,3.48449198 C33.0114152,3.48449198 35.2064171,5.6794938 35.2064171,8.38716578 L35.2064171,10.5882353 C35.2064171,12.5240642 33.6663102,14.3657754 31.084492,15.5080214 Z" id="Shape"></path>
                    </g>
                    <path d="M3.69482223e-13,84.8 L3.69482223e-13,68 L5.856,68 C9.24,68 10.92,69.56 10.92,72.152 C10.92,74.6 9.432,75.608 8.184,76.064 C9.96,76.328 11.616,77.576 11.616,80 C11.616,82.832 9.384,84.8 6.168,84.8 L3.69482223e-13,84.8 Z M5.472,69.632 L2.064,69.632 L2.064,75.32 L5.208,75.32 C7.536,75.32 8.832,74.336 8.832,72.32 C8.832,70.52 7.704,69.632 5.472,69.632 Z M2.064,76.952 L2.064,83.168 L5.448,83.168 C8.616,83.168 9.528,81.656 9.528,80.024 C9.528,77.792 7.824,76.952 5.376,76.952 L2.064,76.952 Z M15,84.8 L15,68 L17.208,68 L20.952,73.76 C22.92,76.808 25.152,80.24 26.04,81.656 L26.088,81.656 L26.088,68 L28.032,68 L28.032,84.8 L25.824,84.8 L22.152,79.136 C20.16,76.136 17.952,72.68 16.992,71.144 L16.944,71.144 L16.944,84.8 L15,84.8 Z M32.352,84.8 L32.352,68 L38.208,68 C41.592,68 43.272,69.56 43.272,72.152 C43.272,74.6 41.784,75.608 40.536,76.064 C42.312,76.328 43.968,77.576 43.968,80 C43.968,82.832 41.736,84.8 38.52,84.8 L32.352,84.8 Z M37.824,69.632 L34.416,69.632 L34.416,75.32 L37.56,75.32 C39.888,75.32 41.184,74.336 41.184,72.32 C41.184,70.52 40.056,69.632 37.824,69.632 Z M34.416,76.952 L34.416,83.168 L37.8,83.168 C40.968,83.168 41.88,81.656 41.88,80.024 C41.88,77.792 40.176,76.952 37.728,76.952 L34.416,76.952 Z" id="BNB" fill="#2A3036"></path>
                </g>
                <g id="Rectangle-Copy-7">
                    <use fill="black" fill-opacity="1" filter="url(#filter-7)" xlink:href="#path-6"></use>
                    <use fill="#FFFFFF" fill-rule="evenodd" xlink:href="#path-6"></use>
                </g>
                <g id="Group-4" transform="translate(420.000000, 69.000000)">
                    <g id="Group-9" transform="translate(28.000000, 0.000000)">
                        <circle id="Oval" fill="#627EEA" cx="20" cy="20" r="20"></circle>
                        <g id="icons8-ethereum" transform="translate(11.515152, 6.666667)" fill-rule="nonzero">
                            <polygon id="Path" fill="#FFFFFF" points="0 13.3333333 8.48484848 0 16.969697 13.3333333 8.48484848 18.1818182"></polygon>
                            <polygon id="Path" fill="#C0CBF6" points="8.48484848 0 16.969697 13.3333333 8.48484848 18.1818182"></polygon>
                            <polygon id="Path" fill="#FFFFFF" points="0 15.1515152 8.48484848 20 16.969697 15.1515152 8.48484848 26.6666667"></polygon>
                            <polygon id="Path" fill="#C0CBF6" points="8.48484848 20 16.969697 15.1515152 8.48484848 26.6666667"></polygon>
                            <polygon id="Path" fill="#C0CBF6" points="0 13.3333333 8.48484848 9.6969697 16.969697 13.3333333 8.48484848 18.1818182"></polygon>
                            <polygon id="Path" fill="#8197EE" points="8.48484848 9.6969697 16.969697 13.3333333 8.48484848 18.1818182"></polygon>
                        </g>
                    </g>
                    <path d="M10.008,76.8 L-1.64845915e-12,76.8 L-1.64845915e-12,60 L9.84,60 L9.84,61.68 L2.088,61.68 L2.088,67.296 L9.336,67.296 L9.336,68.976 L2.088,68.976 L2.088,75.12 L10.008,75.12 L10.008,76.8 Z M17.904,75.048 L18.552,76.632 C18.096,76.896 17.352,77.088 16.512,77.088 C14.52,77.088 13.584,75.768 13.584,74.304 L13.584,67.008 L11.664,67.008 L11.664,65.472 L13.584,65.472 L13.584,62.232 L15.6,61.32 L15.6,65.472 L18.24,65.472 L18.24,67.008 L15.6,67.008 L15.6,74.112 C15.6,74.952 16.032,75.408 16.776,75.408 C17.184,75.408 17.592,75.264 17.904,75.048 Z M21.072,76.8 L21.072,60 L23.088,60 L23.088,67.032 C23.784,65.952 24.816,65.184 26.544,65.184 C28.728,65.184 30.576,66.456 30.576,68.952 L30.576,76.8 L28.56,76.8 L28.56,69.264 C28.56,67.536 27.312,66.84 26.136,66.84 C24.528,66.84 23.088,68.256 23.088,70.632 L23.088,76.8 L21.072,76.8 Z M41.712,73.488 L43.488,74.208 C42.624,75.936 41.208,77.088 38.832,77.088 C35.424,77.088 33.432,74.568 33.432,71.112 C33.432,67.704 35.472,65.184 38.76,65.184 C42.216,65.184 43.872,67.872 43.872,70.824 L43.872,71.496 L35.496,71.496 C35.568,73.632 36.576,75.528 38.856,75.528 C40.416,75.528 41.136,74.808 41.712,73.488 Z M38.712,66.744 C36.888,66.744 35.76,68.136 35.568,69.984 L41.808,69.984 C41.712,67.968 40.464,66.744 38.712,66.744 Z M53.256,65.448 L52.8,67.32 C52.488,67.032 52.056,66.84 51.504,66.84 C49.968,66.84 48.672,68.376 48.672,70.68 L48.672,76.8 L46.656,76.8 L46.656,65.472 L48.552,65.472 L48.552,67.248 C49.128,65.88 50.424,65.184 51.864,65.184 C52.32,65.184 52.848,65.256 53.256,65.448 Z M62.712,73.488 L64.488,74.208 C63.624,75.936 62.208,77.088 59.832,77.088 C56.424,77.088 54.432,74.568 54.432,71.112 C54.432,67.704 56.472,65.184 59.76,65.184 C63.216,65.184 64.872,67.872 64.872,70.824 L64.872,71.496 L56.496,71.496 C56.568,73.632 57.576,75.528 59.856,75.528 C61.416,75.528 62.136,74.808 62.712,73.488 Z M59.712,66.744 C57.888,66.744 56.76,68.136 56.568,69.984 L62.808,69.984 C62.712,67.968 61.464,66.744 59.712,66.744 Z M76.944,65.472 L76.944,76.8 L75.048,76.8 L75.048,75.096 C74.256,76.32 73.224,77.088 71.52,77.088 C69.36,77.088 67.536,75.816 67.536,73.32 L67.536,65.472 L69.552,65.472 L69.552,73.008 C69.552,74.736 70.776,75.432 71.928,75.432 C73.488,75.432 74.928,74.016 74.928,71.64 L74.928,65.472 L76.944,65.472 Z M80.784,76.8 L80.784,65.472 L82.68,65.472 L82.68,67.176 C83.424,65.952 84.456,65.184 86.088,65.184 C87.696,65.184 88.944,65.904 89.496,67.248 C90.144,66.24 91.488,65.184 93.168,65.184 C95.208,65.184 96.912,66.456 96.912,68.952 L96.912,76.8 L94.896,76.8 L94.896,69.264 C94.896,67.536 93.792,66.84 92.712,66.84 C91.248,66.84 89.856,68.256 89.856,70.632 L89.856,76.8 L87.84,76.8 L87.84,69.264 C87.84,67.536 86.712,66.84 85.632,66.84 C84.192,66.84 82.8,68.256 82.8,70.632 L82.8,76.8 L80.784,76.8 Z" id="Ethereum" fill="#2A3036" fill-rule="nonzero"></path>
                </g>
                <g id="Rectangle-Copy-11">
                    <use fill="black" fill-opacity="1" filter="url(#filter-9)" xlink:href="#path-8"></use>
                    <use fill="#FFFFFF" fill-rule="evenodd" xlink:href="#path-8"></use>
                </g>
                <g id="Rectangle-Copy-8">
                    <use fill="black" fill-opacity="1" filter="url(#filter-11)" xlink:href="#path-10"></use>
                    <use fill="#FFFFFF" fill-rule="evenodd" xlink:href="#path-10"></use>
                </g>
                <g id="Group-10" transform="translate(768.000000, 70.000000)" fill-rule="nonzero">
                    <g id="Cosmos_Logo">
                        <circle id="Oval" fill="#2E3148" cx="20" cy="20" r="20"></circle>
                        <circle id="Oval" fill="#1B1E36" cx="20" cy="20" r="11.6049383"></circle>
                        <path d="M20.0411523,2.55144033 C17.8823045,2.55144033 16.1316872,10.381893 16.1316872,20.0411523 C16.1316872,29.7004115 17.8823045,37.5308642 20.0411523,37.5308642 C22.2,37.5308642 23.9506173,29.7004115 23.9506173,20.0411523 C23.9506173,10.381893 22.2,2.55144033 20.0411523,2.55144033 Z M20.3111111,36.5432099 C20.0641975,36.872428 19.817284,36.6255144 19.817284,36.6255144 C18.8230453,35.473251 18.3259259,33.3333333 18.3259259,33.3333333 C16.5868313,27.7366255 17.000823,15.7201646 17.000823,15.7201646 C17.818107,6.18024691 19.3053498,3.92674897 19.8106996,3.42633745 C19.9175437,3.32112999 20.0845456,3.30793648 20.2065844,3.39506173 C20.9407407,3.91522634 21.5563786,6.09053498 21.5563786,6.09053498 C23.3744856,12.8395062 23.2098765,19.1769547 23.2098765,19.1769547 C23.3744856,24.691358 22.2987654,30.8641975 22.2987654,30.8641975 C21.4707819,35.5555556 20.3111111,36.5432099 20.3111111,36.5432099 Z" id="Shape" fill="#6F7390"></path>
                        <path d="M35.2115226,11.3374486 C34.1366255,9.46419753 26.4740741,11.8427984 18.0921811,16.6502058 C9.71028807,21.4576132 3.79670782,26.872428 4.87078189,28.744856 C5.94485597,30.617284 13.6082305,28.2395062 21.9901235,23.4320988 C30.3720165,18.6246914 36.2855967,13.2098765 35.2115226,11.3374486 Z M5.8617284,28.4872428 C5.45020576,28.4353909 5.54320988,28.0971193 5.54320988,28.0971193 C6.04773663,26.6617284 7.65432099,25.1654321 7.65432099,25.1654321 C11.6452675,20.8716049 22.2748971,15.2510288 22.2748971,15.2510288 C30.9555556,11.2123457 33.6518519,11.382716 34.3358025,11.5703704 C34.4810181,11.6105538 34.5759958,11.7497153 34.5604938,11.8995885 C34.4781893,12.7950617 32.8938272,14.4115226 32.8938272,14.4115226 C27.9473251,19.3497942 22.3679012,22.3613169 22.3679012,22.3613169 C17.6666667,25.2493827 11.7769547,27.3868313 11.7769547,27.3868313 C7.29547325,29.0016461 5.8617284,28.4872428 5.8617284,28.4872428 L5.8617284,28.4872428 Z" id="Shape" fill="#6F7390"></path>
                        <path d="M35.1736626,28.8065844 C36.2567901,26.9382716 30.3588477,21.4979424 22.0049383,16.655144 C13.6510288,11.8123457 5.9909465,9.40411523 4.90864198,11.2757202 C3.82633745,13.1473251 9.72345679,18.5843621 18.0814815,23.4271605 C26.4395062,28.2699588 34.091358,30.6781893 35.1736626,28.8065844 Z M5.62633745,11.9975309 C5.46584362,11.618107 5.80411523,11.526749 5.80411523,11.526749 C7.29958848,11.2444444 9.4,11.8872428 9.4,11.8872428 C15.1144033,13.1884774 25.3037037,19.5711934 25.3037037,19.5711934 C33.1489712,25.0609053 34.3522634,27.4790123 34.5325103,28.1654321 C34.5703509,28.3107676 34.4980867,28.4622447 34.3613169,28.5242798 C33.5432099,28.8987654 31.3522634,28.3407407 31.3522634,28.3407407 C24.599177,26.5300412 19.1983539,23.2123457 19.1983539,23.2123457 C14.345679,20.5950617 9.5473251,16.5679012 9.5473251,16.5679012 C5.90123457,13.4979424 5.62798354,12.000823 5.62798354,12.000823 L5.62633745,11.9975309 Z" id="Shape" fill="#6F7390"></path>
                        <circle id="Oval" fill="#B7B9C8" cx="20" cy="20" r="2.05761317"></circle>
                        <ellipse id="Oval" fill="#B7B9C8" cx="28.436214" cy="12.0987654" rx="1.19341564" ry="1.2345679"></ellipse>
                        <ellipse id="Oval" fill="#B7B9C8" cx="8.84773663" cy="16.2962963" rx="1.19341564" ry="1.2345679"></ellipse>
                        <ellipse id="Oval" fill="#B7B9C8" cx="17.5720165" cy="31.4403292" rx="1.19341564" ry="1.2345679"></ellipse>
                    </g>
                    <path d="M3,76.8 L3,60 L8.664,60 C13.368,60 16.272,63.144 16.272,68.4 C16.272,73.704 13.368,76.8 8.664,76.8 L3,76.8 Z M14.112,68.4 C14.112,64.392 12.336,61.68 8.304,61.68 L5.088,61.68 L5.088,75.12 L8.304,75.12 C12.336,75.12 14.112,72.408 14.112,68.4 Z M26.04,60 L32.16,76.8 L29.976,76.8 L28.344,72.24 L21.672,72.24 L20.04,76.8 L18,76.8 L24.12,60 L26.04,60 Z M25.008,62.712 L24.96,62.712 C24.768,63.432 24.096,65.4 23.448,67.176 L22.248,70.608 L27.768,70.608 L26.568,67.176 C25.92,65.376 25.2,63.432 25.008,62.712 Z M34.776,76.8 L34.776,60 L36.864,60 L36.864,76.8 L34.776,76.8 Z" id="DAI" fill="#2A3036"></path>
                </g>
                <g id="Rectangle-Copy-13">
                    <use fill="black" fill-opacity="1" filter="url(#filter-13)" xlink:href="#path-12"></use>
                    <use fill="#FFFFFF" fill-rule="evenodd" xlink:href="#path-12"></use>
                </g>
                <g id="And-more.-2" transform="translate(751.000000, 342.000000)" fill="#2A3036" font-family="BaiJamjuree-Regular, Bai Jamjuree" font-size="16" font-weight="normal">
                    <text id="And-more.">
                        <tspan x="0.28" y="16">And more.</tspan>
                    </text>
                </g>
                <g id="Group-20" transform="translate(447.000000, 306.000000)">
                    <path d="M10.008,92.088 L1.53477231e-12,92.088 L1.53477231e-12,75.288 L9.84,75.288 L9.84,76.968 L2.088,76.968 L2.088,82.584 L9.336,82.584 L9.336,84.264 L2.088,84.264 L2.088,90.408 L10.008,90.408 L10.008,92.088 Z M12.456,83.688 C12.456,78.312 15.504,75 19.944,75 C24.384,75 27.432,78.312 27.432,83.688 C27.432,89.064 24.384,92.376 19.944,92.376 C15.504,92.376 12.456,89.064 12.456,83.688 Z M14.616,83.688 C14.616,87.6 16.392,90.672 19.944,90.672 C23.496,90.672 25.272,87.6 25.272,83.688 C25.272,79.776 23.496,76.704 19.944,76.704 C16.392,76.704 14.616,79.776 14.616,83.688 Z M32.496,79.56 C32.496,81.288 33.432,81.936 36.48,82.44 C40.2,83.016 42.408,84.216 42.408,87.312 C42.408,90.312 40.128,92.376 36.288,92.376 C32.208,92.376 30.024,90.168 29.904,87.36 L31.968,87.048 C32.088,88.848 33.144,90.72 36.288,90.72 C38.856,90.72 40.2,89.496 40.2,87.48 C40.2,85.656 39.144,84.792 35.976,84.336 C32.304,83.832 30.336,82.536 30.336,79.752 C30.336,76.824 32.688,75 36.096,75 C39.456,75 41.592,76.656 42.048,79.416 L39.984,79.944 C39.696,77.928 38.568,76.68 36.072,76.68 C33.6,76.68 32.496,77.832 32.496,79.56 Z" id="EOS" fill="#2A3036" fill-rule="nonzero"></path>
                    <g id="Group-3" transform="translate(3.000000, 0.000000)">
                        <mask id="mask-15" fill="white">
                            <use xlink:href="#path-14"></use>
                        </mask>
                        <g id="Clip-2"></g>
                        <path d="M35.0038174,43.0511478 L18.2990348,53.2461913 L21.5030348,43.0511478 L21.626687,42.6574957 L26.4452087,27.3214957 L35.3614696,42.6574957 L35.0038174,43.0511478 Z M17.9499913,53.0262783 L14.8164261,43.0511478 L14.6919913,42.6574957 L9.72712174,26.8550609 L17.9499913,12.7101913 L26.1736435,26.8550609 L21.2087739,42.6574957 L21.0851217,43.0511478 L17.9499913,53.0262783 Z M0.896947826,43.0511478 L0.539295652,42.6574957 L9.45555652,27.3214957 L14.2748609,42.6574957 L14.398513,43.0511478 L17.6017304,53.2461913 L0.896947826,43.0511478 Z M1.2819913,39.0410609 L1.47373043,38.2099304 L1.47373043,38.2099304 L6.30868696,17.3088 L9.29433913,26.8081043 L2.44964348,38.580887 L0.693469565,41.6573217 L1.28590435,39.0426261 L1.2819913,39.0410609 Z M17.7512087,0.818452174 L17.7512087,12.2617565 L9.56590435,26.3416696 L6.49964348,16.584887 L17.7512087,0.818452174 Z M18.1503391,0.818452174 L29.4011217,16.584887 L26.3356435,26.3416696 L18.1503391,12.2617565 L18.1503391,0.818452174 Z M34.2399913,37.4038435 L34.2407739,37.4069739 L34.6187739,39.0410609 L34.6179913,39.0418435 L35.1916435,41.5305391 L33.892513,39.3220174 L33.8839043,39.3251478 L33.0652957,37.9172348 L33.0652957,37.9164522 L26.6072087,26.8081043 L29.5912957,17.3088 L34.2399913,37.4038435 Z M35.8983391,42.8226261 L35.8920783,42.7741043 L29.8268609,16.556713 L29.8127739,16.5042783 C29.8080783,16.4839304 29.798687,16.4628 29.7791217,16.4346261 L29.7595565,16.4033217 L18.1503391,0.134452174 L18.1080783,0.0796695652 C18.1018174,0.0710608696 18.0924261,0.0608869565 18.0799043,0.0499304348 C18.0532957,0.0272347826 18.0094696,-0.000156521739 17.9499913,-0.000156521739 C17.8920783,-0.000156521739 17.8482522,0.0272347826 17.8208609,0.0499304348 C17.8208609,0.0499304348 17.7989478,0.0718434783 17.7934696,0.0788869565 L17.7676435,0.111756522 L6.14746957,16.3939304 L6.14512174,16.3994087 L6.11616522,16.4424522 C6.10286087,16.4620174 6.09346957,16.4831478 6.09033913,16.494887 L6.07312174,16.5614087 L0.00868695652,42.7764522 L0.00790434783,42.7913217 L0.00320869565,42.8226261 C-0.000704347826,42.8453217 -0.00148695652,42.8578435 0.00320869565,42.8852348 L0.0196434783,42.9376696 L0.0266869565,42.9533217 L0.0501652174,42.9846261 C0.0548608696,42.9893217 0.0634695652,42.998713 0.0838173913,43.0120174 L0.121382609,43.0409739 L17.8333826,53.8503652 L17.8920783,53.8769739 C17.9147739,53.8840174 17.9351217,53.8879304 17.9499913,53.8879304 C17.9656435,53.8879304 17.9859913,53.8840174 17.990687,53.8832348 L18.0556435,53.8581913 L35.7872087,43.0354957 L35.8177304,43.0096696 L35.8459043,42.9901043 L35.8701652,42.9619304 L35.8889478,42.9204522 L35.9017518,42.8641043 C35.9022522,42.8570609 35.9017518,42.8445391 35.8983391,42.8226261 L35.8983391,42.8226261 Z" id="Fill-1" stroke="#07252A" fill="#443F54" mask="url(#mask-15)"></path>
                    </g>
                </g>
            </g>
        </g>
    </g>
</svg>